<svg width="1578" height="830" viewBox="0 0 1578 830" fill="none" xmlns="http://www.w3.org/2000/svg">
<path d="M505.425 37.5576C505.512 36.7457 505.894 34.4214 511.535 31.0623C517.46 27.5336 527.08 24.2805 540.838 21.8709C568.156 17.0862 606.441 16.4893 650.064 18.8259C735.296 23.3914 836.61 38.8818 905.494 52.1031C920.935 63.0088 943.804 70.2342 970.347 75.053C999.834 80.4063 1036.5 83.2257 1078.54 83.4864C1162.68 84.0079 1269.97 74.2836 1387.73 52.9073C1445.29 42.4585 1482.03 43.5972 1504.34 50.6193C1515.19 54.0372 1522.06 58.6716 1526.47 63.5394C1530.83 68.353 1533.6 74.2904 1534.86 81.705C1537.52 97.3242 1533.31 118.462 1523.39 143.422C1513.66 167.902 1499.4 193.748 1484.75 217.859C1451.63 272.335 1453.46 322.44 1469.5 381.806C1476.65 408.256 1486.8 437.193 1498.08 469.382C1499.25 472.712 1500.43 476.076 1501.62 479.476C1514.39 515.983 1528.57 557.251 1542.24 605.558C1555.9 653.87 1561.4 688.638 1560.38 712.785C1559.38 736.641 1552.32 746.694 1544.23 751.521C1534.68 757.216 1518.11 759.248 1490.85 754.495C1464.23 749.851 1430.88 739.388 1390.67 724.517C1223.28 662.61 1039.28 693.856 902.973 786.241C872.708 806.754 845.531 813.419 821.831 812.4C797.936 811.373 776.088 802.465 756.872 789.437C737.608 776.377 721.457 759.479 709.337 743.444C697.049 727.187 689.717 712.908 687.321 705.723C683.172 693.284 671.286 686.413 662.167 682.325C651.849 677.7 638.436 673.826 623.076 670.326C592.23 663.295 549.775 656.964 500.044 649.831C493.937 648.955 487.712 648.066 481.373 647.161C383.882 633.236 259.724 615.503 130.927 583.802C96.8575 575.416 71.8437 567.335 53.8903 559.424C35.6984 551.408 26.2579 544.208 21.6484 538.433C17.7438 533.541 16.919 529.28 17.8368 523.953C18.9449 517.523 22.7282 509.304 29.8394 498.268C35.328 489.751 41.9621 480.774 49.4761 470.607C51.6257 467.699 53.8473 464.693 56.1347 461.572C66.188 447.857 77.0767 432.488 86.8678 415.476C106.541 381.293 122.142 339.859 118.624 289.631C115.41 243.741 113.343 211.125 113.776 187.275C114.217 162.937 117.315 151.223 121.568 144.738C125.121 139.319 131.157 135.078 146.426 131.409C158.008 128.626 172.314 126.707 191.199 124.172C198.191 123.234 205.811 122.211 214.153 121.029C242.89 116.958 273.655 115.66 304.431 114.805C309.646 114.66 314.873 114.528 320.093 114.396C345.288 113.759 370.306 113.127 392.884 111.089C419.902 108.65 445.857 104.045 466.028 93.5507C487.356 82.4548 502.531 64.4933 505.425 37.5576Z" fill="#4DA255"/>
<path d="M505.425 37.5576C505.512 36.7457 505.894 34.4214 511.535 31.0623C517.46 27.5336 527.08 24.2805 540.838 21.8709C568.156 17.0862 606.441 16.4893 650.064 18.8259C735.296 23.3914 836.61 38.8818 905.494 52.1031C920.935 63.0088 943.804 70.2342 970.347 75.053C999.834 80.4063 1036.5 83.2257 1078.54 83.4864C1162.68 84.0079 1269.97 74.2836 1387.73 52.9073C1445.29 42.4585 1482.03 43.5972 1504.34 50.6193C1515.19 54.0372 1522.06 58.6716 1526.47 63.5394C1530.83 68.353 1533.6 74.2904 1534.86 81.705C1537.52 97.3242 1533.31 118.462 1523.39 143.422C1513.66 167.902 1499.4 193.748 1484.75 217.859C1451.63 272.335 1453.46 322.44 1469.5 381.806C1476.65 408.256 1486.8 437.193 1498.08 469.382C1499.25 472.712 1500.43 476.076 1501.62 479.476C1514.39 515.983 1528.57 557.251 1542.24 605.558C1555.9 653.87 1561.4 688.638 1560.38 712.785C1559.38 736.641 1552.32 746.694 1544.23 751.521C1534.68 757.216 1518.11 759.248 1490.85 754.495C1464.23 749.851 1430.88 739.388 1390.67 724.517C1223.28 662.61 1039.28 693.856 902.973 786.241C872.708 806.754 845.531 813.419 821.831 812.4C797.936 811.373 776.088 802.465 756.872 789.437C737.608 776.377 721.457 759.479 709.337 743.444C697.049 727.187 689.717 712.908 687.321 705.723C683.172 693.284 671.286 686.413 662.167 682.325C651.849 677.7 638.436 673.826 623.076 670.326C592.23 663.295 549.775 656.964 500.044 649.831C493.937 648.955 487.712 648.066 481.373 647.161C383.882 633.236 259.724 615.503 130.927 583.802C96.8575 575.416 71.8437 567.335 53.8903 559.424C35.6984 551.408 26.2579 544.208 21.6484 538.433C17.7438 533.541 16.919 529.28 17.8368 523.953C18.9449 517.523 22.7282 509.304 29.8394 498.268C35.328 489.751 41.9621 480.774 49.4761 470.607C51.6257 467.699 53.8473 464.693 56.1347 461.572C66.188 447.857 77.0767 432.488 86.8678 415.476C106.541 381.293 122.142 339.859 118.624 289.631C115.41 243.741 113.343 211.125 113.776 187.275C114.217 162.937 117.315 151.223 121.568 144.738C125.121 139.319 131.157 135.078 146.426 131.409C158.008 128.626 172.314 126.707 191.199 124.172C198.191 123.234 205.811 122.211 214.153 121.029C242.89 116.958 273.655 115.66 304.431 114.805C309.646 114.66 314.873 114.528 320.093 114.396C345.288 113.759 370.306 113.127 392.884 111.089C419.902 108.65 445.857 104.045 466.028 93.5507C487.356 82.4548 502.531 64.4933 505.425 37.5576Z" stroke="#CBACAC" stroke-width="35"/>
<path d="M505.425 37.5576C505.512 36.7457 505.894 34.4214 511.535 31.0623C517.46 27.5336 527.08 24.2805 540.838 21.8709C568.156 17.0862 606.441 16.4893 650.064 18.8259C735.296 23.3914 836.61 38.8818 905.494 52.1031C920.935 63.0088 943.804 70.2342 970.347 75.053C999.834 80.4063 1036.5 83.2257 1078.54 83.4864C1162.68 84.0079 1269.97 74.2836 1387.73 52.9073C1445.29 42.4585 1482.03 43.5972 1504.34 50.6193C1515.19 54.0372 1522.06 58.6716 1526.47 63.5394C1530.83 68.353 1533.6 74.2904 1534.86 81.705C1537.52 97.3242 1533.31 118.462 1523.39 143.422C1513.66 167.902 1499.4 193.748 1484.75 217.859C1451.63 272.335 1453.46 322.44 1469.5 381.806C1476.65 408.256 1486.8 437.193 1498.08 469.382C1499.25 472.712 1500.43 476.076 1501.62 479.476C1514.39 515.983 1528.57 557.251 1542.24 605.558C1555.9 653.87 1561.4 688.638 1560.38 712.785C1559.38 736.641 1552.32 746.694 1544.23 751.521C1534.68 757.216 1518.11 759.248 1490.85 754.495C1464.23 749.851 1430.88 739.388 1390.67 724.517C1223.28 662.61 1039.28 693.856 902.973 786.241C872.708 806.754 845.531 813.419 821.831 812.4C797.936 811.373 776.088 802.465 756.872 789.437C737.608 776.377 721.457 759.479 709.337 743.444C697.049 727.187 689.717 712.908 687.321 705.723C683.172 693.284 671.286 686.413 662.167 682.325C651.849 677.7 638.436 673.826 623.076 670.326C592.23 663.295 549.775 656.964 500.044 649.831C493.937 648.955 487.712 648.066 481.373 647.161C383.882 633.236 259.724 615.503 130.927 583.802C96.8575 575.416 71.8437 567.335 53.8903 559.424C35.6984 551.408 26.2579 544.208 21.6484 538.433C17.7438 533.541 16.919 529.28 17.8368 523.953C18.9449 517.523 22.7282 509.304 29.8394 498.268C35.328 489.751 41.9621 480.774 49.4761 470.607C51.6257 467.699 53.8473 464.693 56.1347 461.572C66.188 447.857 77.0767 432.488 86.8678 415.476C106.541 381.293 122.142 339.859 118.624 289.631C115.41 243.741 113.343 211.125 113.776 187.275C114.217 162.937 117.315 151.223 121.568 144.738C125.121 139.319 131.157 135.078 146.426 131.409C158.008 128.626 172.314 126.707 191.199 124.172C198.191 123.234 205.811 122.211 214.153 121.029C242.89 116.958 273.655 115.66 304.431 114.805C309.646 114.66 314.873 114.528 320.093 114.396C345.288 113.759 370.306 113.127 392.884 111.089C419.902 108.65 445.857 104.045 466.028 93.5507C487.356 82.4548 502.531 64.4933 505.425 37.5576Z" stroke="#F3E69E" stroke-width="35"/>
<path d="M375.484 32.0977C395.009 44.3214 361.04 57.7948 341.614 63.0034C333.597 61.3607 316.379 50.2636 311.642 19.0169C305.722 -20.0415 351.078 16.818 375.484 32.0977Z" fill="#F3E69E"/>
<path d="M1253.24 786.5C1217.64 777.7 1268.08 755.833 1297.74 746C1311.24 746 1342.74 754.1 1360.74 786.5C1379.8 820.803 1321.38 804.889 1276.02 792.532C1267.82 790.3 1260.05 788.183 1253.24 786.5Z" fill="#F3E69E"/>
<path d="M1253.24 786.5C1217.64 777.7 1268.08 755.833 1297.74 746C1311.24 746 1342.74 754.1 1360.74 786.5C1379.8 820.803 1321.38 804.889 1276.02 792.532C1267.82 790.3 1260.05 788.183 1253.24 786.5Z" stroke="black"/>
<path d="M1063.13 794.146C1039.49 788.682 1072.99 775.105 1092.69 769C1101.66 769 1122.58 774.029 1134.54 794.146C1149.48 819.292 1092.69 800.976 1063.13 794.146Z" fill="#F3E69E"/>
<path d="M392.133 25.1461C368.486 19.6823 401.986 6.10543 421.692 0C430.659 0 451.582 5.02922 463.539 25.1461C478.484 50.2922 421.692 31.9759 392.133 25.1461Z" fill="#F3E69E"/>
</svg>
