<svg width="1778" height="1030" viewBox="0 0 1778 1030" fill="none" xmlns="http://www.w3.org/2000/svg">
<g filter="url(#filter0_d)">
<path d="M588.025 135.689C594.967 71.053 874.095 108.757 1012.79 135.689C1059.84 174.032 1250.75 178.14 1484.6 135.689C1718.45 93.2374 1659.08 229.264 1599.7 326.948C1540.32 424.632 1603.81 505.427 1659.08 700.795C1714.34 896.163 1646.29 900.727 1484.6 840.93C1322.92 781.133 1144.79 811.26 1012.79 900.727C880.794 990.195 783.509 849.603 770.72 811.26C757.931 772.917 503.071 768.808 226.744 700.795C-49.5823 632.781 213.956 573.441 201.167 390.854C188.378 208.267 192.489 220.592 311.698 203.702C430.907 186.813 579.347 216.483 588.025 135.689Z" fill="#4DA255"/>
<path d="M605.425 137.558C605.512 136.746 605.894 134.421 611.535 131.062C617.46 127.534 627.08 124.281 640.838 121.871C668.156 117.086 706.441 116.489 750.064 118.826C835.296 123.391 936.61 138.882 1005.49 152.103C1020.93 163.009 1043.8 170.234 1070.35 175.053C1099.83 180.406 1136.5 183.226 1178.54 183.486C1262.68 184.008 1369.97 174.284 1487.73 152.907C1545.29 142.458 1582.03 143.597 1604.34 150.619C1615.19 154.037 1622.06 158.672 1626.47 163.539C1630.83 168.353 1633.6 174.29 1634.86 181.705C1637.52 197.324 1633.31 218.462 1623.39 243.422C1613.66 267.902 1599.4 293.748 1584.75 317.859C1551.63 372.335 1553.46 422.44 1569.5 481.806C1576.65 508.256 1586.8 537.193 1598.08 569.382C1599.25 572.712 1600.43 576.076 1601.62 579.476C1614.39 615.983 1628.57 657.251 1642.24 705.558C1655.9 753.87 1661.4 788.638 1660.38 812.785C1659.38 836.641 1652.32 846.694 1644.23 851.521C1634.68 857.216 1618.11 859.248 1590.85 854.495C1564.23 849.851 1530.88 839.388 1490.67 824.517C1323.28 762.61 1139.28 793.856 1002.97 886.241C972.708 906.754 945.531 913.419 921.831 912.4C897.936 911.373 876.088 902.465 856.872 889.437C837.608 876.377 821.457 859.479 809.337 843.444C797.049 827.187 789.717 812.908 787.321 805.723C783.172 793.284 771.286 786.413 762.167 782.325C751.849 777.7 738.436 773.826 723.076 770.326C692.23 763.295 649.775 756.964 600.044 749.831C593.937 748.955 587.712 748.066 581.373 747.161C483.882 733.236 359.724 715.503 230.927 683.802C196.857 675.416 171.844 667.335 153.89 659.424C135.698 651.408 126.258 644.208 121.648 638.433C117.744 633.541 116.919 629.28 117.837 623.953C118.945 617.523 122.728 609.304 129.839 598.268C135.328 589.751 141.962 580.774 149.476 570.607C151.626 567.699 153.847 564.693 156.135 561.572C166.188 547.857 177.077 532.488 186.868 515.476C206.541 481.293 222.142 439.859 218.624 389.631C215.41 343.741 213.343 311.125 213.776 287.275C214.217 262.937 217.315 251.223 221.568 244.738C225.121 239.319 231.157 235.078 246.426 231.409C258.008 228.626 272.314 226.707 291.199 224.172C298.191 223.234 305.811 222.211 314.153 221.029C342.89 216.958 373.655 215.66 404.431 214.805C409.646 214.66 414.873 214.528 420.093 214.396C445.288 213.759 470.306 213.127 492.884 211.089C519.902 208.65 545.857 204.045 566.028 193.551C587.356 182.455 602.531 164.493 605.425 137.558Z" stroke="#CBACAC" stroke-width="35"/>
<path d="M605.425 137.558C605.512 136.746 605.894 134.421 611.535 131.062C617.46 127.534 627.08 124.281 640.838 121.871C668.156 117.086 706.441 116.489 750.064 118.826C835.296 123.391 936.61 138.882 1005.49 152.103C1020.93 163.009 1043.8 170.234 1070.35 175.053C1099.83 180.406 1136.5 183.226 1178.54 183.486C1262.68 184.008 1369.97 174.284 1487.73 152.907C1545.29 142.458 1582.03 143.597 1604.34 150.619C1615.19 154.037 1622.06 158.672 1626.47 163.539C1630.83 168.353 1633.6 174.29 1634.86 181.705C1637.52 197.324 1633.31 218.462 1623.39 243.422C1613.66 267.902 1599.4 293.748 1584.75 317.859C1551.63 372.335 1553.46 422.44 1569.5 481.806C1576.65 508.256 1586.8 537.193 1598.08 569.382C1599.25 572.712 1600.43 576.076 1601.62 579.476C1614.39 615.983 1628.57 657.251 1642.24 705.558C1655.9 753.87 1661.4 788.638 1660.38 812.785C1659.38 836.641 1652.32 846.694 1644.23 851.521C1634.68 857.216 1618.11 859.248 1590.85 854.495C1564.23 849.851 1530.88 839.388 1490.67 824.517C1323.28 762.61 1139.28 793.856 1002.97 886.241C972.708 906.754 945.531 913.419 921.831 912.4C897.936 911.373 876.088 902.465 856.872 889.437C837.608 876.377 821.457 859.479 809.337 843.444C797.049 827.187 789.717 812.908 787.321 805.723C783.172 793.284 771.286 786.413 762.167 782.325C751.849 777.7 738.436 773.826 723.076 770.326C692.23 763.295 649.775 756.964 600.044 749.831C593.937 748.955 587.712 748.066 581.373 747.161C483.882 733.236 359.724 715.503 230.927 683.802C196.857 675.416 171.844 667.335 153.89 659.424C135.698 651.408 126.258 644.208 121.648 638.433C117.744 633.541 116.919 629.28 117.837 623.953C118.945 617.523 122.728 609.304 129.839 598.268C135.328 589.751 141.962 580.774 149.476 570.607C151.626 567.699 153.847 564.693 156.135 561.572C166.188 547.857 177.077 532.488 186.868 515.476C206.541 481.293 222.142 439.859 218.624 389.631C215.41 343.741 213.343 311.125 213.776 287.275C214.217 262.937 217.315 251.223 221.568 244.738C225.121 239.319 231.157 235.078 246.426 231.409C258.008 228.626 272.314 226.707 291.199 224.172C298.191 223.234 305.811 222.211 314.153 221.029C342.89 216.958 373.655 215.66 404.431 214.805C409.646 214.66 414.873 214.528 420.093 214.396C445.288 213.759 470.306 213.127 492.884 211.089C519.902 208.65 545.857 204.045 566.028 193.551C587.356 182.455 602.531 164.493 605.425 137.558Z" stroke="#F3E69E" stroke-width="35"/>
</g>
<g filter="url(#filter1_d)">
<path d="M475.484 132.098C495.009 144.321 461.04 157.795 441.614 163.003C433.597 161.361 416.379 150.264 411.642 119.017C405.722 79.9585 451.078 116.818 475.484 132.098Z" fill="#F3E69E"/>
</g>
<g filter="url(#filter2_d)">
<path d="M1353.24 886.5C1317.64 877.7 1368.08 855.833 1397.74 846C1411.24 846 1442.74 854.1 1460.74 886.5C1483.24 927 1397.74 897.5 1353.24 886.5Z" fill="#F3E69E"/>
</g>
<g filter="url(#filter3_d)">
<path d="M1163.13 894.146C1139.49 888.682 1172.99 875.105 1192.69 869C1201.66 869 1222.58 874.029 1234.54 894.146C1249.48 919.292 1192.69 900.976 1163.13 894.146Z" fill="#F3E69E"/>
</g>
<g filter="url(#filter4_d)">
<path d="M492.133 125.146C468.486 119.682 501.986 106.105 521.692 100C530.659 100 551.582 105.029 563.539 125.146C578.484 150.292 521.692 131.976 492.133 125.146Z" fill="#F3E69E"/>
</g>
<defs>
<filter id="filter0_d" x="0" y="0" width="1778" height="1030" filterUnits="userSpaceOnUse" color-interpolation-filters="sRGB">
<feFlood flood-opacity="0" result="BackgroundImageFix"/>
<feColorMatrix in="SourceAlpha" type="matrix" values="0 0 0 0 0 0 0 0 0 0 0 0 0 0 0 0 0 0 127 0"/>
<feOffset/>
<feGaussianBlur stdDeviation="50"/>
<feColorMatrix type="matrix" values="0 0 0 0 0.662188 0 0 0 0 0.80612 0 0 0 0 0.975 0 0 0 1 0"/>
<feBlend mode="normal" in2="BackgroundImageFix" result="effect1_dropShadow"/>
<feBlend mode="normal" in="SourceGraphic" in2="effect1_dropShadow" result="shape"/>
</filter>
<filter id="filter1_d" x="352" y="50" width="184.559" height="169.908" filterUnits="userSpaceOnUse" color-interpolation-filters="sRGB">
<feFlood flood-opacity="0" result="BackgroundImageFix"/>
<feColorMatrix in="SourceAlpha" type="matrix" values="0 0 0 0 0 0 0 0 0 0 0 0 0 0 0 0 0 0 127 0"/>
<feOffset/>
<feGaussianBlur stdDeviation="25"/>
<feColorMatrix type="matrix" values="0 0 0 0 0.662745 0 0 0 0 0.807843 0 0 0 0 0.976471 0 0 0 1 0"/>
<feBlend mode="normal" in2="BackgroundImageFix" result="effect1_dropShadow"/>
<feBlend mode="normal" in="SourceGraphic" in2="effect1_dropShadow" result="shape"/>
</filter>
<filter id="filter2_d" x="1291" y="796" width="223.45" height="161.202" filterUnits="userSpaceOnUse" color-interpolation-filters="sRGB">
<feFlood flood-opacity="0" result="BackgroundImageFix"/>
<feColorMatrix in="SourceAlpha" type="matrix" values="0 0 0 0 0 0 0 0 0 0 0 0 0 0 0 0 0 0 127 0"/>
<feOffset/>
<feGaussianBlur stdDeviation="25"/>
<feColorMatrix type="matrix" values="0 0 0 0 0.662745 0 0 0 0 0.807843 0 0 0 0 0.976471 0 0 0 1 0"/>
<feBlend mode="normal" in2="BackgroundImageFix" result="effect1_dropShadow"/>
<feBlend mode="normal" in="SourceGraphic" in2="effect1_dropShadow" result="shape"/>
</filter>
<filter id="filter3_d" x="1105" y="819" width="182" height="138" filterUnits="userSpaceOnUse" color-interpolation-filters="sRGB">
<feFlood flood-opacity="0" result="BackgroundImageFix"/>
<feColorMatrix in="SourceAlpha" type="matrix" values="0 0 0 0 0 0 0 0 0 0 0 0 0 0 0 0 0 0 127 0"/>
<feOffset/>
<feGaussianBlur stdDeviation="25"/>
<feColorMatrix type="matrix" values="0 0 0 0 0.662745 0 0 0 0 0.807843 0 0 0 0 0.976471 0 0 0 1 0"/>
<feBlend mode="normal" in2="BackgroundImageFix" result="effect1_dropShadow"/>
<feBlend mode="normal" in="SourceGraphic" in2="effect1_dropShadow" result="shape"/>
</filter>
<filter id="filter4_d" x="434" y="50" width="182" height="138" filterUnits="userSpaceOnUse" color-interpolation-filters="sRGB">
<feFlood flood-opacity="0" result="BackgroundImageFix"/>
<feColorMatrix in="SourceAlpha" type="matrix" values="0 0 0 0 0 0 0 0 0 0 0 0 0 0 0 0 0 0 127 0"/>
<feOffset/>
<feGaussianBlur stdDeviation="25"/>
<feColorMatrix type="matrix" values="0 0 0 0 0.662745 0 0 0 0 0.807843 0 0 0 0 0.976471 0 0 0 1 0"/>
<feBlend mode="normal" in2="BackgroundImageFix" result="effect1_dropShadow"/>
<feBlend mode="normal" in="SourceGraphic" in2="effect1_dropShadow" result="shape"/>
</filter>
</defs>
</svg>
