<svg width="1142" height="207" viewBox="0 0 1142 207" fill="none" xmlns="http://www.w3.org/2000/svg">
<path d="M366.874 85L500 206.925L280 207L366.874 85Z" fill="url(#paint0_linear)"/>
<path d="M366.962 85L454 207H280L366.962 85Z" fill="url(#paint1_linear)"/>
<path d="M994.612 78L1135 206.921L903 207L994.612 78Z" fill="url(#paint2_linear)"/>
<path d="M994.96 78L1087 207H903L994.96 78Z" fill="url(#paint3_linear)"/>
<path d="M826.316 1L1049 206.874L681 207L826.316 1Z" fill="url(#paint4_linear)"/>
<path d="M825.937 0L972 207H680L825.937 0Z" fill="url(#paint5_linear)"/>
<path d="M511.3 66L665 206.914L411 207L511.3 66Z" fill="url(#paint6_linear)"/>
<path d="M511.457 66L612 207H411L511.457 66Z" fill="url(#paint7_linear)"/>
<path d="M151.131 3L372 206.875L7 207L151.131 3Z" fill="url(#paint8_linear)"/>
<path d="M151.937 3L297 207H7L151.937 3Z" fill="url(#paint9_linear)"/>
<defs>
<linearGradient id="paint0_linear" x1="389.962" y1="85" x2="389.962" y2="207.224" gradientUnits="userSpaceOnUse">
<stop stop-color="#B8A5DD"/>
<stop offset="1" stop-color="#674D8F"/>
</linearGradient>
<linearGradient id="paint1_linear" x1="366.962" y1="85" x2="366.962" y2="247.965" gradientUnits="userSpaceOnUse">
<stop stop-color="#D8C3F7" stop-opacity="0.31"/>
<stop offset="1" stop-color="#704DA2"/>
</linearGradient>
<linearGradient id="paint2_linear" x1="1018.96" y1="78" x2="1018.96" y2="207.237" gradientUnits="userSpaceOnUse">
<stop stop-color="#B8A5DD"/>
<stop offset="1" stop-color="#674D8F"/>
</linearGradient>
<linearGradient id="paint3_linear" x1="994.96" y1="78" x2="994.96" y2="250.315" gradientUnits="userSpaceOnUse">
<stop stop-color="#D8C3F7" stop-opacity="0.31"/>
<stop offset="1" stop-color="#704DA2"/>
</linearGradient>
<linearGradient id="paint4_linear" x1="864.937" y1="1" x2="864.937" y2="207.378" gradientUnits="userSpaceOnUse">
<stop stop-color="#B8A5DD"/>
<stop offset="1" stop-color="#674D8F"/>
</linearGradient>
<linearGradient id="paint5_linear" x1="825.937" y1="0" x2="825.937" y2="276.506" gradientUnits="userSpaceOnUse">
<stop stop-color="#D8C3F7" stop-opacity="0.31"/>
<stop offset="1" stop-color="#704DA2"/>
</linearGradient>
<linearGradient id="paint6_linear" x1="537.957" y1="66" x2="537.957" y2="207.259" gradientUnits="userSpaceOnUse">
<stop stop-color="#B8A5DD"/>
<stop offset="1" stop-color="#674D8F"/>
</linearGradient>
<linearGradient id="paint7_linear" x1="511.457" y1="66" x2="511.457" y2="254.344" gradientUnits="userSpaceOnUse">
<stop stop-color="#D8C3F7" stop-opacity="0.31"/>
<stop offset="1" stop-color="#704DA2"/>
</linearGradient>
<linearGradient id="paint8_linear" x1="189.438" y1="3" x2="189.438" y2="207.374" gradientUnits="userSpaceOnUse">
<stop stop-color="#B8A5DD"/>
<stop offset="1" stop-color="#674D8F"/>
</linearGradient>
<linearGradient id="paint9_linear" x1="151.937" y1="3" x2="151.937" y2="275.498" gradientUnits="userSpaceOnUse">
<stop stop-color="#D8C3F7" stop-opacity="0.31"/>
<stop offset="1" stop-color="#704DA2"/>
</linearGradient>
</defs>
</svg>
