<svg width="6518" height="2899" viewBox="0 0 6518 2899" fill="none" xmlns="http://www.w3.org/2000/svg">
<rect width="6518" height="2899" fill="url(#paint0_linear)"/>
<rect x="373" y="2576" width="333" height="320" fill="#7A4DB0"/>
<path d="M539 2419L752.908 2603.5H325.092L539 2419Z" fill="#4A3053"/>
<path d="M1334.5 923L2221 2894.79L756 2896L1334.5 923Z" fill="url(#paint1_linear)"/>
<path d="M4078.5 412L4965 2894.48L3500 2896L4078.5 412Z" fill="url(#paint2_linear)"/>
<path d="M5585.5 1537L6472 2898.17L5007 2899L5585.5 1537Z" fill="url(#paint3_linear)"/>
<path d="M2655.5 1200.04L3542 2894.96L2077 2896L2655.5 1200.04Z" fill="url(#paint4_linear)"/>
<path d="M1335.75 926L1916 2899H756L1335.75 926Z" fill="url(#paint5_linear)"/>
<path d="M4079.25 412L4659 2896H3500L4079.25 412Z" fill="url(#paint6_linear)"/>
<path d="M5586.75 1537L6167 2899H5007L5586.75 1537Z" fill="url(#paint7_linear)"/>
<path d="M2656.75 1199L3237 2896H2077L2656.75 1199Z" fill="url(#paint8_linear)"/>
<rect x="1305" y="2579" width="333" height="320" fill="#7A4DB0"/>
<rect x="1305" y="2579" width="333" height="320" fill="#7A4DB0"/>
<path d="M1471 2422L1684.91 2606.5H1257.09L1471 2422Z" fill="#4A3053"/>
<rect x="1284" y="927" width="108" height="139" fill="#7A4DB0"/>
<path d="M1338 859L1407.28 939.25H1268.72L1338 859Z" fill="#4A3053"/>
<rect x="5533" y="1502" width="108" height="139" fill="#7A4DB0"/>
<path d="M5587 1434L5656.28 1514.25H5517.72L5587 1434Z" fill="#4A3053"/>
<rect x="4026" y="377" width="108" height="139" fill="#7A4DB0"/>
<path d="M4080 309L4149.28 389.25H4010.72L4080 309Z" fill="#4A3053"/>
<rect x="2602" y="1164" width="108" height="139" fill="#7A4DB0"/>
<path d="M2656 1096L2725.28 1176.25H2586.72L2656 1096Z" fill="#4A3053"/>
<rect x="5641" y="2579" width="333" height="320" fill="#7A4DB0"/>
<path d="M5807 2422L6020.91 2606.5H5593.09L5807 2422Z" fill="#4A3053"/>
<rect x="4140" y="2576" width="333" height="320" fill="#7A4DB0"/>
<path d="M4306 2419L4519.91 2603.5H4092.09L4306 2419Z" fill="#4A3053"/>
<rect x="2768" y="2579" width="333" height="320" fill="#7A4DB0"/>
<path d="M2934 2422L3147.91 2606.5H2720.09L2934 2422Z" fill="#4A3053"/>
<path d="M867.031 2693.5L881.906 2730.62L896.781 2693.5H904.562V2739H898.562V2721.28L899.125 2702.16L884.188 2739H879.594L864.688 2702.25L865.281 2721.28V2739H859.281V2693.5H867.031ZM935.125 2735.66C932.875 2738.3 929.573 2739.62 925.219 2739.62C921.615 2739.62 918.865 2738.58 916.969 2736.5C915.094 2734.4 914.146 2731.29 914.125 2727.19V2705.19H919.906V2727.03C919.906 2732.16 921.99 2734.72 926.156 2734.72C930.573 2734.72 933.51 2733.07 934.969 2729.78V2705.19H940.75V2739H935.25L935.125 2735.66ZM955.844 2739H950.062V2691H955.844V2739ZM972.969 2697V2705.19H979.281V2709.66H972.969V2730.62C972.969 2731.98 973.25 2733 973.812 2733.69C974.375 2734.35 975.333 2734.69 976.688 2734.69C977.354 2734.69 978.271 2734.56 979.438 2734.31V2739C977.917 2739.42 976.438 2739.62 975 2739.62C972.417 2739.62 970.469 2738.84 969.156 2737.28C967.844 2735.72 967.188 2733.5 967.188 2730.62V2709.66H961.031V2705.19H967.188V2697H972.969ZM992.344 2739H986.562V2705.19H992.344V2739ZM986.094 2696.22C986.094 2695.28 986.375 2694.49 986.938 2693.84C987.521 2693.2 988.375 2692.88 989.5 2692.88C990.625 2692.88 991.479 2693.2 992.062 2693.84C992.646 2694.49 992.938 2695.28 992.938 2696.22C992.938 2697.16 992.646 2697.94 992.062 2698.56C991.479 2699.19 990.625 2699.5 989.5 2699.5C988.375 2699.5 987.521 2699.19 986.938 2698.56C986.375 2697.94 986.094 2697.16 986.094 2696.22ZM1007.06 2705.19L1007.22 2708.94C1009.7 2706.02 1013.04 2704.56 1017.25 2704.56C1021.98 2704.56 1025.2 2706.38 1026.91 2710C1028.03 2708.38 1029.49 2707.06 1031.28 2706.06C1033.09 2705.06 1035.23 2704.56 1037.69 2704.56C1045.1 2704.56 1048.88 2708.49 1049 2716.34V2739H1043.22V2716.69C1043.22 2714.27 1042.67 2712.47 1041.56 2711.28C1040.46 2710.07 1038.6 2709.47 1036 2709.47C1033.85 2709.47 1032.07 2710.11 1030.66 2711.41C1029.24 2712.68 1028.42 2714.4 1028.19 2716.56V2739H1022.38V2716.84C1022.38 2711.93 1019.97 2709.47 1015.16 2709.47C1011.36 2709.47 1008.77 2711.08 1007.38 2714.31V2739H1001.59V2705.19H1007.06ZM1071.78 2739.62C1067.2 2739.62 1063.47 2738.12 1060.59 2735.12C1057.72 2732.1 1056.28 2728.07 1056.28 2723.03V2721.97C1056.28 2718.61 1056.92 2715.62 1058.19 2713C1059.48 2710.35 1061.27 2708.29 1063.56 2706.81C1065.88 2705.31 1068.38 2704.56 1071.06 2704.56C1075.46 2704.56 1078.88 2706.01 1081.31 2708.91C1083.75 2711.8 1084.97 2715.95 1084.97 2721.34V2723.75H1062.06C1062.15 2727.08 1063.11 2729.78 1064.97 2731.84C1066.84 2733.89 1069.22 2734.91 1072.09 2734.91C1074.14 2734.91 1075.86 2734.49 1077.28 2733.66C1078.7 2732.82 1079.94 2731.72 1081 2730.34L1084.53 2733.09C1081.7 2737.45 1077.45 2739.62 1071.78 2739.62ZM1071.06 2709.31C1068.73 2709.31 1066.77 2710.17 1065.19 2711.88C1063.6 2713.56 1062.62 2715.94 1062.25 2719H1079.19V2718.56C1079.02 2715.62 1078.23 2713.35 1076.81 2711.75C1075.4 2710.12 1073.48 2709.31 1071.06 2709.31ZM1073.88 2691H1080.88L1072.5 2700.19H1067.84L1073.88 2691ZM1090.28 2721.81C1090.28 2716.62 1091.51 2712.46 1093.97 2709.31C1096.43 2706.15 1099.65 2704.56 1103.62 2704.56C1107.58 2704.56 1110.72 2705.92 1113.03 2708.62V2691H1118.81V2739H1113.5L1113.22 2735.38C1110.91 2738.21 1107.69 2739.62 1103.56 2739.62C1099.65 2739.62 1096.45 2738.02 1093.97 2734.81C1091.51 2731.6 1090.28 2727.42 1090.28 2722.25V2721.81ZM1096.06 2722.47C1096.06 2726.3 1096.85 2729.3 1098.44 2731.47C1100.02 2733.64 1102.21 2734.72 1105 2734.72C1108.67 2734.72 1111.34 2733.07 1113.03 2729.78V2714.25C1111.3 2711.06 1108.65 2709.47 1105.06 2709.47C1102.23 2709.47 1100.02 2710.56 1098.44 2712.75C1096.85 2714.94 1096.06 2718.18 1096.06 2722.47ZM1134.09 2739H1128.31V2705.19H1134.09V2739ZM1127.84 2696.22C1127.84 2695.28 1128.12 2694.49 1128.69 2693.84C1129.27 2693.2 1130.12 2692.88 1131.25 2692.88C1132.38 2692.88 1133.23 2693.2 1133.81 2693.84C1134.4 2694.49 1134.69 2695.28 1134.69 2696.22C1134.69 2697.16 1134.4 2697.94 1133.81 2698.56C1133.23 2699.19 1132.38 2699.5 1131.25 2699.5C1130.12 2699.5 1129.27 2699.19 1128.69 2698.56C1128.12 2697.94 1127.84 2697.16 1127.84 2696.22ZM1164.25 2739C1163.92 2738.33 1163.65 2737.15 1163.44 2735.44C1160.75 2738.23 1157.54 2739.62 1153.81 2739.62C1150.48 2739.62 1147.74 2738.69 1145.59 2736.81C1143.47 2734.92 1142.41 2732.52 1142.41 2729.62C1142.41 2726.1 1143.74 2723.38 1146.41 2721.44C1149.09 2719.48 1152.86 2718.5 1157.72 2718.5H1163.34V2715.84C1163.34 2713.82 1162.74 2712.22 1161.53 2711.03C1160.32 2709.82 1158.54 2709.22 1156.19 2709.22C1154.12 2709.22 1152.4 2709.74 1151 2710.78C1149.6 2711.82 1148.91 2713.08 1148.91 2714.56H1143.09C1143.09 2712.88 1143.69 2711.25 1144.88 2709.69C1146.08 2708.1 1147.71 2706.85 1149.75 2705.94C1151.81 2705.02 1154.07 2704.56 1156.53 2704.56C1160.43 2704.56 1163.48 2705.54 1165.69 2707.5C1167.9 2709.44 1169.04 2712.11 1169.12 2715.53V2731.09C1169.12 2734.2 1169.52 2736.67 1170.31 2738.5V2739H1164.25ZM1154.66 2734.59C1156.47 2734.59 1158.19 2734.12 1159.81 2733.19C1161.44 2732.25 1162.61 2731.03 1163.34 2729.53V2722.59H1158.81C1151.73 2722.59 1148.19 2724.67 1148.19 2728.81C1148.19 2730.62 1148.79 2732.04 1150 2733.06C1151.21 2734.08 1152.76 2734.59 1154.66 2734.59Z" fill="black"/>
<path d="M2299.31 2684.03L2305.81 2658.19H2311.59L2301.75 2692H2297.06L2288.84 2666.38L2280.84 2692H2276.16L2266.34 2658.19H2272.09L2278.75 2683.5L2286.62 2658.19H2291.28L2299.31 2684.03ZM2331.53 2692.62C2326.95 2692.62 2323.22 2691.12 2320.34 2688.12C2317.47 2685.1 2316.03 2681.07 2316.03 2676.03V2674.97C2316.03 2671.61 2316.67 2668.62 2317.94 2666C2319.23 2663.35 2321.02 2661.29 2323.31 2659.81C2325.62 2658.31 2328.12 2657.56 2330.81 2657.56C2335.21 2657.56 2338.62 2659.01 2341.06 2661.91C2343.5 2664.8 2344.72 2668.95 2344.72 2674.34V2676.75H2321.81C2321.9 2680.08 2322.86 2682.78 2324.72 2684.84C2326.59 2686.89 2328.97 2687.91 2331.84 2687.91C2333.89 2687.91 2335.61 2687.49 2337.03 2686.66C2338.45 2685.82 2339.69 2684.72 2340.75 2683.34L2344.28 2686.09C2341.45 2690.45 2337.2 2692.62 2331.53 2692.62ZM2330.81 2662.31C2328.48 2662.31 2326.52 2663.17 2324.94 2664.88C2323.35 2666.56 2322.38 2668.94 2322 2672H2338.94V2671.56C2338.77 2668.62 2337.98 2666.35 2336.56 2664.75C2335.15 2663.12 2333.23 2662.31 2330.81 2662.31ZM2380.06 2675.47C2380.06 2680.64 2378.88 2684.79 2376.5 2687.94C2374.12 2691.06 2370.94 2692.62 2366.94 2692.62C2362.67 2692.62 2359.36 2691.11 2357.03 2688.09L2356.75 2692H2351.44V2644H2357.22V2661.91C2359.55 2659.01 2362.77 2657.56 2366.88 2657.56C2370.98 2657.56 2374.2 2659.11 2376.53 2662.22C2378.89 2665.32 2380.06 2669.57 2380.06 2674.97V2675.47ZM2374.28 2674.81C2374.28 2670.88 2373.52 2667.83 2372 2665.69C2370.48 2663.54 2368.29 2662.47 2365.44 2662.47C2361.62 2662.47 2358.89 2664.24 2357.22 2667.78V2682.41C2358.99 2685.95 2361.75 2687.72 2365.5 2687.72C2368.27 2687.72 2370.43 2686.65 2371.97 2684.5C2373.51 2682.35 2374.28 2679.12 2374.28 2674.81ZM2401.84 2674.81C2401.84 2669.62 2403.07 2665.46 2405.53 2662.31C2407.99 2659.15 2411.21 2657.56 2415.19 2657.56C2419.15 2657.56 2422.28 2658.92 2424.59 2661.62V2644H2430.38V2692H2425.06L2424.78 2688.38C2422.47 2691.21 2419.25 2692.62 2415.12 2692.62C2411.21 2692.62 2408.01 2691.02 2405.53 2687.81C2403.07 2684.6 2401.84 2680.42 2401.84 2675.25V2674.81ZM2407.62 2675.47C2407.62 2679.3 2408.42 2682.3 2410 2684.47C2411.58 2686.64 2413.77 2687.72 2416.56 2687.72C2420.23 2687.72 2422.91 2686.07 2424.59 2682.78V2667.25C2422.86 2664.06 2420.21 2662.47 2416.62 2662.47C2413.79 2662.47 2411.58 2663.56 2410 2665.75C2408.42 2667.94 2407.62 2671.18 2407.62 2675.47ZM2453.41 2692.62C2448.82 2692.62 2445.09 2691.12 2442.22 2688.12C2439.34 2685.1 2437.91 2681.07 2437.91 2676.03V2674.97C2437.91 2671.61 2438.54 2668.62 2439.81 2666C2441.1 2663.35 2442.9 2661.29 2445.19 2659.81C2447.5 2658.31 2450 2657.56 2452.69 2657.56C2457.08 2657.56 2460.5 2659.01 2462.94 2661.91C2465.38 2664.8 2466.59 2668.95 2466.59 2674.34V2676.75H2443.69C2443.77 2680.08 2444.74 2682.78 2446.59 2684.84C2448.47 2686.89 2450.84 2687.91 2453.72 2687.91C2455.76 2687.91 2457.49 2687.49 2458.91 2686.66C2460.32 2685.82 2461.56 2684.72 2462.62 2683.34L2466.16 2686.09C2463.32 2690.45 2459.07 2692.62 2453.41 2692.62ZM2452.69 2662.31C2450.35 2662.31 2448.4 2663.17 2446.81 2664.88C2445.23 2666.56 2444.25 2668.94 2443.88 2672H2460.81V2671.56C2460.65 2668.62 2459.85 2666.35 2458.44 2664.75C2457.02 2663.12 2455.1 2662.31 2452.69 2662.31ZM2493 2683.03C2493 2681.47 2492.41 2680.26 2491.22 2679.41C2490.05 2678.53 2488 2677.78 2485.06 2677.16C2482.15 2676.53 2479.82 2675.78 2478.09 2674.91C2476.39 2674.03 2475.11 2672.99 2474.28 2671.78C2473.47 2670.57 2473.06 2669.14 2473.06 2667.47C2473.06 2664.7 2474.23 2662.35 2476.56 2660.44C2478.92 2658.52 2481.92 2657.56 2485.56 2657.56C2489.4 2657.56 2492.5 2658.55 2494.88 2660.53C2497.27 2662.51 2498.47 2665.04 2498.47 2668.12H2492.66C2492.66 2666.54 2491.98 2665.18 2490.62 2664.03C2489.29 2662.89 2487.6 2662.31 2485.56 2662.31C2483.46 2662.31 2481.81 2662.77 2480.62 2663.69C2479.44 2664.6 2478.84 2665.8 2478.84 2667.28C2478.84 2668.68 2479.4 2669.73 2480.5 2670.44C2481.6 2671.15 2483.59 2671.82 2486.47 2672.47C2489.36 2673.11 2491.71 2673.89 2493.5 2674.78C2495.29 2675.68 2496.61 2676.76 2497.47 2678.03C2498.34 2679.28 2498.78 2680.81 2498.78 2682.62C2498.78 2685.65 2497.57 2688.07 2495.16 2689.91C2492.74 2691.72 2489.6 2692.62 2485.75 2692.62C2483.04 2692.62 2480.65 2692.15 2478.56 2691.19C2476.48 2690.23 2474.84 2688.9 2473.66 2687.19C2472.49 2685.46 2471.91 2683.59 2471.91 2681.59H2477.69C2477.79 2683.53 2478.56 2685.07 2480 2686.22C2481.46 2687.34 2483.38 2687.91 2485.75 2687.91C2487.94 2687.91 2489.69 2687.47 2491 2686.59C2492.33 2685.7 2493 2684.51 2493 2683.03ZM2512.59 2692H2506.81V2658.19H2512.59V2692ZM2506.34 2649.22C2506.34 2648.28 2506.62 2647.49 2507.19 2646.84C2507.77 2646.2 2508.62 2645.88 2509.75 2645.88C2510.88 2645.88 2511.73 2646.2 2512.31 2646.84C2512.9 2647.49 2513.19 2648.28 2513.19 2649.22C2513.19 2650.16 2512.9 2650.94 2512.31 2651.56C2511.73 2652.19 2510.88 2652.5 2509.75 2652.5C2508.62 2652.5 2507.77 2652.19 2507.19 2651.56C2506.62 2650.94 2506.34 2650.16 2506.34 2649.22ZM2520.5 2674.81C2520.5 2669.54 2521.72 2665.35 2524.16 2662.25C2526.59 2659.12 2529.82 2657.56 2533.84 2657.56C2537.97 2657.56 2541.19 2659.02 2543.5 2661.94L2543.78 2658.19H2549.06V2691.19C2549.06 2695.56 2547.76 2699.01 2545.16 2701.53C2542.57 2704.05 2539.09 2705.31 2534.72 2705.31C2532.28 2705.31 2529.9 2704.79 2527.56 2703.75C2525.23 2702.71 2523.45 2701.28 2522.22 2699.47L2525.22 2696C2527.7 2699.06 2530.73 2700.59 2534.31 2700.59C2537.12 2700.59 2539.31 2699.8 2540.88 2698.22C2542.46 2696.64 2543.25 2694.41 2543.25 2691.53V2688.62C2540.94 2691.29 2537.78 2692.62 2533.78 2692.62C2529.82 2692.62 2526.61 2691.03 2524.16 2687.84C2521.72 2684.66 2520.5 2680.31 2520.5 2674.81ZM2526.31 2675.47C2526.31 2679.28 2527.09 2682.28 2528.66 2684.47C2530.22 2686.64 2532.41 2687.72 2535.22 2687.72C2538.86 2687.72 2541.54 2686.06 2543.25 2682.75V2667.31C2541.48 2664.08 2538.82 2662.47 2535.28 2662.47C2532.47 2662.47 2530.27 2663.56 2528.69 2665.75C2527.1 2667.94 2526.31 2671.18 2526.31 2675.47ZM2563.28 2658.19L2563.47 2662.44C2566.05 2659.19 2569.43 2657.56 2573.59 2657.56C2580.74 2657.56 2584.34 2661.59 2584.41 2669.66V2692H2578.62V2669.62C2578.6 2667.19 2578.04 2665.39 2576.94 2664.22C2575.85 2663.05 2574.16 2662.47 2571.84 2662.47C2569.97 2662.47 2568.32 2662.97 2566.91 2663.97C2565.49 2664.97 2564.39 2666.28 2563.59 2667.91V2692H2557.81V2658.19H2563.28Z" fill="black"/>
<path d="M3678.94 2675.47C3678.94 2680.61 3677.76 2684.76 3675.41 2687.91C3673.05 2691.05 3669.86 2692.62 3665.84 2692.62C3661.74 2692.62 3658.51 2691.32 3656.16 2688.72V2705H3650.38V2658.19H3655.66L3655.94 2661.94C3658.29 2659.02 3661.56 2657.56 3665.75 2657.56C3669.81 2657.56 3673.02 2659.09 3675.38 2662.16C3677.75 2665.22 3678.94 2669.48 3678.94 2674.94V2675.47ZM3673.16 2674.81C3673.16 2671 3672.34 2667.99 3670.72 2665.78C3669.09 2663.57 3666.86 2662.47 3664.03 2662.47C3660.53 2662.47 3657.91 2664.02 3656.16 2667.12V2683.28C3657.89 2686.36 3660.53 2687.91 3664.09 2687.91C3666.86 2687.91 3669.06 2686.81 3670.69 2684.62C3672.33 2682.42 3673.16 2679.15 3673.16 2674.81ZM3702.66 2663.38C3701.78 2663.23 3700.83 2663.16 3699.81 2663.16C3696.02 2663.16 3693.45 2664.77 3692.09 2668V2692H3686.31V2658.19H3691.94L3692.03 2662.09C3693.93 2659.07 3696.61 2657.56 3700.09 2657.56C3701.22 2657.56 3702.07 2657.71 3702.66 2658V2663.38ZM3705.84 2674.78C3705.84 2671.47 3706.49 2668.49 3707.78 2665.84C3709.09 2663.2 3710.91 2661.16 3713.22 2659.72C3715.55 2658.28 3718.21 2657.56 3721.19 2657.56C3725.79 2657.56 3729.51 2659.16 3732.34 2662.34C3735.2 2665.53 3736.62 2669.77 3736.62 2675.06V2675.47C3736.62 2678.76 3735.99 2681.72 3734.72 2684.34C3733.47 2686.95 3731.67 2688.98 3729.31 2690.44C3726.98 2691.9 3724.29 2692.62 3721.25 2692.62C3716.67 2692.62 3712.95 2691.03 3710.09 2687.84C3707.26 2684.66 3705.84 2680.44 3705.84 2675.19V2674.78ZM3711.66 2675.47C3711.66 2679.22 3712.52 2682.23 3714.25 2684.5C3716 2686.77 3718.33 2687.91 3721.25 2687.91C3724.19 2687.91 3726.52 2686.76 3728.25 2684.47C3729.98 2682.16 3730.84 2678.93 3730.84 2674.78C3730.84 2671.07 3729.96 2668.07 3728.19 2665.78C3726.44 2663.47 3724.1 2662.31 3721.19 2662.31C3718.33 2662.31 3716.03 2663.45 3714.28 2665.72C3712.53 2667.99 3711.66 2671.24 3711.66 2675.47ZM3742.5 2674.81C3742.5 2669.54 3743.72 2665.35 3746.16 2662.25C3748.59 2659.12 3751.82 2657.56 3755.84 2657.56C3759.97 2657.56 3763.19 2659.02 3765.5 2661.94L3765.78 2658.19H3771.06V2691.19C3771.06 2695.56 3769.76 2699.01 3767.16 2701.53C3764.57 2704.05 3761.09 2705.31 3756.72 2705.31C3754.28 2705.31 3751.9 2704.79 3749.56 2703.75C3747.23 2702.71 3745.45 2701.28 3744.22 2699.47L3747.22 2696C3749.7 2699.06 3752.73 2700.59 3756.31 2700.59C3759.12 2700.59 3761.31 2699.8 3762.88 2698.22C3764.46 2696.64 3765.25 2694.41 3765.25 2691.53V2688.62C3762.94 2691.29 3759.78 2692.62 3755.78 2692.62C3751.82 2692.62 3748.61 2691.03 3746.16 2687.84C3743.72 2684.66 3742.5 2680.31 3742.5 2674.81ZM3748.31 2675.47C3748.31 2679.28 3749.09 2682.28 3750.66 2684.47C3752.22 2686.64 3754.41 2687.72 3757.22 2687.72C3760.86 2687.72 3763.54 2686.06 3765.25 2682.75V2667.31C3763.48 2664.08 3760.82 2662.47 3757.28 2662.47C3754.47 2662.47 3752.27 2663.56 3750.69 2665.75C3749.1 2667.94 3748.31 2671.18 3748.31 2675.47ZM3796.16 2663.38C3795.28 2663.23 3794.33 2663.16 3793.31 2663.16C3789.52 2663.16 3786.95 2664.77 3785.59 2668V2692H3779.81V2658.19H3785.44L3785.53 2662.09C3787.43 2659.07 3790.11 2657.56 3793.59 2657.56C3794.72 2657.56 3795.57 2657.71 3796.16 2658V2663.38ZM3821.12 2692C3820.79 2691.33 3820.52 2690.15 3820.31 2688.44C3817.62 2691.23 3814.42 2692.62 3810.69 2692.62C3807.35 2692.62 3804.61 2691.69 3802.47 2689.81C3800.34 2687.92 3799.28 2685.52 3799.28 2682.62C3799.28 2679.1 3800.61 2676.38 3803.28 2674.44C3805.97 2672.48 3809.74 2671.5 3814.59 2671.5H3820.22V2668.84C3820.22 2666.82 3819.61 2665.22 3818.41 2664.03C3817.2 2662.82 3815.42 2662.22 3813.06 2662.22C3811 2662.22 3809.27 2662.74 3807.88 2663.78C3806.48 2664.82 3805.78 2666.08 3805.78 2667.56H3799.97C3799.97 2665.88 3800.56 2664.25 3801.75 2662.69C3802.96 2661.1 3804.58 2659.85 3806.62 2658.94C3808.69 2658.02 3810.95 2657.56 3813.41 2657.56C3817.3 2657.56 3820.35 2658.54 3822.56 2660.5C3824.77 2662.44 3825.92 2665.11 3826 2668.53V2684.09C3826 2687.2 3826.4 2689.67 3827.19 2691.5V2692H3821.12ZM3811.53 2687.59C3813.34 2687.59 3815.06 2687.12 3816.69 2686.19C3818.31 2685.25 3819.49 2684.03 3820.22 2682.53V2675.59H3815.69C3808.6 2675.59 3805.06 2677.67 3805.06 2681.81C3805.06 2683.62 3805.67 2685.04 3806.88 2686.06C3808.08 2687.08 3809.64 2687.59 3811.53 2687.59ZM3840.5 2658.19L3840.66 2661.94C3843.14 2659.02 3846.48 2657.56 3850.69 2657.56C3855.42 2657.56 3858.64 2659.38 3860.34 2663C3861.47 2661.38 3862.93 2660.06 3864.72 2659.06C3866.53 2658.06 3868.67 2657.56 3871.12 2657.56C3878.54 2657.56 3882.31 2661.49 3882.44 2669.34V2692H3876.66V2669.69C3876.66 2667.27 3876.1 2665.47 3875 2664.28C3873.9 2663.07 3872.04 2662.47 3869.44 2662.47C3867.29 2662.47 3865.51 2663.11 3864.09 2664.41C3862.68 2665.68 3861.85 2667.4 3861.62 2669.56V2692H3855.81V2669.84C3855.81 2664.93 3853.41 2662.47 3848.59 2662.47C3844.8 2662.47 3842.21 2664.08 3840.81 2667.31V2692H3835.03V2658.19H3840.5ZM3896.62 2658.19L3896.78 2661.94C3899.26 2659.02 3902.6 2657.56 3906.81 2657.56C3911.54 2657.56 3914.76 2659.38 3916.47 2663C3917.59 2661.38 3919.05 2660.06 3920.84 2659.06C3922.66 2658.06 3924.79 2657.56 3927.25 2657.56C3934.67 2657.56 3938.44 2661.49 3938.56 2669.34V2692H3932.78V2669.69C3932.78 2667.27 3932.23 2665.47 3931.12 2664.28C3930.02 2663.07 3928.17 2662.47 3925.56 2662.47C3923.42 2662.47 3921.64 2663.11 3920.22 2664.41C3918.8 2665.68 3917.98 2667.4 3917.75 2669.56V2692H3911.94V2669.84C3911.94 2664.93 3909.53 2662.47 3904.72 2662.47C3900.93 2662.47 3898.33 2664.08 3896.94 2667.31V2692H3891.16V2658.19H3896.62ZM3968.19 2692C3967.85 2691.33 3967.58 2690.15 3967.38 2688.44C3964.69 2691.23 3961.48 2692.62 3957.75 2692.62C3954.42 2692.62 3951.68 2691.69 3949.53 2689.81C3947.41 2687.92 3946.34 2685.52 3946.34 2682.62C3946.34 2679.1 3947.68 2676.38 3950.34 2674.44C3953.03 2672.48 3956.8 2671.5 3961.66 2671.5H3967.28V2668.84C3967.28 2666.82 3966.68 2665.22 3965.47 2664.03C3964.26 2662.82 3962.48 2662.22 3960.12 2662.22C3958.06 2662.22 3956.33 2662.74 3954.94 2663.78C3953.54 2664.82 3952.84 2666.08 3952.84 2667.56H3947.03C3947.03 2665.88 3947.62 2664.25 3948.81 2662.69C3950.02 2661.1 3951.65 2659.85 3953.69 2658.94C3955.75 2658.02 3958.01 2657.56 3960.47 2657.56C3964.36 2657.56 3967.42 2658.54 3969.62 2660.5C3971.83 2662.44 3972.98 2665.11 3973.06 2668.53V2684.09C3973.06 2687.2 3973.46 2689.67 3974.25 2691.5V2692H3968.19ZM3958.59 2687.59C3960.41 2687.59 3962.12 2687.12 3963.75 2686.19C3965.38 2685.25 3966.55 2684.03 3967.28 2682.53V2675.59H3962.75C3955.67 2675.59 3952.12 2677.67 3952.12 2681.81C3952.12 2683.62 3952.73 2685.04 3953.94 2686.06C3955.15 2687.08 3956.7 2687.59 3958.59 2687.59ZM3989.97 2650V2658.19H3996.28V2662.66H3989.97V2683.62C3989.97 2684.98 3990.25 2686 3990.81 2686.69C3991.38 2687.35 3992.33 2687.69 3993.69 2687.69C3994.35 2687.69 3995.27 2687.56 3996.44 2687.31V2692C3994.92 2692.42 3993.44 2692.62 3992 2692.62C3989.42 2692.62 3987.47 2691.84 3986.16 2690.28C3984.84 2688.72 3984.19 2686.5 3984.19 2683.62V2662.66H3978.03V2658.19H3984.19V2650H3989.97ZM4009.34 2692H4003.56V2658.19H4009.34V2692ZM4003.09 2649.22C4003.09 2648.28 4003.38 2647.49 4003.94 2646.84C4004.52 2646.2 4005.38 2645.88 4006.5 2645.88C4007.62 2645.88 4008.48 2646.2 4009.06 2646.84C4009.65 2647.49 4009.94 2648.28 4009.94 2649.22C4009.94 2650.16 4009.65 2650.94 4009.06 2651.56C4008.48 2652.19 4007.62 2652.5 4006.5 2652.5C4005.38 2652.5 4004.52 2652.19 4003.94 2651.56C4003.38 2650.94 4003.09 2650.16 4003.09 2649.22ZM4017.09 2674.78C4017.09 2671.47 4017.74 2668.49 4019.03 2665.84C4020.34 2663.2 4022.16 2661.16 4024.47 2659.72C4026.8 2658.28 4029.46 2657.56 4032.44 2657.56C4037.04 2657.56 4040.76 2659.16 4043.59 2662.34C4046.45 2665.53 4047.88 2669.77 4047.88 2675.06V2675.47C4047.88 2678.76 4047.24 2681.72 4045.97 2684.34C4044.72 2686.95 4042.92 2688.98 4040.56 2690.44C4038.23 2691.9 4035.54 2692.62 4032.5 2692.62C4027.92 2692.62 4024.2 2691.03 4021.34 2687.84C4018.51 2684.66 4017.09 2680.44 4017.09 2675.19V2674.78ZM4022.91 2675.47C4022.91 2679.22 4023.77 2682.23 4025.5 2684.5C4027.25 2686.77 4029.58 2687.91 4032.5 2687.91C4035.44 2687.91 4037.77 2686.76 4039.5 2684.47C4041.23 2682.16 4042.09 2678.93 4042.09 2674.78C4042.09 2671.07 4041.21 2668.07 4039.44 2665.78C4037.69 2663.47 4035.35 2662.31 4032.44 2662.31C4029.58 2662.31 4027.28 2663.45 4025.53 2665.72C4023.78 2667.99 4022.91 2671.24 4022.91 2675.47ZM4060.59 2658.19L4060.78 2662.44C4063.36 2659.19 4066.74 2657.56 4070.91 2657.56C4078.05 2657.56 4081.66 2661.59 4081.72 2669.66V2692H4075.94V2669.62C4075.92 2667.19 4075.35 2665.39 4074.25 2664.22C4073.17 2663.05 4071.47 2662.47 4069.16 2662.47C4067.28 2662.47 4065.64 2662.97 4064.22 2663.97C4062.8 2664.97 4061.7 2666.28 4060.91 2667.91V2692H4055.12V2658.19H4060.59Z" fill="black"/>
<path d="M5168.94 2734.91C5171 2734.91 5172.8 2734.28 5174.34 2733.03C5175.89 2731.78 5176.74 2730.22 5176.91 2728.34H5182.38C5182.27 2730.28 5181.6 2732.12 5180.38 2733.88C5179.15 2735.62 5177.5 2737.02 5175.44 2738.06C5173.4 2739.1 5171.23 2739.62 5168.94 2739.62C5164.33 2739.62 5160.67 2738.09 5157.94 2735.03C5155.23 2731.95 5153.88 2727.74 5153.88 2722.41V2721.44C5153.88 2718.15 5154.48 2715.22 5155.69 2712.66C5156.9 2710.09 5158.62 2708.1 5160.88 2706.69C5163.15 2705.27 5165.82 2704.56 5168.91 2704.56C5172.7 2704.56 5175.84 2705.7 5178.34 2707.97C5180.86 2710.24 5182.21 2713.19 5182.38 2716.81H5176.91C5176.74 2714.62 5175.91 2712.83 5174.41 2711.44C5172.93 2710.02 5171.09 2709.31 5168.91 2709.31C5165.97 2709.31 5163.69 2710.38 5162.06 2712.5C5160.46 2714.6 5159.66 2717.66 5159.66 2721.66V2722.75C5159.66 2726.65 5160.46 2729.65 5162.06 2731.75C5163.67 2733.85 5165.96 2734.91 5168.94 2734.91ZM5187.34 2721.78C5187.34 2718.47 5187.99 2715.49 5189.28 2712.84C5190.59 2710.2 5192.41 2708.16 5194.72 2706.72C5197.05 2705.28 5199.71 2704.56 5202.69 2704.56C5207.29 2704.56 5211.01 2706.16 5213.84 2709.34C5216.7 2712.53 5218.12 2716.77 5218.12 2722.06V2722.47C5218.12 2725.76 5217.49 2728.72 5216.22 2731.34C5214.97 2733.95 5213.17 2735.98 5210.81 2737.44C5208.48 2738.9 5205.79 2739.62 5202.75 2739.62C5198.17 2739.62 5194.45 2738.03 5191.59 2734.84C5188.76 2731.66 5187.34 2727.44 5187.34 2722.19V2721.78ZM5193.16 2722.47C5193.16 2726.22 5194.02 2729.23 5195.75 2731.5C5197.5 2733.77 5199.83 2734.91 5202.75 2734.91C5205.69 2734.91 5208.02 2733.76 5209.75 2731.47C5211.48 2729.16 5212.34 2725.93 5212.34 2721.78C5212.34 2718.07 5211.46 2715.07 5209.69 2712.78C5207.94 2710.47 5205.6 2709.31 5202.69 2709.31C5199.83 2709.31 5197.53 2710.45 5195.78 2712.72C5194.03 2714.99 5193.16 2718.24 5193.16 2722.47ZM5230.81 2705.19L5230.97 2708.94C5233.45 2706.02 5236.79 2704.56 5241 2704.56C5245.73 2704.56 5248.95 2706.38 5250.66 2710C5251.78 2708.38 5253.24 2707.06 5255.03 2706.06C5256.84 2705.06 5258.98 2704.56 5261.44 2704.56C5268.85 2704.56 5272.62 2708.49 5272.75 2716.34V2739H5266.97V2716.69C5266.97 2714.27 5266.42 2712.47 5265.31 2711.28C5264.21 2710.07 5262.35 2709.47 5259.75 2709.47C5257.6 2709.47 5255.82 2710.11 5254.41 2711.41C5252.99 2712.68 5252.17 2714.4 5251.94 2716.56V2739H5246.12V2716.84C5246.12 2711.93 5243.72 2709.47 5238.91 2709.47C5235.11 2709.47 5232.52 2711.08 5231.12 2714.31V2739H5225.34V2705.19H5230.81ZM5286.94 2705.19L5287.09 2708.94C5289.57 2706.02 5292.92 2704.56 5297.12 2704.56C5301.85 2704.56 5305.07 2706.38 5306.78 2710C5307.91 2708.38 5309.36 2707.06 5311.16 2706.06C5312.97 2705.06 5315.1 2704.56 5317.56 2704.56C5324.98 2704.56 5328.75 2708.49 5328.88 2716.34V2739H5323.09V2716.69C5323.09 2714.27 5322.54 2712.47 5321.44 2711.28C5320.33 2710.07 5318.48 2709.47 5315.88 2709.47C5313.73 2709.47 5311.95 2710.11 5310.53 2711.41C5309.11 2712.68 5308.29 2714.4 5308.06 2716.56V2739H5302.25V2716.84C5302.25 2711.93 5299.84 2709.47 5295.03 2709.47C5291.24 2709.47 5288.65 2711.08 5287.25 2714.31V2739H5281.47V2705.19H5286.94ZM5358.5 2735.66C5356.25 2738.3 5352.95 2739.62 5348.59 2739.62C5344.99 2739.62 5342.24 2738.58 5340.34 2736.5C5338.47 2734.4 5337.52 2731.29 5337.5 2727.19V2705.19H5343.28V2727.03C5343.28 2732.16 5345.36 2734.72 5349.53 2734.72C5353.95 2734.72 5356.89 2733.07 5358.34 2729.78V2705.19H5364.12V2739H5358.62L5358.5 2735.66ZM5378.41 2705.19L5378.59 2709.44C5381.18 2706.19 5384.55 2704.56 5388.72 2704.56C5395.86 2704.56 5399.47 2708.59 5399.53 2716.66V2739H5393.75V2716.62C5393.73 2714.19 5393.17 2712.39 5392.06 2711.22C5390.98 2710.05 5389.28 2709.47 5386.97 2709.47C5385.09 2709.47 5383.45 2709.97 5382.03 2710.97C5380.61 2711.97 5379.51 2713.28 5378.72 2714.91V2739H5372.94V2705.19H5378.41ZM5414.53 2739H5408.75V2705.19H5414.53V2739ZM5408.28 2696.22C5408.28 2695.28 5408.56 2694.49 5409.12 2693.84C5409.71 2693.2 5410.56 2692.88 5411.69 2692.88C5412.81 2692.88 5413.67 2693.2 5414.25 2693.84C5414.83 2694.49 5415.12 2695.28 5415.12 2696.22C5415.12 2697.16 5414.83 2697.94 5414.25 2698.56C5413.67 2699.19 5412.81 2699.5 5411.69 2699.5C5410.56 2699.5 5409.71 2699.19 5409.12 2698.56C5408.56 2697.94 5408.28 2697.16 5408.28 2696.22ZM5437.38 2734.91C5439.44 2734.91 5441.24 2734.28 5442.78 2733.03C5444.32 2731.78 5445.18 2730.22 5445.34 2728.34H5450.81C5450.71 2730.28 5450.04 2732.12 5448.81 2733.88C5447.58 2735.62 5445.94 2737.02 5443.88 2738.06C5441.83 2739.1 5439.67 2739.62 5437.38 2739.62C5432.77 2739.62 5429.1 2738.09 5426.38 2735.03C5423.67 2731.95 5422.31 2727.74 5422.31 2722.41V2721.44C5422.31 2718.15 5422.92 2715.22 5424.12 2712.66C5425.33 2710.09 5427.06 2708.1 5429.31 2706.69C5431.58 2705.27 5434.26 2704.56 5437.34 2704.56C5441.14 2704.56 5444.28 2705.7 5446.78 2707.97C5449.3 2710.24 5450.65 2713.19 5450.81 2716.81H5445.34C5445.18 2714.62 5444.34 2712.83 5442.84 2711.44C5441.36 2710.02 5439.53 2709.31 5437.34 2709.31C5434.41 2709.31 5432.12 2710.38 5430.5 2712.5C5428.9 2714.6 5428.09 2717.66 5428.09 2721.66V2722.75C5428.09 2726.65 5428.9 2729.65 5430.5 2731.75C5432.1 2733.85 5434.4 2734.91 5437.38 2734.91ZM5478.19 2739C5477.85 2738.33 5477.58 2737.15 5477.38 2735.44C5474.69 2738.23 5471.48 2739.62 5467.75 2739.62C5464.42 2739.62 5461.68 2738.69 5459.53 2736.81C5457.41 2734.92 5456.34 2732.52 5456.34 2729.62C5456.34 2726.1 5457.68 2723.38 5460.34 2721.44C5463.03 2719.48 5466.8 2718.5 5471.66 2718.5H5477.28V2715.84C5477.28 2713.82 5476.68 2712.22 5475.47 2711.03C5474.26 2709.82 5472.48 2709.22 5470.12 2709.22C5468.06 2709.22 5466.33 2709.74 5464.94 2710.78C5463.54 2711.82 5462.84 2713.08 5462.84 2714.56H5457.03C5457.03 2712.88 5457.62 2711.25 5458.81 2709.69C5460.02 2708.1 5461.65 2706.85 5463.69 2705.94C5465.75 2705.02 5468.01 2704.56 5470.47 2704.56C5474.36 2704.56 5477.42 2705.54 5479.62 2707.5C5481.83 2709.44 5482.98 2712.11 5483.06 2715.53V2731.09C5483.06 2734.2 5483.46 2736.67 5484.25 2738.5V2739H5478.19ZM5468.59 2734.59C5470.41 2734.59 5472.12 2734.12 5473.75 2733.19C5475.38 2732.25 5476.55 2731.03 5477.28 2729.53V2722.59H5472.75C5465.67 2722.59 5462.12 2724.67 5462.12 2728.81C5462.12 2730.62 5462.73 2732.04 5463.94 2733.06C5465.15 2734.08 5466.7 2734.59 5468.59 2734.59ZM5499.97 2697V2705.19H5506.28V2709.66H5499.97V2730.62C5499.97 2731.98 5500.25 2733 5500.81 2733.69C5501.38 2734.35 5502.33 2734.69 5503.69 2734.69C5504.35 2734.69 5505.27 2734.56 5506.44 2734.31V2739C5504.92 2739.42 5503.44 2739.62 5502 2739.62C5499.42 2739.62 5497.47 2738.84 5496.16 2737.28C5494.84 2735.72 5494.19 2733.5 5494.19 2730.62V2709.66H5488.03V2705.19H5494.19V2697H5499.97ZM5519.34 2739H5513.56V2705.19H5519.34V2739ZM5513.09 2696.22C5513.09 2695.28 5513.38 2694.49 5513.94 2693.84C5514.52 2693.2 5515.38 2692.88 5516.5 2692.88C5517.62 2692.88 5518.48 2693.2 5519.06 2693.84C5519.65 2694.49 5519.94 2695.28 5519.94 2696.22C5519.94 2697.16 5519.65 2697.94 5519.06 2698.56C5518.48 2699.19 5517.62 2699.5 5516.5 2699.5C5515.38 2699.5 5514.52 2699.19 5513.94 2698.56C5513.38 2697.94 5513.09 2697.16 5513.09 2696.22ZM5527.09 2721.78C5527.09 2718.47 5527.74 2715.49 5529.03 2712.84C5530.34 2710.2 5532.16 2708.16 5534.47 2706.72C5536.8 2705.28 5539.46 2704.56 5542.44 2704.56C5547.04 2704.56 5550.76 2706.16 5553.59 2709.34C5556.45 2712.53 5557.88 2716.77 5557.88 2722.06V2722.47C5557.88 2725.76 5557.24 2728.72 5555.97 2731.34C5554.72 2733.95 5552.92 2735.98 5550.56 2737.44C5548.23 2738.9 5545.54 2739.62 5542.5 2739.62C5537.92 2739.62 5534.2 2738.03 5531.34 2734.84C5528.51 2731.66 5527.09 2727.44 5527.09 2722.19V2721.78ZM5532.91 2722.47C5532.91 2726.22 5533.77 2729.23 5535.5 2731.5C5537.25 2733.77 5539.58 2734.91 5542.5 2734.91C5545.44 2734.91 5547.77 2733.76 5549.5 2731.47C5551.23 2729.16 5552.09 2725.93 5552.09 2721.78C5552.09 2718.07 5551.21 2715.07 5549.44 2712.78C5547.69 2710.47 5545.35 2709.31 5542.44 2709.31C5539.58 2709.31 5537.28 2710.45 5535.53 2712.72C5533.78 2714.99 5532.91 2718.24 5532.91 2722.47ZM5570.59 2705.19L5570.78 2709.44C5573.36 2706.19 5576.74 2704.56 5580.91 2704.56C5588.05 2704.56 5591.66 2708.59 5591.72 2716.66V2739H5585.94V2716.62C5585.92 2714.19 5585.35 2712.39 5584.25 2711.22C5583.17 2710.05 5581.47 2709.47 5579.16 2709.47C5577.28 2709.47 5575.64 2709.97 5574.22 2710.97C5572.8 2711.97 5571.7 2713.28 5570.91 2714.91V2739H5565.12V2705.19H5570.59Z" fill="black"/>
<defs>
<linearGradient id="paint0_linear" x1="3259" y1="0" x2="3259" y2="2899" gradientUnits="userSpaceOnUse">
<stop stop-color="#C0C8FB" stop-opacity="0"/>
<stop offset="0.0001" stop-color="white"/>
<stop offset="1" stop-color="#C0C8FB"/>
</linearGradient>
<linearGradient id="paint1_linear" x1="1488.25" y1="923" x2="1488.25" y2="2899.62" gradientUnits="userSpaceOnUse">
<stop stop-color="#B8A5DD"/>
<stop offset="1" stop-color="#674D8F"/>
</linearGradient>
<linearGradient id="paint2_linear" x1="4232.25" y1="412" x2="4232.25" y2="2900.56" gradientUnits="userSpaceOnUse">
<stop stop-color="#DDA5A5"/>
<stop offset="1" stop-color="#8F4D4D"/>
</linearGradient>
<linearGradient id="paint3_linear" x1="5739.25" y1="1537" x2="5739.25" y2="2901.5" gradientUnits="userSpaceOnUse">
<stop stop-color="#DCDDA5"/>
<stop offset="1" stop-color="#8A8F4D"/>
</linearGradient>
<linearGradient id="paint4_linear" x1="2809.25" y1="1200.04" x2="2809.25" y2="2899.11" gradientUnits="userSpaceOnUse">
<stop stop-color="#A5DDC2"/>
<stop offset="1" stop-color="#4D8F6F"/>
</linearGradient>
<linearGradient id="paint5_linear" x1="1335.75" y1="926" x2="1335.75" y2="3561.48" gradientUnits="userSpaceOnUse">
<stop stop-color="#D8C3F7" stop-opacity="0.31"/>
<stop offset="1" stop-color="#704DA2"/>
</linearGradient>
<linearGradient id="paint6_linear" x1="4079.25" y1="412" x2="4079.25" y2="3730.07" gradientUnits="userSpaceOnUse">
<stop stop-color="#F7C3C3" stop-opacity="0.31"/>
<stop offset="1" stop-color="#A24D4D"/>
</linearGradient>
<linearGradient id="paint7_linear" x1="5586.75" y1="1537" x2="5586.75" y2="3356.33" gradientUnits="userSpaceOnUse">
<stop stop-color="#EDF7C3" stop-opacity="0.31"/>
<stop offset="1" stop-color="#96A24D"/>
</linearGradient>
<linearGradient id="paint8_linear" x1="2656.75" y1="1199" x2="2656.75" y2="3465.81" gradientUnits="userSpaceOnUse">
<stop stop-color="#C3F7CE" stop-opacity="0.31"/>
<stop offset="1" stop-color="#4DA279"/>
</linearGradient>
</defs>
</svg>
