<svg width="920" height="620" viewBox="0 0 920 620" fill="none" xmlns="http://www.w3.org/2000/svg">
<path d="M402.935 0.0668781L402.928 0.000192953L402.747 0.0573517L402.556 0.0478252L402.563 0.114394L206.635 60.8316L1.63672 49.2135L67.5364 597.53L272.347 609.139L272.354 609.205L272.537 609.151L272.728 609.162L272.719 609.096L468.647 548.376L697.225 561.405L631.314 13.0125L402.935 0.0668781" fill="white"/>
<path d="M209.398 82.2832L270.128 587.568L269.946 587.632L269.755 587.613L185.213 582.838L88.6149 577.361L27.8853 72.0737L209.028 82.3284L209.219 82.3474L209.398 82.2832Z" fill="#ACE4EE"/>
<path d="M405.528 21.5852L466.258 526.87L466.067 526.851L465.885 526.915L270.127 587.568L269.946 587.632L269.755 587.613L209.028 82.3284L209.219 82.3475L209.398 82.2832L405.158 21.6304L405.34 21.5637L405.528 21.5852" fill="#8FCFD4"/>
<path d="M610.315 33.1176L671.045 538.403L670.863 538.467L670.673 538.448L466.258 526.87L466.067 526.851L465.886 526.915L405.159 21.6304L405.34 21.5637L405.528 21.5852L609.945 33.1604L610.136 33.1818L610.315 33.1176" fill="#526830"/>
<path d="M671.045 538.403L670.864 538.467L670.673 538.448L609.946 33.1604L610.137 33.1818L610.316 33.1176L671.045 538.403" fill="#ACE4EE"/>
<path d="M509.089 27.45L502.918 179.763C502.216 197.098 515.083 212.14 533.58 215.602C564.125 221.319 586.883 244.17 590.292 272.545L596.43 323.614C598.444 340.374 590.169 357.015 574.899 366.915C529.833 396.128 512.156 449.465 532.32 495.371L548.196 531.51L465.886 526.915L269.946 587.632L88.6149 577.361L27.8853 72.0736L209.028 82.3283L405.159 21.6303L509.089 27.45" fill="#637F37"/>
<path d="M375.931 347.645L356.624 350.013L363.733 327.647L370.839 305.277L383.04 325.278L395.241 345.278L375.931 347.645" fill="#708F3D"/>
<path d="M60.1753 340.736L147.893 329.979C173.24 326.869 196.033 343.065 198.81 366.152C200.603 381.077 215.343 391.546 231.729 389.538L278.776 383.765C315.891 379.214 349.272 402.931 353.335 436.733C357.398 470.538 330.605 501.631 293.488 506.182L83.1594 531.976L60.1753 340.736Z" fill="#526830"/>
<path d="M269.946 587.632L260.614 510.215L260.797 510.191L270.125 587.578L269.946 587.632V587.632ZM245.855 387.805L209.028 82.3284L209.219 82.2689L246.043 387.782L245.855 387.805" fill="#5F7E31"/>
<path d="M260.613 510.215L245.854 387.805L246.043 387.781L260.797 510.191L260.613 510.215" fill="#526B29"/>
<path d="M306.419 213.054L298.915 226.82C294.699 234.555 295.987 243.737 302.17 250.023L311.994 260.011C316.931 265.034 324.299 267.48 331.738 266.569L342.862 265.205C355.468 263.659 364.567 253.099 363.187 241.619L360.339 217.929C358.959 206.449 347.625 198.395 335.019 199.941L324.422 201.24C316.694 202.19 309.917 206.634 306.419 213.054" fill="#526830"/>
<path d="M601.637 468.394C594.955 469.215 589.335 471.599 586.525 474.459C583.124 472.36 577.103 471.401 570.421 472.22C560.479 473.44 552.861 478.123 553.41 482.679L584.627 478.849L589.413 478.261L620.629 474.435C620.082 469.879 611.577 467.173 601.637 468.394" fill="#D6C3D6"/>
<path d="M589.046 130.397C582.363 131.216 576.743 133.602 573.938 136.459C570.532 134.363 564.514 133.404 557.832 134.225C547.887 135.444 540.275 140.126 540.821 144.68L572.035 140.852L576.824 140.266L608.037 136.438C607.491 131.882 598.988 129.176 589.046 130.397Z" fill="#D6C3D6"/>
<path d="M154.545 79.2448L162.514 145.544C164.247 159.974 155.351 173.967 140.653 179.929L135.598 181.978C118.418 188.947 109.573 206.608 115.207 222.697C121.466 240.565 109.849 259.938 89.7996 265.065L52.2355 274.668L27.8853 72.0736L154.545 79.2448" fill="#526830"/>
<path d="M295.079 55.7373L405.529 21.585L468.974 24.1094L467.816 59.537C467.078 82.107 448.256 101.139 423.701 104.151C418.076 104.841 412.6 106.404 407.508 108.769L390.424 116.711C367.661 127.292 340.251 120.699 326.844 101.42L295.079 55.7373" fill="#526830"/>
<path d="M272.729 609.163L272.719 609.094L453.325 553.126L453.332 553.128L272.729 609.163" fill="#C5C8D4"/>
<path d="M272.718 609.094L270.125 587.578L424.084 539.871C425.408 541.86 427.344 543.461 429.739 544.353L453.324 553.126L272.718 609.096" fill="#D8D6D4"/>
<path d="M455.744 442.524L415.283 105.867C415.389 105.836 415.497 105.805 415.603 105.776L455.845 441.568L455.744 442.524" fill="#586D35"/>
<path d="M209.219 82.2686L206.635 60.8312L402.935 0.066545L405.514 21.5824L405.34 21.5633L405.159 21.63L209.219 82.2686" fill="#D8D6D4"/>
<path d="M405.347 21.6399L405.159 21.6305L405.34 21.5644L405.514 21.5833V21.5904L405.347 21.6399Z" fill="#4B5B2F"/>
<path d="M209.22 82.2686L405.159 21.63L405.348 21.6395L405.166 21.6966L405.159 21.63L209.22 82.2686" fill="#586D35"/>
<path d="M270.126 587.577L260.799 510.191L293.489 506.182C330.606 501.63 357.399 470.538 353.336 436.733C349.609 405.726 321.215 383.206 287.895 383.206C284.892 383.206 281.847 383.389 278.777 383.765L246.044 387.781L209.22 82.2687L405.159 21.6301L405.166 21.6967L295.079 55.7372L326.844 101.42C335.941 114.501 351.479 121.741 367.642 121.741C375.302 121.741 383.103 120.114 390.424 116.711L407.508 108.769C410.014 107.603 412.617 106.635 415.283 105.866L455.744 442.524L454.303 455.919C452.955 455.924 451.608 456.138 450.308 456.562L446.509 457.804C440.969 459.612 436.585 463.938 434.666 469.491L432.152 476.75C430.011 482.943 431.319 489.527 435.075 494.335L422.766 529.323C421.478 532.985 422.088 536.87 424.085 539.87L270.126 587.577V587.577ZM370.839 305.277L363.732 327.647L356.624 350.012L375.931 347.645L395.241 345.278L383.04 325.277L370.839 305.277V305.277ZM338.117 199.751C337.097 199.751 336.063 199.813 335.02 199.941L324.423 201.24C316.695 202.19 309.918 206.634 306.42 213.053L298.916 226.82C294.7 234.555 295.988 243.737 302.171 250.023L311.996 260.011C316.252 264.341 322.315 266.756 328.672 266.756C329.69 266.756 330.714 266.695 331.739 266.568L342.863 265.205C355.47 263.659 364.568 253.099 363.188 241.619L360.341 217.929C359.076 207.398 349.433 199.751 338.117 199.751Z" fill="#556C31"/>
<path d="M356.624 350.013L363.733 327.647L370.839 305.277L383.04 325.278L395.241 345.278L375.931 347.645L356.624 350.013" fill="#5C7634"/>
<path d="M260.798 510.191L246.044 387.781L278.777 383.765C281.846 383.389 284.892 383.206 287.895 383.206C321.215 383.206 349.609 405.726 353.335 436.733C357.398 470.538 330.606 501.631 293.489 506.182L260.798 510.191" fill="#4B5D2A"/>
<path d="M328.671 266.757C322.314 266.757 316.251 264.342 311.994 260.011L302.17 250.023C295.987 243.737 294.699 234.555 298.915 226.82L306.419 213.054C309.917 206.634 316.694 202.19 324.422 201.24L335.019 199.941C336.062 199.813 337.096 199.751 338.116 199.751C349.431 199.751 359.074 207.398 360.339 217.929L363.187 241.619C364.567 253.099 355.468 263.659 342.862 265.205L331.738 266.569C330.713 266.695 329.688 266.757 328.671 266.757Z" fill="#4B5B2F"/>
<path d="M367.642 121.741C351.479 121.741 335.941 114.501 326.844 101.42L295.079 55.7376L405.166 21.697L405.348 21.64L405.515 21.59L415.603 105.776C415.497 105.805 415.389 105.836 415.283 105.867C412.617 106.635 410.014 107.604 407.508 108.77L390.424 116.712C383.103 120.114 375.302 121.741 367.642 121.741" fill="#4B5B2F"/>
<path d="M141.727 495.939L122.417 498.307L129.526 475.939L136.635 453.569L148.836 473.569L161.034 493.569L141.727 495.939" fill="#3F4D25"/>
<path d="M468.595 231.008L449.285 233.375L456.394 211.01L463.502 188.64L475.703 208.64L487.902 228.64L468.595 231.008" fill="#708F3D"/>
<path d="M546.3 348.249L526.993 350.617L534.101 328.247L541.207 305.881L553.409 325.879L565.61 345.879L546.3 348.249" fill="#708F3D"/>
<path d="M164.738 246.352L145.431 248.719L152.539 226.352L159.648 203.981L171.849 223.982L184.048 243.982L164.738 246.352" fill="#708F3D"/>
<path d="M76.0227 193.31L56.7153 195.68L63.8216 173.31L70.9326 150.942L83.1313 170.942L95.3324 190.943L76.0227 193.31" fill="#3F4D25"/>
<path d="M217.603 343.77C217.664 344.286 217.782 344.783 217.935 345.264C218.488 345.283 219.047 345.269 219.614 345.197C224.975 344.541 228.85 340.048 228.263 335.164C228.2 334.645 228.082 334.148 227.926 333.667C227.378 333.648 226.817 333.662 226.247 333.734C220.886 334.39 217.014 338.885 217.603 343.77Z" fill="#3F4D25"/>
<path d="M233.452 341.825C233.514 342.342 233.634 342.839 233.789 343.32C234.338 343.339 234.898 343.324 235.466 343.255C240.829 342.596 244.702 338.104 244.113 333.217C244.052 332.701 243.932 332.206 243.781 331.723C243.227 331.704 242.669 331.718 242.101 331.787C236.738 332.446 232.866 336.938 233.452 341.825Z" fill="#3F4D25"/>
<path d="M249.306 339.881C249.368 340.398 249.488 340.893 249.638 341.376C250.192 341.395 250.75 341.38 251.318 341.311C256.681 340.652 260.553 336.16 259.967 331.273C259.906 330.757 259.786 330.26 259.632 329.779C259.081 329.76 258.523 329.774 257.953 329.843C252.59 330.502 248.72 334.994 249.306 339.881Z" fill="#3F4D25"/>
<path d="M265.157 337.935C265.219 338.454 265.339 338.951 265.492 339.432C266.043 339.451 266.601 339.437 267.171 339.365C272.535 338.708 276.405 334.216 275.818 329.329C275.757 328.813 275.637 328.316 275.484 327.835C274.932 327.816 274.372 327.83 273.806 327.899C268.443 328.558 264.571 333.051 265.157 337.935" fill="#3F4D25"/>
<path d="M460.44 266.081C460.504 266.597 460.621 267.094 460.775 267.575C461.326 267.594 461.884 267.58 462.454 267.511C467.817 266.851 471.69 262.359 471.103 257.472C471.039 256.956 470.919 256.461 470.766 255.978C470.217 255.959 469.655 255.973 469.089 256.042C463.726 256.701 459.854 261.194 460.44 266.081Z" fill="#3F4D25"/>
<path d="M476.295 264.137C476.356 264.653 476.474 265.148 476.627 265.631C477.181 265.65 477.739 265.636 478.307 265.567C483.67 264.908 487.542 260.416 486.953 255.529C486.892 255.012 486.774 254.515 486.619 254.035C486.07 254.016 485.509 254.03 484.942 254.099C479.578 254.758 475.706 259.25 476.295 264.137Z" fill="#3F4D25"/>
<path d="M492.144 262.191C492.207 262.709 492.325 263.207 492.481 263.687C493.029 263.706 493.59 263.692 494.158 263.621C499.521 262.964 503.393 258.469 502.807 253.585C502.743 253.068 502.623 252.571 502.472 252.09C501.921 252.071 501.36 252.086 500.793 252.155C495.43 252.814 491.557 257.306 492.144 262.191" fill="#3F4D25"/>
<path d="M507.999 260.247C508.06 260.765 508.181 261.263 508.331 261.743C508.885 261.762 509.443 261.748 510.011 261.677C515.374 261.02 519.246 256.526 518.66 251.641C518.598 251.125 518.478 250.627 518.325 250.147C517.774 250.128 517.216 250.142 516.648 250.211C511.283 250.868 507.413 255.362 507.999 260.247" fill="#3F4D25"/>
<path d="M179.756 141.247C179.82 141.763 179.937 142.26 180.093 142.741C180.642 142.76 181.2 142.746 181.77 142.677C187.133 142.018 191.005 137.525 190.419 132.641C190.355 132.122 190.235 131.627 190.085 131.147C189.533 131.125 188.973 131.142 188.405 131.211C183.042 131.867 179.17 136.362 179.756 141.247" fill="#3F4D25"/>
<path d="M195.61 139.303C195.671 139.819 195.791 140.316 195.942 140.797C196.496 140.816 197.054 140.802 197.622 140.733C202.987 140.076 206.857 135.582 206.271 130.697C206.209 130.178 206.089 129.681 205.936 129.2C205.385 129.181 204.827 129.196 204.259 129.267C198.893 129.924 195.024 134.418 195.61 139.303" fill="#3F4D25"/>
<path d="M211.461 137.359C211.525 137.875 211.643 138.373 211.796 138.853C212.347 138.872 212.905 138.858 213.475 138.789C218.836 138.13 222.711 133.638 222.122 128.753C222.058 128.234 221.941 127.739 221.788 127.256C221.236 127.24 220.676 127.252 220.108 127.323C214.747 127.98 210.873 132.474 211.461 137.359" fill="#3F4D25"/>
<path d="M227.313 135.415C227.374 135.931 227.495 136.429 227.648 136.909C228.199 136.928 228.759 136.914 229.325 136.845C234.688 136.186 238.56 131.694 237.974 126.807C237.913 126.29 237.792 125.796 237.639 125.313C237.088 125.294 236.53 125.31 235.962 125.377C230.597 126.036 226.727 130.528 227.313 135.415" fill="#3F4D25"/>
<path d="M455.087 166.807C451.961 164.906 448.631 162.786 445.121 160.509L443.849 162.513C447.368 164.797 450.718 166.929 453.872 168.846L455.087 166.807ZM435.245 154.028C432.051 151.92 428.751 149.741 425.366 147.526L424.088 149.524C427.465 151.732 430.763 153.912 433.957 156.02L435.245 154.028ZM415.42 141.109C412.124 139.017 408.768 136.926 405.364 134.868L404.154 136.907C407.541 138.958 410.883 141.04 414.166 143.124L415.42 141.109ZM395.137 128.874C391.689 126.926 388.21 125.037 384.71 123.235L383.64 125.355C387.107 127.14 390.563 129.015 393.988 130.951L395.14 128.874H395.137ZM374.03 118.068C370.372 116.416 366.71 114.894 363.054 113.53L362.239 115.762C365.838 117.104 369.454 118.608 373.069 120.24L374.03 118.068ZM351.746 109.85C347.829 108.774 343.94 107.927 340.098 107.351L339.752 109.704C343.49 110.266 347.289 111.092 351.129 112.146L351.748 109.85H351.746ZM328.178 106.488C324.114 106.535 320.129 106.964 316.254 107.827L316.763 110.152C320.464 109.324 324.286 108.912 328.206 108.867L328.178 106.488ZM304.899 111.839C302.127 113.221 299.439 114.894 296.853 116.876C296.17 117.399 295.498 117.927 294.841 118.46L296.318 120.316C296.956 119.795 297.609 119.281 298.276 118.772C300.746 116.878 303.304 115.289 305.942 113.973L304.899 111.839ZM286.093 126.659C283.305 129.693 280.843 132.855 278.69 136.138L280.655 137.452C282.734 134.28 285.116 131.218 287.82 128.28L286.093 126.659ZM272.96 146.743C271.351 150.435 270.058 154.245 269.061 158.154L271.341 158.749C272.309 154.956 273.56 151.271 275.115 147.702L272.96 146.743ZM266.939 170.017C266.56 173.543 266.376 177.136 266.376 180.786C266.376 181.202 266.379 181.618 266.383 182.035L268.739 182.006C268.734 181.599 268.732 181.193 268.732 180.786C268.732 177.217 268.911 173.71 269.283 170.274L266.939 170.017ZM267.12 194.012C267.544 197.912 268.143 201.864 268.899 205.863L271.212 205.416C270.468 201.476 269.879 197.583 269.462 193.75L267.12 194.012ZM271.509 217.543C272.481 221.345 273.577 225.181 274.78 229.042L277.027 228.326C275.836 224.503 274.75 220.708 273.789 216.949L271.509 217.543ZM278.587 240.363C279.915 244.065 281.333 247.786 282.822 251.517L285.007 250.627C283.526 246.92 282.12 243.225 280.801 239.552L278.587 240.363ZM287.408 262.526C288.976 266.147 290.602 269.773 292.276 273.402L294.413 272.395C292.745 268.784 291.124 265.174 289.565 261.572L287.408 262.526ZM297.376 284.163C299.105 287.723 300.866 291.275 302.657 294.82L304.755 293.738C302.97 290.204 301.213 286.662 299.491 283.117L297.378 284.166L297.376 284.163ZM308.088 305.413C309.925 308.944 311.781 312.46 313.642 315.96L315.715 314.832C313.859 311.34 312.008 307.828 310.175 304.304L308.088 305.413ZM319.258 326.439C321.151 329.95 323.043 333.436 324.918 336.893L326.983 335.749C325.108 332.292 323.219 328.808 321.326 325.301L319.258 326.439ZM330.587 347.336C332.497 350.862 334.379 354.348 336.226 357.791L338.296 356.658C336.45 353.21 334.563 349.72 332.653 346.194L330.587 347.336ZM341.792 368.281C343.667 371.857 345.483 375.376 347.23 378.831L349.327 377.748C347.574 374.281 345.751 370.751 343.874 367.167L341.792 368.281ZM352.466 389.473C354.224 393.156 355.875 396.751 357.399 400.247L359.556 399.288C358.018 395.762 356.355 392.143 354.589 388.441L352.466 389.473ZM361.867 411.201C363.33 415.091 364.585 418.824 365.6 422.386L367.864 421.727C366.827 418.091 365.551 414.296 364.069 410.356L361.867 411.201ZM368.088 433.825C368.413 436.202 368.582 438.463 368.582 440.604C368.582 442.26 368.481 443.845 368.276 445.351L370.608 445.677C370.832 444.049 370.938 442.358 370.938 440.604C370.938 438.339 370.759 435.969 370.422 433.499L368.088 433.825ZM364.281 455.784C361.975 458.96 359.413 461.863 356.626 464.504L358.237 466.241C361.127 463.5 363.787 460.488 366.18 457.19L364.281 455.784ZM347.537 471.709C344.338 473.828 340.942 475.701 337.382 477.338L338.36 479.505C342.02 477.821 345.523 475.889 348.83 473.698L347.537 471.709ZM326.515 481.471C322.857 482.599 319.076 483.524 315.206 484.255L315.637 486.593C319.59 485.846 323.453 484.902 327.202 483.748L326.515 481.471ZM303.655 485.841C299.818 486.184 295.922 486.36 291.994 486.377L292.003 488.756C295.995 488.739 299.957 488.561 303.865 488.211L303.655 485.841ZM280.315 485.968C276.443 485.684 272.561 485.259 268.692 484.699L268.357 487.055C272.281 487.621 276.217 488.054 280.146 488.34L280.315 485.968ZM257.174 482.627C253.346 481.804 249.554 480.854 245.816 479.786L245.175 482.075C248.96 483.158 252.804 484.121 256.684 484.954L257.174 482.627ZM234.672 476.186C230.958 474.844 227.331 473.384 223.809 471.818L222.86 473.995C226.433 475.584 230.112 477.067 233.879 478.428L234.672 476.186ZM213.311 466.638C209.809 464.73 206.462 462.71 203.301 460.588L201.998 462.57C205.223 464.735 208.631 466.793 212.195 468.734L213.311 466.638" fill="white"/>
<path d="M186.432 475.582C183.495 473.496 183.026 469.589 185.384 466.85L204.482 444.69C206.839 441.953 211.131 441.428 214.071 443.514C217.008 445.601 217.476 449.508 215.119 452.246L196.019 474.407C193.661 477.145 189.369 477.669 186.432 475.582Z" fill="#E88528"/>
<path d="M217.467 471.78C219.825 469.041 219.354 465.132 216.417 463.046L192.622 446.143C189.685 444.056 185.394 444.582 183.036 447.318C180.678 450.055 181.149 453.964 184.086 456.05L207.881 472.955C210.818 475.042 215.11 474.514 217.467 471.78Z" fill="#E88528"/>
<path d="M465.434 166.481C466.099 171.994 461.729 177.062 455.681 177.804C449.627 178.547 444.186 174.68 443.524 169.17C442.862 163.657 447.229 158.589 453.28 157.847C459.331 157.104 464.773 160.971 465.434 166.481" fill="#F9BC46"/>
<path d="M697.114 162.567L748.302 142.284C759.54 137.832 772.318 140.549 780.826 149.203L801.485 170.221L694.566 221.826L697.114 162.567" fill="#D56339"/>
<path d="M715.275 155.301L581.728 215.861L547.365 306.31C536.68 334.438 516.615 357.917 490.625 372.697C472.324 383.106 460.12 401.798 457.854 422.89L448.956 505.663C447.25 521.535 455.242 536.865 469.165 544.424L608.365 620L822.477 225.44L715.275 155.301" fill="#F89944"/>
<path d="M553.279 501.302L445.905 463.557L422.765 529.323C420.622 535.416 423.731 542.119 429.74 544.353L566.615 595.262L585.661 505.901L553.279 501.302" fill="#B24D29"/>
<path d="M920 272.897L860.676 488.088C857.772 498.628 846.629 504.469 836.425 500.802C827.642 497.647 822.504 488.43 824.393 479.206L862.98 290.747L920 272.897Z" fill="#9A4325"/>
<path d="M838.334 469.588L815.46 550.273C811.708 563.506 799.978 572.826 786.366 573.387L734.222 575.543L734.703 587.43L786.847 585.274C805.537 584.501 821.632 571.712 826.783 553.549L849.654 472.862L838.334 469.588Z" fill="#722F18"/>
<path d="M822.477 225.438L756.891 572.524C752.401 596.281 732.399 613.848 708.487 615.033L610.964 619.872C590.255 620.898 574.127 601.954 578.235 581.425L599.245 476.432C603.08 457.264 616.209 441.337 634.176 434.057L666.184 421.087C675.862 417.164 682.874 408.494 684.747 398.129L712.246 245.857L822.477 225.438" fill="#F68C3D"/>
<path d="M770.563 234.634L742.52 396.423L744.84 396.832L772.883 235.045" fill="#722F18"/>
<path d="M822.477 225.438L770.922 238.586C755.122 242.616 741.96 253.623 735.086 268.548L714.853 312.505C709.052 325.104 693.744 329.877 681.925 322.774L574.527 258.239C563.231 251.45 559.757 236.551 566.872 225.385L593.896 182.963C601.699 170.714 614.016 162.118 628.118 159.077L682.13 147.43C692.303 145.239 702.919 147.216 711.648 152.926L822.477 225.438" fill="#C5572B"/>
<path d="M648.322 604.223L719.691 599.933C731.786 599.205 741.349 589.3 741.764 577.066L744.522 495.435L649.564 494.678L648.322 604.223" fill="#B24D29"/>
<path d="M631.519 468.913L622.793 587.987C622.166 596.542 628.787 603.873 637.278 604.025L648.323 604.223C658.856 604.413 667.715 596.274 668.525 585.662L674.659 505.342C675.271 497.3 671.069 489.665 663.984 485.948L631.519 468.913" fill="#9A4325"/>
<path d="M631.519 468.913L655.921 486.194C660.916 489.729 664.15 495.275 664.793 501.4L666.091 513.748C667.231 524.607 676.504 532.714 687.306 532.292L730.698 530.61C742.124 530.168 750.994 520.384 750.424 508.849L749.796 496.001C749.508 490.165 746.861 484.702 742.472 480.893L727.155 467.592C723.036 464.016 717.679 462.244 712.264 462.663L631.519 468.913" fill="#C5572B"/>
<path d="M689.365 391.866L789.058 402.802L789.312 400.436L689.62 389.501" fill="#722F18"/>
<path d="M626.099 268.103L596.028 340.034L599.547 358.361L618.8 348.511L650.454 278.779C651.533 276.404 650.466 273.599 648.089 272.564L632.167 265.638C629.819 264.617 627.096 265.724 626.099 268.103" fill="#722F18"/>
<path d="M616.206 291.865C615.269 291.43 614.279 291.223 613.309 291.223C610.685 291.223 608.172 292.736 607.001 295.301L599.956 310.728C599.523 311.677 599.315 312.679 599.315 313.662C599.313 316.384 600.896 318.98 603.543 320.119L627.413 330.381C628.299 330.759 629.222 330.943 630.129 330.943C632.838 330.943 635.412 329.329 636.531 326.648L642.292 312.817C642.662 311.932 642.836 311.009 642.836 310.1C642.839 307.545 641.449 305.099 639.072 303.862L638.839 303.74L637.761 305.855L637.994 305.977C639.565 306.793 640.481 308.411 640.481 310.1C640.481 310.7 640.365 311.306 640.121 311.894L634.359 325.725C633.622 327.497 631.919 328.561 630.129 328.563C629.531 328.561 628.925 328.444 628.336 328.19L604.464 317.93C602.712 317.178 601.673 315.463 601.671 313.662C601.671 313.015 601.805 312.358 602.095 311.725L609.14 296.298C609.912 294.601 611.573 293.604 613.309 293.602C613.95 293.602 614.597 293.738 615.221 294.028L616.206 291.865" fill="#582616"/>
<path d="M635.009 289.486C634.787 291.57 632.931 293.079 630.865 292.853C628.802 292.624 627.309 290.752 627.535 288.665C627.756 286.578 629.612 285.072 631.676 285.298C633.741 285.524 635.235 287.399 635.009 289.486" fill="#582616"/>
<path d="M625.312 307.656C625.09 309.741 623.232 311.249 621.169 311.023C619.105 310.795 617.612 308.92 617.836 306.835C618.059 304.749 619.916 303.243 621.981 303.469C624.045 303.695 625.538 305.57 625.312 307.656" fill="#582616"/>
<path d="M704.129 519.765L702.732 563.223L708.19 572.041L716.248 563.033L718.902 520.394C718.992 518.942 717.882 517.698 716.443 517.643L706.796 517.258C705.373 517.201 704.176 518.326 704.129 519.765" fill="#722F18"/>
<path d="M703.721 533.587L703.439 533.577C701.142 533.58 699.218 535.378 699.065 537.722L698.455 547.165L698.445 547.456C698.445 549.828 700.304 551.798 702.68 551.884L717.119 552.395L717.274 552.397C719.637 552.397 721.583 550.504 721.658 548.105L721.917 539.752L721.919 539.611C721.917 537.356 720.238 535.452 718.005 535.207L717.863 535.19L717.602 537.555L717.748 537.572C718.784 537.684 719.564 538.569 719.564 539.611L719.562 539.68L719.305 548.031C719.272 549.14 718.365 550.021 717.274 550.018H717.199L702.763 549.507C701.66 549.469 700.801 548.55 700.801 547.456L700.805 547.322L701.416 537.877C701.482 536.792 702.381 535.957 703.439 535.957L703.571 535.961L703.721 533.587" fill="#582616"/>
<path d="M712.992 529.078C713.289 530.206 712.622 531.367 711.503 531.666C710.385 531.964 709.24 531.291 708.943 530.163C708.646 529.033 709.313 527.874 710.432 527.574C711.551 527.277 712.698 527.948 712.992 529.078Z" fill="#582616"/>
<path d="M711.548 540.482C711.845 541.609 711.179 542.77 710.062 543.068C708.941 543.368 707.796 542.694 707.499 541.564C707.202 540.434 707.869 539.278 708.988 538.978C710.104 538.678 711.254 539.351 711.548 540.482" fill="#582616"/>
<path d="M450.418 500.976L436.813 542.233L439.552 552.254L449.82 545.942L464.4 505.837C464.897 504.471 464.183 502.96 462.819 502.491L453.68 499.343C452.333 498.877 450.87 499.612 450.418 500.976" fill="#722F18"/>
<path d="M446.127 514.11C445.63 513.924 445.114 513.836 444.61 513.836C442.824 513.834 441.15 514.945 440.493 516.734L437.244 525.607C437.061 526.111 436.971 526.632 436.971 527.146C436.971 528.995 438.125 530.722 439.965 531.345L453.657 535.997C454.119 536.154 454.592 536.23 455.056 536.228C456.896 536.23 458.608 535.05 459.221 533.192L461.826 525.259C461.976 524.8 462.049 524.327 462.049 523.863C462.052 522.121 461.027 520.484 459.357 519.775L459.343 519.77L459.218 519.718L458.318 521.916L458.453 521.971H458.448C459.223 522.297 459.694 523.056 459.694 523.863C459.694 524.077 459.661 524.293 459.59 524.51L456.985 532.442C456.705 533.304 455.906 533.848 455.056 533.848C454.842 533.848 454.625 533.815 454.408 533.741L440.714 529.09C439.861 528.804 439.329 528 439.327 527.146C439.327 526.908 439.367 526.67 439.454 526.432L442.702 517.557C443.003 516.727 443.783 516.218 444.61 516.216C444.843 516.216 445.079 516.256 445.312 516.344L446.127 514.11Z" fill="#582616"/>
<path d="M456.285 512.459C456.25 513.627 455.284 514.543 454.13 514.51C452.971 514.474 452.065 513.498 452.098 512.333C452.133 511.162 453.099 510.246 454.255 510.279C455.409 510.315 456.318 511.29 456.285 512.459" fill="#582616"/>
<path d="M451.681 522.973C451.648 524.138 450.682 525.057 449.523 525.024C448.369 524.988 447.46 524.012 447.495 522.846C447.53 521.676 448.496 520.76 449.65 520.793C450.807 520.829 451.716 521.804 451.681 522.973" fill="#582616"/>
<path d="M514.459 525.587L500.852 566.842L503.596 576.864L513.861 570.549L528.439 530.446C528.936 529.08 528.224 527.569 526.858 527.101L517.724 523.951C516.374 523.489 514.909 524.222 514.459 525.587" fill="#722F18"/>
<path d="M510.167 538.719C509.668 538.533 509.154 538.445 508.65 538.445C506.865 538.443 505.19 539.551 504.535 541.343L501.287 550.215C501.101 550.72 501.014 551.241 501.014 551.752C501.012 553.603 502.166 555.328 504.003 555.956L517.7 560.606C518.159 560.763 518.633 560.836 519.097 560.836C520.936 560.839 522.649 559.659 523.261 557.798L525.866 549.868C526.019 549.409 526.09 548.938 526.09 548.474C526.09 546.732 525.07 545.093 523.4 544.384L523.393 544.381L523.252 544.324L522.364 546.527L522.5 546.582L522.943 545.481L522.488 546.577C523.261 546.903 523.734 547.667 523.734 548.474C523.734 548.688 523.701 548.904 523.631 549.121L521.026 557.049C520.745 557.912 519.947 558.457 519.097 558.457C518.882 558.457 518.666 558.424 518.449 558.35L504.755 553.701C503.902 553.413 503.37 552.609 503.37 551.752C503.37 551.517 503.41 551.279 503.497 551.041L506.745 542.166C507.046 541.336 507.826 540.824 508.65 540.824C508.884 540.824 509.117 540.865 509.352 540.95L510.167 538.719" fill="#582616"/>
<path d="M520.327 537.067C520.292 538.233 519.326 539.154 518.169 539.116C517.015 539.083 516.104 538.107 516.141 536.939C516.174 535.771 517.14 534.852 518.296 534.888C519.453 534.924 520.362 535.899 520.327 537.067Z" fill="#582616"/>
<path d="M515.722 547.582C515.687 548.748 514.724 549.666 513.567 549.63C512.411 549.597 511.501 548.622 511.537 547.453C511.57 546.285 512.535 545.367 513.694 545.402C514.848 545.438 515.76 546.414 515.722 547.582Z" fill="#582616"/>
<path d="M817.822 250.066L871.377 237.479C883.133 234.715 895.39 239.273 902.567 249.078L919.999 272.897L806.812 308.327L817.822 250.066Z" fill="#D56339"/>
<path d="M687.151 179.722L714.597 160.414C716.514 159.065 718.747 158.387 720.989 158.387C722.963 158.387 724.934 158.913 726.701 159.971L754.448 176.622C758.014 178.763 759.915 182.513 759.922 186.35C759.917 188.884 759.09 191.418 757.335 193.555L740.855 213.584L744.477 216.627L760.958 196.598C763.436 193.588 764.635 189.938 764.63 186.35C764.637 180.928 761.905 175.56 756.853 172.529L729.108 155.881C726.6 154.375 723.79 153.628 720.989 153.628C717.807 153.628 714.625 154.594 711.904 156.509L684.459 175.817L687.151 179.722" fill="#582616"/>
<path d="M585.661 505.901L553.279 501.302L541.763 557.391C538.593 572.823 547.171 588.253 561.866 593.549L566.615 595.262L585.661 505.901Z" fill="#9A4325"/>
<path d="M585.661 505.901L567.946 510.931C562.083 512.594 557.396 517.05 555.401 522.861C552.014 532.713 541.247 537.798 531.595 534.1L442.956 500.162C433.668 496.605 428.877 486.222 432.151 476.75L434.665 469.491C436.584 463.938 440.968 459.612 446.508 457.804L450.307 456.562C453.164 455.629 456.254 455.715 459.057 456.802L585.661 505.901Z" fill="#C5572B"/>
<path d="M567.274 412.971L492.017 380.458L533.653 351.133L616.983 387.632L567.274 412.971Z" fill="#F8A452"/>
<path d="M615.706 433.896L585.743 420.951L625.003 391.145L661.168 406.984L615.706 433.896" fill="#F8A452"/>
<path d="M531.583 501.921L442.444 465.23L457.74 459.791L542.768 493.179L531.583 501.921" fill="#C85F35"/>
<path d="M556.485 510.548L540.042 502.846L552.54 496.743L569.301 506.056L556.485 510.548Z" fill="#C85F35"/>
<path d="M631.998 208.647L663.213 196.794C668.554 194.769 674.54 197.412 676.614 202.715L688.309 232.639C690.356 237.885 687.818 243.802 682.592 245.953L651.672 258.683C646.277 260.904 640.104 258.275 637.995 252.858L626.001 222.049C623.923 216.704 626.607 210.688 631.998 208.647" fill="#F68C3D"/>
<path d="M646.446 228.625L650.703 222.377L644.144 225.392L643.067 224.64L643.47 217.521L639.29 223.625L637.047 222.058L644.166 211.662L646.143 213.043L645.585 222.205L653.816 218.405L655.778 219.776L648.689 230.192L646.446 228.625ZM660.538 238.472L664.795 232.224L658.236 235.239L657.159 234.486L657.562 227.368L653.382 233.472L651.139 231.905L658.258 221.509L660.235 222.89L659.677 232.052L667.908 228.252L669.87 229.623L662.781 240.039L660.538 238.472ZM672.35 231.356L674.74 233.026L667.621 243.422L665.231 241.752L672.35 231.356Z" fill="#97411E"/>
<path d="M143.734 347.024L147.213 318.087L68.3448 308.408L64.8635 337.345C64.0744 343.907 59.658 349.441 53.4774 351.616C35.7859 357.838 23.1397 373.689 20.8785 392.476L0.27101 563.815C-2.16684 584.073 12.114 602.488 32.168 604.948L112.038 614.751C132.089 617.214 150.322 602.788 152.758 582.531L173.368 411.191C175.627 392.404 167.107 373.955 151.404 363.636C145.92 360.029 142.943 353.586 143.734 347.024" fill="#948897"/>
<path d="M147.213 318.088L68.3443 308.409C65.1315 308.014 62.8444 305.063 63.2354 301.82C63.6241 298.573 66.5448 296.262 69.7575 296.657L148.626 306.336C151.839 306.731 154.126 309.682 153.737 312.927C153.346 316.172 150.426 318.483 147.213 318.088Z" fill="#6A5F6F"/>
<path d="M114.468 257.627C121.577 258.5 126.641 265.027 125.776 272.207C124.914 279.388 118.451 284.503 111.342 283.63C104.234 282.757 99.1696 276.228 100.034 269.05C100.898 261.869 107.362 256.754 114.468 257.627ZM139.141 300.009L130.706 298.974C129.733 298.855 128.966 298.084 128.841 297.102C128.125 291.425 129.425 285.762 132.049 280.687C133.212 278.431 134.004 275.933 134.326 273.257C135.799 261.029 126.94 249.937 114.678 248.905C103.704 247.981 93.5378 255.909 91.6488 266.868C91.1094 270.009 91.2601 273.088 91.9856 275.964C93.3329 281.322 93.274 286.942 91.3025 292.098L91.1565 292.476C90.8056 293.4 89.8775 293.963 88.9024 293.842L80.6561 292.831C77.8743 292.491 75.347 294.492 75.0078 297.302L143.564 305.715C143.904 302.905 141.923 300.352 139.141 300.009" fill="#2D2826"/>
<path d="M136.107 548.443C135.726 548.443 135.342 548.419 134.953 548.372C129.764 547.736 126.066 542.968 126.698 537.724L142.272 408.26C142.853 403.409 146.938 399.849 151.656 399.849C152.037 399.849 152.421 399.873 152.81 399.921C158.001 400.558 161.697 405.324 161.068 410.568L145.494 540.032C144.91 544.884 140.825 548.443 136.107 548.443" fill="#ABA0AB"/>
<path d="M130.486 595.163C130.105 595.163 129.721 595.139 129.332 595.091C124.143 594.454 120.445 589.688 121.077 584.444L123.13 567.38C123.712 562.531 127.797 558.971 132.517 558.971C132.898 558.971 133.282 558.993 133.669 559.04C138.86 559.678 142.556 564.444 141.927 569.688L139.873 586.752C139.289 591.603 135.207 595.163 130.486 595.163" fill="#ABA0AB"/>
<path d="M106.1 605.51C96.6545 605.51 85.1883 604.784 72.8954 603.276C41.4436 599.414 16.4763 591.891 17.1287 586.469C17.5268 583.164 27.3394 581.403 42.0536 581.403C51.4988 581.403 62.9603 582.129 75.2556 583.637C106.707 587.496 131.672 595.022 131.02 600.447C130.624 603.749 120.814 605.51 106.1 605.51" fill="#8C8090"/>
</svg>
