<svg width="881" height="124" viewBox="0 0 881 124" fill="none" xmlns="http://www.w3.org/2000/svg">
<path d="M109.5 0L110 93.0527L770 93.5528V0H109.5Z" fill="#C4A382"/>
<path d="M0 29.0527L110 28.5527L110.5 93.0527L169.5 122.553L0.185059 122.053L57 75.0527L0 29.0527Z" fill="#D4AE98"/>
<path d="M880.5 29.5L770.5 29L770 93.5L711 123L880.315 122.5L823.5 75.5L880.5 29.5Z" fill="#D4AE98"/>
<path d="M169.5 93.0527V122.553L110.5 93.0527H169.5Z" fill="#976556"/>
<path d="M711 94V123.5L770 94H711Z" fill="#976556"/>
<path d="M208.295 39.368H214.295V65H208.295V39.368ZM214.583 35.864L211.319 32.504L208.055 35.864H203.351L208.631 29.288H214.007L219.287 35.864H214.583ZM222.17 29.384H228.17V65H222.17V29.384ZM260.141 52.328C260.141 52.744 260.109 53.336 260.045 54.104H239.933C240.285 55.992 241.197 57.496 242.669 58.616C244.173 59.704 246.029 60.248 248.237 60.248C251.053 60.248 253.373 59.32 255.197 57.464L258.413 61.16C257.261 62.536 255.805 63.576 254.045 64.28C252.285 64.984 250.301 65.336 248.093 65.336C245.277 65.336 242.797 64.776 240.653 63.656C238.509 62.536 236.845 60.984 235.661 59C234.509 56.984 233.933 54.712 233.933 52.184C233.933 49.688 234.493 47.448 235.613 45.464C236.765 43.448 238.349 41.88 240.365 40.76C242.381 39.64 244.653 39.08 247.181 39.08C249.677 39.08 251.901 39.64 253.853 40.76C255.837 41.848 257.373 43.4 258.461 45.416C259.581 47.4 260.141 49.704 260.141 52.328ZM247.181 43.88C245.261 43.88 243.629 44.456 242.285 45.608C240.973 46.728 240.173 48.232 239.885 50.12H254.429C254.173 48.264 253.389 46.76 252.077 45.608C250.765 44.456 249.133 43.88 247.181 43.88ZM295.298 65.48C291.906 65.48 288.834 64.744 286.082 63.272C283.362 61.768 281.218 59.704 279.65 57.08C278.114 54.456 277.346 51.496 277.346 48.2C277.346 44.904 278.13 41.944 279.698 39.32C281.266 36.696 283.41 34.648 286.13 33.176C288.882 31.672 291.954 30.92 295.346 30.92C298.098 30.92 300.61 31.4 302.882 32.36C305.154 33.32 307.074 34.712 308.642 36.536L304.61 40.328C302.178 37.704 299.186 36.392 295.634 36.392C293.33 36.392 291.266 36.904 289.442 37.928C287.618 38.92 286.194 40.312 285.17 42.104C284.146 43.896 283.634 45.928 283.634 48.2C283.634 50.472 284.146 52.504 285.17 54.296C286.194 56.088 287.618 57.496 289.442 58.52C291.266 59.512 293.33 60.008 295.634 60.008C299.186 60.008 302.178 58.68 304.61 56.024L308.642 59.864C307.074 61.688 305.138 63.08 302.834 64.04C300.562 65 298.05 65.48 295.298 65.48ZM324.628 65.336C322.036 65.336 319.7 64.776 317.62 63.656C315.54 62.536 313.908 60.984 312.724 59C311.572 56.984 310.996 54.712 310.996 52.184C310.996 49.656 311.572 47.4 312.724 45.416C313.908 43.432 315.54 41.88 317.62 40.76C319.7 39.64 322.036 39.08 324.628 39.08C327.252 39.08 329.604 39.64 331.684 40.76C333.764 41.88 335.38 43.432 336.532 45.416C337.716 47.4 338.308 49.656 338.308 52.184C338.308 54.712 337.716 56.984 336.532 59C335.38 60.984 333.764 62.536 331.684 63.656C329.604 64.776 327.252 65.336 324.628 65.336ZM324.628 60.2C326.836 60.2 328.66 59.464 330.1 57.992C331.54 56.52 332.26 54.584 332.26 52.184C332.26 49.784 331.54 47.848 330.1 46.376C328.66 44.904 326.836 44.168 324.628 44.168C322.42 44.168 320.596 44.904 319.156 46.376C317.748 47.848 317.044 49.784 317.044 52.184C317.044 54.584 317.748 56.52 319.156 57.992C320.596 59.464 322.42 60.2 324.628 60.2ZM376.397 39.08C379.629 39.08 382.189 40.024 384.077 41.912C385.965 43.768 386.909 46.568 386.909 50.312V65H380.909V51.08C380.909 48.84 380.413 47.16 379.421 46.04C378.429 44.888 377.005 44.312 375.149 44.312C373.133 44.312 371.517 44.984 370.301 46.328C369.085 47.64 368.477 49.528 368.477 51.992V65H362.477V51.08C362.477 48.84 361.981 47.16 360.989 46.04C359.997 44.888 358.573 44.312 356.717 44.312C354.669 44.312 353.037 44.968 351.821 46.28C350.637 47.592 350.045 49.496 350.045 51.992V65H344.045V39.368H349.757V42.632C350.717 41.48 351.917 40.6 353.357 39.992C354.797 39.384 356.397 39.08 358.157 39.08C360.077 39.08 361.773 39.448 363.245 40.184C364.749 40.888 365.933 41.944 366.797 43.352C367.853 42.008 369.213 40.968 370.877 40.232C372.541 39.464 374.381 39.08 376.397 39.08ZM426.929 39.08C430.161 39.08 432.721 40.024 434.609 41.912C436.497 43.768 437.441 46.568 437.441 50.312V65H431.441V51.08C431.441 48.84 430.945 47.16 429.953 46.04C428.961 44.888 427.537 44.312 425.681 44.312C423.665 44.312 422.049 44.984 420.833 46.328C419.617 47.64 419.009 49.528 419.009 51.992V65H413.009V51.08C413.009 48.84 412.513 47.16 411.521 46.04C410.529 44.888 409.105 44.312 407.249 44.312C405.201 44.312 403.569 44.968 402.353 46.28C401.169 47.592 400.577 49.496 400.577 51.992V65H394.577V39.368H400.289V42.632C401.249 41.48 402.449 40.6 403.889 39.992C405.329 39.384 406.929 39.08 408.689 39.08C410.609 39.08 412.305 39.448 413.777 40.184C415.281 40.888 416.465 41.944 417.329 43.352C418.385 42.008 419.745 40.968 421.409 40.232C423.073 39.464 424.913 39.08 426.929 39.08ZM469.924 39.368V65H464.212V61.736C463.252 62.888 462.052 63.784 460.612 64.424C459.172 65.032 457.62 65.336 455.956 65.336C452.532 65.336 449.828 64.392 447.844 62.504C445.892 60.584 444.916 57.752 444.916 54.008V39.368H450.916V53.192C450.916 55.496 451.428 57.224 452.452 58.376C453.508 59.496 454.996 60.056 456.916 60.056C459.06 60.056 460.756 59.4 462.004 58.088C463.284 56.744 463.924 54.824 463.924 52.328V39.368H469.924ZM492.324 39.08C495.556 39.08 498.148 40.024 500.1 41.912C502.052 43.8 503.028 46.6 503.028 50.312V65H497.028V51.08C497.028 48.84 496.5 47.16 495.444 46.04C494.388 44.888 492.884 44.312 490.932 44.312C488.724 44.312 486.98 44.984 485.7 46.328C484.42 47.64 483.78 49.544 483.78 52.04V65H477.78V39.368H483.492V42.68C484.484 41.496 485.732 40.6 487.236 39.992C488.74 39.384 490.436 39.08 492.324 39.08ZM510.639 39.368H516.639V65H510.639V39.368ZM513.663 35.144C512.575 35.144 511.663 34.808 510.927 34.136C510.191 33.432 509.823 32.568 509.823 31.544C509.823 30.52 510.191 29.672 510.927 29C511.663 28.296 512.575 27.944 513.663 27.944C514.751 27.944 515.663 28.28 516.399 28.952C517.135 29.592 517.503 30.408 517.503 31.4C517.503 32.456 517.135 33.352 516.399 34.088C515.695 34.792 514.783 35.144 513.663 35.144ZM536.274 65.336C533.618 65.336 531.234 64.776 529.122 63.656C527.01 62.536 525.362 60.984 524.178 59C522.994 56.984 522.402 54.712 522.402 52.184C522.402 49.656 522.994 47.4 524.178 45.416C525.362 43.432 526.994 41.88 529.074 40.76C531.186 39.64 533.586 39.08 536.274 39.08C538.802 39.08 541.01 39.592 542.898 40.616C544.818 41.64 546.258 43.112 547.218 45.032L542.61 47.72C541.874 46.536 540.946 45.656 539.826 45.08C538.738 44.472 537.538 44.168 536.226 44.168C533.986 44.168 532.13 44.904 530.658 46.376C529.186 47.816 528.45 49.752 528.45 52.184C528.45 54.616 529.17 56.568 530.61 58.04C532.082 59.48 533.954 60.2 536.226 60.2C537.538 60.2 538.738 59.912 539.826 59.336C540.946 58.728 541.874 57.832 542.61 56.648L547.218 59.336C546.226 61.256 544.77 62.744 542.85 63.8C540.962 64.824 538.77 65.336 536.274 65.336ZM562.197 39.08C565.973 39.08 568.853 39.992 570.837 41.816C572.853 43.608 573.861 46.328 573.861 49.976V65H568.197V61.88C567.461 63 566.405 63.864 565.029 64.472C563.685 65.048 562.053 65.336 560.133 65.336C558.213 65.336 556.533 65.016 555.093 64.376C553.653 63.704 552.533 62.792 551.733 61.64C550.965 60.456 550.581 59.128 550.581 57.656C550.581 55.352 551.429 53.512 553.125 52.136C554.853 50.728 557.557 50.024 561.237 50.024H567.861V49.64C567.861 47.848 567.317 46.472 566.229 45.512C565.173 44.552 563.589 44.072 561.477 44.072C560.037 44.072 558.613 44.296 557.205 44.744C555.829 45.192 554.661 45.816 553.701 46.616L551.349 42.248C552.693 41.224 554.309 40.44 556.197 39.896C558.085 39.352 560.085 39.08 562.197 39.08ZM561.381 60.968C562.885 60.968 564.213 60.632 565.365 59.96C566.549 59.256 567.381 58.264 567.861 56.984V54.008H561.669C558.213 54.008 556.485 55.144 556.485 57.416C556.485 58.504 556.917 59.368 557.781 60.008C558.645 60.648 559.845 60.968 561.381 60.968ZM596.969 63.608C596.265 64.184 595.401 64.616 594.377 64.904C593.385 65.192 592.329 65.336 591.209 65.336C588.393 65.336 586.217 64.6 584.681 63.128C583.145 61.656 582.377 59.512 582.377 56.696V44.36H578.153V39.56H582.377V33.704H588.377V39.56H595.241V44.36H588.377V56.552C588.377 57.8 588.681 58.76 589.289 59.432C589.897 60.072 590.777 60.392 591.929 60.392C593.273 60.392 594.393 60.04 595.289 59.336L596.969 63.608ZM601.905 39.368H607.905V65H601.905V39.368ZM604.929 35.144C603.841 35.144 602.929 34.808 602.193 34.136C601.457 33.432 601.089 32.568 601.089 31.544C601.089 30.52 601.457 29.672 602.193 29C602.929 28.296 603.841 27.944 604.929 27.944C606.017 27.944 606.929 28.28 607.665 28.952C608.401 29.592 608.769 30.408 608.769 31.4C608.769 32.456 608.401 33.352 607.665 34.088C606.961 34.792 606.049 35.144 604.929 35.144ZM627.3 65.336C624.708 65.336 622.372 64.776 620.292 63.656C618.212 62.536 616.58 60.984 615.396 59C614.244 56.984 613.668 54.712 613.668 52.184C613.668 49.656 614.244 47.4 615.396 45.416C616.58 43.432 618.212 41.88 620.292 40.76C622.372 39.64 624.708 39.08 627.3 39.08C629.924 39.08 632.276 39.64 634.356 40.76C636.436 41.88 638.052 43.432 639.204 45.416C640.388 47.4 640.98 49.656 640.98 52.184C640.98 54.712 640.388 56.984 639.204 59C638.052 60.984 636.436 62.536 634.356 63.656C632.276 64.776 629.924 65.336 627.3 65.336ZM627.3 60.2C629.508 60.2 631.332 59.464 632.772 57.992C634.212 56.52 634.932 54.584 634.932 52.184C634.932 49.784 634.212 47.848 632.772 46.376C631.332 44.904 629.508 44.168 627.3 44.168C625.092 44.168 623.268 44.904 621.828 46.376C620.42 47.848 619.716 49.784 619.716 52.184C619.716 54.584 620.42 56.52 621.828 57.992C623.268 59.464 625.092 60.2 627.3 60.2ZM661.261 39.08C664.493 39.08 667.085 40.024 669.037 41.912C670.989 43.8 671.965 46.6 671.965 50.312V65H665.965V51.08C665.965 48.84 665.437 47.16 664.381 46.04C663.325 44.888 661.821 44.312 659.869 44.312C657.661 44.312 655.917 44.984 654.637 46.328C653.357 47.64 652.717 49.544 652.717 52.04V65H646.717V39.368H652.429V42.68C653.421 41.496 654.669 40.6 656.173 39.992C657.677 39.384 659.373 39.08 661.261 39.08Z" fill="#EFEFEF"/>
</svg>
