<svg width="881" height="124" viewBox="0 0 881 124" fill="none" xmlns="http://www.w3.org/2000/svg">
<path d="M109.5 0L110 93.0527L770 93.5528V0H109.5Z" fill="#82C48A"/>
<path d="M0 29.0527L110 28.5527L110.5 93.0527L169.5 122.553L0.185059 122.053L57 75.0527L0 29.0527Z" fill="#9DD7A3"/>
<path d="M880.5 29.5L770.5 29L770 93.5L711 123L880.315 122.5L823.5 75.5L880.5 29.5Z" fill="#9DD7A3"/>
<path d="M169.5 93.0527V122.553L110.5 93.0527H169.5Z" fill="#5B9C67"/>
<path d="M711 94V123.5L770 94H711Z" fill="#5B9C67"/>
<path d="M321.358 38.368H327.358V64H321.358V38.368ZM327.646 34.864L324.382 31.504L321.118 34.864H316.414L321.694 28.288H327.07L332.35 34.864H327.646ZM335.233 28.384H341.233V64H335.233V28.384ZM373.204 51.328C373.204 51.744 373.172 52.336 373.108 53.104H352.996C353.348 54.992 354.26 56.496 355.732 57.616C357.236 58.704 359.092 59.248 361.3 59.248C364.116 59.248 366.436 58.32 368.26 56.464L371.476 60.16C370.324 61.536 368.868 62.576 367.108 63.28C365.348 63.984 363.364 64.336 361.156 64.336C358.34 64.336 355.86 63.776 353.716 62.656C351.572 61.536 349.908 59.984 348.724 58C347.572 55.984 346.996 53.712 346.996 51.184C346.996 48.688 347.556 46.448 348.676 44.464C349.828 42.448 351.412 40.88 353.428 39.76C355.444 38.64 357.716 38.08 360.244 38.08C362.74 38.08 364.964 38.64 366.916 39.76C368.9 40.848 370.436 42.4 371.524 44.416C372.644 46.4 373.204 48.704 373.204 51.328ZM360.244 42.88C358.324 42.88 356.692 43.456 355.348 44.608C354.036 45.728 353.236 47.232 352.948 49.12H367.492C367.236 47.264 366.452 45.76 365.14 44.608C363.828 43.456 362.196 42.88 360.244 42.88ZM392.809 30.4H407.497C411.081 30.4 414.265 31.104 417.049 32.512C419.833 33.888 421.993 35.856 423.529 38.416C425.065 40.944 425.833 43.872 425.833 47.2C425.833 50.528 425.065 53.472 423.529 56.032C421.993 58.56 419.833 60.528 417.049 61.936C414.265 63.312 411.081 64 407.497 64H392.809V30.4ZM407.209 58.72C409.673 58.72 411.833 58.256 413.689 57.328C415.577 56.368 417.017 55.024 418.009 53.296C419.033 51.536 419.545 49.504 419.545 47.2C419.545 44.896 419.033 42.88 418.009 41.152C417.017 39.392 415.577 38.048 413.689 37.12C411.833 36.16 409.673 35.68 407.209 35.68H399.049V58.72H407.209ZM455.985 51.328C455.985 51.744 455.953 52.336 455.889 53.104H435.777C436.129 54.992 437.041 56.496 438.513 57.616C440.017 58.704 441.873 59.248 444.081 59.248C446.897 59.248 449.217 58.32 451.041 56.464L454.257 60.16C453.105 61.536 451.649 62.576 449.889 63.28C448.129 63.984 446.145 64.336 443.937 64.336C441.121 64.336 438.641 63.776 436.497 62.656C434.353 61.536 432.689 59.984 431.505 58C430.353 55.984 429.777 53.712 429.777 51.184C429.777 48.688 430.337 46.448 431.457 44.464C432.609 42.448 434.193 40.88 436.209 39.76C438.225 38.64 440.497 38.08 443.025 38.08C445.521 38.08 447.745 38.64 449.697 39.76C451.681 40.848 453.217 42.4 454.305 44.416C455.425 46.4 455.985 48.704 455.985 51.328ZM443.025 42.88C441.105 42.88 439.473 43.456 438.129 44.608C436.817 45.728 436.017 47.232 435.729 49.12H450.273C450.017 47.264 449.233 45.76 447.921 44.608C446.609 43.456 444.977 42.88 443.025 42.88ZM469.669 64.336C467.589 64.336 465.557 64.064 463.573 63.52C461.589 62.976 460.005 62.288 458.821 61.456L461.125 56.896C462.277 57.664 463.653 58.288 465.253 58.768C466.885 59.216 468.485 59.44 470.053 59.44C473.637 59.44 475.429 58.496 475.429 56.608C475.429 55.712 474.965 55.088 474.037 54.736C473.141 54.384 471.685 54.048 469.669 53.728C467.557 53.408 465.829 53.04 464.485 52.624C463.173 52.208 462.021 51.488 461.029 50.464C460.069 49.408 459.589 47.952 459.589 46.096C459.589 43.664 460.597 41.728 462.613 40.288C464.661 38.816 467.413 38.08 470.869 38.08C472.629 38.08 474.389 38.288 476.149 38.704C477.909 39.088 479.349 39.616 480.469 40.288L478.165 44.848C475.989 43.568 473.541 42.928 470.821 42.928C469.061 42.928 467.717 43.2 466.789 43.744C465.893 44.256 465.445 44.944 465.445 45.808C465.445 46.768 465.925 47.456 466.885 47.872C467.877 48.256 469.397 48.624 471.445 48.976C473.493 49.296 475.173 49.664 476.485 50.08C477.797 50.496 478.917 51.2 479.845 52.192C480.805 53.184 481.285 54.592 481.285 56.416C481.285 58.816 480.245 60.736 478.165 62.176C476.085 63.616 473.253 64.336 469.669 64.336ZM486.452 38.368H492.452V64H486.452V38.368ZM489.476 34.144C488.388 34.144 487.476 33.808 486.74 33.136C486.004 32.432 485.636 31.568 485.636 30.544C485.636 29.52 486.004 28.672 486.74 28C487.476 27.296 488.388 26.944 489.476 26.944C490.564 26.944 491.476 27.28 492.212 27.952C492.948 28.592 493.316 29.408 493.316 30.4C493.316 31.456 492.948 32.352 492.212 33.088C491.508 33.792 490.596 34.144 489.476 34.144ZM525.767 38.368V60.112C525.767 69.136 521.159 73.648 511.943 73.648C509.479 73.648 507.143 73.328 504.935 72.688C502.727 72.08 500.903 71.184 499.463 70L502.151 65.488C503.271 66.416 504.679 67.152 506.375 67.696C508.103 68.272 509.847 68.56 511.607 68.56C514.423 68.56 516.487 67.92 517.799 66.64C519.111 65.36 519.767 63.408 519.767 60.784V59.44C518.743 60.56 517.495 61.408 516.023 61.984C514.551 62.56 512.935 62.848 511.175 62.848C508.743 62.848 506.535 62.336 504.551 61.312C502.599 60.256 501.047 58.784 499.895 56.896C498.775 55.008 498.215 52.848 498.215 50.416C498.215 47.984 498.775 45.84 499.895 43.984C501.047 42.096 502.599 40.64 504.551 39.616C506.535 38.592 508.743 38.08 511.175 38.08C513.031 38.08 514.711 38.384 516.215 38.992C517.751 39.6 519.031 40.528 520.055 41.776V38.368H525.767ZM512.087 57.76C514.359 57.76 516.215 57.088 517.655 55.744C519.127 54.368 519.863 52.592 519.863 50.416C519.863 48.272 519.127 46.528 517.655 45.184C516.215 43.84 514.359 43.168 512.087 43.168C509.783 43.168 507.895 43.84 506.423 45.184C504.983 46.528 504.263 48.272 504.263 50.416C504.263 52.592 504.983 54.368 506.423 55.744C507.895 57.088 509.783 57.76 512.087 57.76ZM548.199 38.08C551.431 38.08 554.023 39.024 555.975 40.912C557.927 42.8 558.903 45.6 558.903 49.312V64H552.903V50.08C552.903 47.84 552.375 46.16 551.319 45.04C550.263 43.888 548.759 43.312 546.807 43.312C544.599 43.312 542.855 43.984 541.575 45.328C540.295 46.64 539.655 48.544 539.655 51.04V64H533.655V38.368H539.367V41.68C540.359 40.496 541.607 39.6 543.111 38.992C544.615 38.384 546.311 38.08 548.199 38.08Z" fill="#EFEFEF"/>
</svg>
