<svg width="881" height="124" viewBox="0 0 881 124" fill="none" xmlns="http://www.w3.org/2000/svg">
<path d="M109.5 0L110 93.0527L770 93.5528V0H109.5Z" fill="#B15B5B"/>
<path d="M0 29.0527L110 28.5527L110.5 93.0527L169.5 122.553L0.185059 122.053L57 75.0527L0 29.0527Z" fill="#DD6E6E"/>
<path d="M880.5 29.5L770.5 29L770 93.5L711 123L880.315 122.5L823.5 75.5L880.5 29.5Z" fill="#DD6E6E"/>
<path d="M169.5 93.0527V122.553L110.5 93.0527H169.5Z" fill="#934747"/>
<path d="M711 94V123.5L770 94H711Z" fill="#934747"/>
<path d="M242.655 38.368H248.655V64H242.655V38.368ZM248.943 34.864L245.679 31.504L242.415 34.864H237.711L242.991 28.288H248.367L253.647 34.864H248.943ZM256.53 28.384H262.53V64H256.53V28.384ZM294.501 51.328C294.501 51.744 294.469 52.336 294.405 53.104H274.293C274.645 54.992 275.557 56.496 277.029 57.616C278.533 58.704 280.389 59.248 282.597 59.248C285.413 59.248 287.733 58.32 289.557 56.464L292.773 60.16C291.621 61.536 290.165 62.576 288.405 63.28C286.645 63.984 284.661 64.336 282.453 64.336C279.637 64.336 277.157 63.776 275.013 62.656C272.869 61.536 271.205 59.984 270.021 58C268.869 55.984 268.293 53.712 268.293 51.184C268.293 48.688 268.853 46.448 269.973 44.464C271.125 42.448 272.709 40.88 274.725 39.76C276.741 38.64 279.013 38.08 281.541 38.08C284.037 38.08 286.261 38.64 288.213 39.76C290.197 40.848 291.733 42.4 292.821 44.416C293.941 46.4 294.501 48.704 294.501 51.328ZM281.541 42.88C279.621 42.88 277.989 43.456 276.645 44.608C275.333 45.728 274.533 47.232 274.245 49.12H288.789C288.533 47.264 287.749 45.76 286.437 44.608C285.125 43.456 283.493 42.88 281.541 42.88ZM335.898 56.224H319.098L315.786 64H309.354L324.474 30.4H330.618L345.786 64H339.258L335.898 56.224ZM333.834 51.328L327.498 36.64L321.21 51.328H333.834ZM373.83 38.368V64H368.118V60.736C367.158 61.888 365.958 62.784 364.518 63.424C363.078 64.032 361.526 64.336 359.862 64.336C356.438 64.336 353.734 63.392 351.75 61.504C349.798 59.584 348.822 56.752 348.822 53.008V38.368H354.822V52.192C354.822 54.496 355.334 56.224 356.358 57.376C357.414 58.496 358.902 59.056 360.822 59.056C362.966 59.056 364.662 58.4 365.91 57.088C367.19 55.744 367.83 53.824 367.83 51.328V38.368H373.83ZM406.79 28.384V64H401.03V60.688C400.038 61.904 398.806 62.816 397.334 63.424C395.894 64.032 394.294 64.336 392.534 64.336C390.07 64.336 387.846 63.792 385.862 62.704C383.91 61.616 382.374 60.08 381.254 58.096C380.134 56.08 379.574 53.776 379.574 51.184C379.574 48.592 380.134 46.304 381.254 44.32C382.374 42.336 383.91 40.8 385.862 39.712C387.846 38.624 390.07 38.08 392.534 38.08C394.23 38.08 395.782 38.368 397.19 38.944C398.598 39.52 399.798 40.384 400.79 41.536V28.384H406.79ZM393.254 59.2C394.694 59.2 395.99 58.88 397.142 58.24C398.294 57.568 399.206 56.624 399.878 55.408C400.55 54.192 400.886 52.784 400.886 51.184C400.886 49.584 400.55 48.176 399.878 46.96C399.206 45.744 398.294 44.816 397.142 44.176C395.99 43.504 394.694 43.168 393.254 43.168C391.814 43.168 390.518 43.504 389.366 44.176C388.214 44.816 387.302 45.744 386.63 46.96C385.958 48.176 385.622 49.584 385.622 51.184C385.622 52.784 385.958 54.192 386.63 55.408C387.302 56.624 388.214 57.568 389.366 58.24C390.518 58.88 391.814 59.2 393.254 59.2ZM414.639 38.368H420.639V64H414.639V38.368ZM417.663 34.144C416.575 34.144 415.663 33.808 414.927 33.136C414.191 32.432 413.823 31.568 413.823 30.544C413.823 29.52 414.191 28.672 414.927 28C415.663 27.296 416.575 26.944 417.663 26.944C418.751 26.944 419.663 27.28 420.399 27.952C421.135 28.592 421.503 29.408 421.503 30.4C421.503 31.456 421.135 32.352 420.399 33.088C419.695 33.792 418.783 34.144 417.663 34.144ZM440.034 64.336C437.442 64.336 435.106 63.776 433.026 62.656C430.946 61.536 429.314 59.984 428.13 58C426.978 55.984 426.402 53.712 426.402 51.184C426.402 48.656 426.978 46.4 428.13 44.416C429.314 42.432 430.946 40.88 433.026 39.76C435.106 38.64 437.442 38.08 440.034 38.08C442.658 38.08 445.01 38.64 447.09 39.76C449.17 40.88 450.786 42.432 451.938 44.416C453.122 46.4 453.714 48.656 453.714 51.184C453.714 53.712 453.122 55.984 451.938 58C450.786 59.984 449.17 61.536 447.09 62.656C445.01 63.776 442.658 64.336 440.034 64.336ZM440.034 59.2C442.242 59.2 444.066 58.464 445.506 56.992C446.946 55.52 447.666 53.584 447.666 51.184C447.666 48.784 446.946 46.848 445.506 45.376C444.066 43.904 442.242 43.168 440.034 43.168C437.826 43.168 436.002 43.904 434.562 45.376C433.154 46.848 432.45 48.784 432.45 51.184C432.45 53.584 433.154 55.52 434.562 56.992C436.002 58.464 437.826 59.2 440.034 59.2ZM482.749 38.368L471.757 64H465.565L454.572 38.368H460.812L468.781 57.376L476.989 38.368H482.749ZM486.499 38.368H492.499V64H486.499V38.368ZM489.523 34.144C488.435 34.144 487.523 33.808 486.787 33.136C486.051 32.432 485.683 31.568 485.683 30.544C485.683 29.52 486.051 28.672 486.787 28C487.523 27.296 488.435 26.944 489.523 26.944C490.611 26.944 491.523 27.28 492.259 27.952C492.995 28.592 493.363 29.408 493.363 30.4C493.363 31.456 492.995 32.352 492.259 33.088C491.555 33.792 490.643 34.144 489.523 34.144ZM508.294 64.336C506.214 64.336 504.182 64.064 502.198 63.52C500.214 62.976 498.63 62.288 497.446 61.456L499.75 56.896C500.902 57.664 502.278 58.288 503.878 58.768C505.51 59.216 507.11 59.44 508.678 59.44C512.262 59.44 514.054 58.496 514.054 56.608C514.054 55.712 513.59 55.088 512.662 54.736C511.766 54.384 510.31 54.048 508.294 53.728C506.182 53.408 504.454 53.04 503.11 52.624C501.798 52.208 500.646 51.488 499.654 50.464C498.694 49.408 498.214 47.952 498.214 46.096C498.214 43.664 499.222 41.728 501.238 40.288C503.286 38.816 506.038 38.08 509.494 38.08C511.254 38.08 513.014 38.288 514.774 38.704C516.534 39.088 517.974 39.616 519.094 40.288L516.79 44.848C514.614 43.568 512.166 42.928 509.446 42.928C507.686 42.928 506.342 43.2 505.414 43.744C504.518 44.256 504.07 44.944 504.07 45.808C504.07 46.768 504.55 47.456 505.51 47.872C506.502 48.256 508.022 48.624 510.07 48.976C512.118 49.296 513.798 49.664 515.11 50.08C516.422 50.496 517.542 51.2 518.47 52.192C519.43 53.184 519.91 54.592 519.91 56.416C519.91 58.816 518.87 60.736 516.79 62.176C514.71 63.616 511.878 64.336 508.294 64.336ZM549.893 38.368V64H544.181V60.736C543.221 61.888 542.021 62.784 540.581 63.424C539.141 64.032 537.589 64.336 535.925 64.336C532.501 64.336 529.797 63.392 527.813 61.504C525.861 59.584 524.885 56.752 524.885 53.008V38.368H530.885V52.192C530.885 54.496 531.397 56.224 532.421 57.376C533.477 58.496 534.965 59.056 536.885 59.056C539.029 59.056 540.725 58.4 541.973 57.088C543.253 55.744 543.893 53.824 543.893 51.328V38.368H549.893ZM581.845 51.328C581.845 51.744 581.813 52.336 581.749 53.104H561.637C561.989 54.992 562.901 56.496 564.373 57.616C565.877 58.704 567.733 59.248 569.941 59.248C572.757 59.248 575.077 58.32 576.901 56.464L580.117 60.16C578.965 61.536 577.509 62.576 575.749 63.28C573.989 63.984 572.005 64.336 569.797 64.336C566.981 64.336 564.501 63.776 562.357 62.656C560.213 61.536 558.549 59.984 557.365 58C556.213 55.984 555.637 53.712 555.637 51.184C555.637 48.688 556.197 46.448 557.317 44.464C558.469 42.448 560.053 40.88 562.069 39.76C564.085 38.64 566.357 38.08 568.885 38.08C571.381 38.08 573.605 38.64 575.557 39.76C577.541 40.848 579.077 42.4 580.165 44.416C581.285 46.4 581.845 48.704 581.845 51.328ZM568.885 42.88C566.965 42.88 565.333 43.456 563.989 44.608C562.677 45.728 561.877 47.232 561.589 49.12H576.133C575.877 47.264 575.093 45.76 573.781 44.608C572.469 43.456 570.837 42.88 568.885 42.88ZM587.608 28.384H593.608V64H587.608V28.384ZM601.483 28.384H607.483V64H601.483V28.384ZM639.454 51.328C639.454 51.744 639.422 52.336 639.358 53.104H619.246C619.598 54.992 620.51 56.496 621.982 57.616C623.486 58.704 625.342 59.248 627.55 59.248C630.366 59.248 632.686 58.32 634.51 56.464L637.726 60.16C636.574 61.536 635.118 62.576 633.358 63.28C631.598 63.984 629.614 64.336 627.406 64.336C624.59 64.336 622.11 63.776 619.966 62.656C617.822 61.536 616.158 59.984 614.974 58C613.822 55.984 613.246 53.712 613.246 51.184C613.246 48.688 613.806 46.448 614.926 44.464C616.078 42.448 617.662 40.88 619.678 39.76C621.694 38.64 623.966 38.08 626.494 38.08C628.99 38.08 631.214 38.64 633.166 39.76C635.15 40.848 636.686 42.4 637.774 44.416C638.894 46.4 639.454 48.704 639.454 51.328ZM626.494 42.88C624.574 42.88 622.942 43.456 621.598 44.608C620.286 45.728 619.486 47.232 619.198 49.12H633.742C633.486 47.264 632.702 45.76 631.39 44.608C630.078 43.456 628.446 42.88 626.494 42.88Z" fill="#EFEFEF"/>
</svg>
