<svg width="1695" height="849" viewBox="0 0 1695 849" fill="none" xmlns="http://www.w3.org/2000/svg">
<path d="M38.2222 319.079C40.7743 319.295 42.6541 319.905 43.7606 320.267C44.8374 320.618 45.3134 320.761 46.1879 320.761C46.7768 320.761 47.4788 320.691 48.2641 320.562C49.8703 320.29 51.06 320.097 51.9524 319.945C53.6538 318.841 56.1881 317.464 61.0365 315.408C60.8878 315.272 60.7509 315.133 60.62 314.994C59.1387 314.761 57.6158 314.423 56.0215 313.979C53.2552 315.222 49.4895 316.456 44.2306 317.584C42.3567 317.985 40.8635 318.303 39.6856 318.559C39.1859 318.751 38.6981 318.923 38.2222 319.079ZM1443.78 849C1419.88 849 1410.43 844.321 1402.09 840.195C1399.09 838.706 1396.24 837.3 1392.54 836.007C1378.26 831.036 1375.15 827.676 1370 821.143C1368.64 819.428 1367.04 817.382 1364.75 814.835C1358.99 808.405 1358.29 805.815 1357.64 802.121C1357.2 799.623 1356.65 796.516 1352.31 788.799C1345.62 776.854 1304.23 763.787 1290.26 760.153L1288.73 759.755L1273.87 752.505L1243.85 747.856L1223.01 749.792C1215.45 750.495 1208.04 750.854 1201.01 750.854C1188.7 750.854 1181.45 749.753 1180.66 749.627L1179.96 749.517L1126.62 736.938L1100.84 723.872L1095.82 711.307V710.577C1095.82 710.577 1095.06 702.299 1078.5 689.379C1069.16 682.083 1066.4 682.083 1064.75 682.083C1061.85 682.083 1057.13 682.839 1051.15 683.791C1046.11 684.6 1039.82 685.605 1032.15 686.554C1029.63 686.869 1027.33 687.154 1025.35 687.399C1022.99 690.172 1017.99 692.35 1012.72 694.31C1004.83 697.242 1002.77 698.476 1001.27 699.371C996.435 702.25 993.562 703.231 971.36 708.043C959.611 710.59 948.986 711.884 939.771 711.884C923.828 711.884 916.035 708.067 913.346 706.355L898.069 697.839C887.866 692.148 884.428 686.351 884.118 681.682L869.341 679.029C864.16 682.869 853.529 691.631 834.837 710.511C820.381 725.119 813.825 730.641 802.243 730.641C796.918 730.641 793.028 729.215 790.19 728.177C787.132 727.056 784.717 726.17 779.393 726.17C776.817 726.17 773.831 726.396 770.517 726.83C764.604 727.62 758.25 728.014 751.629 728.014C713.466 728.014 675.143 714.895 669.961 713.054L621.596 699.036C591.447 690.294 590.87 690.129 592.06 685.147V685.144C590.662 684.385 588.734 683.387 586.075 682.1C549.513 664.417 546.919 644.851 546.83 644.028L542.897 623.799V605.582L537.633 590.911C532.707 586.092 525.39 580.448 521.428 579.065C517.132 579.987 509.232 581.566 493.146 583.343C493.943 584.56 494.401 585.937 494.401 587.499C494.401 593.246 494.401 594.609 491.29 596.924H491.296C491.332 596.924 490.273 598.22 488.232 603.148C482.676 616.583 467.982 618.035 461.926 618.035C459.207 618.035 456.762 617.78 454.734 617.442L423.513 623.245L378.634 603.493L362.941 578.501L365.154 566.141C365.505 564.201 365.63 562.756 365.642 561.701L330.989 558.189H318.871L317.449 557.99C312.398 557.287 267.573 550.88 248.554 542.632C228.333 533.867 239.119 523.925 246.989 516.665C250.761 513.187 255.044 509.243 258.489 504.435C259.316 503.281 259.988 502.296 260.529 501.457C259.066 501.513 257.501 501.553 255.859 501.553H226.21L200.73 495.869L166.672 492.251L160.158 487.578H147.362L140.164 476.429L147.285 465.173L145.345 464.45L114.173 466.191L99.0445 456.55L80.9596 438.404L90.7397 425.533L103.25 412.208L107.337 397.765C108.759 392.741 111.412 383.396 125.143 383.396C126.993 383.396 128.748 383.588 130.384 383.966L140.8 379.128L176.304 371.384L206.12 364.712L214.877 359.724L227.352 346.512V339.236L216.013 327.745L156.773 327.025L151.544 327.609L123.477 333.084L67.9075 346.853L29.9055 343.322L25.3665 330.663C23.9566 326.74 23.0285 324.147 26.9369 321.487L27.7698 320.923C27.4545 320.93 27.1452 320.933 26.8239 320.933C12.8557 320.933 3.65268 313.13 1.94533 311.568L0 309.777L0.249883 307.684C0.309373 307.157 1.85013 294.658 6.50222 285.14C7.75151 282.583 12.5345 276.644 29.8877 276.644C41.8689 276.644 56.7949 279.545 64.6118 281.27C86.2006 275.539 118.67 265.252 126.636 258.275C128.528 256.62 129.462 255.565 129.92 254.952C129.866 254.922 129.813 254.889 129.765 254.856C126.904 253.012 122.115 249.931 120.943 244.051C120.389 241.282 118.736 239.358 116.445 236.692C112.323 231.9 107.195 225.934 107.195 213.909C107.195 208.918 107.195 193.723 126.326 193.723C126.737 193.723 127.136 193.732 127.522 193.749L168.296 181.89C178.386 178.955 186.221 177.589 192.949 177.589C200.427 177.589 206.554 179.35 210.219 182.547C214.449 186.241 214.223 191.089 212.539 195.467C225.353 195.411 243.884 194.95 263.772 193.199C289.501 190.937 289.055 179.638 288.918 178.358L288.9 177.967V171.112C285.414 167.862 277.21 159.969 266.71 148.259C260.238 141.04 258.881 134.556 262.677 128.981C265.431 124.952 270.262 122.448 273.938 121.036L282.85 110.105L283.95 109.389C284.462 109.054 296.937 101.025 325.141 89.7926C338.479 84.4865 344.053 83.4186 348.729 83.4186C353.791 83.4186 358.194 84.8546 360.508 87.2623C361.251 88.0383 361.733 88.854 361.959 89.7063C378.64 92.827 412.799 99.6354 452.342 109.87C491.933 120.117 499.952 123.665 497.495 129.87C497.465 129.95 497.429 130.029 497.388 130.112L516.276 148.538L531.398 162.579C542.529 164.43 574.415 169.255 604.172 169.252C606.42 169.252 608.669 169.225 610.888 169.165C613.756 169.089 616.01 168.96 617.771 168.814C617.2 168.529 616.635 168.27 616.141 168.068L614.107 167.235L599.597 153.081L566.009 147.573L563.689 144.993C562.779 143.978 558.353 138.304 560.536 126.116C560.548 126.06 560.56 126.003 560.572 125.944C557.353 126.647 554.236 126.995 551.172 126.995C542.588 126.995 536.359 124.173 533.254 120.993L493.747 101.556L500.338 96.654C501.671 95.6657 514.467 86.5824 552.35 73.2442C561.375 70.0671 567.722 67.8816 571.268 66.7309C571.678 66.5385 572.166 66.3163 572.761 66.0477C578.555 62.8408 605.112 36.3203 627.278 12.6153L629.401 10.3435L662.68 3.50866L703.573 2.71163e-05L745.067 2.77583L785.146 19.9609C791.142 21.8943 797.787 23.7846 800.88 24.4578C806.443 23.6685 822.261 20.6739 835.884 17.9313L853.333 10.8576L895.802 8.88771L945.072 26.3117L965.423 42.021L984.555 57.9792L989.945 71.9972L983.086 91.1257L962.704 106.583L927.493 110.858L915.077 116.621C912.965 121.152 907.825 132.261 904.452 140.39C908.426 140.744 913.679 141.408 918.765 143.434C918.849 143.467 919.075 143.557 919.842 143.557C921.936 143.557 933.697 142.731 960.176 126.411C968.558 121.251 977.339 118.635 986.286 118.635C1007.21 118.635 1017.35 132.474 1020.51 137.869L1042.45 149.38L1057.72 155.27H1066.28L1101.26 147.205L1113.08 123.768L1125.09 107.863C1131.9 98.8527 1133.52 96.7105 1141.84 96.7105C1143.03 96.7105 1144.56 96.8464 1146.13 97.1847C1147.46 94.913 1146.53 92.5252 1146.46 92.376L1146.28 91.9349L1146.18 91.4077C1146.15 91.2253 1143.24 72.823 1137.6 57.8896C1129.92 37.5374 1196.8 27.5685 1217.48 25.0017L1225.56 23.9969L1241.63 37.8359L1246.07 45.2644L1246.67 45.2444C1248.18 42.7141 1250.24 38.9866 1252.52 34.1415C1255.35 28.1655 1263.2 24.5971 1273.54 24.5971C1285.48 24.5971 1297.47 29.6247 1299.74 30.6295L1301.22 31.2795L1311.75 40.0909L1305.19 48.3287L1299.96 55.8302C1301.25 56.7124 1304.43 57.3292 1308.7 57.495C1308.32 56.9544 1307.88 56.4304 1307.52 56.0889L1303.91 52.6863L1321.12 36.6983L1349.25 29.1969H1362.12L1364.3 29.6976C1365.18 29.8966 1385.72 34.7318 1394.3 47.042C1398.82 53.5088 1396.27 57.8996 1393.34 60.4432C1387.48 65.5337 1377.08 66.2932 1374.41 66.4026C1373.56 66.512 1368.05 67.3444 1356.86 71.7452C1354.72 72.5908 1353.77 73.148 1353.39 73.4066C1353.55 73.9505 1354.14 75.0085 1354.59 75.8077C1355.67 77.7212 1357.04 80.1619 1357.66 83.2163C1359.03 82.7951 1360.45 82.311 1361.71 81.8368C1364.18 79.6579 1369.82 74.6072 1372.57 71.5329C1378.5 64.9301 1389.25 64.9302 1392.79 64.9302C1395.55 64.9302 1398.6 65.076 1402.14 65.2485C1405.19 65.3977 1408.81 65.5735 1413.11 65.6929C1434.66 66.2932 1441.26 73.8875 1447.63 81.2298C1449.67 83.5811 1451.98 86.2441 1455 89.0928C1465.65 99.1413 1465.02 103.86 1463.1 110.732C1462.49 112.954 1461.79 115.471 1461.53 118.883L1461.42 120.279C1460.53 132.49 1460.25 136.171 1453.74 144.638C1451.2 147.937 1450.8 150.047 1450.34 152.487C1449.88 154.859 1449.37 157.545 1447.01 160.828C1444.78 163.935 1444.72 164.99 1444.4 170.067C1444.29 171.719 1444.17 173.689 1443.94 176.139C1443.87 176.896 1443.83 177.479 1443.82 177.93C1446.2 178.567 1449.37 179.486 1453.29 181.087C1453.86 180.202 1454.51 178.842 1455.03 177.764C1456.38 174.956 1458.05 171.457 1461.34 167.537C1461.93 166.824 1462.39 166.217 1462.74 165.703L1462.17 165.577V139.846C1462.17 137.226 1463.87 133.717 1465.83 129.655C1466.73 127.811 1467.65 125.93 1468.31 124.249C1470.48 118.814 1477.23 116.877 1482.82 116.877C1488.05 116.877 1492.07 118.472 1494.73 119.994L1503.64 121.652L1504.04 121.742C1507.2 122.475 1516.35 124.558 1520.81 125.387C1537.27 128.444 1532.65 136.453 1527.3 145.726L1524.15 151.217C1522.95 153.307 1522.08 154.819 1521.96 155.2C1521.95 155.313 1521.95 155.476 1521.94 155.691C1521.87 157.104 1521.76 159.73 1520.05 166.864C1516.57 181.422 1531.07 204.965 1531.22 205.2L1532.09 206.596L1527.77 229.482L1527.36 230.169C1527.12 230.577 1521.21 240.406 1505.63 262.118C1504.25 264.048 1503.23 265.65 1502.48 266.98L1511.39 264.019L1510.39 275.994V297.779C1510.39 299.228 1512.1 300.488 1519.39 305.244C1526.51 309.883 1537.27 316.897 1551.44 329.008C1560.06 336.374 1565.22 338.191 1566.93 338.619C1567.7 338.102 1568.68 337.064 1569.12 336.241L1571.66 331.515L1580.55 331.446H1609.86C1630.31 331.446 1636.59 333.565 1641.83 342.244C1643.98 345.782 1647.22 351.128 1658.54 359.754C1671.52 369.65 1676.12 373.832 1672.83 378.541C1670.03 382.58 1662.95 383.369 1660.29 383.668C1659.98 383.704 1659.65 383.724 1659.31 383.771C1659.16 384.059 1658.95 384.57 1658.85 385.382C1657.6 395.083 1653.95 399.42 1650.41 403.612C1647.9 406.594 1645.3 409.671 1642.99 415.71C1640.8 421.401 1640.8 421.401 1650.26 426.253C1656.94 429.672 1667.02 434.839 1679.5 444.098C1692.14 453.473 1696.98 458.182 1694.27 463.084C1691.89 467.398 1684.87 468.731 1681.1 469.451C1676.5 470.327 1673.97 470.807 1672.2 474.747C1665 490.805 1652.89 491.813 1626.17 492.566C1615.37 492.871 1600.57 493.289 1580.33 494.947C1524.3 499.54 1488.08 544.559 1484.41 549.308L1481.59 555.602L1495.08 577.235C1498.44 578.883 1504.38 581.446 1510.44 582.972L1509.42 581.831L1539.3 565.173L1543.91 564.53L1545.92 564.507C1555.05 564.507 1572.13 568.887 1596.68 577.533C1609.03 581.884 1622.76 587.843 1619.27 595.391C1617.38 599.494 1611.44 601.626 1605.75 602.74L1604.1 625.649C1604.1 625.649 1573.23 682.196 1571.92 684.6C1572.84 684.544 1573.77 684.514 1574.72 684.514C1581.64 684.514 1591.72 686.162 1600.43 694.015C1614.02 706.246 1621.67 710.726 1624.85 712.268L1629.91 711.562L1659.76 744.844L1659.91 745.053C1660.34 745.617 1670.32 759.171 1678.26 786.859C1683.54 805.241 1682.52 807.967 1678.49 810.604L1674.93 812.932L1669.09 813.031C1668.35 813.031 1667.63 812.998 1666.94 812.935L1635.94 828.399L1634.23 828.824C1596.75 838.106 1590.66 838.106 1588.36 838.106C1582.74 838.106 1552.63 835.98 1539.31 835.018L1511.07 841.91L1481.4 849H1443.78Z" fill="#866443"/>
<path d="M228.506 494.921C228.506 494.921 240.225 494.921 255.859 494.921C271.487 494.921 281.255 490.563 269.536 506.899C257.81 523.239 238.274 529.772 255.859 537.396C273.444 545.02 320.334 551.557 320.334 551.557H332.054L375.041 555.911C375.041 555.911 378.949 555.911 376.998 566.802C375.041 577.699 375.041 577.699 375.041 577.699L388.718 599.481L425.845 615.82L455.15 610.371C455.15 610.371 470.778 615.82 476.643 601.659C482.503 587.499 482.503 597.302 482.503 587.499C482.503 577.699 437.565 582.053 482.503 577.699C527.442 573.338 517.673 570.072 527.442 573.338C537.21 576.608 548.935 588.59 548.935 588.59L554.795 604.926V623.444L558.703 643.614C558.703 643.614 560.655 661.028 593.868 677.089C627.087 693.15 578.24 678.993 627.087 693.15C675.934 707.311 675.934 707.311 675.934 707.311C675.934 707.311 726.732 725.826 767.762 720.38C808.792 714.932 793.159 738.895 824.42 707.311C855.682 675.723 865.451 671.368 865.451 671.368L897.343 677.089C897.343 677.089 890.853 684.435 906.481 693.15C922.114 701.862 922.115 701.862 922.115 701.862C922.115 701.862 931.883 709.486 967.053 701.862C1002.22 694.238 982.681 697.508 1006.13 688.796C1029.57 680.08 994.4 684.435 1029.57 680.08C1064.75 675.723 1068.65 670.277 1088.19 685.526C1107.72 700.774 1107.72 710.577 1107.72 710.577L1111.63 720.38L1133.12 731.271L1183.93 743.253C1183.93 743.253 1197.61 745.432 1221.05 743.253C1244.49 741.071 1244.49 741.071 1244.49 741.071L1279.66 746.52L1295.29 754.144C1295.29 754.144 1353.91 769.392 1363.68 786.819C1373.45 804.247 1365.63 800.98 1375.4 811.871C1385.17 822.762 1383.21 824.94 1398.85 830.386C1414.48 835.835 1416.43 842.368 1443.78 842.368C1471.14 842.368 1478.95 842.368 1478.95 842.368L1506.3 835.835L1537.57 828.207C1537.57 828.207 1582.5 831.474 1588.36 831.474C1594.22 831.474 1629.4 822.762 1629.4 822.762L1666.52 804.247C1666.52 804.247 1674.33 815.137 1666.52 787.907C1658.7 760.677 1648.94 747.607 1648.94 747.607L1623.53 719.289C1623.53 719.289 1615.72 720.38 1590.32 697.508C1564.92 674.632 1537.57 724.738 1564.92 674.632C1592.27 624.532 1592.27 624.532 1592.27 624.532L1594.22 597.302C1594.22 597.302 1627.44 596.214 1590.32 583.141C1553.2 570.072 1545.38 571.163 1545.38 571.163L1523.89 583.141C1523.89 583.141 1531.71 591.856 1516.08 590.765C1500.44 589.678 1484.82 580.966 1484.82 580.966L1469.18 555.911L1473.09 547.199C1473.09 547.199 1512.16 493.833 1578.6 488.384C1645.03 482.935 1652.84 490.563 1660.66 473.136C1668.47 455.708 1700.82 470.957 1670 448.084C1639.16 425.212 1625.49 429.569 1631.35 414.321C1637.21 399.069 1645.03 400.16 1646.98 384.912C1648.94 369.663 1678.24 386.003 1648.94 363.674C1619.63 341.345 1639.16 338.079 1609.86 338.079C1580.55 338.079 1580.55 338.079 1580.55 338.079C1580.55 338.079 1570.78 357.681 1541.47 332.633C1512.16 307.579 1498.49 305.403 1498.49 297.779C1498.49 290.155 1498.49 275.994 1498.49 275.994C1498.49 275.994 1478.95 281.439 1494.58 259.658C1510.21 237.873 1516.08 228.07 1516.08 228.07L1519.98 207.376C1519.98 207.376 1504.35 182.325 1508.26 165.988C1512.16 149.649 1507.28 158.908 1514.12 146.926C1520.96 134.944 1522.91 132.769 1517.05 131.678C1511.19 130.59 1499.47 127.867 1499.47 127.867L1487.74 125.689C1487.74 125.689 1481.88 120.787 1479.93 125.689C1477.97 130.59 1474.07 137.123 1474.07 139.846C1474.07 142.569 1474.07 148.017 1474.07 148.017V161.087C1474.07 161.087 1478.95 162.175 1472.11 170.343C1465.28 178.514 1466.26 185.047 1459.41 187.226C1452.58 189.405 1470.16 198.664 1452.58 189.405C1434.99 180.146 1431.08 186.135 1432.06 175.788C1433.04 165.445 1432.06 163.81 1435.97 158.364C1439.88 152.915 1436.94 149.649 1442.8 142.025C1448.67 134.401 1448.67 131.678 1449.65 118.608C1450.62 105.539 1457.46 104.451 1444.76 92.469C1432.06 80.4871 1432.06 72.8629 1412.52 72.319C1392.98 71.7752 1387.12 70.1402 1383.21 74.4946C1379.3 78.8522 1370.51 86.4764 1370.51 86.4764C1370.51 86.4764 1346.09 96.8233 1346.09 86.4764C1346.09 76.1295 1333.39 72.8629 1350 66.3265C1366.61 59.7933 1373.45 59.7933 1373.45 59.7933C1373.45 59.7933 1390.05 59.2494 1383.21 49.4464C1376.37 39.6434 1359.77 35.8297 1359.77 35.8297H1351.95L1329.48 41.8223L1317.76 52.713C1317.76 52.713 1330.46 64.6948 1308.97 64.1476C1287.48 63.6038 1287.48 55.4357 1287.48 55.4357L1294.31 45.6327L1298.23 40.7311L1292.36 35.8297C1292.36 35.8297 1268.92 25.4828 1264.03 35.8297C1259.15 46.1766 1255.24 51.6218 1255.24 51.6218L1237.65 52.1691L1230.82 40.7311L1220.07 31.4753C1220.07 31.4753 1143.38 41.0031 1149.25 56.5234C1155.11 72.0471 1158.03 90.834 1158.03 90.834C1158.03 90.834 1162.43 100.637 1149.25 105.539C1136.06 110.44 1147.78 94.9198 1136.06 110.44C1124.33 125.96 1124.33 125.961 1124.33 125.961L1111.14 152.1L1068.65 161.903H1054L1034.95 154.55L1010.03 141.481C1010.03 141.481 996.845 113.707 969.004 130.862C941.163 148.017 922.114 152.916 911.852 148.833C901.596 144.747 888.408 149.649 892.804 139.03C897.2 128.411 904.529 112.888 904.529 112.888L922.115 104.723L955.78 100.637L971.937 88.3833L977.797 72.0471L973.401 60.6091L955.78 45.9045L936.767 31.2299L892.804 15.6797L857.639 17.3146L841.518 23.8478C841.518 23.8478 804.884 31.263 800.488 31.2299C796.091 31.2033 778.506 25.4828 778.506 25.4828L740.409 9.14655L703.775 6.69244L665.672 9.9624L637.831 15.6797C637.831 15.6797 589.959 66.8703 580.191 71.228C570.423 75.5856 595.825 65.7826 558.703 78.8522C521.576 91.9218 509.856 100.637 509.856 100.637L543.07 116.973C543.07 116.973 546.978 124.597 564.563 116.973C582.148 109.349 566.52 98.4582 582.148 109.349C597.776 120.243 597.776 120.243 597.776 120.243C597.776 120.243 613.115 110.437 587.712 116.973C562.316 123.506 574.331 115.886 572.38 126.776C570.423 137.67 574.331 142.025 574.331 142.025L607.551 147.47L623.179 162.718C623.179 162.718 652.483 174.7 611.453 175.788C570.423 176.879 523.533 168.164 523.533 168.164L505.948 151.828L482.503 128.955C482.503 128.955 502.04 130.043 447.333 115.885C392.626 101.725 347.687 94.1006 347.687 94.1006C347.687 94.1006 359.413 84.2976 332.054 95.1917C304.706 106.082 292.981 113.707 292.981 113.707L283.212 125.689C283.212 125.689 263.676 130.043 277.353 145.291C291.024 160.543 300.798 169.255 300.798 169.255V177.967C300.798 177.967 302.749 196.482 265.627 199.752C228.506 203.018 196.054 201.931 196.054 201.931C196.054 201.931 218.737 174.7 173.799 187.773C128.86 200.84 128.86 200.84 128.86 200.84C128.86 200.84 119.092 196.482 119.092 213.909C119.092 231.336 130.812 233.515 132.769 243.318C134.72 253.121 150.354 249.855 136.677 261.837C123.001 273.815 64.8733 288.52 64.8733 288.52C64.8733 288.52 22.3798 277.901 17.9835 286.885C13.5872 295.872 12.1178 308.126 12.1178 308.126C12.1178 308.126 21.0115 316.294 30.4882 313.843C39.959 311.392 20.9103 315.478 39.959 311.392C59.0135 307.307 47.2881 303.224 59.0135 307.307C70.733 311.392 66.3367 304.859 70.733 311.392C75.1293 317.929 98.5742 308.941 75.1293 317.929C51.6844 326.913 66.3367 324.462 51.6844 326.913C37.0321 329.363 34.0993 321.195 37.0321 329.363C39.959 337.531 39.959 337.531 39.959 337.531L66.3368 339.982L119.092 326.913L148.397 321.195L155.726 320.38L223.134 321.195L239.25 337.531V348.15L224.597 363.674L212.872 370.35L180.634 377.559L146.933 384.912L129.348 393.083C129.348 393.083 123.489 383.28 119.092 398.797C114.696 414.321 114.696 414.321 114.696 414.321L101.507 428.369L94.1839 438.013L108.836 452.714L119.092 459.25L148.397 457.615L161.586 462.517L152.793 476.406L155.726 480.946H165.982L173.311 486.205L204.085 489.472L228.506 494.921Z" fill="#D08181"/>
<path d="M1112 609.296L1085.92 585.13L1110.05 562.957L1095.05 545L1069.03 569.488L1044.73 546.975L1028 563.338L1052.26 585.277L1030.04 606.197L1042.53 625L1069.14 600.541L1094.22 623.221L1112 609.296Z" fill="#8A3E3E"/>
<path d="M762.5 124C841.898 103.435 586.648 202.563 694.311 239.755C852.665 294.459 549.505 373.054 600.455 437.189C644.835 493.049 1085.5 480.001 1069.5 577.501" stroke="#8A3E3E" stroke-width="2.66667" stroke-miterlimit="10" stroke-dasharray="16.52 16.52"/>
<path d="M796.602 121.299C796.602 132.507 787.512 141.597 776.298 141.597C765.09 141.597 756 132.507 756 121.299C756 110.085 765.09 101.001 776.298 101.001C787.512 101.001 796.602 110.085 796.602 121.299Z" fill="#8A3E3E"/>
<path d="M1477.08 275.65C1477.08 275.65 1447.5 258.142 1437.76 284.766C1435.74 281.538 1429.73 273.869 1418.05 274.343C1403.32 274.931 1400.36 286.218 1400.36 286.218H1414.72L1416.63 278.851L1418.53 286.218H1426.93C1420.03 287.821 1412.14 293.491 1411.87 311.04L1424.52 302.013C1424.52 302.013 1425.41 297.38 1425.77 297.619C1426.13 297.859 1428.03 299.759 1428.03 299.759L1437.6 292.71C1453.21 326.2 1439.31 383.492 1439.31 383.492H1451.78C1459.17 327.902 1448.5 300.373 1443.14 290.575L1458.79 283.485L1457.72 279.684L1462.35 282.063L1477.08 275.65" fill="#8A3E3E"/>
<path d="M1385.41 315.298L1394.03 303.022L1391.54 300.638L1396.07 300.373L1404.29 289.013C1404.29 289.013 1374.3 288.982 1378.78 313.315C1375.84 311.789 1367.92 308.692 1359.35 314.226C1348.54 321.212 1351.32 331.01 1351.32 331.01L1362.12 324.633L1360.28 318.255L1364.98 322.946L1371.29 319.213C1366.81 323.482 1363.4 331.244 1370.99 344.551L1376.5 332.155C1376.5 332.155 1375.11 328.277 1375.48 328.298C1375.85 328.318 1378.13 328.907 1378.13 328.907L1382.19 319.359C1408.79 337.601 1423.77 386.834 1423.77 386.834L1433.14 381.305C1414.02 336.237 1393.79 320.286 1385.41 315.298" fill="#8A3E3E"/>
<path d="M767.95 547.599C767.95 547.599 745.71 521.386 727.806 543.366C726.952 539.66 723.782 530.45 712.584 527.077C698.47 522.828 691.979 532.522 691.979 532.522L705.561 537.218L709.762 530.882L709.153 538.462L717.098 541.206C710.054 540.466 700.74 543.252 694.758 559.755L709.663 555.35C709.663 555.35 712.016 551.264 712.277 551.602C712.537 551.946 713.714 554.361 713.714 554.361L725.063 550.826C728.879 587.576 697.023 637.194 697.023 637.194L708.815 641.265C733.96 591.136 732.856 561.629 730.998 550.623L748.099 549.03L748.334 545.089L751.936 548.848L767.95 547.599" fill="#8A3E3E"/>
<path d="M668.364 555.131L680.509 546.338L678.937 543.282L683.31 544.505L694.795 536.457C694.795 536.457 666.448 526.628 662.741 551.091C660.461 548.686 653.985 543.173 644.072 545.604C631.578 548.675 631 558.843 631 558.843L643.297 556.344L643.64 549.717L646.545 555.683L653.735 554.22C648.112 556.786 642.349 563.018 645.171 578.074L654.422 568.151C654.422 568.151 654.38 564.033 654.724 564.174C655.073 564.32 657.025 565.616 657.025 565.616L663.991 557.916C683.164 583.847 681.243 635.267 681.243 635.267L691.91 633.101C688.563 584.269 674.642 562.581 668.364 555.131" fill="#8A3E3E"/>
<path d="M1559.08 674.648C1559.08 674.648 1529.51 657.145 1519.76 683.763C1517.75 680.541 1511.74 672.867 1500.06 673.341C1485.32 673.934 1482.36 685.216 1482.36 685.216H1496.73L1498.63 677.854L1500.53 685.216H1508.94C1502.03 686.819 1494.15 692.494 1493.88 710.043L1506.53 701.011C1506.53 701.011 1507.42 696.383 1507.78 696.622C1508.13 696.862 1510.04 698.762 1510.04 698.762L1519.6 691.708C1535.21 725.198 1521.32 782.495 1521.32 782.495H1533.79C1541.18 726.9 1530.5 699.376 1525.15 689.578L1540.8 682.488L1539.73 678.682L1544.35 681.061L1559.08 674.648" fill="#8A3E3E"/>
<path d="M1467.42 714.296L1476.03 702.025L1473.54 699.641L1478.08 699.37L1486.3 688.016C1486.3 688.016 1456.3 687.985 1460.79 712.318C1457.84 710.787 1449.93 707.695 1441.35 713.229C1430.54 720.21 1433.32 730.013 1433.32 730.013L1444.12 723.63L1442.28 717.258L1446.98 721.944L1453.29 718.216C1448.82 722.48 1445.41 730.247 1452.99 743.554L1458.5 731.153C1458.5 731.153 1457.12 727.28 1457.49 727.301C1457.86 727.321 1460.14 727.905 1460.14 727.905L1464.2 718.357C1490.79 736.604 1505.77 785.837 1505.77 785.837L1515.14 780.303C1496.03 735.24 1475.78 719.283 1467.42 714.296" fill="#8A3E3E"/>
<path d="M542.108 752C540.884 752 534.524 751.825 529.773 748.376C526.842 746.251 525.601 744.366 525.348 741.653C523.872 738.67 524.395 735.679 525.892 733.206L522 725.415L523.897 709.269L542.69 703L544.66 703.3C545.074 703.365 554.933 704.903 564.095 707.936L580.658 714.089L583 724.011L578.894 736.189L575.22 737.124C574.676 737.263 569.701 738.474 562.405 738.474C561.178 738.474 560.059 738.439 559.039 738.377L557.265 743.318L544.59 752H542.108" fill="#866443"/>
<path d="M1053.68 58C1051.93 58 1042.86 58.2502 1036.09 63.1772C1031.91 66.2131 1030.14 68.9056 1029.78 72.781C1027.67 77.0423 1028.42 81.3164 1030.55 84.8484L1025 95.9787L1027.71 119.045L1054.51 128L1057.32 127.572C1057.91 127.478 1071.97 125.282 1085.04 120.949L1108.66 112.159L1112 97.9842L1106.14 80.5871L1100.9 79.2514C1100.13 79.0522 1093.03 77.3222 1082.63 77.3222C1080.88 77.3222 1079.28 77.3731 1077.83 77.4621L1075.3 70.4023L1057.22 58H1053.68" fill="#866443"/>
<path d="M561.636 713.331C552.936 710.466 543.36 709 543.36 709L530.304 713.331L529 724.386L533.788 733.91C533.788 733.91 530.304 736.473 531.608 739.04C532.915 741.604 531.173 741.604 534.223 743.799C537.269 746 542.053 746 542.053 746L551.194 739.772L554.24 731.346C554.24 731.346 555.982 732.446 562.509 732.446C569.035 732.446 573.389 731.346 573.389 731.346L576 723.654L574.696 718.158L561.636 713.331" fill="#D08181"/>
<path d="M1081.52 112.914C1069.12 116.939 1055.47 119 1055.47 119L1036.86 112.914L1035 97.3765L1041.83 83.992C1041.83 83.992 1036.86 80.3888 1038.72 76.7814C1040.58 73.1781 1038.1 73.1781 1042.45 70.0933C1046.79 67 1053.61 67 1053.61 67L1066.64 75.753L1070.98 87.5952C1070.98 87.5952 1073.46 86.0485 1082.77 86.0485C1092.07 86.0485 1098.28 87.5952 1098.28 87.5952L1102 98.4048L1100.14 106.13L1081.52 112.914" fill="#D08181"/>
<path d="M592.127 842C591.194 842 590.222 841.982 589.208 841.944C582.422 841.692 578.714 839.249 576.802 837.245C574.742 835.088 574.02 832.756 573.813 830.957C570.812 827.4 566.136 821.354 565.238 817.179C564.002 811.411 567.918 805.792 569.189 804.161L579.859 787.802L583.035 776.681L586.806 756.301L588.342 754.945C597.673 746.716 608.209 737.325 609.839 735.706C612.353 732.59 617.452 729 627.583 729C638.915 729 651.592 733.534 652.127 733.728C655.419 734.843 660.441 738.956 664.811 751.928C669.005 764.375 666.392 770.014 663.473 772.559L655.497 783.453L634.879 796.276L624.326 803.385L621.122 813.349C620.843 814.738 619.674 820.452 618.466 824.545C616.935 829.742 611.674 836.895 611.079 837.693L609.836 839.365L607.66 840.077C607.057 840.277 601.508 842 592.127 842" fill="#866443"/>
<path d="M615.532 739.249C614.675 740.356 593.396 759.102 593.396 759.102L589.921 777.854L586.449 789.99L575.164 807.27C575.164 807.27 571.256 812.049 572.126 816.095C572.997 820.137 580.807 828.962 580.807 828.962C580.807 828.962 579.503 835.581 589.487 835.951C599.472 836.319 605.114 834.48 605.114 834.48C605.114 834.48 610.323 827.493 611.627 823.081C612.927 818.668 614.231 812.049 614.231 812.049L618.136 799.916L630.725 791.459L650.257 779.326L658.07 768.662C658.07 768.662 662.412 766.455 658.07 753.585C653.728 740.718 649.386 739.249 649.386 739.249C649.386 739.249 622.912 729.689 615.532 739.249" fill="#D08181"/>
</svg>
