<svg width="1822" height="805" viewBox="0 0 1822 805" fill="none" xmlns="http://www.w3.org/2000/svg">
<g clip-path="url(#clip0)">
<path d="M40.3773 271.688C42.9245 271.955 44.8855 271.708 46.0401 271.56C47.1637 271.417 47.658 271.366 48.517 271.53C49.0955 271.64 49.7719 271.84 50.519 272.115C52.0458 272.683 53.1783 273.095 54.0262 273.412C55.4904 274.816 57.7216 276.643 62.0985 279.572C61.9269 279.678 61.7663 279.789 61.6117 279.901C60.1131 279.851 58.5538 279.898 56.9044 280.036C54.4204 278.295 50.9529 276.377 45.9987 274.284C44.2333 273.538 42.8262 272.945 41.7171 272.474C41.2623 272.191 40.8155 271.93 40.3773 271.688ZM1520.37 14.735C1496.9 10.2539 1486.74 13.0776 1477.77 15.5659C1474.54 16.4652 1471.48 17.3131 1467.6 17.8886C1452.64 20.0942 1448.96 22.8106 1442.68 28.2629C1441.02 29.6927 1439.06 31.4014 1436.34 33.4748C1429.47 38.7101 1428.3 41.1237 1426.97 44.6298C1426.07 47.0002 1424.94 49.9487 1419.24 56.7167C1410.43 67.1952 1367.32 72.2678 1352.92 73.2187L1351.33 73.3218L1335.38 77.6561L1305.02 76.594L1284.91 70.7839C1277.62 68.6766 1270.41 66.9348 1263.5 65.6162C1251.41 63.3082 1244.08 63.0298 1243.28 63.0052L1242.58 62.9823L1187.83 65.336L1160.05 73.3357L1152.77 84.7379L1152.63 85.4546C1152.63 85.4535 1150.33 93.4414 1131.64 103.028C1121.09 108.442 1118.38 107.924 1116.76 107.615C1113.92 107.072 1109.42 105.445 1103.73 103.389C1098.93 101.648 1092.94 99.4818 1085.58 97.1122C1083.17 96.3297 1080.96 95.619 1079.06 95.0054C1077.26 91.8392 1072.76 88.7631 1067.95 85.8496C1060.75 81.4896 1058.96 79.8918 1057.65 78.7301C1053.44 74.9968 1050.81 73.4938 1029.9 64.604C1018.84 59.899 1008.64 56.6362 999.592 54.9083C983.931 51.9186 975.561 54.2066 972.599 55.3833L955.996 60.8838C944.907 64.5605 940.442 69.6098 939.263 74.1383L924.25 73.9733C919.881 69.2295 911.082 58.6298 896.262 36.5799C884.802 19.5199 879.397 12.8668 868.02 10.6948C862.79 9.69643 858.701 10.3676 855.719 10.8551C852.506 11.3827 849.967 11.7995 844.737 10.8011C842.207 10.3181 839.316 9.5366 836.143 8.48852C830.482 6.60439 824.315 5.02536 817.812 3.78377C780.326 -3.37242 740.222 2.32787 734.788 3.16414L684.652 7.8642C653.398 10.7974 652.8 10.8521 653.035 15.9679L653.034 15.9712C651.518 16.455 649.438 17.074 646.585 17.8393C607.355 28.3521 601.138 47.0849 600.896 47.8761L593.241 67.0094L589.825 84.9027L581.902 98.3266C576.16 102.136 567.914 106.308 563.763 106.924C559.717 105.213 552.253 102.181 536.786 97.4182C537.797 96.3722 538.505 95.1062 538.798 93.5719C539.875 87.9267 540.131 86.5879 537.509 83.7307L537.515 83.7318C537.55 83.7385 536.753 82.2663 535.673 77.043C532.734 62.805 518.573 58.6229 512.625 57.4873C509.954 56.9775 507.505 56.7698 505.449 56.7217L475.87 45.1667L428.084 56.1526L407.982 77.7583L407.838 90.3139C407.819 92.2853 407.671 93.7291 407.485 94.7672L372.788 91.7188L360.885 89.4465L359.451 89.3753C354.358 89.1188 309.126 87.0067 288.898 91.5416C267.393 96.3595 276.123 108.148 282.492 116.754C285.545 120.879 289.013 125.555 291.494 130.924C292.09 132.213 292.566 133.307 292.94 134.232C291.513 133.902 289.984 133.57 288.371 133.262L259.247 127.702L233.154 128.508L199.022 125.675L191.747 129.043L179.178 126.644L170.016 136.246L174.9 148.637L172.86 148.983L142.567 141.428L125.899 148.061L104.732 162.494L111.925 176.971L121.715 192.405L123.021 207.358C123.476 212.56 124.33 222.237 137.816 224.811C139.634 225.158 141.394 225.298 143.071 225.234L152.396 231.94L185.818 246.204L213.854 258.349L221.52 264.89L231.296 280.207L229.932 287.354L216.639 296.515L158.315 286.113L153.289 284.559L126.746 273.918L74.7442 249.973L36.754 246.316L29.9218 257.899C27.8012 261.488 26.4033 263.861 29.7437 267.207L30.4561 267.917C30.1476 267.851 29.8444 267.79 29.5289 267.73C15.8084 265.11 5.30538 271.049 3.33541 272.263L1.08879 273.658L0.941833 275.76C0.90139 276.289 0.070985 288.856 2.85579 299.077C3.60346 301.823 7.18785 308.554 24.2332 311.808C36.0019 314.055 51.2072 314.003 59.2089 313.775C79.3401 323.452 109.305 339.646 115.821 347.993C117.369 349.973 118.088 351.184 118.423 351.873C118.365 351.892 118.306 351.915 118.253 351.938C115.097 353.213 109.815 355.341 107.561 360.897C106.498 363.513 104.513 365.092 101.764 367.282C96.8155 371.216 90.6597 376.114 88.4048 387.926C87.4689 392.829 84.6195 407.755 103.412 411.342C103.815 411.419 104.209 411.484 104.592 411.54L142.419 430.835C151.779 435.61 159.218 438.421 165.827 439.683C173.173 441.085 179.522 440.504 183.721 438.051C188.568 435.215 189.255 430.411 188.422 425.795C200.999 428.253 219.114 432.181 238.321 437.63C263.17 444.676 260.613 455.691 260.238 456.923L260.147 457.304L258.862 464.037C254.828 466.576 245.29 472.79 232.78 482.323C225.069 488.201 222.521 494.315 225.204 500.503C227.154 504.977 231.429 508.343 234.775 510.42L241.479 522.827L242.426 523.737C242.866 524.162 253.614 534.388 279.211 550.71C291.317 558.423 296.592 560.517 301.185 561.394C306.158 562.343 310.751 561.758 313.476 559.827C314.352 559.204 314.978 558.493 315.36 557.699C332.33 557.761 367.16 557.479 407.921 554.841C448.73 552.2 457.273 550.218 456.023 543.662C456.009 543.579 455.988 543.494 455.963 543.405L477.971 528.848L495.458 517.891C506.738 518.161 538.964 519.401 568.192 524.984C570.401 525.405 572.605 525.853 574.773 526.328C577.575 526.94 579.766 527.49 581.468 527.964C580.854 528.137 580.25 528.285 579.727 528.391L577.573 528.827L560.666 540.009L526.641 539.122L523.878 541.221C522.794 542.047 517.383 546.791 517.242 559.171C517.243 559.229 517.244 559.287 517.244 559.347C514.215 558.053 511.218 557.127 508.209 556.552C499.777 554.943 493.13 556.547 489.483 559.088L447.032 570.772L452.587 576.823C453.711 578.043 464.577 589.365 499.287 609.57C507.556 614.383 513.381 617.72 516.648 619.516C517.015 619.782 517.452 620.091 517.986 620.467C523.076 624.703 544.188 655.733 561.516 683.174L563.176 685.804L594.583 698.758L634.092 709.872L675.371 714.927L717.961 705.562C724.214 704.787 731.095 704.177 734.26 704.095C739.576 705.914 754.552 711.821 767.419 717.07L783.231 727.29L824.578 737.189L876.241 729.313L899.177 717.698L920.962 705.611L928.885 692.852L925.735 672.777L908.613 653.772L874.828 642.97L863.713 634.98C862.488 630.135 859.523 618.258 857.734 609.642C861.704 610.038 866.988 610.372 872.364 609.335C872.452 609.318 872.691 609.273 873.445 609.417C875.501 609.809 886.899 612.826 909.848 633.821C917.114 640.462 925.248 644.678 934.037 646.356C954.588 650.28 967.146 638.588 971.261 633.88L994.97 626.688L1011.07 623.765L1019.48 625.371L1052.32 639.852L1059.55 665.09L1068.36 682.965C1073.36 693.092 1074.54 695.5 1082.72 697.06C1083.89 697.284 1085.42 697.438 1087.03 697.4C1087.9 699.88 1086.54 702.051 1086.45 702.185L1086.19 702.585L1085.99 703.084C1085.93 703.257 1079.62 720.787 1071.28 734.398C1059.91 752.948 1123.74 775.281 1143.57 781.68L1151.32 784.183L1169.7 773.603L1175.45 767.138L1176.04 767.272C1177.05 770.039 1178.37 774.087 1179.7 779.274C1181.36 785.674 1188.41 790.653 1198.57 792.592C1210.29 794.829 1223 792.139 1225.43 791.579L1227.01 791.218L1239 784.538L1234.1 775.215L1230.37 766.867C1231.81 766.242 1235.04 766.232 1239.27 766.87C1238.79 767.33 1238.26 767.762 1237.84 768.029L1233.66 770.695L1247.57 789.627L1273.79 802.27L1286.44 804.684L1288.67 804.6C1289.57 804.569 1310.65 803.671 1321.39 793.189C1327.04 787.684 1325.36 782.893 1322.96 779.845C1318.16 773.747 1308.08 771.05 1305.49 770.443C1304.66 770.175 1299.41 768.324 1289.24 761.903C1287.3 760.671 1286.47 759.945 1286.14 759.62C1286.4 759.115 1287.19 758.188 1287.78 757.488C1289.2 755.81 1291 753.669 1292.18 750.786C1293.44 751.455 1294.75 752.197 1295.9 752.9C1297.92 755.503 1302.51 761.521 1304.64 765.058C1309.22 772.654 1319.78 774.671 1323.26 775.335C1325.97 775.852 1329 776.282 1332.5 776.775C1335.53 777.202 1339.11 777.706 1343.36 778.396C1364.64 781.847 1372.55 775.625 1380.18 769.607C1382.63 767.681 1385.39 765.498 1388.9 763.266C1401.24 755.393 1401.51 750.64 1400.91 743.53C1400.73 741.233 1400.51 738.629 1400.9 735.229L1401.06 733.838C1402.46 721.675 1402.88 718.008 1398.07 708.47C1396.2 704.754 1396.2 702.606 1396.2 700.121C1396.2 697.708 1396.2 694.973 1394.5 691.305C1392.89 687.835 1393.03 686.788 1393.67 681.74C1393.87 680.098 1394.12 678.141 1394.36 675.69C1394.43 674.934 1394.5 674.354 1394.58 673.908C1397.03 673.729 1400.31 673.42 1404.46 672.582C1404.86 673.559 1405.25 675.017 1405.55 676.173C1406.35 679.185 1407.34 682.935 1409.83 687.402C1410.28 688.214 1410.62 688.896 1410.86 689.466L1410.28 689.483L1405.45 714.758C1404.96 717.331 1405.98 721.097 1407.14 725.455C1407.68 727.435 1408.23 729.454 1408.57 731.23C1409.67 736.975 1415.94 740.143 1421.44 741.192C1426.57 742.172 1430.82 741.36 1433.71 740.362L1442.78 740.406L1443.19 740.393C1446.43 740.264 1455.81 739.935 1460.35 739.957C1477.09 740.041 1474.05 731.307 1470.53 721.195L1468.47 715.211C1467.69 712.934 1467.11 711.285 1467.07 710.888C1467.08 710.775 1467.11 710.615 1467.14 710.401C1467.34 709.001 1467.72 706.4 1467.38 699.073C1466.69 684.12 1485.34 663.714 1485.54 663.512L1486.65 662.302L1486.7 639.013L1486.43 638.262C1486.27 637.816 1482.31 627.053 1471.07 602.803C1470.08 600.649 1469.38 598.884 1468.89 597.438L1477.09 602.018L1478.35 590.067L1482.44 568.669C1482.71 567.246 1484.62 566.328 1492.68 563.024C1500.54 559.802 1512.42 554.93 1528.61 545.69C1538.46 540.072 1543.87 539.254 1545.63 539.155C1546.29 539.807 1547.06 541.011 1547.34 541.901L1548.94 547.02L1557.67 548.756L1586.45 554.251C1606.54 558.086 1613.1 557.181 1619.89 549.641C1622.66 546.567 1626.84 541.923 1639.58 535.573C1654.19 528.288 1659.48 525.042 1657.14 519.8C1655.14 515.306 1648.34 513.205 1645.79 512.413C1645.49 512.319 1645.17 512.237 1644.84 512.127C1644.74 511.815 1644.64 511.276 1644.69 510.459C1645.28 500.696 1642.51 495.75 1639.82 490.969C1637.91 487.57 1635.94 484.06 1634.8 477.694C1633.71 471.693 1633.71 471.693 1643.92 468.703C1651.12 466.596 1661.99 463.411 1675.99 456.657C1690.16 449.817 1695.8 446.1 1694.06 440.778C1692.52 436.092 1685.88 433.466 1682.31 432.052C1677.96 430.331 1675.56 429.384 1674.56 425.182C1670.5 408.059 1658.79 404.797 1632.69 399.048C1622.13 396.722 1607.68 393.538 1588.11 388.114C1533.93 373.095 1506.8 322.083 1504.08 316.729L1502.49 310.017L1519.8 291.3C1523.41 290.31 1529.73 288.907 1535.96 288.544L1534.74 289.473L1560.97 311.438L1565.38 312.935L1567.36 313.336C1576.32 315.047 1593.92 313.946 1619.66 310.058C1632.6 308.1 1647.21 304.821 1645.19 296.752C1644.1 292.368 1638.67 289.16 1633.29 286.998L1635.97 264.187C1635.97 264.187 1616.25 202.854 1615.41 200.247C1616.3 200.474 1617.21 200.679 1618.15 200.857C1624.94 202.155 1635.15 202.425 1645.18 196.346C1660.82 186.88 1669.17 183.913 1672.59 182.995L1677.42 184.637L1712.99 157.543L1713.18 157.366C1713.7 156.893 1726.05 145.451 1739.04 119.744C1747.67 102.677 1747.18 99.8076 1743.72 96.4627L1740.66 93.5077L1734.94 92.3157C1734.22 92.1774 1733.5 92.075 1732.81 92.0074L1705.26 71.0036L1703.66 70.2665C1668.59 54.1209 1662.6 52.9785 1660.35 52.5479C1654.83 51.4938 1624.85 47.9361 1611.58 46.3819L1585.14 34.3185L1557.32 21.7885L1520.37 14.735Z" fill="#867743"/>
<path d="M260.259 134.647C260.259 134.647 271.77 136.845 287.127 139.777C302.478 142.707 311.256 148.819 302.807 130.575C294.354 112.327 276.389 102.246 295.092 98.0547C313.795 93.8633 361.079 96.2354 361.079 96.2354L372.59 98.433L415.631 102.217C415.631 102.217 419.471 102.95 419.596 91.8863C419.717 80.8152 419.717 80.8152 419.717 80.8152L437.236 61.9846L476.768 52.897L504.532 63.7443C504.532 63.7443 520.904 61.3228 524.01 76.3322C527.111 91.3404 528.949 81.7113 527.111 91.3404C525.273 100.966 481.948 88.2624 525.273 100.966C568.597 113.677 558.389 115.054 568.597 113.677C578.805 112.297 592.569 102.726 592.569 102.726L601.388 87.7784L604.861 69.5885L612.482 50.5094C612.482 50.5094 617.664 33.7702 653.3 24.2223C688.941 14.6755 638.306 19.422 688.941 14.6755C739.577 9.9257 739.577 9.92567 739.577 9.92567C739.577 9.92567 792.946 1.26475 832.228 14.3074C871.508 27.3534 860.645 0.883105 885.43 37.7696C910.214 74.6593 918.992 80.7681 918.992 80.7681L951.391 81.1293C951.391 81.1293 946.394 72.697 963.379 67.0669C980.369 61.4411 980.369 61.4411 980.369 61.4411C980.369 61.4411 991.394 55.7838 1024.51 69.8678C1057.62 83.9508 1039.04 77.0754 1060.44 90.0292C1081.83 102.986 1048.1 92.1141 1081.83 102.986C1115.57 113.863 1118.38 119.943 1140.43 108.629C1162.48 97.3144 1164.32 87.6852 1164.32 87.6852L1170 78.789L1193.15 72.1218L1245.3 69.8793C1245.3 69.8793 1259.14 70.3038 1281.76 76.8403C1304.38 83.3789 1304.38 83.3789 1304.38 83.3789L1339.95 84.6219L1356.73 80.0635C1356.73 80.0635 1417.17 76.0781 1430.03 60.7917C1442.89 45.5053 1434.61 47.2493 1446.24 38.3823C1457.88 29.5175 1456.37 27.0103 1472.75 24.5932C1489.12 22.1716 1492.27 16.1214 1519.13 21.2495C1546 26.3799 1553.67 27.8446 1553.67 27.8446L1579.32 39.3911L1608.59 52.7455C1608.59 52.7455 1653.35 57.9637 1659.1 59.0625C1664.86 60.1613 1697.78 75.3149 1697.78 75.3149L1730.77 100.462C1730.77 100.462 1740.48 91.2296 1727.71 116.512C1714.92 141.794 1702.88 152.8 1702.88 152.8L1672.61 175.852C1672.61 175.852 1665.15 173.315 1635.91 191.019C1606.66 208.726 1589.19 154.379 1606.66 208.726C1624.14 263.066 1624.14 263.066 1624.14 263.066L1620.95 290.179C1620.95 290.179 1653.37 297.477 1614.46 303.357C1575.55 309.234 1568.07 306.696 1568.07 306.696L1549.21 290.9C1549.21 290.9 1558.52 283.805 1542.96 281.946C1527.4 280.083 1510.42 285.71 1510.42 285.71L1490.36 307.388L1492.57 316.679C1492.57 316.679 1520.94 376.425 1585.17 394.234C1649.41 412.044 1658.51 406.017 1662.92 424.6C1667.33 443.184 1701.96 434.271 1667.4 450.958C1632.82 467.643 1620.2 460.798 1623.11 476.876C1626 492.956 1633.88 493.35 1632.95 508.695C1632 524.039 1663.85 513.485 1630.88 529.922C1597.9 546.359 1616.48 553.231 1587.7 547.736C1558.91 542.24 1558.91 542.24 1558.91 542.24C1558.91 542.24 1552.99 521.153 1519.5 540.261C1486.02 559.375 1472.18 558.949 1470.75 566.438C1469.32 573.927 1466.66 587.836 1466.66 587.836C1466.66 587.836 1448.49 578.823 1459.76 603.148C1471.03 627.478 1474.95 638.208 1474.95 638.208L1474.9 659.266C1474.9 659.266 1454.86 680.943 1455.63 697.721C1456.4 714.503 1453.34 704.493 1457.81 717.545C1462.28 730.596 1463.79 733.1 1457.83 733.073C1451.87 733.041 1439.85 733.518 1439.85 733.518L1427.92 733.459C1427.92 733.459 1421.25 737.175 1420.25 731.995C1419.25 726.813 1416.63 719.663 1417.14 716.989C1417.65 714.314 1418.67 708.962 1418.67 708.962L1421.12 696.124C1421.12 696.124 1426.13 695.972 1420.94 686.667C1415.76 677.359 1417.95 671.124 1411.63 667.701C1405.33 664.279 1424.33 658.481 1405.33 664.279C1386.32 670.077 1383.6 663.461 1382.62 673.807C1381.64 684.15 1380.37 685.573 1383.19 691.655C1386.01 697.74 1382.52 700.398 1386.84 708.986C1391.17 717.575 1390.66 720.25 1389.17 733.27C1387.68 746.291 1394.19 748.641 1379.47 758.029C1364.75 767.418 1363.32 774.907 1344.02 771.776C1324.73 768.647 1318.67 769.154 1315.65 764.144C1312.62 759.131 1305.42 749.993 1305.42 749.993C1305.42 749.993 1283.37 735.25 1281.43 745.414C1279.49 755.577 1266.4 756.404 1281.49 765.939C1296.58 775.471 1303.29 776.753 1303.29 776.753C1303.29 776.753 1319.51 780.402 1310.95 788.748C1302.39 797.094 1285.37 797.727 1285.37 797.727L1277.69 796.261L1256.74 786.161L1247.27 773.266C1247.27 773.266 1261.99 763.878 1240.78 760.386C1219.57 756.889 1218.03 764.912 1218.03 764.912L1222.91 775.823L1225.84 781.372L1219.15 785.087C1219.15 785.087 1194.19 790.854 1191.33 779.774C1188.47 768.695 1185.65 762.614 1185.65 762.614L1168.48 758.778L1159.62 768.732L1147.33 775.808C1147.33 775.808 1073.79 752.068 1082.46 737.923C1091.13 723.774 1097.52 705.869 1097.52 705.869C1097.52 705.869 1103.68 697.064 1091.65 689.778C1079.61 682.49 1088.22 699.934 1079.61 682.49C1071.01 665.046 1071.01 665.046 1071.01 665.046L1062.95 636.898L1023.05 619.3L1008.66 616.553L988.571 620.202L961.648 628.368C961.648 628.368 943.485 653.176 919.354 631.105C895.224 609.033 877.432 600.65 866.586 602.735C855.746 604.826 843.71 597.538 846.037 608.793C848.364 620.048 852.652 636.67 852.652 636.67L868.395 647.988L900.696 658.314L914.27 673.38L916.962 690.525L910.499 700.936L890.433 712.075L869.006 722.924L822.907 729.955L788.673 721.755L774.062 712.315C774.062 712.315 739.468 698.161 735.144 697.37C730.821 696.571 712.475 698.893 712.475 698.893L671.99 707.795L635.546 703.336L598.732 692.979L572.457 682.143C572.457 682.143 535.034 622.884 526.256 616.771C517.478 610.659 540.591 625.052 506.579 605.253C472.561 585.453 462.683 574.695 462.683 574.695L498.371 564.877C498.371 564.877 503.64 558.121 519.483 568.907C535.327 579.694 517.934 587.461 535.327 579.694C552.72 571.923 552.72 571.923 552.72 571.923C552.72 571.923 565.947 584.432 542.222 573.248C518.501 562.069 528.874 571.807 529 560.744C529.12 549.676 533.776 546.132 533.776 546.132L567.427 547.012L585.637 534.965C585.637 534.965 616.668 528.691 576.57 519.928C536.472 511.163 488.78 510.931 488.78 510.931L468.444 523.68L441.125 541.75C441.125 541.75 460.519 544.345 404.128 547.993C347.737 551.644 302.165 550.706 302.165 550.706C302.165 550.706 311.845 562.534 287.013 546.703C262.193 530.877 252.106 521.189 252.106 521.189L244.757 507.588C244.757 507.588 226.384 499.648 242.678 487.234C258.966 474.817 270.2 468.092 270.2 468.092L271.834 459.535C271.834 459.535 277.222 441.714 241.373 431.541C205.522 421.371 173.442 416.355 173.442 416.355C173.442 416.355 190.617 447.355 148.927 426.088C107.236 404.826 107.236 404.826 107.236 404.826C107.236 404.826 96.8236 407.275 100.091 390.157C103.359 373.039 115.28 373.096 119.04 363.834C122.795 354.571 137.539 360.711 126.352 346.377C115.164 332.046 60.8251 306.703 60.8251 306.703C60.8251 306.703 17.0942 309.165 14.4605 299.516C11.8275 289.864 12.682 277.552 12.682 277.552C12.682 277.552 22.9496 271.196 31.7987 275.381C40.6419 279.564 22.6972 271.979 40.6418 279.564C58.5922 287.15 46.3093 288.962 58.5922 287.15C70.87 285.335 65.3265 290.928 70.8699 285.335C76.4139 279.739 97.7577 292.963 76.414 279.739C55.0696 266.518 69.0025 271.673 55.0696 266.518C41.1368 261.363 36.7243 268.836 41.1368 261.363C45.5434 253.889 45.5434 253.889 45.5434 253.889L71.9128 256.428L121.282 279.158L148.994 290.269L156.041 292.445L222.406 304.283L241.299 291.259L243.29 280.829L231.809 262.833L221.543 254.077L191.229 240.95L159.505 227.408L143.764 216.084C143.764 216.084 136.17 224.615 134.761 208.549C133.354 192.476 133.354 192.476 133.354 192.476L123.033 176.204L117.648 165.358L134.798 153.665L146.097 149.168L174.576 156.269L188.45 153.928L182.417 138.636L186.15 134.727L196.224 136.65L204.409 132.858L235.25 135.42L260.259 134.647Z" fill="#C99F8F"/>
<path d="M1263 622.296L1236.92 598.13L1261.05 575.956L1246.05 558L1220.03 582.488L1195.73 559.975L1179 576.338L1203.26 598.277L1181.04 619.197L1193.53 638L1220.14 613.541L1245.22 636.22L1263 622.296Z" fill="#7D584D"/>
<path d="M1194.5 145C1294 192.103 939.836 229.205 1047.5 266.398C1205.85 321.102 835.549 325.263 886.499 389.398C930.88 445.258 1261.5 474.5 1221.5 592.5" stroke="#7D584D" stroke-width="2.66667" stroke-miterlimit="10" stroke-dasharray="16.52 16.52"/>
<path d="M1230.6 145.299C1230.6 156.507 1221.51 165.597 1210.3 165.597C1199.09 165.597 1190 156.507 1190 145.299C1190 134.085 1199.09 125 1210.3 125C1221.51 125 1230.6 134.085 1230.6 145.299Z" fill="#7D584D"/>
<path d="M1570.08 70.65C1570.08 70.65 1540.5 53.1422 1530.76 79.7658C1528.74 76.538 1522.73 68.8696 1511.05 69.3433C1496.32 69.9316 1493.36 81.2181 1493.36 81.2181H1507.72L1509.62 73.8517L1511.52 81.2181H1519.93C1513.03 82.8216 1505.14 88.491 1504.87 106.04L1517.52 97.0132C1517.52 97.0132 1518.41 92.3799 1518.77 92.6194C1519.13 92.8588 1521.03 94.759 1521.03 94.759L1530.6 87.7101C1546.21 121.2 1532.31 178.492 1532.31 178.492H1544.78C1552.17 122.903 1541.5 95.3733 1536.14 85.5756L1551.79 78.485L1550.72 74.6847L1555.35 77.0637L1570.08 70.65" fill="#7D584D"/>
<path d="M1478.41 110.298L1487.03 98.0226L1484.54 95.6383L1489.07 95.3728L1497.29 84.0133C1497.29 84.0133 1467.3 83.982 1471.78 108.315C1468.84 106.79 1460.92 103.692 1452.35 109.226C1441.54 116.212 1444.32 126.01 1444.32 126.01L1455.12 119.633L1453.28 113.255L1457.98 117.946L1464.29 114.213C1459.81 118.482 1456.4 126.244 1463.99 139.551L1469.5 127.156C1469.5 127.156 1468.11 123.277 1468.48 123.298C1468.85 123.319 1471.13 123.907 1471.13 123.907L1475.19 114.359C1501.79 132.601 1516.77 181.834 1516.77 181.834L1526.14 176.306C1507.02 131.237 1486.79 115.286 1478.41 110.298" fill="#7D584D"/>
<path d="M704.95 569.599C704.95 569.599 682.71 543.387 664.806 565.366C663.952 561.66 660.782 552.45 649.584 549.077C635.47 544.829 628.979 554.522 628.979 554.522L642.561 559.218L646.762 552.882L646.153 560.462L654.098 563.206C647.054 562.467 637.74 565.252 631.758 581.755L646.663 577.351C646.663 577.351 649.016 573.264 649.277 573.602C649.537 573.946 650.714 576.361 650.714 576.361L662.063 572.827C665.879 609.576 634.023 659.194 634.023 659.194L645.815 663.265C670.96 613.137 669.856 583.629 667.998 572.624L685.099 571.031L685.334 567.09L688.936 570.848L704.95 569.599Z" fill="#7D584D"/>
<path d="M605.364 577.131L617.509 568.338L615.937 565.282L620.31 566.506L631.795 558.457C631.795 558.457 603.448 548.628 599.741 573.091C597.461 570.686 590.985 565.173 581.072 567.604C568.578 570.676 568 580.843 568 580.843L580.297 578.344L580.64 571.717L583.545 577.683L590.735 576.22C585.112 578.787 579.349 585.018 582.171 600.074L591.422 590.151C591.422 590.151 591.38 586.033 591.724 586.174C592.073 586.32 594.025 587.616 594.025 587.616L600.991 579.916C620.164 605.848 618.243 657.267 618.243 657.267L628.91 655.102C625.563 606.269 611.642 584.581 605.364 577.131" fill="#7D584D"/>
<path d="M1361.08 624.647C1361.08 624.647 1331.51 607.145 1321.76 633.763C1319.75 630.541 1313.74 622.867 1302.06 623.341C1287.32 623.934 1284.36 635.216 1284.36 635.216H1298.73L1300.63 627.854L1302.53 635.216H1310.94C1304.03 636.819 1296.15 642.493 1295.88 660.043L1308.53 651.011C1308.53 651.011 1309.42 646.382 1309.78 646.622C1310.13 646.861 1312.04 648.761 1312.04 648.761L1321.6 641.707C1337.21 675.198 1323.32 732.495 1323.32 732.495H1335.79C1343.18 676.9 1332.5 649.376 1327.15 639.578L1342.8 632.488L1341.73 628.682L1346.35 631.061L1361.08 624.647" fill="#7D584D"/>
<path d="M1269.42 664.296L1278.03 652.025L1275.54 649.641L1280.08 649.37L1288.3 638.016C1288.3 638.016 1258.3 637.985 1262.79 662.317C1259.84 660.787 1251.93 657.695 1243.35 663.229C1232.54 670.21 1235.32 680.013 1235.32 680.013L1246.12 673.63L1244.28 667.258L1248.98 671.943L1255.29 668.216C1250.82 672.48 1247.41 680.247 1254.99 693.553L1260.5 681.153C1260.5 681.153 1259.12 677.28 1259.49 677.3C1259.86 677.321 1262.14 677.904 1262.14 677.904L1266.2 668.356C1292.79 686.603 1307.77 735.837 1307.77 735.837L1317.14 730.303C1298.03 685.239 1277.78 669.283 1269.42 664.296" fill="#7D584D"/>
<path d="M988.645 663C986.719 663 976.71 663.275 969.233 668.694C964.62 672.034 962.667 674.996 962.269 679.259C959.946 683.946 960.769 688.648 963.125 692.533L957 704.776L959.985 730.149L989.561 740L992.662 739.528C993.313 739.426 1008.83 737.01 1023.25 732.243L1049.31 722.574L1053 706.982L1046.54 687.845L1040.76 686.376C1039.9 686.157 1032.07 684.254 1020.59 684.254C1018.66 684.254 1016.9 684.31 1015.29 684.408L1012.5 676.642L992.552 663H988.645" fill="#867743"/>
<path d="M1019.38 724.094C1005.69 728.661 990.61 731 990.61 731L970.053 724.094L968 706.465L975.539 691.279C975.539 691.279 970.053 687.191 972.106 683.098C974.164 679.009 971.422 679.009 976.223 675.509C981.019 672 988.552 672 988.552 672L1002.94 681.931L1007.74 695.367C1007.74 695.367 1010.48 693.612 1020.76 693.612C1031.03 693.612 1037.89 695.367 1037.89 695.367L1042 707.632L1039.95 716.397L1019.38 724.094" fill="#C99F8F"/>
<path d="M1140.99 24.0236C1141.56 24.1218 1142.15 24.2349 1142.76 24.3649C1146.87 25.2329 1148.87 27.1146 1149.82 28.5387C1150.84 30.0724 1151.04 31.572 1150.97 32.6915C1152.42 35.1788 1154.63 39.3616 1154.74 42.0047C1154.88 45.6555 1151.91 48.673 1150.96 49.5347L1142.74 58.398L1139.63 64.8518L1135.19 76.8952L1134.11 77.5614C1127.56 81.6025 1120.16 86.2261 1118.99 87.0428C1117.13 88.6799 1113.65 90.3349 1107.49 89.2687C1100.59 88.0762 1093.35 83.9744 1093.05 83.7995C1091.16 82.773 1088.54 79.7339 1087.25 71.3555C1086.01 63.3165 1088.2 60.1491 1090.24 58.9029L1096.25 53.0927L1110.15 47.4351L1117.32 44.2063L1120.32 38.4611C1120.64 37.6425 1121.95 34.2776 1123.12 31.9064C1124.6 28.8955 1128.56 25.0826 1129 24.658L1129.94 23.7681L1131.34 23.5627C1131.72 23.5042 1135.28 23.0364 1140.99 24.0236" fill="#867743"/>
<path d="M1784.5 368C1785.79 368 1787.13 367.975 1788.54 367.922C1797.92 367.574 1803.04 364.201 1805.69 361.436C1808.53 358.457 1809.53 355.237 1809.82 352.755C1813.97 347.844 1820.43 339.497 1821.67 333.733C1823.38 325.77 1817.97 318.013 1816.21 315.762L1801.46 293.177L1797.07 277.825L1791.86 249.689L1789.73 247.817C1776.83 236.457 1762.27 223.492 1760.02 221.257C1756.54 216.956 1749.49 212 1735.49 212C1719.82 212 1702.3 218.259 1701.56 218.527C1697.01 220.065 1690.07 225.744 1684.03 243.652C1678.23 260.835 1681.84 268.621 1685.88 272.134L1696.9 287.173L1725.4 304.876L1739.99 314.69L1744.42 328.446C1744.8 330.364 1746.42 338.252 1748.09 343.902C1750.21 351.077 1757.48 360.952 1758.3 362.054L1760.02 364.362L1763.03 365.345C1763.86 365.621 1771.53 368 1784.5 368" fill="#867743"/>
<path d="M1115.95 84.0259C1116.59 83.4471 1131.66 74.3742 1131.66 74.3742L1135.76 63.4016L1139.17 56.4304L1147.93 47.1797C1147.93 47.1797 1150.83 44.7048 1150.72 42.1651C1150.61 39.6273 1146.72 33.4572 1146.72 33.4572C1146.72 33.4572 1148.22 29.5929 1142.11 28.3053C1135.99 27.0198 1132.33 27.5315 1132.33 27.5315C1132.33 27.5315 1128.39 31.2029 1127.12 33.7326C1125.86 36.2635 1124.37 40.1283 1124.37 40.1283L1120.69 47.0515L1112.05 50.8269L1098.76 56.086L1092.83 61.7045C1092.83 61.7045 1089.92 62.5767 1091.25 70.8242C1092.58 79.0698 1095.1 80.4207 1095.1 80.4207C1095.1 80.4207 1110.41 89.0224 1115.95 84.0259Z" fill="#C99F8F"/>
<path d="M1752.14 225.889C1753.32 227.424 1782.58 253.408 1782.58 253.408L1787.36 279.401L1792.13 296.223L1807.65 320.175C1807.65 320.175 1813.02 326.801 1811.83 332.408C1810.63 338.011 1799.89 350.245 1799.89 350.245C1799.89 350.245 1801.68 359.418 1787.96 359.932C1774.23 360.442 1766.47 357.892 1766.47 357.892C1766.47 357.892 1759.31 348.208 1757.51 342.093C1755.72 335.975 1753.93 326.801 1753.93 326.801L1748.56 309.983L1731.25 298.259L1704.4 281.441L1693.65 266.659C1693.65 266.659 1687.68 263.601 1693.65 245.761C1699.62 227.925 1705.59 225.889 1705.59 225.889C1705.59 225.889 1742 212.638 1752.14 225.889Z" fill="#C99F8F"/>
<path d="M1348.83 120.563L1348.9 120.477L1349.05 120.212L1357.54 105.076L1414.22 203.25H1293.19L1297.83 199.113L1298.09 198.877L1298.31 198.592L1320.31 169.092L1320.54 168.774L1320.7 168.411L1326.77 154.638L1348.83 120.563Z" fill="url(#paint0_linear)" stroke="#555555" stroke-width="7"/>
<path d="M1368.61 119.878L1368.84 120.738L1369.44 121.388L1396.94 150.852L1406.2 177.161L1406.54 178.141L1407.37 178.775L1439.2 203.25H1322.07L1359.72 103.85L1365.45 107.671L1368.61 119.878Z" fill="url(#paint1_linear)" stroke="#555555" stroke-width="7"/>
<path d="M393.834 233.563L393.904 233.477L394.053 233.212L402.544 218.076L459.224 316.25H338.187L342.829 312.113L343.094 311.877L343.306 311.592L365.306 282.092L365.543 281.774L365.703 281.411L371.772 267.638L393.834 233.563Z" fill="url(#paint2_linear)" stroke="#555555" stroke-width="7"/>
<path d="M413.612 232.878L413.835 233.738L414.441 234.388L441.941 263.852L451.198 290.161L451.543 291.141L452.366 291.775L484.204 316.25H367.068L404.716 216.85L410.447 220.671L413.612 232.878Z" fill="url(#paint3_linear)" stroke="#555555" stroke-width="7"/>
<path d="M756.834 58.5633L756.904 58.4769L757.053 58.2121L765.544 43.0756L822.224 141.25H701.187L705.829 137.113L706.094 136.877L706.306 136.592L728.306 107.092L728.543 106.774L728.703 106.411L734.772 92.638L756.834 58.5633Z" fill="url(#paint4_linear)" stroke="#555555" stroke-width="7"/>
<path d="M776.612 57.8781L776.835 58.7383L777.441 59.3879L804.941 88.8524L814.198 115.161L814.543 116.141L815.366 116.775L847.204 141.25H730.068L767.716 41.8503L773.447 45.671L776.612 57.8781Z" fill="url(#paint5_linear)" stroke="#555555" stroke-width="7"/>
<path d="M1364.83 381.563L1364.9 381.477L1365.05 381.212L1373.54 366.076L1430.22 464.25H1309.19L1313.83 460.113L1314.09 459.877L1314.31 459.592L1336.31 430.092L1336.54 429.774L1336.7 429.411L1342.77 415.638L1364.83 381.563Z" fill="url(#paint6_linear)" stroke="#555555" stroke-width="7"/>
<path d="M1384.61 380.878L1384.83 381.738L1385.44 382.388L1412.94 411.852L1422.2 438.161L1422.54 439.141L1423.37 439.775L1455.2 464.25H1338.07L1375.72 364.85L1381.45 368.671L1384.61 380.878Z" fill="url(#paint7_linear)" stroke="#555555" stroke-width="7"/>
<path d="M769.834 381.563L769.904 381.477L770.053 381.212L778.544 366.076L835.224 464.25H714.187L718.829 460.113L719.094 459.877L719.306 459.592L741.306 430.092L741.543 429.774L741.703 429.411L747.772 415.638L769.834 381.563Z" fill="url(#paint8_linear)" stroke="#555555" stroke-width="7"/>
<path d="M789.612 380.878L789.835 381.738L790.441 382.388L817.941 411.852L827.198 438.161L827.543 439.141L828.366 439.775L860.204 464.25H743.068L780.716 364.85L786.447 368.671L789.612 380.878Z" fill="url(#paint9_linear)" stroke="#555555" stroke-width="7"/>
<path d="M1278.05 242.216C1275.55 242.216 1273.3 241.664 1271.28 240.56C1269.29 239.456 1267.72 237.932 1266.56 235.988C1265.44 234.02 1264.87 231.824 1264.87 229.4C1264.87 226.976 1265.44 224.792 1266.56 222.848C1267.72 220.88 1269.3 219.344 1271.32 218.24C1273.33 217.136 1275.59 216.584 1278.08 216.584C1279.96 216.584 1281.68 216.896 1283.27 217.52C1284.85 218.144 1286.2 219.056 1287.3 220.256L1285.61 221.948C1283.64 219.956 1281.16 218.96 1278.16 218.96C1276.16 218.96 1274.35 219.416 1272.72 220.328C1271.09 221.24 1269.8 222.488 1268.87 224.072C1267.96 225.656 1267.5 227.432 1267.5 229.4C1267.5 231.368 1267.96 233.144 1268.87 234.728C1269.8 236.312 1271.09 237.56 1272.72 238.472C1274.35 239.384 1276.16 239.84 1278.16 239.84C1281.18 239.84 1283.66 238.832 1285.61 236.816L1287.3 238.508C1286.2 239.708 1284.84 240.632 1283.23 241.28C1281.65 241.904 1279.92 242.216 1278.05 242.216ZM1299.34 242.18C1297.51 242.18 1295.87 241.772 1294.4 240.956C1292.94 240.116 1291.79 238.964 1290.95 237.5C1290.11 236.036 1289.69 234.38 1289.69 232.532C1289.69 230.684 1290.11 229.028 1290.95 227.564C1291.79 226.1 1292.94 224.96 1294.4 224.144C1295.87 223.328 1297.51 222.92 1299.34 222.92C1301.16 222.92 1302.8 223.328 1304.27 224.144C1305.73 224.96 1306.87 226.1 1307.69 227.564C1308.53 229.028 1308.95 230.684 1308.95 232.532C1308.95 234.38 1308.53 236.036 1307.69 237.5C1306.87 238.964 1305.73 240.116 1304.27 240.956C1302.8 241.772 1301.16 242.18 1299.34 242.18ZM1299.34 239.912C1300.68 239.912 1301.88 239.612 1302.94 239.012C1304.02 238.388 1304.86 237.512 1305.46 236.384C1306.06 235.256 1306.36 233.972 1306.36 232.532C1306.36 231.092 1306.06 229.808 1305.46 228.68C1304.86 227.552 1304.02 226.688 1302.94 226.088C1301.88 225.464 1300.68 225.152 1299.34 225.152C1297.99 225.152 1296.78 225.464 1295.7 226.088C1294.64 226.688 1293.8 227.552 1293.18 228.68C1292.58 229.808 1292.28 231.092 1292.28 232.532C1292.28 233.972 1292.58 235.256 1293.18 236.384C1293.8 237.512 1294.64 238.388 1295.7 239.012C1296.78 239.612 1297.99 239.912 1299.34 239.912ZM1337.78 222.92C1340.16 222.92 1342.02 223.604 1343.36 224.972C1344.73 226.34 1345.41 228.356 1345.41 231.02V242H1342.86V231.272C1342.86 229.304 1342.38 227.804 1341.42 226.772C1340.48 225.74 1339.15 225.224 1337.42 225.224C1335.45 225.224 1333.91 225.836 1332.78 227.06C1331.65 228.26 1331.09 229.928 1331.09 232.064V242H1328.53V231.272C1328.53 229.304 1328.05 227.804 1327.09 226.772C1326.15 225.74 1324.81 225.224 1323.06 225.224C1321.11 225.224 1319.57 225.836 1318.41 227.06C1317.29 228.26 1316.72 229.928 1316.72 232.064V242H1314.17V223.064H1316.61V226.52C1317.29 225.368 1318.22 224.48 1319.42 223.856C1320.62 223.232 1322 222.92 1323.56 222.92C1325.15 222.92 1326.51 223.256 1327.67 223.928C1328.84 224.6 1329.72 225.596 1330.29 226.916C1330.99 225.668 1331.99 224.696 1333.28 224C1334.6 223.28 1336.1 222.92 1337.78 222.92ZM1375.96 222.92C1378.34 222.92 1380.2 223.604 1381.54 224.972C1382.91 226.34 1383.59 228.356 1383.59 231.02V242H1381.04V231.272C1381.04 229.304 1380.56 227.804 1379.6 226.772C1378.66 225.74 1377.33 225.224 1375.6 225.224C1373.63 225.224 1372.09 225.836 1370.96 227.06C1369.83 228.26 1369.27 229.928 1369.27 232.064V242H1366.71V231.272C1366.71 229.304 1366.23 227.804 1365.27 226.772C1364.33 225.74 1362.99 225.224 1361.24 225.224C1359.29 225.224 1357.75 225.836 1356.59 227.06C1355.47 228.26 1354.9 229.928 1354.9 232.064V242H1352.35V223.064H1354.79V226.52C1355.47 225.368 1356.4 224.48 1357.6 223.856C1358.8 223.232 1360.18 222.92 1361.74 222.92C1363.33 222.92 1364.69 223.256 1365.85 223.928C1367.02 224.6 1367.9 225.596 1368.47 226.916C1369.17 225.668 1370.17 224.696 1371.46 224C1372.78 223.28 1374.28 222.92 1375.96 222.92ZM1407.59 223.064V242H1405.14V238.544C1404.47 239.696 1403.54 240.596 1402.37 241.244C1401.19 241.868 1399.85 242.18 1398.34 242.18C1395.86 242.18 1393.91 241.496 1392.47 240.128C1391.05 238.736 1390.34 236.708 1390.34 234.044V223.064H1392.9V233.792C1392.9 235.784 1393.39 237.296 1394.38 238.328C1395.36 239.36 1396.76 239.876 1398.59 239.876C1400.58 239.876 1402.15 239.276 1403.3 238.076C1404.46 236.852 1405.03 235.16 1405.03 233V223.064H1407.59ZM1424.4 222.92C1426.77 222.92 1428.66 223.616 1430.05 225.008C1431.46 226.376 1432.17 228.38 1432.17 231.02V242H1429.62V231.272C1429.62 229.304 1429.12 227.804 1428.14 226.772C1427.16 225.74 1425.75 225.224 1423.93 225.224C1421.89 225.224 1420.27 225.836 1419.07 227.06C1417.89 228.26 1417.3 229.928 1417.3 232.064V242H1414.75V223.064H1417.2V226.556C1417.89 225.404 1418.85 224.516 1420.08 223.892C1421.32 223.244 1422.76 222.92 1424.4 222.92ZM1439.11 223.064H1441.67V242H1439.11V223.064ZM1440.41 218.924C1439.88 218.924 1439.43 218.744 1439.07 218.384C1438.71 218.024 1438.53 217.592 1438.53 217.088C1438.53 216.608 1438.71 216.188 1439.07 215.828C1439.43 215.468 1439.88 215.288 1440.41 215.288C1440.93 215.288 1441.38 215.468 1441.74 215.828C1442.1 216.164 1442.28 216.572 1442.28 217.052C1442.28 217.58 1442.1 218.024 1441.74 218.384C1441.38 218.744 1440.93 218.924 1440.41 218.924ZM1458.75 240.848C1458.27 241.28 1457.67 241.616 1456.95 241.856C1456.25 242.072 1455.52 242.18 1454.75 242.18C1452.98 242.18 1451.61 241.7 1450.65 240.74C1449.69 239.78 1449.21 238.424 1449.21 236.672V225.224H1445.83V223.064H1449.21V218.924H1451.77V223.064H1457.53V225.224H1451.77V236.528C1451.77 237.656 1452.04 238.52 1452.59 239.12C1453.17 239.696 1453.99 239.984 1455.04 239.984C1455.57 239.984 1456.07 239.9 1456.55 239.732C1457.06 239.564 1457.49 239.324 1457.85 239.012L1458.75 240.848ZM1478.96 223.064L1469.5 244.268C1468.73 246.044 1467.84 247.304 1466.83 248.048C1465.82 248.792 1464.61 249.164 1463.2 249.164C1462.28 249.164 1461.43 249.02 1460.64 248.732C1459.85 248.444 1459.16 248.012 1458.59 247.436L1459.78 245.528C1460.74 246.488 1461.89 246.968 1463.23 246.968C1464.1 246.968 1464.83 246.728 1465.43 246.248C1466.05 245.768 1466.63 244.952 1467.16 243.8L1467.98 241.964L1459.52 223.064H1462.19L1469.32 239.156L1476.44 223.064H1478.96ZM1302.7 260.8V286H1300.14V265.84L1290.24 282.796H1288.98L1279.08 265.948V286H1276.53V260.8H1278.72L1289.67 279.484L1300.5 260.8H1302.7ZM1316.99 266.92C1319.46 266.92 1321.36 267.544 1322.68 268.792C1324 270.016 1324.66 271.84 1324.66 274.264V286H1322.21V283.048C1321.64 284.032 1320.78 284.8 1319.66 285.352C1318.55 285.904 1317.23 286.18 1315.7 286.18C1313.58 286.18 1311.9 285.676 1310.66 284.668C1309.41 283.66 1308.78 282.328 1308.78 280.672C1308.78 279.064 1309.36 277.768 1310.51 276.784C1311.69 275.8 1313.55 275.308 1316.09 275.308H1322.1V274.156C1322.1 272.524 1321.65 271.288 1320.74 270.448C1319.82 269.584 1318.49 269.152 1316.74 269.152C1315.54 269.152 1314.39 269.356 1313.28 269.764C1312.18 270.148 1311.23 270.688 1310.44 271.384L1309.29 269.476C1310.25 268.66 1311.4 268.036 1312.74 267.604C1314.09 267.148 1315.5 266.92 1316.99 266.92ZM1316.09 284.164C1317.53 284.164 1318.77 283.84 1319.8 283.192C1320.83 282.52 1321.6 281.56 1322.1 280.312V277.216H1316.16C1312.92 277.216 1311.3 278.344 1311.3 280.6C1311.3 281.704 1311.72 282.58 1312.56 283.228C1313.4 283.852 1314.58 284.164 1316.09 284.164ZM1341.25 266.92C1343.63 266.92 1345.51 267.616 1346.9 269.008C1348.32 270.376 1349.03 272.38 1349.03 275.02V286H1346.47V275.272C1346.47 273.304 1345.98 271.804 1345 270.772C1344.01 269.74 1342.61 269.224 1340.78 269.224C1338.74 269.224 1337.12 269.836 1335.92 271.06C1334.75 272.26 1334.16 273.928 1334.16 276.064V286H1331.6V267.064H1334.05V270.556C1334.75 269.404 1335.71 268.516 1336.93 267.892C1338.18 267.244 1339.62 266.92 1341.25 266.92ZM1362.59 266.92C1365.06 266.92 1366.96 267.544 1368.28 268.792C1369.6 270.016 1370.26 271.84 1370.26 274.264V286H1367.81V283.048C1367.23 284.032 1366.38 284.8 1365.25 285.352C1364.15 285.904 1362.83 286.18 1361.29 286.18C1359.18 286.18 1357.5 285.676 1356.25 284.668C1355.01 283.66 1354.38 282.328 1354.38 280.672C1354.38 279.064 1354.96 277.768 1356.11 276.784C1357.29 275.8 1359.15 275.308 1361.69 275.308H1367.7V274.156C1367.7 272.524 1367.25 271.288 1366.33 270.448C1365.42 269.584 1364.09 269.152 1362.34 269.152C1361.14 269.152 1359.99 269.356 1358.88 269.764C1357.78 270.148 1356.83 270.688 1356.04 271.384L1354.89 269.476C1355.85 268.66 1357 268.036 1358.34 267.604C1359.69 267.148 1361.1 266.92 1362.59 266.92ZM1361.69 284.164C1363.13 284.164 1364.37 283.84 1365.4 283.192C1366.43 282.52 1367.2 281.56 1367.7 280.312V277.216H1361.76C1358.52 277.216 1356.9 278.344 1356.9 280.6C1356.9 281.704 1357.32 282.58 1358.16 283.228C1359 283.852 1360.18 284.164 1361.69 284.164ZM1394.8 267.064V283.696C1394.8 286.912 1394.01 289.288 1392.43 290.824C1390.87 292.384 1388.5 293.164 1385.34 293.164C1383.58 293.164 1381.92 292.9 1380.33 292.372C1378.77 291.868 1377.5 291.16 1376.52 290.248L1377.81 288.304C1378.72 289.12 1379.83 289.756 1381.12 290.212C1382.44 290.668 1383.82 290.896 1385.26 290.896C1387.66 290.896 1389.43 290.332 1390.56 289.204C1391.68 288.1 1392.25 286.372 1392.25 284.02V281.608C1391.46 282.808 1390.41 283.72 1389.12 284.344C1387.84 284.968 1386.43 285.28 1384.87 285.28C1383.09 285.28 1381.47 284.896 1380.01 284.128C1378.57 283.336 1377.43 282.244 1376.59 280.852C1375.77 279.436 1375.36 277.84 1375.36 276.064C1375.36 274.288 1375.77 272.704 1376.59 271.312C1377.43 269.92 1378.57 268.84 1380.01 268.072C1381.45 267.304 1383.07 266.92 1384.87 266.92C1386.48 266.92 1387.93 267.244 1389.22 267.892C1390.52 268.54 1391.56 269.476 1392.36 270.7V267.064H1394.8ZM1385.12 283.012C1386.49 283.012 1387.72 282.724 1388.83 282.148C1389.93 281.548 1390.78 280.72 1391.38 279.664C1392.01 278.608 1392.32 277.408 1392.32 276.064C1392.32 274.72 1392.01 273.532 1391.38 272.5C1390.78 271.444 1389.93 270.628 1388.83 270.052C1387.75 269.452 1386.51 269.152 1385.12 269.152C1383.75 269.152 1382.52 269.44 1381.41 270.016C1380.33 270.592 1379.48 271.408 1378.86 272.464C1378.26 273.52 1377.96 274.72 1377.96 276.064C1377.96 277.408 1378.26 278.608 1378.86 279.664C1379.48 280.72 1380.33 281.548 1381.41 282.148C1382.52 282.724 1383.75 283.012 1385.12 283.012ZM1418.44 277.324H1402.6C1402.74 279.292 1403.5 280.888 1404.87 282.112C1406.23 283.312 1407.96 283.912 1410.05 283.912C1411.23 283.912 1412.31 283.708 1413.29 283.3C1414.27 282.868 1415.13 282.244 1415.85 281.428L1417.29 283.084C1416.45 284.092 1415.39 284.86 1414.12 285.388C1412.87 285.916 1411.49 286.18 1409.98 286.18C1408.03 286.18 1406.31 285.772 1404.79 284.956C1403.31 284.116 1402.14 282.964 1401.3 281.5C1400.46 280.036 1400.04 278.38 1400.04 276.532C1400.04 274.684 1400.44 273.028 1401.23 271.564C1402.05 270.1 1403.15 268.96 1404.54 268.144C1405.96 267.328 1407.54 266.92 1409.29 266.92C1411.05 266.92 1412.62 267.328 1414.01 268.144C1415.4 268.96 1416.49 270.1 1417.29 271.564C1418.08 273.004 1418.47 274.66 1418.47 276.532L1418.44 277.324ZM1409.29 269.116C1407.47 269.116 1405.93 269.704 1404.69 270.88C1403.46 272.032 1402.77 273.544 1402.6 275.416H1416.03C1415.86 273.544 1415.15 272.032 1413.9 270.88C1412.68 269.704 1411.14 269.116 1409.29 269.116ZM1426.13 270.772C1426.73 269.5 1427.61 268.54 1428.79 267.892C1429.99 267.244 1431.47 266.92 1433.22 266.92V269.404L1432.61 269.368C1430.61 269.368 1429.05 269.98 1427.93 271.204C1426.8 272.428 1426.23 274.144 1426.23 276.352V286H1423.68V267.064H1426.13V270.772Z" fill="#EFEFEF"/>
<path d="M720.048 511.216C717.552 511.216 715.296 510.664 713.28 509.56C711.288 508.456 709.716 506.932 708.564 504.988C707.436 503.02 706.872 500.824 706.872 498.4C706.872 495.976 707.436 493.792 708.564 491.848C709.716 489.88 711.3 488.344 713.316 487.24C715.332 486.136 717.588 485.584 720.084 485.584C721.956 485.584 723.684 485.896 725.268 486.52C726.852 487.144 728.196 488.056 729.3 489.256L727.608 490.948C725.64 488.956 723.156 487.96 720.156 487.96C718.164 487.96 716.352 488.416 714.72 489.328C713.088 490.24 711.804 491.488 710.868 493.072C709.956 494.656 709.5 496.432 709.5 498.4C709.5 500.368 709.956 502.144 710.868 503.728C711.804 505.312 713.088 506.56 714.72 507.472C716.352 508.384 718.164 508.84 720.156 508.84C723.18 508.84 725.664 507.832 727.608 505.816L729.3 507.508C728.196 508.708 726.84 509.632 725.232 510.28C723.648 510.904 721.92 511.216 720.048 511.216ZM744.087 491.92C746.463 491.92 748.347 492.616 749.739 494.008C751.155 495.376 751.863 497.38 751.863 500.02V511H749.307V500.272C749.307 498.304 748.815 496.804 747.831 495.772C746.847 494.74 745.443 494.224 743.619 494.224C741.579 494.224 739.959 494.836 738.759 496.06C737.583 497.26 736.995 498.928 736.995 501.064V511H734.439V484.288H736.995V495.376C737.691 494.272 738.651 493.42 739.875 492.82C741.099 492.22 742.503 491.92 744.087 491.92ZM765.426 491.92C767.898 491.92 769.794 492.544 771.114 493.792C772.434 495.016 773.094 496.84 773.094 499.264V511H770.646V508.048C770.07 509.032 769.218 509.8 768.09 510.352C766.986 510.904 765.666 511.18 764.13 511.18C762.018 511.18 760.338 510.676 759.09 509.668C757.842 508.66 757.218 507.328 757.218 505.672C757.218 504.064 757.794 502.768 758.946 501.784C760.122 500.8 761.982 500.308 764.526 500.308H770.538V499.156C770.538 497.524 770.082 496.288 769.17 495.448C768.258 494.584 766.926 494.152 765.174 494.152C763.974 494.152 762.822 494.356 761.718 494.764C760.614 495.148 759.666 495.688 758.874 496.384L757.722 494.476C758.682 493.66 759.834 493.036 761.178 492.604C762.522 492.148 763.938 491.92 765.426 491.92ZM764.526 509.164C765.966 509.164 767.202 508.84 768.234 508.192C769.266 507.52 770.034 506.56 770.538 505.312V502.216H764.598C761.358 502.216 759.738 503.344 759.738 505.6C759.738 506.704 760.158 507.58 760.998 508.228C761.838 508.852 763.014 509.164 764.526 509.164ZM782.485 495.772C783.085 494.5 783.973 493.54 785.149 492.892C786.349 492.244 787.825 491.92 789.577 491.92V494.404L788.965 494.368C786.973 494.368 785.413 494.98 784.285 496.204C783.157 497.428 782.593 499.144 782.593 501.352V511H780.037V492.064H782.485V495.772ZM811.561 492.064V508.696C811.561 511.912 810.769 514.288 809.185 515.824C807.625 517.384 805.261 518.164 802.093 518.164C800.341 518.164 798.673 517.9 797.089 517.372C795.529 516.868 794.257 516.16 793.273 515.248L794.569 513.304C795.481 514.12 796.585 514.756 797.881 515.212C799.201 515.668 800.581 515.896 802.021 515.896C804.421 515.896 806.185 515.332 807.313 514.204C808.441 513.1 809.005 511.372 809.005 509.02V506.608C808.213 507.808 807.169 508.72 805.873 509.344C804.601 509.968 803.185 510.28 801.625 510.28C799.849 510.28 798.229 509.896 796.765 509.128C795.325 508.336 794.185 507.244 793.345 505.852C792.529 504.436 792.121 502.84 792.121 501.064C792.121 499.288 792.529 497.704 793.345 496.312C794.185 494.92 795.325 493.84 796.765 493.072C798.205 492.304 799.825 491.92 801.625 491.92C803.233 491.92 804.685 492.244 805.981 492.892C807.277 493.54 808.321 494.476 809.113 495.7V492.064H811.561ZM801.877 508.012C803.245 508.012 804.481 507.724 805.585 507.148C806.689 506.548 807.541 505.72 808.141 504.664C808.765 503.608 809.077 502.408 809.077 501.064C809.077 499.72 808.765 498.532 808.141 497.5C807.541 496.444 806.689 495.628 805.585 495.052C804.505 494.452 803.269 494.152 801.877 494.152C800.509 494.152 799.273 494.44 798.169 495.016C797.089 495.592 796.237 496.408 795.613 497.464C795.013 498.52 794.713 499.72 794.713 501.064C794.713 502.408 795.013 503.608 795.613 504.664C796.237 505.72 797.089 506.548 798.169 507.148C799.273 507.724 800.509 508.012 801.877 508.012ZM835.197 502.324H819.357C819.501 504.292 820.257 505.888 821.625 507.112C822.993 508.312 824.721 508.912 826.809 508.912C827.985 508.912 829.065 508.708 830.049 508.3C831.033 507.868 831.885 507.244 832.605 506.428L834.045 508.084C833.205 509.092 832.149 509.86 830.877 510.388C829.629 510.916 828.249 511.18 826.737 511.18C824.793 511.18 823.065 510.772 821.553 509.956C820.065 509.116 818.901 507.964 818.061 506.5C817.221 505.036 816.801 503.38 816.801 501.532C816.801 499.684 817.197 498.028 817.989 496.564C818.805 495.1 819.909 493.96 821.301 493.144C822.717 492.328 824.301 491.92 826.053 491.92C827.805 491.92 829.377 492.328 830.769 493.144C832.161 493.96 833.253 495.1 834.045 496.564C834.837 498.004 835.233 499.66 835.233 501.532L835.197 502.324ZM826.053 494.116C824.229 494.116 822.693 494.704 821.445 495.88C820.221 497.032 819.525 498.544 819.357 500.416H832.785C832.617 498.544 831.909 497.032 830.661 495.88C829.437 494.704 827.901 494.116 826.053 494.116ZM828.645 484.648H832.065L826.233 489.112H823.713L828.645 484.648ZM850.397 485.8H860.657C863.321 485.8 865.673 486.34 867.713 487.42C869.753 488.476 871.337 489.964 872.465 491.884C873.593 493.78 874.157 495.952 874.157 498.4C874.157 500.848 873.593 503.032 872.465 504.952C871.337 506.848 869.753 508.336 867.713 509.416C865.673 510.472 863.321 511 860.657 511H850.397V485.8ZM860.513 508.696C862.721 508.696 864.653 508.264 866.309 507.4C867.965 506.512 869.249 505.3 870.161 503.764C871.073 502.204 871.529 500.416 871.529 498.4C871.529 496.384 871.073 494.608 870.161 493.072C869.249 491.512 867.965 490.3 866.309 489.436C864.653 488.548 862.721 488.104 860.513 488.104H853.061V508.696H860.513ZM896.087 502.324H880.247C880.391 504.292 881.147 505.888 882.515 507.112C883.883 508.312 885.611 508.912 887.699 508.912C888.875 508.912 889.955 508.708 890.939 508.3C891.923 507.868 892.775 507.244 893.495 506.428L894.935 508.084C894.095 509.092 893.039 509.86 891.767 510.388C890.519 510.916 889.139 511.18 887.627 511.18C885.683 511.18 883.955 510.772 882.443 509.956C880.955 509.116 879.791 507.964 878.951 506.5C878.111 505.036 877.691 503.38 877.691 501.532C877.691 499.684 878.087 498.028 878.879 496.564C879.695 495.1 880.799 493.96 882.191 493.144C883.607 492.328 885.191 491.92 886.943 491.92C888.695 491.92 890.267 492.328 891.659 493.144C893.051 493.96 894.143 495.1 894.935 496.564C895.727 498.004 896.123 499.66 896.123 501.532L896.087 502.324ZM886.943 494.116C885.119 494.116 883.583 494.704 882.335 495.88C881.111 497.032 880.415 498.544 880.247 500.416H893.675C893.507 498.544 892.799 497.032 891.551 495.88C890.327 494.704 888.791 494.116 886.943 494.116ZM720.048 555.216C717.552 555.216 715.296 554.664 713.28 553.56C711.288 552.456 709.716 550.932 708.564 548.988C707.436 547.02 706.872 544.824 706.872 542.4C706.872 539.976 707.436 537.792 708.564 535.848C709.716 533.88 711.3 532.344 713.316 531.24C715.332 530.136 717.588 529.584 720.084 529.584C721.956 529.584 723.684 529.896 725.268 530.52C726.852 531.144 728.196 532.056 729.3 533.256L727.608 534.948C725.64 532.956 723.156 531.96 720.156 531.96C718.164 531.96 716.352 532.416 714.72 533.328C713.088 534.24 711.804 535.488 710.868 537.072C709.956 538.656 709.5 540.432 709.5 542.4C709.5 544.368 709.956 546.144 710.868 547.728C711.804 549.312 713.088 550.56 714.72 551.472C716.352 552.384 718.164 552.84 720.156 552.84C723.18 552.84 725.664 551.832 727.608 549.816L729.3 551.508C728.196 552.708 726.84 553.632 725.232 554.28C723.648 554.904 721.92 555.216 720.048 555.216ZM741.335 555.18C739.511 555.18 737.867 554.772 736.403 553.956C734.939 553.116 733.787 551.964 732.947 550.5C732.107 549.036 731.687 547.38 731.687 545.532C731.687 543.684 732.107 542.028 732.947 540.564C733.787 539.1 734.939 537.96 736.403 537.144C737.867 536.328 739.511 535.92 741.335 535.92C743.159 535.92 744.803 536.328 746.267 537.144C747.731 537.96 748.871 539.1 749.687 540.564C750.527 542.028 750.947 543.684 750.947 545.532C750.947 547.38 750.527 549.036 749.687 550.5C748.871 551.964 747.731 553.116 746.267 553.956C744.803 554.772 743.159 555.18 741.335 555.18ZM741.335 552.912C742.679 552.912 743.879 552.612 744.935 552.012C746.015 551.388 746.855 550.512 747.455 549.384C748.055 548.256 748.355 546.972 748.355 545.532C748.355 544.092 748.055 542.808 747.455 541.68C746.855 540.552 746.015 539.688 744.935 539.088C743.879 538.464 742.679 538.152 741.335 538.152C739.991 538.152 738.779 538.464 737.699 539.088C736.643 539.688 735.803 540.552 735.179 541.68C734.579 542.808 734.279 544.092 734.279 545.532C734.279 546.972 734.579 548.256 735.179 549.384C735.803 550.512 736.643 551.388 737.699 552.012C738.779 552.612 739.991 552.912 741.335 552.912ZM779.782 535.92C782.158 535.92 784.018 536.604 785.362 537.972C786.73 539.34 787.414 541.356 787.414 544.02V555H784.858V544.272C784.858 542.304 784.378 540.804 783.418 539.772C782.482 538.74 781.15 538.224 779.422 538.224C777.454 538.224 775.906 538.836 774.778 540.06C773.65 541.26 773.086 542.928 773.086 545.064V555H770.53V544.272C770.53 542.304 770.05 540.804 769.09 539.772C768.154 538.74 766.81 538.224 765.058 538.224C763.114 538.224 761.566 538.836 760.414 540.06C759.286 541.26 758.722 542.928 758.722 545.064V555H756.166V536.064H758.614V539.52C759.286 538.368 760.222 537.48 761.422 536.856C762.622 536.232 764.002 535.92 765.562 535.92C767.146 535.92 768.514 536.256 769.666 536.928C770.842 537.6 771.718 538.596 772.294 539.916C772.99 538.668 773.986 537.696 775.282 537C776.602 536.28 778.102 535.92 779.782 535.92ZM817.961 535.92C820.337 535.92 822.197 536.604 823.541 537.972C824.909 539.34 825.593 541.356 825.593 544.02V555H823.037V544.272C823.037 542.304 822.557 540.804 821.597 539.772C820.661 538.74 819.329 538.224 817.601 538.224C815.633 538.224 814.085 538.836 812.957 540.06C811.829 541.26 811.265 542.928 811.265 545.064V555H808.709V544.272C808.709 542.304 808.229 540.804 807.269 539.772C806.333 538.74 804.989 538.224 803.237 538.224C801.293 538.224 799.745 538.836 798.593 540.06C797.465 541.26 796.901 542.928 796.901 545.064V555H794.345V536.064H796.793V539.52C797.465 538.368 798.401 537.48 799.601 536.856C800.801 536.232 802.181 535.92 803.741 535.92C805.325 535.92 806.693 536.256 807.845 536.928C809.021 537.6 809.897 538.596 810.473 539.916C811.169 538.668 812.165 537.696 813.461 537C814.781 536.28 816.281 535.92 817.961 535.92ZM849.589 536.064V555H847.141V551.544C846.469 552.696 845.545 553.596 844.369 554.244C843.193 554.868 841.849 555.18 840.337 555.18C837.865 555.18 835.909 554.496 834.469 553.128C833.053 551.736 832.345 549.708 832.345 547.044V536.064H834.901V546.792C834.901 548.784 835.393 550.296 836.377 551.328C837.361 552.36 838.765 552.876 840.589 552.876C842.581 552.876 844.153 552.276 845.305 551.076C846.457 549.852 847.033 548.16 847.033 546V536.064H849.589ZM866.396 535.92C868.772 535.92 870.656 536.616 872.048 538.008C873.464 539.376 874.172 541.38 874.172 544.02V555H871.616V544.272C871.616 542.304 871.124 540.804 870.14 539.772C869.156 538.74 867.752 538.224 865.928 538.224C863.888 538.224 862.268 538.836 861.068 540.06C859.892 541.26 859.304 542.928 859.304 545.064V555H856.748V536.064H859.196V539.556C859.892 538.404 860.852 537.516 862.076 536.892C863.324 536.244 864.764 535.92 866.396 535.92ZM881.111 536.064H883.667V555H881.111V536.064ZM882.407 531.924C881.879 531.924 881.435 531.744 881.075 531.384C880.715 531.024 880.535 530.592 880.535 530.088C880.535 529.608 880.715 529.188 881.075 528.828C881.435 528.468 881.879 528.288 882.407 528.288C882.935 528.288 883.379 528.468 883.739 528.828C884.099 529.164 884.279 529.572 884.279 530.052C884.279 530.58 884.099 531.024 883.739 531.384C883.379 531.744 882.935 531.924 882.407 531.924ZM898.627 555.18C896.755 555.18 895.075 554.772 893.587 553.956C892.123 553.14 890.971 552 890.131 550.536C889.291 549.048 888.871 547.38 888.871 545.532C888.871 543.684 889.291 542.028 890.131 540.564C890.971 539.1 892.123 537.96 893.587 537.144C895.075 536.328 896.755 535.92 898.627 535.92C900.259 535.92 901.711 536.244 902.983 536.892C904.279 537.516 905.299 538.44 906.043 539.664L904.135 540.96C903.511 540.024 902.719 539.328 901.759 538.872C900.799 538.392 899.755 538.152 898.627 538.152C897.259 538.152 896.023 538.464 894.919 539.088C893.839 539.688 892.987 540.552 892.363 541.68C891.763 542.808 891.463 544.092 891.463 545.532C891.463 546.996 891.763 548.292 892.363 549.42C892.987 550.524 893.839 551.388 894.919 552.012C896.023 552.612 897.259 552.912 898.627 552.912C899.755 552.912 900.799 552.684 901.759 552.228C902.719 551.772 903.511 551.076 904.135 550.14L906.043 551.436C905.299 552.66 904.279 553.596 902.983 554.244C901.687 554.868 900.235 555.18 898.627 555.18ZM917.688 535.92C920.16 535.92 922.056 536.544 923.376 537.792C924.696 539.016 925.356 540.84 925.356 543.264V555H922.908V552.048C922.332 553.032 921.48 553.8 920.352 554.352C919.248 554.904 917.928 555.18 916.392 555.18C914.28 555.18 912.6 554.676 911.352 553.668C910.104 552.66 909.48 551.328 909.48 549.672C909.48 548.064 910.056 546.768 911.208 545.784C912.384 544.8 914.244 544.308 916.788 544.308H922.8V543.156C922.8 541.524 922.344 540.288 921.432 539.448C920.52 538.584 919.188 538.152 917.436 538.152C916.236 538.152 915.084 538.356 913.98 538.764C912.876 539.148 911.928 539.688 911.136 540.384L909.984 538.476C910.944 537.66 912.096 537.036 913.44 536.604C914.784 536.148 916.2 535.92 917.688 535.92ZM916.788 553.164C918.228 553.164 919.464 552.84 920.496 552.192C921.528 551.52 922.296 550.56 922.8 549.312V546.216H916.86C913.62 546.216 912 547.344 912 549.6C912 550.704 912.42 551.58 913.26 552.228C914.1 552.852 915.276 553.164 916.788 553.164ZM942.27 553.848C941.79 554.28 941.19 554.616 940.47 554.856C939.774 555.072 939.042 555.18 938.274 555.18C936.498 555.18 935.13 554.7 934.17 553.74C933.21 552.78 932.73 551.424 932.73 549.672V538.224H929.346V536.064H932.73V531.924H935.286V536.064H941.046V538.224H935.286V549.528C935.286 550.656 935.562 551.52 936.114 552.12C936.69 552.696 937.506 552.984 938.562 552.984C939.09 552.984 939.594 552.9 940.074 552.732C940.578 552.564 941.01 552.324 941.37 552.012L942.27 553.848ZM946.923 536.064H949.479V555H946.923V536.064ZM948.219 531.924C947.691 531.924 947.247 531.744 946.887 531.384C946.527 531.024 946.347 530.592 946.347 530.088C946.347 529.608 946.527 529.188 946.887 528.828C947.247 528.468 947.691 528.288 948.219 528.288C948.747 528.288 949.191 528.468 949.551 528.828C949.911 529.164 950.091 529.572 950.091 530.052C950.091 530.58 949.911 531.024 949.551 531.384C949.191 531.744 948.747 531.924 948.219 531.924ZM964.331 555.18C962.507 555.18 960.863 554.772 959.399 553.956C957.935 553.116 956.783 551.964 955.943 550.5C955.103 549.036 954.683 547.38 954.683 545.532C954.683 543.684 955.103 542.028 955.943 540.564C956.783 539.1 957.935 537.96 959.399 537.144C960.863 536.328 962.507 535.92 964.331 535.92C966.155 535.92 967.799 536.328 969.263 537.144C970.727 537.96 971.867 539.1 972.683 540.564C973.523 542.028 973.943 543.684 973.943 545.532C973.943 547.38 973.523 549.036 972.683 550.5C971.867 551.964 970.727 553.116 969.263 553.956C967.799 554.772 966.155 555.18 964.331 555.18ZM964.331 552.912C965.675 552.912 966.875 552.612 967.931 552.012C969.011 551.388 969.851 550.512 970.451 549.384C971.051 548.256 971.351 546.972 971.351 545.532C971.351 544.092 971.051 542.808 970.451 541.68C969.851 540.552 969.011 539.688 967.931 539.088C966.875 538.464 965.675 538.152 964.331 538.152C962.987 538.152 961.775 538.464 960.695 539.088C959.639 539.688 958.799 540.552 958.175 541.68C957.575 542.808 957.275 544.092 957.275 545.532C957.275 546.972 957.575 548.256 958.175 549.384C958.799 550.512 959.639 551.388 960.695 552.012C961.775 552.612 962.987 552.912 964.331 552.912ZM988.81 535.92C991.186 535.92 993.07 536.616 994.462 538.008C995.878 539.376 996.586 541.38 996.586 544.02V555H994.03V544.272C994.03 542.304 993.538 540.804 992.554 539.772C991.57 538.74 990.166 538.224 988.342 538.224C986.302 538.224 984.682 538.836 983.482 540.06C982.306 541.26 981.718 542.928 981.718 545.064V555H979.162V536.064H981.61V539.556C982.306 538.404 983.266 537.516 984.49 536.892C985.738 536.244 987.178 535.92 988.81 535.92Z" fill="#EFEFEF"/>
<path d="M655.048 194.216C652.552 194.216 650.296 193.664 648.28 192.56C646.288 191.456 644.716 189.932 643.564 187.988C642.436 186.02 641.872 183.824 641.872 181.4C641.872 178.976 642.436 176.792 643.564 174.848C644.716 172.88 646.3 171.344 648.316 170.24C650.332 169.136 652.588 168.584 655.084 168.584C656.956 168.584 658.684 168.896 660.268 169.52C661.852 170.144 663.196 171.056 664.3 172.256L662.608 173.948C660.64 171.956 658.156 170.96 655.156 170.96C653.164 170.96 651.352 171.416 649.72 172.328C648.088 173.24 646.804 174.488 645.868 176.072C644.956 177.656 644.5 179.432 644.5 181.4C644.5 183.368 644.956 185.144 645.868 186.728C646.804 188.312 648.088 189.56 649.72 190.472C651.352 191.384 653.164 191.84 655.156 191.84C658.18 191.84 660.664 190.832 662.608 188.816L664.3 190.508C663.196 191.708 661.84 192.632 660.232 193.28C658.648 193.904 656.92 194.216 655.048 194.216ZM679.087 174.92C681.463 174.92 683.347 175.616 684.739 177.008C686.155 178.376 686.863 180.38 686.863 183.02V194H684.307V183.272C684.307 181.304 683.815 179.804 682.831 178.772C681.847 177.74 680.443 177.224 678.619 177.224C676.579 177.224 674.959 177.836 673.759 179.06C672.583 180.26 671.995 181.928 671.995 184.064V194H669.439V167.288H671.995V178.376C672.691 177.272 673.651 176.42 674.875 175.82C676.099 175.22 677.503 174.92 679.087 174.92ZM710.361 185.324H694.521C694.665 187.292 695.421 188.888 696.789 190.112C698.157 191.312 699.885 191.912 701.973 191.912C703.149 191.912 704.229 191.708 705.213 191.3C706.197 190.868 707.049 190.244 707.769 189.428L709.209 191.084C708.369 192.092 707.313 192.86 706.041 193.388C704.793 193.916 703.413 194.18 701.901 194.18C699.957 194.18 698.229 193.772 696.717 192.956C695.229 192.116 694.065 190.964 693.225 189.5C692.385 188.036 691.965 186.38 691.965 184.532C691.965 182.684 692.361 181.028 693.153 179.564C693.969 178.1 695.073 176.96 696.465 176.144C697.881 175.328 699.465 174.92 701.217 174.92C702.969 174.92 704.541 175.328 705.933 176.144C707.325 176.96 708.417 178.1 709.209 179.564C710.001 181.004 710.397 182.66 710.397 184.532L710.361 185.324ZM701.217 177.116C699.393 177.116 697.857 177.704 696.609 178.88C695.385 180.032 694.689 181.544 694.521 183.416H707.949C707.781 181.544 707.073 180.032 705.825 178.88C704.601 177.704 703.065 177.116 701.217 177.116ZM721.863 169.268C720.759 169.268 719.919 169.568 719.343 170.168C718.791 170.768 718.515 171.656 718.515 172.832V175.064H724.347V177.224H718.587V194H716.031V177.224H712.647V175.064H716.031V172.724C716.031 170.996 716.523 169.628 717.507 168.62C718.515 167.612 719.931 167.108 721.755 167.108C722.475 167.108 723.171 167.216 723.843 167.432C724.515 167.624 725.079 167.912 725.535 168.296L724.671 170.204C723.927 169.58 722.991 169.268 721.863 169.268ZM754.5 167.288V194H752.052V190.256C751.284 191.528 750.264 192.5 748.992 193.172C747.744 193.844 746.328 194.18 744.744 194.18C742.968 194.18 741.36 193.772 739.92 192.956C738.48 192.14 737.352 191 736.536 189.536C735.72 188.072 735.312 186.404 735.312 184.532C735.312 182.66 735.72 180.992 736.536 179.528C737.352 178.064 738.48 176.936 739.92 176.144C741.36 175.328 742.968 174.92 744.744 174.92C746.28 174.92 747.66 175.244 748.884 175.892C750.132 176.516 751.152 177.44 751.944 178.664V167.288H754.5ZM744.96 191.912C746.28 191.912 747.468 191.612 748.524 191.012C749.604 190.388 750.444 189.512 751.044 188.384C751.668 187.256 751.98 185.972 751.98 184.532C751.98 183.092 751.668 181.808 751.044 180.68C750.444 179.552 749.604 178.688 748.524 178.088C747.468 177.464 746.28 177.152 744.96 177.152C743.616 177.152 742.404 177.464 741.324 178.088C740.268 178.688 739.428 179.552 738.804 180.68C738.204 181.808 737.904 183.092 737.904 184.532C737.904 185.972 738.204 187.256 738.804 188.384C739.428 189.512 740.268 190.388 741.324 191.012C742.404 191.612 743.616 191.912 744.96 191.912ZM778.107 185.324H762.267C762.411 187.292 763.167 188.888 764.535 190.112C765.903 191.312 767.631 191.912 769.719 191.912C770.895 191.912 771.975 191.708 772.959 191.3C773.943 190.868 774.795 190.244 775.515 189.428L776.955 191.084C776.115 192.092 775.059 192.86 773.787 193.388C772.539 193.916 771.159 194.18 769.647 194.18C767.703 194.18 765.975 193.772 764.463 192.956C762.975 192.116 761.811 190.964 760.971 189.5C760.131 188.036 759.711 186.38 759.711 184.532C759.711 182.684 760.107 181.028 760.899 179.564C761.715 178.1 762.819 176.96 764.211 176.144C765.627 175.328 767.211 174.92 768.963 174.92C770.715 174.92 772.287 175.328 773.679 176.144C775.071 176.96 776.163 178.1 776.955 179.564C777.747 181.004 778.143 182.66 778.143 184.532L778.107 185.324ZM768.963 177.116C767.139 177.116 765.603 177.704 764.355 178.88C763.131 180.032 762.435 181.544 762.267 183.416H775.695C775.527 181.544 774.819 180.032 773.571 178.88C772.347 177.704 770.811 177.116 768.963 177.116ZM802.739 168.8C805.955 168.8 808.475 169.568 810.299 171.104C812.123 172.64 813.035 174.752 813.035 177.44C813.035 180.128 812.123 182.24 810.299 183.776C808.475 185.288 805.955 186.044 802.739 186.044H795.971V194H793.307V168.8H802.739ZM802.667 183.704C805.163 183.704 807.071 183.164 808.391 182.084C809.711 180.98 810.371 179.432 810.371 177.44C810.371 175.4 809.711 173.84 808.391 172.76C807.071 171.656 805.163 171.104 802.667 171.104H795.971V183.704H802.667ZM820.211 178.772C820.811 177.5 821.699 176.54 822.875 175.892C824.075 175.244 825.551 174.92 827.303 174.92V177.404L826.691 177.368C824.699 177.368 823.139 177.98 822.011 179.204C820.883 180.428 820.319 182.144 820.319 184.352V194H817.763V175.064H820.211V178.772ZM839.495 194.18C837.671 194.18 836.027 193.772 834.563 192.956C833.099 192.116 831.947 190.964 831.107 189.5C830.267 188.036 829.847 186.38 829.847 184.532C829.847 182.684 830.267 181.028 831.107 179.564C831.947 178.1 833.099 176.96 834.563 176.144C836.027 175.328 837.671 174.92 839.495 174.92C841.319 174.92 842.963 175.328 844.427 176.144C845.891 176.96 847.031 178.1 847.847 179.564C848.687 181.028 849.107 182.684 849.107 184.532C849.107 186.38 848.687 188.036 847.847 189.5C847.031 190.964 845.891 192.116 844.427 192.956C842.963 193.772 841.319 194.18 839.495 194.18ZM839.495 191.912C840.839 191.912 842.039 191.612 843.095 191.012C844.175 190.388 845.015 189.512 845.615 188.384C846.215 187.256 846.515 185.972 846.515 184.532C846.515 183.092 846.215 181.808 845.615 180.68C845.015 179.552 844.175 178.688 843.095 178.088C842.039 177.464 840.839 177.152 839.495 177.152C838.151 177.152 836.939 177.464 835.859 178.088C834.803 178.688 833.963 179.552 833.339 180.68C832.739 181.808 832.439 183.092 832.439 184.532C832.439 185.972 832.739 187.256 833.339 188.384C833.963 189.512 834.803 190.388 835.859 191.012C836.939 191.612 838.151 191.912 839.495 191.912ZM851.518 201.164C850.726 201.164 849.982 201.056 849.286 200.84C848.566 200.648 847.978 200.348 847.522 199.94L848.422 197.996C849.166 198.644 850.15 198.968 851.374 198.968C852.382 198.968 853.15 198.668 853.678 198.068C854.23 197.468 854.506 196.58 854.506 195.404V175.064H857.062V195.404C857.062 197.18 856.582 198.584 855.622 199.616C854.662 200.648 853.294 201.164 851.518 201.164ZM855.802 170.888C855.274 170.888 854.83 170.708 854.47 170.348C854.11 169.988 853.93 169.556 853.93 169.052C853.93 168.572 854.11 168.152 854.47 167.792C854.83 167.432 855.274 167.252 855.802 167.252C856.33 167.252 856.774 167.432 857.134 167.792C857.494 168.128 857.674 168.536 857.674 169.016C857.674 169.544 857.494 169.988 857.134 170.348C856.774 170.708 856.33 170.888 855.802 170.888ZM880.693 185.324H864.853C864.997 187.292 865.753 188.888 867.121 190.112C868.489 191.312 870.217 191.912 872.305 191.912C873.481 191.912 874.561 191.708 875.545 191.3C876.529 190.868 877.381 190.244 878.101 189.428L879.541 191.084C878.701 192.092 877.645 192.86 876.373 193.388C875.125 193.916 873.745 194.18 872.233 194.18C870.289 194.18 868.561 193.772 867.049 192.956C865.561 192.116 864.397 190.964 863.557 189.5C862.717 188.036 862.297 186.38 862.297 184.532C862.297 182.684 862.693 181.028 863.485 179.564C864.301 178.1 865.405 176.96 866.797 176.144C868.213 175.328 869.797 174.92 871.549 174.92C873.301 174.92 874.873 175.328 876.265 176.144C877.657 176.96 878.749 178.1 879.541 179.564C880.333 181.004 880.729 182.66 880.729 184.532L880.693 185.324ZM871.549 177.116C869.725 177.116 868.189 177.704 866.941 178.88C865.717 180.032 865.021 181.544 864.853 183.416H878.281C878.113 181.544 877.405 180.032 876.157 178.88C874.933 177.704 873.397 177.116 871.549 177.116ZM895.903 192.848C895.423 193.28 894.823 193.616 894.103 193.856C893.407 194.072 892.675 194.18 891.907 194.18C890.131 194.18 888.763 193.7 887.803 192.74C886.843 191.78 886.363 190.424 886.363 188.672V177.224H882.979V175.064H886.363V170.924H888.919V175.064H894.679V177.224H888.919V188.528C888.919 189.656 889.195 190.52 889.747 191.12C890.323 191.696 891.139 191.984 892.195 191.984C892.723 191.984 893.227 191.9 893.707 191.732C894.211 191.564 894.643 191.324 895.003 191.012L895.903 192.848ZM647.92 244.984C646.576 242.776 645.544 240.244 644.824 237.388C644.104 234.508 643.744 231.424 643.744 228.136C643.744 224.848 644.104 221.764 644.824 218.884C645.544 215.98 646.576 213.448 647.92 211.288H650.368C648.952 213.712 647.908 216.316 647.236 219.1C646.588 221.884 646.264 224.896 646.264 228.136C646.264 231.376 646.588 234.388 647.236 237.172C647.908 239.956 648.952 242.56 650.368 244.984H647.92ZM671.9 229.324H656.06C656.204 231.292 656.96 232.888 658.328 234.112C659.696 235.312 661.424 235.912 663.512 235.912C664.688 235.912 665.768 235.708 666.752 235.3C667.736 234.868 668.588 234.244 669.308 233.428L670.748 235.084C669.908 236.092 668.852 236.86 667.58 237.388C666.332 237.916 664.952 238.18 663.44 238.18C661.496 238.18 659.768 237.772 658.256 236.956C656.768 236.116 655.604 234.964 654.764 233.5C653.924 232.036 653.504 230.38 653.504 228.532C653.504 226.684 653.9 225.028 654.692 223.564C655.508 222.1 656.612 220.96 658.004 220.144C659.42 219.328 661.004 218.92 662.756 218.92C664.508 218.92 666.08 219.328 667.472 220.144C668.864 220.96 669.956 222.1 670.748 223.564C671.54 225.004 671.936 226.66 671.936 228.532L671.9 229.324ZM662.756 221.116C660.932 221.116 659.396 221.704 658.148 222.88C656.924 224.032 656.228 225.544 656.06 227.416H669.488C669.32 225.544 668.612 224.032 667.364 222.88C666.14 221.704 664.604 221.116 662.756 221.116ZM686.786 218.92C689.162 218.92 691.046 219.616 692.438 221.008C693.854 222.376 694.562 224.38 694.562 227.02V238H692.006V227.272C692.006 225.304 691.514 223.804 690.53 222.772C689.546 221.74 688.142 221.224 686.318 221.224C684.278 221.224 682.658 221.836 681.458 223.06C680.282 224.26 679.694 225.928 679.694 228.064V238H677.138V219.064H679.586V222.556C680.282 221.404 681.242 220.516 682.466 219.892C683.714 219.244 685.154 218.92 686.786 218.92ZM737.635 212.8V238H735.079V217.84L725.179 234.796H723.919L714.019 217.948V238H711.463V212.8H713.659L724.603 231.484L735.439 212.8H737.635ZM762.37 219.064V238H759.922V234.544C759.25 235.696 758.326 236.596 757.15 237.244C755.974 237.868 754.63 238.18 753.118 238.18C750.646 238.18 748.69 237.496 747.25 236.128C745.834 234.736 745.126 232.708 745.126 230.044V219.064H747.682V229.792C747.682 231.784 748.174 233.296 749.158 234.328C750.142 235.36 751.546 235.876 753.37 235.876C755.362 235.876 756.934 235.276 758.086 234.076C759.238 232.852 759.814 231.16 759.814 229V219.064H762.37ZM769.529 211.288H772.085V238H769.529V211.288ZM789.239 236.848C788.759 237.28 788.159 237.616 787.439 237.856C786.743 238.072 786.011 238.18 785.243 238.18C783.467 238.18 782.099 237.7 781.139 236.74C780.179 235.78 779.699 234.424 779.699 232.672V221.224H776.315V219.064H779.699V214.924H782.255V219.064H788.015V221.224H782.255V232.528C782.255 233.656 782.531 234.52 783.083 235.12C783.659 235.696 784.475 235.984 785.531 235.984C786.059 235.984 786.563 235.9 787.043 235.732C787.547 235.564 787.979 235.324 788.339 235.012L789.239 236.848ZM793.892 219.064H796.448V238H793.892V219.064ZM795.188 214.924C794.66 214.924 794.216 214.744 793.856 214.384C793.496 214.024 793.316 213.592 793.316 213.088C793.316 212.608 793.496 212.188 793.856 211.828C794.216 211.468 794.66 211.288 795.188 211.288C795.716 211.288 796.16 211.468 796.52 211.828C796.88 212.164 797.06 212.572 797.06 213.052C797.06 213.58 796.88 214.024 796.52 214.384C796.16 214.744 795.716 214.924 795.188 214.924ZM827.176 218.92C829.552 218.92 831.412 219.604 832.756 220.972C834.124 222.34 834.808 224.356 834.808 227.02V238H832.252V227.272C832.252 225.304 831.772 223.804 830.812 222.772C829.876 221.74 828.544 221.224 826.816 221.224C824.848 221.224 823.3 221.836 822.172 223.06C821.044 224.26 820.48 225.928 820.48 228.064V238H817.924V227.272C817.924 225.304 817.444 223.804 816.484 222.772C815.548 221.74 814.204 221.224 812.452 221.224C810.508 221.224 808.96 221.836 807.808 223.06C806.68 224.26 806.116 225.928 806.116 228.064V238H803.56V219.064H806.008V222.52C806.68 221.368 807.616 220.48 808.816 219.856C810.016 219.232 811.396 218.92 812.956 218.92C814.54 218.92 815.908 219.256 817.06 219.928C818.236 220.6 819.112 221.596 819.688 222.916C820.384 221.668 821.38 220.696 822.676 220C823.996 219.28 825.496 218.92 827.176 218.92ZM858.298 229.324H842.458C842.602 231.292 843.358 232.888 844.726 234.112C846.094 235.312 847.822 235.912 849.91 235.912C851.086 235.912 852.166 235.708 853.15 235.3C854.134 234.868 854.986 234.244 855.706 233.428L857.146 235.084C856.306 236.092 855.25 236.86 853.978 237.388C852.73 237.916 851.35 238.18 849.838 238.18C847.894 238.18 846.166 237.772 844.654 236.956C843.166 236.116 842.002 234.964 841.162 233.5C840.322 232.036 839.902 230.38 839.902 228.532C839.902 226.684 840.298 225.028 841.09 223.564C841.906 222.1 843.01 220.96 844.402 220.144C845.818 219.328 847.402 218.92 849.154 218.92C850.906 218.92 852.478 219.328 853.87 220.144C855.262 220.96 856.354 222.1 857.146 223.564C857.938 225.004 858.334 226.66 858.334 228.532L858.298 229.324ZM849.154 221.116C847.33 221.116 845.794 221.704 844.546 222.88C843.322 224.032 842.626 225.544 842.458 227.416H855.886C855.718 225.544 855.01 224.032 853.762 222.88C852.538 221.704 851.002 221.116 849.154 221.116ZM851.746 211.648H855.166L849.334 216.112H846.814L851.746 211.648ZM880.817 211.288V238H878.369V234.256C877.601 235.528 876.581 236.5 875.309 237.172C874.061 237.844 872.645 238.18 871.061 238.18C869.285 238.18 867.677 237.772 866.237 236.956C864.797 236.14 863.669 235 862.853 233.536C862.037 232.072 861.629 230.404 861.629 228.532C861.629 226.66 862.037 224.992 862.853 223.528C863.669 222.064 864.797 220.936 866.237 220.144C867.677 219.328 869.285 218.92 871.061 218.92C872.597 218.92 873.977 219.244 875.201 219.892C876.449 220.516 877.469 221.44 878.261 222.664V211.288H880.817ZM871.277 235.912C872.597 235.912 873.785 235.612 874.841 235.012C875.921 234.388 876.761 233.512 877.361 232.384C877.985 231.256 878.297 229.972 878.297 228.532C878.297 227.092 877.985 225.808 877.361 224.68C876.761 223.552 875.921 222.688 874.841 222.088C873.785 221.464 872.597 221.152 871.277 221.152C869.933 221.152 868.721 221.464 867.641 222.088C866.585 222.688 865.745 223.552 865.121 224.68C864.521 225.808 864.221 227.092 864.221 228.532C864.221 229.972 864.521 231.256 865.121 232.384C865.745 233.512 866.585 234.388 867.641 235.012C868.721 235.612 869.933 235.912 871.277 235.912ZM887.935 219.064H890.491V238H887.935V219.064ZM889.231 214.924C888.703 214.924 888.259 214.744 887.899 214.384C887.539 214.024 887.359 213.592 887.359 213.088C887.359 212.608 887.539 212.188 887.899 211.828C888.259 211.468 888.703 211.288 889.231 211.288C889.759 211.288 890.203 211.468 890.563 211.828C890.923 212.164 891.103 212.572 891.103 213.052C891.103 213.58 890.923 214.024 890.563 214.384C890.203 214.744 889.759 214.924 889.231 214.924ZM904.227 218.92C906.699 218.92 908.595 219.544 909.915 220.792C911.235 222.016 911.895 223.84 911.895 226.264V238H909.447V235.048C908.871 236.032 908.019 236.8 906.891 237.352C905.787 237.904 904.467 238.18 902.931 238.18C900.819 238.18 899.139 237.676 897.891 236.668C896.643 235.66 896.019 234.328 896.019 232.672C896.019 231.064 896.595 229.768 897.747 228.784C898.923 227.8 900.783 227.308 903.327 227.308H909.339V226.156C909.339 224.524 908.883 223.288 907.971 222.448C907.059 221.584 905.727 221.152 903.975 221.152C902.775 221.152 901.623 221.356 900.519 221.764C899.415 222.148 898.467 222.688 897.675 223.384L896.523 221.476C897.483 220.66 898.635 220.036 899.979 219.604C901.323 219.148 902.739 218.92 904.227 218.92ZM903.327 236.164C904.767 236.164 906.003 235.84 907.035 235.192C908.067 234.52 908.835 233.56 909.339 232.312V229.216H903.399C900.159 229.216 898.539 230.344 898.539 232.6C898.539 233.704 898.959 234.58 899.799 235.228C900.639 235.852 901.815 236.164 903.327 236.164ZM916.713 244.984C918.129 242.56 919.173 239.968 919.845 237.208C920.517 234.424 920.853 231.4 920.853 228.136C920.853 224.872 920.517 221.86 919.845 219.1C919.173 216.316 918.129 213.712 916.713 211.288H919.161C920.505 213.448 921.537 215.98 922.257 218.884C923.001 221.764 923.373 224.848 923.373 228.136C923.373 231.424 923.013 234.508 922.293 237.388C921.573 240.268 920.529 242.8 919.161 244.984H916.713Z" fill="#EFEFEF"/>
<path d="M1323.7 487.8L1315.2 513H1312.4L1305.02 491.508L1297.6 513H1294.83L1286.33 487.8H1289.07L1296.34 509.472L1303.86 487.8H1306.35L1313.76 509.58L1321.14 487.8H1323.7ZM1343.09 504.324H1327.25C1327.4 506.292 1328.15 507.888 1329.52 509.112C1330.89 510.312 1332.62 510.912 1334.7 510.912C1335.88 510.912 1336.96 510.708 1337.94 510.3C1338.93 509.868 1339.78 509.244 1340.5 508.428L1341.94 510.084C1341.1 511.092 1340.04 511.86 1338.77 512.388C1337.52 512.916 1336.14 513.18 1334.63 513.18C1332.69 513.18 1330.96 512.772 1329.45 511.956C1327.96 511.116 1326.8 509.964 1325.96 508.5C1325.12 507.036 1324.7 505.38 1324.7 503.532C1324.7 501.684 1325.09 500.028 1325.88 498.564C1326.7 497.1 1327.8 495.96 1329.2 495.144C1330.61 494.328 1332.2 493.92 1333.95 493.92C1335.7 493.92 1337.27 494.328 1338.66 495.144C1340.06 495.96 1341.15 497.1 1341.94 498.564C1342.73 500.004 1343.13 501.66 1343.13 503.532L1343.09 504.324ZM1333.95 496.116C1332.12 496.116 1330.59 496.704 1329.34 497.88C1328.12 499.032 1327.42 500.544 1327.25 502.416H1340.68C1340.51 500.544 1339.8 499.032 1338.56 497.88C1337.33 496.704 1335.8 496.116 1333.95 496.116ZM1358.09 493.92C1359.86 493.92 1361.47 494.328 1362.91 495.144C1364.35 495.936 1365.48 497.064 1366.29 498.528C1367.11 499.992 1367.52 501.66 1367.52 503.532C1367.52 505.404 1367.11 507.072 1366.29 508.536C1365.48 510 1364.35 511.14 1362.91 511.956C1361.47 512.772 1359.86 513.18 1358.09 513.18C1356.5 513.18 1355.07 512.844 1353.8 512.172C1352.55 511.5 1351.55 510.528 1350.78 509.256V513H1348.33V486.288H1350.89V497.664C1351.68 496.44 1352.69 495.516 1353.91 494.892C1355.16 494.244 1356.55 493.92 1358.09 493.92ZM1357.91 510.912C1359.23 510.912 1360.43 510.612 1361.51 510.012C1362.59 509.388 1363.43 508.512 1364.03 507.384C1364.65 506.256 1364.96 504.972 1364.96 503.532C1364.96 502.092 1364.65 500.808 1364.03 499.68C1363.43 498.552 1362.59 497.688 1361.51 497.088C1360.43 496.464 1359.23 496.152 1357.91 496.152C1356.56 496.152 1355.35 496.464 1354.27 497.088C1353.21 497.688 1352.37 498.552 1351.75 499.68C1351.15 500.808 1350.85 502.092 1350.85 503.532C1350.85 504.972 1351.15 506.256 1351.75 507.384C1352.37 508.512 1353.21 509.388 1354.27 510.012C1355.35 510.612 1356.56 510.912 1357.91 510.912ZM1399.44 487.8V513H1396.88V492.84L1386.98 509.796H1385.72L1375.82 492.948V513H1373.27V487.8H1375.46L1386.41 506.484L1397.24 487.8H1399.44ZM1413.73 493.92C1416.21 493.92 1418.1 494.544 1419.42 495.792C1420.74 497.016 1421.4 498.84 1421.4 501.264V513H1418.95V510.048C1418.38 511.032 1417.53 511.8 1416.4 512.352C1415.29 512.904 1413.97 513.18 1412.44 513.18C1410.33 513.18 1408.65 512.676 1407.4 511.668C1406.15 510.66 1405.53 509.328 1405.53 507.672C1405.53 506.064 1406.1 504.768 1407.25 503.784C1408.43 502.8 1410.29 502.308 1412.83 502.308H1418.85V501.156C1418.85 499.524 1418.39 498.288 1417.48 497.448C1416.57 496.584 1415.23 496.152 1413.48 496.152C1412.28 496.152 1411.13 496.356 1410.03 496.764C1408.92 497.148 1407.97 497.688 1407.18 498.384L1406.03 496.476C1406.99 495.66 1408.14 495.036 1409.49 494.604C1410.83 494.148 1412.25 493.92 1413.73 493.92ZM1412.83 511.164C1414.27 511.164 1415.51 510.84 1416.54 510.192C1417.57 509.52 1418.34 508.56 1418.85 507.312V504.216H1412.91C1409.67 504.216 1408.05 505.344 1408.05 507.6C1408.05 508.704 1408.47 509.58 1409.31 510.228C1410.15 510.852 1411.32 511.164 1412.83 511.164ZM1433.42 513.18C1431.89 513.18 1430.41 512.964 1428.99 512.532C1427.6 512.076 1426.51 511.512 1425.72 510.84L1426.87 508.824C1427.66 509.448 1428.66 509.964 1429.86 510.372C1431.06 510.756 1432.31 510.948 1433.6 510.948C1435.33 510.948 1436.6 510.684 1437.42 510.156C1438.26 509.604 1438.68 508.836 1438.68 507.852C1438.68 507.156 1438.45 506.616 1437.99 506.232C1437.54 505.824 1436.96 505.524 1436.27 505.332C1435.57 505.116 1434.65 504.912 1433.49 504.72C1431.96 504.432 1430.72 504.144 1429.79 503.856C1428.85 503.544 1428.05 503.028 1427.37 502.308C1426.73 501.588 1426.4 500.592 1426.4 499.32C1426.4 497.736 1427.06 496.44 1428.38 495.432C1429.7 494.424 1431.54 493.92 1433.89 493.92C1435.11 493.92 1436.34 494.088 1437.56 494.424C1438.79 494.736 1439.79 495.156 1440.59 495.684L1439.47 497.736C1437.91 496.656 1436.05 496.116 1433.89 496.116C1432.26 496.116 1431.02 496.404 1430.18 496.98C1429.37 497.556 1428.96 498.312 1428.96 499.248C1428.96 499.968 1429.19 500.544 1429.64 500.976C1430.12 501.408 1430.71 501.732 1431.41 501.948C1432.1 502.14 1433.06 502.344 1434.29 502.56C1435.8 502.848 1437.01 503.136 1437.92 503.424C1438.83 503.712 1439.61 504.204 1440.26 504.9C1440.91 505.596 1441.23 506.556 1441.23 507.78C1441.23 509.436 1440.54 510.756 1439.15 511.74C1437.78 512.7 1435.87 513.18 1433.42 513.18ZM1455.93 511.848C1455.45 512.28 1454.85 512.616 1454.13 512.856C1453.43 513.072 1452.7 513.18 1451.93 513.18C1450.16 513.18 1448.79 512.7 1447.83 511.74C1446.87 510.78 1446.39 509.424 1446.39 507.672V496.224H1443.01V494.064H1446.39V489.924H1448.95V494.064H1454.71V496.224H1448.95V507.528C1448.95 508.656 1449.22 509.52 1449.77 510.12C1450.35 510.696 1451.17 510.984 1452.22 510.984C1452.75 510.984 1453.25 510.9 1453.73 510.732C1454.24 510.564 1454.67 510.324 1455.03 510.012L1455.93 511.848ZM1476.4 504.324H1460.56C1460.71 506.292 1461.46 507.888 1462.83 509.112C1464.2 510.312 1465.93 510.912 1468.02 510.912C1469.19 510.912 1470.27 510.708 1471.26 510.3C1472.24 509.868 1473.09 509.244 1473.81 508.428L1475.25 510.084C1474.41 511.092 1473.36 511.86 1472.08 512.388C1470.84 512.916 1469.46 513.18 1467.94 513.18C1466 513.18 1464.27 512.772 1462.76 511.956C1461.27 511.116 1460.11 509.964 1459.27 508.5C1458.43 507.036 1458.01 505.38 1458.01 503.532C1458.01 501.684 1458.4 500.028 1459.2 498.564C1460.01 497.1 1461.12 495.96 1462.51 495.144C1463.92 494.328 1465.51 493.92 1467.26 493.92C1469.01 493.92 1470.58 494.328 1471.98 495.144C1473.37 495.96 1474.46 497.1 1475.25 498.564C1476.04 500.004 1476.44 501.66 1476.44 503.532L1476.4 504.324ZM1467.26 496.116C1465.44 496.116 1463.9 496.704 1462.65 497.88C1461.43 499.032 1460.73 500.544 1460.56 502.416H1473.99C1473.82 500.544 1473.12 499.032 1471.87 497.88C1470.64 496.704 1469.11 496.116 1467.26 496.116ZM1484.09 497.772C1484.69 496.5 1485.58 495.54 1486.75 494.892C1487.95 494.244 1489.43 493.92 1491.18 493.92V496.404L1490.57 496.368C1488.58 496.368 1487.02 496.98 1485.89 498.204C1484.76 499.428 1484.2 501.144 1484.2 503.352V513H1481.64V494.064H1484.09V497.772Z" fill="#EFEFEF"/>
<path d="M1285 516.6H1492.51V518.4H1285V516.6Z" fill="#EFEFEF"/>
<path d="M348.7 333.8L340.204 359H337.396L330.016 337.508L322.6 359H319.828L311.332 333.8H314.068L321.34 355.472L328.864 333.8H331.348L338.764 355.58L346.144 333.8H348.7ZM368.091 350.324H352.251C352.395 352.292 353.151 353.888 354.519 355.112C355.887 356.312 357.615 356.912 359.703 356.912C360.879 356.912 361.959 356.708 362.943 356.3C363.927 355.868 364.779 355.244 365.499 354.428L366.939 356.084C366.099 357.092 365.043 357.86 363.771 358.388C362.523 358.916 361.143 359.18 359.631 359.18C357.687 359.18 355.959 358.772 354.447 357.956C352.959 357.116 351.795 355.964 350.955 354.5C350.115 353.036 349.695 351.38 349.695 349.532C349.695 347.684 350.091 346.028 350.883 344.564C351.699 343.1 352.803 341.96 354.195 341.144C355.611 340.328 357.195 339.92 358.947 339.92C360.699 339.92 362.271 340.328 363.663 341.144C365.055 341.96 366.147 343.1 366.939 344.564C367.731 346.004 368.127 347.66 368.127 349.532L368.091 350.324ZM358.947 342.116C357.123 342.116 355.587 342.704 354.339 343.88C353.115 345.032 352.419 346.544 352.251 348.416H365.679C365.511 346.544 364.803 345.032 363.555 343.88C362.331 342.704 360.795 342.116 358.947 342.116ZM383.086 339.92C384.862 339.92 386.47 340.328 387.91 341.144C389.35 341.936 390.478 343.064 391.294 344.528C392.11 345.992 392.518 347.66 392.518 349.532C392.518 351.404 392.11 353.072 391.294 354.536C390.478 356 389.35 357.14 387.91 357.956C386.47 358.772 384.862 359.18 383.086 359.18C381.502 359.18 380.074 358.844 378.802 358.172C377.554 357.5 376.546 356.528 375.778 355.256V359H373.33V332.288H375.886V343.664C376.678 342.44 377.686 341.516 378.91 340.892C380.158 340.244 381.55 339.92 383.086 339.92ZM382.906 356.912C384.226 356.912 385.426 356.612 386.506 356.012C387.586 355.388 388.426 354.512 389.026 353.384C389.65 352.256 389.962 350.972 389.962 349.532C389.962 348.092 389.65 346.808 389.026 345.68C388.426 344.552 387.586 343.688 386.506 343.088C385.426 342.464 384.226 342.152 382.906 342.152C381.562 342.152 380.35 342.464 379.27 343.088C378.214 343.688 377.374 344.552 376.75 345.68C376.15 346.808 375.85 348.092 375.85 349.532C375.85 350.972 376.15 352.256 376.75 353.384C377.374 354.512 378.214 355.388 379.27 356.012C380.35 356.612 381.562 356.912 382.906 356.912ZM424.44 333.8V359H421.884V338.84L411.984 355.796H410.724L400.824 338.948V359H398.268V333.8H400.464L411.408 352.484L422.244 333.8H424.44ZM438.735 339.92C441.207 339.92 443.103 340.544 444.423 341.792C445.743 343.016 446.403 344.84 446.403 347.264V359H443.955V356.048C443.379 357.032 442.527 357.8 441.399 358.352C440.295 358.904 438.975 359.18 437.439 359.18C435.327 359.18 433.647 358.676 432.399 357.668C431.151 356.66 430.527 355.328 430.527 353.672C430.527 352.064 431.103 350.768 432.255 349.784C433.431 348.8 435.291 348.308 437.835 348.308H443.847V347.156C443.847 345.524 443.391 344.288 442.479 343.448C441.567 342.584 440.235 342.152 438.483 342.152C437.283 342.152 436.131 342.356 435.027 342.764C433.923 343.148 432.975 343.688 432.183 344.384L431.031 342.476C431.991 341.66 433.143 341.036 434.487 340.604C435.831 340.148 437.247 339.92 438.735 339.92ZM437.835 357.164C439.275 357.164 440.511 356.84 441.543 356.192C442.575 355.52 443.343 354.56 443.847 353.312V350.216H437.907C434.667 350.216 433.047 351.344 433.047 353.6C433.047 354.704 433.467 355.58 434.307 356.228C435.147 356.852 436.323 357.164 437.835 357.164ZM455.793 343.772C456.393 342.5 457.281 341.54 458.457 340.892C459.657 340.244 461.133 339.92 462.885 339.92V342.404L462.273 342.368C460.281 342.368 458.721 342.98 457.593 344.204C456.465 345.428 455.901 347.144 455.901 349.352V359H453.345V340.064H455.793V343.772ZM474.533 349.496L470.069 353.6V359H467.513V332.288H470.069V350.396L481.373 340.064H484.541L476.441 347.804L485.297 359H482.165L474.533 349.496ZM504.849 350.324H489.009C489.153 352.292 489.909 353.888 491.277 355.112C492.645 356.312 494.373 356.912 496.461 356.912C497.637 356.912 498.717 356.708 499.701 356.3C500.685 355.868 501.537 355.244 502.257 354.428L503.697 356.084C502.857 357.092 501.801 357.86 500.529 358.388C499.281 358.916 497.901 359.18 496.389 359.18C494.445 359.18 492.717 358.772 491.205 357.956C489.717 357.116 488.553 355.964 487.713 354.5C486.873 353.036 486.453 351.38 486.453 349.532C486.453 347.684 486.849 346.028 487.641 344.564C488.457 343.1 489.561 341.96 490.953 341.144C492.369 340.328 493.953 339.92 495.705 339.92C497.457 339.92 499.029 340.328 500.421 341.144C501.813 341.96 502.905 343.1 503.697 344.564C504.489 346.004 504.885 347.66 504.885 349.532L504.849 350.324ZM495.705 342.116C493.881 342.116 492.345 342.704 491.097 343.88C489.873 345.032 489.177 346.544 489.009 348.416H502.437C502.269 346.544 501.561 345.032 500.313 343.88C499.089 342.704 497.553 342.116 495.705 342.116ZM520.059 357.848C519.579 358.28 518.979 358.616 518.259 358.856C517.563 359.072 516.831 359.18 516.063 359.18C514.287 359.18 512.919 358.7 511.959 357.74C510.999 356.78 510.519 355.424 510.519 353.672V342.224H507.135V340.064H510.519V335.924H513.075V340.064H518.835V342.224H513.075V353.528C513.075 354.656 513.351 355.52 513.903 356.12C514.479 356.696 515.295 356.984 516.351 356.984C516.879 356.984 517.383 356.9 517.863 356.732C518.367 356.564 518.799 356.324 519.159 356.012L520.059 357.848ZM540.532 350.324H524.692C524.836 352.292 525.592 353.888 526.96 355.112C528.328 356.312 530.056 356.912 532.144 356.912C533.32 356.912 534.4 356.708 535.384 356.3C536.368 355.868 537.22 355.244 537.94 354.428L539.38 356.084C538.54 357.092 537.484 357.86 536.212 358.388C534.964 358.916 533.584 359.18 532.072 359.18C530.128 359.18 528.4 358.772 526.888 357.956C525.4 357.116 524.236 355.964 523.396 354.5C522.556 353.036 522.136 351.38 522.136 349.532C522.136 347.684 522.532 346.028 523.324 344.564C524.14 343.1 525.244 341.96 526.636 341.144C528.052 340.328 529.636 339.92 531.388 339.92C533.14 339.92 534.712 340.328 536.104 341.144C537.496 341.96 538.588 343.1 539.38 344.564C540.172 346.004 540.568 347.66 540.568 349.532L540.532 350.324ZM531.388 342.116C529.564 342.116 528.028 342.704 526.78 343.88C525.556 345.032 524.86 346.544 524.692 348.416H538.12C537.952 346.544 537.244 345.032 535.996 343.88C534.772 342.704 533.236 342.116 531.388 342.116ZM548.219 343.772C548.819 342.5 549.707 341.54 550.883 340.892C552.083 340.244 553.559 339.92 555.311 339.92V342.404L554.699 342.368C552.707 342.368 551.147 342.98 550.019 344.204C548.891 345.428 548.327 347.144 548.327 349.352V359H545.771V340.064H548.219V343.772Z" fill="#EFEFEF"/>
</g>
<defs>
<linearGradient id="paint0_linear" x1="1352.14" y1="97.9998" x2="1352.14" y2="206.75" gradientUnits="userSpaceOnUse">
<stop stop-color="#B29FD8"/>
<stop offset="1" stop-color="#7B62A2"/>
</linearGradient>
<linearGradient id="paint1_linear" x1="1383.25" y1="98.4998" x2="1383.25" y2="206.75" gradientUnits="userSpaceOnUse">
<stop stop-color="#BCA8E0"/>
<stop offset="1" stop-color="#8668B2"/>
</linearGradient>
<linearGradient id="paint2_linear" x1="397.143" y1="211" x2="397.143" y2="319.75" gradientUnits="userSpaceOnUse">
<stop stop-color="#99ADD2"/>
<stop offset="1" stop-color="#506A92"/>
</linearGradient>
<linearGradient id="paint3_linear" x1="428.25" y1="211.5" x2="428.25" y2="319.75" gradientUnits="userSpaceOnUse">
<stop stop-color="#ABB7E1"/>
<stop offset="1" stop-color="#7B88BF"/>
</linearGradient>
<linearGradient id="paint4_linear" x1="760.143" y1="35.9998" x2="760.143" y2="144.75" gradientUnits="userSpaceOnUse">
<stop stop-color="#91CC97"/>
<stop offset="1" stop-color="#569863"/>
</linearGradient>
<linearGradient id="paint5_linear" x1="791.25" y1="36.4998" x2="791.25" y2="144.75" gradientUnits="userSpaceOnUse">
<stop stop-color="#ACE2B1"/>
<stop offset="1" stop-color="#7EC187"/>
</linearGradient>
<linearGradient id="paint6_linear" x1="1368.14" y1="359" x2="1368.14" y2="467.75" gradientUnits="userSpaceOnUse">
<stop stop-color="#D39E99"/>
<stop offset="1" stop-color="#915F4F"/>
</linearGradient>
<linearGradient id="paint7_linear" x1="1399.25" y1="359.5" x2="1399.25" y2="467.75" gradientUnits="userSpaceOnUse">
<stop stop-color="#BF9F7B"/>
<stop offset="1" stop-color="#DFB6A8"/>
</linearGradient>
<linearGradient id="paint8_linear" x1="773.143" y1="359" x2="773.143" y2="467.75" gradientUnits="userSpaceOnUse">
<stop stop-color="#D1CC98"/>
<stop offset="1" stop-color="#939051"/>
</linearGradient>
<linearGradient id="paint9_linear" x1="804.25" y1="359.5" x2="804.25" y2="467.75" gradientUnits="userSpaceOnUse">
<stop stop-color="#DEE2AC"/>
<stop offset="1" stop-color="#BABE79"/>
</linearGradient>
<clipPath id="clip0">
<rect width="1822" height="805" fill="white"/>
</clipPath>
</defs>
</svg>
