<svg width="1772" height="800" viewBox="0 0 1772 800" fill="none" xmlns="http://www.w3.org/2000/svg">
<g clip-path="url(#clip0)">
<path d="M1732.17 493.716C1729.62 493.531 1727.67 493.84 1726.52 494.025C1725.4 494.204 1724.91 494.27 1724.04 494.134C1723.46 494.042 1722.78 493.864 1722.02 493.613C1720.48 493.094 1719.34 492.718 1718.48 492.429C1716.97 491.072 1714.68 489.317 1710.21 486.53C1710.38 486.419 1710.54 486.303 1710.69 486.185C1712.19 486.187 1713.75 486.091 1715.39 485.901C1717.93 487.561 1721.45 489.367 1726.47 491.301C1728.26 491.99 1729.69 492.538 1730.81 492.974C1731.27 493.242 1731.73 493.488 1732.17 493.716ZM261.141 797.802C284.745 801.531 294.813 798.385 303.695 795.611C306.894 794.609 309.923 793.664 313.785 792.965C328.663 790.283 332.261 787.45 338.363 781.8C339.971 780.318 341.876 778.548 344.53 776.388C351.228 770.936 352.319 768.487 353.542 764.94C354.367 762.542 355.398 759.559 360.88 752.612C369.355 741.858 412.28 735.411 426.644 734.001L428.222 733.847L444.032 729.005L474.408 729.097L494.69 734.262C502.043 736.136 509.309 737.646 516.254 738.744C528.412 740.664 535.747 740.709 536.548 740.708L537.252 740.708L591.9 736.607L619.406 727.724L626.321 716.095L626.435 715.375C626.441 715.376 628.484 707.318 646.854 697.14C657.224 691.392 659.95 691.823 661.578 692.08C664.439 692.532 668.981 694.015 674.738 695.888C679.595 697.475 685.649 699.448 693.075 701.582C695.518 702.287 697.741 702.927 699.666 703.479C701.566 706.586 706.156 709.517 711.056 712.276C718.396 716.403 720.237 717.943 721.584 719.063C725.906 722.66 728.591 724.078 749.77 732.295C760.977 736.645 771.27 739.58 780.372 741.018C796.12 743.506 804.414 740.952 807.337 739.681L823.755 733.653C834.721 729.624 839.022 724.435 840.056 719.871L855.066 719.557C859.585 724.159 868.718 734.472 884.235 756.037C896.234 772.723 901.848 779.2 913.289 781.007C918.548 781.838 922.613 781.037 925.578 780.454C928.773 779.824 931.297 779.327 936.556 780.157C939.101 780.559 942.015 781.248 945.22 782.194C950.938 783.897 957.152 785.278 963.692 786.311C1001.39 792.267 1041.29 785.289 1046.69 784.279L1096.65 777.98C1127.8 774.051 1128.39 773.977 1128 768.871L1128 768.868C1129.5 768.336 1131.56 767.651 1134.38 766.795C1173.26 755.035 1178.87 736.113 1179.09 735.314L1186.13 715.946L1188.97 697.953L1196.46 684.283C1202.08 680.292 1210.19 675.859 1214.32 675.111C1218.42 676.692 1225.97 679.484 1241.58 683.75C1240.61 684.828 1239.94 686.116 1239.7 687.659C1238.8 693.335 1238.59 694.682 1241.3 697.454L1241.29 697.453C1241.26 697.447 1242.1 698.893 1243.35 704.079C1246.74 718.216 1261.03 721.944 1267.01 722.889C1269.69 723.313 1272.15 723.443 1274.21 723.425L1304.14 734.029L1351.55 721.523L1370.95 699.287L1370.69 686.733C1370.65 684.762 1370.75 683.314 1370.9 682.27L1405.68 684.209L1417.65 686.1L1419.09 686.126C1424.18 686.219 1469.46 686.886 1489.53 681.707C1510.87 676.205 1501.77 664.701 1495.13 656.303C1491.95 652.278 1488.33 647.715 1485.68 642.427C1485.04 641.159 1484.53 640.081 1484.13 639.168C1485.57 639.452 1487.11 639.735 1488.73 639.991L1518.01 644.618L1544.07 642.98L1578.27 644.721L1585.44 641.122L1598.08 643.119L1606.93 633.229L1601.65 621L1603.68 620.589L1634.2 627.173L1650.64 620.012L1671.34 604.909L1663.69 590.67L1653.41 575.556L1651.63 560.653C1651.01 555.468 1649.84 545.823 1636.28 543.681C1634.45 543.392 1632.69 543.308 1631.02 543.426L1621.48 537.021L1587.62 523.832L1559.21 512.589L1551.34 506.295L1541.08 491.298L1542.22 484.111L1555.21 474.531L1613.84 483.065L1618.91 484.457L1645.78 494.245L1698.52 516.518L1736.61 518.959L1743.07 507.164C1745.07 503.509 1746.39 501.093 1742.95 497.855L1742.21 497.169C1742.52 497.224 1742.83 497.276 1743.14 497.326C1756.94 499.506 1767.25 493.234 1769.18 491.958L1771.38 490.493L1771.46 488.387C1771.48 487.857 1771.91 475.27 1768.8 465.143C1767.97 462.422 1764.17 455.809 1747.03 453.101C1735.19 451.232 1720 451.768 1712.01 452.252C1691.58 443.223 1661.11 427.994 1654.33 419.859C1652.72 417.929 1651.96 416.742 1651.61 416.065C1651.67 416.043 1651.72 416.019 1651.78 415.994C1654.89 414.619 1660.1 412.323 1662.18 406.698C1663.15 404.049 1665.09 402.408 1667.77 400.131C1672.59 396.041 1678.58 390.949 1680.46 379.071C1681.24 374.141 1683.61 359.132 1664.71 356.146C1664.31 356.082 1663.91 356.03 1663.53 355.986L1625.1 337.909C1615.59 333.436 1608.07 330.863 1601.42 329.813C1594.04 328.646 1587.71 329.43 1583.59 332.016C1578.84 335.005 1578.3 339.829 1579.28 344.416C1566.64 342.36 1548.4 339.013 1529.03 334.18C1503.97 327.931 1506.18 316.84 1506.51 315.597L1506.59 315.213L1507.66 308.442C1511.61 305.776 1520.94 299.26 1533.14 289.333C1540.66 283.211 1543.01 277.019 1540.14 270.92C1538.04 266.511 1533.66 263.284 1530.25 261.314L1523.16 249.127L1522.18 248.248C1521.73 247.837 1510.66 237.96 1484.55 222.464C1472.21 215.141 1466.87 213.217 1462.25 212.487C1457.25 211.697 1452.67 212.428 1450.01 214.445C1449.16 215.096 1448.55 215.827 1448.2 216.633C1431.23 217.112 1396.43 218.507 1355.78 222.445C1315.07 226.388 1306.6 228.642 1308.06 235.154C1308.07 235.237 1308.1 235.322 1308.12 235.41L1286.59 250.662L1269.46 262.171C1258.18 262.262 1225.93 262.052 1196.54 257.406C1194.32 257.055 1192.1 256.678 1189.92 256.272C1187.1 255.749 1184.89 255.27 1183.18 254.851C1183.78 254.658 1184.38 254.491 1184.9 254.368L1187.04 253.864L1203.58 242.147L1237.62 241.948L1240.31 239.761C1241.37 238.901 1246.63 233.987 1246.37 221.608C1246.37 221.551 1246.37 221.493 1246.36 221.432C1249.43 222.629 1252.46 223.459 1255.48 223.937C1263.96 225.277 1270.56 223.462 1274.12 220.805L1316.18 207.771L1310.43 201.901C1309.27 200.717 1298.05 189.748 1262.71 170.661C1254.29 166.115 1248.36 162.966 1245.04 161.276C1244.66 161.022 1244.22 160.726 1243.67 160.368C1238.45 156.296 1216.36 125.956 1198.16 99.0826L1196.42 96.5072L1164.61 84.5629L1124.77 74.7157L1083.35 70.9822L1041.08 81.7024C1034.86 82.6763 1028 83.5065 1024.84 83.6886C1019.47 82.041 1004.31 76.6147 991.28 71.7797L975.15 62.0698L933.508 53.4964L882.123 63.0182L859.569 75.3592L838.181 88.1363L830.67 101.141L834.46 121.106L852.179 139.555L886.293 149.272L897.657 156.902C899.036 161.707 902.379 173.482 904.443 182.037C900.462 181.768 895.17 181.603 889.829 182.811C889.742 182.831 889.505 182.884 888.747 182.764C886.678 182.437 875.19 179.786 851.582 159.534C844.108 153.129 835.844 149.175 827.006 147.778C806.34 144.513 794.161 156.6 790.199 161.437L766.732 169.383L750.735 172.818L742.273 171.481L708.986 158.057L700.962 133.062L691.58 115.478C686.264 105.515 685 103.147 676.779 101.848C675.604 101.662 674.067 101.557 672.463 101.646C671.507 99.1954 672.802 96.9827 672.89 96.8455L673.135 96.4376L673.317 95.9326C673.375 95.7571 679.12 78.0343 687.021 64.164C697.789 45.2605 633.286 24.9772 613.261 19.2148L605.432 16.9607L587.401 28.1227L581.858 34.7675L581.262 34.6532C580.171 31.9189 578.719 27.9159 577.219 22.7736C575.36 16.4299 568.155 11.6789 557.942 10.0654C546.155 8.20309 533.53 11.2984 531.122 11.9354L529.558 12.3463L517.782 19.4065L522.984 28.5682L526.972 36.793C525.56 37.4628 522.326 37.5764 518.081 37.0736C518.541 36.5991 519.058 36.1502 519.469 35.8694L523.561 33.0711L509.057 14.5934L482.445 2.79444L469.729 0.78548L467.501 0.940311C466.606 1.00038 445.561 2.57083 435.161 13.3905C429.692 19.0735 431.522 23.8078 434.021 26.7779C439.009 32.7196 449.168 35.0934 451.783 35.6174C452.612 35.8592 457.924 37.541 468.29 43.6341C470.273 44.8036 471.126 45.5025 471.462 45.8174C471.219 46.3295 470.466 47.2817 469.895 48.0006C468.532 49.7227 466.8 51.9199 465.706 54.8393C464.426 54.2108 463.098 53.5107 461.926 52.8455C459.827 50.3081 455.045 44.4391 452.804 40.9727C447.982 33.5262 437.358 31.8477 433.862 31.2953C431.141 30.8655 428.098 30.5324 424.581 30.1513C421.537 29.8215 417.943 29.4317 413.67 28.8775C392.293 26.1078 384.591 32.5796 377.152 38.8377C374.77 40.8417 372.074 43.1119 368.645 45.4541C356.558 53.7176 356.439 58.4764 357.265 65.5636C357.523 67.8539 357.824 70.4496 357.544 73.8602L357.432 75.2561C356.414 87.4573 356.109 91.136 361.223 100.515C363.211 104.17 363.281 106.317 363.359 108.8C363.435 111.213 363.521 113.946 365.342 117.557C367.06 120.975 366.955 122.026 366.48 127.091C366.328 128.739 366.138 130.703 365.984 133.16C365.937 133.918 365.881 134.5 365.822 134.948C363.373 135.205 360.103 135.619 355.981 136.589C355.555 135.625 355.121 134.18 354.778 133.035C353.883 130.05 352.777 126.333 350.145 121.948C349.669 121.151 349.311 120.48 349.045 119.918L349.629 119.883L353.644 94.4665C354.053 91.8787 352.92 88.1475 351.615 83.8285C351.015 81.867 350.404 79.8667 350.008 78.102C348.717 72.3952 342.356 69.4294 336.827 68.5558C331.667 67.7407 327.44 68.6879 324.582 69.7774L315.515 70.0236L315.107 70.0499C311.879 70.2818 302.51 70.9102 297.974 71.0329C281.238 71.4843 284.553 80.1163 288.395 90.1106L290.646 96.0263C291.501 98.2766 292.129 99.9067 292.187 100.302C292.181 100.415 292.156 100.576 292.134 100.791C291.978 102.196 291.68 104.808 292.253 112.121C293.419 127.044 275.425 148.036 275.236 148.244L274.166 149.489L274.854 172.767L275.153 173.509C275.33 173.95 279.631 184.581 291.638 208.459C292.7 210.581 293.455 212.322 293.988 213.753L285.648 209.437L284.766 221.421L281.366 242.939C281.14 244.371 279.257 245.349 271.311 248.908C263.553 252.38 251.835 257.629 235.948 267.381C226.284 273.311 220.906 274.301 219.147 274.456C218.469 273.825 217.662 272.647 217.356 271.766L215.584 266.702L206.81 265.245L177.864 260.672C157.662 257.48 151.132 258.594 144.595 266.348C141.922 269.508 137.891 274.283 125.363 281.036C110.991 288.784 105.802 292.198 108.311 297.362C110.454 301.79 117.317 303.674 119.897 304.383C120.197 304.468 120.523 304.539 120.857 304.639C120.958 304.947 121.079 305.483 121.052 306.302C120.772 316.078 123.703 320.933 126.545 325.625C128.56 328.962 130.647 332.408 131.99 338.734C133.265 344.696 133.265 344.696 123.159 348.012C116.032 350.347 105.266 353.877 91.4931 361.075C77.5493 368.364 72.0312 372.26 73.9399 377.524C75.6229 382.157 82.3487 384.57 85.9618 385.869C90.3616 387.451 92.7897 388.321 93.9201 392.488C98.5302 409.473 110.337 412.359 136.609 417.272C147.232 419.259 161.781 421.981 181.512 426.777C236.142 440.058 264.891 490.177 267.781 495.442L269.584 502.099L252.875 521.36C249.304 522.465 243.034 524.069 236.814 524.631L238.003 523.664L211.087 502.547L206.633 501.192L204.645 500.854C195.631 499.43 178.077 501.092 152.477 505.8C139.599 508.171 125.107 511.915 127.379 519.915C128.607 524.262 134.139 527.295 139.588 529.284L137.635 552.169C137.635 552.169 159.308 612.841 160.225 615.42C159.329 615.221 158.411 615.046 157.471 614.897C150.637 613.818 140.426 613.873 130.592 620.27C115.262 630.23 107.012 633.463 103.628 634.489L98.7433 633.002L64.0632 661.219L63.8777 661.401C63.3667 661.891 51.3917 673.721 39.2263 699.83C31.1456 717.164 31.7308 720.016 35.2974 723.249L38.4539 726.104L44.2029 727.113C44.9316 727.229 45.6475 727.308 46.339 727.354L74.5521 747.467L76.1721 748.152C111.743 763.17 117.76 764.12 120.028 764.479C125.581 765.356 155.652 767.955 168.964 769.084L195.777 780.297L223.986 791.932L261.141 797.802Z" fill="#436A86"/>
<path d="M1516.78 637.709C1516.78 637.709 1505.21 635.88 1489.76 633.44C1474.33 631.001 1465.36 625.173 1474.38 643.138C1483.42 661.107 1501.69 670.608 1483.13 675.395C1464.58 680.182 1417.24 679.321 1417.24 679.321L1405.66 677.492L1362.52 675.085C1362.52 675.085 1358.66 674.475 1358.89 685.536C1359.12 696.606 1359.12 696.606 1359.12 696.606L1342.22 715.986L1302.99 726.332L1274.9 716.377C1274.9 716.377 1258.61 719.32 1255.03 704.417C1251.45 689.516 1249.92 699.198 1251.45 689.516C1252.98 679.836 1296.69 691.15 1252.98 679.836C1209.27 668.516 1219.43 666.813 1209.27 668.516C1199.11 670.221 1185.66 680.226 1185.66 680.226L1177.32 695.448L1174.43 713.739L1167.43 733.052C1167.43 733.052 1162.78 749.948 1127.47 760.629C1092.15 771.31 1142.61 764.948 1092.15 771.31C1041.69 777.674 1041.69 777.674 1041.69 777.674C1041.69 777.674 988.625 788.035 948.948 776.253C909.271 764.468 920.973 790.578 895.023 754.502C869.074 718.423 860.105 712.597 860.105 712.597L827.711 713.271C827.711 713.271 832.975 721.539 816.179 727.709C799.377 733.875 799.377 733.875 799.377 733.875C799.377 733.875 788.538 739.881 754.989 726.862C721.445 713.843 740.232 720.122 718.434 707.858C696.636 695.591 730.696 705.38 696.636 695.591C662.571 685.797 659.566 679.81 637.889 691.823C616.213 703.835 614.683 713.518 614.683 713.518L609.292 722.591L586.362 729.995L534.311 733.901C534.311 733.901 520.462 733.919 497.644 728.108C474.833 722.295 474.833 722.295 474.833 722.295L439.243 722.189L422.617 727.281C422.617 727.281 362.334 733.194 349.966 748.884C337.598 764.573 345.823 762.565 334.481 771.799C323.127 781.031 324.72 783.489 308.428 786.428C292.141 789.371 289.188 795.519 262.176 791.251C235.152 786.982 227.437 785.763 227.437 785.763L201.438 775.041L171.749 762.628C171.749 762.628 126.852 758.842 121.064 757.928C115.276 757.013 81.8899 742.919 81.8899 742.919L48.1123 718.837C48.1123 718.837 38.6974 728.376 50.6621 702.698C62.6326 677.021 74.3206 665.636 74.3206 665.636L103.831 641.629C103.831 641.629 111.376 643.926 140.036 625.298C168.697 606.666 187.896 660.427 168.697 606.666C149.497 552.912 149.497 552.912 149.497 552.912L151.819 525.71C151.819 525.71 119.177 519.452 157.883 512.332C196.59 505.216 204.141 507.513 204.141 507.513L223.502 522.699C223.502 522.699 214.42 530.088 230.027 531.449C245.639 532.814 262.436 526.648 262.436 526.648L281.788 504.34L279.287 495.125C279.287 495.125 249.02 436.315 184.252 420.566C119.484 404.817 110.573 411.131 105.577 392.698C100.576 374.265 66.2477 384.279 100.261 366.496C134.286 348.716 147.115 355.154 143.701 339.177C140.293 323.198 132.402 323.056 132.848 307.689C133.3 292.323 101.805 303.889 134.235 286.407C166.671 268.926 147.884 262.65 176.829 267.223C205.775 271.797 205.775 271.796 205.775 271.796C205.775 271.796 212.37 292.684 245.225 272.516C278.086 252.342 291.929 252.327 293.119 244.796C294.308 237.265 296.518 223.278 296.518 223.278C296.518 223.278 314.971 231.707 302.934 207.753C290.891 183.795 286.627 173.197 286.627 173.197L286.002 152.148C286.002 152.148 305.348 129.842 304.042 113.097C302.731 96.3477 306.111 106.256 301.223 93.3529C296.341 80.4511 294.748 77.9969 300.706 77.8336C306.67 77.6746 318.67 76.8141 318.67 76.8141L330.592 76.4918C330.592 76.4918 337.145 72.5648 338.307 77.7107C339.476 82.8576 342.317 89.9206 341.892 92.6099C341.467 95.2993 340.617 100.681 340.617 100.681L338.577 113.591C338.577 113.591 333.583 113.903 339.06 123.038C344.536 132.176 342.553 138.476 348.971 141.696C355.382 144.915 336.574 151.317 355.382 144.915C374.197 138.514 377.123 145.039 377.774 134.667C378.424 124.298 379.643 122.835 376.632 116.847C373.622 110.855 377.029 108.086 372.431 99.6406C367.826 91.1944 368.251 88.5051 369.327 75.4434C370.403 62.3817 363.821 60.2406 378.237 50.3875C392.646 40.5336 393.836 33.0028 413.224 35.5152C432.606 38.0267 438.649 37.3263 441.83 42.2372C445.01 47.1514 452.505 56.0542 452.505 56.0542C452.505 56.0542 475.012 70.0853 476.627 59.8652C478.241 49.645 491.297 48.4005 475.911 39.3522C460.524 30.3071 453.773 29.2404 453.773 29.2404C453.773 29.2404 437.451 26.1112 445.739 17.4959C454.026 8.88058 471.021 7.7047 471.021 7.7047L478.742 8.92456L500.001 18.3501L509.878 30.9363C509.878 30.9363 495.462 40.7893 516.778 43.6029C538.093 46.4199 539.368 38.3519 539.368 38.3519L534.146 27.6023L531.045 22.15L537.603 18.2239C537.603 18.2239 562.376 11.6624 565.585 22.6448C568.795 33.6271 571.806 39.6155 571.806 39.6155L589.09 42.9003L597.627 32.6692L609.689 25.2043C609.689 25.2043 683.951 46.5828 675.735 60.9977C667.525 75.4167 661.702 93.5167 661.702 93.5167C661.702 93.5167 655.829 102.514 668.086 109.412C680.348 116.312 671.189 99.1519 680.348 116.312C689.508 133.472 689.508 133.472 689.508 133.472L698.456 161.349L738.899 177.663L753.372 179.95L773.335 175.66L799.983 166.639C799.983 166.639 817.345 141.263 842.168 162.553C866.991 183.843 885.042 191.654 895.815 189.223C906.583 186.787 918.845 193.687 916.16 182.512C913.475 171.337 908.658 154.86 908.658 154.86L892.562 144.051L859.947 134.762L845.9 120.137L842.661 103.086L848.789 92.4747L868.488 80.7L889.558 69.1722L935.409 60.6731L969.888 67.7755L984.793 76.7445C984.793 76.7445 1019.82 89.7857 1024.17 90.439C1028.51 91.0989 1046.78 88.1927 1046.78 88.1927L1086.96 78.0018L1123.52 81.2946L1160.65 90.4706L1187.26 100.463C1187.26 100.463 1226.56 158.497 1235.52 164.325C1244.49 170.154 1220.93 156.507 1255.56 175.209C1290.19 193.913 1300.41 204.35 1300.41 204.35L1265.05 215.303C1265.05 215.303 1260 222.224 1243.82 211.949C1227.64 201.674 1244.78 193.355 1227.64 201.674C1210.5 209.996 1210.5 209.996 1210.5 209.996C1210.5 209.996 1196.88 197.916 1220.96 208.336C1245.02 218.753 1234.34 209.35 1234.57 220.412C1234.8 231.478 1230.26 235.169 1230.26 235.169L1196.6 235.364L1178.79 247.986C1178.79 247.986 1147.97 255.248 1188.33 262.726C1228.68 270.206 1276.36 268.915 1276.36 268.915L1296.28 255.523L1323.01 236.59C1323.01 236.59 1303.54 234.615 1359.79 229.169C1416.03 223.719 1461.61 223.201 1461.61 223.201C1461.61 223.201 1451.56 211.688 1476.88 226.718C1502.19 241.743 1512.59 251.104 1512.59 251.104L1520.37 264.463C1520.37 264.463 1538.98 271.813 1523.09 284.74C1507.21 297.672 1496.2 304.752 1496.2 304.752L1494.84 313.357C1494.84 313.357 1490.02 331.34 1526.18 340.363C1562.33 349.383 1594.56 353.373 1594.56 353.373C1594.56 353.373 1576.4 322.936 1618.75 342.862C1661.1 362.781 1661.1 362.781 1661.1 362.781C1661.1 362.781 1671.43 360.001 1668.71 377.215C1665.99 394.428 1654.07 394.751 1650.61 404.129C1647.15 413.507 1632.22 407.841 1643.86 421.811C1655.5 435.777 1710.62 459.372 1710.62 459.372C1710.62 459.372 1754.25 455.514 1757.19 465.074C1760.13 474.638 1759.67 486.971 1759.67 486.971C1759.67 486.971 1749.61 493.651 1740.63 489.751C1731.66 485.852 1749.84 492.861 1731.66 485.852C1713.48 478.843 1725.69 476.641 1713.48 478.843C1701.26 481.05 1706.62 475.283 1701.26 481.05C1695.9 486.82 1674.14 474.284 1695.9 486.82C1717.65 499.353 1703.56 494.645 1717.65 499.353C1731.75 504.06 1735.92 496.45 1731.75 504.06C1727.58 511.671 1727.58 511.671 1727.58 511.671L1701.14 509.976L1651.07 488.834L1623.02 478.613L1615.91 476.664L1549.2 466.95L1530.73 480.571L1529.07 491.06L1541.12 508.68L1551.66 517.104L1582.38 529.256L1614.52 541.777L1630.62 552.593C1630.62 552.593 1637.93 543.824 1639.86 559.837C1641.77 575.857 1641.78 575.857 1641.78 575.857L1652.61 591.791L1658.34 602.459L1641.57 614.694L1630.42 619.55L1601.73 613.362L1587.94 616.145L1594.46 631.236L1590.85 635.262L1580.72 633.662L1572.66 637.714L1541.75 636.138L1516.78 637.709Z" fill="#687CA9"/>
<path d="M1122 399.295L1095.92 375.13L1120.05 352.956L1105.05 335L1079.03 359.488L1054.73 336.975L1038 353.337L1062.26 375.277L1040.04 396.196L1052.53 415L1079.14 390.541L1104.23 413.22L1122 399.295Z" fill="#435F89"/>
<path d="M539 95.5C618.398 74.9347 509.648 198.562 617.311 235.755C775.665 290.459 668.55 427.865 719.5 492C763.88 547.86 987.662 353.513 1082 376" stroke="#435F89" stroke-width="2.66667" stroke-miterlimit="10" stroke-dasharray="16.52 16.52"/>
<path d="M568.602 89.2984C568.602 100.507 559.512 109.597 548.299 109.597C537.09 109.597 528 100.507 528 89.2984C528 78.0846 537.09 69.0001 548.299 69.0001C559.512 69.0001 568.602 78.0846 568.602 89.2984Z" fill="#435F89"/>
<path d="M1473.08 248.65C1473.08 248.65 1443.5 231.142 1433.76 257.766C1431.74 254.538 1425.73 246.869 1414.05 247.343C1399.32 247.931 1396.36 259.218 1396.36 259.218H1410.72L1412.62 251.851L1414.52 259.218H1422.93C1416.03 260.821 1408.14 266.491 1407.87 284.04L1420.52 275.013C1420.52 275.013 1421.41 270.38 1421.77 270.619C1422.13 270.859 1424.03 272.759 1424.03 272.759L1433.6 265.71C1449.21 299.2 1435.31 356.492 1435.31 356.492H1447.78C1455.17 300.902 1444.5 273.373 1439.14 263.575L1454.79 256.485L1453.72 252.684L1458.35 255.063L1473.08 248.65Z" fill="#435F89"/>
<path d="M1381.41 288.298L1390.03 276.022L1387.54 273.638L1392.07 273.373L1400.29 262.013C1400.29 262.013 1370.3 261.982 1374.78 286.315C1371.84 284.789 1363.92 281.692 1355.35 287.226C1344.54 294.212 1347.32 304.01 1347.32 304.01L1358.12 297.633L1356.28 291.255L1360.98 295.946L1367.29 292.213C1362.81 296.482 1359.4 304.244 1366.99 317.551L1372.5 305.155C1372.5 305.155 1371.11 301.277 1371.48 301.298C1371.85 301.318 1374.13 301.907 1374.13 301.907L1378.19 292.359C1404.79 310.601 1419.77 359.834 1419.77 359.834L1429.14 354.305C1410.02 309.237 1389.79 293.286 1381.41 288.298Z" fill="#435F89"/>
<path d="M690.95 543.598C690.95 543.598 668.71 517.386 650.806 539.366C649.952 535.659 646.782 526.45 635.584 523.076C621.47 518.828 614.979 528.522 614.979 528.522L628.561 533.217L632.762 526.882L632.153 534.462L640.098 537.205C633.054 536.466 623.74 539.251 617.758 555.754L632.663 551.35C632.663 551.35 635.016 547.263 635.277 547.602C635.537 547.945 636.714 550.361 636.714 550.361L648.063 546.826C651.879 583.575 620.023 633.194 620.023 633.194L631.815 637.265C656.96 587.136 655.856 557.628 653.998 546.623L671.099 545.03L671.334 541.089L674.936 544.848L690.95 543.598Z" fill="#435F89"/>
<path d="M591.364 551.13L603.509 542.337L601.937 539.282L606.31 540.505L617.795 532.456C617.795 532.456 589.448 522.627 585.741 547.091C583.461 544.685 576.985 539.172 567.072 541.603C554.578 544.675 554 554.842 554 554.842L566.297 552.343L566.64 545.716L569.545 551.682L576.735 550.219C571.112 552.786 565.349 559.018 568.171 574.073L577.422 564.151C577.422 564.151 577.38 560.033 577.724 560.173C578.073 560.319 580.025 561.615 580.025 561.615L586.991 553.916C606.164 579.847 604.243 631.267 604.243 631.267L614.91 629.101C611.563 580.268 597.642 558.58 591.364 551.13Z" fill="#435F89"/>
<path d="M1465.08 550.647C1465.08 550.647 1435.51 533.144 1425.76 559.763C1423.75 556.54 1417.74 548.867 1406.06 549.34C1391.32 549.934 1388.36 561.215 1388.36 561.215H1402.73L1404.63 553.854L1406.53 561.215H1414.94C1408.03 562.819 1400.15 568.493 1399.88 586.043L1412.53 577.01C1412.53 577.01 1413.42 572.382 1413.78 572.622C1414.13 572.861 1416.04 574.761 1416.04 574.761L1425.6 567.707C1441.21 601.197 1427.32 658.495 1427.32 658.495H1439.79C1447.18 602.9 1436.5 575.376 1431.15 565.578L1446.8 558.487L1445.73 554.682L1450.35 557.061L1465.08 550.647Z" fill="#435F89"/>
<path d="M1373.42 590.296L1382.03 578.025L1379.54 575.641L1384.08 575.37L1392.3 564.016C1392.3 564.016 1362.3 563.984 1366.79 588.317C1363.84 586.787 1355.93 583.694 1347.35 589.228C1336.54 596.21 1339.32 606.012 1339.32 606.012L1350.12 599.63L1348.28 593.258L1352.98 597.943L1359.29 594.216C1354.82 598.479 1351.41 606.247 1358.99 619.553L1364.5 607.153C1364.5 607.153 1363.12 603.279 1363.49 603.3C1363.86 603.321 1366.14 603.904 1366.14 603.904L1370.2 594.356C1396.79 612.603 1411.77 661.836 1411.77 661.836L1421.14 656.302C1402.03 611.239 1381.78 595.283 1373.42 590.296Z" fill="#435F89"/>
<path d="M131.108 481C129.884 481 123.524 480.824 118.773 477.375C115.842 475.25 114.601 473.366 114.348 470.653C112.872 467.67 113.395 464.678 114.892 462.206L111 454.414L112.897 438.268L131.69 432L133.66 432.299C134.074 432.365 143.933 433.902 153.095 436.935L169.658 443.088L172 453.011L167.894 465.189L164.22 466.124C163.676 466.263 158.701 467.474 151.405 467.474C150.178 467.474 149.059 467.438 148.039 467.376L146.265 472.318L133.59 481H131.108Z" fill="#436A86"/>
<path d="M150.636 442.33C141.936 439.466 132.36 438 132.36 438L119.304 442.33L118 453.385L122.788 462.909C122.788 462.909 119.304 465.473 120.608 468.04C121.915 470.604 120.173 470.604 123.223 472.799C126.269 475 131.053 475 131.053 475L140.194 468.771L143.24 460.345C143.24 460.345 144.982 461.446 151.509 461.446C158.035 461.446 162.389 460.345 162.389 460.345L165 452.654L163.696 447.157L150.636 442.33Z" fill="#687CA9"/>
<path d="M27.127 662C26.1939 662 25.222 661.982 24.2078 661.944C17.4222 661.692 13.7143 659.248 11.8022 657.245C9.74221 655.087 9.02034 652.755 8.81258 650.957C5.81241 647.399 1.13606 641.353 0.238117 637.178C-0.997868 631.41 2.91784 625.792 4.18903 624.161L14.8587 607.801L18.0349 596.681L21.8062 576.3L23.3416 574.944C32.6731 566.715 43.2088 557.324 44.8392 555.705C47.3534 552.59 52.4524 549 62.5832 549C73.9148 549 86.5916 553.534 87.1268 553.728C90.4193 554.842 95.4407 558.955 99.8107 571.928C104.005 584.374 101.392 590.014 98.4725 592.559L90.4968 603.452L69.8794 616.275L59.326 623.384L56.1215 633.349C55.8434 634.738 54.6743 640.452 53.4664 644.545C51.9347 649.741 46.6738 656.895 46.0787 657.693L44.8357 659.365L42.6595 660.077C42.0574 660.276 36.5078 662 27.127 662Z" fill="#436A86"/>
<path d="M1578.13 187C1577.19 187 1576.22 187.017 1575.21 187.055C1568.42 187.307 1564.71 189.751 1562.8 191.754C1560.74 193.912 1560.02 196.244 1559.81 198.042C1556.81 201.6 1552.14 207.646 1551.24 211.821C1550 217.589 1553.92 223.207 1555.19 224.838L1565.86 241.198L1569.03 252.318L1572.81 272.699L1574.34 274.055C1583.67 282.284 1594.21 291.675 1595.84 293.294C1598.35 296.409 1603.45 300 1613.58 300C1624.91 300 1637.59 295.465 1638.13 295.271C1641.42 294.157 1646.44 290.044 1650.81 277.071C1655 264.625 1652.39 258.985 1649.47 256.44L1641.5 245.547L1620.88 232.724L1610.33 225.615L1607.12 215.65C1606.84 214.261 1605.67 208.547 1604.47 204.455C1602.93 199.258 1597.67 192.104 1597.08 191.306L1595.84 189.634L1593.66 188.922C1593.06 188.723 1587.51 187 1578.13 187Z" fill="#436A86"/>
<path d="M50.5319 559.248C49.6755 560.356 28.3957 579.102 28.3957 579.102L24.9207 597.853L21.4493 609.989L10.1645 627.269C10.1645 627.269 6.25597 632.049 7.12647 636.094C7.99697 640.137 15.8069 648.962 15.8069 648.962C15.8069 648.962 14.5028 655.58 24.4872 655.951C34.4716 656.318 40.114 654.479 40.114 654.479C40.114 654.479 45.3229 647.493 46.6269 643.081C47.9274 638.668 49.2313 632.049 49.2313 632.049L53.1363 619.916L65.7251 611.458L85.2569 599.325L93.0703 588.661C93.0703 588.661 97.4122 586.455 93.0703 573.584C88.7283 560.717 84.3863 559.248 84.3863 559.248C84.3863 559.248 57.9118 549.689 50.5319 559.248Z" fill="#687CA9"/>
<path d="M1601.53 289.751C1600.68 288.643 1579.4 269.897 1579.4 269.897L1575.92 251.146L1572.45 239.01L1561.16 221.73C1561.16 221.73 1557.26 216.95 1558.13 212.905C1559 208.862 1566.81 200.037 1566.81 200.037C1566.81 200.037 1565.5 193.419 1575.49 193.048C1585.47 192.681 1591.11 194.52 1591.11 194.52C1591.11 194.52 1596.32 201.506 1597.63 205.918C1598.93 210.331 1600.23 216.95 1600.23 216.95L1604.14 229.083L1616.73 237.541L1636.26 249.674L1644.07 260.338C1644.07 260.338 1648.41 262.544 1644.07 275.415C1639.73 288.282 1635.39 289.751 1635.39 289.751C1635.39 289.751 1608.91 299.31 1601.53 289.751Z" fill="#687CA9"/>
<path d="M415.544 215.076L472.224 313.25H351.187L355.829 309.113L356.094 308.877L356.306 308.592L378.306 279.092L378.543 278.774L378.703 278.411L391.512 249.345L406.712 230.712L406.904 230.477L407.053 230.212L415.544 215.076Z" fill="url(#paint0_linear)" stroke="#555555" stroke-width="7"/>
<path d="M426.612 229.878L426.835 230.739L427.441 231.388L454.942 260.853L464.198 287.162L464.543 288.142L465.367 288.775L497.204 313.25H380.068L417.716 213.851L423.447 217.671L426.612 229.878Z" fill="url(#paint1_linear)" stroke="#555555" stroke-width="7"/>
<path d="M316.544 517.076L373.224 615.25H252.187L256.829 611.113L257.094 610.877L257.306 610.592L279.306 581.092L279.543 580.774L279.703 580.411L292.512 551.345L307.712 532.712L307.904 532.477L308.053 532.212L316.544 517.076Z" fill="url(#paint2_linear)" stroke="#555555" stroke-width="7"/>
<path d="M327.612 531.878L327.835 532.739L328.441 533.388L355.941 562.853L365.198 589.162L365.543 590.142L366.366 590.775L398.204 615.25H281.068L318.716 515.851L324.447 519.671L327.612 531.878Z" fill="url(#paint3_linear)" stroke="#555555" stroke-width="7"/>
<path d="M1028.54 102.076L1085.22 200.25H964.187L968.829 196.113L969.094 195.877L969.306 195.592L991.306 166.092L991.543 165.774L991.703 165.411L1004.51 136.345L1019.71 117.712L1019.9 117.477L1020.05 117.212L1028.54 102.076Z" fill="url(#paint4_linear)" stroke="#555555" stroke-width="7"/>
<path d="M1039.61 116.878L1039.83 117.739L1040.44 118.388L1067.94 147.853L1077.2 174.162L1077.54 175.142L1078.37 175.775L1110.2 200.25H993.068L1030.72 100.851L1036.45 104.671L1039.61 116.878Z" fill="url(#paint5_linear)" stroke="#555555" stroke-width="7"/>
<path d="M1038.54 488.076L1095.22 586.25H974.187L978.829 582.113L979.094 581.877L979.306 581.592L1001.31 552.092L1001.54 551.774L1001.7 551.411L1014.51 522.345L1029.71 503.712L1029.9 503.477L1030.05 503.212L1038.54 488.076Z" fill="url(#paint6_linear)" stroke="#555555" stroke-width="7"/>
<path d="M1049.61 502.878L1049.83 503.739L1050.44 504.388L1077.94 533.853L1087.2 560.162L1087.54 561.142L1088.37 561.775L1120.2 586.25H1003.07L1040.72 486.851L1046.45 490.671L1049.61 502.878Z" fill="url(#paint7_linear)" stroke="#555555" stroke-width="7"/>
<path d="M1328.54 342.076L1385.22 440.25H1264.19L1268.83 436.113L1269.09 435.877L1269.31 435.592L1291.31 406.092L1291.54 405.774L1291.7 405.411L1304.51 376.345L1319.71 357.712L1319.9 357.477L1320.05 357.212L1328.54 342.076Z" fill="url(#paint8_linear)" stroke="#555555" stroke-width="7"/>
<path d="M1339.61 356.878L1339.83 357.739L1340.44 358.388L1367.94 387.853L1377.2 414.162L1377.54 415.142L1378.37 415.775L1410.2 440.25H1293.07L1330.72 340.851L1336.45 344.671L1339.61 356.878Z" fill="url(#paint9_linear)" stroke="#555555" stroke-width="7"/>
<path d="M331.432 354.112H335.86V364.156C334.564 365.188 333.052 365.98 331.324 366.532C329.596 367.084 327.82 367.36 325.996 367.36C323.428 367.36 321.112 366.808 319.048 365.704C316.984 364.576 315.364 363.028 314.188 361.06C313.012 359.092 312.424 356.872 312.424 354.4C312.424 351.928 313.012 349.708 314.188 347.74C315.364 345.772 316.984 344.236 319.048 343.132C321.136 342.004 323.476 341.44 326.068 341.44C328.18 341.44 330.1 341.788 331.828 342.484C333.556 343.18 335.008 344.2 336.184 345.544L333.232 348.424C331.312 346.504 328.996 345.544 326.284 345.544C324.508 345.544 322.924 345.916 321.532 346.66C320.164 347.404 319.084 348.448 318.292 349.792C317.524 351.136 317.14 352.672 317.14 354.4C317.14 356.08 317.524 357.592 318.292 358.936C319.084 360.28 320.164 361.336 321.532 362.104C322.924 362.872 324.496 363.256 326.248 363.256C328.216 363.256 329.944 362.824 331.432 361.96V354.112ZM359.672 357.496C359.672 357.808 359.648 358.252 359.6 358.828H344.516C344.78 360.244 345.464 361.372 346.568 362.212C347.696 363.028 349.088 363.436 350.744 363.436C352.856 363.436 354.596 362.74 355.964 361.348L358.376 364.12C357.512 365.152 356.42 365.932 355.1 366.46C353.78 366.988 352.292 367.252 350.636 367.252C348.524 367.252 346.664 366.832 345.056 365.992C343.448 365.152 342.2 363.988 341.312 362.5C340.448 360.988 340.016 359.284 340.016 357.388C340.016 355.516 340.436 353.836 341.276 352.348C342.14 350.836 343.328 349.66 344.84 348.82C346.352 347.98 348.056 347.56 349.952 347.56C351.824 347.56 353.492 347.98 354.956 348.82C356.444 349.636 357.596 350.8 358.412 352.312C359.252 353.8 359.672 355.528 359.672 357.496ZM349.952 351.16C348.512 351.16 347.288 351.592 346.28 352.456C345.296 353.296 344.696 354.424 344.48 355.84H355.388C355.196 354.448 354.608 353.32 353.624 352.456C352.64 351.592 351.416 351.16 349.952 351.16ZM369.935 367.252C368.375 367.252 366.851 367.048 365.363 366.64C363.875 366.232 362.687 365.716 361.799 365.092L363.527 361.672C364.391 362.248 365.423 362.716 366.623 363.076C367.847 363.412 369.047 363.58 370.223 363.58C372.911 363.58 374.255 362.872 374.255 361.456C374.255 360.784 373.907 360.316 373.211 360.052C372.539 359.788 371.447 359.536 369.935 359.296C368.351 359.056 367.055 358.78 366.047 358.468C365.063 358.156 364.199 357.616 363.455 356.848C362.735 356.056 362.375 354.964 362.375 353.572C362.375 351.748 363.131 350.296 364.643 349.216C366.179 348.112 368.243 347.56 370.835 347.56C372.155 347.56 373.475 347.716 374.795 348.028C376.115 348.316 377.195 348.712 378.035 349.216L376.307 352.636C374.675 351.676 372.839 351.196 370.799 351.196C369.479 351.196 368.471 351.4 367.775 351.808C367.103 352.192 366.767 352.708 366.767 353.356C366.767 354.076 367.127 354.592 367.847 354.904C368.591 355.192 369.731 355.468 371.267 355.732C372.803 355.972 374.063 356.248 375.047 356.56C376.031 356.872 376.871 357.4 377.567 358.144C378.287 358.888 378.647 359.944 378.647 361.312C378.647 363.112 377.867 364.552 376.307 365.632C374.747 366.712 372.623 367.252 369.935 367.252ZM394.078 365.956C393.55 366.388 392.902 366.712 392.134 366.928C391.39 367.144 390.598 367.252 389.758 367.252C387.646 367.252 386.014 366.7 384.862 365.596C383.71 364.492 383.134 362.884 383.134 360.772V351.52H379.966V347.92H383.134V343.528H387.634V347.92H392.782V351.52H387.634V360.664C387.634 361.6 387.862 362.32 388.318 362.824C388.774 363.304 389.434 363.544 390.298 363.544C391.306 363.544 392.146 363.28 392.818 362.752L394.078 365.956ZM397.78 347.776H402.28V367H397.78V347.776ZM400.048 344.608C399.232 344.608 398.548 344.356 397.996 343.852C397.444 343.324 397.168 342.676 397.168 341.908C397.168 341.14 397.444 340.504 397.996 340C398.548 339.472 399.232 339.208 400.048 339.208C400.864 339.208 401.548 339.46 402.1 339.964C402.652 340.444 402.928 341.056 402.928 341.8C402.928 342.592 402.652 343.264 402.1 343.816C401.572 344.344 400.888 344.608 400.048 344.608ZM416.826 367.252C414.882 367.252 413.13 366.832 411.57 365.992C410.01 365.152 408.786 363.988 407.898 362.5C407.034 360.988 406.602 359.284 406.602 357.388C406.602 355.492 407.034 353.8 407.898 352.312C408.786 350.824 410.01 349.66 411.57 348.82C413.13 347.98 414.882 347.56 416.826 347.56C418.794 347.56 420.558 347.98 422.118 348.82C423.678 349.66 424.89 350.824 425.754 352.312C426.642 353.8 427.086 355.492 427.086 357.388C427.086 359.284 426.642 360.988 425.754 362.5C424.89 363.988 423.678 365.152 422.118 365.992C420.558 366.832 418.794 367.252 416.826 367.252ZM416.826 363.4C418.482 363.4 419.85 362.848 420.93 361.744C422.01 360.64 422.55 359.188 422.55 357.388C422.55 355.588 422.01 354.136 420.93 353.032C419.85 351.928 418.482 351.376 416.826 351.376C415.17 351.376 413.802 351.928 412.722 353.032C411.666 354.136 411.138 355.588 411.138 357.388C411.138 359.188 411.666 360.64 412.722 361.744C413.802 362.848 415.17 363.4 416.826 363.4ZM442.298 347.56C444.722 347.56 446.666 348.268 448.13 349.684C449.594 351.1 450.326 353.2 450.326 355.984V367H445.826V356.56C445.826 354.88 445.43 353.62 444.638 352.78C443.846 351.916 442.718 351.484 441.254 351.484C439.598 351.484 438.29 351.988 437.33 352.996C436.37 353.98 435.89 355.408 435.89 357.28V367H431.39V347.776H435.674V350.26C436.418 349.372 437.354 348.7 438.482 348.244C439.61 347.788 440.882 347.56 442.298 347.56ZM466.942 347.56C469.366 347.56 471.31 348.268 472.774 349.684C474.238 351.1 474.97 353.2 474.97 355.984V367H470.47V356.56C470.47 354.88 470.074 353.62 469.282 352.78C468.49 351.916 467.362 351.484 465.898 351.484C464.242 351.484 462.934 351.988 461.974 352.996C461.014 353.98 460.534 355.408 460.534 357.28V367H456.034V347.776H460.318V350.26C461.062 349.372 461.998 348.7 463.126 348.244C464.254 347.788 465.526 347.56 466.942 347.56ZM488.023 347.56C490.855 347.56 493.015 348.244 494.503 349.612C496.015 350.956 496.771 352.996 496.771 355.732V367H492.523V364.66C491.971 365.5 491.179 366.148 490.147 366.604C489.139 367.036 487.915 367.252 486.475 367.252C485.035 367.252 483.775 367.012 482.695 366.532C481.615 366.028 480.775 365.344 480.175 364.48C479.599 363.592 479.311 362.596 479.311 361.492C479.311 359.764 479.947 358.384 481.219 357.352C482.515 356.296 484.543 355.768 487.303 355.768H492.271V355.48C492.271 354.136 491.863 353.104 491.047 352.384C490.255 351.664 489.067 351.304 487.483 351.304C486.403 351.304 485.335 351.472 484.279 351.808C483.247 352.144 482.371 352.612 481.651 353.212L479.887 349.936C480.895 349.168 482.107 348.58 483.523 348.172C484.939 347.764 486.439 347.56 488.023 347.56ZM487.411 363.976C488.539 363.976 489.535 363.724 490.399 363.22C491.287 362.692 491.911 361.948 492.271 360.988V358.756H487.627C485.035 358.756 483.739 359.608 483.739 361.312C483.739 362.128 484.063 362.776 484.711 363.256C485.359 363.736 486.259 363.976 487.411 363.976ZM502.546 347.776H507.046V367H502.546V347.776ZM504.814 344.608C503.998 344.608 503.314 344.356 502.762 343.852C502.21 343.324 501.934 342.676 501.934 341.908C501.934 341.14 502.21 340.504 502.762 340C503.314 339.472 503.998 339.208 504.814 339.208C505.63 339.208 506.314 339.46 506.866 339.964C507.418 340.444 507.694 341.056 507.694 341.8C507.694 342.592 507.418 343.264 506.866 343.816C506.338 344.344 505.654 344.608 504.814 344.608ZM517.236 350.584C518.532 348.568 520.812 347.56 524.076 347.56V351.844C523.692 351.772 523.344 351.736 523.032 351.736C521.28 351.736 519.912 352.252 518.928 353.284C517.944 354.292 517.452 355.756 517.452 357.676V367H512.952V347.776H517.236V350.584ZM545.79 357.496C545.79 357.808 545.766 358.252 545.718 358.828H530.634C530.898 360.244 531.582 361.372 532.686 362.212C533.814 363.028 535.206 363.436 536.862 363.436C538.974 363.436 540.714 362.74 542.082 361.348L544.494 364.12C543.63 365.152 542.538 365.932 541.218 366.46C539.898 366.988 538.41 367.252 536.754 367.252C534.642 367.252 532.782 366.832 531.174 365.992C529.566 365.152 528.318 363.988 527.43 362.5C526.566 360.988 526.134 359.284 526.134 357.388C526.134 355.516 526.554 353.836 527.394 352.348C528.258 350.836 529.446 349.66 530.958 348.82C532.47 347.98 534.174 347.56 536.07 347.56C537.942 347.56 539.61 347.98 541.074 348.82C542.562 349.636 543.714 350.8 544.53 352.312C545.37 353.8 545.79 355.528 545.79 357.496ZM536.07 351.16C534.63 351.16 533.406 351.592 532.398 352.456C531.414 353.296 530.814 354.424 530.598 355.84H541.506C541.314 354.448 540.726 353.32 539.742 352.456C538.758 351.592 537.534 351.16 536.07 351.16ZM349.969 384.288V411H345.649V408.516C344.905 409.428 343.981 410.112 342.877 410.568C341.797 411.024 340.597 411.252 339.277 411.252C337.429 411.252 335.761 410.844 334.273 410.028C332.809 409.212 331.657 408.06 330.817 406.572C329.977 405.06 329.557 403.332 329.557 401.388C329.557 399.444 329.977 397.728 330.817 396.24C331.657 394.752 332.809 393.6 334.273 392.784C335.761 391.968 337.429 391.56 339.277 391.56C340.549 391.56 341.713 391.776 342.769 392.208C343.825 392.64 344.725 393.288 345.469 394.152V384.288H349.969ZM339.817 407.4C340.897 407.4 341.869 407.16 342.733 406.68C343.597 406.176 344.281 405.468 344.785 404.556C345.289 403.644 345.541 402.588 345.541 401.388C345.541 400.188 345.289 399.132 344.785 398.22C344.281 397.308 343.597 396.612 342.733 396.132C341.869 395.628 340.897 395.376 339.817 395.376C338.737 395.376 337.765 395.628 336.901 396.132C336.037 396.612 335.353 397.308 334.849 398.22C334.345 399.132 334.093 400.188 334.093 401.388C334.093 402.588 334.345 403.644 334.849 404.556C335.353 405.468 336.037 406.176 336.901 406.68C337.765 407.16 338.737 407.4 339.817 407.4ZM373.928 401.496C373.928 401.808 373.904 402.252 373.856 402.828H358.772C359.036 404.244 359.72 405.372 360.824 406.212C361.952 407.028 363.344 407.436 365 407.436C367.112 407.436 368.852 406.74 370.22 405.348L372.632 408.12C371.768 409.152 370.676 409.932 369.356 410.46C368.036 410.988 366.548 411.252 364.892 411.252C362.78 411.252 360.92 410.832 359.312 409.992C357.704 409.152 356.456 407.988 355.568 406.5C354.704 404.988 354.272 403.284 354.272 401.388C354.272 399.516 354.692 397.836 355.532 396.348C356.396 394.836 357.584 393.66 359.096 392.82C360.608 391.98 362.312 391.56 364.208 391.56C366.08 391.56 367.748 391.98 369.212 392.82C370.7 393.636 371.852 394.8 372.668 396.312C373.508 397.8 373.928 399.528 373.928 401.496ZM364.208 395.16C362.768 395.16 361.544 395.592 360.536 396.456C359.552 397.296 358.952 398.424 358.736 399.84H369.644C369.452 398.448 368.864 397.32 367.88 396.456C366.896 395.592 365.672 395.16 364.208 395.16ZM392.484 394.584C393.78 392.568 396.06 391.56 399.324 391.56V395.844C398.94 395.772 398.592 395.736 398.28 395.736C396.528 395.736 395.16 396.252 394.176 397.284C393.192 398.292 392.7 399.756 392.7 401.676V411H388.2V391.776H392.484V394.584ZM421.038 401.496C421.038 401.808 421.014 402.252 420.966 402.828H405.882C406.146 404.244 406.83 405.372 407.934 406.212C409.062 407.028 410.454 407.436 412.11 407.436C414.222 407.436 415.962 406.74 417.33 405.348L419.742 408.12C418.878 409.152 417.786 409.932 416.466 410.46C415.146 410.988 413.658 411.252 412.002 411.252C409.89 411.252 408.03 410.832 406.422 409.992C404.814 409.152 403.566 407.988 402.678 406.5C401.814 404.988 401.382 403.284 401.382 401.388C401.382 399.516 401.802 397.836 402.642 396.348C403.506 394.836 404.694 393.66 406.206 392.82C407.718 391.98 409.422 391.56 411.318 391.56C413.19 391.56 414.858 391.98 416.322 392.82C417.81 393.636 418.962 394.8 419.778 396.312C420.618 397.8 421.038 399.528 421.038 401.496ZM411.318 395.16C409.878 395.16 408.654 395.592 407.646 396.456C406.662 397.296 406.062 398.424 405.846 399.84H416.754C416.562 398.448 415.974 397.32 414.99 396.456C414.006 395.592 412.782 395.16 411.318 395.16ZM413.046 384.216H418.338L412.074 389.148H408.186L413.046 384.216ZM431.3 411.252C429.74 411.252 428.216 411.048 426.728 410.64C425.24 410.232 424.052 409.716 423.164 409.092L424.892 405.672C425.756 406.248 426.788 406.716 427.988 407.076C429.212 407.412 430.412 407.58 431.588 407.58C434.276 407.58 435.62 406.872 435.62 405.456C435.62 404.784 435.272 404.316 434.576 404.052C433.904 403.788 432.812 403.536 431.3 403.296C429.716 403.056 428.42 402.78 427.412 402.468C426.428 402.156 425.564 401.616 424.82 400.848C424.1 400.056 423.74 398.964 423.74 397.572C423.74 395.748 424.496 394.296 426.008 393.216C427.544 392.112 429.608 391.56 432.2 391.56C433.52 391.56 434.84 391.716 436.16 392.028C437.48 392.316 438.56 392.712 439.4 393.216L437.672 396.636C436.04 395.676 434.204 395.196 432.164 395.196C430.844 395.196 429.836 395.4 429.14 395.808C428.468 396.192 428.132 396.708 428.132 397.356C428.132 398.076 428.492 398.592 429.212 398.904C429.956 399.192 431.096 399.468 432.632 399.732C434.168 399.972 435.428 400.248 436.412 400.56C437.396 400.872 438.236 401.4 438.932 402.144C439.652 402.888 440.012 403.944 440.012 405.312C440.012 407.112 439.232 408.552 437.672 409.632C436.112 410.712 433.988 411.252 431.3 411.252ZM461.96 401.496C461.96 401.808 461.936 402.252 461.888 402.828H446.804C447.068 404.244 447.752 405.372 448.856 406.212C449.984 407.028 451.376 407.436 453.032 407.436C455.144 407.436 456.884 406.74 458.252 405.348L460.664 408.12C459.8 409.152 458.708 409.932 457.388 410.46C456.068 410.988 454.58 411.252 452.924 411.252C450.812 411.252 448.952 410.832 447.344 409.992C445.736 409.152 444.488 407.988 443.6 406.5C442.736 404.988 442.304 403.284 442.304 401.388C442.304 399.516 442.724 397.836 443.564 396.348C444.428 394.836 445.616 393.66 447.128 392.82C448.64 391.98 450.344 391.56 452.24 391.56C454.112 391.56 455.78 391.98 457.244 392.82C458.732 393.636 459.884 394.8 460.7 396.312C461.54 397.8 461.96 399.528 461.96 401.496ZM452.24 395.16C450.8 395.16 449.576 395.592 448.568 396.456C447.584 397.296 446.984 398.424 446.768 399.84H457.676C457.484 398.448 456.896 397.32 455.912 396.456C454.928 395.592 453.704 395.16 452.24 395.16ZM473.099 391.56C475.931 391.56 478.091 392.244 479.579 393.612C481.091 394.956 481.847 396.996 481.847 399.732V411H477.599V408.66C477.047 409.5 476.255 410.148 475.223 410.604C474.215 411.036 472.991 411.252 471.551 411.252C470.111 411.252 468.851 411.012 467.771 410.532C466.691 410.028 465.851 409.344 465.251 408.48C464.675 407.592 464.387 406.596 464.387 405.492C464.387 403.764 465.023 402.384 466.295 401.352C467.591 400.296 469.619 399.768 472.379 399.768H477.347V399.48C477.347 398.136 476.939 397.104 476.123 396.384C475.331 395.664 474.143 395.304 472.559 395.304C471.479 395.304 470.411 395.472 469.355 395.808C468.323 396.144 467.447 396.612 466.727 397.212L464.963 393.936C465.971 393.168 467.183 392.58 468.599 392.172C470.015 391.764 471.515 391.56 473.099 391.56ZM472.487 407.976C473.615 407.976 474.611 407.724 475.475 407.22C476.363 406.692 476.987 405.948 477.347 404.988V402.756H472.703C470.111 402.756 468.815 403.608 468.815 405.312C468.815 406.128 469.139 406.776 469.787 407.256C470.435 407.736 471.335 407.976 472.487 407.976ZM506.234 391.776V411H501.95V408.552C501.23 409.416 500.33 410.088 499.25 410.568C498.17 411.024 497.006 411.252 495.758 411.252C493.19 411.252 491.162 410.544 489.674 409.128C488.21 407.688 487.478 405.564 487.478 402.756V391.776H491.978V402.144C491.978 403.872 492.362 405.168 493.13 406.032C493.922 406.872 495.038 407.292 496.478 407.292C498.086 407.292 499.358 406.8 500.294 405.816C501.254 404.808 501.734 403.368 501.734 401.496V391.776H506.234ZM524.366 411L519.434 404.34L514.466 411H509.498L516.986 401.244L509.822 391.776H514.826L519.542 398.076L524.258 391.776H529.118L521.918 401.172L529.442 411H524.366Z" fill="#EFEFEF"/>
<path d="M209.659 636.8H220.675C223.363 636.8 225.751 637.328 227.839 638.384C229.927 639.416 231.547 640.892 232.699 642.812C233.851 644.708 234.427 646.904 234.427 649.4C234.427 651.896 233.851 654.104 232.699 656.024C231.547 657.92 229.927 659.396 227.839 660.452C225.751 661.484 223.363 662 220.675 662H209.659V636.8ZM220.459 658.04C222.307 658.04 223.927 657.692 225.319 656.996C226.735 656.276 227.815 655.268 228.559 653.972C229.327 652.652 229.711 651.128 229.711 649.4C229.711 647.672 229.327 646.16 228.559 644.864C227.815 643.544 226.735 642.536 225.319 641.84C223.927 641.12 222.307 640.76 220.459 640.76H214.339V658.04H220.459ZM257.042 652.496C257.042 652.808 257.018 653.252 256.97 653.828H241.886C242.15 655.244 242.834 656.372 243.938 657.212C245.066 658.028 246.458 658.436 248.114 658.436C250.226 658.436 251.966 657.74 253.334 656.348L255.746 659.12C254.882 660.152 253.79 660.932 252.47 661.46C251.15 661.988 249.662 662.252 248.006 662.252C245.894 662.252 244.034 661.832 242.426 660.992C240.818 660.152 239.57 658.988 238.682 657.5C237.818 655.988 237.386 654.284 237.386 652.388C237.386 650.516 237.806 648.836 238.646 647.348C239.51 645.836 240.698 644.66 242.21 643.82C243.722 642.98 245.426 642.56 247.322 642.56C249.194 642.56 250.862 642.98 252.326 643.82C253.814 644.636 254.966 645.8 255.782 647.312C256.622 648.8 257.042 650.528 257.042 652.496ZM247.322 646.16C245.882 646.16 244.658 646.592 243.65 647.456C242.666 648.296 242.066 649.424 241.85 650.84H252.758C252.566 649.448 251.978 648.32 250.994 647.456C250.01 646.592 248.786 646.16 247.322 646.16ZM249.05 635.216H254.342L248.078 640.148H244.19L249.05 635.216ZM279.013 642.776L270.769 662H266.125L257.881 642.776H262.561L268.537 657.032L274.693 642.776H279.013ZM299.37 652.496C299.37 652.808 299.346 653.252 299.298 653.828H284.214C284.478 655.244 285.162 656.372 286.266 657.212C287.394 658.028 288.786 658.436 290.442 658.436C292.554 658.436 294.294 657.74 295.662 656.348L298.074 659.12C297.21 660.152 296.118 660.932 294.798 661.46C293.478 661.988 291.99 662.252 290.334 662.252C288.222 662.252 286.362 661.832 284.754 660.992C283.146 660.152 281.898 658.988 281.01 657.5C280.146 655.988 279.714 654.284 279.714 652.388C279.714 650.516 280.134 648.836 280.974 647.348C281.838 645.836 283.026 644.66 284.538 643.82C286.05 642.98 287.754 642.56 289.65 642.56C291.522 642.56 293.19 642.98 294.654 643.82C296.142 644.636 297.294 645.8 298.11 647.312C298.95 648.8 299.37 650.528 299.37 652.496ZM289.65 646.16C288.21 646.16 286.986 646.592 285.978 647.456C284.994 648.296 284.394 649.424 284.178 650.84H295.086C294.894 649.448 294.306 648.32 293.322 647.456C292.338 646.592 291.114 646.16 289.65 646.16ZM303.692 635.288H308.192V662H303.692V635.288ZM322.738 662.252C320.794 662.252 319.042 661.832 317.482 660.992C315.922 660.152 314.698 658.988 313.81 657.5C312.946 655.988 312.514 654.284 312.514 652.388C312.514 650.492 312.946 648.8 313.81 647.312C314.698 645.824 315.922 644.66 317.482 643.82C319.042 642.98 320.794 642.56 322.738 642.56C324.706 642.56 326.47 642.98 328.03 643.82C329.59 644.66 330.802 645.824 331.666 647.312C332.554 648.8 332.998 650.492 332.998 652.388C332.998 654.284 332.554 655.988 331.666 657.5C330.802 658.988 329.59 660.152 328.03 660.992C326.47 661.832 324.706 662.252 322.738 662.252ZM322.738 658.4C324.394 658.4 325.762 657.848 326.842 656.744C327.922 655.64 328.462 654.188 328.462 652.388C328.462 650.588 327.922 649.136 326.842 648.032C325.762 646.928 324.394 646.376 322.738 646.376C321.082 646.376 319.714 646.928 318.634 648.032C317.578 649.136 317.05 650.588 317.05 652.388C317.05 654.188 317.578 655.64 318.634 656.744C319.714 657.848 321.082 658.4 322.738 658.4ZM347.958 642.56C349.83 642.56 351.498 642.968 352.962 643.784C354.45 644.6 355.614 645.752 356.454 647.24C357.294 648.728 357.714 650.444 357.714 652.388C357.714 654.332 357.294 656.06 356.454 657.572C355.614 659.06 354.45 660.212 352.962 661.028C351.498 661.844 349.83 662.252 347.958 662.252C345.366 662.252 343.314 661.388 341.802 659.66V668.984H337.302V642.776H341.586V645.296C342.33 644.384 343.242 643.7 344.322 643.244C345.426 642.788 346.638 642.56 347.958 642.56ZM347.454 658.4C349.11 658.4 350.466 657.848 351.522 656.744C352.602 655.64 353.142 654.188 353.142 652.388C353.142 650.588 352.602 649.136 351.522 648.032C350.466 646.928 349.11 646.376 347.454 646.376C346.374 646.376 345.402 646.628 344.538 647.132C343.674 647.612 342.99 648.308 342.486 649.22C341.982 650.132 341.73 651.188 341.73 652.388C341.73 653.588 341.982 654.644 342.486 655.556C342.99 656.468 343.674 657.176 344.538 657.68C345.402 658.16 346.374 658.4 347.454 658.4ZM372.637 642.56C374.509 642.56 376.177 642.968 377.641 643.784C379.129 644.6 380.293 645.752 381.133 647.24C381.973 648.728 382.393 650.444 382.393 652.388C382.393 654.332 381.973 656.06 381.133 657.572C380.293 659.06 379.129 660.212 377.641 661.028C376.177 661.844 374.509 662.252 372.637 662.252C370.045 662.252 367.993 661.388 366.481 659.66V668.984H361.981V642.776H366.265V645.296C367.009 644.384 367.921 643.7 369.001 643.244C370.105 642.788 371.317 642.56 372.637 642.56ZM372.133 658.4C373.789 658.4 375.145 657.848 376.201 656.744C377.281 655.64 377.821 654.188 377.821 652.388C377.821 650.588 377.281 649.136 376.201 648.032C375.145 646.928 373.789 646.376 372.133 646.376C371.053 646.376 370.081 646.628 369.217 647.132C368.353 647.612 367.669 648.308 367.165 649.22C366.661 650.132 366.409 651.188 366.409 652.388C366.409 653.588 366.661 654.644 367.165 655.556C367.669 656.468 368.353 657.176 369.217 657.68C370.081 658.16 371.053 658.4 372.133 658.4ZM404.733 652.496C404.733 652.808 404.709 653.252 404.661 653.828H389.577C389.841 655.244 390.525 656.372 391.629 657.212C392.757 658.028 394.149 658.436 395.805 658.436C397.917 658.436 399.657 657.74 401.025 656.348L403.437 659.12C402.573 660.152 401.481 660.932 400.161 661.46C398.841 661.988 397.353 662.252 395.697 662.252C393.585 662.252 391.725 661.832 390.117 660.992C388.509 660.152 387.261 658.988 386.373 657.5C385.509 655.988 385.077 654.284 385.077 652.388C385.077 650.516 385.497 648.836 386.337 647.348C387.201 645.836 388.389 644.66 389.901 643.82C391.413 642.98 393.117 642.56 395.013 642.56C396.885 642.56 398.553 642.98 400.017 643.82C401.505 644.636 402.657 645.8 403.473 647.312C404.313 648.8 404.733 650.528 404.733 652.496ZM395.013 646.16C393.573 646.16 392.349 646.592 391.341 647.456C390.357 648.296 389.757 649.424 389.541 650.84H400.449C400.257 649.448 399.669 648.32 398.685 647.456C397.701 646.592 396.477 646.16 395.013 646.16ZM427.668 642.776V662H423.384V659.552C422.664 660.416 421.764 661.088 420.684 661.568C419.604 662.024 418.44 662.252 417.192 662.252C414.624 662.252 412.596 661.544 411.108 660.128C409.644 658.688 408.912 656.564 408.912 653.756V642.776H413.412V653.144C413.412 654.872 413.796 656.168 414.564 657.032C415.356 657.872 416.472 658.292 417.912 658.292C419.52 658.292 420.792 657.8 421.728 656.816C422.688 655.808 423.168 654.368 423.168 652.496V642.776H427.668ZM437.843 645.584C439.139 643.568 441.419 642.56 444.683 642.56V646.844C444.299 646.772 443.951 646.736 443.639 646.736C441.887 646.736 440.519 647.252 439.535 648.284C438.551 649.292 438.059 650.756 438.059 652.676V662H433.559V642.776H437.843V645.584ZM240.267 684.724V692.392H252.435V696.352H240.267V706H235.587V680.8H253.983V684.724H240.267ZM262.009 689.584C263.305 687.568 265.585 686.56 268.849 686.56V690.844C268.465 690.772 268.117 690.736 267.805 690.736C266.053 690.736 264.685 691.252 263.701 692.284C262.717 693.292 262.225 694.756 262.225 696.676V706H257.725V686.776H262.009V689.584ZM281.131 706.252C279.187 706.252 277.435 705.832 275.875 704.992C274.315 704.152 273.091 702.988 272.203 701.5C271.339 699.988 270.907 698.284 270.907 696.388C270.907 694.492 271.339 692.8 272.203 691.312C273.091 689.824 274.315 688.66 275.875 687.82C277.435 686.98 279.187 686.56 281.131 686.56C283.099 686.56 284.863 686.98 286.423 687.82C287.983 688.66 289.195 689.824 290.059 691.312C290.947 692.8 291.391 694.492 291.391 696.388C291.391 698.284 290.947 699.988 290.059 701.5C289.195 702.988 287.983 704.152 286.423 704.992C284.863 705.832 283.099 706.252 281.131 706.252ZM281.131 702.4C282.787 702.4 284.155 701.848 285.235 700.744C286.315 699.64 286.855 698.188 286.855 696.388C286.855 694.588 286.315 693.136 285.235 692.032C284.155 690.928 282.787 690.376 281.131 690.376C279.475 690.376 278.107 690.928 277.027 692.032C275.971 693.136 275.443 694.588 275.443 696.388C275.443 698.188 275.971 699.64 277.027 700.744C278.107 701.848 279.475 702.4 281.131 702.4ZM306.602 686.56C309.026 686.56 310.97 687.268 312.434 688.684C313.898 690.1 314.63 692.2 314.63 694.984V706H310.13V695.56C310.13 693.88 309.734 692.62 308.942 691.78C308.15 690.916 307.022 690.484 305.558 690.484C303.902 690.484 302.594 690.988 301.634 691.996C300.674 692.98 300.194 694.408 300.194 696.28V706H295.694V686.776H299.978V689.26C300.722 688.372 301.658 687.7 302.786 687.244C303.914 686.788 305.186 686.56 306.602 686.56ZM331.895 704.956C331.367 705.388 330.719 705.712 329.951 705.928C329.207 706.144 328.415 706.252 327.575 706.252C325.463 706.252 323.831 705.7 322.679 704.596C321.527 703.492 320.951 701.884 320.951 699.772V690.52H317.783V686.92H320.951V682.528H325.451V686.92H330.599V690.52H325.451V699.664C325.451 700.6 325.679 701.32 326.135 701.824C326.591 702.304 327.251 702.544 328.115 702.544C329.123 702.544 329.963 702.28 330.635 701.752L331.895 704.956ZM334.273 694.12H344.173V697.864H334.273V694.12ZM368.429 702.076V706H349.529V680.8H367.925V684.724H354.209V691.276H366.377V695.128H354.209V702.076H368.429ZM384.122 686.56C386.546 686.56 388.49 687.268 389.954 688.684C391.418 690.1 392.15 692.2 392.15 694.984V706H387.65V695.56C387.65 693.88 387.254 692.62 386.462 691.78C385.67 690.916 384.542 690.484 383.078 690.484C381.422 690.484 380.114 690.988 379.154 691.996C378.194 692.98 377.714 694.408 377.714 696.28V706H373.214V686.776H377.498V689.26C378.242 688.372 379.178 687.7 380.306 687.244C381.434 686.788 382.706 686.56 384.122 686.56ZM416.862 679.288V706H412.542V703.516C411.798 704.428 410.874 705.112 409.77 705.568C408.69 706.024 407.49 706.252 406.17 706.252C404.322 706.252 402.654 705.844 401.166 705.028C399.702 704.212 398.55 703.06 397.71 701.572C396.87 700.06 396.45 698.332 396.45 696.388C396.45 694.444 396.87 692.728 397.71 691.24C398.55 689.752 399.702 688.6 401.166 687.784C402.654 686.968 404.322 686.56 406.17 686.56C407.442 686.56 408.606 686.776 409.662 687.208C410.718 687.64 411.618 688.288 412.362 689.152V679.288H416.862ZM406.71 702.4C407.79 702.4 408.762 702.16 409.626 701.68C410.49 701.176 411.174 700.468 411.678 699.556C412.182 698.644 412.434 697.588 412.434 696.388C412.434 695.188 412.182 694.132 411.678 693.22C411.174 692.308 410.49 691.612 409.626 691.132C408.762 690.628 407.79 690.376 406.71 690.376C405.63 690.376 404.658 690.628 403.794 691.132C402.93 691.612 402.246 692.308 401.742 693.22C401.238 694.132 400.986 695.188 400.986 696.388C400.986 697.588 401.238 698.644 401.742 699.556C402.246 700.468 402.93 701.176 403.794 701.68C404.658 702.16 405.63 702.4 406.71 702.4Z" fill="#EFEFEF"/>
<path d="M933.659 611.8H944.675C947.363 611.8 949.751 612.328 951.839 613.384C953.927 614.416 955.547 615.892 956.699 617.812C957.851 619.708 958.427 621.904 958.427 624.4C958.427 626.896 957.851 629.104 956.699 631.024C955.547 632.92 953.927 634.396 951.839 635.452C949.751 636.484 947.363 637 944.675 637H933.659V611.8ZM944.459 633.04C946.307 633.04 947.927 632.692 949.319 631.996C950.735 631.276 951.815 630.268 952.559 628.972C953.327 627.652 953.711 626.128 953.711 624.4C953.711 622.672 953.327 621.16 952.559 619.864C951.815 618.544 950.735 617.536 949.319 616.84C947.927 616.12 946.307 615.76 944.459 615.76H938.339V633.04H944.459ZM981.042 627.496C981.042 627.808 981.018 628.252 980.97 628.828H965.886C966.15 630.244 966.834 631.372 967.938 632.212C969.066 633.028 970.458 633.436 972.114 633.436C974.226 633.436 975.966 632.74 977.334 631.348L979.746 634.12C978.882 635.152 977.79 635.932 976.47 636.46C975.15 636.988 973.662 637.252 972.006 637.252C969.894 637.252 968.034 636.832 966.426 635.992C964.818 635.152 963.57 633.988 962.682 632.5C961.818 630.988 961.386 629.284 961.386 627.388C961.386 625.516 961.806 623.836 962.646 622.348C963.51 620.836 964.698 619.66 966.21 618.82C967.722 617.98 969.426 617.56 971.322 617.56C973.194 617.56 974.862 617.98 976.326 618.82C977.814 619.636 978.966 620.8 979.782 622.312C980.622 623.8 981.042 625.528 981.042 627.496ZM971.322 621.16C969.882 621.16 968.658 621.592 967.65 622.456C966.666 623.296 966.066 624.424 965.85 625.84H976.758C976.566 624.448 975.978 623.32 974.994 622.456C974.01 621.592 972.786 621.16 971.322 621.16ZM973.05 610.216H978.342L972.078 615.148H968.19L973.05 610.216ZM1003.01 617.776L994.769 637H990.125L981.881 617.776H986.561L992.537 632.032L998.693 617.776H1003.01ZM1023.37 627.496C1023.37 627.808 1023.35 628.252 1023.3 628.828H1008.21C1008.48 630.244 1009.16 631.372 1010.27 632.212C1011.39 633.028 1012.79 633.436 1014.44 633.436C1016.55 633.436 1018.29 632.74 1019.66 631.348L1022.07 634.12C1021.21 635.152 1020.12 635.932 1018.8 636.46C1017.48 636.988 1015.99 637.252 1014.33 637.252C1012.22 637.252 1010.36 636.832 1008.75 635.992C1007.15 635.152 1005.9 633.988 1005.01 632.5C1004.15 630.988 1003.71 629.284 1003.71 627.388C1003.71 625.516 1004.13 623.836 1004.97 622.348C1005.84 620.836 1007.03 619.66 1008.54 618.82C1010.05 617.98 1011.75 617.56 1013.65 617.56C1015.52 617.56 1017.19 617.98 1018.65 618.82C1020.14 619.636 1021.29 620.8 1022.11 622.312C1022.95 623.8 1023.37 625.528 1023.37 627.496ZM1013.65 621.16C1012.21 621.16 1010.99 621.592 1009.98 622.456C1008.99 623.296 1008.39 624.424 1008.18 625.84H1019.09C1018.89 624.448 1018.31 623.32 1017.32 622.456C1016.34 621.592 1015.11 621.16 1013.65 621.16ZM1027.69 610.288H1032.19V637H1027.69V610.288ZM1046.74 637.252C1044.79 637.252 1043.04 636.832 1041.48 635.992C1039.92 635.152 1038.7 633.988 1037.81 632.5C1036.95 630.988 1036.51 629.284 1036.51 627.388C1036.51 625.492 1036.95 623.8 1037.81 622.312C1038.7 620.824 1039.92 619.66 1041.48 618.82C1043.04 617.98 1044.79 617.56 1046.74 617.56C1048.71 617.56 1050.47 617.98 1052.03 618.82C1053.59 619.66 1054.8 620.824 1055.67 622.312C1056.55 623.8 1057 625.492 1057 627.388C1057 629.284 1056.55 630.988 1055.67 632.5C1054.8 633.988 1053.59 635.152 1052.03 635.992C1050.47 636.832 1048.71 637.252 1046.74 637.252ZM1046.74 633.4C1048.39 633.4 1049.76 632.848 1050.84 631.744C1051.92 630.64 1052.46 629.188 1052.46 627.388C1052.46 625.588 1051.92 624.136 1050.84 623.032C1049.76 621.928 1048.39 621.376 1046.74 621.376C1045.08 621.376 1043.71 621.928 1042.63 623.032C1041.58 624.136 1041.05 625.588 1041.05 627.388C1041.05 629.188 1041.58 630.64 1042.63 631.744C1043.71 632.848 1045.08 633.4 1046.74 633.4ZM1071.96 617.56C1073.83 617.56 1075.5 617.968 1076.96 618.784C1078.45 619.6 1079.61 620.752 1080.45 622.24C1081.29 623.728 1081.71 625.444 1081.71 627.388C1081.71 629.332 1081.29 631.06 1080.45 632.572C1079.61 634.06 1078.45 635.212 1076.96 636.028C1075.5 636.844 1073.83 637.252 1071.96 637.252C1069.37 637.252 1067.31 636.388 1065.8 634.66V643.984H1061.3V617.776H1065.59V620.296C1066.33 619.384 1067.24 618.7 1068.32 618.244C1069.43 617.788 1070.64 617.56 1071.96 617.56ZM1071.45 633.4C1073.11 633.4 1074.47 632.848 1075.52 631.744C1076.6 630.64 1077.14 629.188 1077.14 627.388C1077.14 625.588 1076.6 624.136 1075.52 623.032C1074.47 621.928 1073.11 621.376 1071.45 621.376C1070.37 621.376 1069.4 621.628 1068.54 622.132C1067.67 622.612 1066.99 623.308 1066.49 624.22C1065.98 625.132 1065.73 626.188 1065.73 627.388C1065.73 628.588 1065.98 629.644 1066.49 630.556C1066.99 631.468 1067.67 632.176 1068.54 632.68C1069.4 633.16 1070.37 633.4 1071.45 633.4ZM1096.64 617.56C1098.51 617.56 1100.18 617.968 1101.64 618.784C1103.13 619.6 1104.29 620.752 1105.13 622.24C1105.97 623.728 1106.39 625.444 1106.39 627.388C1106.39 629.332 1105.97 631.06 1105.13 632.572C1104.29 634.06 1103.13 635.212 1101.64 636.028C1100.18 636.844 1098.51 637.252 1096.64 637.252C1094.05 637.252 1091.99 636.388 1090.48 634.66V643.984H1085.98V617.776H1090.27V620.296C1091.01 619.384 1091.92 618.7 1093 618.244C1094.11 617.788 1095.32 617.56 1096.64 617.56ZM1096.13 633.4C1097.79 633.4 1099.15 632.848 1100.2 631.744C1101.28 630.64 1101.82 629.188 1101.82 627.388C1101.82 625.588 1101.28 624.136 1100.2 623.032C1099.15 621.928 1097.79 621.376 1096.13 621.376C1095.05 621.376 1094.08 621.628 1093.22 622.132C1092.35 622.612 1091.67 623.308 1091.17 624.22C1090.66 625.132 1090.41 626.188 1090.41 627.388C1090.41 628.588 1090.66 629.644 1091.17 630.556C1091.67 631.468 1092.35 632.176 1093.22 632.68C1094.08 633.16 1095.05 633.4 1096.13 633.4ZM1128.73 627.496C1128.73 627.808 1128.71 628.252 1128.66 628.828H1113.58C1113.84 630.244 1114.52 631.372 1115.63 632.212C1116.76 633.028 1118.15 633.436 1119.8 633.436C1121.92 633.436 1123.66 632.74 1125.02 631.348L1127.44 634.12C1126.57 635.152 1125.48 635.932 1124.16 636.46C1122.84 636.988 1121.35 637.252 1119.7 637.252C1117.58 637.252 1115.72 636.832 1114.12 635.992C1112.51 635.152 1111.26 633.988 1110.37 632.5C1109.51 630.988 1109.08 629.284 1109.08 627.388C1109.08 625.516 1109.5 623.836 1110.34 622.348C1111.2 620.836 1112.39 619.66 1113.9 618.82C1115.41 617.98 1117.12 617.56 1119.01 617.56C1120.88 617.56 1122.55 617.98 1124.02 618.82C1125.5 619.636 1126.66 620.8 1127.47 622.312C1128.31 623.8 1128.73 625.528 1128.73 627.496ZM1119.01 621.16C1117.57 621.16 1116.35 621.592 1115.34 622.456C1114.36 623.296 1113.76 624.424 1113.54 625.84H1124.45C1124.26 624.448 1123.67 623.32 1122.68 622.456C1121.7 621.592 1120.48 621.16 1119.01 621.16ZM1151.67 617.776V637H1147.38V634.552C1146.66 635.416 1145.76 636.088 1144.68 636.568C1143.6 637.024 1142.44 637.252 1141.19 637.252C1138.62 637.252 1136.6 636.544 1135.11 635.128C1133.64 633.688 1132.91 631.564 1132.91 628.756V617.776H1137.41V628.144C1137.41 629.872 1137.8 631.168 1138.56 632.032C1139.36 632.872 1140.47 633.292 1141.91 633.292C1143.52 633.292 1144.79 632.8 1145.73 631.816C1146.69 630.808 1147.17 629.368 1147.17 627.496V617.776H1151.67ZM1161.84 620.584C1163.14 618.568 1165.42 617.56 1168.68 617.56V621.844C1168.3 621.772 1167.95 621.736 1167.64 621.736C1165.89 621.736 1164.52 622.252 1163.54 623.284C1162.55 624.292 1162.06 625.756 1162.06 627.676V637H1157.56V617.776H1161.84V620.584ZM967.449 659.724V667.392H979.617V671.352H967.449V681H962.769V655.8H981.165V659.724H967.449ZM1003.34 661.776V681H999.059V678.552C998.339 679.416 997.439 680.088 996.359 680.568C995.279 681.024 994.115 681.252 992.867 681.252C990.299 681.252 988.271 680.544 986.783 679.128C985.319 677.688 984.587 675.564 984.587 672.756V661.776H989.087V672.144C989.087 673.872 989.471 675.168 990.239 676.032C991.031 676.872 992.147 677.292 993.587 677.292C995.195 677.292 996.467 676.8 997.403 675.816C998.363 674.808 998.843 673.368 998.843 671.496V661.776H1003.34ZM1009.24 654.288H1013.74V681H1009.24V654.288ZM1019.64 654.288H1024.14V681H1019.64V654.288ZM1048.24 681.36C1046.3 681.36 1044.41 681.084 1042.59 680.532C1040.79 679.98 1039.36 679.248 1038.3 678.336L1039.92 674.7C1040.96 675.516 1042.22 676.188 1043.7 676.716C1045.22 677.22 1046.73 677.472 1048.24 677.472C1050.11 677.472 1051.5 677.172 1052.42 676.572C1053.35 675.972 1053.82 675.18 1053.82 674.196C1053.82 673.476 1053.56 672.888 1053.03 672.432C1052.52 671.952 1051.88 671.58 1051.08 671.316C1050.29 671.052 1049.21 670.752 1047.84 670.416C1045.92 669.96 1044.36 669.504 1043.16 669.048C1041.99 668.592 1040.97 667.884 1040.1 666.924C1039.26 665.94 1038.84 664.62 1038.84 662.964C1038.84 661.572 1039.22 660.312 1039.96 659.184C1040.73 658.032 1041.87 657.12 1043.38 656.448C1044.92 655.776 1046.79 655.44 1049 655.44C1050.53 655.44 1052.04 655.632 1053.53 656.016C1055.02 656.4 1056.3 656.952 1057.38 657.672L1055.91 661.308C1054.8 660.66 1053.65 660.168 1052.45 659.832C1051.25 659.496 1050.09 659.328 1048.96 659.328C1047.11 659.328 1045.73 659.64 1044.82 660.264C1043.93 660.888 1043.49 661.716 1043.49 662.748C1043.49 663.468 1043.74 664.056 1044.24 664.512C1044.77 664.968 1045.43 665.328 1046.22 665.592C1047.02 665.856 1048.1 666.156 1049.46 666.492C1051.34 666.924 1052.87 667.38 1054.07 667.86C1055.27 668.316 1056.29 669.024 1057.13 669.984C1058 670.944 1058.43 672.24 1058.43 673.872C1058.43 675.264 1058.04 676.524 1057.28 677.652C1056.53 678.78 1055.39 679.68 1053.86 680.352C1052.32 681.024 1050.45 681.36 1048.24 681.36ZM1074.19 679.956C1073.67 680.388 1073.02 680.712 1072.25 680.928C1071.51 681.144 1070.71 681.252 1069.87 681.252C1067.76 681.252 1066.13 680.7 1064.98 679.596C1063.83 678.492 1063.25 676.884 1063.25 674.772V665.52H1060.08V661.92H1063.25V657.528H1067.75V661.92H1072.9V665.52H1067.75V674.664C1067.75 675.6 1067.98 676.32 1068.43 676.824C1068.89 677.304 1069.55 677.544 1070.41 677.544C1071.42 677.544 1072.26 677.28 1072.93 676.752L1074.19 679.956ZM1085.24 661.56C1088.07 661.56 1090.23 662.244 1091.72 663.612C1093.23 664.956 1093.99 666.996 1093.99 669.732V681H1089.74V678.66C1089.19 679.5 1088.4 680.148 1087.36 680.604C1086.36 681.036 1085.13 681.252 1083.69 681.252C1082.25 681.252 1080.99 681.012 1079.91 680.532C1078.83 680.028 1077.99 679.344 1077.39 678.48C1076.82 677.592 1076.53 676.596 1076.53 675.492C1076.53 673.764 1077.16 672.384 1078.44 671.352C1079.73 670.296 1081.76 669.768 1084.52 669.768H1089.49V669.48C1089.49 668.136 1089.08 667.104 1088.26 666.384C1087.47 665.664 1086.28 665.304 1084.7 665.304C1083.62 665.304 1082.55 665.472 1081.5 665.808C1080.46 666.144 1079.59 666.612 1078.87 667.212L1077.1 663.936C1078.11 663.168 1079.32 662.58 1080.74 662.172C1082.16 661.764 1083.66 661.56 1085.24 661.56ZM1084.63 677.976C1085.76 677.976 1086.75 677.724 1087.62 677.22C1088.5 676.692 1089.13 675.948 1089.49 674.988V672.756H1084.84C1082.25 672.756 1080.96 673.608 1080.96 675.312C1080.96 676.128 1081.28 676.776 1081.93 677.256C1082.58 677.736 1083.48 677.976 1084.63 677.976ZM1108.76 681.252C1106.77 681.252 1104.98 680.832 1103.39 679.992C1101.81 679.152 1100.57 677.988 1099.69 676.5C1098.8 674.988 1098.35 673.284 1098.35 671.388C1098.35 669.492 1098.8 667.8 1099.69 666.312C1100.57 664.824 1101.8 663.66 1103.36 662.82C1104.94 661.98 1106.74 661.56 1108.76 661.56C1110.65 661.56 1112.31 661.944 1113.73 662.712C1115.17 663.48 1116.25 664.584 1116.97 666.024L1113.51 668.04C1112.96 667.152 1112.26 666.492 1111.42 666.06C1110.61 665.604 1109.71 665.376 1108.72 665.376C1107.04 665.376 1105.65 665.928 1104.55 667.032C1103.44 668.112 1102.89 669.564 1102.89 671.388C1102.89 673.212 1103.43 674.676 1104.51 675.78C1105.61 676.86 1107.02 677.4 1108.72 677.4C1109.71 677.4 1110.61 677.184 1111.42 676.752C1112.26 676.296 1112.96 675.624 1113.51 674.736L1116.97 676.752C1116.22 678.192 1115.13 679.308 1113.69 680.1C1112.27 680.868 1110.63 681.252 1108.76 681.252ZM1128.53 672.756L1125.18 675.924V681H1120.68V654.288H1125.18V670.416L1134.5 661.776H1139.9L1131.88 669.84L1140.66 681H1135.19L1128.53 672.756Z" fill="#EFEFEF"/>
<path d="M926.685 224.8H937.701C940.389 224.8 942.777 225.328 944.865 226.384C946.953 227.416 948.573 228.892 949.725 230.812C950.877 232.708 951.453 234.904 951.453 237.4C951.453 239.896 950.877 242.104 949.725 244.024C948.573 245.92 946.953 247.396 944.865 248.452C942.777 249.484 940.389 250 937.701 250H926.685V224.8ZM937.485 246.04C939.333 246.04 940.953 245.692 942.345 244.996C943.761 244.276 944.841 243.268 945.585 241.972C946.353 240.652 946.737 239.128 946.737 237.4C946.737 235.672 946.353 234.16 945.585 232.864C944.841 231.544 943.761 230.536 942.345 229.84C940.953 229.12 939.333 228.76 937.485 228.76H931.365V246.04H937.485ZM974.067 240.496C974.067 240.808 974.043 241.252 973.995 241.828H958.911C959.175 243.244 959.859 244.372 960.963 245.212C962.091 246.028 963.483 246.436 965.139 246.436C967.251 246.436 968.991 245.74 970.359 244.348L972.771 247.12C971.907 248.152 970.815 248.932 969.495 249.46C968.175 249.988 966.687 250.252 965.031 250.252C962.919 250.252 961.059 249.832 959.451 248.992C957.843 248.152 956.595 246.988 955.707 245.5C954.843 243.988 954.411 242.284 954.411 240.388C954.411 238.516 954.831 236.836 955.671 235.348C956.535 233.836 957.723 232.66 959.235 231.82C960.747 230.98 962.451 230.56 964.347 230.56C966.219 230.56 967.887 230.98 969.351 231.82C970.839 232.636 971.991 233.8 972.807 235.312C973.647 236.8 974.067 238.528 974.067 240.496ZM964.347 234.16C962.907 234.16 961.683 234.592 960.675 235.456C959.691 236.296 959.091 237.424 958.875 238.84H969.783C969.591 237.448 969.003 236.32 968.019 235.456C967.035 234.592 965.811 234.16 964.347 234.16ZM966.075 223.216H971.367L965.103 228.148H961.215L966.075 223.216ZM996.038 230.776L987.794 250H983.15L974.906 230.776H979.586L985.562 245.032L991.718 230.776H996.038ZM1016.4 240.496C1016.4 240.808 1016.37 241.252 1016.32 241.828H1001.24C1001.5 243.244 1002.19 244.372 1003.29 245.212C1004.42 246.028 1005.81 246.436 1007.47 246.436C1009.58 246.436 1011.32 245.74 1012.69 244.348L1015.1 247.12C1014.24 248.152 1013.14 248.932 1011.82 249.46C1010.5 249.988 1009.02 250.252 1007.36 250.252C1005.25 250.252 1003.39 249.832 1001.78 248.992C1000.17 248.152 998.923 246.988 998.035 245.5C997.171 243.988 996.739 242.284 996.739 240.388C996.739 238.516 997.159 236.836 997.999 235.348C998.863 233.836 1000.05 232.66 1001.56 231.82C1003.08 230.98 1004.78 230.56 1006.68 230.56C1008.55 230.56 1010.22 230.98 1011.68 231.82C1013.17 232.636 1014.32 233.8 1015.14 235.312C1015.98 236.8 1016.4 238.528 1016.4 240.496ZM1006.68 234.16C1005.24 234.16 1004.01 234.592 1003 235.456C1002.02 236.296 1001.42 237.424 1001.2 238.84H1012.11C1011.92 237.448 1011.33 236.32 1010.35 235.456C1009.36 234.592 1008.14 234.16 1006.68 234.16ZM1020.72 223.288H1025.22V250H1020.72V223.288ZM1039.76 250.252C1037.82 250.252 1036.07 249.832 1034.51 248.992C1032.95 248.152 1031.72 246.988 1030.84 245.5C1029.97 243.988 1029.54 242.284 1029.54 240.388C1029.54 238.492 1029.97 236.8 1030.84 235.312C1031.72 233.824 1032.95 232.66 1034.51 231.82C1036.07 230.98 1037.82 230.56 1039.76 230.56C1041.73 230.56 1043.5 230.98 1045.06 231.82C1046.62 232.66 1047.83 233.824 1048.69 235.312C1049.58 236.8 1050.02 238.492 1050.02 240.388C1050.02 242.284 1049.58 243.988 1048.69 245.5C1047.83 246.988 1046.62 248.152 1045.06 248.992C1043.5 249.832 1041.73 250.252 1039.76 250.252ZM1039.76 246.4C1041.42 246.4 1042.79 245.848 1043.87 244.744C1044.95 243.64 1045.49 242.188 1045.49 240.388C1045.49 238.588 1044.95 237.136 1043.87 236.032C1042.79 234.928 1041.42 234.376 1039.76 234.376C1038.11 234.376 1036.74 234.928 1035.66 236.032C1034.6 237.136 1034.08 238.588 1034.08 240.388C1034.08 242.188 1034.6 243.64 1035.66 244.744C1036.74 245.848 1038.11 246.4 1039.76 246.4ZM1064.98 230.56C1066.86 230.56 1068.52 230.968 1069.99 231.784C1071.48 232.6 1072.64 233.752 1073.48 235.24C1074.32 236.728 1074.74 238.444 1074.74 240.388C1074.74 242.332 1074.32 244.06 1073.48 245.572C1072.64 247.06 1071.48 248.212 1069.99 249.028C1068.52 249.844 1066.86 250.252 1064.98 250.252C1062.39 250.252 1060.34 249.388 1058.83 247.66V256.984H1054.33V230.776H1058.61V233.296C1059.36 232.384 1060.27 231.7 1061.35 231.244C1062.45 230.788 1063.66 230.56 1064.98 230.56ZM1064.48 246.4C1066.14 246.4 1067.49 245.848 1068.55 244.744C1069.63 243.64 1070.17 242.188 1070.17 240.388C1070.17 238.588 1069.63 237.136 1068.55 236.032C1067.49 234.928 1066.14 234.376 1064.48 234.376C1063.4 234.376 1062.43 234.628 1061.56 235.132C1060.7 235.612 1060.02 236.308 1059.51 237.22C1059.01 238.132 1058.76 239.188 1058.76 240.388C1058.76 241.588 1059.01 242.644 1059.51 243.556C1060.02 244.468 1060.7 245.176 1061.56 245.68C1062.43 246.16 1063.4 246.4 1064.48 246.4ZM1089.66 230.56C1091.53 230.56 1093.2 230.968 1094.67 231.784C1096.15 232.6 1097.32 233.752 1098.16 235.24C1099 236.728 1099.42 238.444 1099.42 240.388C1099.42 242.332 1099 244.06 1098.16 245.572C1097.32 247.06 1096.15 248.212 1094.67 249.028C1093.2 249.844 1091.53 250.252 1089.66 250.252C1087.07 250.252 1085.02 249.388 1083.51 247.66V256.984H1079.01V230.776H1083.29V233.296C1084.03 232.384 1084.95 231.7 1086.03 231.244C1087.13 230.788 1088.34 230.56 1089.66 230.56ZM1089.16 246.4C1090.81 246.4 1092.17 245.848 1093.23 244.744C1094.31 243.64 1094.85 242.188 1094.85 240.388C1094.85 238.588 1094.31 237.136 1093.23 236.032C1092.17 234.928 1090.81 234.376 1089.16 234.376C1088.08 234.376 1087.11 234.628 1086.24 235.132C1085.38 235.612 1084.69 236.308 1084.19 237.22C1083.69 238.132 1083.43 239.188 1083.43 240.388C1083.43 241.588 1083.69 242.644 1084.19 243.556C1084.69 244.468 1085.38 245.176 1086.24 245.68C1087.11 246.16 1088.08 246.4 1089.16 246.4ZM1121.76 240.496C1121.76 240.808 1121.73 241.252 1121.69 241.828H1106.6C1106.87 243.244 1107.55 244.372 1108.65 245.212C1109.78 246.028 1111.17 246.436 1112.83 246.436C1114.94 246.436 1116.68 245.74 1118.05 244.348L1120.46 247.12C1119.6 248.152 1118.51 248.932 1117.19 249.46C1115.87 249.988 1114.38 250.252 1112.72 250.252C1110.61 250.252 1108.75 249.832 1107.14 248.992C1105.53 248.152 1104.29 246.988 1103.4 245.5C1102.53 243.988 1102.1 242.284 1102.1 240.388C1102.1 238.516 1102.52 236.836 1103.36 235.348C1104.23 233.836 1105.41 232.66 1106.93 231.82C1108.44 230.98 1110.14 230.56 1112.04 230.56C1113.91 230.56 1115.58 230.98 1117.04 231.82C1118.53 232.636 1119.68 233.8 1120.5 235.312C1121.34 236.8 1121.76 238.528 1121.76 240.496ZM1112.04 234.16C1110.6 234.16 1109.37 234.592 1108.37 235.456C1107.38 236.296 1106.78 237.424 1106.57 238.84H1117.47C1117.28 237.448 1116.69 236.32 1115.71 235.456C1114.73 234.592 1113.5 234.16 1112.04 234.16ZM1144.69 230.776V250H1140.41V247.552C1139.69 248.416 1138.79 249.088 1137.71 249.568C1136.63 250.024 1135.46 250.252 1134.22 250.252C1131.65 250.252 1129.62 249.544 1128.13 248.128C1126.67 246.688 1125.94 244.564 1125.94 241.756V230.776H1130.44V241.144C1130.44 242.872 1130.82 244.168 1131.59 245.032C1132.38 245.872 1133.5 246.292 1134.94 246.292C1136.54 246.292 1137.82 245.8 1138.75 244.816C1139.71 243.808 1140.19 242.368 1140.19 240.496V230.776H1144.69ZM1154.87 233.584C1156.16 231.568 1158.44 230.56 1161.71 230.56V234.844C1161.32 234.772 1160.98 234.736 1160.66 234.736C1158.91 234.736 1157.54 235.252 1156.56 236.284C1155.58 237.292 1155.08 238.756 1155.08 240.676V250H1150.58V230.776H1154.87V233.584ZM980.101 280.896C981.493 281.352 982.597 282.12 983.413 283.2C984.229 284.256 984.637 285.576 984.637 287.16C984.637 289.344 983.797 291.036 982.117 292.236C980.437 293.412 977.989 294 974.773 294H962.245V268.8H974.053C977.029 268.8 979.321 269.388 980.929 270.564C982.537 271.716 983.341 273.312 983.341 275.352C983.341 276.6 983.053 277.704 982.477 278.664C981.901 279.624 981.109 280.368 980.101 280.896ZM966.925 272.472V279.42H973.549C975.181 279.42 976.429 279.132 977.293 278.556C978.181 277.956 978.625 277.092 978.625 275.964C978.625 274.812 978.181 273.948 977.293 273.372C976.429 272.772 975.181 272.472 973.549 272.472H966.925ZM974.485 290.328C978.109 290.328 979.921 289.116 979.921 286.692C979.921 284.268 978.109 283.056 974.485 283.056H966.925V290.328H974.485ZM996.544 274.56C999.376 274.56 1001.54 275.244 1003.02 276.612C1004.54 277.956 1005.29 279.996 1005.29 282.732V294H1001.04V291.66C1000.49 292.5 999.7 293.148 998.668 293.604C997.66 294.036 996.436 294.252 994.996 294.252C993.556 294.252 992.296 294.012 991.216 293.532C990.136 293.028 989.296 292.344 988.696 291.48C988.12 290.592 987.832 289.596 987.832 288.492C987.832 286.764 988.468 285.384 989.74 284.352C991.036 283.296 993.064 282.768 995.824 282.768H1000.79V282.48C1000.79 281.136 1000.38 280.104 999.568 279.384C998.776 278.664 997.588 278.304 996.004 278.304C994.924 278.304 993.856 278.472 992.8 278.808C991.768 279.144 990.892 279.612 990.172 280.212L988.408 276.936C989.416 276.168 990.628 275.58 992.044 275.172C993.46 274.764 994.96 274.56 996.544 274.56ZM995.932 290.976C997.06 290.976 998.056 290.724 998.92 290.22C999.808 289.692 1000.43 288.948 1000.79 287.988V285.756H996.148C993.556 285.756 992.26 286.608 992.26 288.312C992.26 289.128 992.584 289.776 993.232 290.256C993.88 290.736 994.78 290.976 995.932 290.976ZM1020.06 294.252C1018.07 294.252 1016.28 293.832 1014.7 292.992C1013.12 292.152 1011.88 290.988 1010.99 289.5C1010.1 287.988 1009.66 286.284 1009.66 284.388C1009.66 282.492 1010.1 280.8 1010.99 279.312C1011.88 277.824 1013.1 276.66 1014.66 275.82C1016.25 274.98 1018.05 274.56 1020.06 274.56C1021.96 274.56 1023.62 274.944 1025.03 275.712C1026.47 276.48 1027.55 277.584 1028.27 279.024L1024.82 281.04C1024.26 280.152 1023.57 279.492 1022.73 279.06C1021.91 278.604 1021.01 278.376 1020.03 278.376C1018.35 278.376 1016.96 278.928 1015.85 280.032C1014.75 281.112 1014.2 282.564 1014.2 284.388C1014.2 286.212 1014.74 287.676 1015.82 288.78C1016.92 289.86 1018.32 290.4 1020.03 290.4C1021.01 290.4 1021.91 290.184 1022.73 289.752C1023.57 289.296 1024.26 288.624 1024.82 287.736L1028.27 289.752C1027.53 291.192 1026.44 292.308 1025 293.1C1023.58 293.868 1021.94 294.252 1020.06 294.252ZM1039.83 285.756L1036.49 288.924V294H1031.99V267.288H1036.49V283.416L1045.81 274.776H1051.21L1043.18 282.84L1051.97 294H1046.49L1039.83 285.756ZM1052.99 282.12H1062.89V285.864H1052.99V282.12ZM1086.23 284.496C1086.23 284.808 1086.21 285.252 1086.16 285.828H1071.08C1071.34 287.244 1072.02 288.372 1073.13 289.212C1074.26 290.028 1075.65 290.436 1077.3 290.436C1079.42 290.436 1081.16 289.74 1082.52 288.348L1084.94 291.12C1084.07 292.152 1082.98 292.932 1081.66 293.46C1080.34 293.988 1078.85 294.252 1077.2 294.252C1075.08 294.252 1073.22 293.832 1071.62 292.992C1070.01 292.152 1068.76 290.988 1067.87 289.5C1067.01 287.988 1066.58 286.284 1066.58 284.388C1066.58 282.516 1067 280.836 1067.84 279.348C1068.7 277.836 1069.89 276.66 1071.4 275.82C1072.91 274.98 1074.62 274.56 1076.51 274.56C1078.38 274.56 1080.05 274.98 1081.52 275.82C1083 276.636 1084.16 277.8 1084.97 279.312C1085.81 280.8 1086.23 282.528 1086.23 284.496ZM1076.51 278.16C1075.07 278.16 1073.85 278.592 1072.84 279.456C1071.86 280.296 1071.26 281.424 1071.04 282.84H1081.95C1081.76 281.448 1081.17 280.32 1080.18 279.456C1079.2 278.592 1077.98 278.16 1076.51 278.16ZM1101.46 274.56C1103.89 274.56 1105.83 275.268 1107.3 276.684C1108.76 278.1 1109.49 280.2 1109.49 282.984V294H1104.99V283.56C1104.99 281.88 1104.6 280.62 1103.8 279.78C1103.01 278.916 1101.88 278.484 1100.42 278.484C1098.76 278.484 1097.46 278.988 1096.5 279.996C1095.54 280.98 1095.06 282.408 1095.06 284.28V294H1090.56V274.776H1094.84V277.26C1095.58 276.372 1096.52 275.7 1097.65 275.244C1098.78 274.788 1100.05 274.56 1101.46 274.56ZM1134.2 267.288V294H1129.88V291.516C1129.14 292.428 1128.22 293.112 1127.11 293.568C1126.03 294.024 1124.83 294.252 1123.51 294.252C1121.66 294.252 1120 293.844 1118.51 293.028C1117.04 292.212 1115.89 291.06 1115.05 289.572C1114.21 288.06 1113.79 286.332 1113.79 284.388C1113.79 282.444 1114.21 280.728 1115.05 279.24C1115.89 277.752 1117.04 276.6 1118.51 275.784C1120 274.968 1121.66 274.56 1123.51 274.56C1124.78 274.56 1125.95 274.776 1127 275.208C1128.06 275.64 1128.96 276.288 1129.7 277.152V267.288H1134.2ZM1124.05 290.4C1125.13 290.4 1126.1 290.16 1126.97 289.68C1127.83 289.176 1128.52 288.468 1129.02 287.556C1129.52 286.644 1129.78 285.588 1129.78 284.388C1129.78 283.188 1129.52 282.132 1129.02 281.22C1128.52 280.308 1127.83 279.612 1126.97 279.132C1126.1 278.628 1125.13 278.376 1124.05 278.376C1122.97 278.376 1122 278.628 1121.14 279.132C1120.27 279.612 1119.59 280.308 1119.08 281.22C1118.58 282.132 1118.33 283.188 1118.33 284.388C1118.33 285.588 1118.58 286.644 1119.08 287.556C1119.59 288.468 1120.27 289.176 1121.14 289.68C1122 290.16 1122.97 290.4 1124.05 290.4Z" fill="#EFEFEF"/>
<path d="M1221.16 471.8H1232.18C1234.86 471.8 1237.25 472.328 1239.34 473.384C1241.43 474.416 1243.05 475.892 1244.2 477.812C1245.35 479.708 1245.93 481.904 1245.93 484.4C1245.93 486.896 1245.35 489.104 1244.2 491.024C1243.05 492.92 1241.43 494.396 1239.34 495.452C1237.25 496.484 1234.86 497 1232.18 497H1221.16V471.8ZM1231.96 493.04C1233.81 493.04 1235.43 492.692 1236.82 491.996C1238.24 491.276 1239.32 490.268 1240.06 488.972C1240.83 487.652 1241.21 486.128 1241.21 484.4C1241.21 482.672 1240.83 481.16 1240.06 479.864C1239.32 478.544 1238.24 477.536 1236.82 476.84C1235.43 476.12 1233.81 475.76 1231.96 475.76H1225.84V493.04H1231.96ZM1268.54 487.496C1268.54 487.808 1268.52 488.252 1268.47 488.828H1253.39C1253.65 490.244 1254.33 491.372 1255.44 492.212C1256.57 493.028 1257.96 493.436 1259.61 493.436C1261.73 493.436 1263.47 492.74 1264.83 491.348L1267.25 494.12C1266.38 495.152 1265.29 495.932 1263.97 496.46C1262.65 496.988 1261.16 497.252 1259.51 497.252C1257.39 497.252 1255.53 496.832 1253.93 495.992C1252.32 495.152 1251.07 493.988 1250.18 492.5C1249.32 490.988 1248.89 489.284 1248.89 487.388C1248.89 485.516 1249.31 483.836 1250.15 482.348C1251.01 480.836 1252.2 479.66 1253.71 478.82C1255.22 477.98 1256.93 477.56 1258.82 477.56C1260.69 477.56 1262.36 477.98 1263.83 478.82C1265.31 479.636 1266.47 480.8 1267.28 482.312C1268.12 483.8 1268.54 485.528 1268.54 487.496ZM1258.82 481.16C1257.38 481.16 1256.16 481.592 1255.15 482.456C1254.17 483.296 1253.57 484.424 1253.35 485.84H1264.26C1264.07 484.448 1263.48 483.32 1262.49 482.456C1261.51 481.592 1260.29 481.16 1258.82 481.16ZM1260.55 470.216H1265.84L1259.58 475.148H1255.69L1260.55 470.216ZM1290.51 477.776L1282.27 497H1277.62L1269.38 477.776H1274.06L1280.04 492.032L1286.19 477.776H1290.51ZM1310.87 487.496C1310.87 487.808 1310.85 488.252 1310.8 488.828H1295.71C1295.98 490.244 1296.66 491.372 1297.77 492.212C1298.89 493.028 1300.29 493.436 1301.94 493.436C1304.05 493.436 1305.79 492.74 1307.16 491.348L1309.57 494.12C1308.71 495.152 1307.62 495.932 1306.3 496.46C1304.98 496.988 1303.49 497.252 1301.83 497.252C1299.72 497.252 1297.86 496.832 1296.25 495.992C1294.65 495.152 1293.4 493.988 1292.51 492.5C1291.65 490.988 1291.21 489.284 1291.21 487.388C1291.21 485.516 1291.63 483.836 1292.47 482.348C1293.34 480.836 1294.53 479.66 1296.04 478.82C1297.55 477.98 1299.25 477.56 1301.15 477.56C1303.02 477.56 1304.69 477.98 1306.15 478.82C1307.64 479.636 1308.79 480.8 1309.61 482.312C1310.45 483.8 1310.87 485.528 1310.87 487.496ZM1301.15 481.16C1299.71 481.16 1298.49 481.592 1297.48 482.456C1296.49 483.296 1295.89 484.424 1295.68 485.84H1306.59C1306.39 484.448 1305.81 483.32 1304.82 482.456C1303.84 481.592 1302.61 481.16 1301.15 481.16ZM1315.19 470.288H1319.69V497H1315.19V470.288ZM1334.24 497.252C1332.29 497.252 1330.54 496.832 1328.98 495.992C1327.42 495.152 1326.2 493.988 1325.31 492.5C1324.45 490.988 1324.01 489.284 1324.01 487.388C1324.01 485.492 1324.45 483.8 1325.31 482.312C1326.2 480.824 1327.42 479.66 1328.98 478.82C1330.54 477.98 1332.29 477.56 1334.24 477.56C1336.21 477.56 1337.97 477.98 1339.53 478.82C1341.09 479.66 1342.3 480.824 1343.17 482.312C1344.05 483.8 1344.5 485.492 1344.5 487.388C1344.5 489.284 1344.05 490.988 1343.17 492.5C1342.3 493.988 1341.09 495.152 1339.53 495.992C1337.97 496.832 1336.21 497.252 1334.24 497.252ZM1334.24 493.4C1335.89 493.4 1337.26 492.848 1338.34 491.744C1339.42 490.64 1339.96 489.188 1339.96 487.388C1339.96 485.588 1339.42 484.136 1338.34 483.032C1337.26 481.928 1335.89 481.376 1334.24 481.376C1332.58 481.376 1331.21 481.928 1330.13 483.032C1329.08 484.136 1328.55 485.588 1328.55 487.388C1328.55 489.188 1329.08 490.64 1330.13 491.744C1331.21 492.848 1332.58 493.4 1334.24 493.4ZM1359.46 477.56C1361.33 477.56 1363 477.968 1364.46 478.784C1365.95 479.6 1367.11 480.752 1367.95 482.24C1368.79 483.728 1369.21 485.444 1369.21 487.388C1369.21 489.332 1368.79 491.06 1367.95 492.572C1367.11 494.06 1365.95 495.212 1364.46 496.028C1363 496.844 1361.33 497.252 1359.46 497.252C1356.87 497.252 1354.81 496.388 1353.3 494.66V503.984H1348.8V477.776H1353.09V480.296C1353.83 479.384 1354.74 478.7 1355.82 478.244C1356.93 477.788 1358.14 477.56 1359.46 477.56ZM1358.95 493.4C1360.61 493.4 1361.97 492.848 1363.02 491.744C1364.1 490.64 1364.64 489.188 1364.64 487.388C1364.64 485.588 1364.1 484.136 1363.02 483.032C1361.97 481.928 1360.61 481.376 1358.95 481.376C1357.87 481.376 1356.9 481.628 1356.04 482.132C1355.17 482.612 1354.49 483.308 1353.99 484.22C1353.48 485.132 1353.23 486.188 1353.23 487.388C1353.23 488.588 1353.48 489.644 1353.99 490.556C1354.49 491.468 1355.17 492.176 1356.04 492.68C1356.9 493.16 1357.87 493.4 1358.95 493.4ZM1384.14 477.56C1386.01 477.56 1387.68 477.968 1389.14 478.784C1390.63 479.6 1391.79 480.752 1392.63 482.24C1393.47 483.728 1393.89 485.444 1393.89 487.388C1393.89 489.332 1393.47 491.06 1392.63 492.572C1391.79 494.06 1390.63 495.212 1389.14 496.028C1387.68 496.844 1386.01 497.252 1384.14 497.252C1381.55 497.252 1379.49 496.388 1377.98 494.66V503.984H1373.48V477.776H1377.77V480.296C1378.51 479.384 1379.42 478.7 1380.5 478.244C1381.61 477.788 1382.82 477.56 1384.14 477.56ZM1383.63 493.4C1385.29 493.4 1386.65 492.848 1387.7 491.744C1388.78 490.64 1389.32 489.188 1389.32 487.388C1389.32 485.588 1388.78 484.136 1387.7 483.032C1386.65 481.928 1385.29 481.376 1383.63 481.376C1382.55 481.376 1381.58 481.628 1380.72 482.132C1379.85 482.612 1379.17 483.308 1378.67 484.22C1378.16 485.132 1377.91 486.188 1377.91 487.388C1377.91 488.588 1378.16 489.644 1378.67 490.556C1379.17 491.468 1379.85 492.176 1380.72 492.68C1381.58 493.16 1382.55 493.4 1383.63 493.4ZM1416.23 487.496C1416.23 487.808 1416.21 488.252 1416.16 488.828H1401.08C1401.34 490.244 1402.02 491.372 1403.13 492.212C1404.26 493.028 1405.65 493.436 1407.3 493.436C1409.42 493.436 1411.16 492.74 1412.52 491.348L1414.94 494.12C1414.07 495.152 1412.98 495.932 1411.66 496.46C1410.34 496.988 1408.85 497.252 1407.2 497.252C1405.08 497.252 1403.22 496.832 1401.62 495.992C1400.01 495.152 1398.76 493.988 1397.87 492.5C1397.01 490.988 1396.58 489.284 1396.58 487.388C1396.58 485.516 1397 483.836 1397.84 482.348C1398.7 480.836 1399.89 479.66 1401.4 478.82C1402.91 477.98 1404.62 477.56 1406.51 477.56C1408.38 477.56 1410.05 477.98 1411.52 478.82C1413 479.636 1414.16 480.8 1414.97 482.312C1415.81 483.8 1416.23 485.528 1416.23 487.496ZM1406.51 481.16C1405.07 481.16 1403.85 481.592 1402.84 482.456C1401.86 483.296 1401.26 484.424 1401.04 485.84H1411.95C1411.76 484.448 1411.17 483.32 1410.18 482.456C1409.2 481.592 1407.98 481.16 1406.51 481.16ZM1439.17 477.776V497H1434.88V494.552C1434.16 495.416 1433.26 496.088 1432.18 496.568C1431.1 497.024 1429.94 497.252 1428.69 497.252C1426.12 497.252 1424.1 496.544 1422.61 495.128C1421.14 493.688 1420.41 491.564 1420.41 488.756V477.776H1424.91V488.144C1424.91 489.872 1425.3 491.168 1426.06 492.032C1426.86 492.872 1427.97 493.292 1429.41 493.292C1431.02 493.292 1432.29 492.8 1433.23 491.816C1434.19 490.808 1434.67 489.368 1434.67 487.496V477.776H1439.17ZM1449.34 480.584C1450.64 478.568 1452.92 477.56 1456.18 477.56V481.844C1455.8 481.772 1455.45 481.736 1455.14 481.736C1453.39 481.736 1452.02 482.252 1451.04 483.284C1450.05 484.292 1449.56 485.756 1449.56 487.676V497H1445.06V477.776H1449.34V480.584ZM1334.58 515.8L1326.22 541H1321.26L1315.03 522.352L1308.69 541H1303.69L1295.34 515.8H1300.2L1306.46 534.952L1312.98 515.8H1317.3L1323.67 535.06L1330.11 515.8H1334.58ZM1354.59 531.496C1354.59 531.808 1354.56 532.252 1354.51 532.828H1339.43C1339.69 534.244 1340.38 535.372 1341.48 536.212C1342.61 537.028 1344 537.436 1345.66 537.436C1347.77 537.436 1349.51 536.74 1350.88 535.348L1353.29 538.12C1352.43 539.152 1351.33 539.932 1350.01 540.46C1348.69 540.988 1347.21 541.252 1345.55 541.252C1343.44 541.252 1341.58 540.832 1339.97 539.992C1338.36 539.152 1337.11 537.988 1336.23 536.5C1335.36 534.988 1334.93 533.284 1334.93 531.388C1334.93 529.516 1335.35 527.836 1336.19 526.348C1337.05 524.836 1338.24 523.66 1339.75 522.82C1341.27 521.98 1342.97 521.56 1344.87 521.56C1346.74 521.56 1348.41 521.98 1349.87 522.82C1351.36 523.636 1352.51 524.8 1353.33 526.312C1354.17 527.8 1354.59 529.528 1354.59 531.496ZM1344.87 525.16C1343.43 525.16 1342.2 525.592 1341.19 526.456C1340.21 527.296 1339.61 528.424 1339.39 529.84H1350.3C1350.11 528.448 1349.52 527.32 1348.54 526.456C1347.55 525.592 1346.33 525.16 1344.87 525.16ZM1369.57 521.56C1371.44 521.56 1373.11 521.968 1374.57 522.784C1376.06 523.6 1377.22 524.752 1378.06 526.24C1378.9 527.728 1379.32 529.444 1379.32 531.388C1379.32 533.332 1378.9 535.06 1378.06 536.572C1377.22 538.06 1376.06 539.212 1374.57 540.028C1373.11 540.844 1371.44 541.252 1369.57 541.252C1368.25 541.252 1367.03 541.024 1365.93 540.568C1364.85 540.112 1363.94 539.428 1363.19 538.516V541H1358.91V514.288H1363.41V524.116C1364.18 523.276 1365.08 522.64 1366.11 522.208C1367.17 521.776 1368.32 521.56 1369.57 521.56ZM1369.06 537.4C1370.72 537.4 1372.07 536.848 1373.13 535.744C1374.21 534.64 1374.75 533.188 1374.75 531.388C1374.75 529.588 1374.21 528.136 1373.13 527.032C1372.07 525.928 1370.72 525.376 1369.06 525.376C1367.98 525.376 1367.01 525.628 1366.15 526.132C1365.28 526.612 1364.6 527.308 1364.09 528.22C1363.59 529.132 1363.34 530.188 1363.34 531.388C1363.34 532.588 1363.59 533.644 1364.09 534.556C1364.6 535.468 1365.28 536.176 1366.15 536.68C1367.01 537.16 1367.98 537.4 1369.06 537.4Z" fill="#EFEFEF"/>
</g>
<defs>
<linearGradient id="paint0_linear" x1="410.143" y1="208" x2="410.143" y2="316.75" gradientUnits="userSpaceOnUse">
<stop stop-color="#B29FD8"/>
<stop offset="1" stop-color="#7B62A2"/>
</linearGradient>
<linearGradient id="paint1_linear" x1="441.25" y1="208.5" x2="441.25" y2="316.75" gradientUnits="userSpaceOnUse">
<stop stop-color="#BCA8E0"/>
<stop offset="1" stop-color="#8668B2"/>
</linearGradient>
<linearGradient id="paint2_linear" x1="311.143" y1="510" x2="311.143" y2="618.75" gradientUnits="userSpaceOnUse">
<stop stop-color="#99ADD2"/>
<stop offset="1" stop-color="#506A92"/>
</linearGradient>
<linearGradient id="paint3_linear" x1="342.25" y1="510.5" x2="342.25" y2="618.75" gradientUnits="userSpaceOnUse">
<stop stop-color="#ABB7E1"/>
<stop offset="1" stop-color="#7B88BF"/>
</linearGradient>
<linearGradient id="paint4_linear" x1="1023.14" y1="95" x2="1023.14" y2="203.75" gradientUnits="userSpaceOnUse">
<stop stop-color="#91CC97"/>
<stop offset="1" stop-color="#569863"/>
</linearGradient>
<linearGradient id="paint5_linear" x1="1054.25" y1="95.5" x2="1054.25" y2="203.75" gradientUnits="userSpaceOnUse">
<stop stop-color="#ACE2B1"/>
<stop offset="1" stop-color="#7EC187"/>
</linearGradient>
<linearGradient id="paint6_linear" x1="1033.14" y1="481" x2="1033.14" y2="589.75" gradientUnits="userSpaceOnUse">
<stop stop-color="#D39E99"/>
<stop offset="1" stop-color="#915F4F"/>
</linearGradient>
<linearGradient id="paint7_linear" x1="1064.25" y1="481.5" x2="1064.25" y2="589.75" gradientUnits="userSpaceOnUse">
<stop stop-color="#BF9F7B"/>
<stop offset="1" stop-color="#DFB6A8"/>
</linearGradient>
<linearGradient id="paint8_linear" x1="1323.14" y1="335" x2="1323.14" y2="443.75" gradientUnits="userSpaceOnUse">
<stop stop-color="#D1CC98"/>
<stop offset="1" stop-color="#939051"/>
</linearGradient>
<linearGradient id="paint9_linear" x1="1354.25" y1="335.5" x2="1354.25" y2="443.75" gradientUnits="userSpaceOnUse">
<stop stop-color="#DEE2AC"/>
<stop offset="1" stop-color="#BABE79"/>
</linearGradient>
<clipPath id="clip0">
<rect width="1772" height="800" fill="white"/>
</clipPath>
</defs>
</svg>
