<svg width="1746" height="869" viewBox="0 0 1746 869" fill="none" xmlns="http://www.w3.org/2000/svg">
<g clip-path="url(#clip0)">
<path d="M1707.83 382.222C1705.35 382.394 1703.46 382.075 1702.34 381.885C1701.26 381.7 1700.78 381.631 1699.94 381.763C1699.38 381.852 1698.72 382.027 1697.98 382.273C1696.49 382.784 1695.38 383.153 1694.55 383.439C1693.1 384.786 1690.88 386.528 1686.57 389.29C1686.73 389.402 1686.88 389.519 1687.03 389.637C1688.48 389.643 1689.99 389.747 1691.59 389.946C1694.04 388.3 1697.45 386.513 1702.31 384.606C1704.04 383.927 1705.42 383.387 1706.51 382.957C1706.95 382.692 1707.39 382.448 1707.83 382.222ZM280.309 70.7904C303.176 67.1856 312.95 70.3819 321.574 73.1989C324.681 74.2166 327.621 75.1766 331.369 75.8951C345.805 78.6519 349.305 81.501 355.247 87.1782C356.812 88.6672 358.667 90.4461 361.25 92.6174C367.768 98.0997 368.837 100.553 370.038 104.104C370.848 106.504 371.862 109.49 377.208 116.46C385.472 127.25 427.116 133.913 441.048 135.396L442.579 135.558L457.928 140.477L487.377 140.542L507.017 135.485C514.137 133.651 521.175 132.179 527.903 131.118C539.682 129.261 546.792 129.255 547.569 129.26L548.252 129.263L601.251 133.643L627.958 142.66L634.713 154.316L634.827 155.037C634.833 155.036 636.85 163.098 654.705 173.363C664.784 179.16 667.426 178.744 669.002 178.495C671.775 178.058 676.171 176.599 681.744 174.757C686.446 173.197 692.306 171.256 699.496 169.162C701.861 168.471 704.014 167.843 705.877 167.3C707.705 164.206 712.142 161.3 716.881 158.569C723.978 154.483 725.756 152.953 727.057 151.842C731.231 148.27 733.828 146.867 754.323 138.764C765.17 134.476 775.135 131.596 783.953 130.206C799.21 127.801 807.261 130.396 810.101 131.68L826.046 137.788C836.695 141.871 840.888 147.078 841.911 151.644L856.465 152.036C860.825 147.461 869.633 137.202 884.58 115.733C896.138 99.1222 901.552 92.6789 912.636 90.9317C917.73 90.1286 921.676 90.9503 924.553 91.5476C927.653 92.1936 930.102 92.7039 935.197 91.9007C937.662 91.5121 940.485 90.8389 943.588 89.9099C949.123 88.2383 955.142 86.89 961.478 85.8913C997.996 80.1345 1036.71 87.3129 1041.96 88.3493L1090.42 94.9007C1120.63 98.9879 1121.21 99.0646 1120.85 104.164L1120.85 104.168C1122.3 104.707 1124.3 105.402 1127.05 106.272C1164.79 118.224 1170.32 137.16 1170.53 137.959L1177.44 157.349L1180.28 175.343L1187.6 189.041C1193.07 193.058 1200.95 197.53 1204.95 198.298C1208.92 196.739 1216.24 193.988 1231.35 189.806C1230.4 188.724 1229.75 187.434 1229.5 185.891C1228.61 180.214 1228.4 178.867 1231.01 176.111L1231.01 176.112C1230.97 176.118 1231.78 174.677 1232.97 169.501C1236.19 155.393 1250.03 151.741 1255.82 150.828C1258.43 150.418 1260.81 150.301 1262.8 150.329L1291.77 139.887L1337.79 152.628L1356.7 174.948L1356.51 187.491C1356.47 189.46 1356.58 190.907 1356.73 191.951L1390.44 190.192L1402.03 188.365L1403.43 188.347C1408.37 188.279 1452.26 187.846 1471.74 193.124C1492.46 198.732 1483.69 210.18 1477.29 218.538C1474.22 222.544 1470.73 227.085 1468.19 232.354C1467.57 233.619 1467.08 234.694 1466.7 235.604C1468.09 235.328 1469.58 235.052 1471.15 234.805L1499.52 230.332L1524.79 232.103L1557.94 230.54L1564.9 234.173L1577.15 232.243L1585.77 242.17L1580.71 254.363L1582.68 254.784L1612.24 248.362L1628.22 255.603L1648.35 270.8L1640.99 284.989L1631.1 300.039L1629.43 314.922C1628.86 320.099 1627.77 329.731 1614.63 331.802C1612.86 332.081 1611.15 332.156 1609.53 332.029L1600.32 338.38L1567.55 351.385L1540.06 362.473L1532.45 368.721L1522.57 383.654L1523.71 390.841L1536.34 400.482L1593.14 392.256L1598.06 390.891L1624.06 381.249L1675.09 359.265L1712.01 357.021L1718.32 368.841C1720.28 372.503 1721.58 374.925 1718.25 378.142L1717.54 378.824C1717.84 378.77 1718.14 378.72 1718.44 378.672C1731.81 376.565 1741.83 382.884 1743.71 384.17L1745.85 385.645L1745.94 387.75C1745.96 388.28 1746.43 400.859 1743.46 410.963C1742.67 413.677 1739.01 420.265 1722.41 422.883C1710.94 424.69 1696.21 424.076 1688.46 423.551C1668.69 432.469 1639.22 447.528 1632.69 455.622C1631.14 457.542 1630.41 458.725 1630.06 459.4C1630.12 459.421 1630.18 459.446 1630.23 459.472C1633.25 460.861 1638.31 463.182 1640.35 468.814C1641.31 471.466 1643.19 473.116 1645.8 475.404C1650.49 479.516 1656.33 484.636 1658.2 496.514C1658.98 501.444 1661.34 516.454 1643.04 519.34C1642.64 519.402 1642.26 519.453 1641.89 519.494L1604.72 537.36C1595.52 541.781 1588.24 544.312 1581.8 545.327C1574.64 546.455 1568.5 545.64 1564.5 543.035C1559.88 540.024 1559.34 535.2 1560.27 530.622C1548.01 532.611 1530.35 535.861 1511.6 540.591C1487.33 546.706 1489.51 557.8 1489.84 559.044L1489.92 559.428L1490.99 566.199C1494.83 568.883 1503.91 575.442 1515.78 585.426C1523.1 591.581 1525.41 597.781 1522.64 603.86C1520.63 608.255 1516.4 611.457 1513.1 613.408L1506.28 625.549L1505.34 626.423C1504.9 626.831 1494.21 636.643 1468.97 651.993C1457.03 659.246 1451.87 661.142 1447.39 661.848C1442.55 662.611 1438.11 661.857 1435.52 659.828C1434.69 659.173 1434.1 658.44 1433.75 657.632C1417.31 657.066 1383.56 655.493 1344.12 651.349C1304.64 647.199 1296.42 644.903 1297.8 638.403C1297.82 638.32 1297.84 638.236 1297.87 638.148L1276.92 622.797L1260.27 611.208C1249.33 611.059 1218.06 611.103 1189.59 615.594C1187.44 615.934 1185.29 616.299 1183.18 616.693C1180.44 617.201 1178.31 617.669 1176.64 618.078C1177.24 618.274 1177.82 618.444 1178.32 618.57L1180.4 619.085L1196.49 630.878L1229.48 631.252L1232.11 633.451C1233.14 634.316 1238.25 639.253 1238.06 651.621C1238.06 651.679 1238.06 651.736 1238.06 651.797C1241.03 650.617 1243.95 649.803 1246.89 649.341C1255.1 648.046 1261.5 649.894 1264.97 652.567L1305.8 665.807L1300.25 671.643C1299.13 672.821 1288.3 683.724 1254.13 702.614C1245.99 707.113 1240.25 710.23 1237.04 711.901C1236.68 712.153 1236.25 712.446 1235.72 712.801C1230.67 716.843 1209.39 747.046 1191.87 773.805L1190.19 776.37L1159.41 788.141L1120.83 797.776L1080.69 801.293L1039.66 790.363C1033.62 789.358 1026.97 788.493 1023.9 788.295C1018.7 789.914 1004.03 795.258 991.424 800.022L975.829 809.642L935.496 817.994L885.636 808.215L863.715 795.767L842.923 782.889L835.582 769.855L839.167 749.926L856.263 731.582L889.293 722.048L900.276 714.482C901.591 709.688 904.78 697.939 906.742 689.401C902.884 689.65 897.754 689.787 892.571 688.553C892.486 688.533 892.256 688.478 891.522 688.594C889.518 688.91 878.392 691.5 855.595 711.615C848.378 717.976 840.383 721.885 831.821 723.235C811.8 726.391 799.939 714.251 796.076 709.398L773.289 701.337L757.765 697.821L749.567 699.114L717.356 712.356L709.688 737.291L700.672 754.814C695.562 764.741 694.347 767.101 686.383 768.357C685.245 768.536 683.755 768.633 682.199 768.536C681.284 770.98 682.549 773.198 682.635 773.335L682.875 773.744L683.053 774.25C683.11 774.425 688.759 792.164 696.481 806.065C707.006 825.009 644.561 844.945 625.173 850.6L617.593 852.812L600.062 841.566L594.659 834.897L594.081 835.008C593.035 837.735 591.646 841.727 590.214 846.858C588.441 853.188 581.477 857.898 571.583 859.457C560.163 861.258 547.91 858.1 545.573 857.451L544.054 857.032L532.606 849.917L537.608 840.789L541.438 832.591C540.065 831.914 536.93 831.784 532.817 832.264C533.265 832.741 533.768 833.192 534.168 833.475L538.148 836.292L524.168 854.681L498.422 866.334L486.103 868.276L483.941 868.11C483.074 868.045 462.664 866.367 452.532 855.502C447.205 849.796 448.958 845.074 451.368 842.119C456.177 836.208 466.015 833.888 468.548 833.378C469.351 833.141 474.493 831.487 484.515 825.452C486.433 824.294 487.257 823.6 487.581 823.287C487.343 822.774 486.609 821.819 486.052 821.097C484.723 819.37 483.034 817.165 481.961 814.242C480.723 814.864 479.438 815.557 478.304 816.215C476.281 818.74 471.671 824.58 469.514 828.032C464.872 835.448 454.58 837.071 451.193 837.604C448.557 838.02 445.609 838.337 442.2 838.7C439.251 839.014 435.768 839.385 431.628 839.916C410.916 842.574 403.42 836.067 396.18 829.776C393.861 827.761 391.238 825.479 387.902 823.121C376.148 814.801 376.011 810.045 376.779 802.968C377.02 800.68 377.299 798.088 377.013 794.679L376.898 793.283C375.856 781.086 375.545 777.409 380.46 768.063C382.371 764.421 382.43 762.277 382.494 759.796C382.557 757.385 382.629 754.655 384.377 751.055C386.028 747.649 385.921 746.598 385.437 741.535C385.283 739.887 385.09 737.923 384.93 735.467C384.881 734.71 384.824 734.128 384.765 733.681C382.389 733.411 379.218 732.981 375.217 731.99C374.808 732.95 374.394 734.392 374.066 735.535C373.211 738.513 372.157 742.222 369.625 746.589C369.166 747.383 368.822 748.052 368.567 748.612L369.133 748.651L373.14 774.068C373.547 776.656 372.466 780.379 371.22 784.688C370.647 786.645 370.063 788.64 369.688 790.401C368.462 796.097 362.308 799.028 356.951 799.872C351.953 800.66 347.851 799.692 345.075 798.589L336.283 798.296L335.888 798.268C332.757 798.019 323.672 797.343 319.273 797.197C303.045 796.66 306.221 788.052 309.901 778.085L312.057 772.185C312.876 769.941 313.477 768.315 313.532 767.921C313.525 767.807 313.5 767.647 313.478 767.432C313.321 766.027 313.02 763.415 313.543 756.111C314.606 741.205 297.067 720.137 296.882 719.927L295.839 718.679L296.403 695.421L296.689 694.681C296.859 694.241 300.981 683.641 312.515 659.842C313.535 657.728 314.259 655.992 314.769 654.565L306.703 658.835L305.794 646.855L302.402 625.336C302.176 623.904 300.346 622.917 292.627 619.32C285.09 615.811 273.706 610.505 258.26 600.679C248.864 594.704 243.646 593.687 241.939 593.522C241.286 594.149 240.508 595.323 240.215 596.202L238.52 601.253L230.02 602.663L201.978 607.084C182.407 610.169 176.071 609.022 169.699 601.241C167.093 598.07 163.163 593.277 150.987 586.464C137.019 578.648 131.973 575.21 134.382 570.063C136.44 565.649 143.086 563.803 145.584 563.107C145.874 563.024 146.19 562.954 146.513 562.856C146.61 562.549 146.724 562.014 146.695 561.196C146.38 551.426 149.2 546.59 151.934 541.915C153.872 538.591 155.88 535.159 157.154 528.845C158.363 522.893 158.363 522.893 148.551 519.528C141.631 517.158 131.178 513.575 117.793 506.312C104.242 498.957 98.8742 495.036 100.701 489.785C102.312 485.164 108.822 482.788 112.319 481.508C116.577 479.95 118.928 479.093 120.005 474.935C124.398 457.987 135.831 455.164 161.28 450.39C171.57 448.459 185.663 445.814 204.771 441.123C257.675 428.134 285.322 378.201 288.1 372.955L289.819 366.312L273.533 346.98C270.066 345.858 263.98 344.222 257.947 343.629L259.104 344.601L233.104 365.564L228.792 366.895L226.866 367.222C218.134 368.598 201.108 366.847 176.268 362.011C163.772 359.576 149.706 355.76 151.872 347.777C153.043 343.44 158.393 340.438 163.667 338.478L161.671 315.601C161.671 315.601 182.41 255.087 183.288 252.514C182.421 252.708 181.531 252.879 180.621 253.022C174 254.066 164.1 253.958 154.537 247.515C139.631 237.484 131.618 234.211 128.332 233.168L123.604 234.628L89.8553 206.255L89.6747 206.072C89.1771 205.58 77.5144 193.697 65.6032 167.545C57.6914 150.183 58.246 147.336 61.6893 144.124L64.7367 141.287L70.3057 140.308C71.0116 140.197 71.7055 140.121 72.3756 140.079L99.638 120.127L101.206 119.45C135.624 104.627 141.453 103.708 143.651 103.362C149.03 102.514 178.172 100.072 191.073 99.0117L217.017 87.9454L244.314 76.4645L280.309 70.7904Z" fill="#43865E"/>
<path d="M1498.36 237.23C1498.36 237.23 1487.14 238.998 1472.18 241.356C1457.23 243.713 1448.56 249.491 1457.23 231.587C1465.91 213.678 1483.58 204.277 1465.57 199.399C1447.56 194.52 1401.67 195.137 1401.67 195.137L1390.45 196.904L1348.64 199.088C1348.64 199.088 1344.9 199.677 1345.07 188.625C1345.25 177.565 1345.25 177.565 1345.25 177.565L1328.77 158.113L1290.7 147.573L1263.5 157.376C1263.5 157.376 1247.7 154.351 1244.29 169.224C1240.89 184.096 1239.36 174.412 1240.89 184.096C1242.42 193.776 1284.74 182.696 1242.42 193.776C1200.09 204.862 1209.95 206.616 1200.09 204.862C1190.24 203.106 1177.15 193.039 1177.15 193.039L1169 177.786L1166.11 159.494L1159.23 140.159C1159.23 140.159 1154.66 123.252 1120.37 112.397C1086.08 101.543 1135.03 108.159 1086.08 101.543C1037.14 94.9237 1037.14 94.9237 1037.14 94.9237C1037.14 94.9237 985.643 84.2974 947.229 95.8656C908.815 107.437 920.044 81.4074 895.047 117.322C870.051 153.241 861.382 159.016 861.382 159.016L829.972 158.176C829.972 158.176 835.039 149.941 818.728 143.689C802.411 137.442 802.411 137.442 802.411 137.442C802.411 137.442 791.876 131.384 759.408 144.22C726.946 157.056 745.132 150.879 724.054 163.021C702.976 175.167 735.953 165.56 702.976 175.167C669.994 184.778 667.107 190.745 646.038 178.63C624.969 166.515 623.443 156.831 623.443 156.831L618.176 147.737L595.913 140.222L545.432 136.05C545.432 136.05 532.005 135.96 509.909 141.649C487.82 147.341 487.82 147.34 487.82 147.34L453.316 147.264L437.175 142.09C437.175 142.09 378.705 135.87 366.644 120.129C354.583 104.388 362.566 106.436 351.528 97.1511C340.479 87.8675 342.013 85.4201 326.205 82.3994C310.401 79.3746 307.511 73.2164 281.342 77.3417C255.162 81.4687 247.687 82.647 247.687 82.647L222.53 93.2267L193.803 105.477C193.803 105.477 150.292 109.029 144.684 109.913C139.077 110.797 106.773 124.709 106.773 124.709L74.1338 148.598C74.1338 148.598 64.9634 139.018 76.6781 164.738C88.3985 190.457 99.7807 201.894 99.7807 201.894L128.498 226.034C128.498 226.034 135.803 223.778 163.672 242.54C191.542 261.305 213.373 201.379 195 255C176.627 308.615 173.168 314.92 173.168 314.92L175.541 342.112C175.541 342.112 143.923 348.198 181.481 355.511C219.038 362.822 226.348 360.565 226.348 360.565L245.051 345.49C245.051 345.49 236.213 338.061 251.338 336.781C266.467 335.497 282.779 341.745 282.779 341.745L301.641 364.136L299.257 373.331C299.257 373.331 270.178 431.941 207.456 447.344C144.735 462.747 136.067 456.392 131.306 474.785C126.54 493.179 93.2141 482.995 126.269 500.94C159.336 518.882 171.745 512.515 168.507 528.462C165.274 544.411 157.624 544.513 158.126 559.87C158.633 575.227 128.046 563.508 159.565 581.143C191.09 598.778 172.904 604.952 200.946 600.532C228.988 596.111 228.988 596.111 228.988 596.111C228.988 596.111 235.289 575.273 267.231 595.595C299.18 615.923 312.601 616.01 313.788 623.541C314.976 631.072 317.181 645.06 317.181 645.06C317.181 645.06 335.033 636.733 323.47 660.606C311.902 684.484 307.815 695.052 307.815 695.052L307.303 716.082C307.303 716.082 326.159 738.471 324.968 755.196C323.773 771.926 327.005 762.043 322.324 774.911C317.649 787.778 316.115 790.222 321.892 790.416C327.674 790.605 339.313 791.527 339.313 791.527L350.872 791.91C350.872 791.91 357.243 795.868 358.346 790.732C359.456 785.595 362.179 778.552 361.755 775.863C361.331 773.173 360.482 767.791 360.482 767.791L358.447 754.881C358.447 754.881 353.604 754.543 358.873 745.443C364.142 736.341 362.191 730.034 368.398 726.85C374.6 723.667 356.336 717.172 374.6 723.667C392.869 730.16 395.676 723.654 396.354 734.022C397.031 744.387 398.219 745.855 395.327 751.823C392.436 757.795 395.751 760.579 391.331 768.995C386.905 777.411 387.329 780.1 388.43 793.157C389.532 806.215 383.161 808.32 397.18 818.24C411.194 828.161 412.381 835.692 431.166 833.281C449.946 830.872 455.808 831.603 458.87 826.712C461.931 821.818 469.158 812.96 469.158 812.96C469.158 812.96 490.915 799.056 492.526 809.276C494.137 819.497 506.8 820.808 491.924 829.77C477.047 838.729 470.506 839.76 470.506 839.76C470.506 839.76 454.697 842.803 462.77 851.454C470.843 860.106 487.325 861.368 487.325 861.368L494.805 860.189L515.373 850.88L524.892 838.355C524.892 838.355 510.872 828.435 531.525 825.733C552.177 823.028 553.449 831.097 553.449 831.097L548.435 841.811L545.453 847.243L551.829 851.2C551.829 851.2 575.875 857.884 578.937 846.927C582 835.969 584.892 830.001 584.892 830.001L601.634 826.808L609.956 837.075L621.684 844.596C621.684 844.596 693.584 823.617 685.555 809.17C677.53 794.72 671.804 776.604 671.804 776.604C671.804 776.604 666.071 767.584 677.922 760.753C689.78 753.922 680.976 771.022 689.78 753.922C698.583 736.822 698.583 736.822 698.583 736.822L707.133 709.012L746.27 692.919L760.29 690.709L779.663 695.098L805.539 704.25C805.539 704.25 822.485 729.695 846.455 708.55C870.425 687.404 887.891 679.692 898.346 682.177C908.796 684.665 920.654 677.834 918.101 688.987C915.547 700.139 910.951 716.579 910.951 716.579L895.395 727.297L863.816 736.411L850.263 750.953L847.2 767.973L853.188 778.609L872.339 790.476L892.818 802.104L937.308 810.832L970.703 803.913L985.113 795.028C985.113 795.028 1019.01 782.177 1023.23 781.546C1027.44 780.909 1045.15 783.907 1045.15 783.907L1084.15 794.297L1119.59 791.195L1155.54 782.218L1181.3 772.37C1181.3 772.37 1219.13 714.583 1227.8 708.805C1236.47 703.027 1213.69 716.542 1247.18 698.032C1280.67 679.521 1290.53 669.145 1290.53 669.145L1256.2 658.018C1256.2 658.018 1251.27 651.076 1235.63 661.26C1219.99 671.444 1236.64 679.845 1219.99 671.444C1203.34 663.04 1203.34 663.04 1203.34 663.04C1203.34 663.04 1190.19 675.041 1213.48 664.752C1236.77 654.468 1226.46 663.808 1226.63 652.756C1226.8 641.699 1222.39 637.988 1222.39 637.988L1189.75 637.62L1172.42 624.915C1172.42 624.915 1142.51 617.5 1181.61 610.236C1220.7 602.969 1266.92 604.505 1266.92 604.505L1286.3 617.989L1312.29 637.046C1312.29 637.046 1293.43 638.918 1347.98 644.651C1402.54 650.386 1446.73 651.139 1446.73 651.139C1446.73 651.139 1437.03 662.591 1461.52 647.703C1485.99 632.819 1496.02 623.519 1496.02 623.519L1503.5 610.21C1503.5 610.21 1521.52 602.962 1506.06 589.963C1490.6 576.959 1479.89 569.828 1479.89 569.828L1478.54 561.222C1478.54 561.222 1473.79 543.227 1508.8 534.398C1543.81 525.571 1575.04 521.75 1575.04 521.75C1575.04 521.75 1557.57 552.07 1598.54 532.378C1639.5 512.692 1639.5 512.692 1639.5 512.692C1639.5 512.692 1649.53 515.523 1646.82 498.309C1644.1 481.094 1632.55 480.71 1629.15 471.321C1625.76 461.932 1611.3 467.517 1622.53 453.618C1633.75 439.723 1687.08 416.429 1687.08 416.429C1687.08 416.429 1729.4 420.509 1732.21 410.971C1735.01 401.43 1734.51 389.104 1734.51 389.104C1734.51 389.104 1724.73 382.378 1716.04 386.228C1707.36 390.077 1724.95 383.168 1707.36 390.078C1689.76 396.988 1701.62 399.252 1689.76 396.988C1677.91 394.72 1683.14 400.51 1677.91 394.72C1672.69 388.926 1651.65 401.34 1672.69 388.926C1693.72 376.515 1680.08 381.146 1693.72 376.515C1707.36 371.884 1711.44 379.51 1707.36 371.884C1703.29 364.257 1703.29 364.257 1703.29 364.257L1677.67 365.815L1629.22 386.683L1602.07 396.752L1595.18 398.663L1530.55 408.025L1512.59 394.32L1510.93 383.83L1522.54 366.286L1532.72 357.923L1562.44 345.938L1593.55 333.592L1609.1 322.867C1609.1 322.867 1616.24 331.667 1618.03 315.676C1619.82 299.678 1619.82 299.678 1619.82 299.678L1630.25 283.812L1635.76 273.181L1619.45 260.87L1608.61 255.96L1580.83 261.996L1567.44 259.144L1573.69 244.098L1570.18 240.056L1560.37 241.603L1552.53 237.513L1522.58 238.928L1498.36 237.23Z" fill="#72B47C"/>
<path d="M528 356.295L501.918 332.13L526.049 309.956L511.045 292L485.034 316.488L460.732 293.975L444 310.337L468.26 332.277L446.036 353.196L458.526 372L485.144 347.541L510.225 370.22L528 356.295Z" fill="#508059"/>
<path d="M1071.5 354C1132.5 593.5 880.932 587.495 794.499 520C667.372 420.727 790.17 411.64 763.8 337.565C740.829 273.045 594.389 387.559 515.5 337.565" stroke="#508059" stroke-width="2.66667" stroke-miterlimit="10" stroke-dasharray="16.52 16.52"/>
<path d="M1100.6 352.298C1100.6 363.507 1091.51 372.597 1080.3 372.597C1069.09 372.597 1060 363.507 1060 352.298C1060 341.085 1069.09 332 1080.3 332C1091.51 332 1100.6 341.085 1100.6 352.298Z" fill="#508059"/>
<path d="M1439.08 220.65C1439.08 220.65 1409.5 203.142 1399.76 229.765C1397.74 226.538 1391.73 218.869 1380.05 219.343C1365.32 219.931 1362.36 231.218 1362.36 231.218H1376.72L1378.62 223.851L1380.52 231.218H1388.93C1382.03 232.821 1374.14 238.491 1373.87 256.04L1386.52 247.013C1386.52 247.013 1387.41 242.38 1387.77 242.619C1388.13 242.859 1390.03 244.759 1390.03 244.759L1399.6 237.71C1415.21 271.2 1401.31 328.492 1401.31 328.492H1413.78C1421.17 272.902 1410.5 245.373 1405.14 235.575L1420.79 228.485L1419.72 224.684L1424.35 227.063L1439.08 220.65Z" fill="#508059"/>
<path d="M1347.41 260.298L1356.03 248.022L1353.54 245.638L1358.07 245.373L1366.29 234.013C1366.29 234.013 1336.3 233.982 1340.78 258.315C1337.84 256.789 1329.92 253.692 1321.35 259.226C1310.54 266.212 1313.32 276.01 1313.32 276.01L1324.12 269.632L1322.28 263.255L1326.98 267.946L1333.29 264.213C1328.81 268.482 1325.4 276.244 1332.99 289.551L1338.5 277.155C1338.5 277.155 1337.11 273.277 1337.48 273.298C1337.85 273.318 1340.13 273.907 1340.13 273.907L1344.19 264.359C1370.79 282.601 1385.77 331.834 1385.77 331.834L1395.14 326.305C1376.02 281.237 1355.79 265.285 1347.41 260.298Z" fill="#508059"/>
<path d="M626.95 673.599C626.95 673.599 604.71 647.386 586.806 669.366C585.952 665.66 582.782 656.45 571.584 653.077C557.47 648.828 550.979 658.522 550.979 658.522L564.561 663.218L568.762 656.882L568.153 664.462L576.098 667.206C569.054 666.466 559.74 669.252 553.758 685.755L568.663 681.35C568.663 681.35 571.016 677.264 571.277 677.602C571.537 677.946 572.714 680.361 572.714 680.361L584.063 676.826C587.879 713.576 556.023 763.194 556.023 763.194L567.815 767.265C592.96 717.136 591.856 687.629 589.998 676.623L607.099 675.03L607.334 671.089L610.936 674.848L626.95 673.599Z" fill="#508059"/>
<path d="M527.364 681.131L539.509 672.338L537.937 669.282L542.31 670.505L553.795 662.457C553.795 662.457 525.448 652.628 521.741 677.091C519.461 674.686 512.985 669.173 503.072 671.604C490.578 674.675 490 684.843 490 684.843L502.297 682.344L502.64 675.717L505.545 681.683L512.735 680.22C507.112 682.786 501.349 689.018 504.171 704.074L513.422 694.151C513.422 694.151 513.38 690.033 513.724 690.174C514.073 690.32 516.025 691.616 516.025 691.616L522.991 683.916C542.164 709.847 540.243 761.267 540.243 761.267L550.91 759.101C547.563 710.269 533.642 688.581 527.364 681.131Z" fill="#508059"/>
<path d="M1456.08 531.647C1456.08 531.647 1426.51 514.144 1416.76 540.763C1414.75 537.54 1408.74 529.867 1397.06 530.34C1382.32 530.934 1379.36 542.215 1379.36 542.215H1393.73L1395.63 534.854L1397.53 542.215H1405.94C1399.03 543.819 1391.15 549.493 1390.88 567.043L1403.53 558.01C1403.53 558.01 1404.42 553.382 1404.78 553.622C1405.13 553.861 1407.04 555.761 1407.04 555.761L1416.6 548.707C1432.21 582.197 1418.32 639.495 1418.32 639.495H1430.79C1438.18 583.9 1427.5 556.376 1422.15 546.578L1437.8 539.487L1436.73 535.682L1441.35 538.061L1456.08 531.647Z" fill="#508059"/>
<path d="M1364.42 571.295L1373.03 559.025L1370.54 556.641L1375.08 556.37L1383.3 545.016C1383.3 545.016 1353.3 544.984 1357.79 569.317C1354.84 567.787 1346.93 564.694 1338.35 570.228C1327.54 577.209 1330.32 587.012 1330.32 587.012L1341.12 580.63L1339.28 574.258L1343.98 578.943L1350.29 575.216C1345.82 579.479 1342.41 587.247 1349.99 600.553L1355.5 588.153C1355.5 588.153 1354.12 584.279 1354.49 584.3C1354.86 584.321 1357.14 584.904 1357.14 584.904L1361.2 575.356C1387.79 593.603 1402.77 642.836 1402.77 642.836L1412.14 637.302C1393.03 592.239 1372.78 576.283 1364.42 571.295Z" fill="#508059"/>
<path d="M1301.11 48.9995C1299.88 48.9995 1293.52 48.8243 1288.77 45.3754C1285.84 43.2503 1284.6 41.3656 1284.35 38.6527C1282.87 35.6698 1283.39 32.678 1284.89 30.2056L1281 22.4144L1282.9 6.26803L1301.69 -0.000549316L1303.66 0.299232C1304.07 0.364529 1313.93 1.90199 1323.09 4.93537L1339.66 11.0882L1342 21.0105L1337.89 33.1885L1334.22 34.1234C1333.68 34.2629 1328.7 35.4739 1321.4 35.4739C1320.18 35.4739 1319.06 35.4383 1318.04 35.376L1316.26 40.3178L1303.59 48.9995H1301.11Z" fill="#43865E"/>
<path d="M1320.64 10.33C1311.94 7.46579 1302.36 5.99945 1302.36 5.99945L1289.3 10.33L1288 21.3854L1292.79 30.909C1292.79 30.909 1289.3 33.4728 1290.61 36.0396C1291.92 38.6035 1290.17 38.6035 1293.22 40.7985C1296.27 42.9994 1301.05 42.9995 1301.05 42.9995L1310.19 36.7713L1313.24 28.3452C1313.24 28.3452 1314.98 29.4457 1321.51 29.4457C1328.04 29.4457 1332.39 28.3452 1332.39 28.3452L1335 20.6537L1333.7 15.1573L1320.64 10.33Z" fill="#72B47C"/>
<path d="M1351.13 138.999C1350.19 138.999 1349.22 138.982 1348.21 138.944C1341.42 138.691 1337.71 136.248 1335.8 134.245C1333.74 132.087 1333.02 129.755 1332.81 127.957C1329.81 124.399 1325.14 118.353 1324.24 114.178C1323 108.41 1326.92 102.792 1328.19 101.161L1338.86 84.8011L1342.03 73.6805L1345.81 53.3004L1347.34 51.9443C1356.67 43.7152 1367.21 34.3242 1368.84 32.7052C1371.35 29.5898 1376.45 25.9994 1386.58 25.9994C1397.91 25.9994 1410.59 30.5337 1411.13 30.7279C1414.42 31.842 1419.44 35.955 1423.81 48.9275C1428 61.3742 1425.39 67.0136 1422.47 69.5585L1414.5 80.452L1393.88 93.2751L1383.33 100.384L1380.12 110.349C1379.84 111.738 1378.67 117.452 1377.47 121.544C1375.93 126.741 1370.67 133.895 1370.08 134.693L1368.84 136.365L1366.66 137.077C1366.06 137.276 1360.51 138.999 1351.13 138.999Z" fill="#43865E"/>
<path d="M1626.34 603.38C1628.16 603.509 1630.05 603.678 1632.01 603.893C1645.18 605.323 1652.06 610.582 1655.51 614.738C1659.22 619.213 1663.84 623.479 1664 626.999C1669.35 634.324 1674.06 647.078 1675.23 655.311C1676.84 666.683 1668.44 677.051 1665.74 680.042L1642.72 710.333L1635 731.488L1624.84 770.543L1621.66 772.964C1602.36 787.651 1580.56 804.428 1577.17 807.346C1571.84 813.047 1561.42 819.313 1541.71 817.908C1519.66 816.337 1495.61 805.774 1494.6 805.323C1488.34 802.703 1479.14 794.019 1472.43 768.221C1465.99 743.468 1471.86 732.879 1477.89 728.341L1494.92 708.292L1524 680.042L1545.5 664.499L1559.5 649.999C1560.23 647.341 1570.65 638.999 1572.67 633.625C1576.37 623.746 1590.25 612.467 1591.51 610.999L1597 606.041L1603 606.041C1604.2 605.737 1608.08 602.079 1626.34 603.38Z" fill="#43865E"/>
<path d="M1374.53 36.2481C1373.68 37.3557 1352.4 56.1015 1352.4 56.1015L1348.92 74.8533L1345.45 86.9892L1334.16 104.269C1334.16 104.269 1330.26 109.049 1331.13 113.094C1332 117.137 1339.81 125.962 1339.81 125.962C1339.81 125.962 1338.5 132.58 1348.49 132.951C1358.47 133.318 1364.11 131.479 1364.11 131.479C1364.11 131.479 1369.32 124.492 1370.63 120.081C1371.93 115.668 1373.23 109.049 1373.23 109.049L1377.14 96.916L1389.73 88.4581L1409.26 76.3251L1417.07 65.661C1417.07 65.661 1421.41 63.4547 1417.07 50.5844C1412.73 37.717 1408.39 36.2481 1408.39 36.2481C1408.39 36.2481 1381.91 26.6886 1374.53 36.2481Z" fill="#72B47C"/>
<path d="M1566.27 804.143C1568.09 802.132 1615.06 761.634 1615.06 761.634L1628.05 726.734L1638.92 705.8L1656.99 671.527C1656.99 671.527 1665.22 662.876 1664.09 654.977C1662.96 647.083 1653.75 627.718 1653.75 627.718C1653.75 627.718 1652.46 616.488 1633.16 614.396C1613.86 612.311 1602.67 615.068 1602.67 615.068C1602.67 615.068 1594.31 623.245 1584.56 633.332C1577.67 640.461 1571.8 649.64 1571.8 649.64L1557.47 665.949L1529.7 686.21L1503.82 714.379L1484.24 730.509C1484.24 730.509 1474.13 736.285 1480.78 761.634C1487.43 786.977 1498.57 793.271 1498.57 793.271C1498.57 793.271 1550.66 821.507 1566.27 804.143Z" fill="#72B47C"/>
<path d="M124.892 310.999C126.116 310.999 132.476 310.824 137.227 307.375C140.158 305.25 141.399 303.366 141.652 300.653C143.128 297.67 142.605 294.678 141.108 292.206L145 284.414L143.103 268.268L124.31 261.999L122.34 262.299C121.926 262.365 112.067 263.902 102.905 266.935L86.3422 273.088L84 283.01L88.1058 295.188L91.7802 296.123C92.3237 296.263 97.2988 297.474 104.595 297.474C105.822 297.474 106.941 297.438 107.961 297.376L109.735 302.318L122.41 310.999H124.892Z" fill="#43865E"/>
<path d="M105.364 272.33C114.064 269.466 123.64 267.999 123.64 267.999L136.696 272.33L138 283.385L133.212 292.909C133.212 292.909 136.696 295.473 135.392 298.04C134.085 300.603 135.827 300.603 132.777 302.798C129.731 304.999 124.947 304.999 124.947 304.999L115.806 298.771L112.76 290.345C112.76 290.345 111.018 291.446 104.491 291.446C97.9646 291.446 93.6114 290.345 93.6114 290.345L91 282.654L92.3039 277.157L105.364 272.33Z" fill="#72B47C"/>
<path d="M74.873 400.999C75.8061 400.999 76.778 400.982 77.7922 400.944C84.5778 400.691 88.2857 398.248 90.1978 396.245C92.2578 394.087 92.9797 391.755 93.1874 389.957C96.1876 386.399 100.864 380.353 101.762 376.178C102.998 370.41 99.0822 364.792 97.811 363.161L87.1413 346.801L83.9651 335.681L80.1938 315.3L78.6584 313.944C69.3269 305.715 58.7912 296.324 57.1608 294.705C54.6466 291.59 49.5476 287.999 39.4168 287.999C28.0852 287.999 15.4084 292.534 14.8732 292.728C11.5807 293.842 6.5593 297.955 2.18934 310.927C-2.00456 323.374 0.608276 329.014 3.52746 331.559L11.5032 342.452L32.1206 355.275L42.674 362.384L45.8785 372.349C46.1566 373.738 47.3257 379.452 48.5336 383.544C50.0653 388.741 55.3262 395.895 55.9213 396.693L57.1643 398.365L59.3405 399.077C59.9426 399.276 65.4922 400.999 74.873 400.999Z" fill="#43865E"/>
<path d="M51.4681 298.248C52.3245 299.356 73.6043 318.102 73.6043 318.102L77.0793 336.853L80.5507 348.989L91.8355 366.269C91.8355 366.269 95.744 371.049 94.8735 375.094C94.003 379.137 86.1931 387.962 86.1931 387.962C86.1931 387.962 87.4972 394.58 77.5128 394.951C67.5284 395.318 61.886 393.479 61.886 393.479C61.886 393.479 56.6771 386.492 55.3731 382.081C54.0726 377.668 52.7687 371.049 52.7687 371.049L48.8637 358.916L36.2749 350.458L16.7431 338.325L8.92975 327.661C8.92975 327.661 4.5878 325.455 8.92975 312.584C13.2717 299.717 17.6137 298.248 17.6137 298.248C17.6137 298.248 44.0882 288.689 51.4681 298.248Z" fill="#72B47C"/>
<path d="M429.544 460.076L486.224 558.25H365.187L369.829 554.113L370.094 553.877L370.306 553.592L392.306 524.092L392.543 523.774L392.703 523.411L405.512 494.345L420.712 475.712L420.904 475.477L421.053 475.212L429.544 460.076Z" fill="url(#paint0_linear)" stroke="#555555" stroke-width="7"/>
<path d="M440.612 474.878L440.835 475.739L441.441 476.388L468.942 505.853L478.198 532.162L478.543 533.142L479.367 533.775L511.204 558.25H394.068L431.716 458.851L437.447 462.671L440.612 474.878Z" fill="url(#paint1_linear)" stroke="#555555" stroke-width="7"/>
<path d="M307.544 117.075L364.224 215.249H243.187L247.829 211.112L248.094 210.876L248.306 210.592L270.306 181.092L270.543 180.774L270.703 180.411L283.512 151.345L298.712 132.712L298.904 132.477L299.053 132.212L307.544 117.075Z" fill="url(#paint2_linear)" stroke="#555555" stroke-width="7"/>
<path d="M318.612 131.878L318.835 132.738L319.441 133.388L346.941 162.852L356.198 189.161L356.543 190.141L357.366 190.774L389.204 215.249H272.068L309.716 115.85L315.447 119.671L318.612 131.878Z" fill="url(#paint3_linear)" stroke="#555555" stroke-width="7"/>
<path d="M1325.54 329.076L1382.22 427.25H1261.19L1265.83 423.113L1266.09 422.877L1266.31 422.592L1288.31 393.092L1288.54 392.774L1288.7 392.411L1301.51 363.345L1316.71 344.712L1316.9 344.477L1317.05 344.212L1325.54 329.076Z" fill="url(#paint4_linear)" stroke="#555555" stroke-width="7"/>
<path d="M1336.61 343.878L1336.83 344.739L1337.44 345.388L1364.94 374.853L1374.2 401.162L1374.54 402.142L1375.37 402.775L1407.2 427.25H1290.07L1327.72 327.851L1333.45 331.671L1336.61 343.878Z" fill="url(#paint5_linear)" stroke="#555555" stroke-width="7"/>
<path d="M1038.54 557.076L1095.22 655.25H974.187L978.829 651.113L979.094 650.877L979.306 650.592L1001.31 621.092L1001.54 620.774L1001.7 620.411L1014.51 591.345L1029.71 572.712L1029.9 572.477L1030.05 572.212L1038.54 557.076Z" fill="url(#paint6_linear)" stroke="#555555" stroke-width="7"/>
<path d="M1049.61 571.878L1049.83 572.739L1050.44 573.388L1077.94 602.853L1087.2 629.162L1087.54 630.142L1088.37 630.775L1120.2 655.25H1003.07L1040.72 555.851L1046.45 559.671L1049.61 571.878Z" fill="url(#paint7_linear)" stroke="#555555" stroke-width="7"/>
<path d="M312.075 229.8L303.723 255H298.755L292.527 236.352L286.191 255H281.187L272.835 229.8H277.695L283.959 248.952L290.475 229.8H294.795L301.167 249.06L307.611 229.8H312.075ZM332.087 245.496C332.087 245.808 332.063 246.252 332.015 246.828H316.931C317.195 248.244 317.879 249.372 318.983 250.212C320.111 251.028 321.503 251.436 323.159 251.436C325.271 251.436 327.011 250.74 328.379 249.348L330.791 252.12C329.927 253.152 328.835 253.932 327.515 254.46C326.195 254.988 324.707 255.252 323.051 255.252C320.939 255.252 319.079 254.832 317.471 253.992C315.863 253.152 314.615 251.988 313.727 250.5C312.863 248.988 312.431 247.284 312.431 245.388C312.431 243.516 312.851 241.836 313.691 240.348C314.555 238.836 315.743 237.66 317.255 236.82C318.767 235.98 320.471 235.56 322.367 235.56C324.239 235.56 325.907 235.98 327.371 236.82C328.859 237.636 330.011 238.8 330.827 240.312C331.667 241.8 332.087 243.528 332.087 245.496ZM322.367 239.16C320.927 239.16 319.703 239.592 318.695 240.456C317.711 241.296 317.111 242.424 316.895 243.84H327.803C327.611 242.448 327.023 241.32 326.039 240.456C325.055 239.592 323.831 239.16 322.367 239.16ZM347.065 235.56C348.937 235.56 350.605 235.968 352.069 236.784C353.557 237.6 354.721 238.752 355.561 240.24C356.401 241.728 356.821 243.444 356.821 245.388C356.821 247.332 356.401 249.06 355.561 250.572C354.721 252.06 353.557 253.212 352.069 254.028C350.605 254.844 348.937 255.252 347.065 255.252C345.745 255.252 344.533 255.024 343.429 254.568C342.349 254.112 341.437 253.428 340.693 252.516V255H336.409V228.288H340.909V238.116C341.677 237.276 342.577 236.64 343.609 236.208C344.665 235.776 345.817 235.56 347.065 235.56ZM346.561 251.4C348.217 251.4 349.573 250.848 350.629 249.744C351.709 248.64 352.249 247.188 352.249 245.388C352.249 243.588 351.709 242.136 350.629 241.032C349.573 239.928 348.217 239.376 346.561 239.376C345.481 239.376 344.509 239.628 343.645 240.132C342.781 240.612 342.097 241.308 341.593 242.22C341.089 243.132 340.837 244.188 340.837 245.388C340.837 246.588 341.089 247.644 341.593 248.556C342.097 249.468 342.781 250.176 343.645 250.68C344.509 251.16 345.481 251.4 346.561 251.4ZM234.185 273.8H245.201C247.889 273.8 250.277 274.328 252.365 275.384C254.453 276.416 256.073 277.892 257.225 279.812C258.377 281.708 258.953 283.904 258.953 286.4C258.953 288.896 258.377 291.104 257.225 293.024C256.073 294.92 254.453 296.396 252.365 297.452C250.277 298.484 247.889 299 245.201 299H234.185V273.8ZM244.985 295.04C246.833 295.04 248.453 294.692 249.845 293.996C251.261 293.276 252.341 292.268 253.085 290.972C253.853 289.652 254.237 288.128 254.237 286.4C254.237 284.672 253.853 283.16 253.085 281.864C252.341 280.544 251.261 279.536 249.845 278.84C248.453 278.12 246.833 277.76 244.985 277.76H238.865V295.04H244.985ZM281.567 289.496C281.567 289.808 281.543 290.252 281.495 290.828H266.411C266.675 292.244 267.359 293.372 268.463 294.212C269.591 295.028 270.983 295.436 272.639 295.436C274.751 295.436 276.491 294.74 277.859 293.348L280.271 296.12C279.407 297.152 278.315 297.932 276.995 298.46C275.675 298.988 274.187 299.252 272.531 299.252C270.419 299.252 268.559 298.832 266.951 297.992C265.343 297.152 264.095 295.988 263.207 294.5C262.343 292.988 261.911 291.284 261.911 289.388C261.911 287.516 262.331 285.836 263.171 284.348C264.035 282.836 265.223 281.66 266.735 280.82C268.247 279.98 269.951 279.56 271.847 279.56C273.719 279.56 275.387 279.98 276.851 280.82C278.339 281.636 279.491 282.8 280.307 284.312C281.147 285.8 281.567 287.528 281.567 289.496ZM271.847 283.16C270.407 283.16 269.183 283.592 268.175 284.456C267.191 285.296 266.591 286.424 266.375 287.84H277.283C277.091 286.448 276.503 285.32 275.519 284.456C274.535 283.592 273.311 283.16 271.847 283.16ZM291.83 299.252C290.27 299.252 288.746 299.048 287.258 298.64C285.77 298.232 284.582 297.716 283.694 297.092L285.422 293.672C286.286 294.248 287.318 294.716 288.518 295.076C289.742 295.412 290.942 295.58 292.118 295.58C294.806 295.58 296.15 294.872 296.15 293.456C296.15 292.784 295.802 292.316 295.106 292.052C294.434 291.788 293.342 291.536 291.83 291.296C290.246 291.056 288.95 290.78 287.942 290.468C286.958 290.156 286.094 289.616 285.35 288.848C284.63 288.056 284.27 286.964 284.27 285.572C284.27 283.748 285.026 282.296 286.538 281.216C288.074 280.112 290.138 279.56 292.73 279.56C294.05 279.56 295.37 279.716 296.69 280.028C298.01 280.316 299.09 280.712 299.93 281.216L298.202 284.636C296.57 283.676 294.734 283.196 292.694 283.196C291.374 283.196 290.366 283.4 289.67 283.808C288.998 284.192 288.662 284.708 288.662 285.356C288.662 286.076 289.022 286.592 289.742 286.904C290.486 287.192 291.626 287.468 293.162 287.732C294.698 287.972 295.958 288.248 296.942 288.56C297.926 288.872 298.766 289.4 299.462 290.144C300.182 290.888 300.542 291.944 300.542 293.312C300.542 295.112 299.762 296.552 298.202 297.632C296.642 298.712 294.518 299.252 291.83 299.252ZM304.417 279.776H308.917V299H304.417V279.776ZM306.685 276.608C305.869 276.608 305.185 276.356 304.633 275.852C304.081 275.324 303.805 274.676 303.805 273.908C303.805 273.14 304.081 272.504 304.633 272C305.185 271.472 305.869 271.208 306.685 271.208C307.501 271.208 308.185 271.46 308.737 271.964C309.289 272.444 309.565 273.056 309.565 273.8C309.565 274.592 309.289 275.264 308.737 275.816C308.209 276.344 307.525 276.608 306.685 276.608ZM333.903 279.776V296.084C333.903 302.852 330.447 306.236 323.535 306.236C321.687 306.236 319.935 305.996 318.279 305.516C316.623 305.06 315.255 304.388 314.175 303.5L316.191 300.116C317.031 300.812 318.087 301.364 319.359 301.772C320.655 302.204 321.963 302.42 323.283 302.42C325.395 302.42 326.943 301.94 327.927 300.98C328.911 300.02 329.403 298.556 329.403 296.588V295.58C328.635 296.42 327.699 297.056 326.595 297.488C325.491 297.92 324.279 298.136 322.959 298.136C321.135 298.136 319.479 297.752 317.991 296.984C316.527 296.192 315.363 295.088 314.499 293.672C313.659 292.256 313.239 290.636 313.239 288.812C313.239 286.988 313.659 285.38 314.499 283.988C315.363 282.572 316.527 281.48 317.991 280.712C319.479 279.944 321.135 279.56 322.959 279.56C324.351 279.56 325.611 279.788 326.739 280.244C327.891 280.7 328.851 281.396 329.619 282.332V279.776H333.903ZM323.643 294.32C325.347 294.32 326.739 293.816 327.819 292.808C328.923 291.776 329.475 290.444 329.475 288.812C329.475 287.204 328.923 285.896 327.819 284.888C326.739 283.88 325.347 283.376 323.643 283.376C321.915 283.376 320.499 283.88 319.395 284.888C318.315 285.896 317.775 287.204 317.775 288.812C317.775 290.444 318.315 291.776 319.395 292.808C320.499 293.816 321.915 294.32 323.643 294.32ZM350.727 279.56C353.151 279.56 355.095 280.268 356.559 281.684C358.023 283.1 358.755 285.2 358.755 287.984V299H354.255V288.56C354.255 286.88 353.859 285.62 353.067 284.78C352.275 283.916 351.147 283.484 349.683 283.484C348.027 283.484 346.719 283.988 345.759 284.996C344.799 285.98 344.319 287.408 344.319 289.28V299H339.819V279.776H344.103V282.26C344.847 281.372 345.783 280.7 346.911 280.244C348.039 279.788 349.311 279.56 350.727 279.56ZM382.712 289.496C382.712 289.808 382.688 290.252 382.64 290.828H367.556C367.82 292.244 368.504 293.372 369.608 294.212C370.736 295.028 372.128 295.436 373.784 295.436C375.896 295.436 377.636 294.74 379.004 293.348L381.416 296.12C380.552 297.152 379.46 297.932 378.14 298.46C376.82 298.988 375.332 299.252 373.676 299.252C371.564 299.252 369.704 298.832 368.096 297.992C366.488 297.152 365.24 295.988 364.352 294.5C363.488 292.988 363.056 291.284 363.056 289.388C363.056 287.516 363.476 285.836 364.316 284.348C365.18 282.836 366.368 281.66 367.88 280.82C369.392 279.98 371.096 279.56 372.992 279.56C374.864 279.56 376.532 279.98 377.996 280.82C379.484 281.636 380.636 282.8 381.452 284.312C382.292 285.8 382.712 287.528 382.712 289.496ZM372.992 283.16C371.552 283.16 370.328 283.592 369.32 284.456C368.336 285.296 367.736 286.424 367.52 287.84H378.428C378.236 286.448 377.648 285.32 376.664 284.456C375.68 283.592 374.456 283.16 372.992 283.16ZM391.318 282.584C392.614 280.568 394.894 279.56 398.158 279.56V283.844C397.774 283.772 397.426 283.736 397.114 283.736C395.362 283.736 393.994 284.252 393.01 285.284C392.026 286.292 391.534 287.756 391.534 289.676V299H387.034V279.776H391.318V282.584Z" fill="#EFEFEF"/>
<path d="M1295.52 459.112H1299.95V469.156C1298.65 470.188 1297.14 470.98 1295.41 471.532C1293.68 472.084 1291.91 472.36 1290.08 472.36C1287.52 472.36 1285.2 471.808 1283.14 470.704C1281.07 469.576 1279.45 468.028 1278.28 466.06C1277.1 464.092 1276.51 461.872 1276.51 459.4C1276.51 456.928 1277.1 454.708 1278.28 452.74C1279.45 450.772 1281.07 449.236 1283.14 448.132C1285.22 447.004 1287.56 446.44 1290.16 446.44C1292.27 446.44 1294.19 446.788 1295.92 447.484C1297.64 448.18 1299.1 449.2 1300.27 450.544L1297.32 453.424C1295.4 451.504 1293.08 450.544 1290.37 450.544C1288.6 450.544 1287.01 450.916 1285.62 451.66C1284.25 452.404 1283.17 453.448 1282.38 454.792C1281.61 456.136 1281.23 457.672 1281.23 459.4C1281.23 461.08 1281.61 462.592 1282.38 463.936C1283.17 465.28 1284.25 466.336 1285.62 467.104C1287.01 467.872 1288.58 468.256 1290.34 468.256C1292.3 468.256 1294.03 467.824 1295.52 466.96V459.112ZM1313.03 452.56C1315.86 452.56 1318.02 453.244 1319.51 454.612C1321.02 455.956 1321.78 457.996 1321.78 460.732V472H1317.53V469.66C1316.98 470.5 1316.19 471.148 1315.16 471.604C1314.15 472.036 1312.92 472.252 1311.48 472.252C1310.04 472.252 1308.78 472.012 1307.7 471.532C1306.62 471.028 1305.78 470.344 1305.18 469.48C1304.61 468.592 1304.32 467.596 1304.32 466.492C1304.32 464.764 1304.96 463.384 1306.23 462.352C1307.52 461.296 1309.55 460.768 1312.31 460.768H1317.28V460.48C1317.28 459.136 1316.87 458.104 1316.06 457.384C1315.26 456.664 1314.08 456.304 1312.49 456.304C1311.41 456.304 1310.34 456.472 1309.29 456.808C1308.26 457.144 1307.38 457.612 1306.66 458.212L1304.9 454.936C1305.9 454.168 1307.12 453.58 1308.53 453.172C1309.95 452.764 1311.45 452.56 1313.03 452.56ZM1312.42 468.976C1313.55 468.976 1314.54 468.724 1315.41 468.22C1316.3 467.692 1316.92 466.948 1317.28 465.988V463.756H1312.64C1310.04 463.756 1308.75 464.608 1308.75 466.312C1308.75 467.128 1309.07 467.776 1309.72 468.256C1310.37 468.736 1311.27 468.976 1312.42 468.976ZM1351.82 452.56C1354.24 452.56 1356.16 453.268 1357.58 454.684C1359 456.076 1359.7 458.176 1359.7 460.984V472H1355.2V461.56C1355.2 459.88 1354.83 458.62 1354.09 457.78C1353.34 456.916 1352.28 456.484 1350.88 456.484C1349.37 456.484 1348.16 456.988 1347.25 457.996C1346.34 458.98 1345.88 460.396 1345.88 462.244V472H1341.38V461.56C1341.38 459.88 1341.01 458.62 1340.26 457.78C1339.52 456.916 1338.45 456.484 1337.06 456.484C1335.52 456.484 1334.3 456.976 1333.39 457.96C1332.5 458.944 1332.06 460.372 1332.06 462.244V472H1327.56V452.776H1331.84V455.224C1332.56 454.36 1333.46 453.7 1334.54 453.244C1335.62 452.788 1336.82 452.56 1338.14 452.56C1339.58 452.56 1340.85 452.836 1341.96 453.388C1343.08 453.916 1343.97 454.708 1344.62 455.764C1345.41 454.756 1346.43 453.976 1347.68 453.424C1348.93 452.848 1350.31 452.56 1351.82 452.56ZM1383.7 462.496C1383.7 462.808 1383.68 463.252 1383.63 463.828H1368.55C1368.81 465.244 1369.49 466.372 1370.6 467.212C1371.73 468.028 1373.12 468.436 1374.77 468.436C1376.89 468.436 1378.63 467.74 1379.99 466.348L1382.41 469.12C1381.54 470.152 1380.45 470.932 1379.13 471.46C1377.81 471.988 1376.32 472.252 1374.67 472.252C1372.55 472.252 1370.69 471.832 1369.09 470.992C1367.48 470.152 1366.23 468.988 1365.34 467.5C1364.48 465.988 1364.05 464.284 1364.05 462.388C1364.05 460.516 1364.47 458.836 1365.31 457.348C1366.17 455.836 1367.36 454.66 1368.87 453.82C1370.38 452.98 1372.09 452.56 1373.98 452.56C1375.85 452.56 1377.52 452.98 1378.99 453.82C1380.47 454.636 1381.63 455.8 1382.44 457.312C1383.28 458.8 1383.7 460.528 1383.7 462.496ZM1373.98 456.16C1372.54 456.16 1371.32 456.592 1370.31 457.456C1369.33 458.296 1368.73 459.424 1368.51 460.84H1379.42C1379.23 459.448 1378.64 458.32 1377.65 457.456C1376.67 456.592 1375.45 456.16 1373.98 456.16ZM1249.18 490.8H1260.2C1262.89 490.8 1265.28 491.328 1267.36 492.384C1269.45 493.416 1271.07 494.892 1272.22 496.812C1273.38 498.708 1273.95 500.904 1273.95 503.4C1273.95 505.896 1273.38 508.104 1272.22 510.024C1271.07 511.92 1269.45 513.396 1267.36 514.452C1265.28 515.484 1262.89 516 1260.2 516H1249.18V490.8ZM1259.98 512.04C1261.83 512.04 1263.45 511.692 1264.84 510.996C1266.26 510.276 1267.34 509.268 1268.08 507.972C1268.85 506.652 1269.24 505.128 1269.24 503.4C1269.24 501.672 1268.85 500.16 1268.08 498.864C1267.34 497.544 1266.26 496.536 1264.84 495.84C1263.45 495.12 1261.83 494.76 1259.98 494.76H1253.86V512.04H1259.98ZM1296.57 506.496C1296.57 506.808 1296.54 507.252 1296.49 507.828H1281.41C1281.67 509.244 1282.36 510.372 1283.46 511.212C1284.59 512.028 1285.98 512.436 1287.64 512.436C1289.75 512.436 1291.49 511.74 1292.86 510.348L1295.27 513.12C1294.41 514.152 1293.31 514.932 1291.99 515.46C1290.67 515.988 1289.19 516.252 1287.53 516.252C1285.42 516.252 1283.56 515.832 1281.95 514.992C1280.34 514.152 1279.09 512.988 1278.21 511.5C1277.34 509.988 1276.91 508.284 1276.91 506.388C1276.91 504.516 1277.33 502.836 1278.17 501.348C1279.03 499.836 1280.22 498.66 1281.73 497.82C1283.25 496.98 1284.95 496.56 1286.85 496.56C1288.72 496.56 1290.39 496.98 1291.85 497.82C1293.34 498.636 1294.49 499.8 1295.31 501.312C1296.15 502.8 1296.57 504.528 1296.57 506.496ZM1286.85 500.16C1285.41 500.16 1284.18 500.592 1283.17 501.456C1282.19 502.296 1281.59 503.424 1281.37 504.84H1292.28C1292.09 503.448 1291.5 502.32 1290.52 501.456C1289.53 500.592 1288.31 500.16 1286.85 500.16ZM1306.83 516.252C1305.27 516.252 1303.75 516.048 1302.26 515.64C1300.77 515.232 1299.58 514.716 1298.69 514.092L1300.42 510.672C1301.29 511.248 1302.32 511.716 1303.52 512.076C1304.74 512.412 1305.94 512.58 1307.12 512.58C1309.81 512.58 1311.15 511.872 1311.15 510.456C1311.15 509.784 1310.8 509.316 1310.11 509.052C1309.43 508.788 1308.34 508.536 1306.83 508.296C1305.25 508.056 1303.95 507.78 1302.94 507.468C1301.96 507.156 1301.09 506.616 1300.35 505.848C1299.63 505.056 1299.27 503.964 1299.27 502.572C1299.27 500.748 1300.03 499.296 1301.54 498.216C1303.07 497.112 1305.14 496.56 1307.73 496.56C1309.05 496.56 1310.37 496.716 1311.69 497.028C1313.01 497.316 1314.09 497.712 1314.93 498.216L1313.2 501.636C1311.57 500.676 1309.73 500.196 1307.69 500.196C1306.37 500.196 1305.37 500.4 1304.67 500.808C1304 501.192 1303.66 501.708 1303.66 502.356C1303.66 503.076 1304.02 503.592 1304.74 503.904C1305.49 504.192 1306.63 504.468 1308.16 504.732C1309.7 504.972 1310.96 505.248 1311.94 505.56C1312.93 505.872 1313.77 506.4 1314.46 507.144C1315.18 507.888 1315.54 508.944 1315.54 510.312C1315.54 512.112 1314.76 513.552 1313.2 514.632C1311.64 515.712 1309.52 516.252 1306.83 516.252ZM1319.42 496.776H1323.92V516H1319.42V496.776ZM1321.68 493.608C1320.87 493.608 1320.18 493.356 1319.63 492.852C1319.08 492.324 1318.8 491.676 1318.8 490.908C1318.8 490.14 1319.08 489.504 1319.63 489C1320.18 488.472 1320.87 488.208 1321.68 488.208C1322.5 488.208 1323.18 488.46 1323.74 488.964C1324.29 489.444 1324.56 490.056 1324.56 490.8C1324.56 491.592 1324.29 492.264 1323.74 492.816C1323.21 493.344 1322.52 493.608 1321.68 493.608ZM1348.9 496.776V513.084C1348.9 519.852 1345.45 523.236 1338.54 523.236C1336.69 523.236 1334.94 522.996 1333.28 522.516C1331.62 522.06 1330.26 521.388 1329.18 520.5L1331.19 517.116C1332.03 517.812 1333.09 518.364 1334.36 518.772C1335.66 519.204 1336.96 519.42 1338.28 519.42C1340.4 519.42 1341.94 518.94 1342.93 517.98C1343.91 517.02 1344.4 515.556 1344.4 513.588V512.58C1343.64 513.42 1342.7 514.056 1341.6 514.488C1340.49 514.92 1339.28 515.136 1337.96 515.136C1336.14 515.136 1334.48 514.752 1332.99 513.984C1331.53 513.192 1330.36 512.088 1329.5 510.672C1328.66 509.256 1328.24 507.636 1328.24 505.812C1328.24 503.988 1328.66 502.38 1329.5 500.988C1330.36 499.572 1331.53 498.48 1332.99 497.712C1334.48 496.944 1336.14 496.56 1337.96 496.56C1339.35 496.56 1340.61 496.788 1341.74 497.244C1342.89 497.7 1343.85 498.396 1344.62 499.332V496.776H1348.9ZM1338.64 511.32C1340.35 511.32 1341.74 510.816 1342.82 509.808C1343.92 508.776 1344.48 507.444 1344.48 505.812C1344.48 504.204 1343.92 502.896 1342.82 501.888C1341.74 500.88 1340.35 500.376 1338.64 500.376C1336.92 500.376 1335.5 500.88 1334.4 501.888C1333.32 502.896 1332.78 504.204 1332.78 505.812C1332.78 507.444 1333.32 508.776 1334.4 509.808C1335.5 510.816 1336.92 511.32 1338.64 511.32ZM1365.73 496.56C1368.15 496.56 1370.1 497.268 1371.56 498.684C1373.02 500.1 1373.76 502.2 1373.76 504.984V516H1369.26V505.56C1369.26 503.88 1368.86 502.62 1368.07 501.78C1367.28 500.916 1366.15 500.484 1364.68 500.484C1363.03 500.484 1361.72 500.988 1360.76 501.996C1359.8 502.98 1359.32 504.408 1359.32 506.28V516H1354.82V496.776H1359.1V499.26C1359.85 498.372 1360.78 497.7 1361.91 497.244C1363.04 496.788 1364.31 496.56 1365.73 496.56ZM1397.71 506.496C1397.71 506.808 1397.69 507.252 1397.64 507.828H1382.56C1382.82 509.244 1383.5 510.372 1384.61 511.212C1385.74 512.028 1387.13 512.436 1388.78 512.436C1390.9 512.436 1392.64 511.74 1394 510.348L1396.42 513.12C1395.55 514.152 1394.46 514.932 1393.14 515.46C1391.82 515.988 1390.33 516.252 1388.68 516.252C1386.56 516.252 1384.7 515.832 1383.1 514.992C1381.49 514.152 1380.24 512.988 1379.35 511.5C1378.49 509.988 1378.06 508.284 1378.06 506.388C1378.06 504.516 1378.48 502.836 1379.32 501.348C1380.18 499.836 1381.37 498.66 1382.88 497.82C1384.39 496.98 1386.1 496.56 1387.99 496.56C1389.86 496.56 1391.53 496.98 1393 497.82C1394.48 498.636 1395.64 499.8 1396.45 501.312C1397.29 502.8 1397.71 504.528 1397.71 506.496ZM1387.99 500.16C1386.55 500.16 1385.33 500.592 1384.32 501.456C1383.34 502.296 1382.74 503.424 1382.52 504.84H1393.43C1393.24 503.448 1392.65 502.32 1391.66 501.456C1390.68 500.592 1389.46 500.16 1387.99 500.16ZM1406.32 499.584C1407.61 497.568 1409.89 496.56 1413.16 496.56V500.844C1412.77 500.772 1412.43 500.736 1412.11 500.736C1410.36 500.736 1408.99 501.252 1408.01 502.284C1407.03 503.292 1406.53 504.756 1406.53 506.676V516H1402.03V496.776H1406.32V499.584Z" fill="#EFEFEF"/>
<path d="M949.22 703.36C945.74 703.36 943.028 702.388 941.084 700.444C939.14 698.476 938.168 695.668 938.168 692.02V677.8H942.848V691.84C942.848 696.784 944.984 699.256 949.256 699.256C953.504 699.256 955.628 696.784 955.628 691.84V677.8H960.236V692.02C960.236 695.668 959.264 698.476 957.32 700.444C955.4 702.388 952.7 703.36 949.22 703.36ZM982.315 703L975.475 693.424L968.707 703H963.379L972.739 690.148L963.883 677.8H969.175L975.619 686.764L981.991 677.8H987.067L978.247 689.968L987.715 703H982.315ZM1019.74 676.288V703H1015.42V700.516C1014.68 701.428 1013.76 702.112 1012.65 702.568C1011.57 703.024 1010.37 703.252 1009.05 703.252C1007.2 703.252 1005.54 702.844 1004.05 702.028C1002.58 701.212 1001.43 700.06 1000.59 698.572C999.753 697.06 999.333 695.332 999.333 693.388C999.333 691.444 999.753 689.728 1000.59 688.24C1001.43 686.752 1002.58 685.6 1004.05 684.784C1005.54 683.968 1007.2 683.56 1009.05 683.56C1010.32 683.56 1011.49 683.776 1012.54 684.208C1013.6 684.64 1014.5 685.288 1015.24 686.152V676.288H1019.74ZM1009.59 699.4C1010.67 699.4 1011.64 699.16 1012.51 698.68C1013.37 698.176 1014.06 697.468 1014.56 696.556C1015.06 695.644 1015.32 694.588 1015.32 693.388C1015.32 692.188 1015.06 691.132 1014.56 690.22C1014.06 689.308 1013.37 688.612 1012.51 688.132C1011.64 687.628 1010.67 687.376 1009.59 687.376C1008.51 687.376 1007.54 687.628 1006.68 688.132C1005.81 688.612 1005.13 689.308 1004.62 690.22C1004.12 691.132 1003.87 692.188 1003.87 693.388C1003.87 694.588 1004.12 695.644 1004.62 696.556C1005.13 697.468 1005.81 698.176 1006.68 698.68C1007.54 699.16 1008.51 699.4 1009.59 699.4ZM1043.7 693.496C1043.7 693.808 1043.68 694.252 1043.63 694.828H1028.55C1028.81 696.244 1029.5 697.372 1030.6 698.212C1031.73 699.028 1033.12 699.436 1034.78 699.436C1036.89 699.436 1038.63 698.74 1040 697.348L1042.41 700.12C1041.54 701.152 1040.45 701.932 1039.13 702.46C1037.81 702.988 1036.32 703.252 1034.67 703.252C1032.56 703.252 1030.7 702.832 1029.09 701.992C1027.48 701.152 1026.23 699.988 1025.34 698.5C1024.48 696.988 1024.05 695.284 1024.05 693.388C1024.05 691.516 1024.47 689.836 1025.31 688.348C1026.17 686.836 1027.36 685.66 1028.87 684.82C1030.38 683.98 1032.09 683.56 1033.98 683.56C1035.86 683.56 1037.52 683.98 1038.99 684.82C1040.48 685.636 1041.63 686.8 1042.44 688.312C1043.28 689.8 1043.7 691.528 1043.7 693.496ZM1033.98 687.16C1032.54 687.16 1031.32 687.592 1030.31 688.456C1029.33 689.296 1028.73 690.424 1028.51 691.84H1039.42C1039.23 690.448 1038.64 689.32 1037.66 688.456C1036.67 687.592 1035.45 687.16 1033.98 687.16ZM1053.97 703.252C1052.41 703.252 1050.88 703.048 1049.39 702.64C1047.91 702.232 1046.72 701.716 1045.83 701.092L1047.56 697.672C1048.42 698.248 1049.45 698.716 1050.65 699.076C1051.88 699.412 1053.08 699.58 1054.25 699.58C1056.94 699.58 1058.29 698.872 1058.29 697.456C1058.29 696.784 1057.94 696.316 1057.24 696.052C1056.57 695.788 1055.48 695.536 1053.97 695.296C1052.38 695.056 1051.09 694.78 1050.08 694.468C1049.09 694.156 1048.23 693.616 1047.49 692.848C1046.77 692.056 1046.41 690.964 1046.41 689.572C1046.41 687.748 1047.16 686.296 1048.67 685.216C1050.21 684.112 1052.27 683.56 1054.87 683.56C1056.19 683.56 1057.51 683.716 1058.83 684.028C1060.15 684.316 1061.23 684.712 1062.07 685.216L1060.34 688.636C1058.71 687.676 1056.87 687.196 1054.83 687.196C1053.51 687.196 1052.5 687.4 1051.81 687.808C1051.13 688.192 1050.8 688.708 1050.8 689.356C1050.8 690.076 1051.16 690.592 1051.88 690.904C1052.62 691.192 1053.76 691.468 1055.3 691.732C1056.83 691.972 1058.09 692.248 1059.08 692.56C1060.06 692.872 1060.9 693.4 1061.6 694.144C1062.32 694.888 1062.68 695.944 1062.68 697.312C1062.68 699.112 1061.9 700.552 1060.34 701.632C1058.78 702.712 1056.65 703.252 1053.97 703.252ZM1066.55 683.776H1071.05V703H1066.55V683.776ZM1068.82 680.608C1068.01 680.608 1067.32 680.356 1066.77 679.852C1066.22 679.324 1065.94 678.676 1065.94 677.908C1065.94 677.14 1066.22 676.504 1066.77 676C1067.32 675.472 1068.01 675.208 1068.82 675.208C1069.64 675.208 1070.32 675.46 1070.87 675.964C1071.43 676.444 1071.7 677.056 1071.7 677.8C1071.7 678.592 1071.43 679.264 1070.87 679.816C1070.35 680.344 1069.66 680.608 1068.82 680.608ZM1096.04 683.776V700.084C1096.04 706.852 1092.58 710.236 1085.67 710.236C1083.82 710.236 1082.07 709.996 1080.42 709.516C1078.76 709.06 1077.39 708.388 1076.31 707.5L1078.33 704.116C1079.17 704.812 1080.22 705.364 1081.5 705.772C1082.79 706.204 1084.1 706.42 1085.42 706.42C1087.53 706.42 1089.08 705.94 1090.06 704.98C1091.05 704.02 1091.54 702.556 1091.54 700.588V699.58C1090.77 700.42 1089.84 701.056 1088.73 701.488C1087.63 701.92 1086.42 702.136 1085.1 702.136C1083.27 702.136 1081.62 701.752 1080.13 700.984C1078.66 700.192 1077.5 699.088 1076.64 697.672C1075.8 696.256 1075.38 694.636 1075.38 692.812C1075.38 690.988 1075.8 689.38 1076.64 687.988C1077.5 686.572 1078.66 685.48 1080.13 684.712C1081.62 683.944 1083.27 683.56 1085.1 683.56C1086.49 683.56 1087.75 683.788 1088.88 684.244C1090.03 684.7 1090.99 685.396 1091.76 686.332V683.776H1096.04ZM1085.78 698.32C1087.48 698.32 1088.88 697.816 1089.96 696.808C1091.06 695.776 1091.61 694.444 1091.61 692.812C1091.61 691.204 1091.06 689.896 1089.96 688.888C1088.88 687.88 1087.48 687.376 1085.78 687.376C1084.05 687.376 1082.64 687.88 1081.53 688.888C1080.45 689.896 1079.91 691.204 1079.91 692.812C1079.91 694.444 1080.45 695.776 1081.53 696.808C1082.64 697.816 1084.05 698.32 1085.78 698.32ZM1112.86 683.56C1115.29 683.56 1117.23 684.268 1118.7 685.684C1120.16 687.1 1120.89 689.2 1120.89 691.984V703H1116.39V692.56C1116.39 690.88 1116 689.62 1115.2 688.78C1114.41 687.916 1113.28 687.484 1111.82 687.484C1110.16 687.484 1108.86 687.988 1107.9 688.996C1106.94 689.98 1106.46 691.408 1106.46 693.28V703H1101.96V683.776H1106.24V686.26C1106.98 685.372 1107.92 684.7 1109.05 684.244C1110.18 683.788 1111.45 683.56 1112.86 683.56ZM1144.85 693.496C1144.85 693.808 1144.82 694.252 1144.78 694.828H1129.69C1129.96 696.244 1130.64 697.372 1131.74 698.212C1132.87 699.028 1134.26 699.436 1135.92 699.436C1138.03 699.436 1139.77 698.74 1141.14 697.348L1143.55 700.12C1142.69 701.152 1141.6 701.932 1140.28 702.46C1138.96 702.988 1137.47 703.252 1135.81 703.252C1133.7 703.252 1131.84 702.832 1130.23 701.992C1128.62 701.152 1127.38 699.988 1126.49 698.5C1125.62 696.988 1125.19 695.284 1125.19 693.388C1125.19 691.516 1125.61 689.836 1126.45 688.348C1127.32 686.836 1128.5 685.66 1130.02 684.82C1131.53 683.98 1133.23 683.56 1135.13 683.56C1137 683.56 1138.67 683.98 1140.13 684.82C1141.62 685.636 1142.77 686.8 1143.59 688.312C1144.43 689.8 1144.85 691.528 1144.85 693.496ZM1135.13 687.16C1133.69 687.16 1132.46 687.592 1131.46 688.456C1130.47 689.296 1129.87 690.424 1129.66 691.84H1140.56C1140.37 690.448 1139.78 689.32 1138.8 688.456C1137.82 687.592 1136.59 687.16 1135.13 687.16ZM1153.45 686.584C1154.75 684.568 1157.03 683.56 1160.29 683.56V687.844C1159.91 687.772 1159.56 687.736 1159.25 687.736C1157.5 687.736 1156.13 688.252 1155.15 689.284C1154.16 690.292 1153.67 691.756 1153.67 693.676V703H1149.17V683.776H1153.45V686.584Z" fill="#EFEFEF"/>
<path d="M347.22 604.36C343.74 604.36 341.028 603.388 339.084 601.444C337.14 599.476 336.168 596.668 336.168 593.02V578.8H340.848V592.84C340.848 597.784 342.984 600.256 347.256 600.256C351.504 600.256 353.628 597.784 353.628 592.84V578.8H358.236V593.02C358.236 596.668 357.264 599.476 355.32 601.444C353.4 603.388 350.7 604.36 347.22 604.36ZM364.79 578.8H369.47V604H364.79V578.8ZM386.236 578.8H397.252C399.94 578.8 402.328 579.328 404.416 580.384C406.504 581.416 408.124 582.892 409.276 584.812C410.428 586.708 411.004 588.904 411.004 591.4C411.004 593.896 410.428 596.104 409.276 598.024C408.124 599.92 406.504 601.396 404.416 602.452C402.328 603.484 399.94 604 397.252 604H386.236V578.8ZM397.036 600.04C398.884 600.04 400.504 599.692 401.896 598.996C403.312 598.276 404.392 597.268 405.136 595.972C405.904 594.652 406.288 593.128 406.288 591.4C406.288 589.672 405.904 588.16 405.136 586.864C404.392 585.544 403.312 584.536 401.896 583.84C400.504 583.12 398.884 582.76 397.036 582.76H390.916V600.04H397.036ZM433.618 594.496C433.618 594.808 433.594 595.252 433.546 595.828H418.462C418.726 597.244 419.41 598.372 420.514 599.212C421.642 600.028 423.034 600.436 424.69 600.436C426.802 600.436 428.542 599.74 429.91 598.348L432.322 601.12C431.458 602.152 430.366 602.932 429.046 603.46C427.726 603.988 426.238 604.252 424.582 604.252C422.47 604.252 420.61 603.832 419.002 602.992C417.394 602.152 416.146 600.988 415.258 599.5C414.394 597.988 413.962 596.284 413.962 594.388C413.962 592.516 414.382 590.836 415.222 589.348C416.086 587.836 417.274 586.66 418.786 585.82C420.298 584.98 422.002 584.56 423.898 584.56C425.77 584.56 427.438 584.98 428.902 585.82C430.39 586.636 431.542 587.8 432.358 589.312C433.198 590.8 433.618 592.528 433.618 594.496ZM423.898 588.16C422.458 588.16 421.234 588.592 420.226 589.456C419.242 590.296 418.642 591.424 418.426 592.84H429.334C429.142 591.448 428.554 590.32 427.57 589.456C426.586 588.592 425.362 588.16 423.898 588.16ZM443.88 604.252C442.32 604.252 440.796 604.048 439.308 603.64C437.82 603.232 436.632 602.716 435.744 602.092L437.472 598.672C438.336 599.248 439.368 599.716 440.568 600.076C441.792 600.412 442.992 600.58 444.168 600.58C446.856 600.58 448.2 599.872 448.2 598.456C448.2 597.784 447.852 597.316 447.156 597.052C446.484 596.788 445.392 596.536 443.88 596.296C442.296 596.056 441 595.78 439.992 595.468C439.008 595.156 438.144 594.616 437.4 593.848C436.68 593.056 436.32 591.964 436.32 590.572C436.32 588.748 437.076 587.296 438.588 586.216C440.124 585.112 442.188 584.56 444.78 584.56C446.1 584.56 447.42 584.716 448.74 585.028C450.06 585.316 451.14 585.712 451.98 586.216L450.252 589.636C448.62 588.676 446.784 588.196 444.744 588.196C443.424 588.196 442.416 588.4 441.72 588.808C441.048 589.192 440.712 589.708 440.712 590.356C440.712 591.076 441.072 591.592 441.792 591.904C442.536 592.192 443.676 592.468 445.212 592.732C446.748 592.972 448.008 593.248 448.992 593.56C449.976 593.872 450.816 594.4 451.512 595.144C452.232 595.888 452.592 596.944 452.592 598.312C452.592 600.112 451.812 601.552 450.252 602.632C448.692 603.712 446.568 604.252 443.88 604.252ZM456.468 584.776H460.968V604H456.468V584.776ZM458.736 581.608C457.92 581.608 457.236 581.356 456.684 580.852C456.132 580.324 455.856 579.676 455.856 578.908C455.856 578.14 456.132 577.504 456.684 577C457.236 576.472 457.92 576.208 458.736 576.208C459.552 576.208 460.236 576.46 460.788 576.964C461.34 577.444 461.616 578.056 461.616 578.8C461.616 579.592 461.34 580.264 460.788 580.816C460.26 581.344 459.576 581.608 458.736 581.608ZM485.954 584.776V601.084C485.954 607.852 482.498 611.236 475.586 611.236C473.738 611.236 471.986 610.996 470.33 610.516C468.674 610.06 467.306 609.388 466.226 608.5L468.242 605.116C469.082 605.812 470.138 606.364 471.41 606.772C472.706 607.204 474.014 607.42 475.334 607.42C477.446 607.42 478.994 606.94 479.978 605.98C480.962 605.02 481.454 603.556 481.454 601.588V600.58C480.686 601.42 479.75 602.056 478.646 602.488C477.542 602.92 476.33 603.136 475.01 603.136C473.186 603.136 471.53 602.752 470.042 601.984C468.578 601.192 467.414 600.088 466.55 598.672C465.71 597.256 465.29 595.636 465.29 593.812C465.29 591.988 465.71 590.38 466.55 588.988C467.414 587.572 468.578 586.48 470.042 585.712C471.53 584.944 473.186 584.56 475.01 584.56C476.402 584.56 477.662 584.788 478.79 585.244C479.942 585.7 480.902 586.396 481.67 587.332V584.776H485.954ZM475.694 599.32C477.398 599.32 478.79 598.816 479.87 597.808C480.974 596.776 481.526 595.444 481.526 593.812C481.526 592.204 480.974 590.896 479.87 589.888C478.79 588.88 477.398 588.376 475.694 588.376C473.966 588.376 472.55 588.88 471.446 589.888C470.366 590.896 469.826 592.204 469.826 593.812C469.826 595.444 470.366 596.776 471.446 597.808C472.55 598.816 473.966 599.32 475.694 599.32ZM502.778 584.56C505.202 584.56 507.146 585.268 508.61 586.684C510.074 588.1 510.806 590.2 510.806 592.984V604H506.306V593.56C506.306 591.88 505.91 590.62 505.118 589.78C504.326 588.916 503.198 588.484 501.734 588.484C500.078 588.484 498.77 588.988 497.81 589.996C496.85 590.98 496.37 592.408 496.37 594.28V604H491.87V584.776H496.154V587.26C496.898 586.372 497.834 585.7 498.962 585.244C500.09 584.788 501.362 584.56 502.778 584.56ZM534.762 594.496C534.762 594.808 534.738 595.252 534.69 595.828H519.606C519.87 597.244 520.554 598.372 521.658 599.212C522.786 600.028 524.178 600.436 525.834 600.436C527.946 600.436 529.686 599.74 531.054 598.348L533.466 601.12C532.602 602.152 531.51 602.932 530.19 603.46C528.87 603.988 527.382 604.252 525.726 604.252C523.614 604.252 521.754 603.832 520.146 602.992C518.538 602.152 517.29 600.988 516.402 599.5C515.538 597.988 515.106 596.284 515.106 594.388C515.106 592.516 515.526 590.836 516.366 589.348C517.23 587.836 518.418 586.66 519.93 585.82C521.442 584.98 523.146 584.56 525.042 584.56C526.914 584.56 528.582 584.98 530.046 585.82C531.534 586.636 532.686 587.8 533.502 589.312C534.342 590.8 534.762 592.528 534.762 594.496ZM525.042 588.16C523.602 588.16 522.378 588.592 521.37 589.456C520.386 590.296 519.786 591.424 519.57 592.84H530.478C530.286 591.448 529.698 590.32 528.714 589.456C527.73 588.592 526.506 588.16 525.042 588.16ZM543.369 587.584C544.665 585.568 546.945 584.56 550.209 584.56V588.844C549.825 588.772 549.477 588.736 549.165 588.736C547.413 588.736 546.045 589.252 545.061 590.284C544.077 591.292 543.585 592.756 543.585 594.676V604H539.085V584.776H543.369V587.584Z" fill="#EFEFEF"/>
</g>
<defs>
<linearGradient id="paint0_linear" x1="424.143" y1="453" x2="424.143" y2="561.75" gradientUnits="userSpaceOnUse">
<stop stop-color="#B29FD8"/>
<stop offset="1" stop-color="#7B62A2"/>
</linearGradient>
<linearGradient id="paint1_linear" x1="455.25" y1="453.5" x2="455.25" y2="561.75" gradientUnits="userSpaceOnUse">
<stop stop-color="#BCA8E0"/>
<stop offset="1" stop-color="#8668B2"/>
</linearGradient>
<linearGradient id="paint2_linear" x1="302.143" y1="109.999" x2="302.143" y2="218.749" gradientUnits="userSpaceOnUse">
<stop stop-color="#99ADD2"/>
<stop offset="1" stop-color="#506A92"/>
</linearGradient>
<linearGradient id="paint3_linear" x1="333.25" y1="110.499" x2="333.25" y2="218.749" gradientUnits="userSpaceOnUse">
<stop stop-color="#ABB7E1"/>
<stop offset="1" stop-color="#7B88BF"/>
</linearGradient>
<linearGradient id="paint4_linear" x1="1320.14" y1="322" x2="1320.14" y2="430.75" gradientUnits="userSpaceOnUse">
<stop stop-color="#91CC97"/>
<stop offset="1" stop-color="#569863"/>
</linearGradient>
<linearGradient id="paint5_linear" x1="1351.25" y1="322.5" x2="1351.25" y2="430.75" gradientUnits="userSpaceOnUse">
<stop stop-color="#ACE2B1"/>
<stop offset="1" stop-color="#7EC187"/>
</linearGradient>
<linearGradient id="paint6_linear" x1="1033.14" y1="550" x2="1033.14" y2="658.75" gradientUnits="userSpaceOnUse">
<stop stop-color="#D39E99"/>
<stop offset="1" stop-color="#915F4F"/>
</linearGradient>
<linearGradient id="paint7_linear" x1="1064.25" y1="550.5" x2="1064.25" y2="658.75" gradientUnits="userSpaceOnUse">
<stop stop-color="#BF9F7B"/>
<stop offset="1" stop-color="#DFB6A8"/>
</linearGradient>
<clipPath id="clip0">
<rect width="1746" height="869" fill="white"/>
</clipPath>
</defs>
</svg>
