<svg width="1822" height="805" viewBox="0 0 1822 805" fill="none" xmlns="http://www.w3.org/2000/svg">
<g clip-path="url(#clip0)">
<path d="M40.3773 271.688C42.9245 271.955 44.8855 271.708 46.0401 271.56C47.1637 271.417 47.658 271.366 48.517 271.53C49.0955 271.641 49.7719 271.84 50.519 272.115C52.0457 272.683 53.1783 273.095 54.0262 273.412C55.4904 274.816 57.7216 276.643 62.0985 279.572C61.9269 279.678 61.7663 279.789 61.6117 279.901C60.1131 279.851 58.5538 279.898 56.9044 280.036C54.4204 278.295 50.9529 276.377 45.9987 274.284C44.2332 273.538 42.8262 272.945 41.7171 272.474C41.2624 272.191 40.8155 271.93 40.3773 271.688ZM1520.37 14.735C1496.9 10.2539 1486.74 13.0776 1477.77 15.5659C1474.54 16.4652 1471.48 17.3131 1467.6 17.8886C1452.64 20.0942 1448.96 22.8106 1442.68 28.2629C1441.02 29.6927 1439.06 31.4014 1436.34 33.4748C1429.47 38.7101 1428.3 41.1237 1426.97 44.6298C1426.07 47.0002 1424.94 49.9487 1419.24 56.7167C1410.43 67.1952 1367.32 72.2678 1352.92 73.2187L1351.33 73.3218L1335.38 77.6561L1305.02 76.5941L1284.91 70.7839C1277.62 68.6766 1270.41 66.9348 1263.5 65.6162C1251.41 63.3082 1244.08 63.0298 1243.28 63.0052L1242.58 62.9823L1187.83 65.3359L1160.05 73.3357L1152.77 84.7379L1152.63 85.4546C1152.63 85.4534 1150.33 93.4414 1131.64 103.028C1121.09 108.442 1118.38 107.924 1116.76 107.615C1113.92 107.072 1109.42 105.445 1103.73 103.389C1098.93 101.648 1092.94 99.4818 1085.58 97.1122C1083.17 96.3297 1080.96 95.619 1079.06 95.0054C1077.26 91.8392 1072.76 88.7631 1067.95 85.8496C1060.75 81.4896 1058.96 79.8918 1057.65 78.7301C1053.44 74.9968 1050.81 73.4938 1029.9 64.604C1018.84 59.899 1008.64 56.6362 999.592 54.9083C983.931 51.9186 975.561 54.2066 972.599 55.3832L955.996 60.8838C944.907 64.5605 940.442 69.6098 939.263 74.1383L924.25 73.9733C919.881 69.2295 911.082 58.6298 896.262 36.5799C884.802 19.5199 879.397 12.8668 868.02 10.6948C862.79 9.69643 858.701 10.3676 855.719 10.8551C852.506 11.3827 849.967 11.7995 844.737 10.8011C842.207 10.3181 839.316 9.5366 836.143 8.48852C830.482 6.60439 824.315 5.02536 817.812 3.78376C780.326 -3.37243 740.222 2.32787 734.788 3.16414L684.652 7.86419C653.398 10.7974 652.8 10.8521 653.035 15.9679L653.034 15.9712C651.518 16.455 649.438 17.074 646.585 17.8393C607.355 28.3521 601.138 47.0849 600.896 47.8761L593.241 67.0094L589.825 84.9027L581.902 98.3266C576.16 102.136 567.914 106.308 563.763 106.924C559.717 105.213 552.253 102.181 536.786 97.4182C537.797 96.3722 538.505 95.1062 538.798 93.5719C539.875 87.9267 540.131 86.5879 537.509 83.7307L537.515 83.7319C537.55 83.7385 536.753 82.2663 535.673 77.043C532.734 62.805 518.573 58.6229 512.625 57.4872C509.954 56.9775 507.505 56.7698 505.449 56.7217L475.87 45.1667L428.084 56.1526L407.982 77.7583L407.838 90.3139C407.819 92.2854 407.671 93.7291 407.485 94.7672L372.788 91.7188L360.885 89.4465L359.451 89.3753C354.358 89.1188 309.126 87.0067 288.898 91.5417C267.393 96.3595 276.123 108.148 282.492 116.754C285.545 120.879 289.013 125.555 291.494 130.924C292.09 132.213 292.566 133.307 292.94 134.232C291.513 133.902 289.984 133.57 288.371 133.262L259.247 127.702L233.154 128.508L199.022 125.675L191.747 129.043L179.178 126.644L170.016 136.246L174.9 148.637L172.86 148.983L142.567 141.428L125.899 148.061L104.732 162.494L111.925 176.971L121.715 192.405L123.021 207.358C123.476 212.56 124.33 222.237 137.816 224.811C139.634 225.158 141.394 225.298 143.071 225.234L152.396 231.94L185.818 246.204L213.854 258.349L221.52 264.89L231.296 280.207L229.932 287.354L216.639 296.515L158.315 286.113L153.289 284.56L126.746 273.918L74.7442 249.973L36.754 246.316L29.9218 257.899C27.8012 261.488 26.4033 263.861 29.7437 267.207L30.4561 267.917C30.1476 267.851 29.8444 267.79 29.5289 267.73C15.8084 265.11 5.30538 271.049 3.33541 272.263L1.08879 273.658L0.941833 275.76C0.901392 276.289 0.0709858 288.856 2.8558 299.077C3.60346 301.823 7.18785 308.554 24.2332 311.808C36.0019 314.054 51.2072 314.003 59.2089 313.775C79.3401 323.452 109.305 339.646 115.821 347.993C117.369 349.973 118.088 351.184 118.423 351.873C118.365 351.892 118.306 351.915 118.253 351.938C115.097 353.213 109.815 355.341 107.561 360.897C106.498 363.513 104.513 365.092 101.764 367.282C96.8155 371.216 90.6597 376.114 88.4048 387.926C87.4689 392.829 84.6195 407.755 103.412 411.342C103.815 411.419 104.209 411.484 104.592 411.54L142.419 430.835C151.779 435.61 159.218 438.421 165.827 439.683C173.173 441.085 179.522 440.504 183.721 438.051C188.568 435.216 189.255 430.411 188.422 425.795C200.999 428.253 219.114 432.181 238.321 437.63C263.17 444.676 260.613 455.691 260.238 456.923L260.147 457.304L258.862 464.037C254.828 466.576 245.29 472.79 232.78 482.323C225.069 488.201 222.521 494.315 225.204 500.503C227.154 504.977 231.429 508.342 234.775 510.42L241.479 522.827L242.426 523.737C242.866 524.162 253.614 534.388 279.211 550.71C291.317 558.423 296.592 560.517 301.185 561.394C306.158 562.343 310.751 561.758 313.476 559.827C314.352 559.204 314.978 558.493 315.36 557.699C332.33 557.761 367.16 557.479 407.921 554.841C448.73 552.2 457.273 550.218 456.023 543.662C456.009 543.579 455.988 543.494 455.963 543.405L477.971 528.848L495.458 517.891C506.738 518.161 538.964 519.401 568.192 524.984C570.401 525.405 572.605 525.853 574.773 526.328C577.576 526.94 579.766 527.49 581.468 527.964C580.854 528.137 580.25 528.285 579.727 528.391L577.573 528.827L560.666 540.009L526.641 539.122L523.878 541.221C522.794 542.047 517.383 546.791 517.242 559.171C517.243 559.229 517.244 559.287 517.245 559.347C514.215 558.053 511.218 557.127 508.209 556.552C499.777 554.943 493.13 556.547 489.483 559.088L447.032 570.772L452.587 576.823C453.711 578.043 464.577 589.365 499.287 609.571C507.556 614.383 513.381 617.72 516.647 619.516C517.015 619.782 517.452 620.091 517.986 620.467C523.076 624.703 544.188 655.733 561.516 683.174L563.176 685.804L594.583 698.758L634.092 709.872L675.371 714.927L717.961 705.562C724.214 704.787 731.095 704.177 734.26 704.095C739.576 705.914 754.552 711.821 767.419 717.07L783.231 727.29L824.578 737.189L876.241 729.313L899.177 717.698L920.962 705.611L928.885 692.852L925.735 672.777L908.613 653.772L874.828 642.97L863.713 634.981C862.488 630.135 859.523 618.258 857.734 609.642C861.704 610.038 866.988 610.372 872.364 609.335C872.452 609.318 872.691 609.273 873.445 609.417C875.501 609.809 886.899 612.826 909.848 633.821C917.114 640.462 925.248 644.678 934.037 646.356C954.588 650.28 967.146 638.588 971.261 633.88L994.97 626.688L1011.07 623.765L1019.48 625.371L1052.32 639.852L1059.55 665.09L1068.36 682.965C1073.36 693.092 1074.54 695.5 1082.72 697.06C1083.89 697.284 1085.42 697.438 1087.03 697.4C1087.9 699.88 1086.54 702.051 1086.45 702.185L1086.19 702.585L1085.99 703.084C1085.93 703.257 1079.62 720.787 1071.28 734.398C1059.91 752.948 1123.74 775.281 1143.57 781.68L1151.32 784.183L1169.7 773.603L1175.45 767.138L1176.04 767.272C1177.05 770.039 1178.37 774.087 1179.7 779.274C1181.36 785.674 1188.41 790.653 1198.57 792.592C1210.29 794.829 1223 792.139 1225.43 791.579L1227.01 791.218L1239 784.538L1234.1 775.215L1230.37 766.867C1231.81 766.242 1235.04 766.232 1239.27 766.87C1238.79 767.33 1238.26 767.762 1237.84 768.029L1233.66 770.696L1247.57 789.627L1273.79 802.27L1286.44 804.684L1288.67 804.6C1289.57 804.569 1310.65 803.671 1321.39 793.189C1327.04 787.684 1325.36 782.893 1322.96 779.845C1318.16 773.747 1308.08 771.05 1305.49 770.443C1304.67 770.175 1299.41 768.324 1289.24 761.903C1287.3 760.671 1286.47 759.945 1286.14 759.62C1286.4 759.115 1287.19 758.188 1287.78 757.487C1289.2 755.81 1291 753.669 1292.18 750.786C1293.44 751.455 1294.75 752.197 1295.9 752.9C1297.92 755.503 1302.51 761.521 1304.64 765.058C1309.22 772.654 1319.78 774.671 1323.26 775.335C1325.97 775.851 1329 776.282 1332.5 776.775C1335.53 777.202 1339.11 777.706 1343.36 778.396C1364.64 781.847 1372.55 775.625 1380.18 769.607C1382.63 767.681 1385.39 765.498 1388.9 763.266C1401.24 755.393 1401.51 750.64 1400.91 743.53C1400.73 741.233 1400.51 738.629 1400.9 735.229L1401.06 733.838C1402.46 721.675 1402.88 718.008 1398.07 708.47C1396.2 704.754 1396.2 702.606 1396.2 700.121C1396.2 697.708 1396.2 694.973 1394.5 691.305C1392.89 687.835 1393.03 686.788 1393.67 681.74C1393.87 680.098 1394.12 678.141 1394.36 675.69C1394.43 674.934 1394.5 674.354 1394.58 673.908C1397.03 673.729 1400.31 673.42 1404.46 672.582C1404.86 673.559 1405.25 675.017 1405.55 676.173C1406.35 679.185 1407.34 682.935 1409.83 687.402C1410.28 688.214 1410.62 688.896 1410.86 689.466L1410.28 689.483L1405.45 714.758C1404.96 717.331 1405.98 721.097 1407.14 725.455C1407.68 727.435 1408.23 729.454 1408.57 731.23C1409.67 736.975 1415.94 740.143 1421.44 741.192C1426.57 742.172 1430.82 741.36 1433.71 740.362L1442.78 740.406L1443.19 740.393C1446.43 740.264 1455.81 739.935 1460.35 739.957C1477.09 740.041 1474.05 731.307 1470.53 721.195L1468.47 715.211C1467.69 712.934 1467.11 711.285 1467.07 710.888C1467.08 710.775 1467.11 710.615 1467.14 710.401C1467.34 709.001 1467.72 706.4 1467.38 699.073C1466.69 684.12 1485.34 663.714 1485.54 663.512L1486.65 662.302L1486.7 639.013L1486.43 638.262C1486.27 637.816 1482.31 627.053 1471.07 602.803C1470.08 600.649 1469.38 598.884 1468.89 597.438L1477.09 602.018L1478.35 590.067L1482.44 568.669C1482.71 567.245 1484.62 566.328 1492.68 563.024C1500.54 559.802 1512.42 554.93 1528.61 545.69C1538.46 540.072 1543.87 539.254 1545.63 539.155C1546.29 539.807 1547.06 541.011 1547.34 541.901L1548.94 547.02L1557.67 548.756L1586.45 554.251C1606.54 558.086 1613.1 557.181 1619.89 549.641C1622.66 546.567 1626.84 541.923 1639.58 535.573C1654.19 528.288 1659.48 525.042 1657.14 519.8C1655.14 515.306 1648.34 513.205 1645.79 512.413C1645.49 512.319 1645.17 512.237 1644.84 512.127C1644.74 511.815 1644.64 511.276 1644.69 510.459C1645.28 500.696 1642.51 495.75 1639.82 490.969C1637.91 487.57 1635.94 484.06 1634.8 477.694C1633.71 471.693 1633.71 471.693 1643.92 468.703C1651.12 466.596 1661.99 463.411 1675.99 456.657C1690.16 449.817 1695.8 446.1 1694.06 440.778C1692.52 436.092 1685.88 433.466 1682.31 432.052C1677.96 430.331 1675.56 429.384 1674.56 425.182C1670.5 408.059 1658.79 404.797 1632.69 399.048C1622.13 396.722 1607.68 393.538 1588.11 388.114C1533.93 373.095 1506.8 322.083 1504.08 316.729L1502.49 310.017L1519.8 291.3C1523.41 290.31 1529.73 288.907 1535.96 288.544L1534.74 289.472L1560.97 311.438L1565.38 312.935L1567.36 313.336C1576.32 315.047 1593.92 313.946 1619.65 310.058C1632.6 308.1 1647.21 304.821 1645.19 296.752C1644.1 292.368 1638.67 289.16 1633.29 286.998L1635.97 264.187C1635.97 264.187 1616.25 202.854 1615.41 200.247C1616.3 200.474 1617.21 200.679 1618.15 200.857C1624.94 202.155 1635.15 202.425 1645.18 196.346C1660.82 186.88 1669.17 183.913 1672.59 182.995L1677.42 184.637L1712.99 157.543L1713.18 157.366C1713.7 156.893 1726.05 145.451 1739.04 119.744C1747.67 102.677 1747.18 99.8076 1743.72 96.4627L1740.66 93.5077L1734.94 92.3157C1734.22 92.1774 1733.5 92.075 1732.81 92.0075L1705.26 71.0036L1703.66 70.2665C1668.59 54.1209 1662.6 52.9786 1660.35 52.5479C1654.83 51.4938 1624.85 47.9361 1611.58 46.3819L1585.14 34.3185L1557.32 21.7885L1520.37 14.735Z" fill="#867743"/>
<path d="M260.259 134.647C260.259 134.647 271.77 136.845 287.127 139.777C302.478 142.707 311.256 148.819 302.807 130.575C294.354 112.327 276.389 102.246 295.092 98.0547C313.795 93.8633 361.079 96.2354 361.079 96.2354L372.59 98.433L415.631 102.217C415.631 102.217 419.471 102.95 419.596 91.8863C419.717 80.8152 419.717 80.8152 419.717 80.8152L437.236 61.9846L476.768 52.897L504.532 63.7443C504.532 63.7443 520.904 61.3228 524.01 76.3322C527.111 91.3404 528.949 81.7113 527.111 91.3404C525.273 100.966 481.948 88.2625 525.273 100.966C568.597 113.677 558.389 115.054 568.597 113.677C578.805 112.297 592.569 102.726 592.569 102.726L601.388 87.7784L604.861 69.5885L612.482 50.5094C612.482 50.5094 617.664 33.7702 653.3 24.2223C688.941 14.6755 638.306 19.422 688.941 14.6755C739.577 9.9257 739.577 9.92567 739.577 9.92567C739.577 9.92567 792.946 1.26475 832.228 14.3074C871.508 27.3534 860.645 0.883106 885.43 37.7696C910.214 74.6593 918.992 80.7681 918.992 80.7681L951.391 81.1293C951.391 81.1293 946.394 72.697 963.379 67.0669C980.369 61.4411 980.369 61.4411 980.369 61.4411C980.369 61.4411 991.394 55.7838 1024.51 69.8678C1057.62 83.9508 1039.04 77.0755 1060.44 90.0292C1081.83 102.986 1048.1 92.1141 1081.83 102.986C1115.57 113.863 1118.38 119.943 1140.43 108.629C1162.48 97.3143 1164.32 87.6852 1164.32 87.6852L1170 78.789L1193.15 72.1218L1245.3 69.8793C1245.3 69.8793 1259.14 70.3038 1281.76 76.8403C1304.38 83.3789 1304.38 83.3789 1304.38 83.3789L1339.95 84.6219L1356.73 80.0635C1356.73 80.0635 1417.17 76.0781 1430.03 60.7917C1442.89 45.5053 1434.61 47.2493 1446.24 38.3823C1457.88 29.5175 1456.37 27.0103 1472.75 24.5932C1489.12 22.1716 1492.27 16.1214 1519.13 21.2495C1546 26.3799 1553.67 27.8446 1553.67 27.8446L1579.32 39.3911L1608.59 52.7455C1608.59 52.7455 1653.35 57.9637 1659.1 59.0625C1664.86 60.1613 1697.78 75.3149 1697.78 75.3149L1730.77 100.462C1730.77 100.462 1740.48 91.2296 1727.71 116.512C1714.92 141.794 1702.88 152.8 1702.88 152.8L1672.61 175.852C1672.61 175.852 1665.15 173.315 1635.91 191.019C1606.66 208.726 1589.19 154.379 1606.66 208.726C1624.14 263.066 1624.14 263.066 1624.14 263.066L1620.95 290.179C1620.95 290.179 1653.37 297.477 1614.46 303.357C1575.55 309.234 1568.07 306.696 1568.07 306.696L1549.21 290.9C1549.21 290.9 1558.52 283.805 1542.96 281.946C1527.4 280.083 1510.42 285.71 1510.42 285.71L1490.36 307.388L1492.57 316.679C1492.57 316.679 1520.94 376.425 1585.17 394.234C1649.41 412.044 1658.51 406.017 1662.92 424.6C1667.33 443.184 1701.96 434.271 1667.4 450.958C1632.82 467.643 1620.2 460.798 1623.11 476.876C1626 492.956 1633.88 493.35 1632.95 508.695C1632 524.039 1663.85 513.485 1630.88 529.922C1597.9 546.359 1616.48 553.231 1587.7 547.736C1558.91 542.24 1558.91 542.24 1558.91 542.24C1558.91 542.24 1552.99 521.153 1519.5 540.261C1486.02 559.375 1472.18 558.949 1470.75 566.438C1469.32 573.927 1466.66 587.836 1466.66 587.836C1466.66 587.836 1448.49 578.823 1459.76 603.148C1471.03 627.478 1474.95 638.208 1474.95 638.208L1474.9 659.266C1474.9 659.266 1454.86 680.943 1455.63 697.721C1456.4 714.503 1453.34 704.493 1457.81 717.545C1462.28 730.596 1463.79 733.1 1457.83 733.073C1451.87 733.041 1439.85 733.518 1439.85 733.518L1427.92 733.459C1427.92 733.459 1421.25 737.175 1420.25 731.995C1419.25 726.813 1416.63 719.663 1417.14 716.989C1417.65 714.314 1418.67 708.962 1418.67 708.962L1421.12 696.124C1421.12 696.124 1426.13 695.972 1420.94 686.667C1415.76 677.359 1417.95 671.124 1411.63 667.701C1405.33 664.279 1424.33 658.481 1405.33 664.279C1386.32 670.077 1383.6 663.461 1382.62 673.807C1381.64 684.15 1380.37 685.573 1383.19 691.655C1386.01 697.74 1382.52 700.398 1386.84 708.986C1391.17 717.575 1390.66 720.25 1389.17 733.27C1387.68 746.291 1394.19 748.641 1379.47 758.029C1364.75 767.418 1363.32 774.907 1344.02 771.776C1324.73 768.647 1318.67 769.154 1315.65 764.144C1312.62 759.131 1305.42 749.993 1305.42 749.993C1305.42 749.993 1283.37 735.25 1281.43 745.414C1279.49 755.577 1266.4 756.404 1281.49 765.939C1296.58 775.471 1303.29 776.753 1303.29 776.753C1303.29 776.753 1319.51 780.402 1310.95 788.748C1302.39 797.094 1285.37 797.727 1285.37 797.727L1277.69 796.261L1256.74 786.161L1247.27 773.266C1247.27 773.266 1261.99 763.879 1240.78 760.386C1219.57 756.889 1218.03 764.912 1218.03 764.912L1222.91 775.823L1225.84 781.372L1219.15 785.087C1219.15 785.087 1194.19 790.854 1191.33 779.774C1188.47 768.695 1185.65 762.614 1185.65 762.614L1168.48 758.778L1159.62 768.732L1147.33 775.808C1147.33 775.808 1073.79 752.068 1082.46 737.923C1091.13 723.774 1097.52 705.869 1097.52 705.869C1097.52 705.869 1103.68 697.064 1091.65 689.778C1079.61 682.49 1088.22 699.934 1079.61 682.49C1071.01 665.046 1071.01 665.046 1071.01 665.046L1062.95 636.898L1023.05 619.3L1008.66 616.553L988.571 620.202L961.648 628.368C961.648 628.368 943.485 653.176 919.354 631.105C895.224 609.033 877.432 600.65 866.586 602.735C855.746 604.826 843.71 597.538 846.037 608.793C848.364 620.048 852.652 636.67 852.652 636.67L868.395 647.988L900.696 658.314L914.27 673.38L916.962 690.525L910.499 700.936L890.433 712.075L869.006 722.924L822.907 729.955L788.673 721.755L774.062 712.315C774.062 712.315 739.468 698.161 735.144 697.37C730.821 696.571 712.475 698.893 712.475 698.893L671.99 707.795L635.546 703.336L598.732 692.979L572.457 682.143C572.457 682.143 535.034 622.884 526.256 616.771C517.478 610.659 540.591 625.052 506.579 605.253C472.561 585.453 462.683 574.695 462.683 574.695L498.371 564.877C498.371 564.877 503.64 558.121 519.483 568.907C535.327 579.694 517.934 587.461 535.327 579.694C552.72 571.923 552.72 571.923 552.72 571.923C552.72 571.923 565.947 584.432 542.222 573.248C518.501 562.069 528.874 571.807 529 560.744C529.12 549.676 533.776 546.132 533.776 546.132L567.427 547.012L585.637 534.965C585.637 534.965 616.668 528.691 576.57 519.928C536.472 511.163 488.78 510.931 488.78 510.931L468.444 523.68L441.125 541.75C441.125 541.75 460.519 544.345 404.128 547.993C347.737 551.644 302.165 550.706 302.165 550.706C302.165 550.706 311.845 562.534 287.013 546.703C262.193 530.877 252.106 521.189 252.106 521.189L244.757 507.588C244.757 507.588 226.384 499.648 242.678 487.234C258.966 474.817 270.2 468.092 270.2 468.092L271.834 459.535C271.834 459.535 277.222 441.714 241.373 431.541C205.522 421.371 173.442 416.355 173.442 416.355C173.442 416.355 190.617 447.356 148.927 426.088C107.236 404.826 107.236 404.826 107.236 404.826C107.236 404.826 96.8236 407.275 100.091 390.157C103.359 373.039 115.28 373.096 119.04 363.834C122.795 354.571 137.539 360.711 126.352 346.377C115.164 332.046 60.8251 306.703 60.8251 306.703C60.8251 306.703 17.0942 309.165 14.4605 299.516C11.8275 289.864 12.682 277.552 12.682 277.552C12.682 277.552 22.9496 271.196 31.7987 275.381C40.6419 279.564 22.6972 271.979 40.6418 279.564C58.5922 287.15 46.3093 288.962 58.5922 287.15C70.87 285.335 65.3265 290.928 70.8699 285.335C76.4139 279.739 97.7577 292.963 76.414 279.739C55.0696 266.518 69.0025 271.673 55.0696 266.518C41.1368 261.363 36.7243 268.836 41.1368 261.363C45.5434 253.889 45.5434 253.889 45.5434 253.889L71.9128 256.428L121.282 279.158L148.994 290.269L156.041 292.445L222.406 304.283L241.299 291.259L243.29 280.829L231.809 262.833L221.543 254.077L191.229 240.95L159.505 227.408L143.764 216.084C143.764 216.084 136.17 224.615 134.761 208.549C133.354 192.476 133.354 192.476 133.354 192.476L123.033 176.204L117.648 165.358L134.798 153.665L146.097 149.168L174.576 156.269L188.45 153.928L182.417 138.636L186.15 134.727L196.224 136.65L204.409 132.858L235.25 135.42L260.259 134.647Z" fill="#C99F8F"/>
<path d="M1263 622.296L1236.92 598.13L1261.05 575.956L1246.05 558L1220.03 582.488L1195.73 559.975L1179 576.338L1203.26 598.277L1181.04 619.197L1193.53 638L1220.14 613.541L1245.22 636.22L1263 622.296Z" fill="#7D584D"/>
<path d="M1194.5 145C1294 192.103 939.836 229.205 1047.5 266.398C1205.85 321.102 835.549 325.263 886.499 389.398C930.88 445.258 1261.5 474.5 1221.5 592.5" stroke="#7D584D" stroke-width="2.66667" stroke-miterlimit="10" stroke-dasharray="16.52 16.52"/>
<path d="M1230.6 145.299C1230.6 156.507 1221.51 165.597 1210.3 165.597C1199.09 165.597 1190 156.507 1190 145.299C1190 134.085 1199.09 125 1210.3 125C1221.51 125 1230.6 134.085 1230.6 145.299Z" fill="#7D584D"/>
<path d="M1570.08 70.65C1570.08 70.65 1540.5 53.1422 1530.76 79.7658C1528.74 76.538 1522.73 68.8696 1511.05 69.3433C1496.32 69.9316 1493.36 81.2181 1493.36 81.2181H1507.72L1509.62 73.8517L1511.52 81.2181H1519.93C1513.03 82.8216 1505.14 88.491 1504.87 106.04L1517.52 97.0132C1517.52 97.0132 1518.41 92.3799 1518.77 92.6194C1519.13 92.8588 1521.03 94.759 1521.03 94.759L1530.6 87.7101C1546.21 121.2 1532.31 178.492 1532.31 178.492H1544.78C1552.17 122.903 1541.5 95.3733 1536.14 85.5756L1551.79 78.485L1550.72 74.6847L1555.35 77.0637L1570.08 70.65Z" fill="#7D584D"/>
<path d="M1478.41 110.298L1487.03 98.0226L1484.54 95.6383L1489.07 95.3728L1497.29 84.0133C1497.29 84.0133 1467.3 83.982 1471.78 108.315C1468.84 106.79 1460.92 103.692 1452.35 109.226C1441.54 116.212 1444.32 126.01 1444.32 126.01L1455.12 119.633L1453.28 113.255L1457.98 117.946L1464.29 114.213C1459.81 118.482 1456.4 126.244 1463.99 139.551L1469.5 127.156C1469.5 127.156 1468.11 123.277 1468.48 123.298C1468.85 123.319 1471.13 123.907 1471.13 123.907L1475.19 114.359C1501.79 132.601 1516.77 181.834 1516.77 181.834L1526.14 176.306C1507.02 131.237 1486.79 115.286 1478.41 110.298Z" fill="#7D584D"/>
<path d="M711.971 576.599C711.971 576.599 689.731 550.387 671.828 572.366C670.974 568.66 667.803 559.45 656.605 556.077C642.492 551.829 636 561.522 636 561.522L649.582 566.218L653.784 559.882L653.175 567.462L661.119 570.206C654.075 569.467 644.762 572.252 638.78 588.755L653.685 584.35C653.685 584.35 656.038 580.264 656.298 580.602C656.559 580.946 657.735 583.361 657.735 583.361L669.084 579.826C672.9 616.576 641.045 666.194 641.045 666.194L652.836 670.265C677.981 620.137 676.878 590.629 675.019 579.623L692.121 578.03L692.355 574.089L695.958 577.848L711.971 576.599Z" fill="#7D584D"/>
<path d="M612.364 583.625L624.509 574.832L622.937 571.776L627.31 573L638.795 564.951C638.795 564.951 610.448 555.122 606.741 579.585C604.461 577.18 597.985 571.667 588.072 574.098C575.578 577.17 575 587.337 575 587.337L587.297 584.838L587.64 578.211L590.545 584.177L597.735 582.714C592.112 585.281 586.349 591.512 589.171 606.568L598.422 596.645C598.422 596.645 598.38 592.528 598.724 592.668C599.073 592.814 601.025 594.11 601.025 594.11L607.991 586.41C627.164 612.342 625.243 663.761 625.243 663.761L635.91 661.596C632.563 612.763 618.642 591.075 612.364 583.625Z" fill="#7D584D"/>
<path d="M1361.08 624.647C1361.08 624.647 1331.51 607.145 1321.76 633.763C1319.75 630.541 1313.74 622.867 1302.06 623.341C1287.32 623.934 1284.36 635.216 1284.36 635.216H1298.73L1300.63 627.854L1302.53 635.216H1310.94C1304.03 636.819 1296.15 642.493 1295.88 660.043L1308.53 651.011C1308.53 651.011 1309.42 646.382 1309.78 646.622C1310.13 646.861 1312.04 648.761 1312.04 648.761L1321.6 641.707C1337.21 675.198 1323.32 732.495 1323.32 732.495H1335.79C1343.18 676.9 1332.5 649.376 1327.15 639.578L1342.8 632.488L1341.73 628.682L1346.35 631.061L1361.08 624.647Z" fill="#7D584D"/>
<path d="M1269.42 664.296L1278.03 652.025L1275.54 649.641L1280.08 649.37L1288.3 638.016C1288.3 638.016 1258.3 637.985 1262.79 662.317C1259.84 660.787 1251.93 657.695 1243.35 663.229C1232.54 670.21 1235.32 680.013 1235.32 680.013L1246.12 673.63L1244.28 667.258L1248.98 671.943L1255.29 668.216C1250.82 672.48 1247.41 680.247 1254.99 693.553L1260.5 681.153C1260.5 681.153 1259.12 677.28 1259.49 677.3C1259.86 677.321 1262.14 677.904 1262.14 677.904L1266.2 668.356C1292.79 686.603 1307.77 735.837 1307.77 735.837L1317.14 730.303C1298.03 685.239 1277.78 669.283 1269.42 664.296Z" fill="#7D584D"/>
<path d="M988.645 663C986.719 663 976.71 663.275 969.233 668.694C964.62 672.034 962.667 674.996 962.269 679.259C959.946 683.946 960.769 688.648 963.125 692.533L957 704.776L959.985 730.149L989.561 740L992.662 739.528C993.313 739.426 1008.83 737.01 1023.25 732.243L1049.31 722.574L1053 706.982L1046.54 687.845L1040.76 686.376C1039.9 686.157 1032.07 684.254 1020.59 684.254C1018.66 684.254 1016.9 684.31 1015.29 684.408L1012.5 676.642L992.552 663H988.645Z" fill="#867743"/>
<path d="M1019.38 724.094C1005.69 728.661 990.61 731 990.61 731L970.053 724.094L968 706.465L975.539 691.279C975.539 691.279 970.053 687.191 972.106 683.098C974.164 679.009 971.422 679.009 976.223 675.509C981.019 672 988.552 672 988.552 672L1002.94 681.931L1007.74 695.367C1007.74 695.367 1010.48 693.612 1020.76 693.612C1031.03 693.612 1037.89 695.367 1037.89 695.367L1042 707.632L1039.95 716.397L1019.38 724.094Z" fill="#C99F8F"/>
<path d="M1140.99 24.0236C1141.56 24.1218 1142.15 24.2349 1142.76 24.3649C1146.87 25.2329 1148.87 27.1146 1149.82 28.5387C1150.84 30.0724 1151.04 31.572 1150.97 32.6915C1152.42 35.1788 1154.63 39.3616 1154.74 42.0047C1154.88 45.6555 1151.91 48.673 1150.96 49.5347L1142.74 58.398L1139.63 64.8518L1135.19 76.8952L1134.11 77.5614C1127.56 81.6025 1120.16 86.2261 1118.99 87.0428C1117.13 88.6799 1113.65 90.3349 1107.49 89.2687C1100.59 88.0762 1093.35 83.9744 1093.05 83.7995C1091.16 82.773 1088.54 79.7339 1087.25 71.3555C1086.01 63.3165 1088.2 60.1491 1090.24 58.9029L1096.25 53.0927L1110.15 47.4351L1117.32 44.2063L1120.32 38.4611C1120.64 37.6425 1121.95 34.2776 1123.12 31.9064C1124.6 28.8955 1128.56 25.0826 1129 24.658L1129.94 23.7681L1131.34 23.5627C1131.72 23.5042 1135.28 23.0364 1140.99 24.0236Z" fill="#867743"/>
<path d="M1784.5 368C1785.79 368 1787.13 367.975 1788.54 367.922C1797.92 367.574 1803.04 364.201 1805.69 361.436C1808.53 358.457 1809.53 355.237 1809.82 352.755C1813.97 347.844 1820.43 339.497 1821.67 333.733C1823.38 325.77 1817.97 318.013 1816.21 315.762L1801.46 293.177L1797.07 277.825L1791.86 249.689L1789.73 247.817C1776.83 236.457 1762.27 223.492 1760.02 221.257C1756.54 216.956 1749.49 212 1735.49 212C1719.82 212 1702.3 218.259 1701.56 218.527C1697.01 220.065 1690.07 225.744 1684.03 243.652C1678.23 260.835 1681.84 268.621 1685.88 272.134L1696.9 287.173L1725.4 304.876L1739.99 314.69L1744.42 328.446C1744.8 330.364 1746.42 338.252 1748.09 343.902C1750.21 351.077 1757.48 360.952 1758.3 362.054L1760.02 364.362L1763.03 365.345C1763.86 365.621 1771.53 368 1784.5 368Z" fill="#867743"/>
<path d="M1115.95 84.0259C1116.59 83.4471 1131.66 74.3742 1131.66 74.3742L1135.76 63.4016L1139.17 56.4304L1147.93 47.1797C1147.93 47.1797 1150.83 44.7048 1150.72 42.1651C1150.61 39.6273 1146.72 33.4572 1146.72 33.4572C1146.72 33.4572 1148.22 29.5929 1142.11 28.3053C1135.99 27.0198 1132.33 27.5315 1132.33 27.5315C1132.33 27.5315 1128.39 31.2029 1127.12 33.7326C1125.86 36.2635 1124.37 40.1283 1124.37 40.1283L1120.69 47.0515L1112.05 50.8269L1098.76 56.086L1092.83 61.7045C1092.83 61.7045 1089.92 62.5767 1091.25 70.8242C1092.58 79.0698 1095.1 80.4207 1095.1 80.4207C1095.1 80.4207 1110.41 89.0224 1115.95 84.0259Z" fill="#C99F8F"/>
<path d="M1752.14 225.889C1753.32 227.424 1782.58 253.408 1782.58 253.408L1787.36 279.401L1792.13 296.223L1807.65 320.175C1807.65 320.175 1813.02 326.801 1811.83 332.408C1810.63 338.011 1799.89 350.245 1799.89 350.245C1799.89 350.245 1801.68 359.418 1787.96 359.932C1774.23 360.442 1766.47 357.892 1766.47 357.892C1766.47 357.892 1759.31 348.208 1757.51 342.093C1755.72 335.975 1753.93 326.801 1753.93 326.801L1748.56 309.983L1731.25 298.259L1704.4 281.441L1693.65 266.659C1693.65 266.659 1687.68 263.601 1693.65 245.761C1699.62 227.925 1705.59 225.889 1705.59 225.889C1705.59 225.889 1742 212.638 1752.14 225.889Z" fill="#C99F8F"/>
<path d="M763.544 31.0759L820.224 129.25H699.187L703.829 125.113L704.094 124.877L704.306 124.592L726.306 95.0924L726.543 94.7744L726.703 94.4114L739.512 65.3452L754.712 46.7124L754.904 46.4772L755.053 46.2123L763.544 31.0759Z" fill="url(#paint0_linear)" stroke="#555555" stroke-width="7"/>
<path d="M774.612 45.8784L774.835 46.7385L775.441 47.3881L802.942 76.8526L812.198 103.162L812.543 104.142L813.367 104.775L845.204 129.25H728.068L765.716 29.8505L771.447 33.6713L774.612 45.8784Z" fill="url(#paint1_linear)" stroke="#555555" stroke-width="7"/>
<path d="M402.544 218.076L459.224 316.25H338.187L342.829 312.113L343.094 311.877L343.306 311.592L365.306 282.092L365.543 281.774L365.703 281.411L378.512 252.345L393.712 233.712L393.904 233.477L394.053 233.212L402.544 218.076Z" fill="url(#paint2_linear)" stroke="#555555" stroke-width="7"/>
<path d="M413.612 232.878L413.835 233.738L414.441 234.388L441.941 263.852L451.198 290.161L451.543 291.141L452.366 291.775L484.204 316.25H367.068L404.716 216.85L410.447 220.671L413.612 232.878Z" fill="url(#paint3_linear)" stroke="#555555" stroke-width="7"/>
<path d="M779.544 355.076L836.224 453.25H715.187L719.829 449.113L720.094 448.877L720.306 448.592L742.306 419.092L742.543 418.774L742.703 418.411L755.512 389.345L770.712 370.712L770.904 370.477L771.053 370.212L779.544 355.076Z" fill="url(#paint4_linear)" stroke="#555555" stroke-width="7"/>
<path d="M790.612 369.878L790.835 370.739L791.441 371.388L818.941 400.853L828.198 427.162L828.543 428.142L829.366 428.775L861.204 453.25H744.068L781.716 353.851L787.447 357.671L790.612 369.878Z" fill="url(#paint5_linear)" stroke="#555555" stroke-width="7"/>
<path d="M1355.54 103.076L1412.22 201.25H1291.19L1295.83 197.113L1296.09 196.877L1296.31 196.592L1318.31 167.092L1318.54 166.774L1318.7 166.411L1331.51 137.345L1346.71 118.712L1346.9 118.477L1347.05 118.212L1355.54 103.076Z" fill="url(#paint6_linear)" stroke="#555555" stroke-width="7"/>
<path d="M1366.61 117.878L1366.83 118.739L1367.44 119.388L1394.94 148.853L1404.2 175.162L1404.54 176.142L1405.37 176.775L1437.2 201.25H1320.07L1357.72 101.851L1363.45 105.671L1366.61 117.878Z" fill="url(#paint7_linear)" stroke="#555555" stroke-width="7"/>
<path d="M1380.54 365.076L1437.22 463.25H1316.19L1320.83 459.113L1321.09 458.877L1321.31 458.592L1343.31 429.092L1343.54 428.774L1343.7 428.411L1356.51 399.345L1371.71 380.712L1371.9 380.477L1372.05 380.212L1380.54 365.076Z" fill="url(#paint8_linear)" stroke="#555555" stroke-width="7"/>
<path d="M1391.61 379.878L1391.83 380.739L1392.44 381.388L1419.94 410.853L1429.2 437.162L1429.54 438.142L1430.37 438.775L1462.2 463.25H1345.07L1382.72 363.851L1388.45 367.671L1391.61 379.878Z" fill="url(#paint9_linear)" stroke="#555555" stroke-width="7"/>
<path d="M1270.18 246.36C1267.64 246.36 1265.34 245.808 1263.27 244.704C1261.23 243.576 1259.62 242.028 1258.45 240.06C1257.3 238.092 1256.72 235.872 1256.72 233.4C1256.72 230.928 1257.31 228.708 1258.48 226.74C1259.66 224.772 1261.27 223.236 1263.31 222.132C1265.37 221.004 1267.68 220.44 1270.22 220.44C1272.28 220.44 1274.17 220.8 1275.87 221.52C1277.58 222.24 1279.02 223.284 1280.19 224.652L1277.17 227.496C1275.34 225.528 1273.1 224.544 1270.44 224.544C1268.71 224.544 1267.16 224.928 1265.79 225.696C1264.42 226.44 1263.36 227.484 1262.59 228.828C1261.82 230.172 1261.44 231.696 1261.44 233.4C1261.44 235.104 1261.82 236.628 1262.59 237.972C1263.36 239.316 1264.42 240.372 1265.79 241.14C1267.16 241.884 1268.71 242.256 1270.44 242.256C1273.1 242.256 1275.34 241.26 1277.17 239.268L1280.19 242.148C1279.02 243.516 1277.56 244.56 1275.84 245.28C1274.13 246 1272.25 246.36 1270.18 246.36ZM1292.18 246.252C1290.24 246.252 1288.49 245.832 1286.93 244.992C1285.37 244.152 1284.14 242.988 1283.25 241.5C1282.39 239.988 1281.96 238.284 1281.96 236.388C1281.96 234.492 1282.39 232.8 1283.25 231.312C1284.14 229.824 1285.37 228.66 1286.93 227.82C1288.49 226.98 1290.24 226.56 1292.18 226.56C1294.15 226.56 1295.91 226.98 1297.47 227.82C1299.03 228.66 1300.25 229.824 1301.11 231.312C1302 232.8 1302.44 234.492 1302.44 236.388C1302.44 238.284 1302 239.988 1301.11 241.5C1300.25 242.988 1299.03 244.152 1297.47 244.992C1295.91 245.832 1294.15 246.252 1292.18 246.252ZM1292.18 242.4C1293.84 242.4 1295.21 241.848 1296.29 240.744C1297.37 239.64 1297.91 238.188 1297.91 236.388C1297.91 234.588 1297.37 233.136 1296.29 232.032C1295.21 230.928 1293.84 230.376 1292.18 230.376C1290.53 230.376 1289.16 230.928 1288.08 232.032C1287.02 233.136 1286.49 234.588 1286.49 236.388C1286.49 238.188 1287.02 239.64 1288.08 240.744C1289.16 241.848 1290.53 242.4 1292.18 242.4ZM1331.01 226.56C1333.43 226.56 1335.35 227.268 1336.77 228.684C1338.18 230.076 1338.89 232.176 1338.89 234.984V246H1334.39V235.56C1334.39 233.88 1334.02 232.62 1333.28 231.78C1332.53 230.916 1331.46 230.484 1330.07 230.484C1328.56 230.484 1327.35 230.988 1326.44 231.996C1325.52 232.98 1325.07 234.396 1325.07 236.244V246H1320.57V235.56C1320.57 233.88 1320.2 232.62 1319.45 231.78C1318.71 230.916 1317.64 230.484 1316.25 230.484C1314.71 230.484 1313.49 230.976 1312.58 231.96C1311.69 232.944 1311.24 234.372 1311.24 236.244V246H1306.74V226.776H1311.03V229.224C1311.75 228.36 1312.65 227.7 1313.73 227.244C1314.81 226.788 1316.01 226.56 1317.33 226.56C1318.77 226.56 1320.04 226.836 1321.14 227.388C1322.27 227.916 1323.16 228.708 1323.81 229.764C1324.6 228.756 1325.62 227.976 1326.87 227.424C1328.12 226.848 1329.5 226.56 1331.01 226.56ZM1368.91 226.56C1371.33 226.56 1373.25 227.268 1374.67 228.684C1376.08 230.076 1376.79 232.176 1376.79 234.984V246H1372.29V235.56C1372.29 233.88 1371.92 232.62 1371.18 231.78C1370.43 230.916 1369.36 230.484 1367.97 230.484C1366.46 230.484 1365.25 230.988 1364.34 231.996C1363.42 232.98 1362.97 234.396 1362.97 236.244V246H1358.47V235.56C1358.47 233.88 1358.1 232.62 1357.35 231.78C1356.61 230.916 1355.54 230.484 1354.15 230.484C1352.61 230.484 1351.39 230.976 1350.48 231.96C1349.59 232.944 1349.14 234.372 1349.14 236.244V246H1344.64V226.776H1348.93V229.224C1349.65 228.36 1350.55 227.7 1351.63 227.244C1352.71 226.788 1353.91 226.56 1355.23 226.56C1356.67 226.56 1357.94 226.836 1359.04 227.388C1360.17 227.916 1361.06 228.708 1361.71 229.764C1362.5 228.756 1363.52 227.976 1364.77 227.424C1366.02 226.848 1367.4 226.56 1368.91 226.56ZM1401.15 226.776V246H1396.87V243.552C1396.15 244.416 1395.25 245.088 1394.17 245.568C1393.09 246.024 1391.93 246.252 1390.68 246.252C1388.11 246.252 1386.08 245.544 1384.59 244.128C1383.13 242.688 1382.4 240.564 1382.4 237.756V226.776H1386.9V237.144C1386.9 238.872 1387.28 240.168 1388.05 241.032C1388.84 241.872 1389.96 242.292 1391.4 242.292C1393.01 242.292 1394.28 241.8 1395.21 240.816C1396.17 239.808 1396.65 238.368 1396.65 236.496V226.776H1401.15ZM1417.95 226.56C1420.38 226.56 1422.32 227.268 1423.79 228.684C1425.25 230.1 1425.98 232.2 1425.98 234.984V246H1421.48V235.56C1421.48 233.88 1421.09 232.62 1420.29 231.78C1419.5 230.916 1418.37 230.484 1416.91 230.484C1415.25 230.484 1413.95 230.988 1412.99 231.996C1412.03 232.98 1411.55 234.408 1411.55 236.28V246H1407.05V226.776H1411.33V229.26C1412.07 228.372 1413.01 227.7 1414.14 227.244C1415.27 226.788 1416.54 226.56 1417.95 226.56ZM1431.69 226.776H1436.19V246H1431.69V226.776ZM1433.96 223.608C1433.14 223.608 1432.46 223.356 1431.91 222.852C1431.35 222.324 1431.08 221.676 1431.08 220.908C1431.08 220.14 1431.35 219.504 1431.91 219C1432.46 218.472 1433.14 218.208 1433.96 218.208C1434.77 218.208 1435.46 218.46 1436.01 218.964C1436.56 219.444 1436.84 220.056 1436.84 220.8C1436.84 221.592 1436.56 222.264 1436.01 222.816C1435.48 223.344 1434.8 223.608 1433.96 223.608ZM1453.65 244.956C1453.12 245.388 1452.48 245.712 1451.71 245.928C1450.96 246.144 1450.17 246.252 1449.33 246.252C1447.22 246.252 1445.59 245.7 1444.44 244.596C1443.28 243.492 1442.71 241.884 1442.71 239.772V230.52H1439.54V226.92H1442.71V222.528H1447.21V226.92H1452.36V230.52H1447.21V239.664C1447.21 240.6 1447.44 241.32 1447.89 241.824C1448.35 242.304 1449.01 242.544 1449.87 242.544C1450.88 242.544 1451.72 242.28 1452.39 241.752L1453.65 244.956ZM1475 226.776L1466 247.548C1465.16 249.636 1464.14 251.1 1462.94 251.94C1461.74 252.804 1460.29 253.236 1458.59 253.236C1457.63 253.236 1456.68 253.08 1455.74 252.768C1454.81 252.456 1454.04 252.024 1453.44 251.472L1455.24 248.16C1455.67 248.568 1456.17 248.892 1456.75 249.132C1457.35 249.372 1457.95 249.492 1458.55 249.492C1459.34 249.492 1459.99 249.288 1460.49 248.88C1461.02 248.472 1461.5 247.788 1461.93 246.828L1462.26 246.072L1453.87 226.776H1458.55L1464.6 240.996L1470.68 226.776H1475ZM1308.81 290L1308.77 273.296L1300.49 287.12H1298.41L1290.13 273.512V290H1285.66V264.8H1289.51L1299.52 281.504L1309.35 264.8H1313.2L1313.24 290H1308.81ZM1326.96 270.56C1329.79 270.56 1331.95 271.244 1333.44 272.612C1334.95 273.956 1335.7 275.996 1335.7 278.732V290H1331.46V287.66C1330.9 288.5 1330.11 289.148 1329.08 289.604C1328.07 290.036 1326.85 290.252 1325.41 290.252C1323.97 290.252 1322.71 290.012 1321.63 289.532C1320.55 289.028 1319.71 288.344 1319.11 287.48C1318.53 286.592 1318.24 285.596 1318.24 284.492C1318.24 282.764 1318.88 281.384 1320.15 280.352C1321.45 279.296 1323.48 278.768 1326.24 278.768H1331.2V278.48C1331.2 277.136 1330.8 276.104 1329.98 275.384C1329.19 274.664 1328 274.304 1326.42 274.304C1325.34 274.304 1324.27 274.472 1323.21 274.808C1322.18 275.144 1321.3 275.612 1320.58 276.212L1318.82 272.936C1319.83 272.168 1321.04 271.58 1322.46 271.172C1323.87 270.764 1325.37 270.56 1326.96 270.56ZM1326.34 286.976C1327.47 286.976 1328.47 286.724 1329.33 286.22C1330.22 285.692 1330.84 284.948 1331.2 283.988V281.756H1326.56C1323.97 281.756 1322.67 282.608 1322.67 284.312C1322.67 285.128 1323 285.776 1323.64 286.256C1324.29 286.736 1325.19 286.976 1326.34 286.976ZM1352.39 270.56C1354.81 270.56 1356.76 271.268 1358.22 272.684C1359.68 274.1 1360.42 276.2 1360.42 278.984V290H1355.92V279.56C1355.92 277.88 1355.52 276.62 1354.73 275.78C1353.94 274.916 1352.81 274.484 1351.34 274.484C1349.69 274.484 1348.38 274.988 1347.42 275.996C1346.46 276.98 1345.98 278.408 1345.98 280.28V290H1341.48V270.776H1345.76V273.26C1346.51 272.372 1347.44 271.7 1348.57 271.244C1349.7 270.788 1350.97 270.56 1352.39 270.56ZM1373.47 270.56C1376.3 270.56 1378.46 271.244 1379.95 272.612C1381.46 273.956 1382.22 275.996 1382.22 278.732V290H1377.97V287.66C1377.42 288.5 1376.62 289.148 1375.59 289.604C1374.58 290.036 1373.36 290.252 1371.92 290.252C1370.48 290.252 1369.22 290.012 1368.14 289.532C1367.06 289.028 1366.22 288.344 1365.62 287.48C1365.04 286.592 1364.76 285.596 1364.76 284.492C1364.76 282.764 1365.39 281.384 1366.66 280.352C1367.96 279.296 1369.99 278.768 1372.75 278.768H1377.72V278.48C1377.72 277.136 1377.31 276.104 1376.49 275.384C1375.7 274.664 1374.51 274.304 1372.93 274.304C1371.85 274.304 1370.78 274.472 1369.72 274.808C1368.69 275.144 1367.82 275.612 1367.1 276.212L1365.33 272.936C1366.34 272.168 1367.55 271.58 1368.97 271.172C1370.38 270.764 1371.88 270.56 1373.47 270.56ZM1372.86 286.976C1373.98 286.976 1374.98 286.724 1375.84 286.22C1376.73 285.692 1377.36 284.948 1377.72 283.988V281.756H1373.07C1370.48 281.756 1369.18 282.608 1369.18 284.312C1369.18 285.128 1369.51 285.776 1370.16 286.256C1370.8 286.736 1371.7 286.976 1372.86 286.976ZM1407.25 270.776V287.084C1407.25 293.852 1403.79 297.236 1396.88 297.236C1395.03 297.236 1393.28 296.996 1391.62 296.516C1389.97 296.06 1388.6 295.388 1387.52 294.5L1389.53 291.116C1390.37 291.812 1391.43 292.364 1392.7 292.772C1394 293.204 1395.31 293.42 1396.63 293.42C1398.74 293.42 1400.29 292.94 1401.27 291.98C1402.25 291.02 1402.75 289.556 1402.75 287.588V286.58C1401.98 287.42 1401.04 288.056 1399.94 288.488C1398.83 288.92 1397.62 289.136 1396.3 289.136C1394.48 289.136 1392.82 288.752 1391.33 287.984C1389.87 287.192 1388.71 286.088 1387.84 284.672C1387 283.256 1386.58 281.636 1386.58 279.812C1386.58 277.988 1387 276.38 1387.84 274.988C1388.71 273.572 1389.87 272.48 1391.33 271.712C1392.82 270.944 1394.48 270.56 1396.3 270.56C1397.69 270.56 1398.95 270.788 1400.08 271.244C1401.23 271.7 1402.19 272.396 1402.96 273.332V270.776H1407.25ZM1396.99 285.32C1398.69 285.32 1400.08 284.816 1401.16 283.808C1402.27 282.776 1402.82 281.444 1402.82 279.812C1402.82 278.204 1402.27 276.896 1401.16 275.888C1400.08 274.88 1398.69 274.376 1396.99 274.376C1395.26 274.376 1393.84 274.88 1392.74 275.888C1391.66 276.896 1391.12 278.204 1391.12 279.812C1391.12 281.444 1391.66 282.776 1392.74 283.808C1393.84 284.816 1395.26 285.32 1396.99 285.32ZM1431.23 280.496C1431.23 280.808 1431.21 281.252 1431.16 281.828H1416.08C1416.34 283.244 1417.03 284.372 1418.13 285.212C1419.26 286.028 1420.65 286.436 1422.31 286.436C1424.42 286.436 1426.16 285.74 1427.53 284.348L1429.94 287.12C1429.07 288.152 1427.98 288.932 1426.66 289.46C1425.34 289.988 1423.85 290.252 1422.2 290.252C1420.09 290.252 1418.23 289.832 1416.62 288.992C1415.01 288.152 1413.76 286.988 1412.87 285.5C1412.01 283.988 1411.58 282.284 1411.58 280.388C1411.58 278.516 1412 276.836 1412.84 275.348C1413.7 273.836 1414.89 272.66 1416.4 271.82C1417.91 270.98 1419.62 270.56 1421.51 270.56C1423.39 270.56 1425.05 270.98 1426.52 271.82C1428.01 272.636 1429.16 273.8 1429.97 275.312C1430.81 276.8 1431.23 278.528 1431.23 280.496ZM1421.51 274.16C1420.07 274.16 1418.85 274.592 1417.84 275.456C1416.86 276.296 1416.26 277.424 1416.04 278.84H1426.95C1426.76 277.448 1426.17 276.32 1425.19 275.456C1424.2 274.592 1422.98 274.16 1421.51 274.16ZM1439.84 273.584C1441.14 271.568 1443.42 270.56 1446.68 270.56V274.844C1446.3 274.772 1445.95 274.736 1445.64 274.736C1443.89 274.736 1442.52 275.252 1441.53 276.284C1440.55 277.292 1440.06 278.756 1440.06 280.676V290H1435.56V270.776H1439.84V273.584Z" fill="white"/>
<path d="M707.093 507.36C704.549 507.36 702.245 506.808 700.181 505.704C698.141 504.576 696.533 503.028 695.357 501.06C694.205 499.092 693.629 496.872 693.629 494.4C693.629 491.928 694.217 489.708 695.393 487.74C696.569 485.772 698.177 484.236 700.217 483.132C702.281 482.004 704.585 481.44 707.129 481.44C709.193 481.44 711.077 481.8 712.781 482.52C714.485 483.24 715.925 484.284 717.101 485.652L714.077 488.496C712.253 486.528 710.009 485.544 707.345 485.544C705.617 485.544 704.069 485.928 702.701 486.696C701.333 487.44 700.265 488.484 699.497 489.828C698.729 491.172 698.345 492.696 698.345 494.4C698.345 496.104 698.729 497.628 699.497 498.972C700.265 500.316 701.333 501.372 702.701 502.14C704.069 502.884 705.617 503.256 707.345 503.256C710.009 503.256 712.253 502.26 714.077 500.268L717.101 503.148C715.925 504.516 714.473 505.56 712.745 506.28C711.041 507 709.157 507.36 707.093 507.36ZM732.061 487.56C734.485 487.56 736.429 488.268 737.893 489.684C739.357 491.1 740.089 493.2 740.089 495.984V507H735.589V496.56C735.589 494.88 735.193 493.62 734.401 492.78C733.609 491.916 732.481 491.484 731.017 491.484C729.361 491.484 728.053 491.988 727.093 492.996C726.133 493.98 725.653 495.408 725.653 497.28V507H721.153V480.288H725.653V490.008C726.397 489.216 727.309 488.616 728.389 488.208C729.493 487.776 730.717 487.56 732.061 487.56ZM753.142 487.56C755.974 487.56 758.134 488.244 759.622 489.612C761.134 490.956 761.89 492.996 761.89 495.732V507H757.642V504.66C757.09 505.5 756.298 506.148 755.266 506.604C754.258 507.036 753.034 507.252 751.594 507.252C750.154 507.252 748.894 507.012 747.814 506.532C746.734 506.028 745.894 505.344 745.294 504.48C744.718 503.592 744.43 502.596 744.43 501.492C744.43 499.764 745.066 498.384 746.338 497.352C747.634 496.296 749.662 495.768 752.422 495.768H757.39V495.48C757.39 494.136 756.982 493.104 756.166 492.384C755.374 491.664 754.186 491.304 752.602 491.304C751.522 491.304 750.454 491.472 749.398 491.808C748.366 492.144 747.49 492.612 746.77 493.212L745.006 489.936C746.014 489.168 747.226 488.58 748.642 488.172C750.058 487.764 751.558 487.56 753.142 487.56ZM752.53 503.976C753.658 503.976 754.654 503.724 755.518 503.22C756.406 502.692 757.03 501.948 757.39 500.988V498.756H752.746C750.154 498.756 748.858 499.608 748.858 501.312C748.858 502.128 749.182 502.776 749.83 503.256C750.478 503.736 751.378 503.976 752.53 503.976ZM771.949 490.584C773.245 488.568 775.525 487.56 778.789 487.56V491.844C778.405 491.772 778.057 491.736 777.745 491.736C775.993 491.736 774.625 492.252 773.641 493.284C772.657 494.292 772.165 495.756 772.165 497.676V507H767.665V487.776H771.949V490.584ZM801.511 487.776V504.084C801.511 510.852 798.055 514.236 791.143 514.236C789.295 514.236 787.543 513.996 785.887 513.516C784.231 513.06 782.863 512.388 781.783 511.5L783.799 508.116C784.639 508.812 785.695 509.364 786.967 509.772C788.263 510.204 789.571 510.42 790.891 510.42C793.003 510.42 794.551 509.94 795.535 508.98C796.519 508.02 797.011 506.556 797.011 504.588V503.58C796.243 504.42 795.307 505.056 794.203 505.488C793.099 505.92 791.887 506.136 790.567 506.136C788.743 506.136 787.087 505.752 785.599 504.984C784.135 504.192 782.971 503.088 782.107 501.672C781.267 500.256 780.847 498.636 780.847 496.812C780.847 494.988 781.267 493.38 782.107 491.988C782.971 490.572 784.135 489.48 785.599 488.712C787.087 487.944 788.743 487.56 790.567 487.56C791.959 487.56 793.219 487.788 794.347 488.244C795.499 488.7 796.459 489.396 797.227 490.332V487.776H801.511ZM791.251 502.32C792.955 502.32 794.347 501.816 795.427 500.808C796.531 499.776 797.083 498.444 797.083 496.812C797.083 495.204 796.531 493.896 795.427 492.888C794.347 491.88 792.955 491.376 791.251 491.376C789.523 491.376 788.107 491.88 787.003 492.888C785.923 493.896 785.383 495.204 785.383 496.812C785.383 498.444 785.923 499.776 787.003 500.808C788.107 501.816 789.523 502.32 791.251 502.32ZM825.499 497.496C825.499 497.808 825.475 498.252 825.427 498.828H810.343C810.607 500.244 811.291 501.372 812.395 502.212C813.523 503.028 814.915 503.436 816.571 503.436C818.683 503.436 820.423 502.74 821.791 501.348L824.203 504.12C823.339 505.152 822.247 505.932 820.927 506.46C819.607 506.988 818.119 507.252 816.463 507.252C814.351 507.252 812.491 506.832 810.883 505.992C809.275 505.152 808.027 503.988 807.139 502.5C806.275 500.988 805.843 499.284 805.843 497.388C805.843 495.516 806.263 493.836 807.103 492.348C807.967 490.836 809.155 489.66 810.667 488.82C812.179 487.98 813.883 487.56 815.779 487.56C817.651 487.56 819.319 487.98 820.783 488.82C822.271 489.636 823.423 490.8 824.239 492.312C825.079 493.8 825.499 495.528 825.499 497.496ZM815.779 491.16C814.339 491.16 813.115 491.592 812.107 492.456C811.123 493.296 810.523 494.424 810.307 495.84H821.215C821.023 494.448 820.435 493.32 819.451 492.456C818.467 491.592 817.243 491.16 815.779 491.16ZM817.507 480.216H822.799L816.535 485.148H812.647L817.507 480.216ZM840.202 481.8H851.218C853.906 481.8 856.294 482.328 858.382 483.384C860.47 484.416 862.09 485.892 863.242 487.812C864.394 489.708 864.97 491.904 864.97 494.4C864.97 496.896 864.394 499.104 863.242 501.024C862.09 502.92 860.47 504.396 858.382 505.452C856.294 506.484 853.906 507 851.218 507H840.202V481.8ZM851.002 503.04C852.85 503.04 854.47 502.692 855.862 501.996C857.278 501.276 858.358 500.268 859.102 498.972C859.87 497.652 860.254 496.128 860.254 494.4C860.254 492.672 859.87 491.16 859.102 489.864C858.358 488.544 857.278 487.536 855.862 486.84C854.47 486.12 852.85 485.76 851.002 485.76H844.882V503.04H851.002ZM887.585 497.496C887.585 497.808 887.561 498.252 887.513 498.828H872.429C872.693 500.244 873.377 501.372 874.481 502.212C875.609 503.028 877.001 503.436 878.657 503.436C880.769 503.436 882.509 502.74 883.877 501.348L886.289 504.12C885.425 505.152 884.333 505.932 883.013 506.46C881.693 506.988 880.205 507.252 878.549 507.252C876.437 507.252 874.577 506.832 872.969 505.992C871.361 505.152 870.113 503.988 869.225 502.5C868.361 500.988 867.929 499.284 867.929 497.388C867.929 495.516 868.349 493.836 869.189 492.348C870.053 490.836 871.241 489.66 872.753 488.82C874.265 487.98 875.969 487.56 877.865 487.56C879.737 487.56 881.405 487.98 882.869 488.82C884.357 489.636 885.509 490.8 886.325 492.312C887.165 493.8 887.585 495.528 887.585 497.496ZM877.865 491.16C876.425 491.16 875.201 491.592 874.193 492.456C873.209 493.296 872.609 494.424 872.393 495.84H883.301C883.109 494.448 882.521 493.32 881.537 492.456C880.553 491.592 879.329 491.16 877.865 491.16ZM655.396 551.36C652.852 551.36 650.548 550.808 648.484 549.704C646.444 548.576 644.836 547.028 643.66 545.06C642.508 543.092 641.932 540.872 641.932 538.4C641.932 535.928 642.52 533.708 643.696 531.74C644.872 529.772 646.48 528.236 648.52 527.132C650.584 526.004 652.888 525.44 655.432 525.44C657.496 525.44 659.38 525.8 661.084 526.52C662.788 527.24 664.228 528.284 665.404 529.652L662.38 532.496C660.556 530.528 658.312 529.544 655.648 529.544C653.92 529.544 652.372 529.928 651.004 530.696C649.636 531.44 648.568 532.484 647.8 533.828C647.032 535.172 646.648 536.696 646.648 538.4C646.648 540.104 647.032 541.628 647.8 542.972C648.568 544.316 649.636 545.372 651.004 546.14C652.372 546.884 653.92 547.256 655.648 547.256C658.312 547.256 660.556 546.26 662.38 544.268L665.404 547.148C664.228 548.516 662.776 549.56 661.048 550.28C659.344 551 657.46 551.36 655.396 551.36ZM677.393 551.252C675.449 551.252 673.697 550.832 672.137 549.992C670.577 549.152 669.353 547.988 668.465 546.5C667.601 544.988 667.169 543.284 667.169 541.388C667.169 539.492 667.601 537.8 668.465 536.312C669.353 534.824 670.577 533.66 672.137 532.82C673.697 531.98 675.449 531.56 677.393 531.56C679.361 531.56 681.125 531.98 682.685 532.82C684.245 533.66 685.457 534.824 686.321 536.312C687.209 537.8 687.653 539.492 687.653 541.388C687.653 543.284 687.209 544.988 686.321 546.5C685.457 547.988 684.245 549.152 682.685 549.992C681.125 550.832 679.361 551.252 677.393 551.252ZM677.393 547.4C679.049 547.4 680.417 546.848 681.497 545.744C682.577 544.64 683.117 543.188 683.117 541.388C683.117 539.588 682.577 538.136 681.497 537.032C680.417 535.928 679.049 535.376 677.393 535.376C675.737 535.376 674.369 535.928 673.289 537.032C672.233 538.136 671.705 539.588 671.705 541.388C671.705 543.188 672.233 544.64 673.289 545.744C674.369 546.848 675.737 547.4 677.393 547.4ZM716.22 531.56C718.644 531.56 720.564 532.268 721.98 533.684C723.396 535.076 724.104 537.176 724.104 539.984V551H719.604V540.56C719.604 538.88 719.232 537.62 718.488 536.78C717.744 535.916 716.676 535.484 715.284 535.484C713.772 535.484 712.56 535.988 711.648 536.996C710.736 537.98 710.28 539.396 710.28 541.244V551H705.78V540.56C705.78 538.88 705.408 537.62 704.664 536.78C703.92 535.916 702.852 535.484 701.46 535.484C699.924 535.484 698.7 535.976 697.788 536.96C696.9 537.944 696.456 539.372 696.456 541.244V551H691.956V531.776H696.24V534.224C696.96 533.36 697.86 532.7 698.94 532.244C700.02 531.788 701.22 531.56 702.54 531.56C703.98 531.56 705.252 531.836 706.356 532.388C707.484 532.916 708.372 533.708 709.02 534.764C709.812 533.756 710.832 532.976 712.08 532.424C713.328 531.848 714.708 531.56 716.22 531.56ZM754.118 531.56C756.542 531.56 758.462 532.268 759.878 533.684C761.294 535.076 762.002 537.176 762.002 539.984V551H757.502V540.56C757.502 538.88 757.13 537.62 756.386 536.78C755.642 535.916 754.574 535.484 753.182 535.484C751.67 535.484 750.458 535.988 749.546 536.996C748.634 537.98 748.178 539.396 748.178 541.244V551H743.678V540.56C743.678 538.88 743.306 537.62 742.562 536.78C741.818 535.916 740.75 535.484 739.358 535.484C737.822 535.484 736.598 535.976 735.686 536.96C734.798 537.944 734.354 539.372 734.354 541.244V551H729.854V531.776H734.138V534.224C734.858 533.36 735.758 532.7 736.838 532.244C737.918 531.788 739.118 531.56 740.438 531.56C741.878 531.56 743.15 531.836 744.254 532.388C745.382 532.916 746.27 533.708 746.918 534.764C747.71 533.756 748.73 532.976 749.978 532.424C751.226 531.848 752.606 531.56 754.118 531.56ZM786.365 531.776V551H782.081V548.552C781.361 549.416 780.461 550.088 779.381 550.568C778.301 551.024 777.137 551.252 775.889 551.252C773.321 551.252 771.293 550.544 769.805 549.128C768.341 547.688 767.609 545.564 767.609 542.756V531.776H772.109V542.144C772.109 543.872 772.493 545.168 773.261 546.032C774.053 546.872 775.169 547.292 776.609 547.292C778.217 547.292 779.489 546.8 780.425 545.816C781.385 544.808 781.865 543.368 781.865 541.496V531.776H786.365ZM803.165 531.56C805.589 531.56 807.533 532.268 808.997 533.684C810.461 535.1 811.193 537.2 811.193 539.984V551H806.693V540.56C806.693 538.88 806.297 537.62 805.505 536.78C804.713 535.916 803.585 535.484 802.121 535.484C800.465 535.484 799.157 535.988 798.197 536.996C797.237 537.98 796.757 539.408 796.757 541.28V551H792.257V531.776H796.541V534.26C797.285 533.372 798.221 532.7 799.349 532.244C800.477 531.788 801.749 531.56 803.165 531.56ZM816.901 531.776H821.401V551H816.901V531.776ZM819.169 528.608C818.353 528.608 817.669 528.356 817.117 527.852C816.565 527.324 816.289 526.676 816.289 525.908C816.289 525.14 816.565 524.504 817.117 524C817.669 523.472 818.353 523.208 819.169 523.208C819.985 523.208 820.669 523.46 821.221 523.964C821.773 524.444 822.049 525.056 822.049 525.8C822.049 526.592 821.773 527.264 821.221 527.816C820.693 528.344 820.009 528.608 819.169 528.608ZM836.127 551.252C834.135 551.252 832.347 550.832 830.763 549.992C829.179 549.152 827.943 547.988 827.055 546.5C826.167 544.988 825.723 543.284 825.723 541.388C825.723 539.492 826.167 537.8 827.055 536.312C827.943 534.824 829.167 533.66 830.727 532.82C832.311 531.98 834.111 531.56 836.127 531.56C838.023 531.56 839.679 531.944 841.095 532.712C842.535 533.48 843.615 534.584 844.335 536.024L840.879 538.04C840.327 537.152 839.631 536.492 838.791 536.06C837.975 535.604 837.075 535.376 836.091 535.376C834.411 535.376 833.019 535.928 831.915 537.032C830.811 538.112 830.259 539.564 830.259 541.388C830.259 543.212 830.799 544.676 831.879 545.78C832.983 546.86 834.387 547.4 836.091 547.4C837.075 547.4 837.975 547.184 838.791 546.752C839.631 546.296 840.327 545.624 840.879 544.736L844.335 546.752C843.591 548.192 842.499 549.308 841.059 550.1C839.643 550.868 837.999 551.252 836.127 551.252ZM855.569 531.56C858.401 531.56 860.561 532.244 862.049 533.612C863.561 534.956 864.317 536.996 864.317 539.732V551H860.069V548.66C859.517 549.5 858.725 550.148 857.693 550.604C856.685 551.036 855.461 551.252 854.021 551.252C852.581 551.252 851.321 551.012 850.241 550.532C849.161 550.028 848.321 549.344 847.721 548.48C847.145 547.592 846.857 546.596 846.857 545.492C846.857 543.764 847.493 542.384 848.765 541.352C850.061 540.296 852.089 539.768 854.849 539.768H859.817V539.48C859.817 538.136 859.409 537.104 858.593 536.384C857.801 535.664 856.613 535.304 855.029 535.304C853.949 535.304 852.881 535.472 851.825 535.808C850.793 536.144 849.917 536.612 849.197 537.212L847.433 533.936C848.441 533.168 849.653 532.58 851.069 532.172C852.485 531.764 853.985 531.56 855.569 531.56ZM854.957 547.976C856.085 547.976 857.081 547.724 857.945 547.22C858.833 546.692 859.457 545.948 859.817 544.988V542.756H855.173C852.581 542.756 851.285 543.608 851.285 545.312C851.285 546.128 851.609 546.776 852.257 547.256C852.905 547.736 853.805 547.976 854.957 547.976ZM881.649 549.956C881.121 550.388 880.473 550.712 879.705 550.928C878.961 551.144 878.169 551.252 877.329 551.252C875.217 551.252 873.585 550.7 872.433 549.596C871.281 548.492 870.705 546.884 870.705 544.772V535.52H867.537V531.92H870.705V527.528H875.205V531.92H880.353V535.52H875.205V544.664C875.205 545.6 875.433 546.32 875.889 546.824C876.345 547.304 877.005 547.544 877.869 547.544C878.877 547.544 879.717 547.28 880.389 546.752L881.649 549.956ZM885.35 531.776H889.85V551H885.35V531.776ZM887.618 528.608C886.802 528.608 886.118 528.356 885.566 527.852C885.014 527.324 884.738 526.676 884.738 525.908C884.738 525.14 885.014 524.504 885.566 524C886.118 523.472 886.802 523.208 887.618 523.208C888.434 523.208 889.118 523.46 889.67 523.964C890.222 524.444 890.498 525.056 890.498 525.8C890.498 526.592 890.222 527.264 889.67 527.816C889.142 528.344 888.458 528.608 887.618 528.608ZM904.397 551.252C902.453 551.252 900.701 550.832 899.141 549.992C897.581 549.152 896.357 547.988 895.469 546.5C894.605 544.988 894.173 543.284 894.173 541.388C894.173 539.492 894.605 537.8 895.469 536.312C896.357 534.824 897.581 533.66 899.141 532.82C900.701 531.98 902.453 531.56 904.397 531.56C906.365 531.56 908.129 531.98 909.689 532.82C911.249 533.66 912.461 534.824 913.325 536.312C914.213 537.8 914.657 539.492 914.657 541.388C914.657 543.284 914.213 544.988 913.325 546.5C912.461 547.988 911.249 549.152 909.689 549.992C908.129 550.832 906.365 551.252 904.397 551.252ZM904.397 547.4C906.053 547.4 907.421 546.848 908.501 545.744C909.581 544.64 910.121 543.188 910.121 541.388C910.121 539.588 909.581 538.136 908.501 537.032C907.421 535.928 906.053 535.376 904.397 535.376C902.741 535.376 901.373 535.928 900.293 537.032C899.237 538.136 898.709 539.588 898.709 541.388C898.709 543.188 899.237 544.64 900.293 545.744C901.373 546.848 902.741 547.4 904.397 547.4ZM929.868 531.56C932.292 531.56 934.236 532.268 935.7 533.684C937.164 535.1 937.896 537.2 937.896 539.984V551H933.396V540.56C933.396 538.88 933 537.62 932.208 536.78C931.416 535.916 930.288 535.484 928.824 535.484C927.168 535.484 925.86 535.988 924.9 536.996C923.94 537.98 923.46 539.408 923.46 541.28V551H918.96V531.776H923.244V534.26C923.988 533.372 924.924 532.7 926.052 532.244C927.18 531.788 928.452 531.56 929.868 531.56Z" fill="white"/>
<path d="M654.823 188.36C652.279 188.36 649.975 187.808 647.911 186.704C645.871 185.576 644.263 184.028 643.087 182.06C641.935 180.092 641.359 177.872 641.359 175.4C641.359 172.928 641.947 170.708 643.123 168.74C644.299 166.772 645.907 165.236 647.947 164.132C650.011 163.004 652.315 162.44 654.859 162.44C656.923 162.44 658.807 162.8 660.511 163.52C662.215 164.24 663.655 165.284 664.831 166.652L661.807 169.496C659.983 167.528 657.739 166.544 655.075 166.544C653.347 166.544 651.799 166.928 650.431 167.696C649.063 168.44 647.995 169.484 647.227 170.828C646.459 172.172 646.075 173.696 646.075 175.4C646.075 177.104 646.459 178.628 647.227 179.972C647.995 181.316 649.063 182.372 650.431 183.14C651.799 183.884 653.347 184.256 655.075 184.256C657.739 184.256 659.983 183.26 661.807 181.268L664.831 184.148C663.655 185.516 662.203 186.56 660.475 187.28C658.771 188 656.887 188.36 654.823 188.36ZM679.792 168.56C682.216 168.56 684.16 169.268 685.624 170.684C687.088 172.1 687.82 174.2 687.82 176.984V188H683.32V177.56C683.32 175.88 682.924 174.62 682.132 173.78C681.34 172.916 680.212 172.484 678.748 172.484C677.092 172.484 675.784 172.988 674.824 173.996C673.864 174.98 673.384 176.408 673.384 178.28V188H668.884V161.288H673.384V171.008C674.128 170.216 675.04 169.616 676.12 169.208C677.224 168.776 678.448 168.56 679.792 168.56ZM711.776 178.496C711.776 178.808 711.752 179.252 711.704 179.828H696.62C696.884 181.244 697.568 182.372 698.672 183.212C699.8 184.028 701.192 184.436 702.848 184.436C704.96 184.436 706.7 183.74 708.068 182.348L710.48 185.12C709.616 186.152 708.524 186.932 707.204 187.46C705.884 187.988 704.396 188.252 702.74 188.252C700.628 188.252 698.768 187.832 697.16 186.992C695.552 186.152 694.304 184.988 693.416 183.5C692.552 181.988 692.12 180.284 692.12 178.388C692.12 176.516 692.54 174.836 693.38 173.348C694.244 171.836 695.432 170.66 696.944 169.82C698.456 168.98 700.16 168.56 702.056 168.56C703.928 168.56 705.596 168.98 707.06 169.82C708.548 170.636 709.7 171.8 710.516 173.312C711.356 174.8 711.776 176.528 711.776 178.496ZM702.056 172.16C700.616 172.16 699.392 172.592 698.384 173.456C697.4 174.296 696.8 175.424 696.584 176.84H707.492C707.3 175.448 706.712 174.32 705.728 173.456C704.744 172.592 703.52 172.16 702.056 172.16ZM723.91 164.672C722.014 164.672 721.066 165.704 721.066 167.768V168.92H726.358V172.52H721.21V188H716.71V172.52H713.542V168.92H716.71V167.696C716.71 165.632 717.31 164.012 718.51 162.836C719.71 161.636 721.402 161.036 723.586 161.036C725.314 161.036 726.67 161.384 727.654 162.08L726.394 165.464C725.626 164.936 724.798 164.672 723.91 164.672ZM758.165 161.288V188H753.845V185.516C753.101 186.428 752.177 187.112 751.073 187.568C749.993 188.024 748.793 188.252 747.473 188.252C745.625 188.252 743.957 187.844 742.469 187.028C741.005 186.212 739.853 185.06 739.013 183.572C738.173 182.06 737.753 180.332 737.753 178.388C737.753 176.444 738.173 174.728 739.013 173.24C739.853 171.752 741.005 170.6 742.469 169.784C743.957 168.968 745.625 168.56 747.473 168.56C748.745 168.56 749.909 168.776 750.965 169.208C752.021 169.64 752.921 170.288 753.665 171.152V161.288H758.165ZM748.013 184.4C749.093 184.4 750.065 184.16 750.929 183.68C751.793 183.176 752.477 182.468 752.981 181.556C753.485 180.644 753.737 179.588 753.737 178.388C753.737 177.188 753.485 176.132 752.981 175.22C752.477 174.308 751.793 173.612 750.929 173.132C750.065 172.628 749.093 172.376 748.013 172.376C746.933 172.376 745.961 172.628 745.097 173.132C744.233 173.612 743.549 174.308 743.045 175.22C742.541 176.132 742.289 177.188 742.289 178.388C742.289 179.588 742.541 180.644 743.045 181.556C743.549 182.468 744.233 183.176 745.097 183.68C745.961 184.16 746.933 184.4 748.013 184.4ZM782.124 178.496C782.124 178.808 782.1 179.252 782.052 179.828H766.968C767.232 181.244 767.916 182.372 769.02 183.212C770.148 184.028 771.54 184.436 773.196 184.436C775.308 184.436 777.048 183.74 778.416 182.348L780.828 185.12C779.964 186.152 778.872 186.932 777.552 187.46C776.232 187.988 774.744 188.252 773.088 188.252C770.976 188.252 769.116 187.832 767.508 186.992C765.9 186.152 764.652 184.988 763.764 183.5C762.9 181.988 762.468 180.284 762.468 178.388C762.468 176.516 762.888 174.836 763.728 173.348C764.592 171.836 765.78 170.66 767.292 169.82C768.804 168.98 770.508 168.56 772.404 168.56C774.276 168.56 775.944 168.98 777.408 169.82C778.896 170.636 780.048 171.8 780.864 173.312C781.704 174.8 782.124 176.528 782.124 178.496ZM772.404 172.16C770.964 172.16 769.74 172.592 768.732 173.456C767.748 174.296 767.148 175.424 766.932 176.84H777.84C777.648 175.448 777.06 174.32 776.076 173.456C775.092 172.592 773.868 172.16 772.404 172.16ZM807.195 162.8C809.379 162.8 811.275 163.16 812.883 163.88C814.515 164.6 815.763 165.632 816.627 166.976C817.491 168.32 817.923 169.916 817.923 171.764C817.923 173.588 817.491 175.184 816.627 176.552C815.763 177.896 814.515 178.928 812.883 179.648C811.275 180.368 809.379 180.728 807.195 180.728H801.507V188H796.827V162.8H807.195ZM806.979 176.768C809.019 176.768 810.567 176.336 811.623 175.472C812.679 174.608 813.207 173.372 813.207 171.764C813.207 170.156 812.679 168.92 811.623 168.056C810.567 167.192 809.019 166.76 806.979 166.76H801.507V176.768H806.979ZM826.273 171.584C827.569 169.568 829.849 168.56 833.113 168.56V172.844C832.729 172.772 832.381 172.736 832.069 172.736C830.317 172.736 828.949 173.252 827.965 174.284C826.981 175.292 826.489 176.756 826.489 178.676V188H821.989V168.776H826.273V171.584ZM845.395 188.252C843.451 188.252 841.699 187.832 840.139 186.992C838.579 186.152 837.355 184.988 836.467 183.5C835.603 181.988 835.171 180.284 835.171 178.388C835.171 176.492 835.603 174.8 836.467 173.312C837.355 171.824 838.579 170.66 840.139 169.82C841.699 168.98 843.451 168.56 845.395 168.56C847.363 168.56 849.127 168.98 850.687 169.82C852.247 170.66 853.459 171.824 854.323 173.312C855.211 174.8 855.655 176.492 855.655 178.388C855.655 180.284 855.211 181.988 854.323 183.5C853.459 184.988 852.247 186.152 850.687 186.992C849.127 187.832 847.363 188.252 845.395 188.252ZM845.395 184.4C847.051 184.4 848.419 183.848 849.499 182.744C850.579 181.64 851.119 180.188 851.119 178.388C851.119 176.588 850.579 175.136 849.499 174.032C848.419 172.928 847.051 172.376 845.395 172.376C843.739 172.376 842.371 172.928 841.291 174.032C840.235 175.136 839.707 176.588 839.707 178.388C839.707 180.188 840.235 181.64 841.291 182.744C842.371 183.848 843.739 184.4 845.395 184.4ZM857.978 195.236C856.082 195.236 854.642 194.864 853.658 194.12L854.954 190.772C855.626 191.276 856.502 191.528 857.582 191.528C858.422 191.528 859.058 191.264 859.49 190.736C859.946 190.232 860.174 189.476 860.174 188.468V168.776H864.674V188.36C864.674 190.496 864.086 192.176 862.91 193.4C861.734 194.624 860.09 195.236 857.978 195.236ZM862.406 165.608C861.59 165.608 860.906 165.356 860.354 164.852C859.802 164.324 859.526 163.676 859.526 162.908C859.526 162.14 859.802 161.504 860.354 161C860.906 160.472 861.59 160.208 862.406 160.208C863.222 160.208 863.906 160.46 864.458 160.964C865.01 161.444 865.286 162.056 865.286 162.8C865.286 163.592 865.01 164.264 864.458 164.816C863.93 165.344 863.246 165.608 862.406 165.608ZM888.647 178.496C888.647 178.808 888.623 179.252 888.575 179.828H873.491C873.755 181.244 874.439 182.372 875.543 183.212C876.671 184.028 878.063 184.436 879.719 184.436C881.831 184.436 883.571 183.74 884.939 182.348L887.351 185.12C886.487 186.152 885.395 186.932 884.075 187.46C882.755 187.988 881.267 188.252 879.611 188.252C877.499 188.252 875.639 187.832 874.031 186.992C872.423 186.152 871.175 184.988 870.287 183.5C869.423 181.988 868.991 180.284 868.991 178.388C868.991 176.516 869.411 174.836 870.251 173.348C871.115 171.836 872.303 170.66 873.815 169.82C875.327 168.98 877.031 168.56 878.927 168.56C880.799 168.56 882.467 168.98 883.931 169.82C885.419 170.636 886.571 171.8 887.387 173.312C888.227 174.8 888.647 176.528 888.647 178.496ZM878.927 172.16C877.487 172.16 876.263 172.592 875.255 173.456C874.271 174.296 873.671 175.424 873.455 176.84H884.363C884.171 175.448 883.583 174.32 882.599 173.456C881.615 172.592 880.391 172.16 878.927 172.16ZM904.526 186.956C903.998 187.388 903.35 187.712 902.582 187.928C901.838 188.144 901.046 188.252 900.206 188.252C898.094 188.252 896.462 187.7 895.31 186.596C894.158 185.492 893.582 183.884 893.582 181.772V172.52H890.414V168.92H893.582V164.528H898.082V168.92H903.23V172.52H898.082V181.664C898.082 182.6 898.31 183.32 898.766 183.824C899.222 184.304 899.882 184.544 900.746 184.544C901.754 184.544 902.594 184.28 903.266 183.752L904.526 186.956ZM637.242 238.984C635.826 236.8 634.734 234.268 633.966 231.388C633.222 228.508 632.85 225.424 632.85 222.136C632.85 218.848 633.222 215.764 633.966 212.884C634.734 209.98 635.826 207.448 637.242 205.288H641.526C640.062 207.88 638.982 210.556 638.286 213.316C637.614 216.052 637.278 218.992 637.278 222.136C637.278 225.28 637.614 228.232 638.286 230.992C638.982 233.728 640.062 236.392 641.526 238.984H637.242ZM663.331 222.496C663.331 222.808 663.307 223.252 663.259 223.828H648.175C648.439 225.244 649.123 226.372 650.227 227.212C651.355 228.028 652.747 228.436 654.403 228.436C656.515 228.436 658.255 227.74 659.623 226.348L662.035 229.12C661.171 230.152 660.079 230.932 658.759 231.46C657.439 231.988 655.951 232.252 654.295 232.252C652.183 232.252 650.323 231.832 648.715 230.992C647.107 230.152 645.859 228.988 644.971 227.5C644.107 225.988 643.675 224.284 643.675 222.388C643.675 220.516 644.095 218.836 644.935 217.348C645.799 215.836 646.987 214.66 648.499 213.82C650.011 212.98 651.715 212.56 653.611 212.56C655.483 212.56 657.151 212.98 658.615 213.82C660.103 214.636 661.255 215.8 662.071 217.312C662.911 218.8 663.331 220.528 663.331 222.496ZM653.611 216.16C652.171 216.16 650.947 216.592 649.939 217.456C648.955 218.296 648.355 219.424 648.139 220.84H659.047C658.855 219.448 658.267 218.32 657.283 217.456C656.299 216.592 655.075 216.16 653.611 216.16ZM678.561 212.56C680.985 212.56 682.929 213.268 684.393 214.684C685.857 216.1 686.589 218.2 686.589 220.984V232H682.089V221.56C682.089 219.88 681.693 218.62 680.901 217.78C680.109 216.916 678.981 216.484 677.517 216.484C675.861 216.484 674.553 216.988 673.593 217.996C672.633 218.98 672.153 220.408 672.153 222.28V232H667.653V212.776H671.937V215.26C672.681 214.372 673.617 213.7 674.745 213.244C675.873 212.788 677.145 212.56 678.561 212.56ZM725.827 232L725.791 215.296L717.511 229.12H715.423L707.143 215.512V232H702.679V206.8H706.531L716.539 223.504L726.367 206.8H730.219L730.255 232H725.827ZM755.242 212.776V232H750.958V229.552C750.238 230.416 749.338 231.088 748.258 231.568C747.178 232.024 746.014 232.252 744.766 232.252C742.198 232.252 740.17 231.544 738.682 230.128C737.218 228.688 736.486 226.564 736.486 223.756V212.776H740.986V223.144C740.986 224.872 741.37 226.168 742.138 227.032C742.93 227.872 744.046 228.292 745.486 228.292C747.094 228.292 748.366 227.8 749.302 226.816C750.262 225.808 750.742 224.368 750.742 222.496V212.776H755.242ZM761.134 205.288H765.634V232H761.134V205.288ZM784.045 230.956C783.517 231.388 782.869 231.712 782.101 231.928C781.357 232.144 780.565 232.252 779.725 232.252C777.613 232.252 775.981 231.7 774.829 230.596C773.677 229.492 773.101 227.884 773.101 225.772V216.52H769.933V212.92H773.101V208.528H777.601V212.92H782.749V216.52H777.601V225.664C777.601 226.6 777.829 227.32 778.285 227.824C778.741 228.304 779.401 228.544 780.265 228.544C781.273 228.544 782.113 228.28 782.785 227.752L784.045 230.956ZM787.747 212.776H792.247V232H787.747V212.776ZM790.015 209.608C789.199 209.608 788.515 209.356 787.963 208.852C787.411 208.324 787.135 207.676 787.135 206.908C787.135 206.14 787.411 205.504 787.963 205C788.515 204.472 789.199 204.208 790.015 204.208C790.831 204.208 791.515 204.46 792.067 204.964C792.619 205.444 792.895 206.056 792.895 206.8C792.895 207.592 792.619 208.264 792.067 208.816C791.539 209.344 790.855 209.608 790.015 209.608ZM822.417 212.56C824.841 212.56 826.761 213.268 828.177 214.684C829.593 216.076 830.301 218.176 830.301 220.984V232H825.801V221.56C825.801 219.88 825.429 218.62 824.685 217.78C823.941 216.916 822.873 216.484 821.481 216.484C819.969 216.484 818.757 216.988 817.845 217.996C816.933 218.98 816.477 220.396 816.477 222.244V232H811.977V221.56C811.977 219.88 811.605 218.62 810.861 217.78C810.117 216.916 809.049 216.484 807.657 216.484C806.121 216.484 804.897 216.976 803.985 217.96C803.097 218.944 802.653 220.372 802.653 222.244V232H798.153V212.776H802.437V215.224C803.157 214.36 804.057 213.7 805.137 213.244C806.217 212.788 807.417 212.56 808.737 212.56C810.177 212.56 811.449 212.836 812.553 213.388C813.681 213.916 814.569 214.708 815.217 215.764C816.009 214.756 817.029 213.976 818.277 213.424C819.525 212.848 820.905 212.56 822.417 212.56ZM854.299 222.496C854.299 222.808 854.275 223.252 854.227 223.828H839.143C839.407 225.244 840.091 226.372 841.195 227.212C842.323 228.028 843.715 228.436 845.371 228.436C847.483 228.436 849.223 227.74 850.591 226.348L853.003 229.12C852.139 230.152 851.047 230.932 849.727 231.46C848.407 231.988 846.919 232.252 845.263 232.252C843.151 232.252 841.291 231.832 839.683 230.992C838.075 230.152 836.827 228.988 835.939 227.5C835.075 225.988 834.643 224.284 834.643 222.388C834.643 220.516 835.063 218.836 835.903 217.348C836.767 215.836 837.955 214.66 839.467 213.82C840.979 212.98 842.683 212.56 844.579 212.56C846.451 212.56 848.119 212.98 849.583 213.82C851.071 214.636 852.223 215.8 853.039 217.312C853.879 218.8 854.299 220.528 854.299 222.496ZM844.579 216.16C843.139 216.16 841.915 216.592 840.907 217.456C839.923 218.296 839.323 219.424 839.107 220.84H850.015C849.823 219.448 849.235 218.32 848.251 217.456C847.267 216.592 846.043 216.16 844.579 216.16ZM846.307 205.216H851.599L845.335 210.148H841.447L846.307 205.216ZM877.45 205.288V232H873.13V229.516C872.386 230.428 871.462 231.112 870.358 231.568C869.278 232.024 868.078 232.252 866.758 232.252C864.91 232.252 863.242 231.844 861.754 231.028C860.29 230.212 859.138 229.06 858.298 227.572C857.458 226.06 857.038 224.332 857.038 222.388C857.038 220.444 857.458 218.728 858.298 217.24C859.138 215.752 860.29 214.6 861.754 213.784C863.242 212.968 864.91 212.56 866.758 212.56C868.03 212.56 869.194 212.776 870.25 213.208C871.306 213.64 872.206 214.288 872.95 215.152V205.288H877.45ZM867.298 228.4C868.378 228.4 869.35 228.16 870.214 227.68C871.078 227.176 871.762 226.468 872.266 225.556C872.77 224.644 873.022 223.588 873.022 222.388C873.022 221.188 872.77 220.132 872.266 219.22C871.762 218.308 871.078 217.612 870.214 217.132C869.35 216.628 868.378 216.376 867.298 216.376C866.218 216.376 865.246 216.628 864.382 217.132C863.518 217.612 862.834 218.308 862.33 219.22C861.826 220.132 861.574 221.188 861.574 222.388C861.574 223.588 861.826 224.644 862.33 225.556C862.834 226.468 863.518 227.176 864.382 227.68C865.246 228.16 866.218 228.4 867.298 228.4ZM883.337 212.776H887.837V232H883.337V212.776ZM885.605 209.608C884.789 209.608 884.105 209.356 883.553 208.852C883.001 208.324 882.725 207.676 882.725 206.908C882.725 206.14 883.001 205.504 883.553 205C884.105 204.472 884.789 204.208 885.605 204.208C886.421 204.208 887.105 204.46 887.657 204.964C888.209 205.444 888.485 206.056 888.485 206.8C888.485 207.592 888.209 208.264 887.657 208.816C887.129 209.344 886.445 209.608 885.605 209.608ZM901.087 212.56C903.919 212.56 906.079 213.244 907.567 214.612C909.079 215.956 909.835 217.996 909.835 220.732V232H905.587V229.66C905.035 230.5 904.243 231.148 903.211 231.604C902.203 232.036 900.979 232.252 899.539 232.252C898.099 232.252 896.839 232.012 895.759 231.532C894.679 231.028 893.839 230.344 893.239 229.48C892.663 228.592 892.375 227.596 892.375 226.492C892.375 224.764 893.011 223.384 894.283 222.352C895.579 221.296 897.607 220.768 900.367 220.768H905.335V220.48C905.335 219.136 904.927 218.104 904.111 217.384C903.319 216.664 902.131 216.304 900.547 216.304C899.467 216.304 898.399 216.472 897.343 216.808C896.311 217.144 895.435 217.612 894.715 218.212L892.951 214.936C893.959 214.168 895.171 213.58 896.587 213.172C898.003 212.764 899.503 212.56 901.087 212.56ZM900.475 228.976C901.603 228.976 902.599 228.724 903.463 228.22C904.351 227.692 904.975 226.948 905.335 225.988V223.756H900.691C898.099 223.756 896.803 224.608 896.803 226.312C896.803 227.128 897.127 227.776 897.775 228.256C898.423 228.736 899.323 228.976 900.475 228.976ZM913.45 238.984C914.914 236.392 915.994 233.716 916.69 230.956C917.386 228.196 917.734 225.256 917.734 222.136C917.734 219.016 917.386 216.076 916.69 213.316C915.994 210.556 914.914 207.88 913.45 205.288H917.734C919.15 207.424 920.23 209.944 920.974 212.848C921.742 215.728 922.126 218.824 922.126 222.136C922.126 225.448 921.742 228.544 920.974 231.424C920.23 234.28 919.15 236.8 917.734 238.984H913.45Z" fill="white"/>
<path d="M1325.21 487.8L1316.86 513H1311.89L1305.66 494.352L1299.33 513H1294.32L1285.97 487.8H1290.83L1297.1 506.952L1303.61 487.8H1307.93L1314.3 507.06L1320.75 487.8H1325.21ZM1345.22 503.496C1345.22 503.808 1345.2 504.252 1345.15 504.828H1330.07C1330.33 506.244 1331.02 507.372 1332.12 508.212C1333.25 509.028 1334.64 509.436 1336.3 509.436C1338.41 509.436 1340.15 508.74 1341.52 507.348L1343.93 510.12C1343.06 511.152 1341.97 511.932 1340.65 512.46C1339.33 512.988 1337.84 513.252 1336.19 513.252C1334.08 513.252 1332.22 512.832 1330.61 511.992C1329 511.152 1327.75 509.988 1326.86 508.5C1326 506.988 1325.57 505.284 1325.57 503.388C1325.57 501.516 1325.99 499.836 1326.83 498.348C1327.69 496.836 1328.88 495.66 1330.39 494.82C1331.9 493.98 1333.61 493.56 1335.5 493.56C1337.38 493.56 1339.04 493.98 1340.51 494.82C1342 495.636 1343.15 496.8 1343.96 498.312C1344.8 499.8 1345.22 501.528 1345.22 503.496ZM1335.5 497.16C1334.06 497.16 1332.84 497.592 1331.83 498.456C1330.85 499.296 1330.25 500.424 1330.03 501.84H1340.94C1340.75 500.448 1340.16 499.32 1339.18 498.456C1338.19 497.592 1336.97 497.16 1335.5 497.16ZM1360.2 493.56C1362.07 493.56 1363.74 493.968 1365.21 494.784C1366.69 495.6 1367.86 496.752 1368.7 498.24C1369.54 499.728 1369.96 501.444 1369.96 503.388C1369.96 505.332 1369.54 507.06 1368.7 508.572C1367.86 510.06 1366.69 511.212 1365.21 512.028C1363.74 512.844 1362.07 513.252 1360.2 513.252C1358.88 513.252 1357.67 513.024 1356.57 512.568C1355.49 512.112 1354.57 511.428 1353.83 510.516V513H1349.55V486.288H1354.05V496.116C1354.81 495.276 1355.71 494.64 1356.75 494.208C1357.8 493.776 1358.95 493.56 1360.2 493.56ZM1359.7 509.4C1361.35 509.4 1362.71 508.848 1363.77 507.744C1364.85 506.64 1365.39 505.188 1365.39 503.388C1365.39 501.588 1364.85 500.136 1363.77 499.032C1362.71 497.928 1361.35 497.376 1359.7 497.376C1358.62 497.376 1357.65 497.628 1356.78 498.132C1355.92 498.612 1355.23 499.308 1354.73 500.22C1354.23 501.132 1353.97 502.188 1353.97 503.388C1353.97 504.588 1354.23 505.644 1354.73 506.556C1355.23 507.468 1355.92 508.176 1356.78 508.68C1357.65 509.16 1358.62 509.4 1359.7 509.4ZM1397.81 513L1397.77 496.296L1389.49 510.12H1387.4L1379.12 496.512V513H1374.66V487.8H1378.51L1388.52 504.504L1398.35 487.8H1402.2L1402.23 513H1397.81ZM1415.95 493.56C1418.78 493.56 1420.94 494.244 1422.43 495.612C1423.94 496.956 1424.7 498.996 1424.7 501.732V513H1420.45V510.66C1419.9 511.5 1419.11 512.148 1418.08 512.604C1417.07 513.036 1415.84 513.252 1414.4 513.252C1412.96 513.252 1411.7 513.012 1410.62 512.532C1409.54 512.028 1408.7 511.344 1408.1 510.48C1407.53 509.592 1407.24 508.596 1407.24 507.492C1407.24 505.764 1407.88 504.384 1409.15 503.352C1410.44 502.296 1412.47 501.768 1415.23 501.768H1420.2V501.48C1420.2 500.136 1419.79 499.104 1418.98 498.384C1418.18 497.664 1417 497.304 1415.41 497.304C1414.33 497.304 1413.26 497.472 1412.21 497.808C1411.18 498.144 1410.3 498.612 1409.58 499.212L1407.82 495.936C1408.82 495.168 1410.04 494.58 1411.45 494.172C1412.87 493.764 1414.37 493.56 1415.95 493.56ZM1415.34 509.976C1416.47 509.976 1417.46 509.724 1418.33 509.22C1419.22 508.692 1419.84 507.948 1420.2 506.988V504.756H1415.56C1412.96 504.756 1411.67 505.608 1411.67 507.312C1411.67 508.128 1411.99 508.776 1412.64 509.256C1413.29 509.736 1414.19 509.976 1415.34 509.976ZM1436.42 513.252C1434.86 513.252 1433.33 513.048 1431.84 512.64C1430.36 512.232 1429.17 511.716 1428.28 511.092L1430.01 507.672C1430.87 508.248 1431.9 508.716 1433.1 509.076C1434.33 509.412 1435.53 509.58 1436.7 509.58C1439.39 509.58 1440.74 508.872 1440.74 507.456C1440.74 506.784 1440.39 506.316 1439.69 506.052C1439.02 505.788 1437.93 505.536 1436.42 505.296C1434.83 505.056 1433.54 504.78 1432.53 504.468C1431.54 504.156 1430.68 503.616 1429.94 502.848C1429.22 502.056 1428.86 500.964 1428.86 499.572C1428.86 497.748 1429.61 496.296 1431.12 495.216C1432.66 494.112 1434.72 493.56 1437.32 493.56C1438.64 493.56 1439.96 493.716 1441.28 494.028C1442.6 494.316 1443.68 494.712 1444.52 495.216L1442.79 498.636C1441.16 497.676 1439.32 497.196 1437.28 497.196C1435.96 497.196 1434.95 497.4 1434.26 497.808C1433.58 498.192 1433.25 498.708 1433.25 499.356C1433.25 500.076 1433.61 500.592 1434.33 500.904C1435.07 501.192 1436.21 501.468 1437.75 501.732C1439.28 501.972 1440.54 502.248 1441.53 502.56C1442.51 502.872 1443.35 503.4 1444.05 504.144C1444.77 504.888 1445.13 505.944 1445.13 507.312C1445.13 509.112 1444.35 510.552 1442.79 511.632C1441.23 512.712 1439.1 513.252 1436.42 513.252ZM1460.56 511.956C1460.03 512.388 1459.38 512.712 1458.61 512.928C1457.87 513.144 1457.08 513.252 1456.24 513.252C1454.13 513.252 1452.49 512.7 1451.34 511.596C1450.19 510.492 1449.61 508.884 1449.61 506.772V497.52H1446.45V493.92H1449.61V489.528H1454.11V493.92H1459.26V497.52H1454.11V506.664C1454.11 507.6 1454.34 508.32 1454.8 508.824C1455.25 509.304 1455.91 509.544 1456.78 509.544C1457.79 509.544 1458.63 509.28 1459.3 508.752L1460.56 511.956ZM1481.7 503.496C1481.7 503.808 1481.68 504.252 1481.63 504.828H1466.54C1466.81 506.244 1467.49 507.372 1468.6 508.212C1469.72 509.028 1471.12 509.436 1472.77 509.436C1474.88 509.436 1476.62 508.74 1477.99 507.348L1480.4 510.12C1479.54 511.152 1478.45 511.932 1477.13 512.46C1475.81 512.988 1474.32 513.252 1472.66 513.252C1470.55 513.252 1468.69 512.832 1467.08 511.992C1465.48 511.152 1464.23 509.988 1463.34 508.5C1462.48 506.988 1462.04 505.284 1462.04 503.388C1462.04 501.516 1462.46 499.836 1463.3 498.348C1464.17 496.836 1465.36 495.66 1466.87 494.82C1468.38 493.98 1470.08 493.56 1471.98 493.56C1473.85 493.56 1475.52 493.98 1476.98 494.82C1478.47 495.636 1479.62 496.8 1480.44 498.312C1481.28 499.8 1481.7 501.528 1481.7 503.496ZM1471.98 497.16C1470.54 497.16 1469.32 497.592 1468.31 498.456C1467.32 499.296 1466.72 500.424 1466.51 501.84H1477.42C1477.22 500.448 1476.64 499.32 1475.65 498.456C1474.67 497.592 1473.44 497.16 1471.98 497.16ZM1490.31 496.584C1491.6 494.568 1493.88 493.56 1497.15 493.56V497.844C1496.76 497.772 1496.41 497.736 1496.1 497.736C1494.35 497.736 1492.98 498.252 1492 499.284C1491.01 500.292 1490.52 501.756 1490.52 503.676V513H1486.02V493.776H1490.31V496.584Z" fill="white"/>
<path d="M328.212 334.8L319.86 360H314.892L308.664 341.352L302.328 360H297.324L288.972 334.8H293.832L300.096 353.952L306.612 334.8H310.932L317.304 354.06L323.748 334.8H328.212ZM348.223 350.496C348.223 350.808 348.199 351.252 348.151 351.828H333.067C333.331 353.244 334.015 354.372 335.119 355.212C336.247 356.028 337.639 356.436 339.295 356.436C341.407 356.436 343.147 355.74 344.515 354.348L346.927 357.12C346.063 358.152 344.971 358.932 343.651 359.46C342.331 359.988 340.843 360.252 339.187 360.252C337.075 360.252 335.215 359.832 333.607 358.992C331.999 358.152 330.751 356.988 329.863 355.5C328.999 353.988 328.567 352.284 328.567 350.388C328.567 348.516 328.987 346.836 329.827 345.348C330.691 343.836 331.879 342.66 333.391 341.82C334.903 340.98 336.607 340.56 338.503 340.56C340.375 340.56 342.043 340.98 343.507 341.82C344.995 342.636 346.147 343.8 346.963 345.312C347.803 346.8 348.223 348.528 348.223 350.496ZM338.503 344.16C337.063 344.16 335.839 344.592 334.831 345.456C333.847 346.296 333.247 347.424 333.031 348.84H343.939C343.747 347.448 343.159 346.32 342.175 345.456C341.191 344.592 339.967 344.16 338.503 344.16ZM363.202 340.56C365.074 340.56 366.742 340.968 368.206 341.784C369.694 342.6 370.858 343.752 371.698 345.24C372.538 346.728 372.958 348.444 372.958 350.388C372.958 352.332 372.538 354.06 371.698 355.572C370.858 357.06 369.694 358.212 368.206 359.028C366.742 359.844 365.074 360.252 363.202 360.252C361.882 360.252 360.67 360.024 359.566 359.568C358.486 359.112 357.574 358.428 356.83 357.516V360H352.546V333.288H357.046V343.116C357.814 342.276 358.714 341.64 359.746 341.208C360.802 340.776 361.954 340.56 363.202 340.56ZM362.698 356.4C364.354 356.4 365.71 355.848 366.766 354.744C367.846 353.64 368.386 352.188 368.386 350.388C368.386 348.588 367.846 347.136 366.766 346.032C365.71 344.928 364.354 344.376 362.698 344.376C361.618 344.376 360.646 344.628 359.782 345.132C358.918 345.612 358.234 346.308 357.73 347.22C357.226 348.132 356.974 349.188 356.974 350.388C356.974 351.588 357.226 352.644 357.73 353.556C358.234 354.468 358.918 355.176 359.782 355.68C360.646 356.16 361.618 356.4 362.698 356.4ZM400.805 360L400.769 343.296L392.489 357.12H390.401L382.121 343.512V360H377.657V334.8H381.509L391.517 351.504L401.345 334.8H405.197L405.233 360H400.805ZM418.952 340.56C421.784 340.56 423.944 341.244 425.432 342.612C426.944 343.956 427.7 345.996 427.7 348.732V360H423.452V357.66C422.9 358.5 422.108 359.148 421.076 359.604C420.068 360.036 418.844 360.252 417.404 360.252C415.964 360.252 414.704 360.012 413.624 359.532C412.544 359.028 411.704 358.344 411.104 357.48C410.528 356.592 410.24 355.596 410.24 354.492C410.24 352.764 410.876 351.384 412.148 350.352C413.444 349.296 415.472 348.768 418.232 348.768H423.2V348.48C423.2 347.136 422.792 346.104 421.976 345.384C421.184 344.664 419.996 344.304 418.412 344.304C417.332 344.304 416.264 344.472 415.208 344.808C414.176 345.144 413.3 345.612 412.58 346.212L410.816 342.936C411.824 342.168 413.036 341.58 414.452 341.172C415.868 340.764 417.368 340.56 418.952 340.56ZM418.34 356.976C419.468 356.976 420.464 356.724 421.328 356.22C422.216 355.692 422.84 354.948 423.2 353.988V351.756H418.556C415.964 351.756 414.668 352.608 414.668 354.312C414.668 355.128 414.992 355.776 415.64 356.256C416.288 356.736 417.188 356.976 418.34 356.976ZM437.759 343.584C439.055 341.568 441.335 340.56 444.599 340.56V344.844C444.215 344.772 443.867 344.736 443.555 344.736C441.803 344.736 440.435 345.252 439.451 346.284C438.467 347.292 437.975 348.756 437.975 350.676V360H433.475V340.776H437.759V343.584ZM456.265 351.756L452.917 354.924V360H448.417V333.288H452.917V349.416L462.241 340.776H467.641L459.613 348.84L468.397 360H462.925L456.265 351.756ZM488.567 350.496C488.567 350.808 488.543 351.252 488.495 351.828H473.411C473.675 353.244 474.359 354.372 475.463 355.212C476.591 356.028 477.983 356.436 479.639 356.436C481.751 356.436 483.491 355.74 484.859 354.348L487.271 357.12C486.407 358.152 485.315 358.932 483.995 359.46C482.675 359.988 481.187 360.252 479.531 360.252C477.419 360.252 475.559 359.832 473.951 358.992C472.343 358.152 471.095 356.988 470.207 355.5C469.343 353.988 468.911 352.284 468.911 350.388C468.911 348.516 469.331 346.836 470.171 345.348C471.035 343.836 472.223 342.66 473.735 341.82C475.247 340.98 476.951 340.56 478.847 340.56C480.719 340.56 482.387 340.98 483.851 341.82C485.339 342.636 486.491 343.8 487.307 345.312C488.147 346.8 488.567 348.528 488.567 350.496ZM478.847 344.16C477.407 344.16 476.183 344.592 475.175 345.456C474.191 346.296 473.591 347.424 473.375 348.84H484.283C484.091 347.448 483.503 346.32 482.519 345.456C481.535 344.592 480.311 344.16 478.847 344.16ZM504.446 358.956C503.918 359.388 503.27 359.712 502.502 359.928C501.758 360.144 500.966 360.252 500.126 360.252C498.014 360.252 496.382 359.7 495.229 358.596C494.078 357.492 493.502 355.884 493.502 353.772V344.52H490.334V340.92H493.502V336.528H498.002V340.92H503.15V344.52H498.002V353.664C498.002 354.6 498.23 355.32 498.686 355.824C499.142 356.304 499.802 356.544 500.666 356.544C501.674 356.544 502.514 356.28 503.186 355.752L504.446 358.956ZM525.587 350.496C525.587 350.808 525.563 351.252 525.515 351.828H510.431C510.695 353.244 511.379 354.372 512.483 355.212C513.611 356.028 515.003 356.436 516.659 356.436C518.771 356.436 520.511 355.74 521.879 354.348L524.291 357.12C523.427 358.152 522.335 358.932 521.015 359.46C519.695 359.988 518.207 360.252 516.551 360.252C514.439 360.252 512.579 359.832 510.971 358.992C509.363 358.152 508.115 356.988 507.227 355.5C506.363 353.988 505.931 352.284 505.931 350.388C505.931 348.516 506.351 346.836 507.191 345.348C508.055 343.836 509.243 342.66 510.755 341.82C512.267 340.98 513.971 340.56 515.867 340.56C517.739 340.56 519.407 340.98 520.871 341.82C522.359 342.636 523.511 343.8 524.327 345.312C525.167 346.8 525.587 348.528 525.587 350.496ZM515.867 344.16C514.427 344.16 513.203 344.592 512.195 345.456C511.211 346.296 510.611 347.424 510.395 348.84H521.303C521.111 347.448 520.523 346.32 519.539 345.456C518.555 344.592 517.331 344.16 515.867 344.16ZM534.193 343.584C535.489 341.568 537.769 340.56 541.033 340.56V344.844C540.649 344.772 540.301 344.736 539.989 344.736C538.237 344.736 536.869 345.252 535.885 346.284C534.901 347.292 534.409 348.756 534.409 350.676V360H529.909V340.776H534.193V343.584Z" fill="white"/>
</g>
<defs>
<linearGradient id="paint0_linear" x1="758.143" y1="24" x2="758.143" y2="132.75" gradientUnits="userSpaceOnUse">
<stop stop-color="#B29FD8"/>
<stop offset="1" stop-color="#7B62A2"/>
</linearGradient>
<linearGradient id="paint1_linear" x1="789.25" y1="24.5" x2="789.25" y2="132.75" gradientUnits="userSpaceOnUse">
<stop stop-color="#BCA8E0"/>
<stop offset="1" stop-color="#8668B2"/>
</linearGradient>
<linearGradient id="paint2_linear" x1="397.143" y1="211" x2="397.143" y2="319.75" gradientUnits="userSpaceOnUse">
<stop stop-color="#99ADD2"/>
<stop offset="1" stop-color="#506A92"/>
</linearGradient>
<linearGradient id="paint3_linear" x1="428.25" y1="211.5" x2="428.25" y2="319.75" gradientUnits="userSpaceOnUse">
<stop stop-color="#ABB7E1"/>
<stop offset="1" stop-color="#7B88BF"/>
</linearGradient>
<linearGradient id="paint4_linear" x1="774.143" y1="348" x2="774.143" y2="456.75" gradientUnits="userSpaceOnUse">
<stop stop-color="#91CC97"/>
<stop offset="1" stop-color="#569863"/>
</linearGradient>
<linearGradient id="paint5_linear" x1="805.25" y1="348.5" x2="805.25" y2="456.75" gradientUnits="userSpaceOnUse">
<stop stop-color="#ACE2B1"/>
<stop offset="1" stop-color="#7EC187"/>
</linearGradient>
<linearGradient id="paint6_linear" x1="1350.14" y1="96" x2="1350.14" y2="204.75" gradientUnits="userSpaceOnUse">
<stop stop-color="#D39E99"/>
<stop offset="1" stop-color="#915F4F"/>
</linearGradient>
<linearGradient id="paint7_linear" x1="1381.25" y1="96.5" x2="1381.25" y2="204.75" gradientUnits="userSpaceOnUse">
<stop stop-color="#BF9F7B"/>
<stop offset="1" stop-color="#DFB6A8"/>
</linearGradient>
<linearGradient id="paint8_linear" x1="1375.14" y1="358" x2="1375.14" y2="466.75" gradientUnits="userSpaceOnUse">
<stop stop-color="#D1CC98"/>
<stop offset="1" stop-color="#939051"/>
</linearGradient>
<linearGradient id="paint9_linear" x1="1406.25" y1="358.5" x2="1406.25" y2="466.75" gradientUnits="userSpaceOnUse">
<stop stop-color="#DEE2AC"/>
<stop offset="1" stop-color="#BABE79"/>
</linearGradient>
<clipPath id="clip0">
<rect width="1822" height="805" fill="white"/>
</clipPath>
</defs>
</svg>
