<svg width="1772" height="800" viewBox="0 0 1772 800" fill="none" xmlns="http://www.w3.org/2000/svg">
<g clip-path="url(#clip0)">
<path d="M1732.17 493.716C1729.62 493.531 1727.67 493.84 1726.52 494.025C1725.4 494.204 1724.91 494.27 1724.04 494.134C1723.46 494.042 1722.78 493.864 1722.02 493.613C1720.48 493.094 1719.34 492.719 1718.48 492.429C1716.97 491.072 1714.68 489.317 1710.21 486.53C1710.38 486.419 1710.54 486.303 1710.69 486.185C1712.19 486.187 1713.75 486.091 1715.39 485.901C1717.93 487.561 1721.45 489.367 1726.47 491.301C1728.26 491.99 1729.69 492.538 1730.81 492.974C1731.27 493.242 1731.73 493.488 1732.17 493.716ZM261.141 797.802C284.745 801.531 294.812 798.385 303.695 795.611C306.894 794.609 309.922 793.664 313.785 792.965C328.663 790.283 332.261 787.45 338.363 781.8C339.971 780.318 341.876 778.548 344.53 776.388C351.228 770.936 352.319 768.487 353.542 764.94C354.367 762.542 355.398 759.559 360.88 752.612C369.355 741.858 412.28 735.411 426.644 734.001L428.222 733.847L444.032 729.005L474.408 729.097L494.69 734.262C502.043 736.136 509.309 737.646 516.254 738.744C528.412 740.664 535.747 740.709 536.548 740.708L537.252 740.708L591.9 736.607L619.406 727.724L626.321 716.095L626.435 715.375C626.441 715.376 628.484 707.318 646.854 697.14C657.224 691.392 659.95 691.823 661.578 692.08C664.44 692.532 668.981 694.015 674.738 695.888C679.595 697.475 685.649 699.448 693.075 701.582C695.518 702.287 697.741 702.927 699.666 703.479C701.566 706.586 706.156 709.517 711.056 712.276C718.396 716.403 720.237 717.943 721.584 719.063C725.906 722.66 728.591 724.078 749.77 732.295C760.977 736.645 771.27 739.58 780.372 741.018C796.12 743.506 804.414 740.952 807.337 739.681L823.755 733.653C834.721 729.624 839.022 724.435 840.056 719.871L855.066 719.557C859.585 724.159 868.718 734.472 884.235 756.037C896.234 772.723 901.848 779.2 913.289 781.007C918.548 781.838 922.613 781.037 925.578 780.454C928.773 779.824 931.297 779.327 936.556 780.157C939.101 780.559 942.015 781.248 945.22 782.194C950.938 783.897 957.152 785.278 963.692 786.311C1001.39 792.267 1041.29 785.289 1046.69 784.279L1096.65 777.98C1127.8 774.051 1128.39 773.977 1128 768.871L1128 768.868C1129.5 768.336 1131.56 767.651 1134.38 766.795C1173.26 755.035 1178.87 736.113 1179.09 735.314L1186.13 715.946L1188.97 697.953L1196.46 684.283C1202.08 680.292 1210.19 675.859 1214.32 675.111C1218.42 676.692 1225.97 679.484 1241.58 683.75C1240.61 684.828 1239.94 686.116 1239.7 687.659C1238.8 693.335 1238.59 694.682 1241.3 697.454L1241.29 697.453C1241.26 697.447 1242.1 698.893 1243.35 704.079C1246.74 718.216 1261.03 721.944 1267.01 722.889C1269.69 723.313 1272.15 723.443 1274.21 723.425L1304.14 734.029L1351.55 721.523L1370.95 699.287L1370.69 686.733C1370.65 684.762 1370.75 683.314 1370.9 682.27L1405.68 684.209L1417.65 686.1L1419.09 686.126C1424.18 686.219 1469.46 686.886 1489.53 681.707C1510.87 676.205 1501.77 664.701 1495.13 656.303C1491.95 652.278 1488.33 647.715 1485.68 642.427C1485.04 641.159 1484.53 640.081 1484.13 639.168C1485.57 639.452 1487.11 639.735 1488.73 639.991L1518.01 644.618L1544.07 642.98L1578.27 644.721L1585.44 641.122L1598.08 643.119L1606.93 633.229L1601.65 621L1603.68 620.589L1634.2 627.173L1650.64 620.012L1671.34 604.909L1663.69 590.67L1653.41 575.556L1651.63 560.653C1651.01 555.468 1649.84 545.823 1636.28 543.681C1634.45 543.392 1632.69 543.308 1631.02 543.426L1621.48 537.021L1587.62 523.832L1559.21 512.589L1551.34 506.295L1541.08 491.298L1542.22 484.111L1555.21 474.531L1613.84 483.065L1618.91 484.457L1645.78 494.245L1698.52 516.518L1736.61 518.959L1743.07 507.164C1745.07 503.509 1746.39 501.092 1742.95 497.855L1742.21 497.169C1742.52 497.224 1742.83 497.276 1743.14 497.326C1756.94 499.506 1767.25 493.234 1769.18 491.958L1771.38 490.493L1771.46 488.387C1771.48 487.857 1771.91 475.27 1768.8 465.143C1767.97 462.422 1764.17 455.809 1747.03 453.101C1735.19 451.231 1720 451.768 1712.01 452.252C1691.58 443.223 1661.11 427.994 1654.33 419.859C1652.72 417.93 1651.96 416.742 1651.61 416.065C1651.67 416.043 1651.72 416.019 1651.78 415.994C1654.89 414.619 1660.1 412.323 1662.18 406.698C1663.15 404.049 1665.09 402.408 1667.77 400.131C1672.59 396.041 1678.58 390.949 1680.46 379.071C1681.24 374.141 1683.61 359.132 1664.71 356.146C1664.31 356.082 1663.91 356.03 1663.53 355.986L1625.1 337.909C1615.59 333.436 1608.07 330.863 1601.42 329.813C1594.04 328.646 1587.71 329.43 1583.59 332.016C1578.84 335.005 1578.3 339.829 1579.28 344.416C1566.64 342.36 1548.4 339.013 1529.03 334.18C1503.97 327.931 1506.18 316.84 1506.51 315.597L1506.59 315.213L1507.66 308.442C1511.61 305.776 1520.94 299.26 1533.14 289.333C1540.66 283.211 1543.01 277.019 1540.14 270.92C1538.04 266.511 1533.66 263.284 1530.25 261.314L1523.16 249.127L1522.18 248.248C1521.73 247.837 1510.66 237.96 1484.55 222.464C1472.21 215.141 1466.87 213.217 1462.25 212.487C1457.25 211.697 1452.67 212.428 1450.01 214.445C1449.16 215.096 1448.55 215.827 1448.2 216.633C1431.23 217.112 1396.43 218.507 1355.78 222.445C1315.07 226.388 1306.6 228.642 1308.06 235.154C1308.07 235.237 1308.1 235.322 1308.12 235.41L1286.59 250.662L1269.46 262.171C1258.18 262.262 1225.93 262.052 1196.54 257.406C1194.32 257.055 1192.1 256.678 1189.92 256.272C1187.1 255.749 1184.89 255.27 1183.18 254.851C1183.78 254.658 1184.38 254.491 1184.9 254.368L1187.04 253.864L1203.58 242.147L1237.62 241.948L1240.31 239.761C1241.37 238.901 1246.63 233.987 1246.37 221.608C1246.37 221.551 1246.37 221.493 1246.36 221.432C1249.43 222.629 1252.46 223.459 1255.48 223.937C1263.96 225.277 1270.56 223.462 1274.12 220.805L1316.18 207.771L1310.43 201.901C1309.27 200.717 1298.05 189.748 1262.71 170.661C1254.29 166.115 1248.36 162.966 1245.04 161.276C1244.66 161.022 1244.22 160.726 1243.67 160.368C1238.45 156.296 1216.36 125.956 1198.16 99.0826L1196.42 96.5073L1164.61 84.5629L1124.77 74.7157L1083.35 70.9822L1041.08 81.7024C1034.86 82.6763 1028 83.5064 1024.84 83.6887C1019.47 82.041 1004.31 76.6146 991.28 71.7797L975.15 62.0697L933.508 53.4964L882.123 63.0183L859.569 75.3592L838.181 88.1363L830.67 101.141L834.46 121.106L852.179 139.555L886.293 149.272L897.657 156.902C899.036 161.707 902.379 173.482 904.443 182.037C900.462 181.768 895.17 181.603 889.829 182.811C889.742 182.831 889.505 182.884 888.747 182.764C886.678 182.437 875.19 179.786 851.582 159.534C844.108 153.129 835.844 149.175 827.006 147.778C806.34 144.513 794.161 156.6 790.199 161.437L766.732 169.383L750.735 172.818L742.273 171.481L708.986 158.057L700.962 133.062L691.58 115.478C686.264 105.515 685 103.147 676.779 101.848C675.604 101.663 674.067 101.557 672.463 101.646C671.507 99.1954 672.802 96.9827 672.89 96.8455L673.135 96.4376L673.317 95.9326C673.375 95.7571 679.12 78.0343 687.021 64.1639C697.789 45.2605 633.286 24.9771 613.261 19.2148L605.432 16.9607L587.401 28.1226L581.859 34.7675L581.262 34.6531C580.171 31.9189 578.719 27.9159 577.219 22.7736C575.36 16.4299 568.155 11.6789 557.942 10.0654C546.155 8.20309 533.53 11.2984 531.122 11.9354L529.558 12.3463L517.782 19.4065L522.984 28.5682L526.972 36.793C525.56 37.4629 522.326 37.5764 518.081 37.0736C518.541 36.5991 519.058 36.1502 519.469 35.8694L523.561 33.0712L509.057 14.5933L482.445 2.79447L469.729 0.785494L467.501 0.94033C466.606 1.0004 445.561 2.57081 435.161 13.3905C429.692 19.0735 431.521 23.8078 434.021 26.7779C439.009 32.7196 449.168 35.0934 451.783 35.6175C452.612 35.8592 457.924 37.541 468.29 43.6341C470.273 44.8036 471.126 45.5025 471.462 45.8174C471.219 46.3296 470.466 47.2817 469.895 48.0006C468.532 49.7227 466.8 51.9199 465.706 54.8393C464.426 54.2107 463.098 53.5107 461.926 52.8455C459.827 50.3081 455.045 44.4391 452.804 40.9727C447.982 33.5261 437.358 31.8477 433.862 31.2953C431.141 30.8655 428.098 30.5324 424.581 30.1513C421.537 29.8215 417.943 29.4317 413.67 28.8775C392.293 26.1079 384.591 32.5796 377.152 38.8377C374.77 40.8418 372.074 43.1119 368.645 45.4541C356.558 53.7177 356.439 58.4765 357.265 65.5636C357.523 67.8539 357.824 70.4496 357.544 73.8602L357.432 75.256C356.414 87.4573 356.11 91.136 361.223 100.515C363.211 104.17 363.281 106.317 363.359 108.8C363.435 111.213 363.521 113.946 365.342 117.557C367.06 120.975 366.955 122.026 366.48 127.091C366.328 128.739 366.138 130.703 365.984 133.16C365.937 133.918 365.881 134.5 365.822 134.948C363.373 135.205 360.103 135.619 355.981 136.589C355.555 135.625 355.121 134.18 354.778 133.035C353.882 130.05 352.777 126.333 350.145 121.948C349.669 121.151 349.311 120.48 349.045 119.918L349.629 119.883L353.644 94.4665C354.053 91.8787 352.92 88.1475 351.615 83.8285C351.015 81.867 350.404 79.8667 350.008 78.102C348.717 72.3952 342.356 69.4294 336.826 68.5559C331.667 67.7408 327.44 68.6879 324.582 69.7774L315.515 70.0236L315.107 70.0499C311.879 70.2818 302.51 70.9102 297.974 71.0328C281.238 71.4843 284.553 80.1163 288.395 90.1106L290.646 96.0263C291.501 98.2766 292.129 99.9067 292.187 100.302C292.181 100.415 292.156 100.576 292.134 100.791C291.978 102.196 291.68 104.808 292.253 112.121C293.419 127.044 275.425 148.036 275.236 148.244L274.166 149.489L274.854 172.767L275.153 173.509C275.33 173.95 279.631 184.581 291.638 208.459C292.7 210.581 293.455 212.322 293.988 213.753L285.648 209.437L284.766 221.421L281.366 242.939C281.14 244.371 279.257 245.349 271.311 248.908C263.553 252.38 251.835 257.629 235.948 267.381C226.284 273.311 220.906 274.301 219.147 274.456C218.469 273.825 217.662 272.647 217.355 271.766L215.584 266.702L206.81 265.245L177.864 260.672C157.662 257.48 151.132 258.594 144.595 266.348C141.922 269.508 137.891 274.283 125.363 281.036C110.991 288.784 105.802 292.198 108.311 297.362C110.454 301.79 117.317 303.674 119.897 304.383C120.197 304.468 120.523 304.539 120.857 304.639C120.959 304.947 121.079 305.483 121.052 306.302C120.772 316.078 123.703 320.933 126.545 325.625C128.56 328.962 130.647 332.408 131.99 338.734C133.265 344.696 133.265 344.696 123.159 348.012C116.032 350.347 105.266 353.877 91.4931 361.075C77.5493 368.364 72.0312 372.26 73.9399 377.524C75.6229 382.157 82.3487 384.57 85.9619 385.869C90.3616 387.451 92.7897 388.321 93.9201 392.488C98.5302 409.473 110.337 412.359 136.609 417.272C147.232 419.259 161.781 421.981 181.512 426.777C236.143 440.058 264.891 490.177 267.781 495.442L269.584 502.099L252.875 521.36C249.304 522.465 243.034 524.069 236.814 524.631L238.003 523.664L211.087 502.547L206.633 501.192L204.645 500.854C195.631 499.43 178.077 501.092 152.477 505.8C139.599 508.171 125.107 511.915 127.379 519.915C128.607 524.262 134.139 527.295 139.588 529.284L137.635 552.169C137.635 552.169 159.308 612.841 160.225 615.42C159.329 615.221 158.411 615.046 157.471 614.897C150.637 613.818 140.426 613.873 130.592 620.27C115.262 630.23 107.012 633.463 103.628 634.489L98.7433 633.002L64.0632 661.219L63.8778 661.401C63.3667 661.891 51.3917 673.721 39.2263 699.83C31.1456 717.164 31.7308 720.016 35.2974 723.249L38.454 726.104L44.2029 727.113C44.9315 727.229 45.6476 727.308 46.339 727.354L74.5521 747.467L76.1722 748.152C111.743 763.17 117.76 764.12 120.028 764.479C125.581 765.356 155.652 767.955 168.964 769.084L195.777 780.297L223.986 791.932L261.141 797.802Z" fill="#436A86"/>
<path d="M1516.78 637.709C1516.78 637.709 1505.21 635.88 1489.76 633.44C1474.33 631.001 1465.36 625.173 1474.38 643.138C1483.42 661.107 1501.69 670.608 1483.13 675.395C1464.58 680.182 1417.24 679.321 1417.24 679.321L1405.66 677.492L1362.52 675.085C1362.52 675.085 1358.66 674.475 1358.89 685.536C1359.12 696.606 1359.12 696.606 1359.12 696.606L1342.22 715.986L1302.99 726.332L1274.9 716.377C1274.9 716.377 1258.61 719.32 1255.03 704.417C1251.45 689.516 1249.92 699.198 1251.45 689.516C1252.98 679.836 1296.69 691.15 1252.98 679.836C1209.27 668.516 1219.43 666.813 1209.27 668.516C1199.11 670.221 1185.66 680.226 1185.66 680.226L1177.32 695.448L1174.43 713.739L1167.43 733.052C1167.43 733.052 1162.78 749.948 1127.47 760.629C1092.15 771.31 1142.61 764.948 1092.15 771.31C1041.69 777.674 1041.69 777.674 1041.69 777.674C1041.69 777.674 988.625 788.035 948.948 776.253C909.271 764.468 920.973 790.578 895.023 754.502C869.074 718.423 860.105 712.597 860.105 712.597L827.711 713.271C827.711 713.271 832.975 721.539 816.179 727.709C799.377 733.875 799.377 733.875 799.377 733.875C799.377 733.875 788.538 739.881 754.989 726.862C721.445 713.843 740.232 720.122 718.434 707.858C696.636 695.591 730.696 705.38 696.636 695.591C662.571 685.797 659.566 679.81 637.889 691.823C616.212 703.835 614.683 713.518 614.683 713.518L609.292 722.591L586.362 729.995L534.311 733.901C534.311 733.901 520.462 733.919 497.644 728.108C474.833 722.295 474.833 722.295 474.833 722.295L439.243 722.189L422.617 727.281C422.617 727.281 362.334 733.194 349.966 748.884C337.598 764.573 345.823 762.565 334.481 771.799C323.127 781.031 324.72 783.489 308.428 786.428C292.141 789.371 289.188 795.519 262.176 791.251C235.152 786.982 227.437 785.763 227.437 785.763L201.438 775.041L171.749 762.628C171.749 762.628 126.852 758.842 121.064 757.928C115.276 757.013 81.8899 742.919 81.8899 742.919L48.1123 718.837C48.1123 718.837 38.6974 728.376 50.6621 702.698C62.6327 677.021 74.3206 665.636 74.3206 665.636L103.831 641.629C103.831 641.629 111.376 643.926 140.036 625.298C168.697 606.666 187.896 660.427 168.697 606.666C149.497 552.912 149.497 552.912 149.497 552.912L151.819 525.71C151.819 525.71 119.177 519.452 157.883 512.332C196.59 505.216 204.141 507.513 204.141 507.513L223.502 522.699C223.502 522.699 214.42 530.088 230.027 531.449C245.639 532.814 262.436 526.648 262.436 526.648L281.788 504.34L279.287 495.125C279.287 495.125 249.02 436.315 184.252 420.566C119.484 404.817 110.573 411.131 105.577 392.698C100.576 374.265 66.2477 384.279 100.261 366.496C134.286 348.716 147.115 355.154 143.701 339.177C140.293 323.198 132.402 323.056 132.848 307.689C133.3 292.323 101.805 303.889 134.235 286.407C166.671 268.926 147.884 262.65 176.829 267.223C205.775 271.796 205.775 271.796 205.775 271.796C205.775 271.796 212.37 292.684 245.225 272.516C278.086 252.342 291.929 252.327 293.119 244.796C294.308 237.265 296.518 223.278 296.518 223.278C296.518 223.278 314.971 231.707 302.934 207.753C290.891 183.795 286.627 173.197 286.627 173.197L286.002 152.148C286.002 152.148 305.348 129.842 304.042 113.097C302.731 96.3477 306.111 106.256 301.223 93.3529C296.341 80.4511 294.748 77.9969 300.706 77.8336C306.67 77.6746 318.67 76.8141 318.67 76.8141L330.592 76.4918C330.592 76.4918 337.145 72.5648 338.307 77.7107C339.476 82.8576 342.317 89.9206 341.892 92.6099C341.467 95.2993 340.617 100.681 340.617 100.681L338.577 113.591C338.577 113.591 333.583 113.903 339.06 123.038C344.536 132.176 342.553 138.476 348.971 141.696C355.382 144.915 336.574 151.317 355.382 144.915C374.197 138.514 377.123 145.039 377.774 134.667C378.424 124.298 379.643 122.835 376.632 116.847C373.622 110.855 377.029 108.086 372.431 99.6406C367.826 91.1944 368.251 88.5051 369.327 75.4434C370.403 62.3816 363.821 60.2405 378.237 50.3875C392.646 40.5336 393.836 33.0028 413.224 35.5152C432.606 38.0267 438.649 37.3263 441.83 42.2372C445.01 47.1514 452.505 56.0542 452.505 56.0542C452.505 56.0542 475.012 70.0853 476.627 59.8652C478.241 49.645 491.297 48.4005 475.911 39.3522C460.524 30.3071 453.773 29.2404 453.773 29.2404C453.773 29.2404 437.451 26.1112 445.739 17.4959C454.026 8.88059 471.021 7.7047 471.021 7.7047L478.742 8.92456L500.001 18.3501L509.878 30.9363C509.878 30.9363 495.462 40.7893 516.778 43.6029C538.093 46.4199 539.368 38.3519 539.368 38.3519L534.146 27.6023L531.045 22.15L537.603 18.2239C537.603 18.2239 562.376 11.6625 565.585 22.6448C568.795 33.6271 571.806 39.6155 571.806 39.6155L589.09 42.9003L597.627 32.6692L609.689 25.2043C609.689 25.2043 683.951 46.5828 675.735 60.9977C667.525 75.4167 661.702 93.5167 661.702 93.5167C661.702 93.5167 655.829 102.514 668.086 109.412C680.348 116.312 671.189 99.152 680.348 116.312C689.508 133.472 689.508 133.472 689.508 133.472L698.456 161.349L738.899 177.663L753.372 179.95L773.335 175.66L799.983 166.639C799.983 166.639 817.345 141.263 842.168 162.553C866.991 183.843 885.042 191.654 895.815 189.223C906.583 186.787 918.845 193.687 916.16 182.512C913.475 171.337 908.658 154.86 908.658 154.86L892.562 144.051L859.947 134.762L845.9 120.137L842.661 103.086L848.789 92.4747L868.488 80.7L889.558 69.1722L935.409 60.6731L969.888 67.7755L984.793 76.7445C984.793 76.7445 1019.82 89.7857 1024.17 90.439C1028.51 91.0989 1046.78 88.1927 1046.78 88.1927L1086.96 78.0018L1123.52 81.2946L1160.65 90.4706L1187.26 100.463C1187.26 100.463 1226.56 158.497 1235.52 164.325C1244.49 170.154 1220.93 156.507 1255.56 175.209C1290.19 193.913 1300.41 204.35 1300.41 204.35L1265.05 215.303C1265.05 215.303 1260 222.224 1243.82 211.949C1227.64 201.674 1244.78 193.355 1227.64 201.674C1210.5 209.996 1210.5 209.996 1210.5 209.996C1210.5 209.996 1196.88 197.916 1220.96 208.336C1245.02 218.753 1234.34 209.35 1234.57 220.412C1234.8 231.478 1230.26 235.169 1230.26 235.169L1196.6 235.364L1178.79 247.986C1178.79 247.986 1147.97 255.248 1188.33 262.726C1228.68 270.206 1276.36 268.915 1276.36 268.915L1296.28 255.523L1323.01 236.59C1323.01 236.59 1303.54 234.615 1359.79 229.169C1416.03 223.719 1461.61 223.201 1461.61 223.201C1461.61 223.201 1451.56 211.688 1476.88 226.718C1502.19 241.743 1512.59 251.104 1512.59 251.104L1520.37 264.463C1520.37 264.463 1538.98 271.813 1523.09 284.74C1507.21 297.672 1496.2 304.752 1496.2 304.752L1494.84 313.357C1494.84 313.357 1490.02 331.34 1526.18 340.363C1562.33 349.383 1594.56 353.373 1594.56 353.373C1594.56 353.373 1576.4 322.936 1618.75 342.862C1661.1 362.781 1661.1 362.781 1661.1 362.781C1661.1 362.781 1671.43 360.001 1668.71 377.215C1665.99 394.428 1654.07 394.751 1650.61 404.129C1647.15 413.507 1632.22 407.841 1643.86 421.811C1655.5 435.777 1710.62 459.372 1710.62 459.372C1710.62 459.372 1754.25 455.514 1757.19 465.074C1760.13 474.638 1759.67 486.971 1759.67 486.971C1759.67 486.971 1749.61 493.651 1740.63 489.751C1731.66 485.852 1749.84 492.861 1731.66 485.852C1713.48 478.843 1725.69 476.641 1713.48 478.843C1701.26 481.05 1706.62 475.283 1701.26 481.05C1695.9 486.82 1674.14 474.284 1695.9 486.82C1717.65 499.353 1703.56 494.645 1717.65 499.353C1731.75 504.06 1735.92 496.45 1731.75 504.06C1727.58 511.671 1727.58 511.671 1727.58 511.671L1701.14 509.976L1651.07 488.834L1623.02 478.613L1615.91 476.664L1549.2 466.95L1530.73 480.571L1529.07 491.06L1541.12 508.68L1551.66 517.104L1582.38 529.256L1614.52 541.777L1630.62 552.593C1630.62 552.593 1637.93 543.824 1639.86 559.837C1641.77 575.857 1641.78 575.857 1641.78 575.857L1652.61 591.791L1658.34 602.459L1641.57 614.694L1630.42 619.55L1601.73 613.362L1587.94 616.145L1594.46 631.236L1590.85 635.262L1580.72 633.662L1572.66 637.714L1541.75 636.138L1516.78 637.709Z" fill="#687CA9"/>
<path d="M1122 399.295L1095.92 375.13L1120.05 352.956L1105.05 335L1079.03 359.488L1054.73 336.975L1038 353.337L1062.26 375.277L1040.04 396.196L1052.53 415L1079.14 390.541L1104.23 413.22L1122 399.295Z" fill="#435F89"/>
<path d="M539 95.5C618.398 74.9347 509.648 198.562 617.311 235.755C775.665 290.459 668.55 427.865 719.5 492C763.88 547.86 987.662 353.513 1082 376" stroke="#435F89" stroke-width="2.66667" stroke-miterlimit="10" stroke-dasharray="16.52 16.52"/>
<path d="M568.602 89.2984C568.602 100.507 559.512 109.597 548.299 109.597C537.09 109.597 528 100.507 528 89.2984C528 78.0846 537.09 69.0001 548.299 69.0001C559.512 69.0001 568.602 78.0846 568.602 89.2984Z" fill="#435F89"/>
<path d="M1473.08 248.65C1473.08 248.65 1443.5 231.142 1433.76 257.766C1431.74 254.538 1425.73 246.869 1414.05 247.343C1399.32 247.931 1396.36 259.218 1396.36 259.218H1410.72L1412.62 251.851L1414.52 259.218H1422.93C1416.03 260.821 1408.14 266.491 1407.87 284.04L1420.52 275.013C1420.52 275.013 1421.41 270.38 1421.77 270.619C1422.13 270.859 1424.03 272.759 1424.03 272.759L1433.6 265.71C1449.21 299.2 1435.31 356.492 1435.31 356.492H1447.78C1455.17 300.902 1444.5 273.373 1439.14 263.575L1454.79 256.485L1453.72 252.684L1458.35 255.063L1473.08 248.65" fill="#435F89"/>
<path d="M1381.41 288.298L1390.03 276.022L1387.54 273.638L1392.07 273.373L1400.29 262.013C1400.29 262.013 1370.3 261.982 1374.78 286.315C1371.84 284.789 1363.92 281.692 1355.35 287.226C1344.54 294.212 1347.32 304.01 1347.32 304.01L1358.12 297.633L1356.28 291.255L1360.98 295.946L1367.29 292.213C1362.81 296.482 1359.4 304.244 1366.99 317.551L1372.5 305.155C1372.5 305.155 1371.11 301.277 1371.48 301.298C1371.85 301.318 1374.13 301.907 1374.13 301.907L1378.19 292.359C1404.79 310.601 1419.77 359.834 1419.77 359.834L1429.14 354.305C1410.02 309.237 1389.79 293.286 1381.41 288.298" fill="#435F89"/>
<path d="M690.95 543.598C690.95 543.598 668.71 517.386 650.806 539.366C649.952 535.659 646.782 526.45 635.584 523.076C621.47 518.828 614.979 528.522 614.979 528.522L628.561 533.217L632.762 526.882L632.153 534.462L640.098 537.205C633.054 536.466 623.74 539.251 617.758 555.754L632.663 551.35C632.663 551.35 635.016 547.263 635.277 547.602C635.537 547.945 636.714 550.361 636.714 550.361L648.063 546.826C651.879 583.575 620.023 633.194 620.023 633.194L631.815 637.265C656.96 587.136 655.856 557.628 653.998 546.623L671.099 545.03L671.334 541.089L674.936 544.848L690.95 543.598Z" fill="#435F89"/>
<path d="M591.364 551.13L603.509 542.337L601.937 539.281L606.31 540.505L617.795 532.456C617.795 532.456 589.448 522.627 585.741 547.091C583.461 544.685 576.985 539.172 567.072 541.603C554.578 544.675 554 554.842 554 554.842L566.297 552.343L566.64 545.716L569.545 551.682L576.735 550.219C571.112 552.786 565.349 559.018 568.171 574.073L577.422 564.151C577.422 564.151 577.38 560.033 577.724 560.173C578.073 560.319 580.025 561.615 580.025 561.615L586.991 553.916C606.164 579.847 604.243 631.267 604.243 631.267L614.91 629.101C611.563 580.268 597.642 558.58 591.364 551.13" fill="#435F89"/>
<path d="M1465.08 550.647C1465.08 550.647 1435.51 533.144 1425.76 559.763C1423.75 556.54 1417.74 548.867 1406.06 549.34C1391.32 549.934 1388.36 561.215 1388.36 561.215H1402.73L1404.63 553.854L1406.53 561.215H1414.94C1408.03 562.819 1400.15 568.493 1399.88 586.043L1412.53 577.01C1412.53 577.01 1413.42 572.382 1413.78 572.622C1414.13 572.861 1416.04 574.761 1416.04 574.761L1425.6 567.707C1441.21 601.197 1427.32 658.495 1427.32 658.495H1439.79C1447.18 602.9 1436.5 575.376 1431.15 565.578L1446.8 558.487L1445.73 554.682L1450.35 557.061L1465.08 550.647" fill="#435F89"/>
<path d="M1373.42 590.296L1382.03 578.025L1379.54 575.641L1384.08 575.37L1392.3 564.016C1392.3 564.016 1362.3 563.984 1366.79 588.317C1363.84 586.787 1355.93 583.694 1347.35 589.228C1336.54 596.21 1339.32 606.012 1339.32 606.012L1350.12 599.63L1348.28 593.258L1352.98 597.943L1359.29 594.216C1354.82 598.479 1351.41 606.247 1358.99 619.553L1364.5 607.153C1364.5 607.153 1363.12 603.279 1363.49 603.3C1363.86 603.321 1366.14 603.904 1366.14 603.904L1370.2 594.356C1396.79 612.603 1411.77 661.836 1411.77 661.836L1421.14 656.302C1402.03 611.239 1381.78 595.283 1373.42 590.296" fill="#435F89"/>
<path d="M131.108 481C129.884 481 123.524 480.824 118.773 477.375C115.842 475.25 114.601 473.366 114.348 470.653C112.872 467.67 113.395 464.678 114.892 462.206L111 454.414L112.897 438.268L131.69 432L133.66 432.299C134.074 432.365 143.933 433.902 153.095 436.935L169.658 443.088L172 453.011L167.894 465.189L164.22 466.124C163.676 466.263 158.701 467.474 151.405 467.474C150.178 467.474 149.059 467.438 148.039 467.376L146.265 472.318L133.59 481H131.108" fill="#436A86"/>
<path d="M150.636 442.33C141.936 439.466 132.36 438 132.36 438L119.304 442.33L118 453.385L122.788 462.909C122.788 462.909 119.304 465.473 120.608 468.04C121.915 470.604 120.173 470.604 123.223 472.799C126.269 475 131.053 475 131.053 475L140.194 468.771L143.24 460.345C143.24 460.345 144.982 461.446 151.509 461.446C158.035 461.446 162.389 460.345 162.389 460.345L165 452.654L163.696 447.157L150.636 442.33" fill="#687CA9"/>
<path d="M27.127 662C26.1939 662 25.222 661.982 24.2078 661.944C17.4222 661.692 13.7143 659.248 11.8022 657.245C9.74221 655.087 9.02034 652.755 8.81258 650.957C5.81241 647.399 1.13606 641.353 0.238117 637.178C-0.997868 631.41 2.91784 625.792 4.18904 624.161L14.8587 607.801L18.0349 596.681L21.8062 576.3L23.3416 574.944C32.6731 566.715 43.2088 557.324 44.8392 555.705C47.3534 552.59 52.4524 549 62.5832 549C73.9148 549 86.5916 553.534 87.1268 553.728C90.4193 554.842 95.4407 558.955 99.8107 571.928C104.005 584.374 101.392 590.014 98.4725 592.559L90.4968 603.452L69.8794 616.275L59.326 623.384L56.1215 633.349C55.8434 634.738 54.6743 640.452 53.4665 644.545C51.9347 649.741 46.6738 656.895 46.0787 657.693L44.8357 659.365L42.6595 660.077C42.0574 660.276 36.5078 662 27.127 662" fill="#436A86"/>
<path d="M1578.13 187C1577.19 187 1576.22 187.017 1575.21 187.055C1568.42 187.307 1564.71 189.751 1562.8 191.754C1560.74 193.912 1560.02 196.244 1559.81 198.042C1556.81 201.6 1552.14 207.646 1551.24 211.821C1550 217.589 1553.92 223.207 1555.19 224.838L1565.86 241.198L1569.03 252.318L1572.81 272.699L1574.34 274.055C1583.67 282.284 1594.21 291.675 1595.84 293.294C1598.35 296.409 1603.45 300 1613.58 300C1624.91 300 1637.59 295.465 1638.13 295.271C1641.42 294.157 1646.44 290.044 1650.81 277.071C1655 264.625 1652.39 258.985 1649.47 256.44L1641.5 245.547L1620.88 232.724L1610.33 225.615L1607.12 215.65C1606.84 214.261 1605.67 208.547 1604.47 204.455C1602.93 199.258 1597.67 192.104 1597.08 191.306L1595.84 189.634L1593.66 188.922C1593.06 188.723 1587.51 187 1578.13 187" fill="#436A86"/>
<path d="M50.5319 559.248C49.6755 560.356 28.3957 579.102 28.3957 579.102L24.9207 597.853L21.4493 609.989L10.1645 627.269C10.1645 627.269 6.25597 632.049 7.12647 636.094C7.99697 640.137 15.8069 648.962 15.8069 648.962C15.8069 648.962 14.5028 655.58 24.4872 655.951C34.4716 656.318 40.114 654.479 40.114 654.479C40.114 654.479 45.3229 647.493 46.6269 643.081C47.9274 638.668 49.2313 632.049 49.2313 632.049L53.1363 619.916L65.7251 611.458L85.2569 599.325L93.0703 588.661C93.0703 588.661 97.4122 586.455 93.0703 573.584C88.7283 560.717 84.3863 559.248 84.3863 559.248C84.3863 559.248 57.9118 549.689 50.5319 559.248Z" fill="#687CA9"/>
<path d="M1601.53 289.751C1600.68 288.643 1579.4 269.897 1579.4 269.897L1575.92 251.146L1572.45 239.01L1561.16 221.73C1561.16 221.73 1557.26 216.95 1558.13 212.905C1559 208.862 1566.81 200.037 1566.81 200.037C1566.81 200.037 1565.5 193.419 1575.49 193.048C1585.47 192.681 1591.11 194.52 1591.11 194.52C1591.11 194.52 1596.32 201.506 1597.63 205.918C1598.93 210.331 1600.23 216.95 1600.23 216.95L1604.14 229.083L1616.73 237.541L1636.26 249.674L1644.07 260.338C1644.07 260.338 1648.41 262.544 1644.07 275.415C1639.73 288.282 1635.39 289.751 1635.39 289.751C1635.39 289.751 1608.91 299.31 1601.53 289.751Z" fill="#687CA9"/>
<path d="M1019.83 121.563L1019.9 121.477L1020.05 121.212L1028.54 106.075L1085.22 204.25H964.187L968.829 200.112L969.094 199.876L969.306 199.592L991.306 170.092L991.543 169.774L991.703 169.411L997.772 155.638L1019.83 121.563Z" fill="url(#paint0_linear)" stroke="#555555" stroke-width="7"/>
<path d="M1039.61 120.878L1039.84 121.738L1040.44 122.388L1067.94 151.852L1077.2 178.161L1077.54 179.141L1078.37 179.774L1110.2 204.25H993.068L1030.72 104.85L1036.45 108.671L1039.61 120.878Z" fill="url(#paint1_linear)" stroke="#555555" stroke-width="7"/>
<path d="M408.834 237.563L408.904 237.477L409.053 237.212L417.544 222.075L474.224 320.25H353.187L357.829 316.112L358.094 315.876L358.306 315.592L380.306 286.092L380.543 285.774L380.703 285.411L386.772 271.638L408.834 237.563Z" fill="url(#paint2_linear)" stroke="#555555" stroke-width="7"/>
<path d="M428.612 236.878L428.835 237.738L429.441 238.388L456.941 267.852L466.198 294.161L466.543 295.141L467.366 295.774L499.204 320.25H382.068L419.716 220.85L425.447 224.671L428.612 236.878Z" fill="url(#paint3_linear)" stroke="#555555" stroke-width="7"/>
<path d="M1319.83 367.563L1319.9 367.477L1320.05 367.212L1328.54 352.075L1385.22 450.25H1264.19L1268.83 446.112L1269.09 445.876L1269.31 445.592L1291.31 416.092L1291.54 415.774L1291.7 415.411L1297.77 401.638L1319.83 367.563Z" fill="url(#paint4_linear)" stroke="#555555" stroke-width="7"/>
<path d="M1339.61 366.878L1339.83 367.738L1340.44 368.388L1367.94 397.852L1377.2 424.161L1377.54 425.141L1378.37 425.774L1410.2 450.25H1293.07L1330.72 350.85L1336.45 354.671L1339.61 366.878Z" fill="url(#paint5_linear)" stroke="#555555" stroke-width="7"/>
<path d="M1027.83 504.563L1027.9 504.477L1028.05 504.212L1036.54 489.075L1093.22 587.25H972.187L976.829 583.112L977.094 582.876L977.306 582.592L999.306 553.092L999.543 552.774L999.703 552.411L1005.77 538.638L1027.83 504.563Z" fill="url(#paint6_linear)" stroke="#555555" stroke-width="7"/>
<path d="M1047.61 503.878L1047.83 504.738L1048.44 505.388L1075.94 534.852L1085.2 561.161L1085.54 562.141L1086.37 562.774L1118.2 587.25H1001.07L1038.72 487.85L1044.45 491.671L1047.61 503.878Z" fill="url(#paint7_linear)" stroke="#555555" stroke-width="7"/>
<path d="M309.834 532.563L309.904 532.477L310.053 532.212L318.544 517.075L375.224 615.25H254.187L258.829 611.112L259.094 610.876L259.306 610.592L281.306 581.092L281.543 580.774L281.703 580.411L287.772 566.638L309.834 532.563Z" fill="url(#paint8_linear)" stroke="#555555" stroke-width="7"/>
<path d="M329.612 531.878L329.835 532.738L330.441 533.388L357.941 562.852L367.198 589.161L367.543 590.141L368.366 590.774L400.204 615.25H283.068L320.716 515.85L326.447 519.671L329.612 531.878Z" fill="url(#paint9_linear)" stroke="#555555" stroke-width="7"/>
<path d="M336.852 346.4H339.408V356.012C338.232 357.044 336.84 357.836 335.232 358.388C333.624 358.94 331.932 359.216 330.156 359.216C327.636 359.216 325.368 358.664 323.352 357.56C321.336 356.456 319.752 354.932 318.6 352.988C317.448 351.02 316.872 348.824 316.872 346.4C316.872 343.976 317.448 341.792 318.6 339.848C319.752 337.88 321.336 336.344 323.352 335.24C325.368 334.136 327.648 333.584 330.192 333.584C332.112 333.584 333.876 333.896 335.484 334.52C337.092 335.12 338.448 336.02 339.552 337.22L337.896 338.912C335.904 336.944 333.372 335.96 330.3 335.96C328.26 335.96 326.412 336.416 324.756 337.328C323.124 338.216 321.84 339.464 320.904 341.072C319.968 342.656 319.5 344.432 319.5 346.4C319.5 348.368 319.968 350.144 320.904 351.728C321.84 353.312 323.124 354.56 324.756 355.472C326.388 356.384 328.224 356.84 330.264 356.84C332.856 356.84 335.052 356.192 336.852 354.896V346.4ZM362.896 350.324H347.056C347.2 352.292 347.956 353.888 349.324 355.112C350.692 356.312 352.42 356.912 354.508 356.912C355.684 356.912 356.764 356.708 357.748 356.3C358.732 355.868 359.584 355.244 360.304 354.428L361.744 356.084C360.904 357.092 359.848 357.86 358.576 358.388C357.328 358.916 355.948 359.18 354.436 359.18C352.492 359.18 350.764 358.772 349.252 357.956C347.764 357.116 346.6 355.964 345.76 354.5C344.92 353.036 344.5 351.38 344.5 349.532C344.5 347.684 344.896 346.028 345.688 344.564C346.504 343.1 347.608 341.96 349 341.144C350.416 340.328 352 339.92 353.752 339.92C355.504 339.92 357.076 340.328 358.468 341.144C359.86 341.96 360.952 343.1 361.744 344.564C362.536 346.004 362.932 347.66 362.932 349.532L362.896 350.324ZM353.752 342.116C351.928 342.116 350.392 342.704 349.144 343.88C347.92 345.032 347.224 346.544 347.056 348.416H360.484C360.316 346.544 359.608 345.032 358.36 343.88C357.136 342.704 355.6 342.116 353.752 342.116ZM373.21 359.18C371.674 359.18 370.198 358.964 368.782 358.532C367.39 358.076 366.298 357.512 365.506 356.84L366.658 354.824C367.45 355.448 368.446 355.964 369.646 356.372C370.846 356.756 372.094 356.948 373.39 356.948C375.118 356.948 376.39 356.684 377.206 356.156C378.046 355.604 378.466 354.836 378.466 353.852C378.466 353.156 378.238 352.616 377.782 352.232C377.326 351.824 376.75 351.524 376.054 351.332C375.358 351.116 374.434 350.912 373.282 350.72C371.746 350.432 370.51 350.144 369.574 349.856C368.638 349.544 367.834 349.028 367.162 348.308C366.514 347.588 366.19 346.592 366.19 345.32C366.19 343.736 366.85 342.44 368.17 341.432C369.49 340.424 371.326 339.92 373.678 339.92C374.902 339.92 376.126 340.088 377.35 340.424C378.574 340.736 379.582 341.156 380.374 341.684L379.258 343.736C377.698 342.656 375.838 342.116 373.678 342.116C372.046 342.116 370.81 342.404 369.97 342.98C369.154 343.556 368.746 344.312 368.746 345.248C368.746 345.968 368.974 346.544 369.43 346.976C369.91 347.408 370.498 347.732 371.194 347.948C371.89 348.14 372.85 348.344 374.074 348.56C375.586 348.848 376.798 349.136 377.71 349.424C378.622 349.712 379.402 350.204 380.05 350.9C380.698 351.596 381.022 352.556 381.022 353.78C381.022 355.436 380.326 356.756 378.934 357.74C377.566 358.7 375.658 359.18 373.21 359.18ZM395.72 357.848C395.24 358.28 394.64 358.616 393.92 358.856C393.224 359.072 392.492 359.18 391.724 359.18C389.948 359.18 388.58 358.7 387.62 357.74C386.66 356.78 386.18 355.424 386.18 353.672V342.224H382.796V340.064H386.18V335.924H388.736V340.064H394.496V342.224H388.736V353.528C388.736 354.656 389.012 355.52 389.564 356.12C390.14 356.696 390.956 356.984 392.012 356.984C392.54 356.984 393.044 356.9 393.524 356.732C394.028 356.564 394.46 356.324 394.82 356.012L395.72 357.848ZM400.373 340.064H402.929V359H400.373V340.064ZM401.669 335.924C401.141 335.924 400.697 335.744 400.337 335.384C399.977 335.024 399.797 334.592 399.797 334.088C399.797 333.608 399.977 333.188 400.337 332.828C400.697 332.468 401.141 332.288 401.669 332.288C402.197 332.288 402.641 332.468 403.001 332.828C403.361 333.164 403.541 333.572 403.541 334.052C403.541 334.58 403.361 335.024 403.001 335.384C402.641 335.744 402.197 335.924 401.669 335.924ZM417.781 359.18C415.957 359.18 414.313 358.772 412.849 357.956C411.385 357.116 410.233 355.964 409.393 354.5C408.553 353.036 408.133 351.38 408.133 349.532C408.133 347.684 408.553 346.028 409.393 344.564C410.233 343.1 411.385 341.96 412.849 341.144C414.313 340.328 415.957 339.92 417.781 339.92C419.605 339.92 421.249 340.328 422.713 341.144C424.177 341.96 425.317 343.1 426.133 344.564C426.973 346.028 427.393 347.684 427.393 349.532C427.393 351.38 426.973 353.036 426.133 354.5C425.317 355.964 424.177 357.116 422.713 357.956C421.249 358.772 419.605 359.18 417.781 359.18ZM417.781 356.912C419.125 356.912 420.325 356.612 421.381 356.012C422.461 355.388 423.301 354.512 423.901 353.384C424.501 352.256 424.801 350.972 424.801 349.532C424.801 348.092 424.501 346.808 423.901 345.68C423.301 344.552 422.461 343.688 421.381 343.088C420.325 342.464 419.125 342.152 417.781 342.152C416.437 342.152 415.225 342.464 414.145 343.088C413.089 343.688 412.249 344.552 411.625 345.68C411.025 346.808 410.725 348.092 410.725 349.532C410.725 350.972 411.025 352.256 411.625 353.384C412.249 354.512 413.089 355.388 414.145 356.012C415.225 356.612 416.437 356.912 417.781 356.912ZM442.259 339.92C444.635 339.92 446.519 340.616 447.911 342.008C449.327 343.376 450.035 345.38 450.035 348.02V359H447.479V348.272C447.479 346.304 446.987 344.804 446.003 343.772C445.019 342.74 443.615 342.224 441.791 342.224C439.751 342.224 438.131 342.836 436.931 344.06C435.755 345.26 435.167 346.928 435.167 349.064V359H432.611V340.064H435.059V343.556C435.755 342.404 436.715 341.516 437.939 340.892C439.187 340.244 440.627 339.92 442.259 339.92ZM466.622 339.92C468.998 339.92 470.882 340.616 472.274 342.008C473.69 343.376 474.398 345.38 474.398 348.02V359H471.842V348.272C471.842 346.304 471.35 344.804 470.366 343.772C469.382 342.74 467.978 342.224 466.154 342.224C464.114 342.224 462.494 342.836 461.294 344.06C460.118 345.26 459.53 346.928 459.53 349.064V359H456.974V340.064H459.422V343.556C460.118 342.404 461.078 341.516 462.302 340.892C463.55 340.244 464.99 339.92 466.622 339.92ZM487.961 339.92C490.433 339.92 492.329 340.544 493.649 341.792C494.969 343.016 495.629 344.84 495.629 347.264V359H493.181V356.048C492.605 357.032 491.753 357.8 490.625 358.352C489.521 358.904 488.201 359.18 486.665 359.18C484.553 359.18 482.873 358.676 481.625 357.668C480.377 356.66 479.753 355.328 479.753 353.672C479.753 352.064 480.329 350.768 481.481 349.784C482.657 348.8 484.517 348.308 487.061 348.308H493.073V347.156C493.073 345.524 492.617 344.288 491.705 343.448C490.793 342.584 489.461 342.152 487.709 342.152C486.509 342.152 485.357 342.356 484.253 342.764C483.149 343.148 482.201 343.688 481.409 344.384L480.257 342.476C481.217 341.66 482.369 341.036 483.713 340.604C485.057 340.148 486.473 339.92 487.961 339.92ZM487.061 357.164C488.501 357.164 489.737 356.84 490.769 356.192C491.801 355.52 492.569 354.56 493.073 353.312V350.216H487.133C483.893 350.216 482.273 351.344 482.273 353.6C482.273 354.704 482.693 355.58 483.533 356.228C484.373 356.852 485.549 357.164 487.061 357.164ZM502.572 340.064H505.128V359H502.572V340.064ZM503.868 335.924C503.34 335.924 502.896 335.744 502.536 335.384C502.176 335.024 501.996 334.592 501.996 334.088C501.996 333.608 502.176 333.188 502.536 332.828C502.896 332.468 503.34 332.288 503.868 332.288C504.396 332.288 504.84 332.468 505.2 332.828C505.56 333.164 505.74 333.572 505.74 334.052C505.74 334.58 505.56 335.024 505.2 335.384C504.84 335.744 504.396 335.924 503.868 335.924ZM514.688 343.772C515.288 342.5 516.176 341.54 517.352 340.892C518.552 340.244 520.028 339.92 521.78 339.92V342.404L521.168 342.368C519.176 342.368 517.616 342.98 516.488 344.204C515.36 345.428 514.796 347.144 514.796 349.352V359H512.24V340.064H514.688V343.772ZM542.72 350.324H526.88C527.024 352.292 527.78 353.888 529.148 355.112C530.516 356.312 532.244 356.912 534.332 356.912C535.508 356.912 536.588 356.708 537.572 356.3C538.556 355.868 539.408 355.244 540.128 354.428L541.568 356.084C540.728 357.092 539.672 357.86 538.4 358.388C537.152 358.916 535.772 359.18 534.26 359.18C532.316 359.18 530.588 358.772 529.076 357.956C527.588 357.116 526.424 355.964 525.584 354.5C524.744 353.036 524.324 351.38 524.324 349.532C524.324 347.684 524.72 346.028 525.512 344.564C526.328 343.1 527.432 341.96 528.824 341.144C530.24 340.328 531.824 339.92 533.576 339.92C535.328 339.92 536.9 340.328 538.292 341.144C539.684 341.96 540.776 343.1 541.568 344.564C542.36 346.004 542.756 347.66 542.756 349.532L542.72 350.324ZM533.576 342.116C531.752 342.116 530.216 342.704 528.968 343.88C527.744 345.032 527.048 346.544 526.88 348.416H540.308C540.14 346.544 539.432 345.032 538.184 343.88C536.96 342.704 535.424 342.116 533.576 342.116ZM335.844 376.288V403H333.396V399.256C332.628 400.528 331.608 401.5 330.336 402.172C329.088 402.844 327.672 403.18 326.088 403.18C324.312 403.18 322.704 402.772 321.264 401.956C319.824 401.14 318.696 400 317.88 398.536C317.064 397.072 316.656 395.404 316.656 393.532C316.656 391.66 317.064 389.992 317.88 388.528C318.696 387.064 319.824 385.936 321.264 385.144C322.704 384.328 324.312 383.92 326.088 383.92C327.624 383.92 329.004 384.244 330.228 384.892C331.476 385.516 332.496 386.44 333.288 387.664V376.288H335.844ZM326.304 400.912C327.624 400.912 328.812 400.612 329.868 400.012C330.948 399.388 331.788 398.512 332.388 397.384C333.012 396.256 333.324 394.972 333.324 393.532C333.324 392.092 333.012 390.808 332.388 389.68C331.788 388.552 330.948 387.688 329.868 387.088C328.812 386.464 327.624 386.152 326.304 386.152C324.96 386.152 323.748 386.464 322.668 387.088C321.612 387.688 320.772 388.552 320.148 389.68C319.548 390.808 319.248 392.092 319.248 393.532C319.248 394.972 319.548 396.256 320.148 397.384C320.772 398.512 321.612 399.388 322.668 400.012C323.748 400.612 324.96 400.912 326.304 400.912ZM359.45 394.324H343.61C343.754 396.292 344.51 397.888 345.878 399.112C347.246 400.312 348.974 400.912 351.062 400.912C352.238 400.912 353.318 400.708 354.302 400.3C355.286 399.868 356.138 399.244 356.858 398.428L358.298 400.084C357.458 401.092 356.402 401.86 355.13 402.388C353.882 402.916 352.502 403.18 350.99 403.18C349.046 403.18 347.318 402.772 345.806 401.956C344.318 401.116 343.154 399.964 342.314 398.5C341.474 397.036 341.054 395.38 341.054 393.532C341.054 391.684 341.45 390.028 342.242 388.564C343.058 387.1 344.162 385.96 345.554 385.144C346.97 384.328 348.554 383.92 350.306 383.92C352.058 383.92 353.63 384.328 355.022 385.144C356.414 385.96 357.506 387.1 358.298 388.564C359.09 390.004 359.486 391.66 359.486 393.532L359.45 394.324ZM350.306 386.116C348.482 386.116 346.946 386.704 345.698 387.88C344.474 389.032 343.778 390.544 343.61 392.416H357.038C356.87 390.544 356.162 389.032 354.914 387.88C353.69 386.704 352.154 386.116 350.306 386.116ZM376.559 387.772C377.159 386.5 378.047 385.54 379.223 384.892C380.423 384.244 381.899 383.92 383.651 383.92V386.404L383.039 386.368C381.047 386.368 379.487 386.98 378.359 388.204C377.231 389.428 376.667 391.144 376.667 393.352V403H374.111V384.064H376.559V387.772ZM404.591 394.324H388.751C388.895 396.292 389.651 397.888 391.019 399.112C392.387 400.312 394.115 400.912 396.203 400.912C397.379 400.912 398.459 400.708 399.443 400.3C400.427 399.868 401.279 399.244 401.999 398.428L403.439 400.084C402.599 401.092 401.543 401.86 400.271 402.388C399.023 402.916 397.643 403.18 396.131 403.18C394.187 403.18 392.459 402.772 390.947 401.956C389.459 401.116 388.295 399.964 387.455 398.5C386.615 397.036 386.195 395.38 386.195 393.532C386.195 391.684 386.591 390.028 387.383 388.564C388.199 387.1 389.303 385.96 390.695 385.144C392.111 384.328 393.695 383.92 395.447 383.92C397.199 383.92 398.771 384.328 400.163 385.144C401.555 385.96 402.647 387.1 403.439 388.564C404.231 390.004 404.627 391.66 404.627 393.532L404.591 394.324ZM395.447 386.116C393.623 386.116 392.087 386.704 390.839 387.88C389.615 389.032 388.919 390.544 388.751 392.416H402.179C402.011 390.544 401.303 389.032 400.055 387.88C398.831 386.704 397.295 386.116 395.447 386.116ZM398.039 376.648H401.459L395.627 381.112H393.107L398.039 376.648ZM414.906 403.18C413.37 403.18 411.894 402.964 410.478 402.532C409.086 402.076 407.994 401.512 407.202 400.84L408.354 398.824C409.146 399.448 410.142 399.964 411.342 400.372C412.542 400.756 413.79 400.948 415.086 400.948C416.814 400.948 418.086 400.684 418.902 400.156C419.742 399.604 420.162 398.836 420.162 397.852C420.162 397.156 419.934 396.616 419.478 396.232C419.022 395.824 418.446 395.524 417.75 395.332C417.054 395.116 416.13 394.912 414.978 394.72C413.442 394.432 412.206 394.144 411.27 393.856C410.334 393.544 409.53 393.028 408.858 392.308C408.21 391.588 407.886 390.592 407.886 389.32C407.886 387.736 408.546 386.44 409.866 385.432C411.186 384.424 413.022 383.92 415.374 383.92C416.598 383.92 417.822 384.088 419.046 384.424C420.27 384.736 421.278 385.156 422.07 385.684L420.954 387.736C419.394 386.656 417.534 386.116 415.374 386.116C413.742 386.116 412.506 386.404 411.666 386.98C410.85 387.556 410.442 388.312 410.442 389.248C410.442 389.968 410.67 390.544 411.126 390.976C411.606 391.408 412.194 391.732 412.89 391.948C413.586 392.14 414.546 392.344 415.77 392.56C417.282 392.848 418.494 393.136 419.406 393.424C420.318 393.712 421.098 394.204 421.746 394.9C422.394 395.596 422.718 396.556 422.718 397.78C422.718 399.436 422.022 400.756 420.63 401.74C419.262 402.7 417.354 403.18 414.906 403.18ZM443.931 394.324H428.091C428.235 396.292 428.991 397.888 430.359 399.112C431.727 400.312 433.455 400.912 435.543 400.912C436.719 400.912 437.799 400.708 438.783 400.3C439.767 399.868 440.619 399.244 441.339 398.428L442.779 400.084C441.939 401.092 440.883 401.86 439.611 402.388C438.363 402.916 436.983 403.18 435.471 403.18C433.527 403.18 431.799 402.772 430.287 401.956C428.799 401.116 427.635 399.964 426.795 398.5C425.955 397.036 425.535 395.38 425.535 393.532C425.535 391.684 425.931 390.028 426.723 388.564C427.539 387.1 428.643 385.96 430.035 385.144C431.451 384.328 433.035 383.92 434.787 383.92C436.539 383.92 438.111 384.328 439.503 385.144C440.895 385.96 441.987 387.1 442.779 388.564C443.571 390.004 443.967 391.66 443.967 393.532L443.931 394.324ZM434.787 386.116C432.963 386.116 431.427 386.704 430.179 387.88C428.955 389.032 428.259 390.544 428.091 392.416H441.519C441.351 390.544 440.643 389.032 439.395 387.88C438.171 386.704 436.635 386.116 434.787 386.116ZM455.266 383.92C457.738 383.92 459.634 384.544 460.954 385.792C462.274 387.016 462.934 388.84 462.934 391.264V403H460.486V400.048C459.91 401.032 459.058 401.8 457.93 402.352C456.826 402.904 455.506 403.18 453.97 403.18C451.858 403.18 450.178 402.676 448.93 401.668C447.682 400.66 447.058 399.328 447.058 397.672C447.058 396.064 447.634 394.768 448.786 393.784C449.962 392.8 451.822 392.308 454.366 392.308H460.378V391.156C460.378 389.524 459.922 388.288 459.01 387.448C458.098 386.584 456.766 386.152 455.014 386.152C453.814 386.152 452.662 386.356 451.558 386.764C450.454 387.148 449.506 387.688 448.714 388.384L447.562 386.476C448.522 385.66 449.674 385.036 451.018 384.604C452.362 384.148 453.778 383.92 455.266 383.92ZM454.366 401.164C455.806 401.164 457.042 400.84 458.074 400.192C459.106 399.52 459.874 398.56 460.378 397.312V394.216H454.438C451.198 394.216 449.578 395.344 449.578 397.6C449.578 398.704 449.998 399.58 450.838 400.228C451.678 400.852 452.854 401.164 454.366 401.164ZM486.941 384.064V403H484.492V399.544C483.821 400.696 482.897 401.596 481.721 402.244C480.545 402.868 479.201 403.18 477.689 403.18C475.217 403.18 473.261 402.496 471.821 401.128C470.405 399.736 469.697 397.708 469.697 395.044V384.064H472.253V394.792C472.253 396.784 472.745 398.296 473.729 399.328C474.713 400.36 476.117 400.876 477.941 400.876C479.933 400.876 481.505 400.276 482.657 399.076C483.809 397.852 484.385 396.16 484.385 394V384.064H486.941ZM506.159 403L500.147 395.08L494.099 403H491.219L498.707 393.28L491.579 384.064H494.459L500.147 391.48L505.835 384.064H508.643L501.515 393.28L509.075 403H506.159Z" fill="#EFEFEF"/>
<path d="M210.104 640.8H220.364C223.028 640.8 225.38 641.34 227.42 642.42C229.46 643.476 231.044 644.964 232.172 646.884C233.3 648.78 233.864 650.952 233.864 653.4C233.864 655.848 233.3 658.032 232.172 659.952C231.044 661.848 229.46 663.336 227.42 664.416C225.38 665.472 223.028 666 220.364 666H210.104V640.8ZM220.22 663.696C222.428 663.696 224.36 663.264 226.016 662.4C227.672 661.512 228.956 660.3 229.868 658.764C230.78 657.204 231.236 655.416 231.236 653.4C231.236 651.384 230.78 649.608 229.868 648.072C228.956 646.512 227.672 645.3 226.016 644.436C224.36 643.548 222.428 643.104 220.22 643.104H212.768V663.696H220.22ZM255.794 657.324H239.954C240.098 659.292 240.854 660.888 242.222 662.112C243.59 663.312 245.318 663.912 247.406 663.912C248.582 663.912 249.662 663.708 250.646 663.3C251.63 662.868 252.482 662.244 253.202 661.428L254.642 663.084C253.802 664.092 252.746 664.86 251.474 665.388C250.226 665.916 248.846 666.18 247.334 666.18C245.39 666.18 243.662 665.772 242.15 664.956C240.662 664.116 239.498 662.964 238.658 661.5C237.818 660.036 237.398 658.38 237.398 656.532C237.398 654.684 237.794 653.028 238.586 651.564C239.402 650.1 240.506 648.96 241.898 648.144C243.314 647.328 244.898 646.92 246.65 646.92C248.402 646.92 249.974 647.328 251.366 648.144C252.758 648.96 253.85 650.1 254.642 651.564C255.434 653.004 255.83 654.66 255.83 656.532L255.794 657.324ZM246.65 649.116C244.826 649.116 243.29 649.704 242.042 650.88C240.818 652.032 240.122 653.544 239.954 655.416H253.382C253.214 653.544 252.506 652.032 251.258 650.88C250.034 649.704 248.498 649.116 246.65 649.116ZM249.242 639.648H252.662L246.83 644.112H244.31L249.242 639.648ZM276.593 647.064L268.169 666H265.541L257.153 647.064H259.817L266.909 663.192L274.073 647.064H276.593ZM296.154 657.324H280.314C280.458 659.292 281.214 660.888 282.582 662.112C283.95 663.312 285.678 663.912 287.766 663.912C288.942 663.912 290.022 663.708 291.006 663.3C291.99 662.868 292.842 662.244 293.562 661.428L295.002 663.084C294.162 664.092 293.106 664.86 291.834 665.388C290.586 665.916 289.206 666.18 287.694 666.18C285.75 666.18 284.022 665.772 282.51 664.956C281.022 664.116 279.858 662.964 279.018 661.5C278.178 660.036 277.758 658.38 277.758 656.532C277.758 654.684 278.154 653.028 278.946 651.564C279.762 650.1 280.866 648.96 282.258 648.144C283.674 647.328 285.258 646.92 287.01 646.92C288.762 646.92 290.334 647.328 291.726 648.144C293.118 648.96 294.21 650.1 295.002 651.564C295.794 653.004 296.19 654.66 296.19 656.532L296.154 657.324ZM287.01 649.116C285.186 649.116 283.65 649.704 282.402 650.88C281.178 652.032 280.482 653.544 280.314 655.416H293.742C293.574 653.544 292.866 652.032 291.618 650.88C290.394 649.704 288.858 649.116 287.01 649.116ZM301.392 639.288H303.948V666H301.392V639.288ZM318.8 666.18C316.976 666.18 315.332 665.772 313.868 664.956C312.404 664.116 311.252 662.964 310.412 661.5C309.572 660.036 309.152 658.38 309.152 656.532C309.152 654.684 309.572 653.028 310.412 651.564C311.252 650.1 312.404 648.96 313.868 648.144C315.332 647.328 316.976 646.92 318.8 646.92C320.624 646.92 322.268 647.328 323.732 648.144C325.196 648.96 326.336 650.1 327.152 651.564C327.992 653.028 328.412 654.684 328.412 656.532C328.412 658.38 327.992 660.036 327.152 661.5C326.336 662.964 325.196 664.116 323.732 664.956C322.268 665.772 320.624 666.18 318.8 666.18ZM318.8 663.912C320.144 663.912 321.344 663.612 322.4 663.012C323.48 662.388 324.32 661.512 324.92 660.384C325.52 659.256 325.82 657.972 325.82 656.532C325.82 655.092 325.52 653.808 324.92 652.68C324.32 651.552 323.48 650.688 322.4 650.088C321.344 649.464 320.144 649.152 318.8 649.152C317.456 649.152 316.244 649.464 315.164 650.088C314.108 650.688 313.268 651.552 312.644 652.68C312.044 653.808 311.744 655.092 311.744 656.532C311.744 657.972 312.044 659.256 312.644 660.384C313.268 661.512 314.108 662.388 315.164 663.012C316.244 663.612 317.456 663.912 318.8 663.912ZM343.386 646.92C345.162 646.92 346.77 647.328 348.21 648.144C349.65 648.936 350.778 650.064 351.594 651.528C352.41 652.992 352.818 654.66 352.818 656.532C352.818 658.428 352.41 660.108 351.594 661.572C350.778 663.036 349.65 664.176 348.21 664.992C346.794 665.784 345.186 666.18 343.386 666.18C341.85 666.18 340.458 665.868 339.21 665.244C337.986 664.596 336.978 663.66 336.186 662.436V672.984H333.63V647.064H336.078V650.808C336.846 649.56 337.854 648.6 339.102 647.928C340.374 647.256 341.802 646.92 343.386 646.92ZM343.206 663.912C344.526 663.912 345.726 663.612 346.806 663.012C347.886 662.388 348.726 661.512 349.326 660.384C349.95 659.256 350.262 657.972 350.262 656.532C350.262 655.092 349.95 653.82 349.326 652.716C348.726 651.588 347.886 650.712 346.806 650.088C345.726 649.464 344.526 649.152 343.206 649.152C341.862 649.152 340.65 649.464 339.57 650.088C338.514 650.712 337.674 651.588 337.05 652.716C336.45 653.82 336.15 655.092 336.15 656.532C336.15 657.972 336.45 659.256 337.05 660.384C337.674 661.512 338.514 662.388 339.57 663.012C340.65 663.612 341.862 663.912 343.206 663.912ZM367.785 646.92C369.561 646.92 371.169 647.328 372.609 648.144C374.049 648.936 375.177 650.064 375.993 651.528C376.809 652.992 377.217 654.66 377.217 656.532C377.217 658.428 376.809 660.108 375.993 661.572C375.177 663.036 374.049 664.176 372.609 664.992C371.193 665.784 369.585 666.18 367.785 666.18C366.249 666.18 364.857 665.868 363.609 665.244C362.385 664.596 361.377 663.66 360.585 662.436V672.984H358.029V647.064H360.477V650.808C361.245 649.56 362.253 648.6 363.501 647.928C364.773 647.256 366.201 646.92 367.785 646.92ZM367.605 663.912C368.925 663.912 370.125 663.612 371.205 663.012C372.285 662.388 373.125 661.512 373.725 660.384C374.349 659.256 374.661 657.972 374.661 656.532C374.661 655.092 374.349 653.82 373.725 652.716C373.125 651.588 372.285 650.712 371.205 650.088C370.125 649.464 368.925 649.152 367.605 649.152C366.261 649.152 365.049 649.464 363.969 650.088C362.913 650.712 362.073 651.588 361.449 652.716C360.849 653.82 360.549 655.092 360.549 656.532C360.549 657.972 360.849 659.256 361.449 660.384C362.073 661.512 362.913 662.388 363.969 663.012C365.049 663.612 366.261 663.912 367.605 663.912ZM398.915 657.324H383.075C383.219 659.292 383.975 660.888 385.343 662.112C386.711 663.312 388.439 663.912 390.527 663.912C391.703 663.912 392.783 663.708 393.767 663.3C394.751 662.868 395.603 662.244 396.323 661.428L397.763 663.084C396.923 664.092 395.867 664.86 394.595 665.388C393.347 665.916 391.967 666.18 390.455 666.18C388.511 666.18 386.783 665.772 385.271 664.956C383.783 664.116 382.619 662.964 381.779 661.5C380.939 660.036 380.519 658.38 380.519 656.532C380.519 654.684 380.915 653.028 381.707 651.564C382.523 650.1 383.627 648.96 385.019 648.144C386.435 647.328 388.019 646.92 389.771 646.92C391.523 646.92 393.095 647.328 394.487 648.144C395.879 648.96 396.971 650.1 397.763 651.564C398.555 653.004 398.951 654.66 398.951 656.532L398.915 657.324ZM389.771 649.116C387.947 649.116 386.411 649.704 385.163 650.88C383.939 652.032 383.243 653.544 383.075 655.416H396.503C396.335 653.544 395.627 652.032 394.379 650.88C393.155 649.704 391.619 649.116 389.771 649.116ZM421.218 647.064V666H418.77V662.544C418.098 663.696 417.174 664.596 415.998 665.244C414.822 665.868 413.478 666.18 411.966 666.18C409.494 666.18 407.538 665.496 406.098 664.128C404.682 662.736 403.974 660.708 403.974 658.044V647.064H406.53V657.792C406.53 659.784 407.022 661.296 408.006 662.328C408.99 663.36 410.394 663.876 412.218 663.876C414.21 663.876 415.782 663.276 416.934 662.076C418.086 660.852 418.662 659.16 418.662 657V647.064H421.218ZM430.825 650.772C431.425 649.5 432.313 648.54 433.489 647.892C434.689 647.244 436.165 646.92 437.917 646.92V649.404L437.305 649.368C435.312 649.368 433.753 649.98 432.625 651.204C431.497 652.428 430.933 654.144 430.933 656.352V666H428.377V647.064H430.825V650.772ZM222.19 687.104V697.004H235.222V699.308H222.19V710H219.526V684.8H236.806V687.104H222.19ZM243.864 694.772C244.464 693.5 245.352 692.54 246.528 691.892C247.728 691.244 249.204 690.92 250.956 690.92V693.404L250.344 693.368C248.352 693.368 246.792 693.98 245.664 695.204C244.536 696.428 243.972 698.144 243.972 700.352V710H241.416V691.064H243.864V694.772ZM263.148 710.18C261.324 710.18 259.68 709.772 258.216 708.956C256.752 708.116 255.6 706.964 254.76 705.5C253.92 704.036 253.5 702.38 253.5 700.532C253.5 698.684 253.92 697.028 254.76 695.564C255.6 694.1 256.752 692.96 258.216 692.144C259.68 691.328 261.324 690.92 263.148 690.92C264.972 690.92 266.616 691.328 268.08 692.144C269.544 692.96 270.684 694.1 271.5 695.564C272.34 697.028 272.76 698.684 272.76 700.532C272.76 702.38 272.34 704.036 271.5 705.5C270.684 706.964 269.544 708.116 268.08 708.956C266.616 709.772 264.972 710.18 263.148 710.18ZM263.148 707.912C264.492 707.912 265.692 707.612 266.748 707.012C267.828 706.388 268.668 705.512 269.268 704.384C269.868 703.256 270.168 701.972 270.168 700.532C270.168 699.092 269.868 697.808 269.268 696.68C268.668 695.552 267.828 694.688 266.748 694.088C265.692 693.464 264.492 693.152 263.148 693.152C261.804 693.152 260.592 693.464 259.512 694.088C258.456 694.688 257.616 695.552 256.992 696.68C256.392 697.808 256.092 699.092 256.092 700.532C256.092 701.972 256.392 703.256 256.992 704.384C257.616 705.512 258.456 706.388 259.512 707.012C260.592 707.612 261.804 707.912 263.148 707.912ZM287.626 690.92C290.002 690.92 291.886 691.616 293.278 693.008C294.694 694.376 295.402 696.38 295.402 699.02V710H292.846V699.272C292.846 697.304 292.354 695.804 291.37 694.772C290.386 693.74 288.982 693.224 287.158 693.224C285.118 693.224 283.498 693.836 282.298 695.06C281.122 696.26 280.534 697.928 280.534 700.064V710H277.978V691.064H280.426V694.556C281.122 693.404 282.082 692.516 283.306 691.892C284.554 691.244 285.994 690.92 287.626 690.92ZM312.313 708.848C311.833 709.28 311.233 709.616 310.513 709.856C309.817 710.072 309.085 710.18 308.317 710.18C306.541 710.18 305.173 709.7 304.213 708.74C303.253 707.78 302.773 706.424 302.773 704.672V693.224H299.389V691.064H302.773V686.924H305.329V691.064H311.089V693.224H305.329V704.528C305.329 705.656 305.605 706.52 306.157 707.12C306.733 707.696 307.549 707.984 308.605 707.984C309.133 707.984 309.637 707.9 310.117 707.732C310.621 707.564 311.053 707.324 311.413 707.012L312.313 708.848ZM315.211 699.128H324.643V701.36H315.211V699.128ZM348.721 707.696V710H330.901V684.8H348.181V687.104H333.565V696.068H346.597V698.336H333.565V707.696H348.721ZM364.091 690.92C366.467 690.92 368.351 691.616 369.743 693.008C371.159 694.376 371.867 696.38 371.867 699.02V710H369.311V699.272C369.311 697.304 368.819 695.804 367.835 694.772C366.851 693.74 365.447 693.224 363.623 693.224C361.583 693.224 359.963 693.836 358.763 695.06C357.587 696.26 356.999 697.928 356.999 700.064V710H354.443V691.064H356.891V694.556C357.587 693.404 358.547 692.516 359.771 691.892C361.019 691.244 362.459 690.92 364.091 690.92ZM396.157 683.288V710H393.709V706.256C392.941 707.528 391.921 708.5 390.649 709.172C389.401 709.844 387.985 710.18 386.401 710.18C384.625 710.18 383.017 709.772 381.577 708.956C380.137 708.14 379.009 707 378.193 705.536C377.377 704.072 376.969 702.404 376.969 700.532C376.969 698.66 377.377 696.992 378.193 695.528C379.009 694.064 380.137 692.936 381.577 692.144C383.017 691.328 384.625 690.92 386.401 690.92C387.937 690.92 389.317 691.244 390.541 691.892C391.789 692.516 392.809 693.44 393.601 694.664V683.288H396.157ZM386.617 707.912C387.937 707.912 389.125 707.612 390.181 707.012C391.261 706.388 392.101 705.512 392.701 704.384C393.325 703.256 393.637 701.972 393.637 700.532C393.637 699.092 393.325 697.808 392.701 696.68C392.101 695.552 391.261 694.688 390.181 694.088C389.125 693.464 387.937 693.152 386.617 693.152C385.273 693.152 384.061 693.464 382.981 694.088C381.925 694.688 381.085 695.552 380.461 696.68C379.861 697.808 379.561 699.092 379.561 700.532C379.561 701.972 379.861 703.256 380.461 704.384C381.085 705.512 381.925 706.388 382.981 707.012C384.061 707.612 385.273 707.912 386.617 707.912Z" fill="#EFEFEF"/>
<path d="M937.104 622.8H947.364C950.028 622.8 952.38 623.34 954.42 624.42C956.46 625.476 958.044 626.964 959.172 628.884C960.3 630.78 960.864 632.952 960.864 635.4C960.864 637.848 960.3 640.032 959.172 641.952C958.044 643.848 956.46 645.336 954.42 646.416C952.38 647.472 950.028 648 947.364 648H937.104V622.8ZM947.22 645.696C949.428 645.696 951.36 645.264 953.016 644.4C954.672 643.512 955.956 642.3 956.868 640.764C957.78 639.204 958.236 637.416 958.236 635.4C958.236 633.384 957.78 631.608 956.868 630.072C955.956 628.512 954.672 627.3 953.016 626.436C951.36 625.548 949.428 625.104 947.22 625.104H939.768V645.696H947.22ZM982.794 639.324H966.954C967.098 641.292 967.854 642.888 969.222 644.112C970.59 645.312 972.318 645.912 974.406 645.912C975.582 645.912 976.662 645.708 977.646 645.3C978.63 644.868 979.482 644.244 980.202 643.428L981.642 645.084C980.802 646.092 979.746 646.86 978.474 647.388C977.226 647.916 975.846 648.18 974.334 648.18C972.39 648.18 970.662 647.772 969.15 646.956C967.662 646.116 966.498 644.964 965.658 643.5C964.818 642.036 964.398 640.38 964.398 638.532C964.398 636.684 964.794 635.028 965.586 633.564C966.402 632.1 967.506 630.96 968.898 630.144C970.314 629.328 971.898 628.92 973.65 628.92C975.402 628.92 976.974 629.328 978.366 630.144C979.758 630.96 980.85 632.1 981.642 633.564C982.434 635.004 982.83 636.66 982.83 638.532L982.794 639.324ZM973.65 631.116C971.826 631.116 970.29 631.704 969.042 632.88C967.818 634.032 967.122 635.544 966.954 637.416H980.382C980.214 635.544 979.506 634.032 978.258 632.88C977.034 631.704 975.498 631.116 973.65 631.116ZM976.242 621.648H979.662L973.83 626.112H971.31L976.242 621.648ZM1003.59 629.064L995.169 648H992.541L984.153 629.064H986.817L993.909 645.192L1001.07 629.064H1003.59ZM1023.15 639.324H1007.31C1007.46 641.292 1008.21 642.888 1009.58 644.112C1010.95 645.312 1012.68 645.912 1014.77 645.912C1015.94 645.912 1017.02 645.708 1018.01 645.3C1018.99 644.868 1019.84 644.244 1020.56 643.428L1022 645.084C1021.16 646.092 1020.11 646.86 1018.83 647.388C1017.59 647.916 1016.21 648.18 1014.69 648.18C1012.75 648.18 1011.02 647.772 1009.51 646.956C1008.02 646.116 1006.86 644.964 1006.02 643.5C1005.18 642.036 1004.76 640.38 1004.76 638.532C1004.76 636.684 1005.15 635.028 1005.95 633.564C1006.76 632.1 1007.87 630.96 1009.26 630.144C1010.67 629.328 1012.26 628.92 1014.01 628.92C1015.76 628.92 1017.33 629.328 1018.73 630.144C1020.12 630.96 1021.21 632.1 1022 633.564C1022.79 635.004 1023.19 636.66 1023.19 638.532L1023.15 639.324ZM1014.01 631.116C1012.19 631.116 1010.65 631.704 1009.4 632.88C1008.18 634.032 1007.48 635.544 1007.31 637.416H1020.74C1020.57 635.544 1019.87 634.032 1018.62 632.88C1017.39 631.704 1015.86 631.116 1014.01 631.116ZM1028.39 621.288H1030.95V648H1028.39V621.288ZM1045.8 648.18C1043.98 648.18 1042.33 647.772 1040.87 646.956C1039.4 646.116 1038.25 644.964 1037.41 643.5C1036.57 642.036 1036.15 640.38 1036.15 638.532C1036.15 636.684 1036.57 635.028 1037.41 633.564C1038.25 632.1 1039.4 630.96 1040.87 630.144C1042.33 629.328 1043.98 628.92 1045.8 628.92C1047.62 628.92 1049.27 629.328 1050.73 630.144C1052.2 630.96 1053.34 632.1 1054.15 633.564C1054.99 635.028 1055.41 636.684 1055.41 638.532C1055.41 640.38 1054.99 642.036 1054.15 643.5C1053.34 644.964 1052.2 646.116 1050.73 646.956C1049.27 647.772 1047.62 648.18 1045.8 648.18ZM1045.8 645.912C1047.14 645.912 1048.34 645.612 1049.4 645.012C1050.48 644.388 1051.32 643.512 1051.92 642.384C1052.52 641.256 1052.82 639.972 1052.82 638.532C1052.82 637.092 1052.52 635.808 1051.92 634.68C1051.32 633.552 1050.48 632.688 1049.4 632.088C1048.34 631.464 1047.14 631.152 1045.8 631.152C1044.46 631.152 1043.24 631.464 1042.16 632.088C1041.11 632.688 1040.27 633.552 1039.64 634.68C1039.04 635.808 1038.74 637.092 1038.74 638.532C1038.74 639.972 1039.04 641.256 1039.64 642.384C1040.27 643.512 1041.11 644.388 1042.16 645.012C1043.24 645.612 1044.46 645.912 1045.8 645.912ZM1070.39 628.92C1072.16 628.92 1073.77 629.328 1075.21 630.144C1076.65 630.936 1077.78 632.064 1078.59 633.528C1079.41 634.992 1079.82 636.66 1079.82 638.532C1079.82 640.428 1079.41 642.108 1078.59 643.572C1077.78 645.036 1076.65 646.176 1075.21 646.992C1073.79 647.784 1072.19 648.18 1070.39 648.18C1068.85 648.18 1067.46 647.868 1066.21 647.244C1064.99 646.596 1063.98 645.66 1063.19 644.436V654.984H1060.63V629.064H1063.08V632.808C1063.85 631.56 1064.85 630.6 1066.1 629.928C1067.37 629.256 1068.8 628.92 1070.39 628.92ZM1070.21 645.912C1071.53 645.912 1072.73 645.612 1073.81 645.012C1074.89 644.388 1075.73 643.512 1076.33 642.384C1076.95 641.256 1077.26 639.972 1077.26 638.532C1077.26 637.092 1076.95 635.82 1076.33 634.716C1075.73 633.588 1074.89 632.712 1073.81 632.088C1072.73 631.464 1071.53 631.152 1070.21 631.152C1068.86 631.152 1067.65 631.464 1066.57 632.088C1065.51 632.712 1064.67 633.588 1064.05 634.716C1063.45 635.82 1063.15 637.092 1063.15 638.532C1063.15 639.972 1063.45 641.256 1064.05 642.384C1064.67 643.512 1065.51 644.388 1066.57 645.012C1067.65 645.612 1068.86 645.912 1070.21 645.912ZM1094.78 628.92C1096.56 628.92 1098.17 629.328 1099.61 630.144C1101.05 630.936 1102.18 632.064 1102.99 633.528C1103.81 634.992 1104.22 636.66 1104.22 638.532C1104.22 640.428 1103.81 642.108 1102.99 643.572C1102.18 645.036 1101.05 646.176 1099.61 646.992C1098.19 647.784 1096.58 648.18 1094.78 648.18C1093.25 648.18 1091.86 647.868 1090.61 647.244C1089.38 646.596 1088.38 645.66 1087.58 644.436V654.984H1085.03V629.064H1087.48V632.808C1088.24 631.56 1089.25 630.6 1090.5 629.928C1091.77 629.256 1093.2 628.92 1094.78 628.92ZM1094.6 645.912C1095.92 645.912 1097.12 645.612 1098.2 645.012C1099.28 644.388 1100.12 643.512 1100.72 642.384C1101.35 641.256 1101.66 639.972 1101.66 638.532C1101.66 637.092 1101.35 635.82 1100.72 634.716C1100.12 633.588 1099.28 632.712 1098.2 632.088C1097.12 631.464 1095.92 631.152 1094.6 631.152C1093.26 631.152 1092.05 631.464 1090.97 632.088C1089.91 632.712 1089.07 633.588 1088.45 634.716C1087.85 635.82 1087.55 637.092 1087.55 638.532C1087.55 639.972 1087.85 641.256 1088.45 642.384C1089.07 643.512 1089.91 644.388 1090.97 645.012C1092.05 645.612 1093.26 645.912 1094.6 645.912ZM1125.92 639.324H1110.08C1110.22 641.292 1110.98 642.888 1112.34 644.112C1113.71 645.312 1115.44 645.912 1117.53 645.912C1118.7 645.912 1119.78 645.708 1120.77 645.3C1121.75 644.868 1122.6 644.244 1123.32 643.428L1124.76 645.084C1123.92 646.092 1122.87 646.86 1121.6 647.388C1120.35 647.916 1118.97 648.18 1117.46 648.18C1115.51 648.18 1113.78 647.772 1112.27 646.956C1110.78 646.116 1109.62 644.964 1108.78 643.5C1107.94 642.036 1107.52 640.38 1107.52 638.532C1107.52 636.684 1107.92 635.028 1108.71 633.564C1109.52 632.1 1110.63 630.96 1112.02 630.144C1113.44 629.328 1115.02 628.92 1116.77 628.92C1118.52 628.92 1120.1 629.328 1121.49 630.144C1122.88 630.96 1123.97 632.1 1124.76 633.564C1125.56 635.004 1125.95 636.66 1125.95 638.532L1125.92 639.324ZM1116.77 631.116C1114.95 631.116 1113.41 631.704 1112.16 632.88C1110.94 634.032 1110.24 635.544 1110.08 637.416H1123.5C1123.34 635.544 1122.63 634.032 1121.38 632.88C1120.16 631.704 1118.62 631.116 1116.77 631.116ZM1148.22 629.064V648H1145.77V644.544C1145.1 645.696 1144.17 646.596 1143 647.244C1141.82 647.868 1140.48 648.18 1138.97 648.18C1136.49 648.18 1134.54 647.496 1133.1 646.128C1131.68 644.736 1130.97 642.708 1130.97 640.044V629.064H1133.53V639.792C1133.53 641.784 1134.02 643.296 1135.01 644.328C1135.99 645.36 1137.39 645.876 1139.22 645.876C1141.21 645.876 1142.78 645.276 1143.93 644.076C1145.09 642.852 1145.66 641.16 1145.66 639V629.064H1148.22ZM1157.82 632.772C1158.42 631.5 1159.31 630.54 1160.49 629.892C1161.69 629.244 1163.16 628.92 1164.92 628.92V631.404L1164.3 631.368C1162.31 631.368 1160.75 631.98 1159.62 633.204C1158.5 634.428 1157.93 636.144 1157.93 638.352V648H1155.38V629.064H1157.82V632.772ZM949.19 669.104V679.004H962.222V681.308H949.19V692H946.526V666.8H963.806V669.104H949.19ZM985.198 673.064V692H982.75V688.544C982.078 689.696 981.154 690.596 979.978 691.244C978.802 691.868 977.458 692.18 975.946 692.18C973.474 692.18 971.518 691.496 970.078 690.128C968.662 688.736 967.954 686.708 967.954 684.044V673.064H970.51V683.792C970.51 685.784 971.002 687.296 971.986 688.328C972.97 689.36 974.374 689.876 976.198 689.876C978.19 689.876 979.762 689.276 980.914 688.076C982.066 686.852 982.642 685.16 982.642 683V673.064H985.198ZM992.357 665.288H994.913V692H992.357V665.288ZM1002.02 665.288H1004.58V692H1002.02V665.288ZM1028.6 692.216C1026.73 692.216 1024.93 691.916 1023.2 691.316C1021.5 690.716 1020.18 689.924 1019.24 688.94L1020.29 686.888C1021.2 687.8 1022.41 688.544 1023.92 689.12C1025.43 689.672 1026.99 689.948 1028.6 689.948C1030.86 689.948 1032.55 689.54 1033.68 688.724C1034.81 687.884 1035.37 686.804 1035.37 685.484C1035.37 684.476 1035.06 683.672 1034.43 683.072C1033.83 682.472 1033.09 682.016 1032.2 681.704C1031.31 681.368 1030.08 681.008 1028.49 680.624C1026.6 680.144 1025.09 679.688 1023.96 679.256C1022.83 678.8 1021.86 678.116 1021.04 677.204C1020.25 676.292 1019.85 675.056 1019.85 673.496C1019.85 672.224 1020.19 671.072 1020.86 670.04C1021.53 668.984 1022.57 668.144 1023.96 667.52C1025.35 666.896 1027.08 666.584 1029.14 666.584C1030.58 666.584 1031.99 666.788 1033.35 667.196C1034.75 667.58 1035.95 668.12 1036.95 668.816L1036.05 670.94C1035 670.244 1033.87 669.728 1032.67 669.392C1031.47 669.032 1030.29 668.852 1029.14 668.852C1026.93 668.852 1025.27 669.284 1024.14 670.148C1023.03 670.988 1022.48 672.08 1022.48 673.424C1022.48 674.432 1022.78 675.248 1023.38 675.872C1024.01 676.472 1024.77 676.94 1025.69 677.276C1026.62 677.588 1027.87 677.936 1029.43 678.32C1031.28 678.776 1032.77 679.232 1033.89 679.688C1035.05 680.12 1036.02 680.792 1036.81 681.704C1037.6 682.592 1038 683.804 1038 685.34C1038 686.612 1037.65 687.776 1036.95 688.832C1036.28 689.864 1035.24 690.692 1033.82 691.316C1032.41 691.916 1030.67 692.216 1028.6 692.216ZM1053.24 690.848C1052.76 691.28 1052.16 691.616 1051.44 691.856C1050.74 692.072 1050.01 692.18 1049.24 692.18C1047.46 692.18 1046.1 691.7 1045.14 690.74C1044.18 689.78 1043.7 688.424 1043.7 686.672V675.224H1040.31V673.064H1043.7V668.924H1046.25V673.064H1052.01V675.224H1046.25V686.528C1046.25 687.656 1046.53 688.52 1047.08 689.12C1047.66 689.696 1048.47 689.984 1049.53 689.984C1050.06 689.984 1050.56 689.9 1051.04 689.732C1051.54 689.564 1051.98 689.324 1052.34 689.012L1053.24 690.848ZM1064.51 672.92C1066.98 672.92 1068.88 673.544 1070.2 674.792C1071.52 676.016 1072.18 677.84 1072.18 680.264V692H1069.73V689.048C1069.16 690.032 1068.3 690.8 1067.18 691.352C1066.07 691.904 1064.75 692.18 1063.22 692.18C1061.1 692.18 1059.42 691.676 1058.18 690.668C1056.93 689.66 1056.3 688.328 1056.3 686.672C1056.3 685.064 1056.88 683.768 1058.03 682.784C1059.21 681.8 1061.07 681.308 1063.61 681.308H1069.62V680.156C1069.62 678.524 1069.17 677.288 1068.26 676.448C1067.34 675.584 1066.01 675.152 1064.26 675.152C1063.06 675.152 1061.91 675.356 1060.8 675.764C1059.7 676.148 1058.75 676.688 1057.96 677.384L1056.81 675.476C1057.77 674.66 1058.92 674.036 1060.26 673.604C1061.61 673.148 1063.02 672.92 1064.51 672.92ZM1063.61 690.164C1065.05 690.164 1066.29 689.84 1067.32 689.192C1068.35 688.52 1069.12 687.56 1069.62 686.312V683.216H1063.68C1060.44 683.216 1058.82 684.344 1058.82 686.6C1058.82 687.704 1059.24 688.58 1060.08 689.228C1060.92 689.852 1062.1 690.164 1063.61 690.164ZM1087.04 692.18C1085.17 692.18 1083.49 691.772 1082 690.956C1080.54 690.14 1079.38 689 1078.54 687.536C1077.7 686.048 1077.28 684.38 1077.28 682.532C1077.28 680.684 1077.7 679.028 1078.54 677.564C1079.38 676.1 1080.54 674.96 1082 674.144C1083.49 673.328 1085.17 672.92 1087.04 672.92C1088.67 672.92 1090.12 673.244 1091.4 673.892C1092.69 674.516 1093.71 675.44 1094.46 676.664L1092.55 677.96C1091.92 677.024 1091.13 676.328 1090.17 675.872C1089.21 675.392 1088.17 675.152 1087.04 675.152C1085.67 675.152 1084.44 675.464 1083.33 676.088C1082.25 676.688 1081.4 677.552 1080.78 678.68C1080.18 679.808 1079.88 681.092 1079.88 682.532C1079.88 683.996 1080.18 685.292 1080.78 686.42C1081.4 687.524 1082.25 688.388 1083.33 689.012C1084.44 689.612 1085.67 689.912 1087.04 689.912C1088.17 689.912 1089.21 689.684 1090.17 689.228C1091.13 688.772 1091.92 688.076 1092.55 687.14L1094.46 688.436C1093.71 689.66 1092.69 690.596 1091.4 691.244C1090.1 691.868 1088.65 692.18 1087.04 692.18ZM1106.22 682.496L1101.75 686.6V692H1099.2V665.288H1101.75V683.396L1113.06 673.064H1116.22L1108.12 680.804L1116.98 692H1113.85L1106.22 682.496Z" fill="#EFEFEF"/>
<path d="M931.104 230.8H941.364C944.028 230.8 946.38 231.34 948.42 232.42C950.46 233.476 952.044 234.964 953.172 236.884C954.3 238.78 954.864 240.952 954.864 243.4C954.864 245.848 954.3 248.032 953.172 249.952C952.044 251.848 950.46 253.336 948.42 254.416C946.38 255.472 944.028 256 941.364 256H931.104V230.8ZM941.22 253.696C943.428 253.696 945.36 253.264 947.016 252.4C948.672 251.512 949.956 250.3 950.868 248.764C951.78 247.204 952.236 245.416 952.236 243.4C952.236 241.384 951.78 239.608 950.868 238.072C949.956 236.512 948.672 235.3 947.016 234.436C945.36 233.548 943.428 233.104 941.22 233.104H933.768V253.696H941.22ZM976.794 247.324H960.954C961.098 249.292 961.854 250.888 963.222 252.112C964.59 253.312 966.318 253.912 968.406 253.912C969.582 253.912 970.662 253.708 971.646 253.3C972.63 252.868 973.482 252.244 974.202 251.428L975.642 253.084C974.802 254.092 973.746 254.86 972.474 255.388C971.226 255.916 969.846 256.18 968.334 256.18C966.39 256.18 964.662 255.772 963.15 254.956C961.662 254.116 960.498 252.964 959.658 251.5C958.818 250.036 958.398 248.38 958.398 246.532C958.398 244.684 958.794 243.028 959.586 241.564C960.402 240.1 961.506 238.96 962.898 238.144C964.314 237.328 965.898 236.92 967.65 236.92C969.402 236.92 970.974 237.328 972.366 238.144C973.758 238.96 974.85 240.1 975.642 241.564C976.434 243.004 976.83 244.66 976.83 246.532L976.794 247.324ZM967.65 239.116C965.826 239.116 964.29 239.704 963.042 240.88C961.818 242.032 961.122 243.544 960.954 245.416H974.382C974.214 243.544 973.506 242.032 972.258 240.88C971.034 239.704 969.498 239.116 967.65 239.116ZM970.242 229.648H973.662L967.83 234.112H965.31L970.242 229.648ZM997.593 237.064L989.169 256H986.541L978.153 237.064H980.817L987.909 253.192L995.073 237.064H997.593ZM1017.15 247.324H1001.31C1001.46 249.292 1002.21 250.888 1003.58 252.112C1004.95 253.312 1006.68 253.912 1008.77 253.912C1009.94 253.912 1011.02 253.708 1012.01 253.3C1012.99 252.868 1013.84 252.244 1014.56 251.428L1016 253.084C1015.16 254.092 1014.11 254.86 1012.83 255.388C1011.59 255.916 1010.21 256.18 1008.69 256.18C1006.75 256.18 1005.02 255.772 1003.51 254.956C1002.02 254.116 1000.86 252.964 1000.02 251.5C999.178 250.036 998.758 248.38 998.758 246.532C998.758 244.684 999.154 243.028 999.946 241.564C1000.76 240.1 1001.87 238.96 1003.26 238.144C1004.67 237.328 1006.26 236.92 1008.01 236.92C1009.76 236.92 1011.33 237.328 1012.73 238.144C1014.12 238.96 1015.21 240.1 1016 241.564C1016.79 243.004 1017.19 244.66 1017.19 246.532L1017.15 247.324ZM1008.01 239.116C1006.19 239.116 1004.65 239.704 1003.4 240.88C1002.18 242.032 1001.48 243.544 1001.31 245.416H1014.74C1014.57 243.544 1013.87 242.032 1012.62 240.88C1011.39 239.704 1009.86 239.116 1008.01 239.116ZM1022.39 229.288H1024.95V256H1022.39V229.288ZM1039.8 256.18C1037.98 256.18 1036.33 255.772 1034.87 254.956C1033.4 254.116 1032.25 252.964 1031.41 251.5C1030.57 250.036 1030.15 248.38 1030.15 246.532C1030.15 244.684 1030.57 243.028 1031.41 241.564C1032.25 240.1 1033.4 238.96 1034.87 238.144C1036.33 237.328 1037.98 236.92 1039.8 236.92C1041.62 236.92 1043.27 237.328 1044.73 238.144C1046.2 238.96 1047.34 240.1 1048.15 241.564C1048.99 243.028 1049.41 244.684 1049.41 246.532C1049.41 248.38 1048.99 250.036 1048.15 251.5C1047.34 252.964 1046.2 254.116 1044.73 254.956C1043.27 255.772 1041.62 256.18 1039.8 256.18ZM1039.8 253.912C1041.14 253.912 1042.34 253.612 1043.4 253.012C1044.48 252.388 1045.32 251.512 1045.92 250.384C1046.52 249.256 1046.82 247.972 1046.82 246.532C1046.82 245.092 1046.52 243.808 1045.92 242.68C1045.32 241.552 1044.48 240.688 1043.4 240.088C1042.34 239.464 1041.14 239.152 1039.8 239.152C1038.46 239.152 1037.24 239.464 1036.16 240.088C1035.11 240.688 1034.27 241.552 1033.64 242.68C1033.04 243.808 1032.74 245.092 1032.74 246.532C1032.74 247.972 1033.04 249.256 1033.64 250.384C1034.27 251.512 1035.11 252.388 1036.16 253.012C1037.24 253.612 1038.46 253.912 1039.8 253.912ZM1064.39 236.92C1066.16 236.92 1067.77 237.328 1069.21 238.144C1070.65 238.936 1071.78 240.064 1072.59 241.528C1073.41 242.992 1073.82 244.66 1073.82 246.532C1073.82 248.428 1073.41 250.108 1072.59 251.572C1071.78 253.036 1070.65 254.176 1069.21 254.992C1067.79 255.784 1066.19 256.18 1064.39 256.18C1062.85 256.18 1061.46 255.868 1060.21 255.244C1058.99 254.596 1057.98 253.66 1057.19 252.436V262.984H1054.63V237.064H1057.08V240.808C1057.85 239.56 1058.85 238.6 1060.1 237.928C1061.37 237.256 1062.8 236.92 1064.39 236.92ZM1064.21 253.912C1065.53 253.912 1066.73 253.612 1067.81 253.012C1068.89 252.388 1069.73 251.512 1070.33 250.384C1070.95 249.256 1071.26 247.972 1071.26 246.532C1071.26 245.092 1070.95 243.82 1070.33 242.716C1069.73 241.588 1068.89 240.712 1067.81 240.088C1066.73 239.464 1065.53 239.152 1064.21 239.152C1062.86 239.152 1061.65 239.464 1060.57 240.088C1059.51 240.712 1058.67 241.588 1058.05 242.716C1057.45 243.82 1057.15 245.092 1057.15 246.532C1057.15 247.972 1057.45 249.256 1058.05 250.384C1058.67 251.512 1059.51 252.388 1060.57 253.012C1061.65 253.612 1062.86 253.912 1064.21 253.912ZM1088.78 236.92C1090.56 236.92 1092.17 237.328 1093.61 238.144C1095.05 238.936 1096.18 240.064 1096.99 241.528C1097.81 242.992 1098.22 244.66 1098.22 246.532C1098.22 248.428 1097.81 250.108 1096.99 251.572C1096.18 253.036 1095.05 254.176 1093.61 254.992C1092.19 255.784 1090.58 256.18 1088.78 256.18C1087.25 256.18 1085.86 255.868 1084.61 255.244C1083.38 254.596 1082.38 253.66 1081.58 252.436V262.984H1079.03V237.064H1081.48V240.808C1082.24 239.56 1083.25 238.6 1084.5 237.928C1085.77 237.256 1087.2 236.92 1088.78 236.92ZM1088.6 253.912C1089.92 253.912 1091.12 253.612 1092.2 253.012C1093.28 252.388 1094.12 251.512 1094.72 250.384C1095.35 249.256 1095.66 247.972 1095.66 246.532C1095.66 245.092 1095.35 243.82 1094.72 242.716C1094.12 241.588 1093.28 240.712 1092.2 240.088C1091.12 239.464 1089.92 239.152 1088.6 239.152C1087.26 239.152 1086.05 239.464 1084.97 240.088C1083.91 240.712 1083.07 241.588 1082.45 242.716C1081.85 243.82 1081.55 245.092 1081.55 246.532C1081.55 247.972 1081.85 249.256 1082.45 250.384C1083.07 251.512 1083.91 252.388 1084.97 253.012C1086.05 253.612 1087.26 253.912 1088.6 253.912ZM1119.92 247.324H1104.08C1104.22 249.292 1104.98 250.888 1106.34 252.112C1107.71 253.312 1109.44 253.912 1111.53 253.912C1112.7 253.912 1113.78 253.708 1114.77 253.3C1115.75 252.868 1116.6 252.244 1117.32 251.428L1118.76 253.084C1117.92 254.092 1116.87 254.86 1115.6 255.388C1114.35 255.916 1112.97 256.18 1111.46 256.18C1109.51 256.18 1107.78 255.772 1106.27 254.956C1104.78 254.116 1103.62 252.964 1102.78 251.5C1101.94 250.036 1101.52 248.38 1101.52 246.532C1101.52 244.684 1101.92 243.028 1102.71 241.564C1103.52 240.1 1104.63 238.96 1106.02 238.144C1107.44 237.328 1109.02 236.92 1110.77 236.92C1112.52 236.92 1114.1 237.328 1115.49 238.144C1116.88 238.96 1117.97 240.1 1118.76 241.564C1119.56 243.004 1119.95 244.66 1119.95 246.532L1119.92 247.324ZM1110.77 239.116C1108.95 239.116 1107.41 239.704 1106.16 240.88C1104.94 242.032 1104.24 243.544 1104.08 245.416H1117.5C1117.34 243.544 1116.63 242.032 1115.38 240.88C1114.16 239.704 1112.62 239.116 1110.77 239.116ZM1142.22 237.064V256H1139.77V252.544C1139.1 253.696 1138.17 254.596 1137 255.244C1135.82 255.868 1134.48 256.18 1132.97 256.18C1130.49 256.18 1128.54 255.496 1127.1 254.128C1125.68 252.736 1124.97 250.708 1124.97 248.044V237.064H1127.53V247.792C1127.53 249.784 1128.02 251.296 1129.01 252.328C1129.99 253.36 1131.39 253.876 1133.22 253.876C1135.21 253.876 1136.78 253.276 1137.93 252.076C1139.09 250.852 1139.66 249.16 1139.66 247V237.064H1142.22ZM1151.82 240.772C1152.42 239.5 1153.31 238.54 1154.49 237.892C1155.69 237.244 1157.16 236.92 1158.92 236.92V239.404L1158.3 239.368C1156.31 239.368 1154.75 239.98 1153.62 241.204C1152.5 242.428 1151.93 244.144 1151.93 246.352V256H1149.38V237.064H1151.82V240.772ZM946.98 287.004C948.636 287.364 949.908 288.084 950.796 289.164C951.708 290.22 952.164 291.588 952.164 293.268C952.164 295.428 951.36 297.096 949.752 298.272C948.168 299.424 945.816 300 942.696 300H931.104V274.8H941.976C944.784 274.8 946.956 275.364 948.492 276.492C950.052 277.62 950.832 279.216 950.832 281.28C950.832 282.672 950.484 283.86 949.788 284.844C949.116 285.804 948.18 286.524 946.98 287.004ZM933.768 276.996V286.14H941.796C943.836 286.14 945.408 285.756 946.512 284.988C947.616 284.196 948.168 283.056 948.168 281.568C948.168 280.08 947.616 278.952 946.512 278.184C945.408 277.392 943.836 276.996 941.796 276.996H933.768ZM942.66 297.804C944.916 297.804 946.62 297.42 947.772 296.652C948.924 295.884 949.5 294.684 949.5 293.052C949.5 289.908 947.22 288.336 942.66 288.336H933.768V297.804H942.66ZM964.329 280.92C966.801 280.92 968.697 281.544 970.017 282.792C971.337 284.016 971.997 285.84 971.997 288.264V300H969.549V297.048C968.973 298.032 968.121 298.8 966.993 299.352C965.889 299.904 964.569 300.18 963.033 300.18C960.921 300.18 959.241 299.676 957.993 298.668C956.745 297.66 956.121 296.328 956.121 294.672C956.121 293.064 956.697 291.768 957.849 290.784C959.025 289.8 960.885 289.308 963.429 289.308H969.441V288.156C969.441 286.524 968.985 285.288 968.073 284.448C967.161 283.584 965.829 283.152 964.077 283.152C962.877 283.152 961.725 283.356 960.621 283.764C959.517 284.148 958.569 284.688 957.777 285.384L956.625 283.476C957.585 282.66 958.737 282.036 960.081 281.604C961.425 281.148 962.841 280.92 964.329 280.92ZM963.429 298.164C964.869 298.164 966.105 297.84 967.137 297.192C968.169 296.52 968.937 295.56 969.441 294.312V291.216H963.501C960.261 291.216 958.641 292.344 958.641 294.6C958.641 295.704 959.061 296.58 959.901 297.228C960.741 297.852 961.917 298.164 963.429 298.164ZM986.857 300.18C984.985 300.18 983.305 299.772 981.817 298.956C980.353 298.14 979.201 297 978.361 295.536C977.521 294.048 977.101 292.38 977.101 290.532C977.101 288.684 977.521 287.028 978.361 285.564C979.201 284.1 980.353 282.96 981.817 282.144C983.305 281.328 984.985 280.92 986.857 280.92C988.489 280.92 989.941 281.244 991.213 281.892C992.509 282.516 993.529 283.44 994.273 284.664L992.365 285.96C991.741 285.024 990.949 284.328 989.989 283.872C989.029 283.392 987.985 283.152 986.857 283.152C985.489 283.152 984.253 283.464 983.149 284.088C982.069 284.688 981.217 285.552 980.593 286.68C979.993 287.808 979.693 289.092 979.693 290.532C979.693 291.996 979.993 293.292 980.593 294.42C981.217 295.524 982.069 296.388 983.149 297.012C984.253 297.612 985.489 297.912 986.857 297.912C987.985 297.912 989.029 297.684 989.989 297.228C990.949 296.772 991.741 296.076 992.365 295.14L994.273 296.436C993.529 297.66 992.509 298.596 991.213 299.244C989.917 299.868 988.465 300.18 986.857 300.18ZM1006.03 290.496L1001.57 294.6V300H999.013V273.288H1001.57V291.396L1012.87 281.064H1016.04L1007.94 288.804L1016.8 300H1013.67L1006.03 290.496ZM1018.42 289.128H1027.85V291.36H1018.42V289.128ZM1050.41 291.324H1034.57C1034.72 293.292 1035.47 294.888 1036.84 296.112C1038.21 297.312 1039.94 297.912 1042.02 297.912C1043.2 297.912 1044.28 297.708 1045.26 297.3C1046.25 296.868 1047.1 296.244 1047.82 295.428L1049.26 297.084C1048.42 298.092 1047.36 298.86 1046.09 299.388C1044.84 299.916 1043.46 300.18 1041.95 300.18C1040.01 300.18 1038.28 299.772 1036.77 298.956C1035.28 298.116 1034.12 296.964 1033.28 295.5C1032.44 294.036 1032.02 292.38 1032.02 290.532C1032.02 288.684 1032.41 287.028 1033.2 285.564C1034.02 284.1 1035.12 282.96 1036.52 282.144C1037.93 281.328 1039.52 280.92 1041.27 280.92C1043.02 280.92 1044.59 281.328 1045.98 282.144C1047.38 282.96 1048.47 284.1 1049.26 285.564C1050.05 287.004 1050.45 288.66 1050.45 290.532L1050.41 291.324ZM1041.27 283.116C1039.44 283.116 1037.91 283.704 1036.66 284.88C1035.44 286.032 1034.74 287.544 1034.57 289.416H1048C1047.83 287.544 1047.12 286.032 1045.88 284.88C1044.65 283.704 1043.12 283.116 1041.27 283.116ZM1065.3 280.92C1067.67 280.92 1069.56 281.616 1070.95 283.008C1072.37 284.376 1073.07 286.38 1073.07 289.02V300H1070.52V289.272C1070.52 287.304 1070.03 285.804 1069.04 284.772C1068.06 283.74 1066.65 283.224 1064.83 283.224C1062.79 283.224 1061.17 283.836 1059.97 285.06C1058.79 286.26 1058.21 287.928 1058.21 290.064V300H1055.65V281.064H1058.1V284.556C1058.79 283.404 1059.75 282.516 1060.98 281.892C1062.23 281.244 1063.67 280.92 1065.3 280.92ZM1097.36 273.288V300H1094.92V296.256C1094.15 297.528 1093.13 298.5 1091.86 299.172C1090.61 299.844 1089.19 300.18 1087.61 300.18C1085.83 300.18 1084.22 299.772 1082.78 298.956C1081.34 298.14 1080.22 297 1079.4 295.536C1078.58 294.072 1078.18 292.404 1078.18 290.532C1078.18 288.66 1078.58 286.992 1079.4 285.528C1080.22 284.064 1081.34 282.936 1082.78 282.144C1084.22 281.328 1085.83 280.92 1087.61 280.92C1089.14 280.92 1090.52 281.244 1091.75 281.892C1093 282.516 1094.02 283.44 1094.81 284.664V273.288H1097.36ZM1087.82 297.912C1089.14 297.912 1090.33 297.612 1091.39 297.012C1092.47 296.388 1093.31 295.512 1093.91 294.384C1094.53 293.256 1094.84 291.972 1094.84 290.532C1094.84 289.092 1094.53 287.808 1093.91 286.68C1093.31 285.552 1092.47 284.688 1091.39 284.088C1090.33 283.464 1089.14 283.152 1087.82 283.152C1086.48 283.152 1085.27 283.464 1084.19 284.088C1083.13 284.688 1082.29 285.552 1081.67 286.68C1081.07 287.808 1080.77 289.092 1080.77 290.532C1080.77 291.972 1081.07 293.256 1081.67 294.384C1082.29 295.512 1083.13 296.388 1084.19 297.012C1085.27 297.612 1086.48 297.912 1087.82 297.912Z" fill="#EFEFEF"/>
<path d="M1249.1 466.8H1259.36C1262.03 466.8 1264.38 467.34 1266.42 468.42C1268.46 469.476 1270.04 470.964 1271.17 472.884C1272.3 474.78 1272.86 476.952 1272.86 479.4C1272.86 481.848 1272.3 484.032 1271.17 485.952C1270.04 487.848 1268.46 489.336 1266.42 490.416C1264.38 491.472 1262.03 492 1259.36 492H1249.1V466.8ZM1259.22 489.696C1261.43 489.696 1263.36 489.264 1265.02 488.4C1266.67 487.512 1267.96 486.3 1268.87 484.764C1269.78 483.204 1270.24 481.416 1270.24 479.4C1270.24 477.384 1269.78 475.608 1268.87 474.072C1267.96 472.512 1266.67 471.3 1265.02 470.436C1263.36 469.548 1261.43 469.104 1259.22 469.104H1251.77V489.696H1259.22ZM1294.79 483.324H1278.95C1279.1 485.292 1279.85 486.888 1281.22 488.112C1282.59 489.312 1284.32 489.912 1286.41 489.912C1287.58 489.912 1288.66 489.708 1289.65 489.3C1290.63 488.868 1291.48 488.244 1292.2 487.428L1293.64 489.084C1292.8 490.092 1291.75 490.86 1290.47 491.388C1289.23 491.916 1287.85 492.18 1286.33 492.18C1284.39 492.18 1282.66 491.772 1281.15 490.956C1279.66 490.116 1278.5 488.964 1277.66 487.5C1276.82 486.036 1276.4 484.38 1276.4 482.532C1276.4 480.684 1276.79 479.028 1277.59 477.564C1278.4 476.1 1279.51 474.96 1280.9 474.144C1282.31 473.328 1283.9 472.92 1285.65 472.92C1287.4 472.92 1288.97 473.328 1290.37 474.144C1291.76 474.96 1292.85 476.1 1293.64 477.564C1294.43 479.004 1294.83 480.66 1294.83 482.532L1294.79 483.324ZM1285.65 475.116C1283.83 475.116 1282.29 475.704 1281.04 476.88C1279.82 478.032 1279.12 479.544 1278.95 481.416H1292.38C1292.21 479.544 1291.51 478.032 1290.26 476.88C1289.03 475.704 1287.5 475.116 1285.65 475.116ZM1288.24 465.648H1291.66L1285.83 470.112H1283.31L1288.24 465.648ZM1315.59 473.064L1307.17 492H1304.54L1296.15 473.064H1298.82L1305.91 489.192L1313.07 473.064H1315.59ZM1335.15 483.324H1319.31C1319.46 485.292 1320.21 486.888 1321.58 488.112C1322.95 489.312 1324.68 489.912 1326.77 489.912C1327.94 489.912 1329.02 489.708 1330.01 489.3C1330.99 488.868 1331.84 488.244 1332.56 487.428L1334 489.084C1333.16 490.092 1332.11 490.86 1330.83 491.388C1329.59 491.916 1328.21 492.18 1326.69 492.18C1324.75 492.18 1323.02 491.772 1321.51 490.956C1320.02 490.116 1318.86 488.964 1318.02 487.5C1317.18 486.036 1316.76 484.38 1316.76 482.532C1316.76 480.684 1317.15 479.028 1317.95 477.564C1318.76 476.1 1319.87 474.96 1321.26 474.144C1322.67 473.328 1324.26 472.92 1326.01 472.92C1327.76 472.92 1329.33 473.328 1330.73 474.144C1332.12 474.96 1333.21 476.1 1334 477.564C1334.79 479.004 1335.19 480.66 1335.19 482.532L1335.15 483.324ZM1326.01 475.116C1324.19 475.116 1322.65 475.704 1321.4 476.88C1320.18 478.032 1319.48 479.544 1319.31 481.416H1332.74C1332.57 479.544 1331.87 478.032 1330.62 476.88C1329.39 475.704 1327.86 475.116 1326.01 475.116ZM1340.39 465.288H1342.95V492H1340.39V465.288ZM1357.8 492.18C1355.98 492.18 1354.33 491.772 1352.87 490.956C1351.4 490.116 1350.25 488.964 1349.41 487.5C1348.57 486.036 1348.15 484.38 1348.15 482.532C1348.15 480.684 1348.57 479.028 1349.41 477.564C1350.25 476.1 1351.4 474.96 1352.87 474.144C1354.33 473.328 1355.98 472.92 1357.8 472.92C1359.62 472.92 1361.27 473.328 1362.73 474.144C1364.2 474.96 1365.34 476.1 1366.15 477.564C1366.99 479.028 1367.41 480.684 1367.41 482.532C1367.41 484.38 1366.99 486.036 1366.15 487.5C1365.34 488.964 1364.2 490.116 1362.73 490.956C1361.27 491.772 1359.62 492.18 1357.8 492.18ZM1357.8 489.912C1359.14 489.912 1360.34 489.612 1361.4 489.012C1362.48 488.388 1363.32 487.512 1363.92 486.384C1364.52 485.256 1364.82 483.972 1364.82 482.532C1364.82 481.092 1364.52 479.808 1363.92 478.68C1363.32 477.552 1362.48 476.688 1361.4 476.088C1360.34 475.464 1359.14 475.152 1357.8 475.152C1356.46 475.152 1355.24 475.464 1354.16 476.088C1353.11 476.688 1352.27 477.552 1351.64 478.68C1351.04 479.808 1350.74 481.092 1350.74 482.532C1350.74 483.972 1351.04 485.256 1351.64 486.384C1352.27 487.512 1353.11 488.388 1354.16 489.012C1355.24 489.612 1356.46 489.912 1357.8 489.912ZM1382.39 472.92C1384.16 472.92 1385.77 473.328 1387.21 474.144C1388.65 474.936 1389.78 476.064 1390.59 477.528C1391.41 478.992 1391.82 480.66 1391.82 482.532C1391.82 484.428 1391.41 486.108 1390.59 487.572C1389.78 489.036 1388.65 490.176 1387.21 490.992C1385.79 491.784 1384.19 492.18 1382.39 492.18C1380.85 492.18 1379.46 491.868 1378.21 491.244C1376.99 490.596 1375.98 489.66 1375.19 488.436V498.984H1372.63V473.064H1375.08V476.808C1375.85 475.56 1376.85 474.6 1378.1 473.928C1379.37 473.256 1380.8 472.92 1382.39 472.92ZM1382.21 489.912C1383.53 489.912 1384.73 489.612 1385.81 489.012C1386.89 488.388 1387.73 487.512 1388.33 486.384C1388.95 485.256 1389.26 483.972 1389.26 482.532C1389.26 481.092 1388.95 479.82 1388.33 478.716C1387.73 477.588 1386.89 476.712 1385.81 476.088C1384.73 475.464 1383.53 475.152 1382.21 475.152C1380.86 475.152 1379.65 475.464 1378.57 476.088C1377.51 476.712 1376.67 477.588 1376.05 478.716C1375.45 479.82 1375.15 481.092 1375.15 482.532C1375.15 483.972 1375.45 485.256 1376.05 486.384C1376.67 487.512 1377.51 488.388 1378.57 489.012C1379.65 489.612 1380.86 489.912 1382.21 489.912ZM1406.78 472.92C1408.56 472.92 1410.17 473.328 1411.61 474.144C1413.05 474.936 1414.18 476.064 1414.99 477.528C1415.81 478.992 1416.22 480.66 1416.22 482.532C1416.22 484.428 1415.81 486.108 1414.99 487.572C1414.18 489.036 1413.05 490.176 1411.61 490.992C1410.19 491.784 1408.58 492.18 1406.78 492.18C1405.25 492.18 1403.86 491.868 1402.61 491.244C1401.38 490.596 1400.38 489.66 1399.58 488.436V498.984H1397.03V473.064H1399.48V476.808C1400.24 475.56 1401.25 474.6 1402.5 473.928C1403.77 473.256 1405.2 472.92 1406.78 472.92ZM1406.6 489.912C1407.92 489.912 1409.12 489.612 1410.2 489.012C1411.28 488.388 1412.12 487.512 1412.72 486.384C1413.35 485.256 1413.66 483.972 1413.66 482.532C1413.66 481.092 1413.35 479.82 1412.72 478.716C1412.12 477.588 1411.28 476.712 1410.2 476.088C1409.12 475.464 1407.92 475.152 1406.6 475.152C1405.26 475.152 1404.05 475.464 1402.97 476.088C1401.91 476.712 1401.07 477.588 1400.45 478.716C1399.85 479.82 1399.55 481.092 1399.55 482.532C1399.55 483.972 1399.85 485.256 1400.45 486.384C1401.07 487.512 1401.91 488.388 1402.97 489.012C1404.05 489.612 1405.26 489.912 1406.6 489.912ZM1437.92 483.324H1422.08C1422.22 485.292 1422.98 486.888 1424.34 488.112C1425.71 489.312 1427.44 489.912 1429.53 489.912C1430.7 489.912 1431.78 489.708 1432.77 489.3C1433.75 488.868 1434.6 488.244 1435.32 487.428L1436.76 489.084C1435.92 490.092 1434.87 490.86 1433.6 491.388C1432.35 491.916 1430.97 492.18 1429.46 492.18C1427.51 492.18 1425.78 491.772 1424.27 490.956C1422.78 490.116 1421.62 488.964 1420.78 487.5C1419.94 486.036 1419.52 484.38 1419.52 482.532C1419.52 480.684 1419.92 479.028 1420.71 477.564C1421.52 476.1 1422.63 474.96 1424.02 474.144C1425.44 473.328 1427.02 472.92 1428.77 472.92C1430.52 472.92 1432.1 473.328 1433.49 474.144C1434.88 474.96 1435.97 476.1 1436.76 477.564C1437.56 479.004 1437.95 480.66 1437.95 482.532L1437.92 483.324ZM1428.77 475.116C1426.95 475.116 1425.41 475.704 1424.16 476.88C1422.94 478.032 1422.24 479.544 1422.08 481.416H1435.5C1435.34 479.544 1434.63 478.032 1433.38 476.88C1432.16 475.704 1430.62 475.116 1428.77 475.116ZM1460.22 473.064V492H1457.77V488.544C1457.1 489.696 1456.17 490.596 1455 491.244C1453.82 491.868 1452.48 492.18 1450.97 492.18C1448.49 492.18 1446.54 491.496 1445.1 490.128C1443.68 488.736 1442.97 486.708 1442.97 484.044V473.064H1445.53V483.792C1445.53 485.784 1446.02 487.296 1447.01 488.328C1447.99 489.36 1449.39 489.876 1451.22 489.876C1453.21 489.876 1454.78 489.276 1455.93 488.076C1457.09 486.852 1457.66 485.16 1457.66 483V473.064H1460.22ZM1469.82 476.772C1470.42 475.5 1471.31 474.54 1472.49 473.892C1473.69 473.244 1475.16 472.92 1476.92 472.92V475.404L1476.3 475.368C1474.31 475.368 1472.75 475.98 1471.62 477.204C1470.5 478.428 1469.93 480.144 1469.93 482.352V492H1467.38V473.064H1469.82V476.772ZM1293.12 510.8L1284.63 536H1281.82L1274.44 514.508L1267.02 536H1264.25L1255.75 510.8H1258.49L1265.76 532.472L1273.29 510.8H1275.77L1283.19 532.58L1290.57 510.8H1293.12ZM1312.51 527.324H1296.67C1296.82 529.292 1297.57 530.888 1298.94 532.112C1300.31 533.312 1302.04 533.912 1304.12 533.912C1305.3 533.912 1306.38 533.708 1307.36 533.3C1308.35 532.868 1309.2 532.244 1309.92 531.428L1311.36 533.084C1310.52 534.092 1309.46 534.86 1308.19 535.388C1306.94 535.916 1305.56 536.18 1304.05 536.18C1302.11 536.18 1300.38 535.772 1298.87 534.956C1297.38 534.116 1296.22 532.964 1295.38 531.5C1294.54 530.036 1294.12 528.38 1294.12 526.532C1294.12 524.684 1294.51 523.028 1295.3 521.564C1296.12 520.1 1297.22 518.96 1298.62 518.144C1300.03 517.328 1301.62 516.92 1303.37 516.92C1305.12 516.92 1306.69 517.328 1308.08 518.144C1309.48 518.96 1310.57 520.1 1311.36 521.564C1312.15 523.004 1312.55 524.66 1312.55 526.532L1312.51 527.324ZM1303.37 519.116C1301.54 519.116 1300.01 519.704 1298.76 520.88C1297.54 522.032 1296.84 523.544 1296.67 525.416H1310.1C1309.93 523.544 1309.22 522.032 1307.98 520.88C1306.75 519.704 1305.22 519.116 1303.37 519.116ZM1327.51 516.92C1329.28 516.92 1330.89 517.328 1332.33 518.144C1333.77 518.936 1334.9 520.064 1335.72 521.528C1336.53 522.992 1336.94 524.66 1336.94 526.532C1336.94 528.404 1336.53 530.072 1335.72 531.536C1334.9 533 1333.77 534.14 1332.33 534.956C1330.89 535.772 1329.28 536.18 1327.51 536.18C1325.92 536.18 1324.5 535.844 1323.22 535.172C1321.98 534.5 1320.97 533.528 1320.2 532.256V536H1317.75V509.288H1320.31V520.664C1321.1 519.44 1322.11 518.516 1323.33 517.892C1324.58 517.244 1325.97 516.92 1327.51 516.92ZM1327.33 533.912C1328.65 533.912 1329.85 533.612 1330.93 533.012C1332.01 532.388 1332.85 531.512 1333.45 530.384C1334.07 529.256 1334.38 527.972 1334.38 526.532C1334.38 525.092 1334.07 523.808 1333.45 522.68C1332.85 521.552 1332.01 520.688 1330.93 520.088C1329.85 519.464 1328.65 519.152 1327.33 519.152C1325.98 519.152 1324.77 519.464 1323.69 520.088C1322.64 520.688 1321.8 521.552 1321.17 522.68C1320.57 523.808 1320.27 525.092 1320.27 526.532C1320.27 527.972 1320.57 529.256 1321.17 530.384C1321.8 531.512 1322.64 532.388 1323.69 533.012C1324.77 533.612 1325.98 533.912 1327.33 533.912Z" fill="#EFEFEF"/>
</g>
<defs>
<linearGradient id="paint0_linear" x1="1023.14" y1="98.9995" x2="1023.14" y2="207.75" gradientUnits="userSpaceOnUse">
<stop stop-color="#B29FD8"/>
<stop offset="1" stop-color="#7B62A2"/>
</linearGradient>
<linearGradient id="paint1_linear" x1="1054.25" y1="99.4995" x2="1054.25" y2="207.75" gradientUnits="userSpaceOnUse">
<stop stop-color="#BCA8E0"/>
<stop offset="1" stop-color="#8668B2"/>
</linearGradient>
<linearGradient id="paint2_linear" x1="412.143" y1="215" x2="412.143" y2="323.75" gradientUnits="userSpaceOnUse">
<stop stop-color="#99ADD2"/>
<stop offset="1" stop-color="#506A92"/>
</linearGradient>
<linearGradient id="paint3_linear" x1="443.25" y1="215.5" x2="443.25" y2="323.75" gradientUnits="userSpaceOnUse">
<stop stop-color="#ABB7E1"/>
<stop offset="1" stop-color="#7B88BF"/>
</linearGradient>
<linearGradient id="paint4_linear" x1="1323.14" y1="345" x2="1323.14" y2="453.75" gradientUnits="userSpaceOnUse">
<stop stop-color="#91CC97"/>
<stop offset="1" stop-color="#569863"/>
</linearGradient>
<linearGradient id="paint5_linear" x1="1354.25" y1="345.5" x2="1354.25" y2="453.75" gradientUnits="userSpaceOnUse">
<stop stop-color="#ACE2B1"/>
<stop offset="1" stop-color="#7EC187"/>
</linearGradient>
<linearGradient id="paint6_linear" x1="1031.14" y1="482" x2="1031.14" y2="590.75" gradientUnits="userSpaceOnUse">
<stop stop-color="#D39E99"/>
<stop offset="1" stop-color="#915F4F"/>
</linearGradient>
<linearGradient id="paint7_linear" x1="1062.25" y1="482.5" x2="1062.25" y2="590.75" gradientUnits="userSpaceOnUse">
<stop stop-color="#BF9F7B"/>
<stop offset="1" stop-color="#DFB6A8"/>
</linearGradient>
<linearGradient id="paint8_linear" x1="313.143" y1="510" x2="313.143" y2="618.75" gradientUnits="userSpaceOnUse">
<stop stop-color="#D1CC98"/>
<stop offset="1" stop-color="#939051"/>
</linearGradient>
<linearGradient id="paint9_linear" x1="344.25" y1="510.5" x2="344.25" y2="618.75" gradientUnits="userSpaceOnUse">
<stop stop-color="#DEE2AC"/>
<stop offset="1" stop-color="#BABE79"/>
</linearGradient>
<clipPath id="clip0">
<rect width="1772" height="800" fill="white"/>
</clipPath>
</defs>
</svg>
