<svg width="1695" height="849" viewBox="0 0 1695 849" fill="none" xmlns="http://www.w3.org/2000/svg">
<path d="M38.2222 319.079C40.7743 319.295 42.6541 319.905 43.7606 320.267C44.8374 320.618 45.3134 320.761 46.1879 320.761C46.7768 320.761 47.4788 320.691 48.2641 320.562C49.8703 320.29 51.06 320.097 51.9524 319.945C53.6538 318.841 56.1881 317.464 61.0365 315.408C60.8878 315.272 60.7509 315.133 60.62 314.994C59.1387 314.762 57.6158 314.423 56.0215 313.979C53.2552 315.222 49.4895 316.456 44.2306 317.584C42.3567 317.985 40.8635 318.303 39.6856 318.559C39.1859 318.751 38.6981 318.923 38.2222 319.079ZM1443.78 849C1419.88 849 1410.43 844.321 1402.09 840.195C1399.09 838.706 1396.24 837.3 1392.54 836.007C1378.26 831.036 1375.15 827.676 1370 821.143C1368.64 819.428 1367.04 817.382 1364.75 814.835C1358.99 808.405 1358.29 805.815 1357.64 802.121C1357.2 799.623 1356.65 796.516 1352.31 788.799C1345.62 776.854 1304.23 763.787 1290.26 760.153L1288.73 759.755L1273.87 752.505L1243.85 747.856L1223.01 749.792C1215.45 750.495 1208.04 750.854 1201.01 750.854C1188.7 750.854 1181.45 749.753 1180.66 749.627L1179.96 749.517L1126.62 736.938L1100.84 723.872L1095.82 711.307V710.577C1095.82 710.577 1095.06 702.299 1078.5 689.379C1069.16 682.083 1066.4 682.083 1064.75 682.083C1061.85 682.083 1057.13 682.839 1051.15 683.791C1046.11 684.6 1039.82 685.605 1032.15 686.554C1029.63 686.869 1027.33 687.154 1025.35 687.399C1022.99 690.172 1017.99 692.35 1012.72 694.31C1004.83 697.242 1002.77 698.476 1001.27 699.371C996.435 702.25 993.562 703.231 971.36 708.043C959.611 710.59 948.986 711.884 939.771 711.884C923.828 711.884 916.035 708.067 913.346 706.355L898.069 697.839C887.866 692.148 884.428 686.351 884.118 681.682L869.341 679.029C864.16 682.869 853.529 691.631 834.837 710.511C820.381 725.119 813.825 730.641 802.243 730.641C796.918 730.641 793.028 729.215 790.19 728.177C787.132 727.056 784.717 726.17 779.393 726.17C776.817 726.17 773.831 726.396 770.517 726.83C764.604 727.62 758.25 728.014 751.629 728.014C713.466 728.014 675.143 714.895 669.961 713.054L621.596 699.036C591.447 690.294 590.87 690.129 592.06 685.147V685.144C590.662 684.385 588.734 683.387 586.075 682.1C549.513 664.417 546.919 644.851 546.83 644.028L542.897 623.799V605.582L537.633 590.911C532.707 586.092 525.39 580.448 521.427 579.065C517.132 579.987 509.232 581.566 493.146 583.343C493.943 584.56 494.401 585.937 494.401 587.499C494.401 593.246 494.401 594.609 491.29 596.924H491.296C491.332 596.924 490.273 598.22 488.232 603.148C482.676 616.583 467.982 618.035 461.926 618.035C459.207 618.035 456.762 617.78 454.734 617.442L423.513 623.245L378.634 603.493L362.941 578.501L365.154 566.142C365.505 564.201 365.63 562.756 365.642 561.701L330.989 558.189H318.871L317.449 557.99C312.398 557.287 267.573 550.88 248.554 542.632C228.333 533.867 239.119 523.925 246.989 516.665C250.761 513.187 255.044 509.243 258.489 504.435C259.316 503.281 259.988 502.296 260.529 501.457C259.066 501.513 257.501 501.553 255.859 501.553H226.21L200.73 495.869L166.672 492.251L160.158 487.578H147.362L140.164 476.429L147.285 465.173L145.345 464.45L114.173 466.191L99.0445 456.551L80.9596 438.404L90.7397 425.533L103.25 412.208L107.337 397.765C108.759 392.741 111.412 383.396 125.143 383.396C126.993 383.396 128.748 383.588 130.384 383.966L140.8 379.128L176.304 371.384L206.12 364.712L214.877 359.724L227.352 346.512V339.236L216.013 327.745L156.773 327.025L151.544 327.609L123.477 333.084L67.9075 346.853L29.9055 343.322L25.3665 330.663C23.9566 326.74 23.0285 324.147 26.9369 321.487L27.7698 320.923C27.4545 320.93 27.1452 320.933 26.8239 320.933C12.8557 320.933 3.65268 313.13 1.94533 311.568L0 309.777L0.249883 307.684C0.309373 307.157 1.85013 294.658 6.50222 285.14C7.75151 282.583 12.5345 276.644 29.8877 276.644C41.8689 276.644 56.7949 279.545 64.6118 281.27C86.2006 275.539 118.67 265.252 126.636 258.275C128.528 256.62 129.462 255.565 129.92 254.952C129.866 254.922 129.813 254.889 129.765 254.856C126.904 253.012 122.115 249.931 120.943 244.051C120.389 241.282 118.736 239.358 116.445 236.692C112.323 231.9 107.195 225.934 107.195 213.909C107.195 208.918 107.195 193.723 126.326 193.723C126.737 193.723 127.136 193.732 127.522 193.749L168.296 181.89C178.386 178.955 186.221 177.589 192.949 177.589C200.427 177.589 206.554 179.35 210.219 182.547C214.449 186.241 214.223 191.089 212.539 195.467C225.353 195.411 243.884 194.95 263.772 193.199C289.501 190.937 289.055 179.638 288.918 178.358L288.9 177.967V171.112C285.414 167.862 277.21 159.969 266.71 148.259C260.238 141.04 258.881 134.556 262.677 128.981C265.431 124.952 270.262 122.448 273.938 121.036L282.85 110.105L283.95 109.389C284.462 109.054 296.937 101.025 325.141 89.7926C338.479 84.4865 344.053 83.4186 348.729 83.4186C353.791 83.4186 358.194 84.8546 360.508 87.2623C361.251 88.0383 361.733 88.8541 361.959 89.7064C378.64 92.827 412.799 99.6354 452.342 109.87C491.933 120.117 499.952 123.665 497.495 129.87C497.465 129.95 497.429 130.029 497.388 130.112L516.276 148.538L531.398 162.579C542.529 164.43 574.415 169.255 604.172 169.252C606.42 169.252 608.669 169.225 610.888 169.165C613.756 169.089 616.01 168.96 617.771 168.814C617.2 168.529 616.635 168.27 616.141 168.068L614.107 167.235L599.597 153.081L566.009 147.573L563.689 144.993C562.779 143.978 558.353 138.304 560.536 126.116C560.548 126.06 560.56 126.003 560.572 125.944C557.353 126.647 554.236 126.995 551.172 126.995C542.588 126.995 536.359 124.173 533.254 120.993L493.747 101.556L500.338 96.654C501.671 95.6657 514.467 86.5823 552.35 73.2441C561.375 70.0671 567.722 67.8816 571.268 66.7308C571.678 66.5385 572.166 66.3163 572.761 66.0477C578.555 62.8409 605.112 36.3203 627.278 12.6153L629.401 10.3435L662.68 3.50867L703.573 0L745.067 2.77582L785.146 19.9609C791.142 21.8943 797.787 23.7845 800.88 24.4578C806.443 23.6685 822.261 20.674 835.884 17.9313L853.333 10.8576L895.802 8.8877L945.072 26.3116L965.423 42.021L984.555 57.9792L989.945 71.9972L983.086 91.1257L962.704 106.583L927.493 110.858L915.077 116.621C912.965 121.152 907.825 132.261 904.452 140.39C908.426 140.744 913.679 141.408 918.765 143.434C918.849 143.467 919.075 143.557 919.842 143.557C921.936 143.557 933.697 142.731 960.176 126.411C968.558 121.251 977.339 118.635 986.286 118.635C1007.21 118.635 1017.35 132.474 1020.51 137.869L1042.45 149.38L1057.72 155.27H1066.28L1101.26 147.205L1113.08 123.768L1125.09 107.863C1131.9 98.8527 1133.52 96.7104 1141.84 96.7104C1143.03 96.7104 1144.56 96.8464 1146.14 97.1846C1147.46 94.913 1146.53 92.5252 1146.46 92.376L1146.28 91.9349L1146.18 91.4077C1146.15 91.2253 1143.24 72.823 1137.6 57.8896C1129.92 37.5374 1196.8 27.5685 1217.48 25.0017L1225.56 23.9969L1241.63 37.8359L1246.07 45.2643L1246.67 45.2444C1248.18 42.7141 1250.24 38.9866 1252.52 34.1415C1255.35 28.1655 1263.2 24.5971 1273.54 24.5971C1285.48 24.5971 1297.47 29.6247 1299.74 30.6295L1301.22 31.2795L1311.75 40.0909L1305.19 48.3287L1299.96 55.8302C1301.25 56.7123 1304.43 57.3292 1308.7 57.495C1308.32 56.9544 1307.88 56.4304 1307.52 56.0889L1303.91 52.6863L1321.12 36.6984L1349.25 29.1968H1362.12L1364.3 29.6976C1365.18 29.8965 1385.72 34.7318 1394.3 47.042C1398.82 53.5088 1396.27 57.8995 1393.34 60.4432C1387.48 65.5337 1377.08 66.2932 1374.41 66.4026C1373.56 66.512 1368.05 67.3444 1356.86 71.7452C1354.72 72.5908 1353.77 73.1479 1353.39 73.4066C1353.55 73.9505 1354.14 75.0085 1354.59 75.8077C1355.67 77.7213 1357.04 80.1619 1357.66 83.2162C1359.03 82.7951 1360.45 82.311 1361.71 81.8367C1364.18 79.6579 1369.82 74.6072 1372.57 71.533C1378.5 64.9302 1389.25 64.9302 1392.79 64.9302C1395.55 64.9302 1398.6 65.076 1402.14 65.2485C1405.19 65.3977 1408.81 65.5735 1413.11 65.6929C1434.66 66.2932 1441.26 73.8875 1447.63 81.2299C1449.67 83.5811 1451.98 86.2441 1455 89.0928C1465.65 99.1413 1465.02 103.86 1463.1 110.732C1462.49 112.954 1461.79 115.471 1461.53 118.883L1461.42 120.279C1460.53 132.49 1460.25 136.171 1453.74 144.638C1451.2 147.938 1450.8 150.047 1450.34 152.487C1449.88 154.859 1449.37 157.545 1447.01 160.828C1444.78 163.935 1444.72 164.99 1444.4 170.067C1444.29 171.719 1444.17 173.689 1443.94 176.14C1443.87 176.896 1443.83 177.479 1443.82 177.93C1446.2 178.567 1449.37 179.486 1453.29 181.087C1453.86 180.202 1454.51 178.842 1455.03 177.764C1456.38 174.956 1458.05 171.457 1461.34 167.537C1461.93 166.824 1462.39 166.217 1462.74 165.703L1462.17 165.577V139.846C1462.17 137.226 1463.87 133.717 1465.83 129.655C1466.73 127.811 1467.65 125.93 1468.31 124.249C1470.48 118.814 1477.23 116.877 1482.82 116.877C1488.05 116.877 1492.07 118.472 1494.73 119.994L1503.64 121.652L1504.04 121.742C1507.2 122.475 1516.35 124.558 1520.81 125.387C1537.27 128.444 1532.65 136.453 1527.3 145.726L1524.15 151.217C1522.95 153.307 1522.08 154.819 1521.96 155.2C1521.95 155.313 1521.95 155.475 1521.94 155.691C1521.87 157.104 1521.76 159.73 1520.05 166.864C1516.57 181.422 1531.07 204.965 1531.22 205.2L1532.09 206.596L1527.77 229.482L1527.36 230.169C1527.12 230.577 1521.21 240.406 1505.63 262.118C1504.25 264.048 1503.23 265.65 1502.48 266.98L1511.39 264.019L1510.39 275.994V297.779C1510.39 299.228 1512.1 300.488 1519.39 305.244C1526.51 309.883 1537.27 316.897 1551.44 329.008C1560.06 336.374 1565.22 338.191 1566.93 338.619C1567.7 338.102 1568.68 337.064 1569.12 336.241L1571.66 331.515L1580.55 331.446H1609.86C1630.31 331.446 1636.59 333.565 1641.83 342.244C1643.98 345.782 1647.22 351.128 1658.54 359.754C1671.52 369.65 1676.12 373.832 1672.83 378.541C1670.03 382.58 1662.95 383.369 1660.29 383.668C1659.98 383.704 1659.65 383.724 1659.31 383.771C1659.16 384.059 1658.95 384.57 1658.85 385.382C1657.6 395.083 1653.95 399.42 1650.41 403.612C1647.9 406.594 1645.3 409.671 1642.99 415.71C1640.8 421.401 1640.8 421.401 1650.26 426.253C1656.94 429.672 1667.02 434.839 1679.5 444.098C1692.14 453.473 1696.98 458.182 1694.27 463.084C1691.89 467.398 1684.87 468.731 1681.1 469.451C1676.5 470.327 1673.97 470.807 1672.2 474.747C1665 490.805 1652.89 491.813 1626.17 492.566C1615.37 492.871 1600.57 493.289 1580.33 494.947C1524.3 499.54 1488.08 544.559 1484.41 549.308L1481.59 555.602L1495.08 577.235C1498.44 578.883 1504.38 581.446 1510.44 582.972L1509.42 581.831L1539.3 565.173L1543.91 564.53L1545.92 564.507C1555.05 564.507 1572.13 568.887 1596.68 577.533C1609.03 581.884 1622.76 587.843 1619.27 595.391C1617.38 599.494 1611.44 601.626 1605.75 602.74L1604.1 625.649C1604.1 625.649 1573.23 682.196 1571.92 684.6C1572.84 684.544 1573.77 684.514 1574.72 684.514C1581.64 684.514 1591.72 686.162 1600.43 694.015C1614.02 706.246 1621.67 710.726 1624.85 712.268L1629.91 711.562L1659.76 744.844L1659.91 745.053C1660.34 745.617 1670.32 759.171 1678.26 786.859C1683.54 805.241 1682.52 807.967 1678.49 810.604L1674.93 812.932L1669.09 813.031C1668.35 813.031 1667.63 812.998 1666.94 812.935L1635.94 828.399L1634.23 828.824C1596.75 838.106 1590.66 838.106 1588.36 838.106C1582.74 838.106 1552.63 835.98 1539.31 835.018L1511.07 841.91L1481.4 849H1443.78Z" fill="#866443"/>
<path d="M228.506 494.921C228.506 494.921 240.225 494.921 255.859 494.921C271.487 494.921 281.255 490.563 269.536 506.899C257.81 523.239 238.274 529.772 255.859 537.396C273.444 545.02 320.334 551.557 320.334 551.557H332.054L375.041 555.911C375.041 555.911 378.949 555.911 376.998 566.802C375.041 577.699 375.041 577.699 375.041 577.699L388.718 599.481L425.845 615.82L455.15 610.371C455.15 610.371 470.778 615.82 476.643 601.659C482.503 587.499 482.503 597.302 482.503 587.499C482.503 577.699 437.565 582.053 482.503 577.699C527.442 573.338 517.673 570.072 527.442 573.338C537.21 576.608 548.935 588.59 548.935 588.59L554.795 604.926V623.444L558.703 643.614C558.703 643.614 560.655 661.028 593.868 677.089C627.087 693.15 578.24 678.993 627.087 693.15C675.934 707.311 675.934 707.311 675.934 707.311C675.934 707.311 726.732 725.826 767.762 720.38C808.792 714.932 793.159 738.895 824.42 707.311C855.682 675.723 865.451 671.368 865.451 671.368L897.343 677.089C897.343 677.089 890.853 684.435 906.481 693.15C922.114 701.862 922.115 701.862 922.115 701.862C922.115 701.862 931.883 709.486 967.053 701.862C1002.22 694.238 982.681 697.508 1006.13 688.796C1029.57 680.08 994.4 684.435 1029.57 680.08C1064.75 675.723 1068.65 670.277 1088.19 685.526C1107.72 700.774 1107.72 710.577 1107.72 710.577L1111.63 720.38L1133.12 731.271L1183.93 743.253C1183.93 743.253 1197.61 745.432 1221.05 743.253C1244.49 741.071 1244.49 741.071 1244.49 741.071L1279.66 746.52L1295.29 754.144C1295.29 754.144 1353.91 769.392 1363.68 786.819C1373.45 804.247 1365.63 800.98 1375.4 811.871C1385.17 822.762 1383.21 824.94 1398.85 830.386C1414.48 835.835 1416.43 842.368 1443.78 842.368C1471.14 842.368 1478.95 842.368 1478.95 842.368L1506.3 835.835L1537.57 828.207C1537.57 828.207 1582.5 831.474 1588.36 831.474C1594.22 831.474 1629.4 822.762 1629.4 822.762L1666.52 804.247C1666.52 804.247 1674.33 815.137 1666.52 787.907C1658.7 760.677 1648.94 747.607 1648.94 747.607L1623.53 719.289C1623.53 719.289 1615.72 720.38 1590.32 697.508C1564.92 674.632 1537.57 724.738 1564.92 674.632C1592.27 624.532 1592.27 624.532 1592.27 624.532L1594.22 597.302C1594.22 597.302 1627.44 596.214 1590.32 583.141C1553.2 570.072 1545.38 571.163 1545.38 571.163L1523.89 583.141C1523.89 583.141 1531.71 591.856 1516.08 590.765C1500.44 589.678 1484.82 580.966 1484.82 580.966L1469.18 555.911L1473.09 547.199C1473.09 547.199 1512.16 493.833 1578.6 488.384C1645.03 482.935 1652.84 490.563 1660.66 473.136C1668.47 455.708 1700.82 470.957 1670 448.084C1639.16 425.212 1625.49 429.569 1631.35 414.321C1637.21 399.069 1645.03 400.16 1646.98 384.912C1648.94 369.663 1678.24 386.003 1648.94 363.674C1619.63 341.345 1639.16 338.079 1609.86 338.079C1580.55 338.079 1580.55 338.079 1580.55 338.079C1580.55 338.079 1570.78 357.681 1541.47 332.633C1512.16 307.579 1498.49 305.403 1498.49 297.779C1498.49 290.155 1498.49 275.994 1498.49 275.994C1498.49 275.994 1478.95 281.439 1494.58 259.658C1510.21 237.873 1516.08 228.07 1516.08 228.07L1519.98 207.376C1519.98 207.376 1504.35 182.325 1508.26 165.988C1512.16 149.649 1507.28 158.908 1514.12 146.926C1520.96 134.944 1522.91 132.769 1517.05 131.678C1511.19 130.59 1499.47 127.867 1499.47 127.867L1487.74 125.689C1487.74 125.689 1481.88 120.787 1479.93 125.689C1477.97 130.59 1474.07 137.123 1474.07 139.846C1474.07 142.569 1474.07 148.017 1474.07 148.017V161.087C1474.07 161.087 1478.95 162.175 1472.11 170.343C1465.28 178.514 1466.26 185.047 1459.41 187.226C1452.58 189.405 1470.16 198.664 1452.58 189.405C1434.99 180.146 1431.08 186.135 1432.06 175.788C1433.04 165.445 1432.06 163.81 1435.97 158.364C1439.88 152.915 1436.94 149.649 1442.8 142.025C1448.67 134.401 1448.67 131.678 1449.65 118.608C1450.62 105.539 1457.46 104.451 1444.76 92.469C1432.06 80.4871 1432.06 72.8629 1412.52 72.319C1392.98 71.7751 1387.12 70.1403 1383.21 74.4946C1379.3 78.8522 1370.51 86.4764 1370.51 86.4764C1370.51 86.4764 1346.09 96.8233 1346.09 86.4764C1346.09 76.1295 1333.39 72.8629 1350 66.3265C1366.61 59.7933 1373.45 59.7933 1373.45 59.7933C1373.45 59.7933 1390.05 59.2495 1383.21 49.4464C1376.37 39.6434 1359.77 35.8297 1359.77 35.8297H1351.95L1329.48 41.8223L1317.76 52.713C1317.76 52.713 1330.46 64.6948 1308.97 64.1476C1287.48 63.6038 1287.48 55.4357 1287.48 55.4357L1294.31 45.6327L1298.23 40.7311L1292.36 35.8297C1292.36 35.8297 1268.92 25.4828 1264.03 35.8297C1259.15 46.1766 1255.24 51.6218 1255.24 51.6218L1237.65 52.1691L1230.82 40.7311L1220.07 31.4753C1220.07 31.4753 1143.38 41.0031 1149.25 56.5234C1155.11 72.0471 1158.03 90.834 1158.03 90.834C1158.03 90.834 1162.43 100.637 1149.25 105.539C1136.06 110.44 1147.78 94.9197 1136.06 110.44C1124.33 125.961 1124.33 125.961 1124.33 125.961L1111.14 152.1L1068.65 161.903H1054L1034.95 154.55L1010.03 141.481C1010.03 141.481 996.845 113.707 969.004 130.862C941.163 148.017 922.114 152.916 911.852 148.833C901.596 144.747 888.408 149.649 892.804 139.03C897.2 128.411 904.529 112.888 904.529 112.888L922.115 104.723L955.78 100.637L971.937 88.3833L977.797 72.0471L973.401 60.6091L955.78 45.9045L936.767 31.2299L892.804 15.6797L857.639 17.3146L841.518 23.8478C841.518 23.8478 804.884 31.263 800.488 31.2299C796.091 31.2033 778.506 25.4828 778.506 25.4828L740.409 9.14655L703.775 6.69244L665.672 9.9624L637.831 15.6797C637.831 15.6797 589.959 66.8703 580.191 71.228C570.423 75.5856 595.825 65.7827 558.703 78.8522C521.576 91.9218 509.856 100.637 509.856 100.637L543.07 116.973C543.07 116.973 546.978 124.597 564.563 116.973C582.148 109.349 566.521 98.4582 582.148 109.349C597.776 120.243 597.776 120.243 597.776 120.243C597.776 120.243 613.115 110.437 587.712 116.973C562.316 123.506 574.331 115.885 572.38 126.776C570.423 137.67 574.331 142.025 574.331 142.025L607.551 147.47L623.179 162.718C623.179 162.718 652.483 174.7 611.453 175.788C570.423 176.879 523.533 168.164 523.533 168.164L505.948 151.828L482.503 128.955C482.503 128.955 502.04 130.043 447.333 115.885C392.626 101.725 347.687 94.1006 347.687 94.1006C347.687 94.1006 359.413 84.2975 332.054 95.1917C304.706 106.082 292.981 113.707 292.981 113.707L283.212 125.689C283.212 125.689 263.676 130.043 277.353 145.291C291.024 160.543 300.798 169.255 300.798 169.255V177.967C300.798 177.967 302.749 196.482 265.627 199.752C228.506 203.018 196.054 201.931 196.054 201.931C196.054 201.931 218.738 174.7 173.799 187.773C128.86 200.84 128.86 200.84 128.86 200.84C128.86 200.84 119.092 196.482 119.092 213.909C119.092 231.336 130.812 233.515 132.769 243.318C134.72 253.121 150.354 249.855 136.677 261.837C123.001 273.815 64.8733 288.52 64.8733 288.52C64.8733 288.52 22.3798 277.901 17.9835 286.885C13.5872 295.872 12.1178 308.126 12.1178 308.126C12.1178 308.126 21.0115 316.294 30.4882 313.843C39.959 311.392 20.9103 315.478 39.959 311.392C59.0135 307.307 47.2881 303.224 59.0135 307.307C70.733 311.392 66.3367 304.859 70.733 311.392C75.1293 317.929 98.5742 308.941 75.1293 317.929C51.6844 326.913 66.3367 324.462 51.6844 326.913C37.0321 329.363 34.0993 321.195 37.0321 329.363C39.959 337.531 39.959 337.531 39.959 337.531L66.3368 339.982L119.092 326.913L148.397 321.195L155.726 320.38L223.134 321.195L239.25 337.531V348.15L224.597 363.674L212.872 370.35L180.634 377.559L146.933 384.912L129.348 393.083C129.348 393.083 123.489 383.28 119.092 398.797C114.696 414.321 114.696 414.321 114.696 414.321L101.507 428.369L94.1839 438.013L108.836 452.714L119.092 459.25L148.397 457.615L161.586 462.517L152.793 476.406L155.726 480.946H165.982L173.311 486.205L204.085 489.472L228.506 494.921Z" fill="#D08181"/>
<path d="M1112 609.296L1085.92 585.13L1110.05 562.957L1095.05 545L1069.03 569.488L1044.73 546.975L1028 563.338L1052.26 585.277L1030.04 606.197L1042.53 625L1069.14 600.541L1094.22 623.221L1112 609.296Z" fill="#8A3E3E"/>
<path d="M762.5 124C841.898 103.435 586.648 202.563 694.311 239.755C852.665 294.459 549.505 373.054 600.455 437.189C644.835 493.049 1085.5 480.001 1069.5 577.501" stroke="#8A3E3E" stroke-width="2.66667" stroke-miterlimit="10" stroke-dasharray="16.52 16.52"/>
<path d="M796.602 121.299C796.602 132.507 787.512 141.597 776.298 141.597C765.09 141.597 756 132.507 756 121.299C756 110.085 765.09 101.001 776.298 101.001C787.512 101.001 796.602 110.085 796.602 121.299Z" fill="#8A3E3E"/>
<path d="M1477.08 275.65C1477.08 275.65 1447.5 258.142 1437.76 284.766C1435.74 281.538 1429.73 273.869 1418.05 274.343C1403.32 274.931 1400.36 286.218 1400.36 286.218H1414.72L1416.63 278.851L1418.53 286.218H1426.93C1420.03 287.821 1412.14 293.491 1411.87 311.04L1424.52 302.013C1424.52 302.013 1425.41 297.38 1425.77 297.619C1426.13 297.859 1428.03 299.759 1428.03 299.759L1437.6 292.71C1453.21 326.2 1439.31 383.492 1439.31 383.492H1451.78C1459.17 327.902 1448.5 300.373 1443.14 290.575L1458.79 283.485L1457.72 279.684L1462.35 282.063L1477.08 275.65Z" fill="#8A3E3E"/>
<path d="M1385.41 315.298L1394.03 303.022L1391.54 300.638L1396.07 300.373L1404.29 289.013C1404.29 289.013 1374.3 288.982 1378.78 313.315C1375.84 311.789 1367.92 308.692 1359.35 314.226C1348.54 321.212 1351.32 331.01 1351.32 331.01L1362.12 324.633L1360.28 318.255L1364.98 322.946L1371.29 319.213C1366.81 323.482 1363.4 331.244 1370.99 344.551L1376.5 332.155C1376.5 332.155 1375.11 328.277 1375.48 328.298C1375.85 328.318 1378.13 328.907 1378.13 328.907L1382.19 319.359C1408.79 337.601 1423.77 386.834 1423.77 386.834L1433.14 381.305C1414.02 336.237 1393.79 320.286 1385.41 315.298Z" fill="#8A3E3E"/>
<path d="M767.95 547.599C767.95 547.599 745.71 521.386 727.806 543.366C726.952 539.66 723.782 530.45 712.584 527.077C698.47 522.828 691.979 532.522 691.979 532.522L705.561 537.218L709.762 530.882L709.153 538.462L717.098 541.206C710.054 540.466 700.74 543.252 694.758 559.755L709.663 555.35C709.663 555.35 712.016 551.264 712.277 551.602C712.537 551.946 713.714 554.361 713.714 554.361L725.063 550.826C728.879 587.576 697.023 637.194 697.023 637.194L708.815 641.265C733.96 591.136 732.856 561.629 730.998 550.623L748.099 549.03L748.334 545.089L751.936 548.848L767.95 547.599Z" fill="#8A3E3E"/>
<path d="M668.364 555.131L680.509 546.338L678.937 543.282L683.31 544.505L694.795 536.457C694.795 536.457 666.448 526.628 662.741 551.091C660.461 548.686 653.985 543.173 644.072 545.604C631.578 548.675 631 558.843 631 558.843L643.297 556.344L643.64 549.717L646.545 555.683L653.735 554.22C648.112 556.786 642.349 563.018 645.171 578.074L654.422 568.151C654.422 568.151 654.38 564.033 654.724 564.174C655.073 564.32 657.025 565.616 657.025 565.616L663.991 557.916C683.164 583.847 681.243 635.267 681.243 635.267L691.91 633.101C688.563 584.269 674.642 562.581 668.364 555.131Z" fill="#8A3E3E"/>
<path d="M1559.08 674.648C1559.08 674.648 1529.51 657.145 1519.76 683.763C1517.75 680.541 1511.74 672.867 1500.06 673.341C1485.32 673.934 1482.36 685.216 1482.36 685.216H1496.73L1498.63 677.854L1500.53 685.216H1508.94C1502.03 686.819 1494.15 692.494 1493.88 710.043L1506.53 701.011C1506.53 701.011 1507.42 696.383 1507.78 696.622C1508.13 696.862 1510.04 698.762 1510.04 698.762L1519.6 691.708C1535.21 725.198 1521.32 782.495 1521.32 782.495H1533.79C1541.18 726.9 1530.5 699.376 1525.15 689.578L1540.8 682.488L1539.73 678.682L1544.35 681.061L1559.08 674.648Z" fill="#8A3E3E"/>
<path d="M1467.42 714.296L1476.03 702.025L1473.54 699.641L1478.08 699.37L1486.3 688.016C1486.3 688.016 1456.3 687.985 1460.79 712.318C1457.84 710.787 1449.93 707.695 1441.35 713.229C1430.54 720.21 1433.32 730.013 1433.32 730.013L1444.12 723.63L1442.28 717.258L1446.98 721.944L1453.29 718.216C1448.82 722.48 1445.41 730.247 1452.99 743.554L1458.5 731.153C1458.5 731.153 1457.12 727.28 1457.49 727.301C1457.86 727.321 1460.14 727.905 1460.14 727.905L1464.2 718.357C1490.79 736.604 1505.77 785.837 1505.77 785.837L1515.14 780.303C1496.03 735.24 1475.78 719.283 1467.42 714.296Z" fill="#8A3E3E"/>
<path d="M542.108 752C540.884 752 534.524 751.825 529.773 748.376C526.842 746.251 525.601 744.366 525.348 741.653C523.872 738.67 524.395 735.679 525.892 733.206L522 725.415L523.897 709.269L542.69 703L544.66 703.3C545.074 703.365 554.933 704.903 564.095 707.936L580.658 714.089L583 724.011L578.894 736.189L575.22 737.124C574.676 737.263 569.701 738.474 562.405 738.474C561.178 738.474 560.059 738.439 559.039 738.377L557.265 743.318L544.59 752H542.108Z" fill="#866443"/>
<path d="M1053.68 58C1051.93 58 1042.86 58.2502 1036.09 63.1772C1031.91 66.2131 1030.14 68.9056 1029.78 72.781C1027.67 77.0423 1028.42 81.3164 1030.55 84.8484L1025 95.9787L1027.71 119.045L1054.51 128L1057.32 127.572C1057.91 127.478 1071.97 125.282 1085.04 120.949L1108.66 112.159L1112 97.9842L1106.14 80.5871L1100.9 79.2514C1100.13 79.0522 1093.03 77.3222 1082.63 77.3222C1080.88 77.3222 1079.28 77.3731 1077.83 77.4621L1075.3 70.4023L1057.22 58H1053.68Z" fill="#866443"/>
<path d="M561.636 713.331C552.936 710.466 543.36 709 543.36 709L530.304 713.331L529 724.386L533.788 733.91C533.788 733.91 530.304 736.473 531.608 739.04C532.915 741.604 531.173 741.604 534.223 743.799C537.269 746 542.053 746 542.053 746L551.194 739.772L554.24 731.346C554.24 731.346 555.982 732.446 562.509 732.446C569.035 732.446 573.389 731.346 573.389 731.346L576 723.654L574.696 718.158L561.636 713.331Z" fill="#D08181"/>
<path d="M1081.52 112.914C1069.12 116.939 1055.47 119 1055.47 119L1036.86 112.914L1035 97.3765L1041.83 83.992C1041.83 83.992 1036.86 80.3888 1038.72 76.7814C1040.58 73.1781 1038.1 73.1781 1042.45 70.0933C1046.79 67 1053.61 67 1053.61 67L1066.64 75.753L1070.98 87.5952C1070.98 87.5952 1073.46 86.0485 1082.77 86.0485C1092.07 86.0485 1098.28 87.5952 1098.28 87.5952L1102 98.4048L1100.14 106.13L1081.52 112.914Z" fill="#D08181"/>
<path d="M592.127 842C591.194 842 590.222 841.982 589.208 841.944C582.422 841.692 578.714 839.249 576.802 837.245C574.742 835.088 574.02 832.756 573.813 830.957C570.812 827.4 566.136 821.354 565.238 817.179C564.002 811.411 567.918 805.792 569.189 804.161L579.859 787.802L583.035 776.681L586.806 756.301L588.342 754.945C597.673 746.716 608.209 737.325 609.839 735.706C612.353 732.59 617.452 729 627.583 729C638.915 729 651.592 733.534 652.127 733.728C655.419 734.843 660.441 738.956 664.811 751.928C669.005 764.375 666.392 770.014 663.473 772.559L655.497 783.453L634.879 796.276L624.326 803.385L621.122 813.349C620.843 814.738 619.674 820.452 618.466 824.545C616.935 829.742 611.674 836.895 611.079 837.693L609.836 839.365L607.66 840.077C607.057 840.277 601.508 842 592.127 842Z" fill="#866443"/>
<path d="M615.532 739.249C614.675 740.356 593.396 759.102 593.396 759.102L589.921 777.854L586.449 789.99L575.164 807.27C575.164 807.27 571.256 812.049 572.126 816.095C572.997 820.137 580.807 828.962 580.807 828.962C580.807 828.962 579.503 835.581 589.487 835.951C599.472 836.319 605.114 834.48 605.114 834.48C605.114 834.48 610.323 827.493 611.627 823.081C612.927 818.668 614.231 812.049 614.231 812.049L618.136 799.917L630.725 791.459L650.257 779.326L658.07 768.662C658.07 768.662 662.412 766.455 658.07 753.585C653.728 740.718 649.386 739.249 649.386 739.249C649.386 739.249 622.912 729.689 615.532 739.249Z" fill="#D08181"/>
<path d="M1280.54 470.076L1337.22 568.25H1216.19L1220.83 564.113L1221.09 563.877L1221.31 563.592L1243.31 534.092L1243.54 533.774L1243.7 533.411L1256.51 504.345L1271.71 485.712L1271.9 485.477L1272.05 485.212L1280.54 470.076Z" fill="url(#paint0_linear)" stroke="#555555" stroke-width="7"/>
<path d="M1291.61 484.878L1291.83 485.739L1292.44 486.388L1319.94 515.853L1329.2 542.162L1329.54 543.142L1330.37 543.775L1362.2 568.25H1245.07L1282.72 468.851L1288.45 472.671L1291.61 484.878Z" fill="url(#paint1_linear)" stroke="#555555" stroke-width="7"/>
<path d="M1212.54 114.076L1269.22 212.25H1148.19L1152.83 208.113L1153.09 207.877L1153.31 207.592L1175.31 178.092L1175.54 177.774L1175.7 177.411L1188.51 148.345L1203.71 129.712L1203.9 129.477L1204.05 129.212L1212.54 114.076Z" fill="url(#paint2_linear)" stroke="#555555" stroke-width="7"/>
<path d="M1223.61 128.878L1223.83 129.739L1224.44 130.388L1251.94 159.853L1261.2 186.162L1261.54 187.142L1262.37 187.775L1294.2 212.25H1177.07L1214.72 112.851L1220.45 116.671L1223.61 128.878Z" fill="url(#paint3_linear)" stroke="#555555" stroke-width="7"/>
<path d="M887.544 228.076L944.224 326.25H823.187L827.829 322.113L828.094 321.877L828.306 321.592L850.306 292.092L850.543 291.774L850.703 291.411L863.512 262.345L878.712 243.712L878.904 243.477L879.053 243.212L887.544 228.076Z" fill="url(#paint4_linear)" stroke="#555555" stroke-width="7"/>
<path d="M898.612 242.878L898.835 243.739L899.441 244.388L926.942 273.853L936.198 300.162L936.543 301.142L937.367 301.775L969.204 326.25H852.068L889.716 226.851L895.447 230.671L898.612 242.878Z" fill="url(#paint5_linear)" stroke="#555555" stroke-width="7"/>
<path d="M373.544 213.076L430.224 311.25H309.187L313.829 307.113L314.094 306.877L314.306 306.592L336.306 277.092L336.543 276.774L336.703 276.411L349.512 247.345L364.712 228.712L364.904 228.477L365.053 228.212L373.544 213.076Z" fill="url(#paint6_linear)" stroke="#555555" stroke-width="7"/>
<path d="M384.612 227.878L384.835 228.739L385.441 229.388L412.941 258.853L422.198 285.162L422.543 286.142L423.366 286.775L455.204 311.25H338.068L375.716 211.851L381.447 215.671L384.612 227.878Z" fill="url(#paint7_linear)" stroke="#555555" stroke-width="7"/>
<path d="M328.785 334.8L317.805 360H313.197L302.181 334.8H307.257L315.645 354.24L324.105 334.8H328.785ZM331.188 340.776H335.688V360H331.188V340.776ZM333.456 337.608C332.64 337.608 331.956 337.356 331.404 336.852C330.852 336.324 330.576 335.676 330.576 334.908C330.576 334.14 330.852 333.504 331.404 333C331.956 332.472 332.64 332.208 333.456 332.208C334.272 332.208 334.956 332.46 335.508 332.964C336.06 333.444 336.336 334.056 336.336 334.8C336.336 335.592 336.06 336.264 335.508 336.816C334.98 337.344 334.296 337.608 333.456 337.608ZM360.423 333.288V360H356.103V357.516C355.359 358.428 354.435 359.112 353.331 359.568C352.251 360.024 351.051 360.252 349.731 360.252C347.883 360.252 346.215 359.844 344.727 359.028C343.263 358.212 342.111 357.06 341.271 355.572C340.431 354.06 340.011 352.332 340.011 350.388C340.011 348.444 340.431 346.728 341.271 345.24C342.111 343.752 343.263 342.6 344.727 341.784C346.215 340.968 347.883 340.56 349.731 340.56C351.003 340.56 352.167 340.776 353.223 341.208C354.279 341.64 355.179 342.288 355.923 343.152V333.288H360.423ZM350.271 356.4C351.351 356.4 352.323 356.16 353.187 355.68C354.051 355.176 354.735 354.468 355.239 353.556C355.743 352.644 355.995 351.588 355.995 350.388C355.995 349.188 355.743 348.132 355.239 347.22C354.735 346.308 354.051 345.612 353.187 345.132C352.323 344.628 351.351 344.376 350.271 344.376C349.191 344.376 348.219 344.628 347.355 345.132C346.491 345.612 345.807 346.308 345.303 347.22C344.799 348.132 344.547 349.188 344.547 350.388C344.547 351.588 344.799 352.644 345.303 353.556C345.807 354.468 346.491 355.176 347.355 355.68C348.219 356.16 349.191 356.4 350.271 356.4ZM384.381 350.496C384.381 350.808 384.357 351.252 384.309 351.828H369.225C369.489 353.244 370.173 354.372 371.277 355.212C372.405 356.028 373.797 356.436 375.453 356.436C377.565 356.436 379.305 355.74 380.673 354.348L383.085 357.12C382.221 358.152 381.129 358.932 379.809 359.46C378.489 359.988 377.001 360.252 375.345 360.252C373.233 360.252 371.373 359.832 369.765 358.992C368.157 358.152 366.909 356.988 366.021 355.5C365.157 353.988 364.725 352.284 364.725 350.388C364.725 348.516 365.145 346.836 365.985 345.348C366.849 343.836 368.037 342.66 369.549 341.82C371.061 340.98 372.765 340.56 374.661 340.56C376.533 340.56 378.201 340.98 379.665 341.82C381.153 342.636 382.305 343.8 383.121 345.312C383.961 346.8 384.381 348.528 384.381 350.496ZM374.661 344.16C373.221 344.16 371.997 344.592 370.989 345.456C370.005 346.296 369.405 347.424 369.189 348.84H380.097C379.905 347.448 379.317 346.32 378.333 345.456C377.349 344.592 376.125 344.16 374.661 344.16ZM376.389 333.216H381.681L375.417 338.148H371.529L376.389 333.216ZM395.521 340.56C398.353 340.56 400.513 341.244 402.001 342.612C403.513 343.956 404.269 345.996 404.269 348.732V360H400.021V357.66C399.469 358.5 398.677 359.148 397.645 359.604C396.637 360.036 395.413 360.252 393.973 360.252C392.533 360.252 391.273 360.012 390.193 359.532C389.113 359.028 388.273 358.344 387.673 357.48C387.097 356.592 386.809 355.596 386.809 354.492C386.809 352.764 387.445 351.384 388.717 350.352C390.013 349.296 392.041 348.768 394.801 348.768H399.769V348.48C399.769 347.136 399.361 346.104 398.545 345.384C397.753 344.664 396.565 344.304 394.981 344.304C393.901 344.304 392.833 344.472 391.777 344.808C390.745 345.144 389.869 345.612 389.149 346.212L387.385 342.936C388.393 342.168 389.605 341.58 391.021 341.172C392.437 340.764 393.937 340.56 395.521 340.56ZM394.909 356.976C396.037 356.976 397.033 356.724 397.897 356.22C398.785 355.692 399.409 354.948 399.769 353.988V351.756H395.125C392.533 351.756 391.237 352.608 391.237 354.312C391.237 355.128 391.561 355.776 392.209 356.256C392.857 356.736 393.757 356.976 394.909 356.976ZM415.984 360.252C414.424 360.252 412.9 360.048 411.412 359.64C409.924 359.232 408.736 358.716 407.848 358.092L409.576 354.672C410.44 355.248 411.472 355.716 412.672 356.076C413.896 356.412 415.096 356.58 416.272 356.58C418.96 356.58 420.304 355.872 420.304 354.456C420.304 353.784 419.956 353.316 419.26 353.052C418.588 352.788 417.496 352.536 415.984 352.296C414.4 352.056 413.104 351.78 412.096 351.468C411.112 351.156 410.248 350.616 409.504 349.848C408.784 349.056 408.424 347.964 408.424 346.572C408.424 344.748 409.18 343.296 410.692 342.216C412.228 341.112 414.292 340.56 416.884 340.56C418.204 340.56 419.524 340.716 420.844 341.028C422.164 341.316 423.244 341.712 424.084 342.216L422.356 345.636C420.724 344.676 418.888 344.196 416.848 344.196C415.528 344.196 414.52 344.4 413.824 344.808C413.152 345.192 412.816 345.708 412.816 346.356C412.816 347.076 413.176 347.592 413.896 347.904C414.64 348.192 415.78 348.468 417.316 348.732C418.852 348.972 420.112 349.248 421.096 349.56C422.08 349.872 422.92 350.4 423.616 351.144C424.336 351.888 424.696 352.944 424.696 354.312C424.696 356.112 423.916 357.552 422.356 358.632C420.796 359.712 418.672 360.252 415.984 360.252ZM440.127 358.956C439.599 359.388 438.951 359.712 438.183 359.928C437.439 360.144 436.647 360.252 435.807 360.252C433.695 360.252 432.063 359.7 430.911 358.596C429.759 357.492 429.183 355.884 429.183 353.772V344.52H426.015V340.92H429.183V336.528H433.683V340.92H438.831V344.52H433.683V353.664C433.683 354.6 433.911 355.32 434.367 355.824C434.823 356.304 435.483 356.544 436.347 356.544C437.355 356.544 438.195 356.28 438.867 355.752L440.127 358.956ZM461.268 350.496C461.268 350.808 461.244 351.252 461.196 351.828H446.112C446.376 353.244 447.06 354.372 448.164 355.212C449.292 356.028 450.684 356.436 452.34 356.436C454.452 356.436 456.192 355.74 457.56 354.348L459.972 357.12C459.108 358.152 458.016 358.932 456.696 359.46C455.376 359.988 453.888 360.252 452.232 360.252C450.12 360.252 448.26 359.832 446.652 358.992C445.044 358.152 443.796 356.988 442.908 355.5C442.044 353.988 441.612 352.284 441.612 350.388C441.612 348.516 442.032 346.836 442.872 345.348C443.736 343.836 444.924 342.66 446.436 341.82C447.948 340.98 449.652 340.56 451.548 340.56C453.42 340.56 455.088 340.98 456.552 341.82C458.04 342.636 459.192 343.8 460.008 345.312C460.848 346.8 461.268 348.528 461.268 350.496ZM451.548 344.16C450.108 344.16 448.884 344.592 447.876 345.456C446.892 346.296 446.292 347.424 446.076 348.84H456.984C456.792 347.448 456.204 346.32 455.22 345.456C454.236 344.592 453.012 344.16 451.548 344.16Z" fill="#EFEFEF"/>
<path d="M1205.91 621L1200.77 613.62C1200.55 613.644 1200.23 613.656 1199.79 613.656H1194.11V621H1189.43V595.8H1199.79C1201.98 595.8 1203.87 596.16 1205.48 596.88C1207.11 597.6 1208.36 598.632 1209.23 599.976C1210.09 601.32 1210.52 602.916 1210.52 604.764C1210.52 606.66 1210.05 608.292 1209.12 609.66C1208.21 611.028 1206.89 612.048 1205.16 612.72L1210.95 621H1205.91ZM1205.81 604.764C1205.81 603.156 1205.28 601.92 1204.22 601.056C1203.17 600.192 1201.62 599.76 1199.58 599.76H1194.11V609.804H1199.58C1201.62 609.804 1203.17 609.372 1204.22 608.508C1205.28 607.62 1205.81 606.372 1205.81 604.764ZM1233.4 611.496C1233.4 611.808 1233.38 612.252 1233.33 612.828H1218.24C1218.51 614.244 1219.19 615.372 1220.3 616.212C1221.42 617.028 1222.82 617.436 1224.47 617.436C1226.58 617.436 1228.32 616.74 1229.69 615.348L1232.1 618.12C1231.24 619.152 1230.15 619.932 1228.83 620.46C1227.51 620.988 1226.02 621.252 1224.36 621.252C1222.25 621.252 1220.39 620.832 1218.78 619.992C1217.18 619.152 1215.93 617.988 1215.04 616.5C1214.18 614.988 1213.74 613.284 1213.74 611.388C1213.74 609.516 1214.16 607.836 1215 606.348C1215.87 604.836 1217.06 603.66 1218.57 602.82C1220.08 601.98 1221.78 601.56 1223.68 601.56C1225.55 601.56 1227.22 601.98 1228.68 602.82C1230.17 603.636 1231.32 604.8 1232.14 606.312C1232.98 607.8 1233.4 609.528 1233.4 611.496ZM1223.68 605.16C1222.24 605.16 1221.02 605.592 1220.01 606.456C1219.02 607.296 1218.42 608.424 1218.21 609.84H1229.12C1228.92 608.448 1228.34 607.32 1227.35 606.456C1226.37 605.592 1225.14 605.16 1223.68 605.16ZM1225.41 594.216H1230.7L1224.44 599.148H1220.55L1225.41 594.216ZM1244.54 601.56C1247.37 601.56 1249.53 602.244 1251.02 603.612C1252.53 604.956 1253.29 606.996 1253.29 609.732V621H1249.04V618.66C1248.49 619.5 1247.69 620.148 1246.66 620.604C1245.65 621.036 1244.43 621.252 1242.99 621.252C1241.55 621.252 1240.29 621.012 1239.21 620.532C1238.13 620.028 1237.29 619.344 1236.69 618.48C1236.11 617.592 1235.83 616.596 1235.83 615.492C1235.83 613.764 1236.46 612.384 1237.73 611.352C1239.03 610.296 1241.06 609.768 1243.82 609.768H1248.79V609.48C1248.79 608.136 1248.38 607.104 1247.56 606.384C1246.77 605.664 1245.58 605.304 1244 605.304C1242.92 605.304 1241.85 605.472 1240.79 605.808C1239.76 606.144 1238.89 606.612 1238.17 607.212L1236.4 603.936C1237.41 603.168 1238.62 602.58 1240.04 602.172C1241.45 601.764 1242.95 601.56 1244.54 601.56ZM1243.93 617.976C1245.05 617.976 1246.05 617.724 1246.91 617.22C1247.8 616.692 1248.43 615.948 1248.79 614.988V612.756H1244.14C1241.55 612.756 1240.25 613.608 1240.25 615.312C1240.25 616.128 1240.58 616.776 1241.23 617.256C1241.87 617.736 1242.77 617.976 1243.93 617.976ZM1259.06 594.288H1263.56V621H1259.06V594.288ZM1269.47 601.776H1273.97V621H1269.47V601.776ZM1271.74 598.608C1270.92 598.608 1270.24 598.356 1269.68 597.852C1269.13 597.324 1268.86 596.676 1268.86 595.908C1268.86 595.14 1269.13 594.504 1269.68 594C1270.24 593.472 1270.92 593.208 1271.74 593.208C1272.55 593.208 1273.24 593.46 1273.79 593.964C1274.34 594.444 1274.62 595.056 1274.62 595.8C1274.62 596.592 1274.34 597.264 1273.79 597.816C1273.26 598.344 1272.58 598.608 1271.74 598.608ZM1285.81 621.252C1284.25 621.252 1282.73 621.048 1281.24 620.64C1279.75 620.232 1278.57 619.716 1277.68 619.092L1279.41 615.672C1280.27 616.248 1281.3 616.716 1282.5 617.076C1283.73 617.412 1284.93 617.58 1286.1 617.58C1288.79 617.58 1290.13 616.872 1290.13 615.456C1290.13 614.784 1289.79 614.316 1289.09 614.052C1288.42 613.788 1287.33 613.536 1285.81 613.296C1284.23 613.056 1282.93 612.78 1281.93 612.468C1280.94 612.156 1280.08 611.616 1279.33 610.848C1278.61 610.056 1278.25 608.964 1278.25 607.572C1278.25 605.748 1279.01 604.296 1280.52 603.216C1282.06 602.112 1284.12 601.56 1286.71 601.56C1288.03 601.56 1289.35 601.716 1290.67 602.028C1291.99 602.316 1293.07 602.712 1293.91 603.216L1292.19 606.636C1290.55 605.676 1288.72 605.196 1286.68 605.196C1285.36 605.196 1284.35 605.4 1283.65 605.808C1282.98 606.192 1282.65 606.708 1282.65 607.356C1282.65 608.076 1283.01 608.592 1283.73 608.904C1284.47 609.192 1285.61 609.468 1287.15 609.732C1288.68 609.972 1289.94 610.248 1290.93 610.56C1291.91 610.872 1292.75 611.4 1293.45 612.144C1294.17 612.888 1294.53 613.944 1294.53 615.312C1294.53 617.112 1293.75 618.552 1292.19 619.632C1290.63 620.712 1288.5 621.252 1285.81 621.252ZM1305.75 601.56C1308.58 601.56 1310.74 602.244 1312.23 603.612C1313.74 604.956 1314.49 606.996 1314.49 609.732V621H1310.25V618.66C1309.69 619.5 1308.9 620.148 1307.87 620.604C1306.86 621.036 1305.64 621.252 1304.2 621.252C1302.76 621.252 1301.5 621.012 1300.42 620.532C1299.34 620.028 1298.5 619.344 1297.9 618.48C1297.32 617.592 1297.03 616.596 1297.03 615.492C1297.03 613.764 1297.67 612.384 1298.94 611.352C1300.24 610.296 1302.27 609.768 1305.03 609.768H1309.99V609.48C1309.99 608.136 1309.59 607.104 1308.77 606.384C1307.98 605.664 1306.79 605.304 1305.21 605.304C1304.13 605.304 1303.06 605.472 1302 605.808C1300.97 606.144 1300.09 606.612 1299.37 607.212L1297.61 603.936C1298.62 603.168 1299.83 602.58 1301.25 602.172C1302.66 601.764 1304.16 601.56 1305.75 601.56ZM1305.13 617.976C1306.26 617.976 1307.26 617.724 1308.12 617.22C1309.01 616.692 1309.63 615.948 1309.99 614.988V612.756H1305.35C1302.76 612.756 1301.46 613.608 1301.46 615.312C1301.46 616.128 1301.79 616.776 1302.43 617.256C1303.08 617.736 1303.98 617.976 1305.13 617.976ZM1331.82 619.956C1331.3 620.388 1330.65 620.712 1329.88 620.928C1329.14 621.144 1328.34 621.252 1327.5 621.252C1325.39 621.252 1323.76 620.7 1322.61 619.596C1321.46 618.492 1320.88 616.884 1320.88 614.772V605.52H1317.71V601.92H1320.88V597.528H1325.38V601.92H1330.53V605.52H1325.38V614.664C1325.38 615.6 1325.61 616.32 1326.06 616.824C1326.52 617.304 1327.18 617.544 1328.04 617.544C1329.05 617.544 1329.89 617.28 1330.56 616.752L1331.82 619.956ZM1352.97 611.496C1352.97 611.808 1352.94 612.252 1352.89 612.828H1337.81C1338.07 614.244 1338.76 615.372 1339.86 616.212C1340.99 617.028 1342.38 617.436 1344.04 617.436C1346.15 617.436 1347.89 616.74 1349.26 615.348L1351.67 618.12C1350.81 619.152 1349.71 619.932 1348.39 620.46C1347.07 620.988 1345.59 621.252 1343.93 621.252C1341.82 621.252 1339.96 620.832 1338.35 619.992C1336.74 619.152 1335.49 617.988 1334.61 616.5C1333.74 614.988 1333.31 613.284 1333.31 611.388C1333.31 609.516 1333.73 607.836 1334.57 606.348C1335.43 604.836 1336.62 603.66 1338.13 602.82C1339.65 601.98 1341.35 601.56 1343.25 601.56C1345.12 601.56 1346.79 601.98 1348.25 602.82C1349.74 603.636 1350.89 604.8 1351.71 606.312C1352.55 607.8 1352.97 609.528 1352.97 611.496ZM1343.25 605.16C1341.81 605.16 1340.58 605.592 1339.57 606.456C1338.59 607.296 1337.99 608.424 1337.77 609.84H1348.68C1348.49 608.448 1347.9 607.32 1346.92 606.456C1345.93 605.592 1344.71 605.16 1343.25 605.16ZM1375.9 601.776V621H1371.62V618.552C1370.9 619.416 1370 620.088 1368.92 620.568C1367.84 621.024 1366.67 621.252 1365.42 621.252C1362.86 621.252 1360.83 620.544 1359.34 619.128C1357.88 617.688 1357.14 615.564 1357.14 612.756V601.776H1361.64V612.144C1361.64 613.872 1362.03 615.168 1362.8 616.032C1363.59 616.872 1364.7 617.292 1366.14 617.292C1367.75 617.292 1369.02 616.8 1369.96 615.816C1370.92 614.808 1371.4 613.368 1371.4 611.496V601.776H1375.9ZM1386.08 604.584C1387.37 602.568 1389.65 601.56 1392.92 601.56V605.844C1392.53 605.772 1392.18 605.736 1391.87 605.736C1390.12 605.736 1388.75 606.252 1387.77 607.284C1386.78 608.292 1386.29 609.756 1386.29 611.676V621H1381.79V601.776H1386.08V604.584ZM1209.85 665L1209.81 648.296L1201.53 662.12H1199.45L1191.17 648.512V665H1186.7V639.8H1190.55L1200.56 656.504L1210.39 639.8H1214.24L1214.28 665H1209.85ZM1239.27 645.776V665H1234.98V662.552C1234.26 663.416 1233.36 664.088 1232.28 664.568C1231.2 665.024 1230.04 665.252 1228.79 665.252C1226.22 665.252 1224.19 664.544 1222.71 663.128C1221.24 661.688 1220.51 659.564 1220.51 656.756V645.776H1225.01V656.144C1225.01 657.872 1225.39 659.168 1226.16 660.032C1226.95 660.872 1228.07 661.292 1229.51 661.292C1231.12 661.292 1232.39 660.8 1233.33 659.816C1234.29 658.808 1234.77 657.368 1234.77 655.496V645.776H1239.27ZM1245.16 638.288H1249.66V665H1245.16V638.288ZM1268.07 663.956C1267.54 664.388 1266.89 664.712 1266.12 664.928C1265.38 665.144 1264.59 665.252 1263.75 665.252C1261.64 665.252 1260 664.7 1258.85 663.596C1257.7 662.492 1257.12 660.884 1257.12 658.772V649.52H1253.96V645.92H1257.12V641.528H1261.62V645.92H1266.77V649.52H1261.62V658.664C1261.62 659.6 1261.85 660.32 1262.31 660.824C1262.76 661.304 1263.42 661.544 1264.29 661.544C1265.3 661.544 1266.14 661.28 1266.81 660.752L1268.07 663.956ZM1271.77 645.776H1276.27V665H1271.77V645.776ZM1274.04 642.608C1273.22 642.608 1272.54 642.356 1271.99 641.852C1271.43 641.324 1271.16 640.676 1271.16 639.908C1271.16 639.14 1271.43 638.504 1271.99 638C1272.54 637.472 1273.22 637.208 1274.04 637.208C1274.85 637.208 1275.54 637.46 1276.09 637.964C1276.64 638.444 1276.92 639.056 1276.92 639.8C1276.92 640.592 1276.64 641.264 1276.09 641.816C1275.56 642.344 1274.88 642.608 1274.04 642.608ZM1306.44 645.56C1308.86 645.56 1310.78 646.268 1312.2 647.684C1313.62 649.076 1314.32 651.176 1314.32 653.984V665H1309.82V654.56C1309.82 652.88 1309.45 651.62 1308.71 650.78C1307.96 649.916 1306.9 649.484 1305.5 649.484C1303.99 649.484 1302.78 649.988 1301.87 650.996C1300.96 651.98 1300.5 653.396 1300.5 655.244V665H1296V654.56C1296 652.88 1295.63 651.62 1294.88 650.78C1294.14 649.916 1293.07 649.484 1291.68 649.484C1290.14 649.484 1288.92 649.976 1288.01 650.96C1287.12 651.944 1286.68 653.372 1286.68 655.244V665H1282.18V645.776H1286.46V648.224C1287.18 647.36 1288.08 646.7 1289.16 646.244C1290.24 645.788 1291.44 645.56 1292.76 645.56C1294.2 645.56 1295.47 645.836 1296.58 646.388C1297.7 646.916 1298.59 647.708 1299.24 648.764C1300.03 647.756 1301.05 646.976 1302.3 646.424C1303.55 645.848 1304.93 645.56 1306.44 645.56ZM1338.32 655.496C1338.32 655.808 1338.3 656.252 1338.25 656.828H1323.17C1323.43 658.244 1324.11 659.372 1325.22 660.212C1326.35 661.028 1327.74 661.436 1329.39 661.436C1331.51 661.436 1333.25 660.74 1334.61 659.348L1337.03 662.12C1336.16 663.152 1335.07 663.932 1333.75 664.46C1332.43 664.988 1330.94 665.252 1329.29 665.252C1327.17 665.252 1325.31 664.832 1323.71 663.992C1322.1 663.152 1320.85 661.988 1319.96 660.5C1319.1 658.988 1318.67 657.284 1318.67 655.388C1318.67 653.516 1319.09 651.836 1319.93 650.348C1320.79 648.836 1321.98 647.66 1323.49 646.82C1325 645.98 1326.71 645.56 1328.6 645.56C1330.47 645.56 1332.14 645.98 1333.61 646.82C1335.09 647.636 1336.25 648.8 1337.06 650.312C1337.9 651.8 1338.32 653.528 1338.32 655.496ZM1328.6 649.16C1327.16 649.16 1325.94 649.592 1324.93 650.456C1323.95 651.296 1323.35 652.424 1323.13 653.84H1334.04C1333.85 652.448 1333.26 651.32 1332.27 650.456C1331.29 649.592 1330.07 649.16 1328.6 649.16ZM1330.33 638.216H1335.62L1329.36 643.148H1325.47L1330.33 638.216ZM1361.47 638.288V665H1357.15V662.516C1356.41 663.428 1355.49 664.112 1354.38 664.568C1353.3 665.024 1352.1 665.252 1350.78 665.252C1348.93 665.252 1347.27 664.844 1345.78 664.028C1344.31 663.212 1343.16 662.06 1342.32 660.572C1341.48 659.06 1341.06 657.332 1341.06 655.388C1341.06 653.444 1341.48 651.728 1342.32 650.24C1343.16 648.752 1344.31 647.6 1345.78 646.784C1347.27 645.968 1348.93 645.56 1350.78 645.56C1352.05 645.56 1353.22 645.776 1354.27 646.208C1355.33 646.64 1356.23 647.288 1356.97 648.152V638.288H1361.47ZM1351.32 661.4C1352.4 661.4 1353.37 661.16 1354.24 660.68C1355.1 660.176 1355.79 659.468 1356.29 658.556C1356.79 657.644 1357.05 656.588 1357.05 655.388C1357.05 654.188 1356.79 653.132 1356.29 652.22C1355.79 651.308 1355.1 650.612 1354.24 650.132C1353.37 649.628 1352.4 649.376 1351.32 649.376C1350.24 649.376 1349.27 649.628 1348.41 650.132C1347.54 650.612 1346.86 651.308 1346.35 652.22C1345.85 653.132 1345.6 654.188 1345.6 655.388C1345.6 656.588 1345.85 657.644 1346.35 658.556C1346.86 659.468 1347.54 660.176 1348.41 660.68C1349.27 661.16 1350.24 661.4 1351.32 661.4ZM1367.36 645.776H1371.86V665H1367.36V645.776ZM1369.63 642.608C1368.81 642.608 1368.13 642.356 1367.58 641.852C1367.02 641.324 1366.75 640.676 1366.75 639.908C1366.75 639.14 1367.02 638.504 1367.58 638C1368.13 637.472 1368.81 637.208 1369.63 637.208C1370.44 637.208 1371.13 637.46 1371.68 637.964C1372.23 638.444 1372.51 639.056 1372.51 639.8C1372.51 640.592 1372.23 641.264 1371.68 641.816C1371.15 642.344 1370.47 642.608 1369.63 642.608ZM1385.11 645.56C1387.94 645.56 1390.1 646.244 1391.59 647.612C1393.1 648.956 1393.86 650.996 1393.86 653.732V665H1389.61V662.66C1389.06 663.5 1388.27 664.148 1387.23 664.604C1386.23 665.036 1385 665.252 1383.56 665.252C1382.12 665.252 1380.86 665.012 1379.78 664.532C1378.7 664.028 1377.86 663.344 1377.26 662.48C1376.69 661.592 1376.4 660.596 1376.4 659.492C1376.4 657.764 1377.03 656.384 1378.31 655.352C1379.6 654.296 1381.63 653.768 1384.39 653.768H1389.36V653.48C1389.36 652.136 1388.95 651.104 1388.13 650.384C1387.34 649.664 1386.15 649.304 1384.57 649.304C1383.49 649.304 1382.42 649.472 1381.37 649.808C1380.33 650.144 1379.46 650.612 1378.74 651.212L1376.97 647.936C1377.98 647.168 1379.19 646.58 1380.61 646.172C1382.03 645.764 1383.53 645.56 1385.11 645.56ZM1384.5 661.976C1385.63 661.976 1386.62 661.724 1387.49 661.22C1388.37 660.692 1389 659.948 1389.36 658.988V656.756H1384.71C1382.12 656.756 1380.83 657.608 1380.83 659.312C1380.83 660.128 1381.15 660.776 1381.8 661.256C1382.45 661.736 1383.35 661.976 1384.5 661.976Z" fill="#EFEFEF"/>
<path d="M838.596 374L838.56 357.296L830.28 371.12H828.192L819.912 357.512V374H815.448V348.8H819.3L829.308 365.504L839.136 348.8H842.988L843.024 374H838.596ZM858.039 374.252C856.095 374.252 854.343 373.832 852.783 372.992C851.223 372.152 849.999 370.988 849.111 369.5C848.247 367.988 847.815 366.284 847.815 364.388C847.815 362.492 848.247 360.8 849.111 359.312C849.999 357.824 851.223 356.66 852.783 355.82C854.343 354.98 856.095 354.56 858.039 354.56C860.007 354.56 861.771 354.98 863.331 355.82C864.891 356.66 866.103 357.824 866.967 359.312C867.855 360.8 868.299 362.492 868.299 364.388C868.299 366.284 867.855 367.988 866.967 369.5C866.103 370.988 864.891 372.152 863.331 372.992C861.771 373.832 860.007 374.252 858.039 374.252ZM858.039 370.4C859.695 370.4 861.063 369.848 862.143 368.744C863.223 367.64 863.763 366.188 863.763 364.388C863.763 362.588 863.223 361.136 862.143 360.032C861.063 358.928 859.695 358.376 858.039 358.376C856.383 358.376 855.015 358.928 853.935 360.032C852.879 361.136 852.351 362.588 852.351 364.388C852.351 366.188 852.879 367.64 853.935 368.744C855.015 369.848 856.383 370.4 858.039 370.4ZM883.51 354.56C885.934 354.56 887.878 355.268 889.342 356.684C890.806 358.1 891.538 360.2 891.538 362.984V374H887.038V363.56C887.038 361.88 886.642 360.62 885.85 359.78C885.058 358.916 883.93 358.484 882.466 358.484C880.81 358.484 879.502 358.988 878.542 359.996C877.582 360.98 877.102 362.408 877.102 364.28V374H872.602V354.776H876.886V357.26C877.63 356.372 878.566 355.7 879.694 355.244C880.822 354.788 882.094 354.56 883.51 354.56ZM908.803 372.956C908.275 373.388 907.627 373.712 906.859 373.928C906.115 374.144 905.323 374.252 904.483 374.252C902.371 374.252 900.739 373.7 899.587 372.596C898.435 371.492 897.859 369.884 897.859 367.772V358.52H894.691V354.92H897.859V350.528H902.359V354.92H907.507V358.52H902.359V367.664C902.359 368.6 902.587 369.32 903.043 369.824C903.499 370.304 904.159 370.544 905.023 370.544C906.031 370.544 906.871 370.28 907.543 369.752L908.803 372.956ZM929.944 364.496C929.944 364.808 929.92 365.252 929.872 365.828H914.788C915.052 367.244 915.736 368.372 916.84 369.212C917.968 370.028 919.36 370.436 921.016 370.436C923.128 370.436 924.868 369.74 926.236 368.348L928.648 371.12C927.784 372.152 926.692 372.932 925.372 373.46C924.052 373.988 922.564 374.252 920.908 374.252C918.796 374.252 916.936 373.832 915.328 372.992C913.72 372.152 912.472 370.988 911.584 369.5C910.72 367.988 910.288 366.284 910.288 364.388C910.288 362.516 910.708 360.836 911.548 359.348C912.412 357.836 913.6 356.66 915.112 355.82C916.624 354.98 918.328 354.56 920.224 354.56C922.096 354.56 923.764 354.98 925.228 355.82C926.716 356.636 927.868 357.8 928.684 359.312C929.524 360.8 929.944 362.528 929.944 364.496ZM920.224 358.16C918.784 358.16 917.56 358.592 916.552 359.456C915.568 360.296 914.968 361.424 914.752 362.84H925.66C925.468 361.448 924.88 360.32 923.896 359.456C922.912 358.592 921.688 358.16 920.224 358.16ZM952.878 354.776V374H948.594V371.552C947.874 372.416 946.974 373.088 945.894 373.568C944.814 374.024 943.65 374.252 942.402 374.252C939.834 374.252 937.806 373.544 936.318 372.128C934.854 370.688 934.122 368.564 934.122 365.756V354.776H938.622V365.144C938.622 366.872 939.006 368.168 939.774 369.032C940.566 369.872 941.682 370.292 943.122 370.292C944.73 370.292 946.002 369.8 946.938 368.816C947.898 367.808 948.378 366.368 948.378 364.496V354.776H952.878ZM963.054 357.584C964.35 355.568 966.63 354.56 969.894 354.56V358.844C969.51 358.772 969.162 358.736 968.85 358.736C967.098 358.736 965.73 359.252 964.746 360.284C963.762 361.292 963.27 362.756 963.27 364.676V374H958.77V354.776H963.054V357.584ZM808.22 412.168H795.62L793.136 418H788.312L799.652 392.8H804.26L815.636 418H810.74L808.22 412.168ZM806.672 408.496L801.92 397.48L797.204 408.496H806.672ZM836.669 398.776V418H832.385V415.552C831.665 416.416 830.765 417.088 829.685 417.568C828.605 418.024 827.441 418.252 826.193 418.252C823.625 418.252 821.597 417.544 820.109 416.128C818.645 414.688 817.913 412.564 817.913 409.756V398.776H822.413V409.144C822.413 410.872 822.797 412.168 823.565 413.032C824.357 413.872 825.473 414.292 826.913 414.292C828.521 414.292 829.793 413.8 830.729 412.816C831.689 411.808 832.169 410.368 832.169 408.496V398.776H836.669ZM861.389 391.288V418H857.069V415.516C856.325 416.428 855.401 417.112 854.297 417.568C853.217 418.024 852.017 418.252 850.697 418.252C848.849 418.252 847.181 417.844 845.693 417.028C844.229 416.212 843.077 415.06 842.237 413.572C841.397 412.06 840.977 410.332 840.977 408.388C840.977 406.444 841.397 404.728 842.237 403.24C843.077 401.752 844.229 400.6 845.693 399.784C847.181 398.968 848.849 398.56 850.697 398.56C851.969 398.56 853.133 398.776 854.189 399.208C855.245 399.64 856.145 400.288 856.889 401.152V391.288H861.389ZM851.237 414.4C852.317 414.4 853.289 414.16 854.153 413.68C855.017 413.176 855.701 412.468 856.205 411.556C856.709 410.644 856.961 409.588 856.961 408.388C856.961 407.188 856.709 406.132 856.205 405.22C855.701 404.308 855.017 403.612 854.153 403.132C853.289 402.628 852.317 402.376 851.237 402.376C850.157 402.376 849.185 402.628 848.321 403.132C847.457 403.612 846.773 404.308 846.269 405.22C845.765 406.132 845.513 407.188 845.513 408.388C845.513 409.588 845.765 410.644 846.269 411.556C846.773 412.468 847.457 413.176 848.321 413.68C849.185 414.16 850.157 414.4 851.237 414.4ZM867.276 398.776H871.776V418H867.276V398.776ZM869.544 395.608C868.728 395.608 868.044 395.356 867.492 394.852C866.94 394.324 866.664 393.676 866.664 392.908C866.664 392.14 866.94 391.504 867.492 391C868.044 390.472 868.728 390.208 869.544 390.208C870.36 390.208 871.044 390.46 871.596 390.964C872.148 391.444 872.424 392.056 872.424 392.8C872.424 393.592 872.148 394.264 871.596 394.816C871.068 395.344 870.384 395.608 869.544 395.608ZM886.322 418.252C884.378 418.252 882.626 417.832 881.066 416.992C879.506 416.152 878.282 414.988 877.394 413.5C876.53 411.988 876.098 410.284 876.098 408.388C876.098 406.492 876.53 404.8 877.394 403.312C878.282 401.824 879.506 400.66 881.066 399.82C882.626 398.98 884.378 398.56 886.322 398.56C888.29 398.56 890.054 398.98 891.614 399.82C893.174 400.66 894.386 401.824 895.25 403.312C896.138 404.8 896.582 406.492 896.582 408.388C896.582 410.284 896.138 411.988 895.25 413.5C894.386 414.988 893.174 416.152 891.614 416.992C890.054 417.832 888.29 418.252 886.322 418.252ZM886.322 414.4C887.978 414.4 889.346 413.848 890.426 412.744C891.506 411.64 892.046 410.188 892.046 408.388C892.046 406.588 891.506 405.136 890.426 404.032C889.346 402.928 887.978 402.376 886.322 402.376C884.666 402.376 883.298 402.928 882.218 404.032C881.162 405.136 880.634 406.588 880.634 408.388C880.634 410.188 881.162 411.64 882.218 412.744C883.298 413.848 884.666 414.4 886.322 414.4ZM918.358 398.776L910.114 418H905.47L897.226 398.776H901.906L907.882 413.032L914.038 398.776H918.358ZM921.171 398.776H925.671V418H921.171V398.776ZM923.439 395.608C922.623 395.608 921.939 395.356 921.387 394.852C920.835 394.324 920.559 393.676 920.559 392.908C920.559 392.14 920.835 391.504 921.387 391C921.939 390.472 922.623 390.208 923.439 390.208C924.255 390.208 924.939 390.46 925.491 390.964C926.043 391.444 926.319 392.056 926.319 392.8C926.319 393.592 926.043 394.264 925.491 394.816C924.963 395.344 924.279 395.608 923.439 395.608ZM937.517 418.252C935.957 418.252 934.433 418.048 932.945 417.64C931.457 417.232 930.269 416.716 929.381 416.092L931.109 412.672C931.973 413.248 933.005 413.716 934.205 414.076C935.429 414.412 936.629 414.58 937.805 414.58C940.493 414.58 941.837 413.872 941.837 412.456C941.837 411.784 941.489 411.316 940.793 411.052C940.121 410.788 939.029 410.536 937.517 410.296C935.933 410.056 934.637 409.78 933.629 409.468C932.645 409.156 931.781 408.616 931.037 407.848C930.317 407.056 929.957 405.964 929.957 404.572C929.957 402.748 930.713 401.296 932.225 400.216C933.761 399.112 935.825 398.56 938.417 398.56C939.737 398.56 941.057 398.716 942.377 399.028C943.697 399.316 944.777 399.712 945.617 400.216L943.889 403.636C942.257 402.676 940.421 402.196 938.381 402.196C937.061 402.196 936.053 402.4 935.357 402.808C934.685 403.192 934.349 403.708 934.349 404.356C934.349 405.076 934.709 405.592 935.429 405.904C936.173 406.192 937.313 406.468 938.849 406.732C940.385 406.972 941.645 407.248 942.629 407.56C943.613 407.872 944.453 408.4 945.149 409.144C945.869 409.888 946.229 410.944 946.229 412.312C946.229 414.112 945.449 415.552 943.889 416.632C942.329 417.712 940.205 418.252 937.517 418.252ZM968.716 398.776V418H964.432V415.552C963.712 416.416 962.812 417.088 961.732 417.568C960.652 418.024 959.488 418.252 958.24 418.252C955.672 418.252 953.644 417.544 952.156 416.128C950.692 414.688 949.96 412.564 949.96 409.756V398.776H954.46V409.144C954.46 410.872 954.844 412.168 955.612 413.032C956.404 413.872 957.52 414.292 958.96 414.292C960.568 414.292 961.84 413.8 962.776 412.816C963.736 411.808 964.216 410.368 964.216 408.496V398.776H968.716ZM992.68 408.496C992.68 408.808 992.656 409.252 992.608 409.828H977.524C977.788 411.244 978.472 412.372 979.576 413.212C980.704 414.028 982.096 414.436 983.752 414.436C985.864 414.436 987.604 413.74 988.972 412.348L991.384 415.12C990.52 416.152 989.428 416.932 988.108 417.46C986.788 417.988 985.3 418.252 983.644 418.252C981.532 418.252 979.672 417.832 978.064 416.992C976.456 416.152 975.208 414.988 974.32 413.5C973.456 411.988 973.024 410.284 973.024 408.388C973.024 406.516 973.444 404.836 974.284 403.348C975.148 401.836 976.336 400.66 977.848 399.82C979.36 398.98 981.064 398.56 982.96 398.56C984.832 398.56 986.5 398.98 987.964 399.82C989.452 400.636 990.604 401.8 991.42 403.312C992.26 404.8 992.68 406.528 992.68 408.496ZM982.96 402.16C981.52 402.16 980.296 402.592 979.288 403.456C978.304 404.296 977.704 405.424 977.488 406.84H988.396C988.204 405.448 987.616 404.32 986.632 403.456C985.648 402.592 984.424 402.16 982.96 402.16ZM997.003 391.288H1001.5V418H997.003V391.288Z" fill="#EFEFEF"/>
<path d="M1134.33 234.8H1145.34C1148.03 234.8 1150.42 235.328 1152.51 236.384C1154.6 237.416 1156.22 238.892 1157.37 240.812C1158.52 242.708 1159.1 244.904 1159.1 247.4C1159.1 249.896 1158.52 252.104 1157.37 254.024C1156.22 255.92 1154.6 257.396 1152.51 258.452C1150.42 259.484 1148.03 260 1145.34 260H1134.33V234.8ZM1145.13 256.04C1146.98 256.04 1148.6 255.692 1149.99 254.996C1151.4 254.276 1152.48 253.268 1153.23 251.972C1154 250.652 1154.38 249.128 1154.38 247.4C1154.38 245.672 1154 244.16 1153.23 242.864C1152.48 241.544 1151.4 240.536 1149.99 239.84C1148.6 239.12 1146.98 238.76 1145.13 238.76H1139.01V256.04H1145.13ZM1163.64 240.776H1168.14V260H1163.64V240.776ZM1165.91 237.608C1165.09 237.608 1164.41 237.356 1163.85 236.852C1163.3 236.324 1163.03 235.676 1163.03 234.908C1163.03 234.14 1163.3 233.504 1163.85 233C1164.41 232.472 1165.09 232.208 1165.91 232.208C1166.72 232.208 1167.41 232.46 1167.96 232.964C1168.51 233.444 1168.79 234.056 1168.79 234.8C1168.79 235.592 1168.51 236.264 1167.96 236.816C1167.43 237.344 1166.75 237.608 1165.91 237.608ZM1178.33 243.584C1179.62 241.568 1181.9 240.56 1185.17 240.56V244.844C1184.78 244.772 1184.44 244.736 1184.12 244.736C1182.37 244.736 1181 245.252 1180.02 246.284C1179.04 247.292 1178.54 248.756 1178.54 250.676V260H1174.04V240.776H1178.33V243.584ZM1206.88 250.496C1206.88 250.808 1206.86 251.252 1206.81 251.828H1191.73C1191.99 253.244 1192.67 254.372 1193.78 255.212C1194.91 256.028 1196.3 256.436 1197.95 256.436C1200.07 256.436 1201.81 255.74 1203.17 254.348L1205.59 257.12C1204.72 258.152 1203.63 258.932 1202.31 259.46C1200.99 259.988 1199.5 260.252 1197.85 260.252C1195.73 260.252 1193.87 259.832 1192.27 258.992C1190.66 258.152 1189.41 256.988 1188.52 255.5C1187.66 253.988 1187.23 252.284 1187.23 250.388C1187.23 248.516 1187.65 246.836 1188.49 245.348C1189.35 243.836 1190.54 242.66 1192.05 241.82C1193.56 240.98 1195.27 240.56 1197.16 240.56C1199.03 240.56 1200.7 240.98 1202.17 241.82C1203.65 242.636 1204.81 243.8 1205.62 245.312C1206.46 246.8 1206.88 248.528 1206.88 250.496ZM1197.16 244.16C1195.72 244.16 1194.5 244.592 1193.49 245.456C1192.51 246.296 1191.91 247.424 1191.69 248.84H1202.6C1202.41 247.448 1201.82 246.32 1200.83 245.456C1199.85 244.592 1198.63 244.16 1197.16 244.16ZM1220.02 260.252C1218.03 260.252 1216.24 259.832 1214.66 258.992C1213.08 258.152 1211.84 256.988 1210.95 255.5C1210.06 253.988 1209.62 252.284 1209.62 250.388C1209.62 248.492 1210.06 246.8 1210.95 245.312C1211.84 243.824 1213.06 242.66 1214.62 241.82C1216.21 240.98 1218.01 240.56 1220.02 240.56C1221.92 240.56 1223.58 240.944 1224.99 241.712C1226.43 242.48 1227.51 243.584 1228.23 245.024L1224.78 247.04C1224.22 246.152 1223.53 245.492 1222.69 245.06C1221.87 244.604 1220.97 244.376 1219.99 244.376C1218.31 244.376 1216.92 244.928 1215.81 246.032C1214.71 247.112 1214.16 248.564 1214.16 250.388C1214.16 252.212 1214.7 253.676 1215.78 254.78C1216.88 255.86 1218.28 256.4 1219.99 256.4C1220.97 256.4 1221.87 256.184 1222.69 255.752C1223.53 255.296 1224.22 254.624 1224.78 253.736L1228.23 255.752C1227.49 257.192 1226.4 258.308 1224.96 259.1C1223.54 259.868 1221.9 260.252 1220.02 260.252ZM1243.92 258.956C1243.4 259.388 1242.75 259.712 1241.98 259.928C1241.24 260.144 1240.44 260.252 1239.6 260.252C1237.49 260.252 1235.86 259.7 1234.71 258.596C1233.56 257.492 1232.98 255.884 1232.98 253.772V244.52H1229.81V240.92H1232.98V236.528H1237.48V240.92H1242.63V244.52H1237.48V253.664C1237.48 254.6 1237.71 255.32 1238.16 255.824C1238.62 256.304 1239.28 256.544 1240.14 256.544C1241.15 256.544 1241.99 256.28 1242.66 255.752L1243.92 258.956ZM1265.07 250.496C1265.07 250.808 1265.04 251.252 1264.99 251.828H1249.91C1250.17 253.244 1250.86 254.372 1251.96 255.212C1253.09 256.028 1254.48 256.436 1256.14 256.436C1258.25 256.436 1259.99 255.74 1261.36 254.348L1263.77 257.12C1262.91 258.152 1261.81 258.932 1260.49 259.46C1259.17 259.988 1257.69 260.252 1256.03 260.252C1253.92 260.252 1252.06 259.832 1250.45 258.992C1248.84 258.152 1247.59 256.988 1246.71 255.5C1245.84 253.988 1245.41 252.284 1245.41 250.388C1245.41 248.516 1245.83 246.836 1246.67 245.348C1247.53 243.836 1248.72 242.66 1250.23 241.82C1251.75 240.98 1253.45 240.56 1255.35 240.56C1257.22 240.56 1258.89 240.98 1260.35 241.82C1261.84 242.636 1262.99 243.8 1263.81 245.312C1264.65 246.8 1265.07 248.528 1265.07 250.496ZM1255.35 244.16C1253.91 244.16 1252.68 244.592 1251.67 245.456C1250.69 246.296 1250.09 247.424 1249.87 248.84H1260.78C1260.59 247.448 1260 246.32 1259.02 245.456C1258.03 244.592 1256.81 244.16 1255.35 244.16ZM1288 240.776V260H1283.72V257.552C1283 258.416 1282.1 259.088 1281.02 259.568C1279.94 260.024 1278.77 260.252 1277.52 260.252C1274.96 260.252 1272.93 259.544 1271.44 258.128C1269.98 256.688 1269.24 254.564 1269.24 251.756V240.776H1273.74V251.144C1273.74 252.872 1274.13 254.168 1274.9 255.032C1275.69 255.872 1276.8 256.292 1278.24 256.292C1279.85 256.292 1281.12 255.8 1282.06 254.816C1283.02 253.808 1283.5 252.368 1283.5 250.496V240.776H1288ZM1298.18 243.584C1299.47 241.568 1301.75 240.56 1305.02 240.56V244.844C1304.63 244.772 1304.28 244.736 1303.97 244.736C1302.22 244.736 1300.85 245.252 1299.87 246.284C1298.88 247.292 1298.39 248.756 1298.39 250.676V260H1293.89V240.776H1298.18V243.584ZM1146.21 298.168H1133.61L1131.12 304H1126.3L1137.64 278.8H1142.25L1153.62 304H1148.73L1146.21 298.168ZM1144.66 294.496L1139.91 283.48L1135.19 294.496H1144.66ZM1160.68 287.584C1161.98 285.568 1164.26 284.56 1167.52 284.56V288.844C1167.14 288.772 1166.79 288.736 1166.48 288.736C1164.72 288.736 1163.36 289.252 1162.37 290.284C1161.39 291.292 1160.9 292.756 1160.9 294.676V304H1156.4V284.776H1160.68V287.584ZM1183.6 302.956C1183.07 303.388 1182.42 303.712 1181.65 303.928C1180.91 304.144 1180.12 304.252 1179.28 304.252C1177.16 304.252 1175.53 303.7 1174.38 302.596C1173.23 301.492 1172.65 299.884 1172.65 297.772V288.52H1169.48V284.92H1172.65V280.528H1177.15V284.92H1182.3V288.52H1177.15V297.664C1177.15 298.6 1177.38 299.32 1177.84 299.824C1178.29 300.304 1178.95 300.544 1179.82 300.544C1180.82 300.544 1181.66 300.28 1182.34 299.752L1183.6 302.956ZM1187.3 284.776H1191.8V304H1187.3V284.776ZM1189.57 281.608C1188.75 281.608 1188.07 281.356 1187.51 280.852C1186.96 280.324 1186.69 279.676 1186.69 278.908C1186.69 278.14 1186.96 277.504 1187.51 277C1188.07 276.472 1188.75 276.208 1189.57 276.208C1190.38 276.208 1191.07 276.46 1191.62 276.964C1192.17 277.444 1192.45 278.056 1192.45 278.8C1192.45 279.592 1192.17 280.264 1191.62 280.816C1191.09 281.344 1190.41 281.608 1189.57 281.608ZM1203.64 304.252C1202.08 304.252 1200.56 304.048 1199.07 303.64C1197.58 303.232 1196.4 302.716 1195.51 302.092L1197.24 298.672C1198.1 299.248 1199.13 299.716 1200.33 300.076C1201.56 300.412 1202.76 300.58 1203.93 300.58C1206.62 300.58 1207.96 299.872 1207.96 298.456C1207.96 297.784 1207.62 297.316 1206.92 297.052C1206.25 296.788 1205.16 296.536 1203.64 296.296C1202.06 296.056 1200.76 295.78 1199.76 295.468C1198.77 295.156 1197.91 294.616 1197.16 293.848C1196.44 293.056 1196.08 291.964 1196.08 290.572C1196.08 288.748 1196.84 287.296 1198.35 286.216C1199.89 285.112 1201.95 284.56 1204.54 284.56C1205.86 284.56 1207.18 284.716 1208.5 285.028C1209.82 285.316 1210.9 285.712 1211.74 286.216L1210.02 289.636C1208.38 288.676 1206.55 288.196 1204.51 288.196C1203.19 288.196 1202.18 288.4 1201.48 288.808C1200.81 289.192 1200.48 289.708 1200.48 290.356C1200.48 291.076 1200.84 291.592 1201.56 291.904C1202.3 292.192 1203.44 292.468 1204.98 292.732C1206.51 292.972 1207.77 293.248 1208.76 293.56C1209.74 293.872 1210.58 294.4 1211.28 295.144C1212 295.888 1212.36 296.944 1212.36 298.312C1212.36 300.112 1211.58 301.552 1210.02 302.632C1208.46 303.712 1206.33 304.252 1203.64 304.252ZM1227.79 302.956C1227.26 303.388 1226.61 303.712 1225.84 303.928C1225.1 304.144 1224.31 304.252 1223.47 304.252C1221.36 304.252 1219.72 303.7 1218.57 302.596C1217.42 301.492 1216.84 299.884 1216.84 297.772V288.52H1213.68V284.92H1216.84V280.528H1221.34V284.92H1226.49V288.52H1221.34V297.664C1221.34 298.6 1221.57 299.32 1222.03 299.824C1222.48 300.304 1223.14 300.544 1224.01 300.544C1225.02 300.544 1225.86 300.28 1226.53 299.752L1227.79 302.956ZM1231.49 284.776H1235.99V304H1231.49V284.776ZM1233.76 281.608C1232.94 281.608 1232.26 281.356 1231.71 280.852C1231.15 280.324 1230.88 279.676 1230.88 278.908C1230.88 278.14 1231.15 277.504 1231.71 277C1232.26 276.472 1232.94 276.208 1233.76 276.208C1234.57 276.208 1235.26 276.46 1235.81 276.964C1236.36 277.444 1236.64 278.056 1236.64 278.8C1236.64 279.592 1236.36 280.264 1235.81 280.816C1235.28 281.344 1234.6 281.608 1233.76 281.608ZM1260.69 284.776V310.984H1256.19V301.66C1254.68 303.388 1252.62 304.252 1250.03 304.252C1248.16 304.252 1246.48 303.844 1244.99 303.028C1243.53 302.212 1242.38 301.06 1241.54 299.572C1240.72 298.084 1240.31 296.356 1240.31 294.388C1240.31 292.444 1240.73 290.728 1241.57 289.24C1242.41 287.752 1243.56 286.6 1245.03 285.784C1246.49 284.968 1248.16 284.56 1250.03 284.56C1251.35 284.56 1252.55 284.788 1253.63 285.244C1254.74 285.7 1255.66 286.384 1256.4 287.296V284.776H1260.69ZM1250.54 300.4C1252.19 300.4 1253.56 299.848 1254.64 298.744C1255.72 297.64 1256.26 296.188 1256.26 294.388C1256.26 292.588 1255.72 291.136 1254.64 290.032C1253.56 288.928 1252.19 288.376 1250.54 288.376C1248.88 288.376 1247.51 288.928 1246.43 290.032C1245.38 291.136 1244.85 292.588 1244.85 294.388C1244.85 296.188 1245.38 297.64 1246.43 298.744C1247.51 299.848 1248.88 300.4 1250.54 300.4ZM1285.19 284.776V304H1280.9V301.552C1280.18 302.416 1279.28 303.088 1278.2 303.568C1277.12 304.024 1275.96 304.252 1274.71 304.252C1272.14 304.252 1270.12 303.544 1268.63 302.128C1267.16 300.688 1266.43 298.564 1266.43 295.756V284.776H1270.93V295.144C1270.93 296.872 1271.32 298.168 1272.08 299.032C1272.88 299.872 1273.99 300.292 1275.43 300.292C1277.04 300.292 1278.31 299.8 1279.25 298.816C1280.21 297.808 1280.69 296.368 1280.69 294.496V284.776H1285.19ZM1309.15 294.496C1309.15 294.808 1309.13 295.252 1309.08 295.828H1293.99C1294.26 297.244 1294.94 298.372 1296.05 299.212C1297.17 300.028 1298.57 300.436 1300.22 300.436C1302.33 300.436 1304.07 299.74 1305.44 298.348L1307.85 301.12C1306.99 302.152 1305.9 302.932 1304.58 303.46C1303.26 303.988 1301.77 304.252 1300.11 304.252C1298 304.252 1296.14 303.832 1294.53 302.992C1292.93 302.152 1291.68 300.988 1290.79 299.5C1289.93 297.988 1289.49 296.284 1289.49 294.388C1289.49 292.516 1289.91 290.836 1290.75 289.348C1291.62 287.836 1292.81 286.66 1294.32 285.82C1295.83 284.98 1297.53 284.56 1299.43 284.56C1301.3 284.56 1302.97 284.98 1304.43 285.82C1305.92 286.636 1307.07 287.8 1307.89 289.312C1308.73 290.8 1309.15 292.528 1309.15 294.496ZM1299.43 288.16C1297.99 288.16 1296.77 288.592 1295.76 289.456C1294.77 290.296 1294.17 291.424 1293.96 292.84H1304.87C1304.67 291.448 1304.09 290.32 1303.1 289.456C1302.12 288.592 1300.89 288.16 1299.43 288.16Z" fill="#EFEFEF"/>
<defs>
<linearGradient id="paint0_linear" x1="1275.14" y1="463" x2="1275.14" y2="571.75" gradientUnits="userSpaceOnUse">
<stop stop-color="#D39E99"/>
<stop offset="1" stop-color="#915F4F"/>
</linearGradient>
<linearGradient id="paint1_linear" x1="1306.25" y1="463.5" x2="1306.25" y2="571.75" gradientUnits="userSpaceOnUse">
<stop stop-color="#BF9F7B"/>
<stop offset="1" stop-color="#DFB6A8"/>
</linearGradient>
<linearGradient id="paint2_linear" x1="1207.14" y1="107" x2="1207.14" y2="215.75" gradientUnits="userSpaceOnUse">
<stop stop-color="#91CC97"/>
<stop offset="1" stop-color="#569863"/>
</linearGradient>
<linearGradient id="paint3_linear" x1="1238.25" y1="107.5" x2="1238.25" y2="215.75" gradientUnits="userSpaceOnUse">
<stop stop-color="#ACE2B1"/>
<stop offset="1" stop-color="#7EC187"/>
</linearGradient>
<linearGradient id="paint4_linear" x1="882.143" y1="221" x2="882.143" y2="329.75" gradientUnits="userSpaceOnUse">
<stop stop-color="#B29FD8"/>
<stop offset="1" stop-color="#7B62A2"/>
</linearGradient>
<linearGradient id="paint5_linear" x1="913.25" y1="221.5" x2="913.25" y2="329.75" gradientUnits="userSpaceOnUse">
<stop stop-color="#BCA8E0"/>
<stop offset="1" stop-color="#8668B2"/>
</linearGradient>
<linearGradient id="paint6_linear" x1="368.143" y1="206" x2="368.143" y2="314.75" gradientUnits="userSpaceOnUse">
<stop stop-color="#99ADD2"/>
<stop offset="1" stop-color="#506A92"/>
</linearGradient>
<linearGradient id="paint7_linear" x1="399.25" y1="206.5" x2="399.25" y2="314.75" gradientUnits="userSpaceOnUse">
<stop stop-color="#ABB7E1"/>
<stop offset="1" stop-color="#7B88BF"/>
</linearGradient>
</defs>
</svg>
