<svg width="1746" height="869" viewBox="0 0 1746 869" fill="none" xmlns="http://www.w3.org/2000/svg">
<g clip-path="url(#clip0)">
<path d="M1707.83 382.222C1705.35 382.394 1703.46 382.075 1702.34 381.885C1701.26 381.7 1700.78 381.631 1699.94 381.763C1699.38 381.852 1698.72 382.027 1697.98 382.273C1696.49 382.784 1695.38 383.153 1694.55 383.439C1693.1 384.786 1690.88 386.528 1686.57 389.29C1686.73 389.402 1686.88 389.519 1687.03 389.637C1688.48 389.643 1689.99 389.747 1691.59 389.946C1694.04 388.3 1697.45 386.513 1702.31 384.606C1704.04 383.927 1705.42 383.387 1706.51 382.957C1706.95 382.692 1707.39 382.448 1707.83 382.222ZM280.309 70.7904C303.176 67.1856 312.95 70.3819 321.574 73.1989C324.681 74.2166 327.621 75.1766 331.369 75.8951C345.805 78.6519 349.305 81.501 355.247 87.1782C356.812 88.6672 358.667 90.4461 361.25 92.6174C367.768 98.0997 368.837 100.553 370.038 104.104C370.848 106.504 371.862 109.49 377.208 116.46C385.472 127.25 427.116 133.913 441.048 135.396L442.579 135.558L457.928 140.477L487.377 140.542L507.017 135.485C514.137 133.651 521.175 132.179 527.903 131.118C539.682 129.261 546.792 129.255 547.569 129.26L548.252 129.263L601.251 133.643L627.958 142.66L634.713 154.316L634.827 155.037C634.833 155.036 636.85 163.098 654.705 173.363C664.784 179.16 667.425 178.744 669.002 178.495C671.775 178.058 676.171 176.599 681.744 174.757C686.446 173.197 692.306 171.256 699.496 169.162C701.861 168.471 704.014 167.843 705.877 167.3C707.705 164.206 712.142 161.3 716.881 158.569C723.978 154.483 725.756 152.953 727.057 151.842C731.231 148.27 733.828 146.867 754.323 138.764C765.17 134.476 775.135 131.596 783.953 130.206C799.21 127.801 807.261 130.396 810.101 131.68L826.046 137.788C836.695 141.871 840.888 147.078 841.911 151.644L856.465 152.036C860.825 147.461 869.634 137.202 884.58 115.733C896.138 99.1222 901.552 92.6789 912.636 90.9317C917.73 90.1286 921.675 90.9503 924.553 91.5476C927.653 92.1936 930.102 92.7039 935.197 91.9007C937.662 91.5121 940.485 90.8389 943.588 89.9099C949.123 88.2383 955.142 86.89 961.478 85.8913C997.996 80.1345 1036.71 87.3129 1041.96 88.3493L1090.42 94.9007C1120.63 98.9879 1121.21 99.0646 1120.85 104.164L1120.85 104.168C1122.3 104.707 1124.3 105.402 1127.05 106.272C1164.79 118.224 1170.32 137.16 1170.53 137.959L1177.44 157.349L1180.28 175.343L1187.6 189.041C1193.07 193.058 1200.95 197.53 1204.95 198.298C1208.92 196.739 1216.24 193.988 1231.35 189.806C1230.4 188.724 1229.75 187.434 1229.5 185.891C1228.61 180.214 1228.4 178.867 1231.01 176.111L1231.01 176.112C1230.97 176.118 1231.78 174.677 1232.97 169.501C1236.19 155.393 1250.03 151.741 1255.82 150.828C1258.43 150.418 1260.81 150.301 1262.8 150.329L1291.77 139.887L1337.79 152.628L1356.7 174.948L1356.51 187.491C1356.47 189.46 1356.58 190.907 1356.73 191.951L1390.44 190.192L1402.03 188.365L1403.43 188.347C1408.37 188.279 1452.26 187.846 1471.74 193.124C1492.46 198.732 1483.69 210.18 1477.29 218.538C1474.22 222.544 1470.73 227.085 1468.19 232.354C1467.57 233.619 1467.08 234.694 1466.7 235.604C1468.09 235.328 1469.58 235.052 1471.15 234.805L1499.52 230.332L1524.79 232.103L1557.94 230.54L1564.9 234.173L1577.15 232.243L1585.77 242.17L1580.71 254.363L1582.68 254.784L1612.24 248.362L1628.22 255.603L1648.35 270.8L1640.99 284.989L1631.1 300.039L1629.43 314.922C1628.86 320.099 1627.77 329.731 1614.63 331.802C1612.86 332.081 1611.15 332.156 1609.53 332.029L1600.32 338.38L1567.55 351.385L1540.06 362.473L1532.45 368.721L1522.57 383.654L1523.71 390.841L1536.34 400.482L1593.14 392.256L1598.06 390.891L1624.06 381.249L1675.09 359.265L1712.01 357.021L1718.32 368.841C1720.28 372.503 1721.58 374.925 1718.25 378.142L1717.54 378.824C1717.84 378.77 1718.14 378.72 1718.44 378.672C1731.81 376.565 1741.83 382.885 1743.71 384.17L1745.85 385.645L1745.94 387.75C1745.96 388.28 1746.43 400.859 1743.46 410.963C1742.67 413.677 1739.01 420.265 1722.41 422.883C1710.94 424.69 1696.21 424.076 1688.46 423.551C1668.69 432.469 1639.22 447.528 1632.69 455.622C1631.14 457.542 1630.41 458.725 1630.06 459.4C1630.12 459.421 1630.18 459.446 1630.23 459.472C1633.25 460.861 1638.31 463.182 1640.35 468.814C1641.31 471.466 1643.19 473.116 1645.8 475.404C1650.49 479.516 1656.33 484.636 1658.2 496.514C1658.98 501.444 1661.34 516.454 1643.04 519.34C1642.64 519.402 1642.26 519.453 1641.89 519.494L1604.72 537.36C1595.52 541.781 1588.24 544.312 1581.8 545.327C1574.64 546.455 1568.5 545.64 1564.5 543.035C1559.88 540.024 1559.34 535.2 1560.27 530.622C1548.01 532.611 1530.35 535.861 1511.6 540.591C1487.33 546.706 1489.51 557.8 1489.84 559.044L1489.92 559.428L1490.99 566.199C1494.83 568.883 1503.91 575.442 1515.78 585.426C1523.1 591.581 1525.41 597.781 1522.64 603.86C1520.63 608.255 1516.4 611.457 1513.1 613.408L1506.28 625.549L1505.34 626.423C1504.9 626.831 1494.21 636.643 1468.97 651.993C1457.04 659.246 1451.87 661.142 1447.39 661.848C1442.55 662.611 1438.11 661.857 1435.52 659.828C1434.69 659.173 1434.1 658.44 1433.75 657.632C1417.31 657.066 1383.56 655.493 1344.12 651.349C1304.64 647.199 1296.42 644.903 1297.8 638.403C1297.82 638.32 1297.84 638.236 1297.87 638.148L1276.92 622.797L1260.27 611.208C1249.33 611.059 1218.06 611.102 1189.59 615.594C1187.44 615.934 1185.29 616.299 1183.18 616.693C1180.44 617.201 1178.31 617.669 1176.64 618.078C1177.24 618.274 1177.82 618.444 1178.32 618.57L1180.4 619.085L1196.49 630.878L1229.48 631.252L1232.11 633.451C1233.14 634.316 1238.25 639.253 1238.06 651.621C1238.06 651.679 1238.06 651.736 1238.06 651.797C1241.03 650.617 1243.95 649.803 1246.89 649.341C1255.1 648.046 1261.5 649.894 1264.97 652.567L1305.8 665.807L1300.25 671.643C1299.13 672.821 1288.3 683.724 1254.13 702.614C1245.99 707.113 1240.25 710.23 1237.04 711.901C1236.68 712.153 1236.25 712.446 1235.72 712.801C1230.67 716.843 1209.39 747.046 1191.87 773.805L1190.19 776.37L1159.41 788.141L1120.83 797.776L1080.69 801.293L1039.66 790.363C1033.62 789.358 1026.97 788.493 1023.9 788.295C1018.7 789.914 1004.03 795.258 991.424 800.022L975.829 809.642L935.496 817.994L885.636 808.215L863.715 795.767L842.923 782.889L835.582 769.855L839.167 749.926L856.263 731.582L889.293 722.048L900.276 714.482C901.591 709.688 904.78 697.939 906.742 689.401C902.884 689.65 897.754 689.787 892.571 688.553C892.486 688.533 892.256 688.478 891.522 688.594C889.518 688.91 878.392 691.5 855.595 711.615C848.378 717.976 840.383 721.885 831.821 723.235C811.8 726.391 799.939 714.251 796.076 709.398L773.289 701.337L757.765 697.821L749.567 699.114L717.356 712.356L709.688 737.291L700.672 754.814C695.562 764.741 694.347 767.101 686.383 768.357C685.245 768.536 683.755 768.633 682.199 768.536C681.284 770.98 682.549 773.198 682.635 773.335L682.875 773.744L683.053 774.25C683.11 774.425 688.759 792.164 696.481 806.065C707.006 825.009 644.561 844.945 625.173 850.6L617.593 852.812L600.062 841.566L594.659 834.897L594.081 835.008C593.035 837.735 591.646 841.727 590.214 846.858C588.441 853.187 581.477 857.898 571.583 859.457C560.163 861.258 547.91 858.1 545.573 857.451L544.054 857.032L532.606 849.917L537.608 840.789L541.438 832.591C540.066 831.914 536.93 831.784 532.817 832.264C533.265 832.741 533.768 833.192 534.168 833.475L538.148 836.292L524.168 854.681L498.422 866.334L486.103 868.276L483.941 868.11C483.074 868.045 462.664 866.367 452.532 855.502C447.205 849.796 448.958 845.074 451.368 842.119C456.177 836.208 466.015 833.888 468.548 833.378C469.351 833.141 474.493 831.487 484.515 825.452C486.433 824.294 487.257 823.6 487.581 823.287C487.343 822.774 486.609 821.819 486.052 821.097C484.723 819.37 483.034 817.165 481.961 814.242C480.723 814.864 479.437 815.557 478.304 816.215C476.281 818.74 471.671 824.58 469.514 828.032C464.872 835.448 454.58 837.071 451.193 837.604C448.557 838.02 445.609 838.337 442.2 838.7C439.251 839.014 435.768 839.385 431.628 839.916C410.916 842.574 403.42 836.067 396.18 829.776C393.861 827.761 391.238 825.479 387.902 823.121C376.148 814.801 376.011 810.045 376.779 802.968C377.02 800.68 377.299 798.088 377.013 794.679L376.898 793.283C375.856 781.086 375.545 777.409 380.46 768.063C382.371 764.421 382.43 762.277 382.494 759.796C382.557 757.385 382.628 754.655 384.377 751.055C386.028 747.649 385.921 746.598 385.437 741.535C385.283 739.887 385.09 737.923 384.93 735.467C384.881 734.71 384.824 734.128 384.765 733.681C382.389 733.411 379.218 732.981 375.217 731.99C374.808 732.95 374.394 734.392 374.066 735.535C373.211 738.513 372.157 742.222 369.625 746.589C369.166 747.383 368.822 748.052 368.567 748.612L369.133 748.651L373.14 774.068C373.547 776.656 372.466 780.379 371.22 784.688C370.647 786.645 370.063 788.64 369.688 790.401C368.462 796.097 362.308 799.028 356.951 799.872C351.953 800.66 347.851 799.692 345.075 798.589L336.283 798.296L335.888 798.268C332.757 798.019 323.671 797.343 319.273 797.197C303.045 796.66 306.221 788.052 309.901 778.085L312.057 772.185C312.876 769.941 313.477 768.315 313.532 767.921C313.526 767.807 313.5 767.647 313.478 767.432C313.321 766.027 313.02 763.415 313.543 756.111C314.606 741.205 297.067 720.137 296.882 719.927L295.839 718.679L296.403 695.421L296.689 694.681C296.859 694.241 300.981 683.641 312.515 659.842C313.535 657.728 314.259 655.992 314.769 654.565L306.703 658.835L305.794 646.855L302.402 625.336C302.176 623.904 300.346 622.917 292.627 619.32C285.09 615.811 273.706 610.505 258.26 600.679C248.864 594.704 243.646 593.687 241.939 593.522C241.286 594.149 240.508 595.323 240.215 596.202L238.52 601.253L230.02 602.663L201.978 607.084C182.407 610.169 176.071 609.022 169.699 601.241C167.093 598.07 163.163 593.277 150.987 586.464C137.019 578.648 131.973 575.21 134.382 570.063C136.44 565.649 143.086 563.803 145.584 563.107C145.874 563.024 146.19 562.954 146.513 562.856C146.61 562.549 146.724 562.014 146.695 561.196C146.38 551.426 149.2 546.59 151.934 541.915C153.872 538.591 155.88 535.159 157.154 528.845C158.363 522.893 158.363 522.893 148.551 519.528C141.631 517.158 131.178 513.575 117.793 506.312C104.242 498.957 98.8743 495.036 100.701 489.785C102.312 485.164 108.822 482.788 112.319 481.508C116.577 479.95 118.928 479.093 120.005 474.935C124.398 457.986 135.831 455.164 161.28 450.39C171.57 448.459 185.663 445.814 204.771 441.123C257.675 428.134 285.322 378.201 288.1 372.955L289.819 366.312L273.533 346.98C270.066 345.858 263.98 344.222 257.947 343.629L259.104 344.601L233.104 365.564L228.792 366.895L226.866 367.222C218.133 368.598 201.108 366.847 176.268 362.011C163.772 359.576 149.706 355.76 151.872 347.777C153.043 343.44 158.393 340.438 163.667 338.478L161.671 315.601C161.671 315.601 182.41 255.087 183.288 252.514C182.421 252.708 181.531 252.879 180.621 253.022C174 254.066 164.1 253.958 154.537 247.515C139.631 237.484 131.618 234.211 128.332 233.168L123.604 234.628L89.8553 206.255L89.6747 206.072C89.177 205.58 77.5144 193.697 65.6032 167.545C57.6914 150.183 58.2459 147.336 61.6893 144.124L64.7367 141.287L70.3057 140.308C71.0116 140.197 71.7055 140.121 72.3756 140.079L99.638 120.127L101.206 119.45C135.624 104.627 141.453 103.708 143.651 103.362C149.03 102.514 178.172 100.072 191.073 99.0117L217.017 87.9454L244.314 76.4645L280.309 70.7904Z" fill="#43865E"/>
<path d="M1498.36 237.23C1498.36 237.23 1487.14 238.998 1472.18 241.356C1457.23 243.713 1448.56 249.491 1457.23 231.587C1465.91 213.678 1483.58 204.277 1465.57 199.399C1447.56 194.52 1401.67 195.137 1401.67 195.137L1390.45 196.904L1348.64 199.088C1348.64 199.088 1344.9 199.677 1345.07 188.625C1345.25 177.565 1345.25 177.565 1345.25 177.565L1328.77 158.113L1290.7 147.573L1263.5 157.376C1263.5 157.376 1247.7 154.351 1244.29 169.224C1240.89 184.096 1239.36 174.412 1240.89 184.096C1242.42 193.776 1284.74 182.696 1242.42 193.776C1200.09 204.862 1209.95 206.616 1200.09 204.862C1190.24 203.106 1177.15 193.039 1177.15 193.039L1169 177.786L1166.11 159.494L1159.23 140.159C1159.23 140.159 1154.66 123.252 1120.37 112.397C1086.08 101.543 1135.03 108.159 1086.08 101.543C1037.14 94.9237 1037.14 94.9237 1037.14 94.9237C1037.14 94.9237 985.643 84.2974 947.229 95.8656C908.815 107.437 920.044 81.4074 895.047 117.322C870.051 153.241 861.382 159.016 861.382 159.016L829.972 158.176C829.972 158.176 835.039 149.941 818.728 143.689C802.411 137.442 802.411 137.442 802.411 137.442C802.411 137.442 791.876 131.384 759.408 144.22C726.946 157.056 745.132 150.879 724.054 163.021C702.976 175.167 735.953 165.56 702.976 175.167C669.994 184.778 667.107 190.745 646.038 178.63C624.969 166.515 623.443 156.831 623.443 156.831L618.176 147.737L595.913 140.222L545.432 136.05C545.432 136.05 532.005 135.96 509.909 141.649C487.82 147.341 487.82 147.34 487.82 147.34L453.316 147.264L437.175 142.09C437.175 142.09 378.705 135.87 366.644 120.129C354.583 104.388 362.566 106.436 351.528 97.1511C340.479 87.8676 342.013 85.4201 326.205 82.3994C310.401 79.3746 307.511 73.2164 281.342 77.3417C255.162 81.4687 247.687 82.647 247.687 82.647L222.53 93.2267L193.803 105.477C193.803 105.477 150.292 109.029 144.684 109.913C139.077 110.797 106.773 124.709 106.773 124.709L74.1338 148.598C74.1338 148.598 64.9635 139.018 76.6781 164.738C88.3985 190.457 99.7807 201.894 99.7807 201.894L128.498 226.034C128.498 226.034 135.803 223.778 163.672 242.54C191.542 261.305 213.373 201.379 195 255C176.627 308.615 173.168 314.92 173.168 314.92L175.541 342.112C175.541 342.112 143.923 348.198 181.481 355.511C219.038 362.822 226.348 360.565 226.348 360.565L245.051 345.49C245.051 345.49 236.213 338.061 251.338 336.781C266.468 335.497 282.779 341.745 282.779 341.745L301.641 364.136L299.257 373.331C299.257 373.331 270.178 431.941 207.456 447.344C144.735 462.747 136.067 456.392 131.306 474.785C126.54 493.179 93.2141 482.995 126.269 500.94C159.336 518.882 171.745 512.515 168.507 528.462C165.274 544.411 157.624 544.513 158.126 559.87C158.633 575.227 128.046 563.508 159.565 581.143C191.09 598.778 172.904 604.952 200.946 600.532C228.988 596.111 228.988 596.111 228.988 596.111C228.988 596.111 235.289 575.273 267.231 595.595C299.18 615.923 312.601 616.01 313.788 623.541C314.976 631.072 317.181 645.06 317.181 645.06C317.181 645.06 335.033 636.733 323.47 660.606C311.902 684.484 307.815 695.052 307.815 695.052L307.303 716.082C307.303 716.082 326.159 738.471 324.968 755.196C323.773 771.926 327.005 762.043 322.324 774.911C317.649 787.778 316.115 790.222 321.892 790.416C327.674 790.605 339.313 791.527 339.313 791.527L350.872 791.91C350.872 791.91 357.243 795.868 358.346 790.732C359.456 785.595 362.179 778.552 361.755 775.863C361.331 773.173 360.482 767.791 360.482 767.791L358.447 754.881C358.447 754.881 353.604 754.543 358.873 745.443C364.142 736.341 362.191 730.034 368.398 726.85C374.6 723.667 356.336 717.172 374.6 723.667C392.869 730.16 395.676 723.654 396.354 734.022C397.031 744.387 398.219 745.855 395.327 751.823C392.436 757.795 395.751 760.579 391.331 768.995C386.905 777.411 387.329 780.1 388.43 793.157C389.532 806.215 383.161 808.32 397.18 818.24C411.194 828.161 412.381 835.692 431.166 833.281C449.946 830.872 455.808 831.603 458.87 826.712C461.931 821.818 469.158 812.96 469.158 812.96C469.158 812.96 490.915 799.056 492.526 809.276C494.137 819.497 506.8 820.808 491.924 829.77C477.047 838.729 470.506 839.76 470.506 839.76C470.506 839.76 454.697 842.803 462.77 851.454C470.843 860.106 487.325 861.368 487.325 861.368L494.805 860.189L515.373 850.88L524.892 838.355C524.892 838.355 510.872 828.435 531.525 825.733C552.177 823.028 553.449 831.097 553.449 831.097L548.435 841.811L545.453 847.243L551.829 851.2C551.829 851.2 575.875 857.884 578.937 846.927C582 835.969 584.892 830.001 584.892 830.001L601.634 826.808L609.956 837.075L621.684 844.596C621.684 844.596 693.584 823.617 685.555 809.17C677.53 794.72 671.804 776.604 671.804 776.604C671.804 776.604 666.071 767.584 677.922 760.753C689.78 753.922 680.976 771.022 689.78 753.922C698.583 736.822 698.583 736.822 698.583 736.822L707.133 709.012L746.27 692.919L760.29 690.709L779.663 695.098L805.539 704.25C805.539 704.25 822.485 729.695 846.455 708.55C870.425 687.404 887.891 679.692 898.346 682.177C908.796 684.665 920.654 677.834 918.101 688.987C915.547 700.139 910.951 716.579 910.951 716.579L895.395 727.297L863.816 736.411L850.263 750.953L847.2 767.973L853.188 778.609L872.339 790.476L892.818 802.104L937.308 810.832L970.703 803.913L985.113 795.028C985.113 795.028 1019.01 782.177 1023.23 781.546C1027.44 780.909 1045.15 783.907 1045.15 783.907L1084.15 794.297L1119.59 791.195L1155.54 782.218L1181.3 772.37C1181.3 772.37 1219.13 714.583 1227.8 708.805C1236.47 703.027 1213.69 716.542 1247.18 698.032C1280.67 679.521 1290.53 669.145 1290.53 669.145L1256.2 658.018C1256.2 658.018 1251.27 651.076 1235.63 661.26C1219.99 671.444 1236.64 679.845 1219.99 671.444C1203.34 663.04 1203.34 663.04 1203.34 663.04C1203.34 663.04 1190.19 675.041 1213.48 664.752C1236.77 654.468 1226.46 663.808 1226.63 652.756C1226.8 641.699 1222.39 637.988 1222.39 637.988L1189.75 637.62L1172.42 624.915C1172.42 624.915 1142.51 617.5 1181.61 610.236C1220.7 602.969 1266.92 604.505 1266.92 604.505L1286.3 617.989L1312.29 637.046C1312.29 637.046 1293.43 638.918 1347.98 644.651C1402.54 650.386 1446.73 651.139 1446.73 651.139C1446.73 651.139 1437.03 662.591 1461.52 647.703C1485.99 632.819 1496.02 623.519 1496.02 623.519L1503.5 610.21C1503.5 610.21 1521.52 602.962 1506.06 589.963C1490.6 576.959 1479.89 569.828 1479.89 569.828L1478.54 561.222C1478.54 561.222 1473.79 543.227 1508.8 534.398C1543.81 525.571 1575.04 521.75 1575.04 521.75C1575.04 521.75 1557.57 552.07 1598.54 532.378C1639.5 512.692 1639.5 512.692 1639.5 512.692C1639.5 512.692 1649.53 515.523 1646.82 498.309C1644.1 481.094 1632.55 480.71 1629.15 471.321C1625.76 461.932 1611.3 467.517 1622.53 453.618C1633.75 439.723 1687.08 416.429 1687.08 416.429C1687.08 416.429 1729.4 420.509 1732.21 410.971C1735.01 401.43 1734.51 389.104 1734.51 389.104C1734.51 389.104 1724.73 382.378 1716.04 386.228C1707.36 390.077 1724.95 383.168 1707.36 390.078C1689.76 396.988 1701.62 399.252 1689.76 396.988C1677.91 394.72 1683.14 400.51 1677.91 394.72C1672.69 388.926 1651.65 401.34 1672.69 388.926C1693.72 376.515 1680.08 381.146 1693.72 376.515C1707.36 371.884 1711.44 379.51 1707.36 371.884C1703.29 364.257 1703.29 364.257 1703.29 364.257L1677.67 365.815L1629.22 386.683L1602.07 396.752L1595.18 398.663L1530.55 408.025L1512.59 394.32L1510.93 383.83L1522.54 366.286L1532.72 357.923L1562.44 345.938L1593.55 333.592L1609.1 322.867C1609.1 322.867 1616.24 331.667 1618.03 315.676C1619.82 299.678 1619.82 299.678 1619.82 299.678L1630.25 283.812L1635.76 273.181L1619.45 260.87L1608.61 255.96L1580.83 261.996L1567.44 259.144L1573.69 244.098L1570.18 240.056L1560.37 241.603L1552.53 237.513L1522.58 238.928L1498.36 237.23Z" fill="#72B47C"/>
<path d="M528 356.295L501.918 332.13L526.049 309.956L511.045 292L485.034 316.488L460.732 293.975L444 310.337L468.26 332.277L446.036 353.196L458.526 372L485.144 347.541L510.225 370.22L528 356.295Z" fill="#508059"/>
<path d="M1071.5 354C1132.5 593.5 880.932 587.495 794.499 520C667.372 420.727 790.17 411.64 763.8 337.565C740.829 273.045 594.389 387.559 515.5 337.565" stroke="#508059" stroke-width="2.66667" stroke-miterlimit="10" stroke-dasharray="16.52 16.52"/>
<path d="M1100.6 352.298C1100.6 363.507 1091.51 372.597 1080.3 372.597C1069.09 372.597 1060 363.507 1060 352.298C1060 341.085 1069.09 332 1080.3 332C1091.51 332 1100.6 341.085 1100.6 352.298Z" fill="#508059"/>
<path d="M1439.08 220.65C1439.08 220.65 1409.5 203.142 1399.76 229.765C1397.74 226.538 1391.73 218.869 1380.05 219.343C1365.32 219.931 1362.36 231.218 1362.36 231.218H1376.72L1378.62 223.851L1380.52 231.218H1388.93C1382.03 232.821 1374.14 238.491 1373.87 256.04L1386.52 247.013C1386.52 247.013 1387.41 242.38 1387.77 242.619C1388.13 242.859 1390.03 244.759 1390.03 244.759L1399.6 237.71C1415.21 271.2 1401.31 328.492 1401.31 328.492H1413.78C1421.17 272.902 1410.5 245.373 1405.14 235.575L1420.79 228.485L1419.72 224.684L1424.35 227.063L1439.08 220.65" fill="#508059"/>
<path d="M1347.41 260.298L1356.03 248.022L1353.54 245.638L1358.07 245.373L1366.29 234.013C1366.29 234.013 1336.3 233.982 1340.78 258.315C1337.84 256.789 1329.92 253.692 1321.35 259.226C1310.54 266.212 1313.32 276.01 1313.32 276.01L1324.12 269.632L1322.28 263.255L1326.98 267.946L1333.29 264.213C1328.81 268.482 1325.4 276.244 1332.99 289.551L1338.5 277.155C1338.5 277.155 1337.11 273.277 1337.48 273.298C1337.85 273.318 1340.13 273.907 1340.13 273.907L1344.19 264.359C1370.79 282.601 1385.77 331.834 1385.77 331.834L1395.14 326.305C1376.02 281.237 1355.79 265.285 1347.41 260.298" fill="#508059"/>
<path d="M626.95 673.599C626.95 673.599 604.71 647.386 586.806 669.366C585.952 665.66 582.782 656.45 571.584 653.077C557.47 648.828 550.979 658.522 550.979 658.522L564.561 663.218L568.762 656.882L568.153 664.462L576.098 667.206C569.054 666.466 559.74 669.252 553.758 685.755L568.663 681.35C568.663 681.35 571.016 677.264 571.277 677.602C571.537 677.946 572.714 680.361 572.714 680.361L584.063 676.826C587.879 713.576 556.023 763.194 556.023 763.194L567.815 767.265C592.96 717.136 591.856 687.629 589.998 676.623L607.099 675.03L607.334 671.089L610.936 674.848L626.95 673.599" fill="#508059"/>
<path d="M527.364 681.131L539.509 672.338L537.937 669.282L542.31 670.505L553.795 662.457C553.795 662.457 525.448 652.628 521.741 677.091C519.461 674.686 512.985 669.173 503.072 671.604C490.578 674.675 490 684.843 490 684.843L502.297 682.344L502.64 675.717L505.545 681.683L512.735 680.22C507.112 682.786 501.349 689.018 504.171 704.074L513.422 694.151C513.422 694.151 513.38 690.033 513.724 690.174C514.073 690.32 516.025 691.616 516.025 691.616L522.991 683.916C542.164 709.847 540.243 761.267 540.243 761.267L550.91 759.101C547.563 710.269 533.642 688.581 527.364 681.131" fill="#508059"/>
<path d="M1456.08 531.647C1456.08 531.647 1426.51 514.144 1416.76 540.763C1414.75 537.54 1408.74 529.867 1397.06 530.34C1382.32 530.934 1379.36 542.215 1379.36 542.215H1393.73L1395.63 534.854L1397.53 542.215H1405.94C1399.03 543.819 1391.15 549.493 1390.88 567.043L1403.53 558.01C1403.53 558.01 1404.42 553.382 1404.78 553.622C1405.13 553.861 1407.04 555.761 1407.04 555.761L1416.6 548.707C1432.21 582.197 1418.32 639.495 1418.32 639.495H1430.79C1438.18 583.9 1427.5 556.376 1422.15 546.578L1437.8 539.487L1436.73 535.682L1441.35 538.061L1456.08 531.647" fill="#508059"/>
<path d="M1364.42 571.295L1373.03 559.025L1370.54 556.641L1375.08 556.37L1383.3 545.016C1383.3 545.016 1353.3 544.984 1357.79 569.317C1354.84 567.787 1346.93 564.694 1338.35 570.228C1327.54 577.209 1330.32 587.012 1330.32 587.012L1341.12 580.63L1339.28 574.258L1343.98 578.943L1350.29 575.216C1345.82 579.479 1342.41 587.247 1349.99 600.553L1355.5 588.153C1355.5 588.153 1354.12 584.279 1354.49 584.3C1354.86 584.321 1357.14 584.904 1357.14 584.904L1361.2 575.356C1387.79 593.603 1402.77 642.836 1402.77 642.836L1412.14 637.302C1393.03 592.239 1372.78 576.283 1364.42 571.295" fill="#508059"/>
<path d="M1301.11 48.9995C1299.88 48.9995 1293.52 48.8243 1288.77 45.3754C1285.84 43.2503 1284.6 41.3656 1284.35 38.6527C1282.87 35.6698 1283.39 32.678 1284.89 30.2056L1281 22.4144L1282.9 6.26803L1301.69 -0.000549316L1303.66 0.299232C1304.07 0.36453 1313.93 1.90199 1323.09 4.93537L1339.66 11.0882L1342 21.0105L1337.89 33.1885L1334.22 34.1234C1333.68 34.2629 1328.7 35.4739 1321.4 35.4739C1320.18 35.4739 1319.06 35.4383 1318.04 35.376L1316.26 40.3178L1303.59 48.9995H1301.11Z" fill="#43865E"/>
<path d="M1320.64 10.33C1311.94 7.46579 1302.36 5.99945 1302.36 5.99945L1289.3 10.33L1288 21.3854L1292.79 30.909C1292.79 30.909 1289.3 33.4728 1290.61 36.0396C1291.92 38.6035 1290.17 38.6035 1293.22 40.7985C1296.27 42.9994 1301.05 42.9995 1301.05 42.9995L1310.19 36.7713L1313.24 28.3452C1313.24 28.3452 1314.98 29.4457 1321.51 29.4457C1328.04 29.4457 1332.39 28.3452 1332.39 28.3452L1335 20.6537L1333.7 15.1573L1320.64 10.33" fill="#72B47C"/>
<path d="M1351.13 138.999C1350.19 138.999 1349.22 138.982 1348.21 138.944C1341.42 138.691 1337.71 136.248 1335.8 134.245C1333.74 132.087 1333.02 129.755 1332.81 127.957C1329.81 124.399 1325.14 118.353 1324.24 114.178C1323 108.41 1326.92 102.792 1328.19 101.161L1338.86 84.8011L1342.03 73.6805L1345.81 53.3004L1347.34 51.9443C1356.67 43.7152 1367.21 34.3242 1368.84 32.7052C1371.35 29.5898 1376.45 25.9994 1386.58 25.9994C1397.91 25.9994 1410.59 30.5337 1411.13 30.7279C1414.42 31.842 1419.44 35.955 1423.81 48.9275C1428 61.3742 1425.39 67.0136 1422.47 69.5585L1414.5 80.452L1393.88 93.2751L1383.33 100.384L1380.12 110.349C1379.84 111.738 1378.67 117.452 1377.47 121.544C1375.93 126.741 1370.67 133.895 1370.08 134.693L1368.84 136.365L1366.66 137.077C1366.06 137.276 1360.51 138.999 1351.13 138.999" fill="#43865E"/>
<path d="M1626.34 603.38C1628.16 603.509 1630.05 603.678 1632.01 603.893C1645.18 605.323 1652.06 610.582 1655.51 614.738C1659.22 619.213 1663.84 623.479 1664 626.999C1669.35 634.324 1674.06 647.078 1675.23 655.311C1676.84 666.683 1668.44 677.051 1665.74 680.042L1642.72 710.333L1635 731.488L1624.84 770.543L1621.66 772.964C1602.36 787.651 1580.56 804.428 1577.17 807.346C1571.84 813.047 1561.42 819.313 1541.71 817.908C1519.66 816.337 1495.61 805.774 1494.6 805.323C1488.34 802.703 1479.14 794.019 1472.43 768.221C1465.99 743.468 1471.86 732.879 1477.89 728.341L1494.92 708.292L1524 680.042L1545.5 664.499L1559.5 649.999C1560.23 647.341 1570.65 638.999 1572.67 633.625C1576.37 623.746 1590.25 612.467 1591.51 610.999L1597 606.041L1603 606.041C1604.2 605.737 1608.08 602.079 1626.34 603.38Z" fill="#43865E"/>
<path d="M1374.53 36.2481C1373.68 37.3557 1352.4 56.1015 1352.4 56.1015L1348.92 74.8533L1345.45 86.9892L1334.16 104.269C1334.16 104.269 1330.26 109.049 1331.13 113.094C1332 117.137 1339.81 125.962 1339.81 125.962C1339.81 125.962 1338.5 132.58 1348.49 132.951C1358.47 133.318 1364.11 131.479 1364.11 131.479C1364.11 131.479 1369.32 124.492 1370.63 120.081C1371.93 115.668 1373.23 109.049 1373.23 109.049L1377.14 96.916L1389.73 88.4581L1409.26 76.3251L1417.07 65.661C1417.07 65.661 1421.41 63.4547 1417.07 50.5844C1412.73 37.717 1408.39 36.2481 1408.39 36.2481C1408.39 36.2481 1381.91 26.6886 1374.53 36.2481Z" fill="#72B47C"/>
<path d="M1566.27 804.143C1568.09 802.132 1615.06 761.634 1615.06 761.634L1628.05 726.734L1638.92 705.8L1656.99 671.527C1656.99 671.527 1665.22 662.876 1664.09 654.977C1662.96 647.083 1653.75 627.718 1653.75 627.718C1653.75 627.718 1652.46 616.488 1633.16 614.396C1613.86 612.311 1602.67 615.068 1602.67 615.068C1602.67 615.068 1594.31 623.245 1584.56 633.332C1577.67 640.461 1571.8 649.64 1571.8 649.64L1557.47 665.949L1529.7 686.21L1503.82 714.379L1484.24 730.509C1484.24 730.509 1474.13 736.285 1480.78 761.634C1487.43 786.977 1498.57 793.271 1498.57 793.271C1498.57 793.271 1550.66 821.507 1566.27 804.143Z" fill="#72B47C"/>
<path d="M124.892 310.999C126.116 310.999 132.476 310.824 137.227 307.375C140.158 305.25 141.399 303.366 141.652 300.653C143.128 297.67 142.605 294.678 141.108 292.206L145 284.414L143.103 268.268L124.31 261.999L122.34 262.299C121.926 262.365 112.067 263.902 102.905 266.935L86.3422 273.088L84 283.01L88.1058 295.188L91.7802 296.123C92.3237 296.263 97.2988 297.474 104.595 297.474C105.822 297.474 106.941 297.438 107.961 297.376L109.735 302.318L122.41 310.999H124.892Z" fill="#43865E"/>
<path d="M105.364 272.33C114.064 269.466 123.64 267.999 123.64 267.999L136.696 272.33L138 283.385L133.212 292.909C133.212 292.909 136.696 295.473 135.392 298.04C134.085 300.603 135.827 300.603 132.777 302.798C129.731 304.999 124.947 304.999 124.947 304.999L115.806 298.771L112.76 290.345C112.76 290.345 111.018 291.446 104.491 291.446C97.9646 291.446 93.6114 290.345 93.6114 290.345L91 282.654L92.3039 277.157L105.364 272.33" fill="#72B47C"/>
<path d="M74.873 400.999C75.8061 400.999 76.778 400.982 77.7922 400.944C84.5778 400.691 88.2857 398.248 90.1978 396.245C92.2578 394.087 92.9797 391.755 93.1874 389.957C96.1876 386.399 100.864 380.353 101.762 376.178C102.998 370.41 99.0822 364.792 97.811 363.161L87.1413 346.801L83.9651 335.681L80.1938 315.3L78.6584 313.944C69.3269 305.715 58.7912 296.324 57.1608 294.705C54.6466 291.59 49.5476 287.999 39.4168 287.999C28.0852 287.999 15.4084 292.534 14.8732 292.728C11.5807 293.842 6.5593 297.955 2.18934 310.927C-2.00456 323.374 0.608279 329.014 3.52746 331.559L11.5032 342.452L32.1206 355.275L42.674 362.384L45.8785 372.349C46.1566 373.738 47.3257 379.452 48.5335 383.544C50.0653 388.741 55.3262 395.895 55.9213 396.693L57.1643 398.365L59.3405 399.077C59.9426 399.276 65.4922 400.999 74.873 400.999" fill="#43865E"/>
<path d="M51.4681 298.248C52.3245 299.356 73.6043 318.102 73.6043 318.102L77.0793 336.853L80.5507 348.989L91.8355 366.269C91.8355 366.269 95.744 371.049 94.8735 375.094C94.003 379.137 86.1931 387.962 86.1931 387.962C86.1931 387.962 87.4972 394.58 77.5128 394.951C67.5284 395.318 61.886 393.479 61.886 393.479C61.886 393.479 56.6771 386.492 55.3731 382.081C54.0726 377.668 52.7687 371.049 52.7687 371.049L48.8637 358.916L36.2749 350.458L16.7431 338.325L8.92975 327.661C8.92975 327.661 4.5878 325.455 8.92975 312.584C13.2717 299.717 17.6137 298.248 17.6137 298.248C17.6137 298.248 44.0882 288.689 51.4681 298.248Z" fill="#72B47C"/>
<path d="M1011.83 138.563L1011.9 138.477L1012.05 138.212L1020.54 123.075L1077.22 221.249H956.187L960.829 217.112L961.094 216.876L961.306 216.592L983.306 187.092L983.543 186.774L983.703 186.411L989.772 172.638L1011.83 138.563Z" fill="url(#paint0_linear)" stroke="#555555" stroke-width="7"/>
<path d="M1031.61 137.878L1031.84 138.738L1032.44 139.388L1059.94 168.852L1069.2 195.161L1069.54 196.141L1070.37 196.774L1102.2 221.249H985.068L1022.72 121.85L1028.45 125.671L1031.61 137.878Z" fill="url(#paint1_linear)" stroke="#555555" stroke-width="7"/>
<path d="M298.834 132.563L298.904 132.477L299.053 132.212L307.544 117.075L364.224 215.249H243.187L247.829 211.112L248.094 210.876L248.306 210.592L270.306 181.092L270.543 180.774L270.703 180.411L276.772 166.638L298.834 132.563Z" fill="url(#paint2_linear)" stroke="#555555" stroke-width="7"/>
<path d="M318.612 131.878L318.835 132.738L319.441 133.388L346.941 162.852L356.198 189.161L356.543 190.141L357.366 190.774L389.204 215.249H272.068L309.716 115.85L315.447 119.671L318.612 131.878Z" fill="url(#paint3_linear)" stroke="#555555" stroke-width="7"/>
<path d="M1028.83 578.563L1028.9 578.477L1029.05 578.212L1037.54 563.075L1094.22 661.249H973.187L977.829 657.112L978.094 656.876L978.306 656.592L1000.31 627.092L1000.54 626.774L1000.7 626.411L1006.77 612.638L1028.83 578.563Z" fill="url(#paint4_linear)" stroke="#555555" stroke-width="7"/>
<path d="M1048.61 577.878L1048.83 578.738L1049.44 579.388L1076.94 608.852L1086.2 635.161L1086.54 636.141L1087.37 636.774L1119.2 661.249H1002.07L1039.72 561.85L1045.45 565.671L1048.61 577.878Z" fill="url(#paint5_linear)" stroke="#555555" stroke-width="7"/>
<path d="M421.834 480.563L421.904 480.477L422.053 480.212L430.544 465.075L487.224 563.249H366.187L370.829 559.112L371.094 558.876L371.306 558.592L393.306 529.092L393.543 528.774L393.703 528.411L399.772 514.638L421.834 480.563Z" fill="url(#paint6_linear)" stroke="#555555" stroke-width="7"/>
<path d="M441.612 479.878L441.835 480.738L442.441 481.388L469.941 510.852L479.198 537.161L479.543 538.141L480.366 538.774L512.204 563.249H395.068L432.716 463.85L438.447 467.671L441.612 479.878Z" fill="url(#paint7_linear)" stroke="#555555" stroke-width="7"/>
<path d="M1311.83 350.563L1311.9 350.477L1312.05 350.212L1320.54 335.075L1377.22 433.249H1256.19L1260.83 429.112L1261.09 428.876L1261.31 428.592L1283.31 399.092L1283.54 398.774L1283.7 398.411L1289.77 384.638L1311.83 350.563Z" fill="url(#paint8_linear)" stroke="#555555" stroke-width="7"/>
<path d="M1331.61 349.878L1331.83 350.738L1332.44 351.388L1359.94 380.852L1369.2 407.161L1369.54 408.141L1370.37 408.774L1402.2 433.249H1285.07L1322.72 333.85L1328.45 337.671L1331.61 349.878Z" fill="url(#paint9_linear)" stroke="#555555" stroke-width="7"/>
<path d="M311.618 229.8L303.122 255H300.314L292.934 233.508L285.518 255H282.746L274.25 229.8H276.986L284.258 251.472L291.782 229.8H294.266L301.682 251.58L309.062 229.8H311.618ZM331.009 246.324H315.169C315.313 248.292 316.069 249.888 317.437 251.112C318.805 252.312 320.533 252.912 322.621 252.912C323.797 252.912 324.877 252.708 325.861 252.3C326.845 251.868 327.697 251.244 328.417 250.428L329.857 252.084C329.017 253.092 327.961 253.86 326.689 254.388C325.441 254.916 324.061 255.18 322.549 255.18C320.605 255.18 318.877 254.772 317.365 253.956C315.877 253.116 314.713 251.964 313.873 250.5C313.033 249.036 312.613 247.38 312.613 245.532C312.613 243.684 313.009 242.028 313.801 240.564C314.617 239.1 315.721 237.96 317.113 237.144C318.529 236.328 320.113 235.92 321.865 235.92C323.617 235.92 325.189 236.328 326.581 237.144C327.973 237.96 329.065 239.1 329.857 240.564C330.649 242.004 331.045 243.66 331.045 245.532L331.009 246.324ZM321.865 238.116C320.041 238.116 318.505 238.704 317.257 239.88C316.033 241.032 315.337 242.544 315.169 244.416H328.597C328.429 242.544 327.721 241.032 326.473 239.88C325.249 238.704 323.713 238.116 321.865 238.116ZM346.004 235.92C347.78 235.92 349.388 236.328 350.828 237.144C352.268 237.936 353.396 239.064 354.212 240.528C355.028 241.992 355.436 243.66 355.436 245.532C355.436 247.404 355.028 249.072 354.212 250.536C353.396 252 352.268 253.14 350.828 253.956C349.388 254.772 347.78 255.18 346.004 255.18C344.42 255.18 342.992 254.844 341.72 254.172C340.472 253.5 339.464 252.528 338.696 251.256V255H336.248V228.288H338.804V239.664C339.596 238.44 340.604 237.516 341.828 236.892C343.076 236.244 344.468 235.92 346.004 235.92ZM345.824 252.912C347.144 252.912 348.344 252.612 349.424 252.012C350.504 251.388 351.344 250.512 351.944 249.384C352.568 248.256 352.88 246.972 352.88 245.532C352.88 244.092 352.568 242.808 351.944 241.68C351.344 240.552 350.504 239.688 349.424 239.088C348.344 238.464 347.144 238.152 345.824 238.152C344.48 238.152 343.268 238.464 342.188 239.088C341.132 239.688 340.292 240.552 339.668 241.68C339.068 242.808 338.768 244.092 338.768 245.532C338.768 246.972 339.068 248.256 339.668 249.384C340.292 250.512 341.132 251.388 342.188 252.012C343.268 252.612 344.48 252.912 345.824 252.912ZM237.084 273.8H247.344C250.008 273.8 252.36 274.34 254.4 275.42C256.44 276.476 258.024 277.964 259.152 279.884C260.28 281.78 260.844 283.952 260.844 286.4C260.844 288.848 260.28 291.032 259.152 292.952C258.024 294.848 256.44 296.336 254.4 297.416C252.36 298.472 250.008 299 247.344 299H237.084V273.8ZM247.2 296.696C249.408 296.696 251.34 296.264 252.996 295.4C254.652 294.512 255.936 293.3 256.848 291.764C257.76 290.204 258.216 288.416 258.216 286.4C258.216 284.384 257.76 282.608 256.848 281.072C255.936 279.512 254.652 278.3 252.996 277.436C251.34 276.548 249.408 276.104 247.2 276.104H239.748V296.696H247.2ZM282.775 290.324H266.935C267.079 292.292 267.835 293.888 269.203 295.112C270.571 296.312 272.299 296.912 274.387 296.912C275.563 296.912 276.643 296.708 277.627 296.3C278.611 295.868 279.463 295.244 280.183 294.428L281.623 296.084C280.783 297.092 279.727 297.86 278.455 298.388C277.207 298.916 275.827 299.18 274.315 299.18C272.371 299.18 270.643 298.772 269.131 297.956C267.643 297.116 266.479 295.964 265.639 294.5C264.799 293.036 264.379 291.38 264.379 289.532C264.379 287.684 264.775 286.028 265.567 284.564C266.383 283.1 267.487 281.96 268.879 281.144C270.295 280.328 271.879 279.92 273.631 279.92C275.383 279.92 276.955 280.328 278.347 281.144C279.739 281.96 280.831 283.1 281.623 284.564C282.415 286.004 282.811 287.66 282.811 289.532L282.775 290.324ZM273.631 282.116C271.807 282.116 270.271 282.704 269.023 283.88C267.799 285.032 267.103 286.544 266.935 288.416H280.363C280.195 286.544 279.487 285.032 278.239 283.88C277.015 282.704 275.479 282.116 273.631 282.116ZM293.089 299.18C291.553 299.18 290.077 298.964 288.661 298.532C287.269 298.076 286.177 297.512 285.385 296.84L286.537 294.824C287.329 295.448 288.325 295.964 289.525 296.372C290.725 296.756 291.973 296.948 293.269 296.948C294.997 296.948 296.269 296.684 297.085 296.156C297.925 295.604 298.345 294.836 298.345 293.852C298.345 293.156 298.117 292.616 297.661 292.232C297.205 291.824 296.629 291.524 295.933 291.332C295.237 291.116 294.313 290.912 293.161 290.72C291.625 290.432 290.389 290.144 289.453 289.856C288.517 289.544 287.713 289.028 287.041 288.308C286.393 287.588 286.069 286.592 286.069 285.32C286.069 283.736 286.729 282.44 288.049 281.432C289.369 280.424 291.205 279.92 293.557 279.92C294.781 279.92 296.005 280.088 297.229 280.424C298.453 280.736 299.461 281.156 300.253 281.684L299.137 283.736C297.577 282.656 295.717 282.116 293.557 282.116C291.925 282.116 290.689 282.404 289.849 282.98C289.033 283.556 288.625 284.312 288.625 285.248C288.625 285.968 288.853 286.544 289.309 286.976C289.789 287.408 290.377 287.732 291.073 287.948C291.769 288.14 292.729 288.344 293.953 288.56C295.465 288.848 296.677 289.136 297.589 289.424C298.501 289.712 299.281 290.204 299.929 290.9C300.577 291.596 300.901 292.556 300.901 293.78C300.901 295.436 300.205 296.756 298.813 297.74C297.445 298.7 295.537 299.18 293.089 299.18ZM305.627 280.064H308.183V299H305.627V280.064ZM306.923 275.924C306.395 275.924 305.951 275.744 305.591 275.384C305.231 275.024 305.051 274.592 305.051 274.088C305.051 273.608 305.231 273.188 305.591 272.828C305.951 272.468 306.395 272.288 306.923 272.288C307.451 272.288 307.895 272.468 308.255 272.828C308.615 273.164 308.795 273.572 308.795 274.052C308.795 274.58 308.615 275.024 308.255 275.384C307.895 275.744 307.451 275.924 306.923 275.924ZM332.826 280.064V296.696C332.826 299.912 332.034 302.288 330.45 303.824C328.89 305.384 326.526 306.164 323.358 306.164C321.606 306.164 319.938 305.9 318.354 305.372C316.794 304.868 315.522 304.16 314.538 303.248L315.834 301.304C316.746 302.12 317.85 302.756 319.146 303.212C320.466 303.668 321.846 303.896 323.286 303.896C325.686 303.896 327.45 303.332 328.578 302.204C329.706 301.1 330.27 299.372 330.27 297.02V294.608C329.478 295.808 328.434 296.72 327.138 297.344C325.866 297.968 324.45 298.28 322.89 298.28C321.114 298.28 319.494 297.896 318.03 297.128C316.59 296.336 315.45 295.244 314.61 293.852C313.794 292.436 313.386 290.84 313.386 289.064C313.386 287.288 313.794 285.704 314.61 284.312C315.45 282.92 316.59 281.84 318.03 281.072C319.47 280.304 321.09 279.92 322.89 279.92C324.498 279.92 325.95 280.244 327.246 280.892C328.542 281.54 329.586 282.476 330.378 283.7V280.064H332.826ZM323.142 296.012C324.51 296.012 325.746 295.724 326.85 295.148C327.954 294.548 328.806 293.72 329.406 292.664C330.03 291.608 330.342 290.408 330.342 289.064C330.342 287.72 330.03 286.532 329.406 285.5C328.806 284.444 327.954 283.628 326.85 283.052C325.77 282.452 324.534 282.152 323.142 282.152C321.774 282.152 320.538 282.44 319.434 283.016C318.354 283.592 317.502 284.408 316.878 285.464C316.278 286.52 315.978 287.72 315.978 289.064C315.978 290.408 316.278 291.608 316.878 292.664C317.502 293.72 318.354 294.548 319.434 295.148C320.538 295.724 321.774 296.012 323.142 296.012ZM349.622 279.92C351.998 279.92 353.882 280.616 355.274 282.008C356.69 283.376 357.398 285.38 357.398 288.02V299H354.842V288.272C354.842 286.304 354.35 284.804 353.366 283.772C352.382 282.74 350.978 282.224 349.154 282.224C347.114 282.224 345.494 282.836 344.294 284.06C343.118 285.26 342.53 286.928 342.53 289.064V299H339.974V280.064H342.422V283.556C343.118 282.404 344.078 281.516 345.302 280.892C346.55 280.244 347.99 279.92 349.622 279.92ZM380.896 290.324H365.056C365.2 292.292 365.956 293.888 367.324 295.112C368.692 296.312 370.42 296.912 372.508 296.912C373.684 296.912 374.764 296.708 375.748 296.3C376.732 295.868 377.584 295.244 378.304 294.428L379.744 296.084C378.904 297.092 377.848 297.86 376.576 298.388C375.328 298.916 373.948 299.18 372.436 299.18C370.492 299.18 368.764 298.772 367.252 297.956C365.764 297.116 364.6 295.964 363.76 294.5C362.92 293.036 362.5 291.38 362.5 289.532C362.5 287.684 362.896 286.028 363.688 284.564C364.504 283.1 365.608 281.96 367 281.144C368.416 280.328 370 279.92 371.752 279.92C373.504 279.92 375.076 280.328 376.468 281.144C377.86 281.96 378.952 283.1 379.744 284.564C380.536 286.004 380.932 287.66 380.932 289.532L380.896 290.324ZM371.752 282.116C369.928 282.116 368.392 282.704 367.144 283.88C365.92 285.032 365.224 286.544 365.056 288.416H378.484C378.316 286.544 377.608 285.032 376.36 283.88C375.136 282.704 373.6 282.116 371.752 282.116ZM388.582 283.772C389.182 282.5 390.07 281.54 391.246 280.892C392.446 280.244 393.922 279.92 395.674 279.92V282.404L395.062 282.368C393.07 282.368 391.51 282.98 390.382 284.204C389.254 285.428 388.69 287.144 388.69 289.352V299H386.134V280.064H388.582V283.772Z" fill="#EFEFEF"/>
<path d="M1297.32 459.4H1299.88V469.012C1298.7 470.044 1297.31 470.836 1295.7 471.388C1294.1 471.94 1292.4 472.216 1290.63 472.216C1288.11 472.216 1285.84 471.664 1283.82 470.56C1281.81 469.456 1280.22 467.932 1279.07 465.988C1277.92 464.02 1277.34 461.824 1277.34 459.4C1277.34 456.976 1277.92 454.792 1279.07 452.848C1280.22 450.88 1281.81 449.344 1283.82 448.24C1285.84 447.136 1288.12 446.584 1290.66 446.584C1292.58 446.584 1294.35 446.896 1295.96 447.52C1297.56 448.12 1298.92 449.02 1300.02 450.22L1298.37 451.912C1296.38 449.944 1293.84 448.96 1290.77 448.96C1288.73 448.96 1286.88 449.416 1285.23 450.328C1283.6 451.216 1282.31 452.464 1281.38 454.072C1280.44 455.656 1279.97 457.432 1279.97 459.4C1279.97 461.368 1280.44 463.144 1281.38 464.728C1282.31 466.312 1283.6 467.56 1285.23 468.472C1286.86 469.384 1288.7 469.84 1290.74 469.84C1293.33 469.84 1295.52 469.192 1297.32 467.896V459.4ZM1313.5 452.92C1315.98 452.92 1317.87 453.544 1319.19 454.792C1320.51 456.016 1321.17 457.84 1321.17 460.264V472H1318.72V469.048C1318.15 470.032 1317.3 470.8 1316.17 471.352C1315.06 471.904 1313.74 472.18 1312.21 472.18C1310.1 472.18 1308.42 471.676 1307.17 470.668C1305.92 469.66 1305.3 468.328 1305.3 466.672C1305.3 465.064 1305.87 463.768 1307.02 462.784C1308.2 461.8 1310.06 461.308 1312.6 461.308H1318.62V460.156C1318.62 458.524 1318.16 457.288 1317.25 456.448C1316.34 455.584 1315 455.152 1313.25 455.152C1312.05 455.152 1310.9 455.356 1309.8 455.764C1308.69 456.148 1307.74 456.688 1306.95 457.384L1305.8 455.476C1306.76 454.66 1307.91 454.036 1309.26 453.604C1310.6 453.148 1312.02 452.92 1313.5 452.92ZM1312.6 470.164C1314.04 470.164 1315.28 469.84 1316.31 469.192C1317.34 468.52 1318.11 467.56 1318.62 466.312V463.216H1312.68C1309.44 463.216 1307.82 464.344 1307.82 466.6C1307.82 467.704 1308.24 468.58 1309.08 469.228C1309.92 469.852 1311.09 470.164 1312.6 470.164ZM1351.73 452.92C1354.11 452.92 1355.97 453.604 1357.31 454.972C1358.68 456.34 1359.36 458.356 1359.36 461.02V472H1356.81V461.272C1356.81 459.304 1356.33 457.804 1355.37 456.772C1354.43 455.74 1353.1 455.224 1351.37 455.224C1349.4 455.224 1347.85 455.836 1346.73 457.06C1345.6 458.26 1345.03 459.928 1345.03 462.064V472H1342.48V461.272C1342.48 459.304 1342 457.804 1341.04 456.772C1340.1 455.74 1338.76 455.224 1337.01 455.224C1335.06 455.224 1333.51 455.836 1332.36 457.06C1331.23 458.26 1330.67 459.928 1330.67 462.064V472H1328.11V453.064H1330.56V456.52C1331.23 455.368 1332.17 454.48 1333.37 453.856C1334.57 453.232 1335.95 452.92 1337.51 452.92C1339.09 452.92 1340.46 453.256 1341.61 453.928C1342.79 454.6 1343.67 455.596 1344.24 456.916C1344.94 455.668 1345.93 454.696 1347.23 454C1348.55 453.28 1350.05 452.92 1351.73 452.92ZM1382.85 463.324H1367.01C1367.16 465.292 1367.91 466.888 1369.28 468.112C1370.65 469.312 1372.38 469.912 1374.46 469.912C1375.64 469.912 1376.72 469.708 1377.7 469.3C1378.69 468.868 1379.54 468.244 1380.26 467.428L1381.7 469.084C1380.86 470.092 1379.8 470.86 1378.53 471.388C1377.28 471.916 1375.9 472.18 1374.39 472.18C1372.45 472.18 1370.72 471.772 1369.21 470.956C1367.72 470.116 1366.56 468.964 1365.72 467.5C1364.88 466.036 1364.46 464.38 1364.46 462.532C1364.46 460.684 1364.85 459.028 1365.64 457.564C1366.46 456.1 1367.56 454.96 1368.96 454.144C1370.37 453.328 1371.96 452.92 1373.71 452.92C1375.46 452.92 1377.03 453.328 1378.42 454.144C1379.82 454.96 1380.91 456.1 1381.7 457.564C1382.49 459.004 1382.89 460.66 1382.89 462.532L1382.85 463.324ZM1373.71 455.116C1371.88 455.116 1370.35 455.704 1369.1 456.88C1367.88 458.032 1367.18 459.544 1367.01 461.416H1380.44C1380.27 459.544 1379.56 458.032 1378.32 456.88C1377.09 455.704 1375.56 455.116 1373.71 455.116ZM1252.08 490.8H1262.34C1265.01 490.8 1267.36 491.34 1269.4 492.42C1271.44 493.476 1273.02 494.964 1274.15 496.884C1275.28 498.78 1275.84 500.952 1275.84 503.4C1275.84 505.848 1275.28 508.032 1274.15 509.952C1273.02 511.848 1271.44 513.336 1269.4 514.416C1267.36 515.472 1265.01 516 1262.34 516H1252.08V490.8ZM1262.2 513.696C1264.41 513.696 1266.34 513.264 1268 512.4C1269.65 511.512 1270.94 510.3 1271.85 508.764C1272.76 507.204 1273.22 505.416 1273.22 503.4C1273.22 501.384 1272.76 499.608 1271.85 498.072C1270.94 496.512 1269.65 495.3 1268 494.436C1266.34 493.548 1264.41 493.104 1262.2 493.104H1254.75V513.696H1262.2ZM1297.77 507.324H1281.93C1282.08 509.292 1282.83 510.888 1284.2 512.112C1285.57 513.312 1287.3 513.912 1289.39 513.912C1290.56 513.912 1291.64 513.708 1292.63 513.3C1293.61 512.868 1294.46 512.244 1295.18 511.428L1296.62 513.084C1295.78 514.092 1294.73 514.86 1293.45 515.388C1292.21 515.916 1290.83 516.18 1289.31 516.18C1287.37 516.18 1285.64 515.772 1284.13 514.956C1282.64 514.116 1281.48 512.964 1280.64 511.5C1279.8 510.036 1279.38 508.38 1279.38 506.532C1279.38 504.684 1279.77 503.028 1280.57 501.564C1281.38 500.1 1282.49 498.96 1283.88 498.144C1285.29 497.328 1286.88 496.92 1288.63 496.92C1290.38 496.92 1291.95 497.328 1293.35 498.144C1294.74 498.96 1295.83 500.1 1296.62 501.564C1297.41 503.004 1297.81 504.66 1297.81 506.532L1297.77 507.324ZM1288.63 499.116C1286.81 499.116 1285.27 499.704 1284.02 500.88C1282.8 502.032 1282.1 503.544 1281.93 505.416H1295.36C1295.19 503.544 1294.49 502.032 1293.24 500.88C1292.01 499.704 1290.48 499.116 1288.63 499.116ZM1308.09 516.18C1306.55 516.18 1305.08 515.964 1303.66 515.532C1302.27 515.076 1301.18 514.512 1300.39 513.84L1301.54 511.824C1302.33 512.448 1303.33 512.964 1304.53 513.372C1305.73 513.756 1306.97 513.948 1308.27 513.948C1310 513.948 1311.27 513.684 1312.09 513.156C1312.93 512.604 1313.35 511.836 1313.35 510.852C1313.35 510.156 1313.12 509.616 1312.66 509.232C1312.21 508.824 1311.63 508.524 1310.93 508.332C1310.24 508.116 1309.31 507.912 1308.16 507.72C1306.63 507.432 1305.39 507.144 1304.45 506.856C1303.52 506.544 1302.71 506.028 1302.04 505.308C1301.39 504.588 1301.07 503.592 1301.07 502.32C1301.07 500.736 1301.73 499.44 1303.05 498.432C1304.37 497.424 1306.21 496.92 1308.56 496.92C1309.78 496.92 1311.01 497.088 1312.23 497.424C1313.45 497.736 1314.46 498.156 1315.25 498.684L1314.14 500.736C1312.58 499.656 1310.72 499.116 1308.56 499.116C1306.93 499.116 1305.69 499.404 1304.85 499.98C1304.03 500.556 1303.63 501.312 1303.63 502.248C1303.63 502.968 1303.85 503.544 1304.31 503.976C1304.79 504.408 1305.38 504.732 1306.07 504.948C1306.77 505.14 1307.73 505.344 1308.95 505.56C1310.47 505.848 1311.68 506.136 1312.59 506.424C1313.5 506.712 1314.28 507.204 1314.93 507.9C1315.58 508.596 1315.9 509.556 1315.9 510.78C1315.9 512.436 1315.21 513.756 1313.81 514.74C1312.45 515.7 1310.54 516.18 1308.09 516.18ZM1320.63 497.064H1323.18V516H1320.63V497.064ZM1321.92 492.924C1321.39 492.924 1320.95 492.744 1320.59 492.384C1320.23 492.024 1320.05 491.592 1320.05 491.088C1320.05 490.608 1320.23 490.188 1320.59 489.828C1320.95 489.468 1321.39 489.288 1321.92 489.288C1322.45 489.288 1322.89 489.468 1323.25 489.828C1323.61 490.164 1323.79 490.572 1323.79 491.052C1323.79 491.58 1323.61 492.024 1323.25 492.384C1322.89 492.744 1322.45 492.924 1321.92 492.924ZM1347.83 497.064V513.696C1347.83 516.912 1347.03 519.288 1345.45 520.824C1343.89 522.384 1341.53 523.164 1338.36 523.164C1336.61 523.164 1334.94 522.9 1333.35 522.372C1331.79 521.868 1330.52 521.16 1329.54 520.248L1330.83 518.304C1331.75 519.12 1332.85 519.756 1334.15 520.212C1335.47 520.668 1336.85 520.896 1338.29 520.896C1340.69 520.896 1342.45 520.332 1343.58 519.204C1344.71 518.1 1345.27 516.372 1345.27 514.02V511.608C1344.48 512.808 1343.43 513.72 1342.14 514.344C1340.87 514.968 1339.45 515.28 1337.89 515.28C1336.11 515.28 1334.49 514.896 1333.03 514.128C1331.59 513.336 1330.45 512.244 1329.61 510.852C1328.79 509.436 1328.39 507.84 1328.39 506.064C1328.39 504.288 1328.79 502.704 1329.61 501.312C1330.45 499.92 1331.59 498.84 1333.03 498.072C1334.47 497.304 1336.09 496.92 1337.89 496.92C1339.5 496.92 1340.95 497.244 1342.25 497.892C1343.54 498.54 1344.59 499.476 1345.38 500.7V497.064H1347.83ZM1338.14 513.012C1339.51 513.012 1340.75 512.724 1341.85 512.148C1342.95 511.548 1343.81 510.72 1344.41 509.664C1345.03 508.608 1345.34 507.408 1345.34 506.064C1345.34 504.72 1345.03 503.532 1344.41 502.5C1343.81 501.444 1342.95 500.628 1341.85 500.052C1340.77 499.452 1339.53 499.152 1338.14 499.152C1336.77 499.152 1335.54 499.44 1334.43 500.016C1333.35 500.592 1332.5 501.408 1331.88 502.464C1331.28 503.52 1330.98 504.72 1330.98 506.064C1330.98 507.408 1331.28 508.608 1331.88 509.664C1332.5 510.72 1333.35 511.548 1334.43 512.148C1335.54 512.724 1336.77 513.012 1338.14 513.012ZM1364.62 496.92C1367 496.92 1368.88 497.616 1370.27 499.008C1371.69 500.376 1372.4 502.38 1372.4 505.02V516H1369.84V505.272C1369.84 503.304 1369.35 501.804 1368.37 500.772C1367.38 499.74 1365.98 499.224 1364.15 499.224C1362.11 499.224 1360.49 499.836 1359.29 501.06C1358.12 502.26 1357.53 503.928 1357.53 506.064V516H1354.97V497.064H1357.42V500.556C1358.12 499.404 1359.08 498.516 1360.3 497.892C1361.55 497.244 1362.99 496.92 1364.62 496.92ZM1395.9 507.324H1380.06C1380.2 509.292 1380.96 510.888 1382.32 512.112C1383.69 513.312 1385.42 513.912 1387.51 513.912C1388.68 513.912 1389.76 513.708 1390.75 513.3C1391.73 512.868 1392.58 512.244 1393.3 511.428L1394.74 513.084C1393.9 514.092 1392.85 514.86 1391.58 515.388C1390.33 515.916 1388.95 516.18 1387.44 516.18C1385.49 516.18 1383.76 515.772 1382.25 514.956C1380.76 514.116 1379.6 512.964 1378.76 511.5C1377.92 510.036 1377.5 508.38 1377.5 506.532C1377.5 504.684 1377.9 503.028 1378.69 501.564C1379.5 500.1 1380.61 498.96 1382 498.144C1383.42 497.328 1385 496.92 1386.75 496.92C1388.5 496.92 1390.08 497.328 1391.47 498.144C1392.86 498.96 1393.95 500.1 1394.74 501.564C1395.54 503.004 1395.93 504.66 1395.93 506.532L1395.9 507.324ZM1386.75 499.116C1384.93 499.116 1383.39 499.704 1382.14 500.88C1380.92 502.032 1380.22 503.544 1380.06 505.416H1393.48C1393.32 503.544 1392.61 502.032 1391.36 500.88C1390.14 499.704 1388.6 499.116 1386.75 499.116ZM1403.58 500.772C1404.18 499.5 1405.07 498.54 1406.25 497.892C1407.45 497.244 1408.92 496.92 1410.67 496.92V499.404L1410.06 499.368C1408.07 499.368 1406.51 499.98 1405.38 501.204C1404.25 502.428 1403.69 504.144 1403.69 506.352V516H1401.13V497.064H1403.58V500.772Z" fill="#EFEFEF"/>
<path d="M965.883 247.4H968.439V257.012C967.263 258.044 965.871 258.836 964.263 259.388C962.655 259.94 960.963 260.216 959.187 260.216C956.667 260.216 954.399 259.664 952.383 258.56C950.367 257.456 948.783 255.932 947.631 253.988C946.479 252.02 945.903 249.824 945.903 247.4C945.903 244.976 946.479 242.792 947.631 240.848C948.783 238.88 950.367 237.344 952.383 236.24C954.399 235.136 956.679 234.584 959.223 234.584C961.143 234.584 962.907 234.896 964.515 235.52C966.123 236.12 967.479 237.02 968.583 238.22L966.927 239.912C964.935 237.944 962.403 236.96 959.331 236.96C957.291 236.96 955.443 237.416 953.787 238.328C952.155 239.216 950.871 240.464 949.935 242.072C948.999 243.656 948.531 245.432 948.531 247.4C948.531 249.368 948.999 251.144 949.935 252.728C950.871 254.312 952.155 255.56 953.787 256.472C955.419 257.384 957.255 257.84 959.295 257.84C961.887 257.84 964.083 257.192 965.883 255.896V247.4ZM977.887 244.772C978.487 243.5 979.375 242.54 980.551 241.892C981.751 241.244 983.227 240.92 984.979 240.92V243.404L984.367 243.368C982.375 243.368 980.815 243.98 979.687 245.204C978.559 246.428 977.995 248.144 977.995 250.352V260H975.439V241.064H977.887V244.772ZM996.196 240.92C998.668 240.92 1000.56 241.544 1001.88 242.792C1003.2 244.016 1003.86 245.84 1003.86 248.264V260H1001.42V257.048C1000.84 258.032 999.988 258.8 998.86 259.352C997.756 259.904 996.436 260.18 994.9 260.18C992.788 260.18 991.108 259.676 989.86 258.668C988.612 257.66 987.988 256.328 987.988 254.672C987.988 253.064 988.564 251.768 989.716 250.784C990.892 249.8 992.752 249.308 995.296 249.308H1001.31V248.156C1001.31 246.524 1000.85 245.288 999.94 244.448C999.028 243.584 997.696 243.152 995.944 243.152C994.744 243.152 993.592 243.356 992.488 243.764C991.384 244.148 990.436 244.688 989.644 245.384L988.492 243.476C989.452 242.66 990.604 242.036 991.948 241.604C993.292 241.148 994.708 240.92 996.196 240.92ZM995.296 258.164C996.736 258.164 997.972 257.84 999.004 257.192C1000.04 256.52 1000.8 255.56 1001.31 254.312V251.216H995.368C992.128 251.216 990.508 252.344 990.508 254.6C990.508 255.704 990.928 256.58 991.768 257.228C992.608 257.852 993.784 258.164 995.296 258.164ZM1020.56 240.92C1022.34 240.92 1023.95 241.328 1025.39 242.144C1026.83 242.936 1027.95 244.064 1028.77 245.528C1029.59 246.992 1029.99 248.66 1029.99 250.532C1029.99 252.428 1029.59 254.108 1028.77 255.572C1027.95 257.036 1026.83 258.176 1025.39 258.992C1023.97 259.784 1022.36 260.18 1020.56 260.18C1019.03 260.18 1017.63 259.868 1016.39 259.244C1015.16 258.596 1014.15 257.66 1013.36 256.436V266.984H1010.81V241.064H1013.25V244.808C1014.02 243.56 1015.03 242.6 1016.28 241.928C1017.55 241.256 1018.98 240.92 1020.56 240.92ZM1020.38 257.912C1021.7 257.912 1022.9 257.612 1023.98 257.012C1025.06 256.388 1025.9 255.512 1026.5 254.384C1027.13 253.256 1027.44 251.972 1027.44 250.532C1027.44 249.092 1027.13 247.82 1026.5 246.716C1025.9 245.588 1025.06 244.712 1023.98 244.088C1022.9 243.464 1021.7 243.152 1020.38 243.152C1019.04 243.152 1017.83 243.464 1016.75 244.088C1015.69 244.712 1014.85 245.588 1014.23 246.716C1013.63 247.82 1013.33 249.092 1013.33 250.532C1013.33 251.972 1013.63 253.256 1014.23 254.384C1014.85 255.512 1015.69 256.388 1016.75 257.012C1017.83 257.612 1019.04 257.912 1020.38 257.912ZM1044.85 240.92C1047.23 240.92 1049.11 241.616 1050.5 243.008C1051.92 244.376 1052.63 246.38 1052.63 249.02V260H1050.07V249.272C1050.07 247.304 1049.58 245.804 1048.6 244.772C1047.61 243.74 1046.21 243.224 1044.38 243.224C1042.34 243.224 1040.72 243.836 1039.52 245.06C1038.35 246.26 1037.76 247.928 1037.76 250.064V260H1035.2V233.288H1037.76V244.376C1038.46 243.272 1039.42 242.42 1040.64 241.82C1041.86 241.22 1043.27 240.92 1044.85 240.92ZM1059.57 241.064H1062.12V260H1059.57V241.064ZM1060.86 236.924C1060.34 236.924 1059.89 236.744 1059.53 236.384C1059.17 236.024 1058.99 235.592 1058.99 235.088C1058.99 234.608 1059.17 234.188 1059.53 233.828C1059.89 233.468 1060.34 233.288 1060.86 233.288C1061.39 233.288 1061.84 233.468 1062.2 233.828C1062.56 234.164 1062.74 234.572 1062.74 235.052C1062.74 235.58 1062.56 236.024 1062.2 236.384C1061.84 236.744 1061.39 236.924 1060.86 236.924ZM1074.31 260.18C1072.78 260.18 1071.3 259.964 1069.88 259.532C1068.49 259.076 1067.4 258.512 1066.61 257.84L1067.76 255.824C1068.55 256.448 1069.55 256.964 1070.75 257.372C1071.95 257.756 1073.2 257.948 1074.49 257.948C1076.22 257.948 1077.49 257.684 1078.31 257.156C1079.15 256.604 1079.57 255.836 1079.57 254.852C1079.57 254.156 1079.34 253.616 1078.88 253.232C1078.43 252.824 1077.85 252.524 1077.16 252.332C1076.46 252.116 1075.54 251.912 1074.38 251.72C1072.85 251.432 1071.61 251.144 1070.68 250.856C1069.74 250.544 1068.94 250.028 1068.26 249.308C1067.62 248.588 1067.29 247.592 1067.29 246.32C1067.29 244.736 1067.95 243.44 1069.27 242.432C1070.59 241.424 1072.43 240.92 1074.78 240.92C1076 240.92 1077.23 241.088 1078.45 241.424C1079.68 241.736 1080.68 242.156 1081.48 242.684L1080.36 244.736C1078.8 243.656 1076.94 243.116 1074.78 243.116C1073.15 243.116 1071.91 243.404 1071.07 243.98C1070.26 244.556 1069.85 245.312 1069.85 246.248C1069.85 246.968 1070.08 247.544 1070.53 247.976C1071.01 248.408 1071.6 248.732 1072.3 248.948C1072.99 249.14 1073.95 249.344 1075.18 249.56C1076.69 249.848 1077.9 250.136 1078.81 250.424C1079.72 250.712 1080.5 251.204 1081.15 251.9C1081.8 252.596 1082.12 253.556 1082.12 254.78C1082.12 256.436 1081.43 257.756 1080.04 258.74C1078.67 259.7 1076.76 260.18 1074.31 260.18ZM1096.82 258.848C1096.34 259.28 1095.74 259.616 1095.02 259.856C1094.33 260.072 1093.59 260.18 1092.83 260.18C1091.05 260.18 1089.68 259.7 1088.72 258.74C1087.76 257.78 1087.28 256.424 1087.28 254.672V243.224H1083.9V241.064H1087.28V236.924H1089.84V241.064H1095.6V243.224H1089.84V254.528C1089.84 255.656 1090.11 256.52 1090.67 257.12C1091.24 257.696 1092.06 257.984 1093.11 257.984C1093.64 257.984 1094.15 257.9 1094.63 257.732C1095.13 257.564 1095.56 257.324 1095.92 257.012L1096.82 258.848ZM1117.29 251.324H1101.45C1101.6 253.292 1102.35 254.888 1103.72 256.112C1105.09 257.312 1106.82 257.912 1108.91 257.912C1110.08 257.912 1111.16 257.708 1112.15 257.3C1113.13 256.868 1113.98 256.244 1114.7 255.428L1116.14 257.084C1115.3 258.092 1114.25 258.86 1112.97 259.388C1111.73 259.916 1110.35 260.18 1108.83 260.18C1106.89 260.18 1105.16 259.772 1103.65 258.956C1102.16 258.116 1101 256.964 1100.16 255.5C1099.32 254.036 1098.9 252.38 1098.9 250.532C1098.9 248.684 1099.29 247.028 1100.09 245.564C1100.9 244.1 1102.01 242.96 1103.4 242.144C1104.81 241.328 1106.4 240.92 1108.15 240.92C1109.9 240.92 1111.47 241.328 1112.87 242.144C1114.26 242.96 1115.35 244.1 1116.14 245.564C1116.93 247.004 1117.33 248.66 1117.33 250.532L1117.29 251.324ZM1108.15 243.116C1106.33 243.116 1104.79 243.704 1103.54 244.88C1102.32 246.032 1101.62 247.544 1101.45 249.416H1114.88C1114.71 247.544 1114.01 246.032 1112.76 244.88C1111.53 243.704 1110 243.116 1108.15 243.116ZM1028.12 278.8L1019.62 304H1016.81L1009.43 282.508L1002.02 304H999.246L990.75 278.8H993.486L1000.76 300.472L1008.28 278.8H1010.77L1018.18 300.58L1025.56 278.8H1028.12ZM1047.51 295.324H1031.67C1031.81 297.292 1032.57 298.888 1033.94 300.112C1035.31 301.312 1037.03 301.912 1039.12 301.912C1040.3 301.912 1041.38 301.708 1042.36 301.3C1043.35 300.868 1044.2 300.244 1044.92 299.428L1046.36 301.084C1045.52 302.092 1044.46 302.86 1043.19 303.388C1041.94 303.916 1040.56 304.18 1039.05 304.18C1037.11 304.18 1035.38 303.772 1033.87 302.956C1032.38 302.116 1031.21 300.964 1030.37 299.5C1029.53 298.036 1029.11 296.38 1029.11 294.532C1029.11 292.684 1029.51 291.028 1030.3 289.564C1031.12 288.1 1032.22 286.96 1033.61 286.144C1035.03 285.328 1036.61 284.92 1038.37 284.92C1040.12 284.92 1041.69 285.328 1043.08 286.144C1044.47 286.96 1045.57 288.1 1046.36 289.564C1047.15 291.004 1047.55 292.66 1047.55 294.532L1047.51 295.324ZM1038.37 287.116C1036.54 287.116 1035.01 287.704 1033.76 288.88C1032.53 290.032 1031.84 291.544 1031.67 293.416H1045.1C1044.93 291.544 1044.22 290.032 1042.97 288.88C1041.75 287.704 1040.21 287.116 1038.37 287.116ZM1062.5 284.92C1064.28 284.92 1065.89 285.328 1067.33 286.144C1068.77 286.936 1069.9 288.064 1070.71 289.528C1071.53 290.992 1071.94 292.66 1071.94 294.532C1071.94 296.404 1071.53 298.072 1070.71 299.536C1069.9 301 1068.77 302.14 1067.33 302.956C1065.89 303.772 1064.28 304.18 1062.5 304.18C1060.92 304.18 1059.49 303.844 1058.22 303.172C1056.97 302.5 1055.96 301.528 1055.2 300.256V304H1052.75V277.288H1055.3V288.664C1056.1 287.44 1057.1 286.516 1058.33 285.892C1059.58 285.244 1060.97 284.92 1062.5 284.92ZM1062.32 301.912C1063.64 301.912 1064.84 301.612 1065.92 301.012C1067 300.388 1067.84 299.512 1068.44 298.384C1069.07 297.256 1069.38 295.972 1069.38 294.532C1069.38 293.092 1069.07 291.808 1068.44 290.68C1067.84 289.552 1067 288.688 1065.92 288.088C1064.84 287.464 1063.64 287.152 1062.32 287.152C1060.98 287.152 1059.77 287.464 1058.69 288.088C1057.63 288.688 1056.79 289.552 1056.17 290.68C1055.57 291.808 1055.27 293.092 1055.27 294.532C1055.27 295.972 1055.57 297.256 1056.17 298.384C1056.79 299.512 1057.63 300.388 1058.69 301.012C1059.77 301.612 1060.98 301.912 1062.32 301.912Z" fill="#EFEFEF"/>
<path d="M949.256 703.216C945.992 703.216 943.448 702.28 941.624 700.408C939.8 698.536 938.888 695.812 938.888 692.236V677.8H941.552V692.128C941.552 695.056 942.212 697.24 943.532 698.68C944.852 700.12 946.76 700.84 949.256 700.84C951.776 700.84 953.696 700.12 955.016 698.68C956.336 697.24 956.996 695.056 956.996 692.128V677.8H959.588V692.236C959.588 695.812 958.676 698.536 956.852 700.408C955.052 702.28 952.52 703.216 949.256 703.216ZM983.068 703L974.932 691.912L966.832 703H963.772L973.348 690.04L964.384 677.8H967.444L975.04 688.096L982.6 677.8H985.48L976.552 689.968L986.164 703H983.068ZM1017.05 676.288V703H1014.6V699.256C1013.84 700.528 1012.82 701.5 1011.54 702.172C1010.3 702.844 1008.88 703.18 1007.3 703.18C1005.52 703.18 1003.91 702.772 1002.47 701.956C1001.03 701.14 999.903 700 999.087 698.536C998.271 697.072 997.863 695.404 997.863 693.532C997.863 691.66 998.271 689.992 999.087 688.528C999.903 687.064 1001.03 685.936 1002.47 685.144C1003.91 684.328 1005.52 683.92 1007.3 683.92C1008.83 683.92 1010.21 684.244 1011.44 684.892C1012.68 685.516 1013.7 686.44 1014.5 687.664V676.288H1017.05ZM1007.51 700.912C1008.83 700.912 1010.02 700.612 1011.08 700.012C1012.16 699.388 1013 698.512 1013.6 697.384C1014.22 696.256 1014.53 694.972 1014.53 693.532C1014.53 692.092 1014.22 690.808 1013.6 689.68C1013 688.552 1012.16 687.688 1011.08 687.088C1010.02 686.464 1008.83 686.152 1007.51 686.152C1006.17 686.152 1004.96 686.464 1003.88 687.088C1002.82 687.688 1001.98 688.552 1001.36 689.68C1000.76 690.808 1000.46 692.092 1000.46 693.532C1000.46 694.972 1000.76 696.256 1001.36 697.384C1001.98 698.512 1002.82 699.388 1003.88 700.012C1004.96 700.612 1006.17 700.912 1007.51 700.912ZM1040.66 694.324H1024.82C1024.96 696.292 1025.72 697.888 1027.09 699.112C1028.45 700.312 1030.18 700.912 1032.27 700.912C1033.45 700.912 1034.53 700.708 1035.51 700.3C1036.49 699.868 1037.35 699.244 1038.07 698.428L1039.51 700.084C1038.67 701.092 1037.61 701.86 1036.34 702.388C1035.09 702.916 1033.71 703.18 1032.2 703.18C1030.25 703.18 1028.53 702.772 1027.01 701.956C1025.53 701.116 1024.36 699.964 1023.52 698.5C1022.68 697.036 1022.26 695.38 1022.26 693.532C1022.26 691.684 1022.66 690.028 1023.45 688.564C1024.27 687.1 1025.37 685.96 1026.76 685.144C1028.18 684.328 1029.76 683.92 1031.51 683.92C1033.27 683.92 1034.84 684.328 1036.23 685.144C1037.62 685.96 1038.71 687.1 1039.51 688.564C1040.3 690.004 1040.69 691.66 1040.69 693.532L1040.66 694.324ZM1031.51 686.116C1029.69 686.116 1028.15 686.704 1026.91 687.88C1025.68 689.032 1024.99 690.544 1024.82 692.416H1038.25C1038.08 690.544 1037.37 689.032 1036.12 687.88C1034.9 686.704 1033.36 686.116 1031.51 686.116ZM1050.97 703.18C1049.44 703.18 1047.96 702.964 1046.54 702.532C1045.15 702.076 1044.06 701.512 1043.27 700.84L1044.42 698.824C1045.21 699.448 1046.21 699.964 1047.41 700.372C1048.61 700.756 1049.86 700.948 1051.15 700.948C1052.88 700.948 1054.15 700.684 1054.97 700.156C1055.81 699.604 1056.23 698.836 1056.23 697.852C1056.23 697.156 1056 696.616 1055.54 696.232C1055.09 695.824 1054.51 695.524 1053.82 695.332C1053.12 695.116 1052.2 694.912 1051.04 694.72C1049.51 694.432 1048.27 694.144 1047.34 693.856C1046.4 693.544 1045.6 693.028 1044.92 692.308C1044.28 691.588 1043.95 690.592 1043.95 689.32C1043.95 687.736 1044.61 686.44 1045.93 685.432C1047.25 684.424 1049.09 683.92 1051.44 683.92C1052.66 683.92 1053.89 684.088 1055.11 684.424C1056.34 684.736 1057.34 685.156 1058.14 685.684L1057.02 687.736C1055.46 686.656 1053.6 686.116 1051.44 686.116C1049.81 686.116 1048.57 686.404 1047.73 686.98C1046.92 687.556 1046.51 688.312 1046.51 689.248C1046.51 689.968 1046.74 690.544 1047.19 690.976C1047.67 691.408 1048.26 691.732 1048.96 691.948C1049.65 692.14 1050.61 692.344 1051.84 692.56C1053.35 692.848 1054.56 693.136 1055.47 693.424C1056.38 693.712 1057.16 694.204 1057.81 694.9C1058.46 695.596 1058.78 696.556 1058.78 697.78C1058.78 699.436 1058.09 700.756 1056.7 701.74C1055.33 702.7 1053.42 703.18 1050.97 703.18ZM1063.51 684.064H1066.07V703H1063.51V684.064ZM1064.81 679.924C1064.28 679.924 1063.83 679.744 1063.47 679.384C1063.11 679.024 1062.93 678.592 1062.93 678.088C1062.93 677.608 1063.11 677.188 1063.47 676.828C1063.83 676.468 1064.28 676.288 1064.81 676.288C1065.33 676.288 1065.78 676.468 1066.14 676.828C1066.5 677.164 1066.68 677.572 1066.68 678.052C1066.68 678.58 1066.5 679.024 1066.14 679.384C1065.78 679.744 1065.33 679.924 1064.81 679.924ZM1090.71 684.064V700.696C1090.71 703.912 1089.92 706.288 1088.33 707.824C1086.77 709.384 1084.41 710.164 1081.24 710.164C1079.49 710.164 1077.82 709.9 1076.24 709.372C1074.68 708.868 1073.41 708.16 1072.42 707.248L1073.72 705.304C1074.63 706.12 1075.73 706.756 1077.03 707.212C1078.35 707.668 1079.73 707.896 1081.17 707.896C1083.57 707.896 1085.33 707.332 1086.46 706.204C1087.59 705.1 1088.15 703.372 1088.15 701.02V698.608C1087.36 699.808 1086.32 700.72 1085.02 701.344C1083.75 701.968 1082.33 702.28 1080.77 702.28C1079 702.28 1077.38 701.896 1075.91 701.128C1074.47 700.336 1073.33 699.244 1072.49 697.852C1071.68 696.436 1071.27 694.84 1071.27 693.064C1071.27 691.288 1071.68 689.704 1072.49 688.312C1073.33 686.92 1074.47 685.84 1075.91 685.072C1077.35 684.304 1078.97 683.92 1080.77 683.92C1082.38 683.92 1083.83 684.244 1085.13 684.892C1086.43 685.54 1087.47 686.476 1088.26 687.7V684.064H1090.71ZM1081.03 700.012C1082.39 700.012 1083.63 699.724 1084.73 699.148C1085.84 698.548 1086.69 697.72 1087.29 696.664C1087.91 695.608 1088.23 694.408 1088.23 693.064C1088.23 691.72 1087.91 690.532 1087.29 689.5C1086.69 688.444 1085.84 687.628 1084.73 687.052C1083.65 686.452 1082.42 686.152 1081.03 686.152C1079.66 686.152 1078.42 686.44 1077.32 687.016C1076.24 687.592 1075.39 688.408 1074.76 689.464C1074.16 690.52 1073.86 691.72 1073.86 693.064C1073.86 694.408 1074.16 695.608 1074.76 696.664C1075.39 697.72 1076.24 698.548 1077.32 699.148C1078.42 699.724 1079.66 700.012 1081.03 700.012ZM1107.5 683.92C1109.88 683.92 1111.76 684.616 1113.16 686.008C1114.57 687.376 1115.28 689.38 1115.28 692.02V703H1112.72V692.272C1112.72 690.304 1112.23 688.804 1111.25 687.772C1110.26 686.74 1108.86 686.224 1107.04 686.224C1105 686.224 1103.38 686.836 1102.18 688.06C1101 689.26 1100.41 690.928 1100.41 693.064V703H1097.86V684.064H1100.3V687.556C1101 686.404 1101.96 685.516 1103.18 684.892C1104.43 684.244 1105.87 683.92 1107.5 683.92ZM1138.78 694.324H1122.94C1123.08 696.292 1123.84 697.888 1125.21 699.112C1126.57 700.312 1128.3 700.912 1130.39 700.912C1131.57 700.912 1132.65 700.708 1133.63 700.3C1134.61 699.868 1135.47 699.244 1136.19 698.428L1137.63 700.084C1136.79 701.092 1135.73 701.86 1134.46 702.388C1133.21 702.916 1131.83 703.18 1130.32 703.18C1128.37 703.18 1126.65 702.772 1125.13 701.956C1123.65 701.116 1122.48 699.964 1121.64 698.5C1120.8 697.036 1120.38 695.38 1120.38 693.532C1120.38 691.684 1120.78 690.028 1121.57 688.564C1122.39 687.1 1123.49 685.96 1124.88 685.144C1126.3 684.328 1127.88 683.92 1129.63 683.92C1131.39 683.92 1132.96 684.328 1134.35 685.144C1135.74 685.96 1136.83 687.1 1137.63 688.564C1138.42 690.004 1138.81 691.66 1138.81 693.532L1138.78 694.324ZM1129.63 686.116C1127.81 686.116 1126.27 686.704 1125.03 687.88C1123.8 689.032 1123.11 690.544 1122.94 692.416H1136.37C1136.2 690.544 1135.49 689.032 1134.24 687.88C1133.02 686.704 1131.48 686.116 1129.63 686.116ZM1146.47 687.772C1147.07 686.5 1147.95 685.54 1149.13 684.892C1150.33 684.244 1151.81 683.92 1153.56 683.92V686.404L1152.95 686.368C1150.95 686.368 1149.39 686.98 1148.27 688.204C1147.14 689.428 1146.57 691.144 1146.57 693.352V703H1144.02V684.064H1146.47V687.772Z" fill="#EFEFEF"/>
<path d="M347.256 604.216C343.992 604.216 341.448 603.28 339.624 601.408C337.8 599.536 336.888 596.812 336.888 593.236V578.8H339.552V593.128C339.552 596.056 340.212 598.24 341.532 599.68C342.852 601.12 344.76 601.84 347.256 601.84C349.776 601.84 351.696 601.12 353.016 599.68C354.336 598.24 354.996 596.056 354.996 593.128V578.8H357.588V593.236C357.588 596.812 356.676 599.536 354.852 601.408C353.052 603.28 350.52 604.216 347.256 604.216ZM365.616 578.8H368.28V604H365.616V578.8ZM385.901 578.8H396.161C398.825 578.8 401.177 579.34 403.217 580.42C405.257 581.476 406.841 582.964 407.969 584.884C409.097 586.78 409.661 588.952 409.661 591.4C409.661 593.848 409.097 596.032 407.969 597.952C406.841 599.848 405.257 601.336 403.217 602.416C401.177 603.472 398.825 604 396.161 604H385.901V578.8ZM396.017 601.696C398.225 601.696 400.157 601.264 401.813 600.4C403.469 599.512 404.753 598.3 405.665 596.764C406.577 595.204 407.033 593.416 407.033 591.4C407.033 589.384 406.577 587.608 405.665 586.072C404.753 584.512 403.469 583.3 401.813 582.436C400.157 581.548 398.225 581.104 396.017 581.104H388.565V601.696H396.017ZM431.591 595.324H415.751C415.895 597.292 416.651 598.888 418.019 600.112C419.387 601.312 421.115 601.912 423.203 601.912C424.379 601.912 425.459 601.708 426.443 601.3C427.427 600.868 428.279 600.244 428.999 599.428L430.439 601.084C429.599 602.092 428.543 602.86 427.271 603.388C426.023 603.916 424.643 604.18 423.131 604.18C421.187 604.18 419.459 603.772 417.947 602.956C416.459 602.116 415.295 600.964 414.455 599.5C413.615 598.036 413.195 596.38 413.195 594.532C413.195 592.684 413.591 591.028 414.383 589.564C415.199 588.1 416.303 586.96 417.695 586.144C419.111 585.328 420.695 584.92 422.447 584.92C424.199 584.92 425.771 585.328 427.163 586.144C428.555 586.96 429.647 588.1 430.439 589.564C431.231 591.004 431.627 592.66 431.627 594.532L431.591 595.324ZM422.447 587.116C420.623 587.116 419.087 587.704 417.839 588.88C416.615 590.032 415.919 591.544 415.751 593.416H429.179C429.011 591.544 428.303 590.032 427.055 588.88C425.831 587.704 424.295 587.116 422.447 587.116ZM441.906 604.18C440.37 604.18 438.894 603.964 437.478 603.532C436.086 603.076 434.994 602.512 434.202 601.84L435.354 599.824C436.146 600.448 437.142 600.964 438.342 601.372C439.542 601.756 440.79 601.948 442.086 601.948C443.814 601.948 445.086 601.684 445.902 601.156C446.742 600.604 447.162 599.836 447.162 598.852C447.162 598.156 446.934 597.616 446.478 597.232C446.022 596.824 445.446 596.524 444.75 596.332C444.054 596.116 443.13 595.912 441.978 595.72C440.442 595.432 439.206 595.144 438.27 594.856C437.334 594.544 436.53 594.028 435.858 593.308C435.21 592.588 434.886 591.592 434.886 590.32C434.886 588.736 435.546 587.44 436.866 586.432C438.186 585.424 440.022 584.92 442.374 584.92C443.598 584.92 444.822 585.088 446.046 585.424C447.27 585.736 448.278 586.156 449.07 586.684L447.954 588.736C446.394 587.656 444.534 587.116 442.374 587.116C440.742 587.116 439.506 587.404 438.666 587.98C437.85 588.556 437.442 589.312 437.442 590.248C437.442 590.968 437.67 591.544 438.126 591.976C438.606 592.408 439.194 592.732 439.89 592.948C440.586 593.14 441.546 593.344 442.77 593.56C444.282 593.848 445.494 594.136 446.406 594.424C447.318 594.712 448.098 595.204 448.746 595.9C449.394 596.596 449.718 597.556 449.718 598.78C449.718 600.436 449.022 601.756 447.63 602.74C446.262 603.7 444.354 604.18 441.906 604.18ZM454.443 585.064H456.999V604H454.443V585.064ZM455.739 580.924C455.211 580.924 454.767 580.744 454.407 580.384C454.047 580.024 453.867 579.592 453.867 579.088C453.867 578.608 454.047 578.188 454.407 577.828C454.767 577.468 455.211 577.288 455.739 577.288C456.267 577.288 456.711 577.468 457.071 577.828C457.431 578.164 457.611 578.572 457.611 579.052C457.611 579.58 457.431 580.024 457.071 580.384C456.711 580.744 456.267 580.924 455.739 580.924ZM481.643 585.064V601.696C481.643 604.912 480.851 607.288 479.267 608.824C477.707 610.384 475.343 611.164 472.175 611.164C470.423 611.164 468.755 610.9 467.171 610.372C465.611 609.868 464.339 609.16 463.355 608.248L464.651 606.304C465.563 607.12 466.667 607.756 467.963 608.212C469.283 608.668 470.663 608.896 472.103 608.896C474.503 608.896 476.267 608.332 477.395 607.204C478.523 606.1 479.087 604.372 479.087 602.02V599.608C478.295 600.808 477.251 601.72 475.955 602.344C474.683 602.968 473.267 603.28 471.707 603.28C469.931 603.28 468.311 602.896 466.847 602.128C465.407 601.336 464.267 600.244 463.427 598.852C462.611 597.436 462.203 595.84 462.203 594.064C462.203 592.288 462.611 590.704 463.427 589.312C464.267 587.92 465.407 586.84 466.847 586.072C468.287 585.304 469.907 584.92 471.707 584.92C473.315 584.92 474.767 585.244 476.063 585.892C477.359 586.54 478.403 587.476 479.195 588.7V585.064H481.643ZM471.959 601.012C473.327 601.012 474.563 600.724 475.667 600.148C476.771 599.548 477.623 598.72 478.223 597.664C478.847 596.608 479.159 595.408 479.159 594.064C479.159 592.72 478.847 591.532 478.223 590.5C477.623 589.444 476.771 588.628 475.667 588.052C474.587 587.452 473.351 587.152 471.959 587.152C470.591 587.152 469.355 587.44 468.251 588.016C467.171 588.592 466.319 589.408 465.695 590.464C465.095 591.52 464.795 592.72 464.795 594.064C464.795 595.408 465.095 596.608 465.695 597.664C466.319 598.72 467.171 599.548 468.251 600.148C469.355 600.724 470.591 601.012 471.959 601.012ZM498.439 584.92C500.815 584.92 502.699 585.616 504.091 587.008C505.507 588.376 506.215 590.38 506.215 593.02V604H503.659V593.272C503.659 591.304 503.167 589.804 502.183 588.772C501.199 587.74 499.795 587.224 497.971 587.224C495.931 587.224 494.311 587.836 493.111 589.06C491.935 590.26 491.347 591.928 491.347 594.064V604H488.791V585.064H491.239V588.556C491.935 587.404 492.895 586.516 494.119 585.892C495.367 585.244 496.807 584.92 498.439 584.92ZM529.712 595.324H513.872C514.016 597.292 514.772 598.888 516.14 600.112C517.508 601.312 519.236 601.912 521.324 601.912C522.5 601.912 523.58 601.708 524.564 601.3C525.548 600.868 526.4 600.244 527.12 599.428L528.56 601.084C527.72 602.092 526.664 602.86 525.392 603.388C524.144 603.916 522.764 604.18 521.252 604.18C519.308 604.18 517.58 603.772 516.068 602.956C514.58 602.116 513.416 600.964 512.576 599.5C511.736 598.036 511.316 596.38 511.316 594.532C511.316 592.684 511.712 591.028 512.504 589.564C513.32 588.1 514.424 586.96 515.816 586.144C517.232 585.328 518.816 584.92 520.568 584.92C522.32 584.92 523.892 585.328 525.284 586.144C526.676 586.96 527.768 588.1 528.56 589.564C529.352 591.004 529.748 592.66 529.748 594.532L529.712 595.324ZM520.568 587.116C518.744 587.116 517.208 587.704 515.96 588.88C514.736 590.032 514.04 591.544 513.872 593.416H527.3C527.132 591.544 526.424 590.032 525.176 588.88C523.952 587.704 522.416 587.116 520.568 587.116ZM537.399 588.772C537.999 587.5 538.887 586.54 540.063 585.892C541.263 585.244 542.739 584.92 544.491 584.92V587.404L543.879 587.368C541.887 587.368 540.327 587.98 539.199 589.204C538.071 590.428 537.507 592.144 537.507 594.352V604H534.951V585.064H537.399V588.772Z" fill="#EFEFEF"/>
</g>
<defs>
<linearGradient id="paint0_linear" x1="1015.14" y1="115.999" x2="1015.14" y2="224.749" gradientUnits="userSpaceOnUse">
<stop stop-color="#B29FD8"/>
<stop offset="1" stop-color="#7B62A2"/>
</linearGradient>
<linearGradient id="paint1_linear" x1="1046.25" y1="116.499" x2="1046.25" y2="224.749" gradientUnits="userSpaceOnUse">
<stop stop-color="#BCA8E0"/>
<stop offset="1" stop-color="#8668B2"/>
</linearGradient>
<linearGradient id="paint2_linear" x1="302.143" y1="109.999" x2="302.143" y2="218.749" gradientUnits="userSpaceOnUse">
<stop stop-color="#99ADD2"/>
<stop offset="1" stop-color="#506A92"/>
</linearGradient>
<linearGradient id="paint3_linear" x1="333.25" y1="110.499" x2="333.25" y2="218.749" gradientUnits="userSpaceOnUse">
<stop stop-color="#ABB7E1"/>
<stop offset="1" stop-color="#7B88BF"/>
</linearGradient>
<linearGradient id="paint4_linear" x1="1032.14" y1="555.999" x2="1032.14" y2="664.749" gradientUnits="userSpaceOnUse">
<stop stop-color="#91CC97"/>
<stop offset="1" stop-color="#569863"/>
</linearGradient>
<linearGradient id="paint5_linear" x1="1063.25" y1="556.499" x2="1063.25" y2="664.749" gradientUnits="userSpaceOnUse">
<stop stop-color="#ACE2B1"/>
<stop offset="1" stop-color="#7EC187"/>
</linearGradient>
<linearGradient id="paint6_linear" x1="425.143" y1="457.999" x2="425.143" y2="566.749" gradientUnits="userSpaceOnUse">
<stop stop-color="#D39E99"/>
<stop offset="1" stop-color="#915F4F"/>
</linearGradient>
<linearGradient id="paint7_linear" x1="456.25" y1="458.499" x2="456.25" y2="566.749" gradientUnits="userSpaceOnUse">
<stop stop-color="#BF9F7B"/>
<stop offset="1" stop-color="#DFB6A8"/>
</linearGradient>
<linearGradient id="paint8_linear" x1="1315.14" y1="327.999" x2="1315.14" y2="436.749" gradientUnits="userSpaceOnUse">
<stop stop-color="#D1CC98"/>
<stop offset="1" stop-color="#939051"/>
</linearGradient>
<linearGradient id="paint9_linear" x1="1346.25" y1="328.499" x2="1346.25" y2="436.749" gradientUnits="userSpaceOnUse">
<stop stop-color="#DEE2AC"/>
<stop offset="1" stop-color="#BABE79"/>
</linearGradient>
<clipPath id="clip0">
<rect width="1746" height="869" fill="white"/>
</clipPath>
</defs>
</svg>
