<svg width="203" height="203" viewBox="0 0 203 203" fill="none" xmlns="http://www.w3.org/2000/svg">
<path d="M104.471 174.888L105.355 166.523C121.614 165.607 136.345 158.916 147.551 148.483L153.431 154.363C140.511 166.49 123.371 174.154 104.471 174.888ZM101.501 189.236V176.408C101.957 176.408 102.406 176.381 102.86 176.372L101.501 189.236ZM49.5705 154.363L55.4503 148.483C66.6567 158.916 81.3872 165.607 97.6434 166.523L98.5272 174.888C79.6305 174.154 62.4906 166.49 49.5705 154.363ZM25.7368 104.22L34.1469 105.109C35.6377 121.668 43.1158 136.519 54.4027 147.487L48.5229 153.364C35.5276 140.696 27.0503 123.43 25.7368 104.22ZM13.763 101.499H24.1547C24.1654 101.867 24.1654 102.237 24.1842 102.603L13.763 101.499ZM46.135 47.0707L52.0148 52.9505C40.9911 64.788 34.1603 80.566 33.8837 97.918L25.5434 98.8017C25.5944 78.8066 33.419 60.6192 46.135 47.0707ZM99.059 23.1002L98.1753 31.4404C80.4981 32.3027 64.5938 39.9875 53.014 51.9029L47.1342 46.0231C60.4089 32.4047 78.736 23.7475 99.059 23.1002ZM101.501 13.7634V21.5906C101.221 21.5906 100.947 21.6094 100.671 21.6121L101.501 13.7634ZM155.864 46.0231L149.987 51.9029C138.408 39.9875 122.501 32.3027 104.823 31.4404L103.942 23.1002C124.263 23.7475 142.59 32.4047 155.864 46.0231ZM177.458 98.8017L169.115 97.918C168.841 80.566 162.01 64.788 150.984 52.9505L156.864 47.0707C169.58 60.6192 177.404 78.8066 177.458 98.8017ZM137.604 136.493C142.302 131.967 146.149 126.573 148.894 120.57L161.809 126.229C158.354 133.852 153.503 140.704 147.575 146.463L137.604 136.493ZM128.794 159.281L123.118 146.369C128.055 144.108 132.589 141.107 136.557 137.492L146.528 147.463C141.322 152.3 135.343 156.305 128.794 159.281ZM107.018 150.793C112.21 150.243 117.174 148.932 121.799 146.968L127.475 159.878C120.663 162.797 113.263 164.597 105.511 165.061L107.018 150.793ZM102.223 165.175V151.07C103.341 151.054 104.45 151 105.551 150.914L104.047 165.129C103.443 165.153 102.833 165.172 102.223 165.175ZM101.501 166.641C102.304 166.641 103.099 166.609 103.894 166.58L103.013 174.922C102.508 174.931 102.008 174.96 101.501 174.96V166.641ZM81.2502 146.99C85.8596 148.943 90.81 150.245 95.9808 150.793L97.4903 165.061C89.7598 164.597 82.3837 162.811 75.5852 159.907L81.2502 146.99ZM66.4418 137.492C70.4226 141.118 74.9728 144.129 79.9314 146.394L74.2691 159.308C67.6962 156.332 61.6928 152.314 56.4737 147.463L66.4418 137.492ZM49.9949 106.785C50.653 111.155 51.8536 115.353 53.5324 119.299L40.6204 124.975C37.988 118.826 36.2636 112.2 35.6082 105.264L49.9949 106.785ZM35.3691 101.499H49.4765C49.5382 102.785 49.6537 104.053 49.8095 105.31L35.498 103.798C35.4416 103.035 35.396 102.269 35.3691 101.499ZM33.9213 101.499C33.9482 102.218 33.9858 102.933 34.0368 103.642L25.6347 102.753C25.6132 102.339 25.6159 101.918 25.6025 101.499H33.9213ZM40.5909 73.0853L53.511 78.7502C51.209 84.1814 49.8042 90.0827 49.4845 96.2688L35.3369 97.7649C35.498 89.0244 37.3434 80.6895 40.5909 73.0853ZM63.009 63.9446C59.3801 67.9226 56.3716 72.4729 54.1073 77.4287L41.1899 71.7664C44.1687 65.1963 48.1844 59.1929 53.0382 53.9739L63.009 63.9446ZM74.2073 38.717L79.8803 51.6289C73.8957 54.3714 68.5208 58.2098 64.0082 62.8943L54.0374 52.9236C59.7803 47.0116 66.6083 42.1713 74.2073 38.717ZM96.5153 47.1566C91.1323 47.6697 85.9831 48.9993 81.2019 51.03L75.5262 38.1207C82.4939 35.1338 90.074 33.3126 98.0222 32.8963L96.5153 47.1566ZM100.775 32.8238V46.931C99.838 46.9444 98.9059 46.9821 97.9819 47.0438L99.4807 32.856C99.9132 32.8426 100.343 32.8291 100.775 32.8238ZM101.501 31.3572C100.875 31.3572 100.257 31.3894 99.6338 31.4055L100.518 23.0626C100.845 23.0572 101.17 23.0384 101.501 23.0384V31.3572ZM121.751 51.0111C116.981 48.9912 111.85 47.667 106.486 47.1566L104.976 32.8963C112.903 33.31 120.462 35.123 127.413 38.0938L121.751 51.0111ZM138.993 62.8943C134.467 58.1964 129.073 54.3499 123.07 51.6048L128.732 38.6901C136.353 42.1444 143.205 46.9955 148.964 52.9236L138.993 62.8943ZM148.87 77.383C146.608 72.4433 143.608 67.9119 139.99 63.9446L149.96 53.9739C154.801 59.1768 158.806 65.1587 161.782 71.7073L148.87 77.383ZM153.514 96.2688C153.194 90.0666 151.782 84.1465 149.469 78.6992L162.378 73.0235C165.644 80.6466 167.503 89.0002 167.664 97.7649L153.514 96.2688ZM178.847 101.499C178.857 101.136 178.865 100.771 178.874 100.403L189.236 101.499H178.847ZM101.501 146.745V114.915C104.563 114.915 107.381 113.879 109.648 112.154L106.013 146.528C104.528 146.667 103.024 146.745 101.501 146.745ZM88.0004 101.499C88.0219 104.566 89.0748 107.386 90.8208 109.648L54.2416 105.777C54.0401 104.37 53.8951 102.946 53.8172 101.499H88.0004ZM101.501 51.2529V87.907C98.4466 87.907 95.6369 88.9385 93.3726 90.6522L97.5172 51.4329C98.8334 51.3227 100.158 51.2529 101.501 51.2529ZM149.249 99.0005C149.249 99.8385 149.224 100.671 149.181 101.499H115.001C115.001 101.472 115.004 101.442 115.004 101.41C115.004 98.3961 113.999 95.6187 112.323 93.3678L149.203 97.268C149.224 97.8428 149.249 98.4203 149.249 99.0005ZM153.571 98.2752C153.568 98.0926 153.56 97.9099 153.557 97.7273L158.741 98.2752H153.571ZM153.525 101.499C153.552 100.91 153.562 100.317 153.571 99.723H167.675C167.673 100.317 167.654 100.91 167.632 101.499H153.525ZM93.5149 110.422L94.8016 109.132C96.5985 110.69 98.9355 111.644 101.501 111.644C104.066 111.644 106.403 110.69 108.197 109.132L109.486 110.422C107.356 112.31 104.563 113.468 101.501 113.468C98.4358 113.468 95.645 112.31 93.5149 110.422ZM92.4915 93.4269L93.7782 94.7135C92.2202 96.5078 91.2693 98.8447 91.2693 101.41C91.2693 103.975 92.2202 106.312 93.7782 108.109L92.4915 109.398C90.6032 107.268 89.4428 104.475 89.4428 101.41C89.4428 98.3477 90.6032 95.5569 92.4915 93.4269ZM109.486 92.4035L108.197 93.6901C106.403 92.1295 104.066 91.1813 101.501 91.1813C98.9355 91.1813 96.5985 92.1295 94.8016 93.6901L93.5149 92.4035C95.645 90.5125 98.4358 89.3548 101.501 89.3548C104.563 89.3548 107.356 90.5125 109.486 92.4035ZM110.51 109.398L109.22 108.109C110.781 106.312 111.732 103.975 111.732 101.41C111.732 98.8447 110.781 96.5078 109.22 94.7135L110.51 93.4269C112.398 95.5569 113.559 98.3477 113.559 101.41C113.559 104.475 112.398 107.268 110.51 109.398ZM149.128 95.804L112.049 91.8851L136.919 67.0175C143.906 74.7453 148.394 84.7697 149.128 95.804ZM135.926 65.9645L111.098 90.7892L106.953 51.5752C118.283 52.8672 128.415 58.1427 135.926 65.9645ZM96.0479 51.5752L91.9032 90.7892L67.0757 65.9645C74.5834 58.1427 84.718 52.8672 96.0479 51.5752ZM66.0819 67.0175L90.9524 91.8851L53.8709 95.804C54.6042 84.7697 59.0926 74.7453 66.0819 67.0175ZM54.4833 107.26L90.7912 111.099L68.4644 133.422C61.2952 126.543 56.2696 117.454 54.4833 107.26ZM69.5174 134.416L91.8871 112.047L95.5134 146.359C85.5829 145.11 76.5898 140.812 69.5174 134.416ZM107.488 146.359L111.114 112.047L133.484 134.416C126.411 140.812 117.418 145.11 107.488 146.359ZM134.537 133.422L112.21 111.099L148.518 107.26C146.732 117.454 141.706 126.543 134.537 133.422ZM162.408 124.913L149.49 119.251C151.156 115.318 152.348 111.136 153.004 106.785L167.39 105.264C166.738 112.176 165.027 118.781 162.408 124.913ZM177.431 100.252C177.423 100.669 177.412 101.085 177.399 101.499H169.077C169.104 100.795 169.128 100.086 169.131 99.3738L177.431 100.252ZM41.2167 126.294L54.1287 120.618C56.8712 126.603 60.7124 131.977 65.3969 136.493L55.4261 146.463C49.5114 140.721 44.671 133.89 41.2167 126.294ZM154.476 153.364L148.596 147.487C159.883 136.519 167.364 121.668 168.852 105.109L177.262 104.22C175.951 123.43 167.474 140.696 154.476 153.364ZM178.726 104.064L203 101.499L178.908 98.9521C178.895 78.5031 170.898 59.894 157.887 46.0473L171.753 32.1818L170.729 31.1584L156.888 44.9997C143.318 31.0859 124.571 22.2568 103.789 21.6497L101.501 0L99.2121 21.6497C78.4298 22.2568 59.6809 31.0859 46.1135 44.9997L32.2693 31.1584L31.246 32.1818L45.1142 46.0473C32.1028 59.894 24.1036 78.5031 24.0929 98.9521L0 101.499L24.2756 104.064C25.5541 123.739 34.2087 141.424 47.4995 154.387L31.246 170.64L32.2693 171.664L48.5471 155.386C61.7653 167.804 79.3243 175.64 98.6803 176.338L101.501 203L104.318 176.338C123.677 175.64 141.236 167.804 154.454 155.386L170.729 171.664L171.753 170.64L155.499 154.387C168.793 141.424 177.447 123.739 178.726 104.064Z" fill="#484747"/>
</svg>
