<svg width="197" height="336" viewBox="0 0 197 336" fill="none" xmlns="http://www.w3.org/2000/svg">
<g clip-path="url(#clip0)">
<path d="M88.6518 182.161L187.647 281.156C200.144 293.653 200.144 313.914 187.647 326.411C175.15 338.908 154.889 338.908 142.392 326.411L12.2843 196.304C-3.3367 180.683 -3.3367 155.356 12.2843 139.735L142.392 9.62742C154.889 -2.86936 175.15 -2.86936 187.647 9.62741C200.144 22.1242 200.144 42.3855 187.647 54.8822L88.6518 153.877C80.8413 161.688 80.8413 174.351 88.6518 182.161Z" fill="#299E58"/>
<path d="M88.6518 182.161L187.647 281.156C200.144 293.653 200.144 313.914 187.647 326.411C175.15 338.908 154.889 338.908 142.392 326.411L12.2843 196.304C-3.3367 180.683 -3.3367 155.356 12.2843 139.735L142.392 9.62742C154.889 -2.86936 175.15 -2.86936 187.647 9.62741C200.144 22.1242 200.144 42.3855 187.647 54.8822L88.6518 153.877C80.8413 161.688 80.8413 174.351 88.6518 182.161Z" stroke="black"/>
</g>
<defs>
<clipPath id="clip0">
<rect width="197" height="336" fill="white"/>
</clipPath>
</defs>
</svg>
