<svg width="2208" height="936" viewBox="0 0 2208 936" fill="none" xmlns="http://www.w3.org/2000/svg">
<g clip-path="url(#clip0)">
<path d="M1721.46 483L1758.5 499.5L1820 583L1856 602L1936.5 694L2035.5 754L2084.5 805L2122 866.5L2176 913L2234 954.711L1387 955L1447 899L1480.18 823.5L1520.5 721H1576.5L1650.5 608.5L1679.3 542.5L1721.46 483Z" fill="url(#paint0_linear)"/>
<path d="M1722.14 483L1676.8 547L1650.5 610L1610.5 669.5L1598.5 690L1387 956H2152.5L2031.5 882L1929.5 724L1802 642L1778 554.5L1722.14 483Z" fill="url(#paint1_linear)"/>
<path d="M624.5 290.5L648.5 306.5L693.5 355L732.5 376L777.552 431.5L1328 938.604L122 952L67 938.604V876L178 798L230 748L292 661L377.5 591.5L437 491.5L502 398L585 314L606.5 285L624.5 290.5Z" fill="url(#paint2_linear)"/>
<path d="M624.5 290.5L648 306L1084 939H165L179.508 918.5L234.709 840.5L270.802 789.5L310.08 734L354.665 671L395.005 614L479 572.5L493 505.5L555 424.5L596.347 329.5L606.5 285L624.5 290.5Z" fill="url(#paint3_linear)"/>
<path d="M1014.5 121.5L1083.5 155L1179.5 271L1232.5 330L1352.5 436L1439 564L1570.5 660L1692.5 743.772L1796.75 841.136L1861.5 958.5L436 939L1014.5 121.5Z" fill="url(#paint4_linear)"/>
<path d="M1011.5 120L1170 304L1260 559L1552.5 781L1584.42 929L1739.5 952L432 939L566.5 799.5L735.5 526.5L812 436L890.5 322L961.616 190.5L1011.5 120Z" fill="url(#paint5_linear)"/>
<path d="M1721.46 483L1758.5 499.5L1820 583L1856 602L1936.5 694L2035.5 754L2084.5 805L2122 866.5L2176 913L2234 954.711L1387 955L1447 899L1480.18 823.5L1520.5 721H1576.5L1650.5 608.5L1679.3 542.5L1721.46 483Z" fill="url(#paint6_linear)"/>
<path d="M1722.14 483L1676.8 547L1650.5 610L1610.5 669.5L1598.5 690L1387 956H2152.5L2031.5 882L1929.5 724L1802 642L1778 554.5L1722.14 483Z" fill="url(#paint7_linear)"/>
<path d="M624.5 290.5L648.5 306.5L693.5 355L732.5 376L777.552 431.5L1328 938.604L122 952L-8.5 944L67 876L178 798L230 748L292 661L377.5 591.5L437 491.5L502 398L585 314L606.5 285L624.5 290.5Z" fill="url(#paint8_linear)"/>
<path d="M624.5 290.5L648 306L1084 939H165L179.508 918.5L234.709 840.5L270.802 789.5L310.08 734L354.665 671L395.005 614L479 572.5L493 505.5L555 424.5L596.347 329.5L606.5 285L624.5 290.5Z" fill="url(#paint9_linear)"/>
<path d="M1014.5 121.5L1083.5 155L1179.5 271L1232.5 330L1352.5 436L1439 564L1570.5 660L1692.5 743.772L1796.75 841.136L1861.5 958.5L436 939L1014.5 121.5Z" fill="url(#paint10_linear)"/>
<path d="M1011.5 120L1170 304L1260 559L1552.5 781L1584.42 929L1739.5 952L432 939L566.5 799.5L735.5 526.5L812 436L890.5 322L961.616 190.5L1011.5 120Z" fill="url(#paint11_linear)"/>
<path d="M765.978 479H1354.85M626 705H1504" stroke="url(#paint12_linear)" stroke-opacity="0.9" stroke-width="13"/>
<line x1="896" y1="297.5" x2="1185" y2="297.5" stroke="url(#paint13_linear)" stroke-opacity="0.5" stroke-width="13"/>
<path d="M1116.08 38.1931L1116.11 27.1932L1047.11 26.9849L1047 64.4847L1114 64.6869L1114.04 50.187L1095.06 43.6297L1116.08 38.1931Z" fill="#B6BF50"/>
<path d="M1047 64.4846L1007.4 49.0033L1087.08 49.2438L1047 64.4846Z" fill="#B0B341"/>
<path d="M1013.34 14.021L1087.34 14.2444L1087.24 49.2442L1013.24 49.0208L1013.34 14.021Z" fill="#A0A336"/>
<rect x="1006.39" width="11" height="128" rx="5.5" transform="rotate(0.172961 1006.39 0)" fill="#7D7E2D"/>
<path d="M1552.69 534.634L1557.42 524.705L1495.14 495L1479 528.847L1539.47 557.691L1545.72 544.604L1531.36 530.557L1552.69 534.634Z" fill="#B6BF50"/>
<path d="M1479 529L1449.57 497.879L1521.49 532.18L1479 529Z" fill="#B0B341"/>
<path d="M1469.91 468.802L1536.7 500.66L1521.63 532.25L1454.84 500.392L1469.91 468.802Z" fill="#A0A336"/>
<rect x="1469.62" y="453.152" width="11" height="128" rx="5.5" transform="rotate(25.5 1469.62 453.152)" fill="#7D7E2D"/>
<path d="M1397.14 321.718L1400.73 311.318L1335.49 288.854L1323.28 324.31L1386.63 346.124L1391.35 332.414L1375.5 320.082L1397.14 321.718Z" fill="#B6BF50"/>
<path d="M1323.33 324.49L1290.55 297.337L1365.88 323.277L1323.33 324.49Z" fill="#B0B341"/>
<path d="M1307.46 266.145L1377.43 290.237L1366.03 323.33L1296.07 299.238L1307.46 266.145Z" fill="#A0A336"/>
<rect x="1305.4" y="250.628" width="11" height="128" rx="5.5" transform="rotate(19 1305.4 250.628)" fill="#7D7E2D"/>
<path d="M1810.03 717.363L1808.03 706.547L1740.18 719.121L1747.02 755.993L1812.9 743.783L1810.25 729.526L1790.39 726.597L1810.03 717.363Z" fill="#B6BF50"/>
<path d="M1746.89 756.138L1704.99 748.649L1783.33 734.129L1746.89 756.138Z" fill="#B0B341"/>
<path d="M1704.35 713.171L1777.11 699.685L1783.49 734.099L1710.73 747.585L1704.35 713.171Z" fill="#A0A336"/>
<rect x="1694.92" y="700.681" width="11" height="128" rx="5.5" transform="rotate(-10.5 1694.92 700.681)" fill="#7D7E2D"/>
</g>
<defs>
<linearGradient id="paint0_linear" x1="1810.36" y1="483" x2="1810.36" y2="955.866" gradientUnits="userSpaceOnUse">
<stop stop-color="#D5CF9C"/>
<stop offset="1" stop-color="#909150"/>
</linearGradient>
<linearGradient id="paint1_linear" x1="1722.14" y1="483" x2="1722.14" y2="1114.82" gradientUnits="userSpaceOnUse">
<stop stop-color="#E3DAAB"/>
<stop offset="0.567708" stop-color="#C8C289"/>
<stop offset="1" stop-color="#B0B166"/>
</linearGradient>
<linearGradient id="paint2_linear" x1="748.302" y1="292" x2="748.302" y2="940.187" gradientUnits="userSpaceOnUse">
<stop stop-color="#CBC591"/>
<stop offset="0.46875" stop-color="#AEA870"/>
<stop offset="1" stop-color="#928750"/>
</linearGradient>
<linearGradient id="paint3_linear" x1="624.302" y1="290" x2="624.302" y2="1156.92" gradientUnits="userSpaceOnUse">
<stop stop-color="#DEE2AD"/>
<stop offset="0.421875" stop-color="#C7C59E"/>
<stop offset="1" stop-color="#A9AA73"/>
</linearGradient>
<linearGradient id="paint4_linear" x1="1168.25" y1="121.5" x2="1168.25" y2="940.5" gradientUnits="userSpaceOnUse">
<stop stop-color="#D5CF9C"/>
<stop offset="0.40625" stop-color="#BABB80"/>
<stop offset="1" stop-color="#918E4F"/>
</linearGradient>
<linearGradient id="paint5_linear" x1="1011.5" y1="120" x2="1011.5" y2="1214" gradientUnits="userSpaceOnUse">
<stop stop-color="#DFE3AD"/>
<stop offset="0.479167" stop-color="#C4C98A"/>
<stop offset="1" stop-color="#B2B36A"/>
</linearGradient>
<linearGradient id="paint6_linear" x1="1810.36" y1="483" x2="1810.36" y2="955.866" gradientUnits="userSpaceOnUse">
<stop stop-color="#D5CF9C"/>
<stop offset="1" stop-color="#909150"/>
</linearGradient>
<linearGradient id="paint7_linear" x1="1722.14" y1="483" x2="1722.14" y2="1114.82" gradientUnits="userSpaceOnUse">
<stop stop-color="#E3DAAB"/>
<stop offset="0.567708" stop-color="#C8C289"/>
<stop offset="1" stop-color="#B0B166"/>
</linearGradient>
<linearGradient id="paint8_linear" x1="748.302" y1="292" x2="748.302" y2="940.187" gradientUnits="userSpaceOnUse">
<stop stop-color="#CBC591"/>
<stop offset="0.46875" stop-color="#AEA870"/>
<stop offset="1" stop-color="#928750"/>
</linearGradient>
<linearGradient id="paint9_linear" x1="624.302" y1="290" x2="624.302" y2="1156.92" gradientUnits="userSpaceOnUse">
<stop stop-color="#DEE2AD"/>
<stop offset="0.421875" stop-color="#C7C59E"/>
<stop offset="1" stop-color="#A9AA73"/>
</linearGradient>
<linearGradient id="paint10_linear" x1="1168.25" y1="121.5" x2="1168.25" y2="940.5" gradientUnits="userSpaceOnUse">
<stop stop-color="#D5CF9C"/>
<stop offset="0.40625" stop-color="#BABB80"/>
<stop offset="1" stop-color="#918E4F"/>
</linearGradient>
<linearGradient id="paint11_linear" x1="1011.5" y1="120" x2="1011.5" y2="1214" gradientUnits="userSpaceOnUse">
<stop stop-color="#DFE3AD"/>
<stop offset="0.479167" stop-color="#C4C98A"/>
<stop offset="1" stop-color="#B2B36A"/>
</linearGradient>
<linearGradient id="paint12_linear" x1="1354.79" y1="488.449" x2="766.03" y2="481.287" gradientUnits="userSpaceOnUse">
<stop stop-color="#ABA14D" stop-opacity="0"/>
<stop offset="0.286458" stop-color="#ABA14D"/>
<stop offset="0.707384" stop-color="#ABA14D"/>
<stop offset="1" stop-color="#ABA14D" stop-opacity="0"/>
</linearGradient>
<linearGradient id="paint13_linear" x1="1184.97" y1="306.999" x2="895.992" y2="305.274" gradientUnits="userSpaceOnUse">
<stop stop-color="#ABA14D" stop-opacity="0"/>
<stop offset="0.28125" stop-color="#ABA14D"/>
<stop offset="0.707384" stop-color="#ABA14D"/>
<stop offset="1" stop-color="#ABA14D" stop-opacity="0"/>
</linearGradient>
<clipPath id="clip0">
<rect width="2208" height="936" fill="white"/>
</clipPath>
</defs>
</svg>
