<svg width="2208" height="936" viewBox="0 0 2208 936" fill="none" xmlns="http://www.w3.org/2000/svg">
<g clip-path="url(#clip0)">
<path d="M1715.46 479L1752.5 495.5L1814 579L1850 598L1930.5 690L2029.5 750L2078.5 801L2116 862.5L2170 909L2228 950.711L1381 951L1441 895L1474.18 819.5L1514.5 717H1570.5L1644.5 604.5L1673.3 538.5L1715.46 479Z" fill="url(#paint0_linear)"/>
<path d="M1716.14 479L1670.8 543L1644.5 606L1604.5 665.5L1592.5 686L1381 952H2221.5L2028.5 850L1909.5 718L1783.5 620L1761.45 543L1716.14 479Z" fill="url(#paint1_linear)"/>
<path d="M618.5 286.5L642.5 302.5L687.5 351L726.5 372L771.552 427.5L1322 934.604L116 948L-6.5 945.5L61 872L172 794L224 744L286 657L371.5 587.5L431 487.5L496 394L579 310L600.5 281L618.5 286.5Z" fill="url(#paint2_linear)"/>
<path d="M618.302 286L1087 949.5L154 942L173.508 914.5L228.709 836.5L264.802 785.5L304.08 730L348.665 667L389.005 610L473 568.5L487 501.5L549 420.5L590.347 325.5L618.302 286Z" fill="url(#paint3_linear)"/>
<path d="M1008.5 117.5L1077.5 151L1173.5 267L1226.5 326L1346.5 432L1433 560L1564.5 656L1686.5 739.772L1790.75 837.136L1855.5 954.5L430 935L1008.5 117.5Z" fill="url(#paint4_linear)"/>
<path d="M1005.5 116L1164 300L1254 555L1546.5 777L1578.42 925L1733.5 948L426 935L560.5 795.5L729.5 522.5L806 432L884.5 318L955.616 186.5L1005.5 116Z" fill="url(#paint5_linear)"/>
<path d="M771 478.5H1381M626 704.5H1535.5" stroke="url(#paint6_linear)" stroke-opacity="0.9" stroke-width="13"/>
<line x1="885" y1="297.5" x2="1205" y2="297.5" stroke="url(#paint7_linear)" stroke-opacity="0.5" stroke-width="13"/>
<path d="M1550.74 533.946L1555.47 524.018L1493.2 494.312L1477.05 528.159L1537.52 557.003L1543.77 543.916L1529.42 529.869L1550.74 533.946Z" fill="#625095"/>
<path d="M1479.07 528.569L1449.57 497.88L1521.49 532.181L1479.07 528.569Z" fill="#5A4A89"/>
<path d="M1469.91 468.802L1536.7 500.66L1521.63 532.251L1454.84 500.393L1469.91 468.802Z" fill="#534381"/>
<rect x="1469.62" y="453.153" width="11" height="128" rx="5.5" transform="rotate(25.5 1469.62 453.153)" fill="#342D7E"/>
<path d="M1395.14 321.719L1398.73 311.318L1333.49 288.854L1321.28 324.311L1384.63 346.124L1389.35 332.414L1373.5 320.082L1395.14 321.719Z" fill="#625095"/>
<path d="M1323.33 324.489L1290.55 297.337L1365.88 323.276L1323.33 324.489Z" fill="#5A4A89"/>
<path d="M1307.46 266.144L1377.43 290.236L1366.03 323.329L1296.07 299.237L1307.46 266.144Z" fill="#534381"/>
<rect x="1305.4" y="250.628" width="11" height="128" rx="5.5" transform="rotate(19 1305.4 250.628)" fill="#342D7E"/>
<path d="M1113.27 38.3411L1113.3 27.3411L1044.3 27.1328L1044.19 64.6326L1111.19 64.8349L1111.23 50.335L1092.25 43.7776L1113.27 38.3411Z" fill="#625095"/>
<path d="M1046.19 64.1385L1006.4 49.0183L1086.07 49.2588L1046.19 64.1385Z" fill="#5A4A89"/>
<path d="M1012.34 14.0361L1086.34 14.2595L1086.24 49.2594L1012.24 49.036L1012.34 14.0361Z" fill="#534381"/>
<rect x="1005.39" y="0.0151367" width="11" height="128" rx="5.5" transform="rotate(0.172961 1005.39 0.0151367)" fill="#342D7E"/>
<path d="M1808.03 718.363L1806.03 707.548L1738.18 720.122L1745.02 756.994L1810.9 744.784L1808.25 730.527L1788.39 727.598L1808.03 718.363Z" fill="#625095"/>
<path d="M1746.89 756.138L1704.99 748.649L1783.33 734.129L1746.89 756.138Z" fill="#5A4A89"/>
<path d="M1704.35 713.171L1777.11 699.686L1783.49 734.1L1710.73 747.585L1704.35 713.171Z" fill="#534381"/>
<rect x="1694.92" y="700.681" width="11" height="128" rx="5.5" transform="rotate(-10.5 1694.92 700.681)" fill="#342D7E"/>
<path d="M968.022 251.36C966.078 251.36 964.194 251.084 962.37 250.532C960.57 249.98 959.142 249.248 958.086 248.336L959.706 244.7C960.738 245.516 961.998 246.188 963.486 246.716C964.998 247.22 966.51 247.472 968.022 247.472C969.894 247.472 971.286 247.172 972.198 246.572C973.134 245.972 973.602 245.18 973.602 244.196C973.602 243.476 973.338 242.888 972.81 242.432C972.306 241.952 971.658 241.58 970.866 241.316C970.074 241.052 968.994 240.752 967.626 240.416C965.706 239.96 964.146 239.504 962.946 239.048C961.77 238.592 960.75 237.884 959.886 236.924C959.046 235.94 958.626 234.62 958.626 232.964C958.626 231.572 958.998 230.312 959.742 229.184C960.51 228.032 961.65 227.12 963.162 226.448C964.698 225.776 966.57 225.44 968.778 225.44C970.314 225.44 971.826 225.632 973.314 226.016C974.802 226.4 976.086 226.952 977.166 227.672L975.69 231.308C974.586 230.66 973.434 230.168 972.234 229.832C971.034 229.496 969.87 229.328 968.742 229.328C966.894 229.328 965.514 229.64 964.602 230.264C963.714 230.888 963.27 231.716 963.27 232.748C963.27 233.468 963.522 234.056 964.026 234.512C964.554 234.968 965.214 235.328 966.006 235.592C966.798 235.856 967.878 236.156 969.246 236.492C971.118 236.924 972.654 237.38 973.854 237.86C975.054 238.316 976.074 239.024 976.914 239.984C977.778 240.944 978.21 242.24 978.21 243.872C978.21 245.264 977.826 246.524 977.058 247.652C976.314 248.78 975.174 249.68 973.638 250.352C972.102 251.024 970.23 251.36 968.022 251.36ZM989.763 231.56C992.595 231.56 994.755 232.244 996.243 233.612C997.755 234.956 998.511 236.996 998.511 239.732V251H994.263V248.66C993.711 249.5 992.919 250.148 991.887 250.604C990.879 251.036 989.655 251.252 988.215 251.252C986.775 251.252 985.515 251.012 984.435 250.532C983.355 250.028 982.515 249.344 981.915 248.48C981.339 247.592 981.051 246.596 981.051 245.492C981.051 243.764 981.687 242.384 982.959 241.352C984.255 240.296 986.283 239.768 989.043 239.768H994.011V239.48C994.011 238.136 993.603 237.104 992.787 236.384C991.995 235.664 990.807 235.304 989.223 235.304C988.143 235.304 987.075 235.472 986.019 235.808C984.987 236.144 984.111 236.612 983.391 237.212L981.627 233.936C982.635 233.168 983.847 232.58 985.263 232.172C986.679 231.764 988.179 231.56 989.763 231.56ZM989.151 247.976C990.279 247.976 991.275 247.724 992.139 247.22C993.027 246.692 993.651 245.948 994.011 244.988V242.756H989.367C986.775 242.756 985.479 243.608 985.479 245.312C985.479 246.128 985.803 246.776 986.451 247.256C987.099 247.736 987.999 247.976 989.151 247.976ZM1004.29 224.288H1008.79V251H1004.29V224.288ZM1022.04 231.56C1024.87 231.56 1027.03 232.244 1028.52 233.612C1030.03 234.956 1030.78 236.996 1030.78 239.732V251H1026.54V248.66C1025.98 249.5 1025.19 250.148 1024.16 250.604C1023.15 251.036 1021.93 251.252 1020.49 251.252C1019.05 251.252 1017.79 251.012 1016.71 250.532C1015.63 250.028 1014.79 249.344 1014.19 248.48C1013.61 247.592 1013.32 246.596 1013.32 245.492C1013.32 243.764 1013.96 242.384 1015.23 241.352C1016.53 240.296 1018.56 239.768 1021.32 239.768H1026.28V239.48C1026.28 238.136 1025.88 237.104 1025.06 236.384C1024.27 235.664 1023.08 235.304 1021.5 235.304C1020.42 235.304 1019.35 235.472 1018.29 235.808C1017.26 236.144 1016.38 236.612 1015.66 237.212L1013.9 233.936C1014.91 233.168 1016.12 232.58 1017.54 232.172C1018.95 231.764 1020.45 231.56 1022.04 231.56ZM1021.42 247.976C1022.55 247.976 1023.55 247.724 1024.41 247.22C1025.3 246.692 1025.92 245.948 1026.28 244.988V242.756H1021.64C1019.05 242.756 1017.75 243.608 1017.75 245.312C1017.75 246.128 1018.08 246.776 1018.72 247.256C1019.37 247.736 1020.27 247.976 1021.42 247.976ZM1036.56 231.776H1041.06V251H1036.56V231.776ZM1038.83 228.608C1038.01 228.608 1037.33 228.356 1036.78 227.852C1036.22 227.324 1035.95 226.676 1035.95 225.908C1035.95 225.14 1036.22 224.504 1036.78 224C1037.33 223.472 1038.01 223.208 1038.83 223.208C1039.64 223.208 1040.33 223.46 1040.88 223.964C1041.43 224.444 1041.71 225.056 1041.71 225.8C1041.71 226.592 1041.43 227.264 1040.88 227.816C1040.35 228.344 1039.67 228.608 1038.83 228.608ZM1051.25 234.584C1052.55 232.568 1054.83 231.56 1058.09 231.56V235.844C1057.71 235.772 1057.36 235.736 1057.05 235.736C1055.29 235.736 1053.93 236.252 1052.94 237.284C1051.96 238.292 1051.47 239.756 1051.47 241.676V251H1046.97V231.776H1051.25V234.584ZM1079.8 241.496C1079.8 241.808 1079.78 242.252 1079.73 242.828H1064.65C1064.91 244.244 1065.6 245.372 1066.7 246.212C1067.83 247.028 1069.22 247.436 1070.88 247.436C1072.99 247.436 1074.73 246.74 1076.1 245.348L1078.51 248.12C1077.64 249.152 1076.55 249.932 1075.23 250.46C1073.91 250.988 1072.42 251.252 1070.77 251.252C1068.66 251.252 1066.8 250.832 1065.19 249.992C1063.58 249.152 1062.33 247.988 1061.44 246.5C1060.58 244.988 1060.15 243.284 1060.15 241.388C1060.15 239.516 1060.57 237.836 1061.41 236.348C1062.27 234.836 1063.46 233.66 1064.97 232.82C1066.48 231.98 1068.19 231.56 1070.08 231.56C1071.96 231.56 1073.62 231.98 1075.09 232.82C1076.58 233.636 1077.73 234.8 1078.54 236.312C1079.38 237.8 1079.8 239.528 1079.8 241.496ZM1070.08 235.16C1068.64 235.16 1067.42 235.592 1066.41 236.456C1065.43 237.296 1064.83 238.424 1064.61 239.84H1075.52C1075.33 238.448 1074.74 237.32 1073.76 236.456C1072.77 235.592 1071.55 235.16 1070.08 235.16Z" fill="#EFEFEF"/>
<path d="M960.978 404L960.93 381.728L949.89 400.16H947.106L936.066 382.016V404H930.114V370.4H935.25L948.594 392.672L961.698 370.4H966.834L966.882 404H960.978ZM975.381 378.368H981.381V404H975.381V378.368ZM978.405 374.144C977.317 374.144 976.405 373.808 975.669 373.136C974.933 372.432 974.565 371.568 974.565 370.544C974.565 369.52 974.933 368.672 975.669 368C976.405 367.296 977.317 366.944 978.405 366.944C979.493 366.944 980.405 367.28 981.141 367.952C981.877 368.592 982.245 369.408 982.245 370.4C982.245 371.456 981.877 372.352 981.141 373.088C980.437 373.792 979.525 374.144 978.405 374.144ZM997.176 404.336C995.096 404.336 993.064 404.064 991.08 403.52C989.096 402.976 987.512 402.288 986.328 401.456L988.632 396.896C989.784 397.664 991.16 398.288 992.76 398.768C994.392 399.216 995.992 399.44 997.56 399.44C1001.14 399.44 1002.94 398.496 1002.94 396.608C1002.94 395.712 1002.47 395.088 1001.54 394.736C1000.65 394.384 999.192 394.048 997.176 393.728C995.064 393.408 993.336 393.04 991.992 392.624C990.68 392.208 989.528 391.488 988.536 390.464C987.576 389.408 987.096 387.952 987.096 386.096C987.096 383.664 988.104 381.728 990.12 380.288C992.168 378.816 994.92 378.08 998.376 378.08C1000.14 378.08 1001.9 378.288 1003.66 378.704C1005.42 379.088 1006.86 379.616 1007.98 380.288L1005.67 384.848C1003.5 383.568 1001.05 382.928 998.328 382.928C996.568 382.928 995.224 383.2 994.296 383.744C993.4 384.256 992.952 384.944 992.952 385.808C992.952 386.768 993.432 387.456 994.392 387.872C995.384 388.256 996.904 388.624 998.952 388.976C1001 389.296 1002.68 389.664 1003.99 390.08C1005.3 390.496 1006.42 391.2 1007.35 392.192C1008.31 393.184 1008.79 394.592 1008.79 396.416C1008.79 398.816 1007.75 400.736 1005.67 402.176C1003.59 403.616 1000.76 404.336 997.176 404.336ZM1021.88 404.336C1019.8 404.336 1017.77 404.064 1015.78 403.52C1013.8 402.976 1012.22 402.288 1011.03 401.456L1013.34 396.896C1014.49 397.664 1015.86 398.288 1017.46 398.768C1019.1 399.216 1020.7 399.44 1022.26 399.44C1025.85 399.44 1027.64 398.496 1027.64 396.608C1027.64 395.712 1027.18 395.088 1026.25 394.736C1025.35 394.384 1023.9 394.048 1021.88 393.728C1019.77 393.408 1018.04 393.04 1016.7 392.624C1015.38 392.208 1014.23 391.488 1013.24 390.464C1012.28 389.408 1011.8 387.952 1011.8 386.096C1011.8 383.664 1012.81 381.728 1014.82 380.288C1016.87 378.816 1019.62 378.08 1023.08 378.08C1024.84 378.08 1026.6 378.288 1028.36 378.704C1030.12 379.088 1031.56 379.616 1032.68 380.288L1030.38 384.848C1028.2 383.568 1025.75 382.928 1023.03 382.928C1021.27 382.928 1019.93 383.2 1019 383.744C1018.1 384.256 1017.66 384.944 1017.66 385.808C1017.66 386.768 1018.14 387.456 1019.1 387.872C1020.09 388.256 1021.61 388.624 1023.66 388.976C1025.7 389.296 1027.38 389.664 1028.7 390.08C1030.01 390.496 1031.13 391.2 1032.06 392.192C1033.02 393.184 1033.5 394.592 1033.5 396.416C1033.5 398.816 1032.46 400.736 1030.38 402.176C1028.3 403.616 1025.46 404.336 1021.88 404.336ZM1038.66 378.368H1044.66V404H1038.66V378.368ZM1041.69 374.144C1040.6 374.144 1039.69 373.808 1038.95 373.136C1038.21 372.432 1037.85 371.568 1037.85 370.544C1037.85 369.52 1038.21 368.672 1038.95 368C1039.69 367.296 1040.6 366.944 1041.69 366.944C1042.77 366.944 1043.69 367.28 1044.42 367.952C1045.16 368.592 1045.53 369.408 1045.53 370.4C1045.53 371.456 1045.16 372.352 1044.42 373.088C1043.72 373.792 1042.81 374.144 1041.69 374.144ZM1064.06 404.336C1061.47 404.336 1059.13 403.776 1057.05 402.656C1054.97 401.536 1053.34 399.984 1052.15 398C1051 395.984 1050.43 393.712 1050.43 391.184C1050.43 388.656 1051 386.4 1052.15 384.416C1053.34 382.432 1054.97 380.88 1057.05 379.76C1059.13 378.64 1061.47 378.08 1064.06 378.08C1066.68 378.08 1069.03 378.64 1071.11 379.76C1073.19 380.88 1074.81 382.432 1075.96 384.416C1077.15 386.4 1077.74 388.656 1077.74 391.184C1077.74 393.712 1077.15 395.984 1075.96 398C1074.81 399.984 1073.19 401.536 1071.11 402.656C1069.03 403.776 1066.68 404.336 1064.06 404.336ZM1064.06 399.2C1066.27 399.2 1068.09 398.464 1069.53 396.992C1070.97 395.52 1071.69 393.584 1071.69 391.184C1071.69 388.784 1070.97 386.848 1069.53 385.376C1068.09 383.904 1066.27 383.168 1064.06 383.168C1061.85 383.168 1060.03 383.904 1058.59 385.376C1057.18 386.848 1056.47 388.784 1056.47 391.184C1056.47 393.584 1057.18 395.52 1058.59 396.992C1060.03 398.464 1061.85 399.2 1064.06 399.2ZM1098.02 378.08C1101.25 378.08 1103.84 379.024 1105.8 380.912C1107.75 382.8 1108.72 385.6 1108.72 389.312V404H1102.72V390.08C1102.72 387.84 1102.2 386.16 1101.14 385.04C1100.08 383.888 1098.58 383.312 1096.63 383.312C1094.42 383.312 1092.68 383.984 1091.4 385.328C1090.12 386.64 1089.48 388.544 1089.48 391.04V404H1083.48V378.368H1089.19V381.68C1090.18 380.496 1091.43 379.6 1092.93 378.992C1094.44 378.384 1096.13 378.08 1098.02 378.08Z" fill="#EFEFEF"/>
<path d="M842.498 615.56C838.541 615.56 834.957 614.701 831.746 612.984C828.573 611.229 826.071 608.821 824.242 605.76C822.45 602.699 821.554 599.245 821.554 595.4C821.554 591.555 822.469 588.101 824.298 585.04C826.127 581.979 828.629 579.589 831.802 577.872C835.013 576.117 838.597 575.24 842.554 575.24C845.765 575.24 848.695 575.8 851.346 576.92C853.997 578.04 856.237 579.664 858.066 581.792L853.362 586.216C850.525 583.155 847.034 581.624 842.89 581.624C840.202 581.624 837.794 582.221 835.666 583.416C833.538 584.573 831.877 586.197 830.682 588.288C829.487 590.379 828.89 592.749 828.89 595.4C828.89 598.051 829.487 600.421 830.682 602.512C831.877 604.603 833.538 606.245 835.666 607.44C837.794 608.597 840.202 609.176 842.89 609.176C847.034 609.176 850.525 607.627 853.362 604.528L858.066 609.008C856.237 611.136 853.978 612.76 851.29 613.88C848.639 615 845.709 615.56 842.498 615.56ZM876.716 615.392C873.692 615.392 870.966 614.739 868.54 613.432C866.113 612.125 864.209 610.315 862.828 608C861.484 605.648 860.812 602.997 860.812 600.048C860.812 597.099 861.484 594.467 862.828 592.152C864.209 589.837 866.113 588.027 868.54 586.72C870.966 585.413 873.692 584.76 876.716 584.76C879.777 584.76 882.521 585.413 884.948 586.72C887.374 588.027 889.26 589.837 890.604 592.152C891.985 594.467 892.676 597.099 892.676 600.048C892.676 602.997 891.985 605.648 890.604 608C889.26 610.315 887.374 612.125 884.948 613.432C882.521 614.739 879.777 615.392 876.716 615.392ZM876.716 609.4C879.292 609.4 881.42 608.541 883.1 606.824C884.78 605.107 885.62 602.848 885.62 600.048C885.62 597.248 884.78 594.989 883.1 593.272C881.42 591.555 879.292 590.696 876.716 590.696C874.14 590.696 872.012 591.555 870.332 593.272C868.689 594.989 867.868 597.248 867.868 600.048C867.868 602.848 868.689 605.107 870.332 606.824C872.012 608.541 874.14 609.4 876.716 609.4ZM937.113 584.76C940.884 584.76 943.871 585.861 946.073 588.064C948.276 590.229 949.377 593.496 949.377 597.864V615H942.377V598.76C942.377 596.147 941.799 594.187 940.641 592.88C939.484 591.536 937.823 590.864 935.657 590.864C933.305 590.864 931.42 591.648 930.001 593.216C928.583 594.747 927.873 596.949 927.873 599.824V615H920.873V598.76C920.873 596.147 920.295 594.187 919.137 592.88C917.98 591.536 916.319 590.864 914.153 590.864C911.764 590.864 909.86 591.629 908.441 593.16C907.06 594.691 906.369 596.912 906.369 599.824V615H899.369V585.096H906.033V588.904C907.153 587.56 908.553 586.533 910.233 585.824C911.913 585.115 913.78 584.76 915.833 584.76C918.073 584.76 920.052 585.189 921.769 586.048C923.524 586.869 924.905 588.101 925.913 589.744C927.145 588.176 928.732 586.963 930.673 586.104C932.615 585.208 934.761 584.76 937.113 584.76ZM974.898 584.76C977.81 584.76 980.405 585.395 982.682 586.664C984.997 587.933 986.808 589.725 988.114 592.04C989.421 594.355 990.074 597.024 990.074 600.048C990.074 603.072 989.421 605.76 988.114 608.112C986.808 610.427 984.997 612.219 982.682 613.488C980.405 614.757 977.81 615.392 974.898 615.392C970.866 615.392 967.674 614.048 965.322 611.36V625.864H958.322V585.096H964.986V589.016C966.144 587.597 967.562 586.533 969.242 585.824C970.96 585.115 972.845 584.76 974.898 584.76ZM974.114 609.4C976.69 609.4 978.8 608.541 980.442 606.824C982.122 605.107 982.962 602.848 982.962 600.048C982.962 597.248 982.122 594.989 980.442 593.272C978.8 591.555 976.69 590.696 974.114 590.696C972.434 590.696 970.922 591.088 969.578 591.872C968.234 592.619 967.17 593.701 966.386 595.12C965.602 596.539 965.21 598.181 965.21 600.048C965.21 601.915 965.602 603.557 966.386 604.976C967.17 606.395 968.234 607.496 969.578 608.28C970.922 609.027 972.434 609.4 974.114 609.4ZM1024.83 600.216C1024.83 600.701 1024.79 601.392 1024.71 602.288H1001.25C1001.66 604.491 1002.72 606.245 1004.44 607.552C1006.2 608.821 1008.36 609.456 1010.94 609.456C1014.22 609.456 1016.93 608.373 1019.06 606.208L1022.81 610.52C1021.47 612.125 1019.77 613.339 1017.71 614.16C1015.66 614.981 1013.35 615.392 1010.77 615.392C1007.48 615.392 1004.59 614.739 1002.09 613.432C999.588 612.125 997.646 610.315 996.265 608C994.921 605.648 994.249 602.997 994.249 600.048C994.249 597.136 994.902 594.523 996.209 592.208C997.553 589.856 999.401 588.027 1001.75 586.72C1004.11 585.413 1006.76 584.76 1009.71 584.76C1012.62 584.76 1015.21 585.413 1017.49 586.72C1019.8 587.989 1021.6 589.8 1022.87 592.152C1024.17 594.467 1024.83 597.155 1024.83 600.216ZM1009.71 590.36C1007.47 590.36 1005.56 591.032 1003.99 592.376C1002.46 593.683 1001.53 595.437 1001.19 597.64H1018.16C1017.86 595.475 1016.95 593.72 1015.42 592.376C1013.89 591.032 1011.98 590.36 1009.71 590.36ZM1012.39 573.336H1020.63L1010.88 581.008H1004.83L1012.39 573.336ZM1049.53 613.376C1048.7 614.048 1047.7 614.552 1046.5 614.888C1045.34 615.224 1044.11 615.392 1042.81 615.392C1039.52 615.392 1036.98 614.533 1035.19 612.816C1033.4 611.099 1032.5 608.597 1032.5 605.312V590.92H1027.57V585.32H1032.5V578.488H1039.5V585.32H1047.51V590.92H1039.5V605.144C1039.5 606.6 1039.86 607.72 1040.57 608.504C1041.27 609.251 1042.3 609.624 1043.65 609.624C1045.21 609.624 1046.52 609.213 1047.57 608.392L1049.53 613.376ZM1082.41 600.216C1082.41 600.701 1082.37 601.392 1082.3 602.288H1058.84C1059.25 604.491 1060.31 606.245 1062.03 607.552C1063.78 608.821 1065.95 609.456 1068.52 609.456C1071.81 609.456 1074.52 608.373 1076.64 606.208L1080.4 610.52C1079.05 612.125 1077.35 613.339 1075.3 614.16C1073.25 614.981 1070.93 615.392 1068.36 615.392C1065.07 615.392 1062.18 614.739 1059.68 613.432C1057.17 612.125 1055.23 610.315 1053.85 608C1052.51 605.648 1051.84 602.997 1051.84 600.048C1051.84 597.136 1052.49 594.523 1053.8 592.208C1055.14 589.856 1056.99 588.027 1059.34 586.72C1061.69 585.413 1064.34 584.76 1067.29 584.76C1070.2 584.76 1072.8 585.413 1075.08 586.72C1077.39 587.989 1079.18 589.8 1080.45 592.152C1081.76 594.467 1082.41 597.155 1082.41 600.216ZM1067.29 590.36C1065.05 590.36 1063.15 591.032 1061.58 592.376C1060.05 593.683 1059.12 595.437 1058.78 597.64H1075.75C1075.45 595.475 1074.53 593.72 1073 592.376C1071.47 591.032 1069.57 590.36 1067.29 590.36ZM1106.1 584.76C1109.87 584.76 1112.9 585.861 1115.17 588.064C1117.45 590.267 1118.59 593.533 1118.59 597.864V615H1111.59V598.76C1111.59 596.147 1110.97 594.187 1109.74 592.88C1108.51 591.536 1106.76 590.864 1104.48 590.864C1101.9 590.864 1099.87 591.648 1098.37 593.216C1096.88 594.747 1096.13 596.968 1096.13 599.88V615H1089.13V585.096H1095.8V588.96C1096.96 587.579 1098.41 586.533 1100.17 585.824C1101.92 585.115 1103.9 584.76 1106.1 584.76ZM1141.46 615.392C1138.37 615.392 1135.58 614.739 1133.12 613.432C1130.66 612.125 1128.73 610.315 1127.35 608C1125.97 605.648 1125.28 602.997 1125.28 600.048C1125.28 597.099 1125.97 594.467 1127.35 592.152C1128.73 589.837 1130.64 588.027 1133.06 586.72C1135.53 585.413 1138.33 584.76 1141.46 584.76C1144.41 584.76 1146.99 585.357 1149.19 586.552C1151.43 587.747 1153.11 589.464 1154.23 591.704L1148.86 594.84C1148 593.459 1146.92 592.432 1145.61 591.76C1144.34 591.051 1142.94 590.696 1141.41 590.696C1138.8 590.696 1136.63 591.555 1134.91 593.272C1133.2 594.952 1132.34 597.211 1132.34 600.048C1132.34 602.885 1133.18 605.163 1134.86 606.88C1136.57 608.56 1138.76 609.4 1141.41 609.4C1142.94 609.4 1144.34 609.064 1145.61 608.392C1146.92 607.683 1148 606.637 1148.86 605.256L1154.23 608.392C1153.08 610.632 1151.38 612.368 1149.14 613.6C1146.93 614.795 1144.38 615.392 1141.46 615.392ZM1187.96 600.216C1187.96 600.701 1187.92 601.392 1187.85 602.288H1164.38C1164.79 604.491 1165.86 606.245 1167.57 607.552C1169.33 608.821 1171.49 609.456 1174.07 609.456C1177.36 609.456 1180.06 608.373 1182.19 606.208L1185.94 610.52C1184.6 612.125 1182.9 613.339 1180.85 614.16C1178.79 614.981 1176.48 615.392 1173.9 615.392C1170.62 615.392 1167.72 614.739 1165.22 613.432C1162.72 612.125 1160.78 610.315 1159.4 608C1158.05 605.648 1157.38 602.997 1157.38 600.048C1157.38 597.136 1158.04 594.523 1159.34 592.208C1160.69 589.856 1162.53 588.027 1164.89 586.72C1167.24 585.413 1169.89 584.76 1172.84 584.76C1175.75 584.76 1178.34 585.413 1180.62 586.72C1182.94 587.989 1184.73 589.8 1186 592.152C1187.3 594.467 1187.96 597.155 1187.96 600.216ZM1172.84 590.36C1170.6 590.36 1168.69 591.032 1167.13 592.376C1165.6 593.683 1164.66 595.437 1164.33 597.64H1181.29C1181 595.475 1180.08 593.72 1178.55 592.376C1177.02 591.032 1175.12 590.36 1172.84 590.36ZM1203.92 615.392C1201.5 615.392 1199.12 615.075 1196.81 614.44C1194.5 613.805 1192.65 613.003 1191.27 612.032L1193.95 606.712C1195.3 607.608 1196.9 608.336 1198.77 608.896C1200.67 609.419 1202.54 609.68 1204.37 609.68C1208.55 609.68 1210.64 608.579 1210.64 606.376C1210.64 605.331 1210.1 604.603 1209.02 604.192C1207.97 603.781 1206.27 603.389 1203.92 603.016C1201.46 602.643 1199.44 602.213 1197.87 601.728C1196.34 601.243 1195 600.403 1193.84 599.208C1192.72 597.976 1192.16 596.277 1192.16 594.112C1192.16 591.275 1193.34 589.016 1195.69 587.336C1198.08 585.619 1201.29 584.76 1205.32 584.76C1207.38 584.76 1209.43 585.003 1211.48 585.488C1213.54 585.936 1215.22 586.552 1216.52 587.336L1213.83 592.656C1211.3 591.163 1208.44 590.416 1205.27 590.416C1203.21 590.416 1201.64 590.733 1200.56 591.368C1199.52 591.965 1198.99 592.768 1198.99 593.776C1198.99 594.896 1199.55 595.699 1200.67 596.184C1201.83 596.632 1203.6 597.061 1205.99 597.472C1208.38 597.845 1210.34 598.275 1211.87 598.76C1213.4 599.245 1214.71 600.067 1215.79 601.224C1216.91 602.381 1217.47 604.024 1217.47 606.152C1217.47 608.952 1216.26 611.192 1213.83 612.872C1211.41 614.552 1208.1 615.392 1203.92 615.392Z" fill="#EFEFEF"/>
<path d="M858.533 797.8H878.729C883.657 797.8 888.035 798.768 891.863 800.704C895.691 802.596 898.661 805.302 900.773 808.822C902.885 812.298 903.941 816.324 903.941 820.9C903.941 825.476 902.885 829.524 900.773 833.044C898.661 836.52 895.691 839.226 891.863 841.162C888.035 843.054 883.657 844 878.729 844H858.533V797.8ZM878.333 836.74C881.721 836.74 884.691 836.102 887.243 834.826C889.839 833.506 891.819 831.658 893.183 829.282C894.591 826.862 895.295 824.068 895.295 820.9C895.295 817.732 894.591 814.96 893.183 812.584C891.819 810.164 889.839 808.316 887.243 807.04C884.691 805.72 881.721 805.06 878.333 805.06H867.113V836.74H878.333ZM945.4 826.576C945.4 827.148 945.356 827.962 945.268 829.018H917.614C918.098 831.614 919.352 833.682 921.376 835.222C923.444 836.718 925.996 837.466 929.032 837.466C932.904 837.466 936.094 836.19 938.602 833.638L943.024 838.72C941.44 840.612 939.438 842.042 937.018 843.01C934.598 843.978 931.87 844.462 928.834 844.462C924.962 844.462 921.552 843.692 918.604 842.152C915.656 840.612 913.368 838.478 911.74 835.75C910.156 832.978 909.364 829.854 909.364 826.378C909.364 822.946 910.134 819.866 911.674 817.138C913.258 814.366 915.436 812.21 918.208 810.67C920.98 809.13 924.104 808.36 927.58 808.36C931.012 808.36 934.07 809.13 936.754 810.67C939.482 812.166 941.594 814.3 943.09 817.072C944.63 819.8 945.4 822.968 945.4 826.576ZM927.58 814.96C924.94 814.96 922.696 815.752 920.848 817.336C919.044 818.876 917.944 820.944 917.548 823.54H937.546C937.194 820.988 936.116 818.92 934.312 817.336C932.508 815.752 930.264 814.96 927.58 814.96ZM930.748 794.896H940.45L928.966 803.938H921.838L930.748 794.896ZM967.647 801.232C964.171 801.232 962.433 803.124 962.433 806.908V809.02H972.135V815.62H962.697V844H954.447V815.62H948.639V809.02H954.447V806.776C954.447 802.992 955.547 800.022 957.747 797.866C959.947 795.666 963.049 794.566 967.053 794.566C970.221 794.566 972.707 795.204 974.511 796.48L972.201 802.684C970.793 801.716 969.275 801.232 967.647 801.232ZM982.959 808.756H991.209V844H982.959V808.756ZM987.117 802.948C985.621 802.948 984.367 802.486 983.355 801.562C982.343 800.594 981.837 799.406 981.837 797.998C981.837 796.59 982.343 795.424 983.355 794.5C984.367 793.532 985.621 793.048 987.117 793.048C988.613 793.048 989.867 793.51 990.879 794.434C991.891 795.314 992.397 796.436 992.397 797.8C992.397 799.252 991.891 800.484 990.879 801.496C989.911 802.464 988.657 802.948 987.117 802.948ZM1022.05 808.36C1026.49 808.36 1030.06 809.658 1032.74 812.254C1035.43 814.85 1036.77 818.7 1036.77 823.804V844H1028.52V824.86C1028.52 821.78 1027.79 819.47 1026.34 817.93C1024.89 816.346 1022.82 815.554 1020.14 815.554C1017.1 815.554 1014.7 816.478 1012.94 818.326C1011.18 820.13 1010.3 822.748 1010.3 826.18V844H1002.05V808.756H1009.91V813.31C1011.27 811.682 1012.99 810.45 1015.05 809.614C1017.12 808.778 1019.45 808.36 1022.05 808.36ZM1047.23 808.756H1055.48V844H1047.23V808.756ZM1051.39 802.948C1049.9 802.948 1048.64 802.486 1047.63 801.562C1046.62 800.594 1046.11 799.406 1046.11 797.998C1046.11 796.59 1046.62 795.424 1047.63 794.5C1048.64 793.532 1049.9 793.048 1051.39 793.048C1052.89 793.048 1054.14 793.51 1055.15 794.434C1056.17 795.314 1056.67 796.436 1056.67 797.8C1056.67 799.252 1056.17 800.484 1055.15 801.496C1054.19 802.464 1052.93 802.948 1051.39 802.948ZM1087.5 842.086C1086.53 842.878 1085.34 843.472 1083.93 843.868C1082.57 844.264 1081.12 844.462 1079.58 844.462C1075.71 844.462 1072.71 843.45 1070.6 841.426C1068.49 839.402 1067.43 836.454 1067.43 832.582V815.62H1061.63V809.02H1067.43V800.968H1075.68V809.02H1085.12V815.62H1075.68V832.384C1075.68 834.1 1076.1 835.42 1076.94 836.344C1077.77 837.224 1078.98 837.664 1080.57 837.664C1082.42 837.664 1083.96 837.18 1085.19 836.212L1087.5 842.086ZM1094.28 808.756H1102.53V844H1094.28V808.756ZM1098.44 802.948C1096.95 802.948 1095.69 802.486 1094.68 801.562C1093.67 800.594 1093.16 799.406 1093.16 797.998C1093.16 796.59 1093.67 795.424 1094.68 794.5C1095.69 793.532 1096.95 793.048 1098.44 793.048C1099.94 793.048 1101.19 793.51 1102.2 794.434C1103.22 795.314 1103.72 796.436 1103.72 797.8C1103.72 799.252 1103.22 800.484 1102.2 801.496C1101.24 802.464 1099.98 802.948 1098.44 802.948ZM1129.2 844.462C1125.64 844.462 1122.43 843.692 1119.57 842.152C1116.71 840.612 1114.46 838.478 1112.83 835.75C1111.25 832.978 1110.46 829.854 1110.46 826.378C1110.46 822.902 1111.25 819.8 1112.83 817.072C1114.46 814.344 1116.71 812.21 1119.57 810.67C1122.43 809.13 1125.64 808.36 1129.2 808.36C1132.81 808.36 1136.04 809.13 1138.9 810.67C1141.76 812.21 1143.99 814.344 1145.57 817.072C1147.2 819.8 1148.01 822.902 1148.01 826.378C1148.01 829.854 1147.2 832.978 1145.57 835.75C1143.99 838.478 1141.76 840.612 1138.9 842.152C1136.04 843.692 1132.81 844.462 1129.2 844.462ZM1129.2 837.4C1132.24 837.4 1134.75 836.388 1136.73 834.364C1138.71 832.34 1139.7 829.678 1139.7 826.378C1139.7 823.078 1138.71 820.416 1136.73 818.392C1134.75 816.368 1132.24 815.356 1129.2 815.356C1126.17 815.356 1123.66 816.368 1121.68 818.392C1119.74 820.416 1118.77 823.078 1118.77 826.378C1118.77 829.678 1119.74 832.34 1121.68 834.364C1123.66 836.388 1126.17 837.4 1129.2 837.4ZM1175.9 808.36C1180.34 808.36 1183.91 809.658 1186.59 812.254C1189.28 814.85 1190.62 818.7 1190.62 823.804V844H1182.37V824.86C1182.37 821.78 1181.64 819.47 1180.19 817.93C1178.74 816.346 1176.67 815.554 1173.99 815.554C1170.95 815.554 1168.55 816.478 1166.79 818.326C1165.03 820.13 1164.15 822.748 1164.15 826.18V844H1155.9V808.756H1163.76V813.31C1165.12 811.682 1166.84 810.45 1168.9 809.614C1170.97 808.778 1173.3 808.36 1175.9 808.36Z" fill="#EFEFEF"/>
</g>
<defs>
<linearGradient id="paint0_linear" x1="1804.36" y1="479" x2="1804.36" y2="951.866" gradientUnits="userSpaceOnUse">
<stop stop-color="#B8A5DD"/>
<stop offset="1" stop-color="#674D8F"/>
</linearGradient>
<linearGradient id="paint1_linear" x1="1716.14" y1="479" x2="1716.14" y2="1110.82" gradientUnits="userSpaceOnUse">
<stop stop-color="#D8C3F7" stop-opacity="0.31"/>
<stop offset="1" stop-color="#704DA2"/>
</linearGradient>
<linearGradient id="paint2_linear" x1="742.302" y1="288" x2="742.302" y2="936.187" gradientUnits="userSpaceOnUse">
<stop stop-color="#B8A5DD"/>
<stop offset="1" stop-color="#674D8F"/>
</linearGradient>
<linearGradient id="paint3_linear" x1="618.302" y1="286" x2="618.302" y2="1152.92" gradientUnits="userSpaceOnUse">
<stop stop-color="#D8C3F7" stop-opacity="0.31"/>
<stop offset="1" stop-color="#704DA2"/>
</linearGradient>
<linearGradient id="paint4_linear" x1="1162.25" y1="117.5" x2="1162.25" y2="936.5" gradientUnits="userSpaceOnUse">
<stop stop-color="#B8A5DD"/>
<stop offset="1" stop-color="#674D8F"/>
</linearGradient>
<linearGradient id="paint5_linear" x1="1005.5" y1="116" x2="1005.5" y2="1210" gradientUnits="userSpaceOnUse">
<stop stop-color="#D8C3F7" stop-opacity="0.31"/>
<stop offset="1" stop-color="#704DA2"/>
</linearGradient>
<linearGradient id="paint6_linear" x1="1380.94" y1="487.949" x2="771.06" y2="480.264" gradientUnits="userSpaceOnUse">
<stop offset="0.0759997" stop-color="#8357CB" stop-opacity="0"/>
<stop offset="0.225419" stop-color="#8E6DC5" stop-opacity="0.54"/>
<stop offset="0.707384" stop-color="#8E6DC5"/>
<stop offset="0.811819" stop-color="#916FCA" stop-opacity="0.883518"/>
<stop offset="1" stop-color="#926FCB" stop-opacity="0.18"/>
</linearGradient>
<linearGradient id="paint7_linear" x1="1204.97" y1="306.999" x2="884.994" y2="304.884" gradientUnits="userSpaceOnUse">
<stop offset="0.0759997" stop-color="#8E6DC5" stop-opacity="0"/>
<stop offset="0.225419" stop-color="#8E6DC5" stop-opacity="0.54"/>
<stop offset="0.707384" stop-color="#8E6DC5"/>
<stop offset="0.811819" stop-color="#916FCA" stop-opacity="0.883518"/>
<stop offset="1" stop-color="#926FCB" stop-opacity="0.16"/>
</linearGradient>
<clipPath id="clip0">
<rect width="2208" height="936" fill="white"/>
</clipPath>
</defs>
</svg>
