<svg width="2208" height="936" viewBox="0 0 2208 936" fill="none" xmlns="http://www.w3.org/2000/svg">
<g clip-path="url(#clip0)">
<path d="M1720.46 483L1757.5 499.5L1819 583L1855 602L1935.5 694L2034.5 754L2083.5 805L2121 866.5L2175 913L2233 954.711L1386 955L1446 899L1479.18 823.5L1519.5 721H1575.5L1649.5 608.5L1678.3 542.5L1720.46 483Z" fill="url(#paint0_linear)"/>
<path d="M1721.14 483L1675.8 547L1649.5 610L1609.5 669.5L1597.5 690L1386 956H2144.5L2016 862L1953 743.5L1774 584L1721.14 483Z" fill="url(#paint1_linear)"/>
<path d="M633 281L657 297L702 345.5L741 366.5L786.052 422L1336.5 929.104L130.5 942.5L-3 939L75.5 866.5L186.5 788.5L238.5 738.5L300.5 651.5L386 582L445.5 482L510.5 388.5L593.5 304.5L615 275.5L633 281Z" fill="url(#paint2_linear)"/>
<path d="M623.5 290.5L647 306L1083 939H164L178.508 918.5L233.709 840.5L269.802 789.5L309.08 734L353.665 671L394.005 614L478 572.5L492 505.5L554 424.5L595.347 329.5L605.5 285L623.5 290.5Z" fill="url(#paint3_linear)"/>
<path d="M1013.5 121.5L1082.5 155L1178.5 271L1231.5 330L1351.5 436L1438 564L1569.5 660L1691.5 743.772L1795.75 841.136L1860.5 958.5L435 939L1013.5 121.5Z" fill="url(#paint4_linear)"/>
<path d="M1010.5 120L1169 304L1259 559L1551.5 781L1583.42 929L1738.5 952L431 939L565.5 799.5L734.5 526.5L811 436L889.5 322L960.616 190.5L1010.5 120Z" fill="url(#paint5_linear)"/>
<path d="M765.978 479H1354.85M626 705H1504" stroke="url(#paint6_linear)" stroke-opacity="0.9" stroke-width="13"/>
<line x1="896" y1="297.5" x2="1185" y2="297.5" stroke="url(#paint7_linear)" stroke-opacity="0.5" stroke-width="13"/>
<path d="M1116.08 38.1931L1116.11 27.1932L1047.11 26.9849L1047 64.4847L1114 64.6869L1114.04 50.187L1095.06 43.6297L1116.08 38.1931Z" fill="#6088A5"/>
<path d="M1047 64.4846L1007.4 49.0033L1087.08 49.2438L1047 64.4846Z" fill="#476E9C"/>
<path d="M1013.34 14.021L1087.34 14.2444L1087.24 49.2442L1013.24 49.0208L1013.34 14.021Z" fill="#435C81"/>
<rect x="1006.39" width="11" height="128" rx="5.5" transform="rotate(0.172961 1006.39 0)" fill="#2D447E"/>
<path d="M1552.69 534.634L1557.42 524.705L1495.14 495L1479 528.847L1539.47 557.691L1545.72 544.604L1531.36 530.557L1552.69 534.634Z" fill="#6088A5"/>
<path d="M1479 529L1449.57 497.88L1521.49 532.18L1479 529Z" fill="#476E9C"/>
<path d="M1469.91 468.802L1536.7 500.66L1521.63 532.251L1454.84 500.393L1469.91 468.802Z" fill="#435C81"/>
<rect x="1469.62" y="453.152" width="11" height="128" rx="5.5" transform="rotate(25.5 1469.62 453.152)" fill="#2D447E"/>
<path d="M1397.14 321.719L1400.73 311.318L1335.49 288.854L1323.28 324.311L1386.63 346.124L1391.35 332.414L1375.5 320.082L1397.14 321.719Z" fill="#6088A5"/>
<path d="M1323.33 324.489L1290.55 297.337L1365.88 323.276L1323.33 324.489Z" fill="#476E9C"/>
<path d="M1307.46 266.144L1377.43 290.236L1366.03 323.329L1296.07 299.237L1307.46 266.144Z" fill="#435C81"/>
<rect x="1305.4" y="250.628" width="11" height="128" rx="5.5" transform="rotate(19 1305.4 250.628)" fill="#2D447E"/>
<path d="M1810.03 717.363L1808.03 706.547L1740.18 719.122L1747.02 755.994L1812.9 743.784L1810.25 729.527L1790.39 726.598L1810.03 717.363Z" fill="#6088A5"/>
<path d="M1746.89 756.138L1704.99 748.649L1783.33 734.129L1746.89 756.138Z" fill="#476E9C"/>
<path d="M1704.35 713.171L1777.11 699.685L1783.49 734.099L1710.73 747.585L1704.35 713.171Z" fill="#435C81"/>
<rect x="1694.92" y="700.681" width="11" height="128" rx="5.5" transform="rotate(-10.5 1694.92 700.681)" fill="#2D447E"/>
<path d="M979.702 250.076V254H960.802V228.8H979.198V232.724H965.482V239.276H977.65V243.128H965.482V250.076H979.702ZM971.89 221.816H977.182L970.918 226.748H967.03L971.89 221.816ZM995.692 252.956C995.164 253.388 994.516 253.712 993.748 253.928C993.004 254.144 992.212 254.252 991.372 254.252C989.26 254.252 987.628 253.7 986.476 252.596C985.324 251.492 984.748 249.884 984.748 247.772V238.52H981.58V234.92H984.748V230.528H989.248V234.92H994.396V238.52H989.248V247.664C989.248 248.6 989.476 249.32 989.932 249.824C990.388 250.304 991.048 250.544 991.912 250.544C992.92 250.544 993.76 250.28 994.432 249.752L995.692 252.956ZM1018.01 234.776V254H1013.72V251.552C1013 252.416 1012.1 253.088 1011.02 253.568C1009.94 254.024 1008.78 254.252 1007.53 254.252C1004.96 254.252 1002.93 253.544 1001.45 252.128C999.981 250.688 999.249 248.564 999.249 245.756V234.776H1003.75V245.144C1003.75 246.872 1004.13 248.168 1004.9 249.032C1005.69 249.872 1006.81 250.292 1008.25 250.292C1009.86 250.292 1011.13 249.8 1012.07 248.816C1013.03 247.808 1013.51 246.368 1013.51 244.496V234.776H1018.01ZM1042.73 227.288V254H1038.41V251.516C1037.66 252.428 1036.74 253.112 1035.63 253.568C1034.55 254.024 1033.35 254.252 1032.03 254.252C1030.19 254.252 1028.52 253.844 1027.03 253.028C1025.57 252.212 1024.41 251.06 1023.57 249.572C1022.73 248.06 1022.31 246.332 1022.31 244.388C1022.31 242.444 1022.73 240.728 1023.57 239.24C1024.41 237.752 1025.57 236.6 1027.03 235.784C1028.52 234.968 1030.19 234.56 1032.03 234.56C1033.31 234.56 1034.47 234.776 1035.53 235.208C1036.58 235.64 1037.48 236.288 1038.23 237.152V227.288H1042.73ZM1032.57 250.4C1033.65 250.4 1034.63 250.16 1035.49 249.68C1036.35 249.176 1037.04 248.468 1037.54 247.556C1038.05 246.644 1038.3 245.588 1038.3 244.388C1038.3 243.188 1038.05 242.132 1037.54 241.22C1037.04 240.308 1036.35 239.612 1035.49 239.132C1034.63 238.628 1033.65 238.376 1032.57 238.376C1031.49 238.376 1030.52 238.628 1029.66 239.132C1028.79 239.612 1028.11 240.308 1027.61 241.22C1027.1 242.132 1026.85 243.188 1026.85 244.388C1026.85 245.588 1027.1 246.644 1027.61 247.556C1028.11 248.468 1028.79 249.176 1029.66 249.68C1030.52 250.16 1031.49 250.4 1032.57 250.4ZM1066.68 244.496C1066.68 244.808 1066.66 245.252 1066.61 245.828H1051.53C1051.79 247.244 1052.48 248.372 1053.58 249.212C1054.71 250.028 1056.1 250.436 1057.76 250.436C1059.87 250.436 1061.61 249.74 1062.98 248.348L1065.39 251.12C1064.52 252.152 1063.43 252.932 1062.11 253.46C1060.79 253.988 1059.3 254.252 1057.65 254.252C1055.54 254.252 1053.68 253.832 1052.07 252.992C1050.46 252.152 1049.21 250.988 1048.32 249.5C1047.46 247.988 1047.03 246.284 1047.03 244.388C1047.03 242.516 1047.45 240.836 1048.29 239.348C1049.15 237.836 1050.34 236.66 1051.85 235.82C1053.36 234.98 1055.07 234.56 1056.96 234.56C1058.84 234.56 1060.5 234.98 1061.97 235.82C1063.46 236.636 1064.61 237.8 1065.42 239.312C1066.26 240.8 1066.68 242.528 1066.68 244.496ZM1056.96 238.16C1055.52 238.16 1054.3 238.592 1053.29 239.456C1052.31 240.296 1051.71 241.424 1051.49 242.84H1062.4C1062.21 241.448 1061.62 240.32 1060.64 239.456C1059.65 238.592 1058.43 238.16 1056.96 238.16ZM1076.95 254.252C1075.39 254.252 1073.86 254.048 1072.37 253.64C1070.89 253.232 1069.7 252.716 1068.81 252.092L1070.54 248.672C1071.4 249.248 1072.43 249.716 1073.63 250.076C1074.86 250.412 1076.06 250.58 1077.23 250.58C1079.92 250.58 1081.27 249.872 1081.27 248.456C1081.27 247.784 1080.92 247.316 1080.22 247.052C1079.55 246.788 1078.46 246.536 1076.95 246.296C1075.36 246.056 1074.07 245.78 1073.06 245.468C1072.07 245.156 1071.21 244.616 1070.47 243.848C1069.75 243.056 1069.39 241.964 1069.39 240.572C1069.39 238.748 1070.14 237.296 1071.65 236.216C1073.19 235.112 1075.25 234.56 1077.85 234.56C1079.17 234.56 1080.49 234.716 1081.81 235.028C1083.13 235.316 1084.21 235.712 1085.05 236.216L1083.32 239.636C1081.69 238.676 1079.85 238.196 1077.81 238.196C1076.49 238.196 1075.48 238.4 1074.79 238.808C1074.11 239.192 1073.78 239.708 1073.78 240.356C1073.78 241.076 1074.14 241.592 1074.86 241.904C1075.6 242.192 1076.74 242.468 1078.28 242.732C1079.81 242.972 1081.07 243.248 1082.06 243.56C1083.04 243.872 1083.88 244.4 1084.58 245.144C1085.3 245.888 1085.66 246.944 1085.66 248.312C1085.66 250.112 1084.88 251.552 1083.32 252.632C1081.76 253.712 1079.63 254.252 1076.95 254.252Z" fill="#EFEFEF"/>
<path d="M963.978 407L963.93 384.728L952.89 403.16H950.106L939.066 385.016V407H933.114V373.4H938.25L951.594 395.672L964.698 373.4H969.834L969.882 407H963.978ZM978.381 381.368H984.381V407H978.381V381.368ZM981.405 377.144C980.317 377.144 979.405 376.808 978.669 376.136C977.933 375.432 977.565 374.568 977.565 373.544C977.565 372.52 977.933 371.672 978.669 371C979.405 370.296 980.317 369.944 981.405 369.944C982.493 369.944 983.405 370.28 984.141 370.952C984.877 371.592 985.245 372.408 985.245 373.4C985.245 374.456 984.877 375.352 984.141 376.088C983.437 376.792 982.525 377.144 981.405 377.144ZM1000.18 407.336C998.096 407.336 996.064 407.064 994.08 406.52C992.096 405.976 990.512 405.288 989.328 404.456L991.632 399.896C992.784 400.664 994.16 401.288 995.76 401.768C997.392 402.216 998.992 402.44 1000.56 402.44C1004.14 402.44 1005.94 401.496 1005.94 399.608C1005.94 398.712 1005.47 398.088 1004.54 397.736C1003.65 397.384 1002.19 397.048 1000.18 396.728C998.064 396.408 996.336 396.04 994.992 395.624C993.68 395.208 992.528 394.488 991.536 393.464C990.576 392.408 990.096 390.952 990.096 389.096C990.096 386.664 991.104 384.728 993.12 383.288C995.168 381.816 997.92 381.08 1001.38 381.08C1003.14 381.08 1004.9 381.288 1006.66 381.704C1008.42 382.088 1009.86 382.616 1010.98 383.288L1008.67 387.848C1006.5 386.568 1004.05 385.928 1001.33 385.928C999.568 385.928 998.224 386.2 997.296 386.744C996.4 387.256 995.952 387.944 995.952 388.808C995.952 389.768 996.432 390.456 997.392 390.872C998.384 391.256 999.904 391.624 1001.95 391.976C1004 392.296 1005.68 392.664 1006.99 393.08C1008.3 393.496 1009.42 394.2 1010.35 395.192C1011.31 396.184 1011.79 397.592 1011.79 399.416C1011.79 401.816 1010.75 403.736 1008.67 405.176C1006.59 406.616 1003.76 407.336 1000.18 407.336ZM1024.88 407.336C1022.8 407.336 1020.77 407.064 1018.78 406.52C1016.8 405.976 1015.22 405.288 1014.03 404.456L1016.34 399.896C1017.49 400.664 1018.86 401.288 1020.46 401.768C1022.1 402.216 1023.7 402.44 1025.26 402.44C1028.85 402.44 1030.64 401.496 1030.64 399.608C1030.64 398.712 1030.18 398.088 1029.25 397.736C1028.35 397.384 1026.9 397.048 1024.88 396.728C1022.77 396.408 1021.04 396.04 1019.7 395.624C1018.38 395.208 1017.23 394.488 1016.24 393.464C1015.28 392.408 1014.8 390.952 1014.8 389.096C1014.8 386.664 1015.81 384.728 1017.82 383.288C1019.87 381.816 1022.62 381.08 1026.08 381.08C1027.84 381.08 1029.6 381.288 1031.36 381.704C1033.12 382.088 1034.56 382.616 1035.68 383.288L1033.38 387.848C1031.2 386.568 1028.75 385.928 1026.03 385.928C1024.27 385.928 1022.93 386.2 1022 386.744C1021.1 387.256 1020.66 387.944 1020.66 388.808C1020.66 389.768 1021.14 390.456 1022.1 390.872C1023.09 391.256 1024.61 391.624 1026.66 391.976C1028.7 392.296 1030.38 392.664 1031.7 393.08C1033.01 393.496 1034.13 394.2 1035.06 395.192C1036.02 396.184 1036.5 397.592 1036.5 399.416C1036.5 401.816 1035.46 403.736 1033.38 405.176C1031.3 406.616 1028.46 407.336 1024.88 407.336ZM1041.66 381.368H1047.66V407H1041.66V381.368ZM1044.69 377.144C1043.6 377.144 1042.69 376.808 1041.95 376.136C1041.21 375.432 1040.85 374.568 1040.85 373.544C1040.85 372.52 1041.21 371.672 1041.95 371C1042.69 370.296 1043.6 369.944 1044.69 369.944C1045.77 369.944 1046.69 370.28 1047.42 370.952C1048.16 371.592 1048.53 372.408 1048.53 373.4C1048.53 374.456 1048.16 375.352 1047.42 376.088C1046.72 376.792 1045.81 377.144 1044.69 377.144ZM1067.06 407.336C1064.47 407.336 1062.13 406.776 1060.05 405.656C1057.97 404.536 1056.34 402.984 1055.15 401C1054 398.984 1053.43 396.712 1053.43 394.184C1053.43 391.656 1054 389.4 1055.15 387.416C1056.34 385.432 1057.97 383.88 1060.05 382.76C1062.13 381.64 1064.47 381.08 1067.06 381.08C1069.68 381.08 1072.03 381.64 1074.11 382.76C1076.19 383.88 1077.81 385.432 1078.96 387.416C1080.15 389.4 1080.74 391.656 1080.74 394.184C1080.74 396.712 1080.15 398.984 1078.96 401C1077.81 402.984 1076.19 404.536 1074.11 405.656C1072.03 406.776 1069.68 407.336 1067.06 407.336ZM1067.06 402.2C1069.27 402.2 1071.09 401.464 1072.53 399.992C1073.97 398.52 1074.69 396.584 1074.69 394.184C1074.69 391.784 1073.97 389.848 1072.53 388.376C1071.09 386.904 1069.27 386.168 1067.06 386.168C1064.85 386.168 1063.03 386.904 1061.59 388.376C1060.18 389.848 1059.47 391.784 1059.47 394.184C1059.47 396.584 1060.18 398.52 1061.59 399.992C1063.03 401.464 1064.85 402.2 1067.06 402.2ZM1101.02 381.08C1104.25 381.08 1106.84 382.024 1108.8 383.912C1110.75 385.8 1111.72 388.6 1111.72 392.312V407H1105.72V393.08C1105.72 390.84 1105.2 389.16 1104.14 388.04C1103.08 386.888 1101.58 386.312 1099.63 386.312C1097.42 386.312 1095.68 386.984 1094.4 388.328C1093.12 389.64 1092.48 391.544 1092.48 394.04V407H1086.48V381.368H1092.19V384.68C1093.18 383.496 1094.43 382.6 1095.93 381.992C1097.44 381.384 1099.13 381.08 1101.02 381.08Z" fill="#EFEFEF"/>
<path d="M845.498 618.56C841.541 618.56 837.957 617.701 834.746 615.984C831.573 614.229 829.071 611.821 827.242 608.76C825.45 605.699 824.554 602.245 824.554 598.4C824.554 594.555 825.469 591.101 827.298 588.04C829.127 584.979 831.629 582.589 834.802 580.872C838.013 579.117 841.597 578.24 845.554 578.24C848.765 578.24 851.695 578.8 854.346 579.92C856.997 581.04 859.237 582.664 861.066 584.792L856.362 589.216C853.525 586.155 850.034 584.624 845.89 584.624C843.202 584.624 840.794 585.221 838.666 586.416C836.538 587.573 834.877 589.197 833.682 591.288C832.487 593.379 831.89 595.749 831.89 598.4C831.89 601.051 832.487 603.421 833.682 605.512C834.877 607.603 836.538 609.245 838.666 610.44C840.794 611.597 843.202 612.176 845.89 612.176C850.034 612.176 853.525 610.627 856.362 607.528L861.066 612.008C859.237 614.136 856.978 615.76 854.29 616.88C851.639 618 848.709 618.56 845.498 618.56ZM879.716 618.392C876.692 618.392 873.966 617.739 871.54 616.432C869.113 615.125 867.209 613.315 865.828 611C864.484 608.648 863.812 605.997 863.812 603.048C863.812 600.099 864.484 597.467 865.828 595.152C867.209 592.837 869.113 591.027 871.54 589.72C873.966 588.413 876.692 587.76 879.716 587.76C882.777 587.76 885.521 588.413 887.948 589.72C890.374 591.027 892.26 592.837 893.604 595.152C894.985 597.467 895.676 600.099 895.676 603.048C895.676 605.997 894.985 608.648 893.604 611C892.26 613.315 890.374 615.125 887.948 616.432C885.521 617.739 882.777 618.392 879.716 618.392ZM879.716 612.4C882.292 612.4 884.42 611.541 886.1 609.824C887.78 608.107 888.62 605.848 888.62 603.048C888.62 600.248 887.78 597.989 886.1 596.272C884.42 594.555 882.292 593.696 879.716 593.696C877.14 593.696 875.012 594.555 873.332 596.272C871.689 597.989 870.868 600.248 870.868 603.048C870.868 605.848 871.689 608.107 873.332 609.824C875.012 611.541 877.14 612.4 879.716 612.4ZM940.113 587.76C943.884 587.76 946.871 588.861 949.073 591.064C951.276 593.229 952.377 596.496 952.377 600.864V618H945.377V601.76C945.377 599.147 944.799 597.187 943.641 595.88C942.484 594.536 940.823 593.864 938.657 593.864C936.305 593.864 934.42 594.648 933.001 596.216C931.583 597.747 930.873 599.949 930.873 602.824V618H923.873V601.76C923.873 599.147 923.295 597.187 922.137 595.88C920.98 594.536 919.319 593.864 917.153 593.864C914.764 593.864 912.86 594.629 911.441 596.16C910.06 597.691 909.369 599.912 909.369 602.824V618H902.369V588.096H909.033V591.904C910.153 590.56 911.553 589.533 913.233 588.824C914.913 588.115 916.78 587.76 918.833 587.76C921.073 587.76 923.052 588.189 924.769 589.048C926.524 589.869 927.905 591.101 928.913 592.744C930.145 591.176 931.732 589.963 933.673 589.104C935.615 588.208 937.761 587.76 940.113 587.76ZM977.898 587.76C980.81 587.76 983.405 588.395 985.682 589.664C987.997 590.933 989.808 592.725 991.114 595.04C992.421 597.355 993.074 600.024 993.074 603.048C993.074 606.072 992.421 608.76 991.114 611.112C989.808 613.427 987.997 615.219 985.682 616.488C983.405 617.757 980.81 618.392 977.898 618.392C973.866 618.392 970.674 617.048 968.322 614.36V628.864H961.322V588.096H967.986V592.016C969.144 590.597 970.562 589.533 972.242 588.824C973.96 588.115 975.845 587.76 977.898 587.76ZM977.114 612.4C979.69 612.4 981.8 611.541 983.442 609.824C985.122 608.107 985.962 605.848 985.962 603.048C985.962 600.248 985.122 597.989 983.442 596.272C981.8 594.555 979.69 593.696 977.114 593.696C975.434 593.696 973.922 594.088 972.578 594.872C971.234 595.619 970.17 596.701 969.386 598.12C968.602 599.539 968.21 601.181 968.21 603.048C968.21 604.915 968.602 606.557 969.386 607.976C970.17 609.395 971.234 610.496 972.578 611.28C973.922 612.027 975.434 612.4 977.114 612.4ZM1027.83 603.216C1027.83 603.701 1027.79 604.392 1027.71 605.288H1004.25C1004.66 607.491 1005.72 609.245 1007.44 610.552C1009.2 611.821 1011.36 612.456 1013.94 612.456C1017.22 612.456 1019.93 611.373 1022.06 609.208L1025.81 613.52C1024.47 615.125 1022.77 616.339 1020.71 617.16C1018.66 617.981 1016.35 618.392 1013.77 618.392C1010.48 618.392 1007.59 617.739 1005.09 616.432C1002.59 615.125 1000.65 613.315 999.265 611C997.921 608.648 997.249 605.997 997.249 603.048C997.249 600.136 997.902 597.523 999.209 595.208C1000.55 592.856 1002.4 591.027 1004.75 589.72C1007.11 588.413 1009.76 587.76 1012.71 587.76C1015.62 587.76 1018.21 588.413 1020.49 589.72C1022.8 590.989 1024.6 592.8 1025.87 595.152C1027.17 597.467 1027.83 600.155 1027.83 603.216ZM1012.71 593.36C1010.47 593.36 1008.56 594.032 1006.99 595.376C1005.46 596.683 1004.53 598.437 1004.19 600.64H1021.16C1020.86 598.475 1019.95 596.72 1018.42 595.376C1016.89 594.032 1014.98 593.36 1012.71 593.36ZM1015.39 576.336H1023.63L1013.88 584.008H1007.83L1015.39 576.336ZM1052.53 616.376C1051.7 617.048 1050.7 617.552 1049.5 617.888C1048.34 618.224 1047.11 618.392 1045.81 618.392C1042.52 618.392 1039.98 617.533 1038.19 615.816C1036.4 614.099 1035.5 611.597 1035.5 608.312V593.92H1030.57V588.32H1035.5V581.488H1042.5V588.32H1050.51V593.92H1042.5V608.144C1042.5 609.6 1042.86 610.72 1043.57 611.504C1044.27 612.251 1045.3 612.624 1046.65 612.624C1048.21 612.624 1049.52 612.213 1050.57 611.392L1052.53 616.376ZM1085.41 603.216C1085.41 603.701 1085.37 604.392 1085.3 605.288H1061.84C1062.25 607.491 1063.31 609.245 1065.03 610.552C1066.78 611.821 1068.95 612.456 1071.52 612.456C1074.81 612.456 1077.52 611.373 1079.64 609.208L1083.4 613.52C1082.05 615.125 1080.35 616.339 1078.3 617.16C1076.25 617.981 1073.93 618.392 1071.36 618.392C1068.07 618.392 1065.18 617.739 1062.68 616.432C1060.17 615.125 1058.23 613.315 1056.85 611C1055.51 608.648 1054.84 605.997 1054.84 603.048C1054.84 600.136 1055.49 597.523 1056.8 595.208C1058.14 592.856 1059.99 591.027 1062.34 589.72C1064.69 588.413 1067.34 587.76 1070.29 587.76C1073.2 587.76 1075.8 588.413 1078.08 589.72C1080.39 590.989 1082.18 592.8 1083.45 595.152C1084.76 597.467 1085.41 600.155 1085.41 603.216ZM1070.29 593.36C1068.05 593.36 1066.15 594.032 1064.58 595.376C1063.05 596.683 1062.12 598.437 1061.78 600.64H1078.75C1078.45 598.475 1077.53 596.72 1076 595.376C1074.47 594.032 1072.57 593.36 1070.29 593.36ZM1109.1 587.76C1112.87 587.76 1115.9 588.861 1118.17 591.064C1120.45 593.267 1121.59 596.533 1121.59 600.864V618H1114.59V601.76C1114.59 599.147 1113.97 597.187 1112.74 595.88C1111.51 594.536 1109.76 593.864 1107.48 593.864C1104.9 593.864 1102.87 594.648 1101.37 596.216C1099.88 597.747 1099.13 599.968 1099.13 602.88V618H1092.13V588.096H1098.8V591.96C1099.96 590.579 1101.41 589.533 1103.17 588.824C1104.92 588.115 1106.9 587.76 1109.1 587.76ZM1144.46 618.392C1141.37 618.392 1138.58 617.739 1136.12 616.432C1133.66 615.125 1131.73 613.315 1130.35 611C1128.97 608.648 1128.28 605.997 1128.28 603.048C1128.28 600.099 1128.97 597.467 1130.35 595.152C1131.73 592.837 1133.64 591.027 1136.06 589.72C1138.53 588.413 1141.33 587.76 1144.46 587.76C1147.41 587.76 1149.99 588.357 1152.19 589.552C1154.43 590.747 1156.11 592.464 1157.23 594.704L1151.86 597.84C1151 596.459 1149.92 595.432 1148.61 594.76C1147.34 594.051 1145.94 593.696 1144.41 593.696C1141.8 593.696 1139.63 594.555 1137.91 596.272C1136.2 597.952 1135.34 600.211 1135.34 603.048C1135.34 605.885 1136.18 608.163 1137.86 609.88C1139.57 611.56 1141.76 612.4 1144.41 612.4C1145.94 612.4 1147.34 612.064 1148.61 611.392C1149.92 610.683 1151 609.637 1151.86 608.256L1157.23 611.392C1156.08 613.632 1154.38 615.368 1152.14 616.6C1149.93 617.795 1147.38 618.392 1144.46 618.392ZM1190.96 603.216C1190.96 603.701 1190.92 604.392 1190.85 605.288H1167.38C1167.79 607.491 1168.86 609.245 1170.57 610.552C1172.33 611.821 1174.49 612.456 1177.07 612.456C1180.36 612.456 1183.06 611.373 1185.19 609.208L1188.94 613.52C1187.6 615.125 1185.9 616.339 1183.85 617.16C1181.79 617.981 1179.48 618.392 1176.9 618.392C1173.62 618.392 1170.72 617.739 1168.22 616.432C1165.72 615.125 1163.78 613.315 1162.4 611C1161.05 608.648 1160.38 605.997 1160.38 603.048C1160.38 600.136 1161.04 597.523 1162.34 595.208C1163.69 592.856 1165.53 591.027 1167.89 589.72C1170.24 588.413 1172.89 587.76 1175.84 587.76C1178.75 587.76 1181.34 588.413 1183.62 589.72C1185.94 590.989 1187.73 592.8 1189 595.152C1190.3 597.467 1190.96 600.155 1190.96 603.216ZM1175.84 593.36C1173.6 593.36 1171.69 594.032 1170.13 595.376C1168.6 596.683 1167.66 598.437 1167.33 600.64H1184.29C1184 598.475 1183.08 596.72 1181.55 595.376C1180.02 594.032 1178.12 593.36 1175.84 593.36ZM1206.92 618.392C1204.5 618.392 1202.12 618.075 1199.81 617.44C1197.5 616.805 1195.65 616.003 1194.27 615.032L1196.95 609.712C1198.3 610.608 1199.9 611.336 1201.77 611.896C1203.67 612.419 1205.54 612.68 1207.37 612.68C1211.55 612.68 1213.64 611.579 1213.64 609.376C1213.64 608.331 1213.1 607.603 1212.02 607.192C1210.97 606.781 1209.27 606.389 1206.92 606.016C1204.46 605.643 1202.44 605.213 1200.87 604.728C1199.34 604.243 1198 603.403 1196.84 602.208C1195.72 600.976 1195.16 599.277 1195.16 597.112C1195.16 594.275 1196.34 592.016 1198.69 590.336C1201.08 588.619 1204.29 587.76 1208.32 587.76C1210.38 587.76 1212.43 588.003 1214.48 588.488C1216.54 588.936 1218.22 589.552 1219.52 590.336L1216.83 595.656C1214.3 594.163 1211.44 593.416 1208.27 593.416C1206.21 593.416 1204.64 593.733 1203.56 594.368C1202.52 594.965 1201.99 595.768 1201.99 596.776C1201.99 597.896 1202.55 598.699 1203.67 599.184C1204.83 599.632 1206.6 600.061 1208.99 600.472C1211.38 600.845 1213.34 601.275 1214.87 601.76C1216.4 602.245 1217.71 603.067 1218.79 604.224C1219.91 605.381 1220.47 607.024 1220.47 609.152C1220.47 611.952 1219.26 614.192 1216.83 615.872C1214.41 617.552 1211.1 618.392 1206.92 618.392Z" fill="#EFEFEF"/>
<path d="M861.533 800.8H881.729C886.657 800.8 891.035 801.768 894.863 803.704C898.691 805.596 901.661 808.302 903.773 811.822C905.885 815.298 906.941 819.324 906.941 823.9C906.941 828.476 905.885 832.524 903.773 836.044C901.661 839.52 898.691 842.226 894.863 844.162C891.035 846.054 886.657 847 881.729 847H861.533V800.8ZM881.333 839.74C884.721 839.74 887.691 839.102 890.243 837.826C892.839 836.506 894.819 834.658 896.183 832.282C897.591 829.862 898.295 827.068 898.295 823.9C898.295 820.732 897.591 817.96 896.183 815.584C894.819 813.164 892.839 811.316 890.243 810.04C887.691 808.72 884.721 808.06 881.333 808.06H870.113V839.74H881.333ZM948.4 829.576C948.4 830.148 948.356 830.962 948.268 832.018H920.614C921.098 834.614 922.352 836.682 924.376 838.222C926.444 839.718 928.996 840.466 932.032 840.466C935.904 840.466 939.094 839.19 941.602 836.638L946.024 841.72C944.44 843.612 942.438 845.042 940.018 846.01C937.598 846.978 934.87 847.462 931.834 847.462C927.962 847.462 924.552 846.692 921.604 845.152C918.656 843.612 916.368 841.478 914.74 838.75C913.156 835.978 912.364 832.854 912.364 829.378C912.364 825.946 913.134 822.866 914.674 820.138C916.258 817.366 918.436 815.21 921.208 813.67C923.98 812.13 927.104 811.36 930.58 811.36C934.012 811.36 937.07 812.13 939.754 813.67C942.482 815.166 944.594 817.3 946.09 820.072C947.63 822.8 948.4 825.968 948.4 829.576ZM930.58 817.96C927.94 817.96 925.696 818.752 923.848 820.336C922.044 821.876 920.944 823.944 920.548 826.54H940.546C940.194 823.988 939.116 821.92 937.312 820.336C935.508 818.752 933.264 817.96 930.58 817.96ZM933.748 797.896H943.45L931.966 806.938H924.838L933.748 797.896ZM970.647 804.232C967.171 804.232 965.433 806.124 965.433 809.908V812.02H975.135V818.62H965.697V847H957.447V818.62H951.639V812.02H957.447V809.776C957.447 805.992 958.547 803.022 960.747 800.866C962.947 798.666 966.049 797.566 970.053 797.566C973.221 797.566 975.707 798.204 977.511 799.48L975.201 805.684C973.793 804.716 972.275 804.232 970.647 804.232ZM985.959 811.756H994.209V847H985.959V811.756ZM990.117 805.948C988.621 805.948 987.367 805.486 986.355 804.562C985.343 803.594 984.837 802.406 984.837 800.998C984.837 799.59 985.343 798.424 986.355 797.5C987.367 796.532 988.621 796.048 990.117 796.048C991.613 796.048 992.867 796.51 993.879 797.434C994.891 798.314 995.397 799.436 995.397 800.8C995.397 802.252 994.891 803.484 993.879 804.496C992.911 805.464 991.657 805.948 990.117 805.948ZM1025.05 811.36C1029.49 811.36 1033.06 812.658 1035.74 815.254C1038.43 817.85 1039.77 821.7 1039.77 826.804V847H1031.52V827.86C1031.52 824.78 1030.79 822.47 1029.34 820.93C1027.89 819.346 1025.82 818.554 1023.14 818.554C1020.1 818.554 1017.7 819.478 1015.94 821.326C1014.18 823.13 1013.3 825.748 1013.3 829.18V847H1005.05V811.756H1012.91V816.31C1014.27 814.682 1015.99 813.45 1018.05 812.614C1020.12 811.778 1022.45 811.36 1025.05 811.36ZM1050.23 811.756H1058.48V847H1050.23V811.756ZM1054.39 805.948C1052.9 805.948 1051.64 805.486 1050.63 804.562C1049.62 803.594 1049.11 802.406 1049.11 800.998C1049.11 799.59 1049.62 798.424 1050.63 797.5C1051.64 796.532 1052.9 796.048 1054.39 796.048C1055.89 796.048 1057.14 796.51 1058.15 797.434C1059.17 798.314 1059.67 799.436 1059.67 800.8C1059.67 802.252 1059.17 803.484 1058.15 804.496C1057.19 805.464 1055.93 805.948 1054.39 805.948ZM1090.5 845.086C1089.53 845.878 1088.34 846.472 1086.93 846.868C1085.57 847.264 1084.12 847.462 1082.58 847.462C1078.71 847.462 1075.71 846.45 1073.6 844.426C1071.49 842.402 1070.43 839.454 1070.43 835.582V818.62H1064.63V812.02H1070.43V803.968H1078.68V812.02H1088.12V818.62H1078.68V835.384C1078.68 837.1 1079.1 838.42 1079.94 839.344C1080.77 840.224 1081.98 840.664 1083.57 840.664C1085.42 840.664 1086.96 840.18 1088.19 839.212L1090.5 845.086ZM1097.28 811.756H1105.53V847H1097.28V811.756ZM1101.44 805.948C1099.95 805.948 1098.69 805.486 1097.68 804.562C1096.67 803.594 1096.16 802.406 1096.16 800.998C1096.16 799.59 1096.67 798.424 1097.68 797.5C1098.69 796.532 1099.95 796.048 1101.44 796.048C1102.94 796.048 1104.19 796.51 1105.2 797.434C1106.22 798.314 1106.72 799.436 1106.72 800.8C1106.72 802.252 1106.22 803.484 1105.2 804.496C1104.24 805.464 1102.98 805.948 1101.44 805.948ZM1132.2 847.462C1128.64 847.462 1125.43 846.692 1122.57 845.152C1119.71 843.612 1117.46 841.478 1115.83 838.75C1114.25 835.978 1113.46 832.854 1113.46 829.378C1113.46 825.902 1114.25 822.8 1115.83 820.072C1117.46 817.344 1119.71 815.21 1122.57 813.67C1125.43 812.13 1128.64 811.36 1132.2 811.36C1135.81 811.36 1139.04 812.13 1141.9 813.67C1144.76 815.21 1146.99 817.344 1148.57 820.072C1150.2 822.8 1151.01 825.902 1151.01 829.378C1151.01 832.854 1150.2 835.978 1148.57 838.75C1146.99 841.478 1144.76 843.612 1141.9 845.152C1139.04 846.692 1135.81 847.462 1132.2 847.462ZM1132.2 840.4C1135.24 840.4 1137.75 839.388 1139.73 837.364C1141.71 835.34 1142.7 832.678 1142.7 829.378C1142.7 826.078 1141.71 823.416 1139.73 821.392C1137.75 819.368 1135.24 818.356 1132.2 818.356C1129.17 818.356 1126.66 819.368 1124.68 821.392C1122.74 823.416 1121.77 826.078 1121.77 829.378C1121.77 832.678 1122.74 835.34 1124.68 837.364C1126.66 839.388 1129.17 840.4 1132.2 840.4ZM1178.9 811.36C1183.34 811.36 1186.91 812.658 1189.59 815.254C1192.28 817.85 1193.62 821.7 1193.62 826.804V847H1185.37V827.86C1185.37 824.78 1184.64 822.47 1183.19 820.93C1181.74 819.346 1179.67 818.554 1176.99 818.554C1173.95 818.554 1171.55 819.478 1169.79 821.326C1168.03 823.13 1167.15 825.748 1167.15 829.18V847H1158.9V811.756H1166.76V816.31C1168.12 814.682 1169.84 813.45 1171.9 812.614C1173.97 811.778 1176.3 811.36 1178.9 811.36Z" fill="#EFEFEF"/>
</g>
<defs>
<linearGradient id="paint0_linear" x1="1809.36" y1="483" x2="1809.36" y2="955.866" gradientUnits="userSpaceOnUse">
<stop stop-color="#97ABD1"/>
<stop offset="1" stop-color="#506A92"/>
</linearGradient>
<linearGradient id="paint1_linear" x1="1721.14" y1="483" x2="1721.14" y2="1114.82" gradientUnits="userSpaceOnUse">
<stop stop-color="#ACB8E1"/>
<stop offset="0.567708" stop-color="#A5B0D4"/>
<stop offset="1" stop-color="#8C93BB"/>
</linearGradient>
<linearGradient id="paint2_linear" x1="747.302" y1="292" x2="747.302" y2="940.187" gradientUnits="userSpaceOnUse">
<stop stop-color="#91A5CB"/>
<stop offset="0.46875" stop-color="#7089AE"/>
<stop offset="1" stop-color="#506A92"/>
</linearGradient>
<linearGradient id="paint3_linear" x1="623.302" y1="290" x2="623.302" y2="1156.92" gradientUnits="userSpaceOnUse">
<stop stop-color="#ADB9E2"/>
<stop offset="0.421875" stop-color="#9EA7C7"/>
<stop offset="1" stop-color="#7375AA"/>
</linearGradient>
<linearGradient id="paint4_linear" x1="1167.25" y1="121.5" x2="1167.25" y2="940.5" gradientUnits="userSpaceOnUse">
<stop stop-color="#9CAFD5"/>
<stop offset="0.40625" stop-color="#8098BB"/>
<stop offset="1" stop-color="#4F6991"/>
</linearGradient>
<linearGradient id="paint5_linear" x1="1010.5" y1="120" x2="1010.5" y2="1214" gradientUnits="userSpaceOnUse">
<stop stop-color="#ADB9E3"/>
<stop offset="0.479167" stop-color="#8A9CC9"/>
<stop offset="1" stop-color="#6A71B3"/>
</linearGradient>
<linearGradient id="paint6_linear" x1="1354.79" y1="488.449" x2="766.03" y2="481.287" gradientUnits="userSpaceOnUse">
<stop stop-color="#5782C2" stop-opacity="0"/>
<stop offset="0.286458" stop-color="#5782C2"/>
<stop offset="0.707384" stop-color="#5782C2"/>
<stop offset="1" stop-color="#5782C2" stop-opacity="0"/>
</linearGradient>
<linearGradient id="paint7_linear" x1="1184.97" y1="306.999" x2="895.992" y2="305.274" gradientUnits="userSpaceOnUse">
<stop stop-color="#5782C2" stop-opacity="0"/>
<stop offset="0.28125" stop-color="#5782C2"/>
<stop offset="0.707384" stop-color="#5782C2"/>
<stop offset="1" stop-color="#5782C2" stop-opacity="0"/>
</linearGradient>
<clipPath id="clip0">
<rect width="2208" height="936" fill="white"/>
</clipPath>
</defs>
</svg>
