<svg width="2208" height="936" viewBox="0 0 2208 936" fill="none" xmlns="http://www.w3.org/2000/svg">
<g clip-path="url(#clip0)">
<path d="M1719.46 482L1756.5 498.5L1818 582L1854 601L1934.5 693L2033.5 753L2082.5 804L2120 865.5L2174 912L2232 953.711L1385 954L1445 898L1478.18 822.5L1518.5 720H1574.5L1648.5 607.5L1677.3 541.5L1719.46 482Z" fill="url(#paint0_linear)"/>
<path d="M1720.14 482L1674.8 546L1648.5 609L1608.5 668.5L1596.5 689L1385 955H2130L1926.5 839L1903 707L1827.04 633L1778.5 609L1765.45 546L1720.14 482Z" fill="url(#paint1_linear)"/>
<path d="M622.5 289.5L646.5 305.5L691.5 354L730.5 375L775.552 430.5L1326 937.604L120 951L-1 937L65 875L176 797L228 747L290 660L375.5 590.5L435 490.5L500 397L583 313L604.5 284L622.5 289.5Z" fill="url(#paint2_linear)"/>
<path d="M622.5 289.5L646 305L1082 938H163L177.508 917.5L232.709 839.5L268.802 788.5L308.08 733L352.665 670L393.005 613L477 571.5L491 504.5L553 423.5L594.347 328.5L604.5 284L622.5 289.5Z" fill="url(#paint3_linear)"/>
<path d="M1012.5 120.5L1081.5 154L1177.5 270L1230.5 329L1350.5 435L1437 563L1568.5 659L1690.5 742.772L1794.75 840.136L1859.5 957.5L434 938L1012.5 120.5Z" fill="url(#paint4_linear)"/>
<path d="M1009.5 119L1168 303L1258 558L1550.5 780L1582.42 928L1737.5 951L430 938L564.5 798.5L733.5 525.5L810 435L888.5 321L959.616 189.5L1009.5 119Z" fill="url(#paint5_linear)"/>
<path d="M765.978 479H1354.85M626 705H1504" stroke="url(#paint6_linear)" stroke-opacity="0.9" stroke-width="13"/>
<line x1="896" y1="297.5" x2="1185" y2="297.5" stroke="url(#paint7_linear)" stroke-opacity="0.5" stroke-width="13"/>
<path d="M1116.08 38.1931L1116.11 27.1932L1047.11 26.9849L1047 64.4847L1114 64.6869L1114.04 50.187L1095.06 43.6297L1116.08 38.1931Z" fill="#A56C60"/>
<path d="M1047 64.4846L1007.4 49.0033L1087.08 49.2438L1047 64.4846Z" fill="#9C5147"/>
<path d="M1013.34 14.021L1087.34 14.2444L1087.24 49.2442L1013.24 49.0208L1013.34 14.021Z" fill="#814A43"/>
<rect x="1006.39" width="11" height="128" rx="5.5" transform="rotate(0.172961 1006.39 0)" fill="#7E3C2D"/>
<path d="M1552.69 534.634L1557.42 524.705L1495.14 495L1479 528.847L1539.47 557.691L1545.72 544.604L1531.36 530.557L1552.69 534.634Z" fill="#A56C60"/>
<path d="M1479 529L1449.57 497.88L1521.49 532.18L1479 529Z" fill="#9C5147"/>
<path d="M1469.91 468.802L1536.7 500.66L1521.63 532.251L1454.84 500.393L1469.91 468.802Z" fill="#814A43"/>
<rect x="1469.62" y="453.152" width="11" height="128" rx="5.5" transform="rotate(25.5 1469.62 453.152)" fill="#7E3C2D"/>
<path d="M1397.14 321.719L1400.73 311.318L1335.49 288.854L1323.28 324.311L1386.63 346.124L1391.35 332.414L1375.5 320.082L1397.14 321.719Z" fill="#A56C60"/>
<path d="M1323.33 324.489L1290.55 297.337L1365.88 323.276L1323.33 324.489Z" fill="#9C5147"/>
<path d="M1307.46 266.144L1377.43 290.236L1366.03 323.329L1296.07 299.237L1307.46 266.144Z" fill="#814A43"/>
<rect x="1305.4" y="250.628" width="11" height="128" rx="5.5" transform="rotate(19 1305.4 250.628)" fill="#7E3C2D"/>
<path d="M1810.03 717.363L1808.03 706.547L1740.18 719.122L1747.02 755.994L1812.9 743.784L1810.25 729.527L1790.39 726.598L1810.03 717.363Z" fill="#A56C60"/>
<path d="M1746.89 756.138L1704.99 748.649L1783.33 734.129L1746.89 756.138Z" fill="#9C5147"/>
<path d="M1704.35 713.171L1777.11 699.685L1783.49 734.099L1710.73 747.585L1704.35 713.171Z" fill="#814A43"/>
<rect x="1694.92" y="700.681" width="11" height="128" rx="5.5" transform="rotate(-10.5 1694.92 700.681)" fill="#7E3C2D"/>
<path d="M971.022 253.36C969.078 253.36 967.194 253.084 965.37 252.532C963.57 251.98 962.142 251.248 961.086 250.336L962.706 246.7C963.738 247.516 964.998 248.188 966.486 248.716C967.998 249.22 969.51 249.472 971.022 249.472C972.894 249.472 974.286 249.172 975.198 248.572C976.134 247.972 976.602 247.18 976.602 246.196C976.602 245.476 976.338 244.888 975.81 244.432C975.306 243.952 974.658 243.58 973.866 243.316C973.074 243.052 971.994 242.752 970.626 242.416C968.706 241.96 967.146 241.504 965.946 241.048C964.77 240.592 963.75 239.884 962.886 238.924C962.046 237.94 961.626 236.62 961.626 234.964C961.626 233.572 961.998 232.312 962.742 231.184C963.51 230.032 964.65 229.12 966.162 228.448C967.698 227.776 969.57 227.44 971.778 227.44C973.314 227.44 974.826 227.632 976.314 228.016C977.802 228.4 979.086 228.952 980.166 229.672L978.69 233.308C977.586 232.66 976.434 232.168 975.234 231.832C974.034 231.496 972.87 231.328 971.742 231.328C969.894 231.328 968.514 231.64 967.602 232.264C966.714 232.888 966.27 233.716 966.27 234.748C966.27 235.468 966.522 236.056 967.026 236.512C967.554 236.968 968.214 237.328 969.006 237.592C969.798 237.856 970.878 238.156 972.246 238.492C974.118 238.924 975.654 239.38 976.854 239.86C978.054 240.316 979.074 241.024 979.914 241.984C980.778 242.944 981.21 244.24 981.21 245.872C981.21 247.264 980.826 248.524 980.058 249.652C979.314 250.78 978.174 251.68 976.638 252.352C975.102 253.024 973.23 253.36 971.022 253.36ZM992.763 233.56C995.595 233.56 997.755 234.244 999.243 235.612C1000.75 236.956 1001.51 238.996 1001.51 241.732V253H997.263V250.66C996.711 251.5 995.919 252.148 994.887 252.604C993.879 253.036 992.655 253.252 991.215 253.252C989.775 253.252 988.515 253.012 987.435 252.532C986.355 252.028 985.515 251.344 984.915 250.48C984.339 249.592 984.051 248.596 984.051 247.492C984.051 245.764 984.687 244.384 985.959 243.352C987.255 242.296 989.283 241.768 992.043 241.768H997.011V241.48C997.011 240.136 996.603 239.104 995.787 238.384C994.995 237.664 993.807 237.304 992.223 237.304C991.143 237.304 990.075 237.472 989.019 237.808C987.987 238.144 987.111 238.612 986.391 239.212L984.627 235.936C985.635 235.168 986.847 234.58 988.263 234.172C989.679 233.764 991.179 233.56 992.763 233.56ZM992.151 249.976C993.279 249.976 994.275 249.724 995.139 249.22C996.027 248.692 996.651 247.948 997.011 246.988V244.756H992.367C989.775 244.756 988.479 245.608 988.479 247.312C988.479 248.128 988.803 248.776 989.451 249.256C990.099 249.736 990.999 249.976 992.151 249.976ZM1007.29 226.288H1011.79V253H1007.29V226.288ZM1025.04 233.56C1027.87 233.56 1030.03 234.244 1031.52 235.612C1033.03 236.956 1033.78 238.996 1033.78 241.732V253H1029.54V250.66C1028.98 251.5 1028.19 252.148 1027.16 252.604C1026.15 253.036 1024.93 253.252 1023.49 253.252C1022.05 253.252 1020.79 253.012 1019.71 252.532C1018.63 252.028 1017.79 251.344 1017.19 250.48C1016.61 249.592 1016.32 248.596 1016.32 247.492C1016.32 245.764 1016.96 244.384 1018.23 243.352C1019.53 242.296 1021.56 241.768 1024.32 241.768H1029.28V241.48C1029.28 240.136 1028.88 239.104 1028.06 238.384C1027.27 237.664 1026.08 237.304 1024.5 237.304C1023.42 237.304 1022.35 237.472 1021.29 237.808C1020.26 238.144 1019.38 238.612 1018.66 239.212L1016.9 235.936C1017.91 235.168 1019.12 234.58 1020.54 234.172C1021.95 233.764 1023.45 233.56 1025.04 233.56ZM1024.42 249.976C1025.55 249.976 1026.55 249.724 1027.41 249.22C1028.3 248.692 1028.92 247.948 1029.28 246.988V244.756H1024.64C1022.05 244.756 1020.75 245.608 1020.75 247.312C1020.75 248.128 1021.08 248.776 1021.72 249.256C1022.37 249.736 1023.27 249.976 1024.42 249.976ZM1039.56 233.776H1044.06V253H1039.56V233.776ZM1041.83 230.608C1041.01 230.608 1040.33 230.356 1039.78 229.852C1039.22 229.324 1038.95 228.676 1038.95 227.908C1038.95 227.14 1039.22 226.504 1039.78 226C1040.33 225.472 1041.01 225.208 1041.83 225.208C1042.64 225.208 1043.33 225.46 1043.88 225.964C1044.43 226.444 1044.71 227.056 1044.71 227.8C1044.71 228.592 1044.43 229.264 1043.88 229.816C1043.35 230.344 1042.67 230.608 1041.83 230.608ZM1054.25 236.584C1055.55 234.568 1057.83 233.56 1061.09 233.56V237.844C1060.71 237.772 1060.36 237.736 1060.05 237.736C1058.29 237.736 1056.93 238.252 1055.94 239.284C1054.96 240.292 1054.47 241.756 1054.47 243.676V253H1049.97V233.776H1054.25V236.584ZM1082.8 243.496C1082.8 243.808 1082.78 244.252 1082.73 244.828H1067.65C1067.91 246.244 1068.6 247.372 1069.7 248.212C1070.83 249.028 1072.22 249.436 1073.88 249.436C1075.99 249.436 1077.73 248.74 1079.1 247.348L1081.51 250.12C1080.64 251.152 1079.55 251.932 1078.23 252.46C1076.91 252.988 1075.42 253.252 1073.77 253.252C1071.66 253.252 1069.8 252.832 1068.19 251.992C1066.58 251.152 1065.33 249.988 1064.44 248.5C1063.58 246.988 1063.15 245.284 1063.15 243.388C1063.15 241.516 1063.57 239.836 1064.41 238.348C1065.27 236.836 1066.46 235.66 1067.97 234.82C1069.48 233.98 1071.19 233.56 1073.08 233.56C1074.96 233.56 1076.62 233.98 1078.09 234.82C1079.58 235.636 1080.73 236.8 1081.54 238.312C1082.38 239.8 1082.8 241.528 1082.8 243.496ZM1073.08 237.16C1071.64 237.16 1070.42 237.592 1069.41 238.456C1068.43 239.296 1067.83 240.424 1067.61 241.84H1078.52C1078.33 240.448 1077.74 239.32 1076.76 238.456C1075.77 237.592 1074.55 237.16 1073.08 237.16Z" fill="#EFEFEF"/>
<path d="M963.978 406L963.93 383.728L952.89 402.16H950.106L939.066 384.016V406H933.114V372.4H938.25L951.594 394.672L964.698 372.4H969.834L969.882 406H963.978ZM978.381 380.368H984.381V406H978.381V380.368ZM981.405 376.144C980.317 376.144 979.405 375.808 978.669 375.136C977.933 374.432 977.565 373.568 977.565 372.544C977.565 371.52 977.933 370.672 978.669 370C979.405 369.296 980.317 368.944 981.405 368.944C982.493 368.944 983.405 369.28 984.141 369.952C984.877 370.592 985.245 371.408 985.245 372.4C985.245 373.456 984.877 374.352 984.141 375.088C983.437 375.792 982.525 376.144 981.405 376.144ZM1000.18 406.336C998.096 406.336 996.064 406.064 994.08 405.52C992.096 404.976 990.512 404.288 989.328 403.456L991.632 398.896C992.784 399.664 994.16 400.288 995.76 400.768C997.392 401.216 998.992 401.44 1000.56 401.44C1004.14 401.44 1005.94 400.496 1005.94 398.608C1005.94 397.712 1005.47 397.088 1004.54 396.736C1003.65 396.384 1002.19 396.048 1000.18 395.728C998.064 395.408 996.336 395.04 994.992 394.624C993.68 394.208 992.528 393.488 991.536 392.464C990.576 391.408 990.096 389.952 990.096 388.096C990.096 385.664 991.104 383.728 993.12 382.288C995.168 380.816 997.92 380.08 1001.38 380.08C1003.14 380.08 1004.9 380.288 1006.66 380.704C1008.42 381.088 1009.86 381.616 1010.98 382.288L1008.67 386.848C1006.5 385.568 1004.05 384.928 1001.33 384.928C999.568 384.928 998.224 385.2 997.296 385.744C996.4 386.256 995.952 386.944 995.952 387.808C995.952 388.768 996.432 389.456 997.392 389.872C998.384 390.256 999.904 390.624 1001.95 390.976C1004 391.296 1005.68 391.664 1006.99 392.08C1008.3 392.496 1009.42 393.2 1010.35 394.192C1011.31 395.184 1011.79 396.592 1011.79 398.416C1011.79 400.816 1010.75 402.736 1008.67 404.176C1006.59 405.616 1003.76 406.336 1000.18 406.336ZM1024.88 406.336C1022.8 406.336 1020.77 406.064 1018.78 405.52C1016.8 404.976 1015.22 404.288 1014.03 403.456L1016.34 398.896C1017.49 399.664 1018.86 400.288 1020.46 400.768C1022.1 401.216 1023.7 401.44 1025.26 401.44C1028.85 401.44 1030.64 400.496 1030.64 398.608C1030.64 397.712 1030.18 397.088 1029.25 396.736C1028.35 396.384 1026.9 396.048 1024.88 395.728C1022.77 395.408 1021.04 395.04 1019.7 394.624C1018.38 394.208 1017.23 393.488 1016.24 392.464C1015.28 391.408 1014.8 389.952 1014.8 388.096C1014.8 385.664 1015.81 383.728 1017.82 382.288C1019.87 380.816 1022.62 380.08 1026.08 380.08C1027.84 380.08 1029.6 380.288 1031.36 380.704C1033.12 381.088 1034.56 381.616 1035.68 382.288L1033.38 386.848C1031.2 385.568 1028.75 384.928 1026.03 384.928C1024.27 384.928 1022.93 385.2 1022 385.744C1021.1 386.256 1020.66 386.944 1020.66 387.808C1020.66 388.768 1021.14 389.456 1022.1 389.872C1023.09 390.256 1024.61 390.624 1026.66 390.976C1028.7 391.296 1030.38 391.664 1031.7 392.08C1033.01 392.496 1034.13 393.2 1035.06 394.192C1036.02 395.184 1036.5 396.592 1036.5 398.416C1036.5 400.816 1035.46 402.736 1033.38 404.176C1031.3 405.616 1028.46 406.336 1024.88 406.336ZM1041.66 380.368H1047.66V406H1041.66V380.368ZM1044.69 376.144C1043.6 376.144 1042.69 375.808 1041.95 375.136C1041.21 374.432 1040.85 373.568 1040.85 372.544C1040.85 371.52 1041.21 370.672 1041.95 370C1042.69 369.296 1043.6 368.944 1044.69 368.944C1045.77 368.944 1046.69 369.28 1047.42 369.952C1048.16 370.592 1048.53 371.408 1048.53 372.4C1048.53 373.456 1048.16 374.352 1047.42 375.088C1046.72 375.792 1045.81 376.144 1044.69 376.144ZM1067.06 406.336C1064.47 406.336 1062.13 405.776 1060.05 404.656C1057.97 403.536 1056.34 401.984 1055.15 400C1054 397.984 1053.43 395.712 1053.43 393.184C1053.43 390.656 1054 388.4 1055.15 386.416C1056.34 384.432 1057.97 382.88 1060.05 381.76C1062.13 380.64 1064.47 380.08 1067.06 380.08C1069.68 380.08 1072.03 380.64 1074.11 381.76C1076.19 382.88 1077.81 384.432 1078.96 386.416C1080.15 388.4 1080.74 390.656 1080.74 393.184C1080.74 395.712 1080.15 397.984 1078.96 400C1077.81 401.984 1076.19 403.536 1074.11 404.656C1072.03 405.776 1069.68 406.336 1067.06 406.336ZM1067.06 401.2C1069.27 401.2 1071.09 400.464 1072.53 398.992C1073.97 397.52 1074.69 395.584 1074.69 393.184C1074.69 390.784 1073.97 388.848 1072.53 387.376C1071.09 385.904 1069.27 385.168 1067.06 385.168C1064.85 385.168 1063.03 385.904 1061.59 387.376C1060.18 388.848 1059.47 390.784 1059.47 393.184C1059.47 395.584 1060.18 397.52 1061.59 398.992C1063.03 400.464 1064.85 401.2 1067.06 401.2ZM1101.02 380.08C1104.25 380.08 1106.84 381.024 1108.8 382.912C1110.75 384.8 1111.72 387.6 1111.72 391.312V406H1105.72V392.08C1105.72 389.84 1105.2 388.16 1104.14 387.04C1103.08 385.888 1101.58 385.312 1099.63 385.312C1097.42 385.312 1095.68 385.984 1094.4 387.328C1093.12 388.64 1092.48 390.544 1092.48 393.04V406H1086.48V380.368H1092.19V383.68C1093.18 382.496 1094.43 381.6 1095.93 380.992C1097.44 380.384 1099.13 380.08 1101.02 380.08Z" fill="#EFEFEF"/>
<path d="M845.498 617.56C841.541 617.56 837.957 616.701 834.746 614.984C831.573 613.229 829.071 610.821 827.242 607.76C825.45 604.699 824.554 601.245 824.554 597.4C824.554 593.555 825.469 590.101 827.298 587.04C829.127 583.979 831.629 581.589 834.802 579.872C838.013 578.117 841.597 577.24 845.554 577.24C848.765 577.24 851.695 577.8 854.346 578.92C856.997 580.04 859.237 581.664 861.066 583.792L856.362 588.216C853.525 585.155 850.034 583.624 845.89 583.624C843.202 583.624 840.794 584.221 838.666 585.416C836.538 586.573 834.877 588.197 833.682 590.288C832.487 592.379 831.89 594.749 831.89 597.4C831.89 600.051 832.487 602.421 833.682 604.512C834.877 606.603 836.538 608.245 838.666 609.44C840.794 610.597 843.202 611.176 845.89 611.176C850.034 611.176 853.525 609.627 856.362 606.528L861.066 611.008C859.237 613.136 856.978 614.76 854.29 615.88C851.639 617 848.709 617.56 845.498 617.56ZM879.716 617.392C876.692 617.392 873.966 616.739 871.54 615.432C869.113 614.125 867.209 612.315 865.828 610C864.484 607.648 863.812 604.997 863.812 602.048C863.812 599.099 864.484 596.467 865.828 594.152C867.209 591.837 869.113 590.027 871.54 588.72C873.966 587.413 876.692 586.76 879.716 586.76C882.777 586.76 885.521 587.413 887.948 588.72C890.374 590.027 892.26 591.837 893.604 594.152C894.985 596.467 895.676 599.099 895.676 602.048C895.676 604.997 894.985 607.648 893.604 610C892.26 612.315 890.374 614.125 887.948 615.432C885.521 616.739 882.777 617.392 879.716 617.392ZM879.716 611.4C882.292 611.4 884.42 610.541 886.1 608.824C887.78 607.107 888.62 604.848 888.62 602.048C888.62 599.248 887.78 596.989 886.1 595.272C884.42 593.555 882.292 592.696 879.716 592.696C877.14 592.696 875.012 593.555 873.332 595.272C871.689 596.989 870.868 599.248 870.868 602.048C870.868 604.848 871.689 607.107 873.332 608.824C875.012 610.541 877.14 611.4 879.716 611.4ZM940.113 586.76C943.884 586.76 946.871 587.861 949.073 590.064C951.276 592.229 952.377 595.496 952.377 599.864V617H945.377V600.76C945.377 598.147 944.799 596.187 943.641 594.88C942.484 593.536 940.823 592.864 938.657 592.864C936.305 592.864 934.42 593.648 933.001 595.216C931.583 596.747 930.873 598.949 930.873 601.824V617H923.873V600.76C923.873 598.147 923.295 596.187 922.137 594.88C920.98 593.536 919.319 592.864 917.153 592.864C914.764 592.864 912.86 593.629 911.441 595.16C910.06 596.691 909.369 598.912 909.369 601.824V617H902.369V587.096H909.033V590.904C910.153 589.56 911.553 588.533 913.233 587.824C914.913 587.115 916.78 586.76 918.833 586.76C921.073 586.76 923.052 587.189 924.769 588.048C926.524 588.869 927.905 590.101 928.913 591.744C930.145 590.176 931.732 588.963 933.673 588.104C935.615 587.208 937.761 586.76 940.113 586.76ZM977.898 586.76C980.81 586.76 983.405 587.395 985.682 588.664C987.997 589.933 989.808 591.725 991.114 594.04C992.421 596.355 993.074 599.024 993.074 602.048C993.074 605.072 992.421 607.76 991.114 610.112C989.808 612.427 987.997 614.219 985.682 615.488C983.405 616.757 980.81 617.392 977.898 617.392C973.866 617.392 970.674 616.048 968.322 613.36V627.864H961.322V587.096H967.986V591.016C969.144 589.597 970.562 588.533 972.242 587.824C973.96 587.115 975.845 586.76 977.898 586.76ZM977.114 611.4C979.69 611.4 981.8 610.541 983.442 608.824C985.122 607.107 985.962 604.848 985.962 602.048C985.962 599.248 985.122 596.989 983.442 595.272C981.8 593.555 979.69 592.696 977.114 592.696C975.434 592.696 973.922 593.088 972.578 593.872C971.234 594.619 970.17 595.701 969.386 597.12C968.602 598.539 968.21 600.181 968.21 602.048C968.21 603.915 968.602 605.557 969.386 606.976C970.17 608.395 971.234 609.496 972.578 610.28C973.922 611.027 975.434 611.4 977.114 611.4ZM1027.83 602.216C1027.83 602.701 1027.79 603.392 1027.71 604.288H1004.25C1004.66 606.491 1005.72 608.245 1007.44 609.552C1009.2 610.821 1011.36 611.456 1013.94 611.456C1017.22 611.456 1019.93 610.373 1022.06 608.208L1025.81 612.52C1024.47 614.125 1022.77 615.339 1020.71 616.16C1018.66 616.981 1016.35 617.392 1013.77 617.392C1010.48 617.392 1007.59 616.739 1005.09 615.432C1002.59 614.125 1000.65 612.315 999.265 610C997.921 607.648 997.249 604.997 997.249 602.048C997.249 599.136 997.902 596.523 999.209 594.208C1000.55 591.856 1002.4 590.027 1004.75 588.72C1007.11 587.413 1009.76 586.76 1012.71 586.76C1015.62 586.76 1018.21 587.413 1020.49 588.72C1022.8 589.989 1024.6 591.8 1025.87 594.152C1027.17 596.467 1027.83 599.155 1027.83 602.216ZM1012.71 592.36C1010.47 592.36 1008.56 593.032 1006.99 594.376C1005.46 595.683 1004.53 597.437 1004.19 599.64H1021.16C1020.86 597.475 1019.95 595.72 1018.42 594.376C1016.89 593.032 1014.98 592.36 1012.71 592.36ZM1015.39 575.336H1023.63L1013.88 583.008H1007.83L1015.39 575.336ZM1052.53 615.376C1051.7 616.048 1050.7 616.552 1049.5 616.888C1048.34 617.224 1047.11 617.392 1045.81 617.392C1042.52 617.392 1039.98 616.533 1038.19 614.816C1036.4 613.099 1035.5 610.597 1035.5 607.312V592.92H1030.57V587.32H1035.5V580.488H1042.5V587.32H1050.51V592.92H1042.5V607.144C1042.5 608.6 1042.86 609.72 1043.57 610.504C1044.27 611.251 1045.3 611.624 1046.65 611.624C1048.21 611.624 1049.52 611.213 1050.57 610.392L1052.53 615.376ZM1085.41 602.216C1085.41 602.701 1085.37 603.392 1085.3 604.288H1061.84C1062.25 606.491 1063.31 608.245 1065.03 609.552C1066.78 610.821 1068.95 611.456 1071.52 611.456C1074.81 611.456 1077.52 610.373 1079.64 608.208L1083.4 612.52C1082.05 614.125 1080.35 615.339 1078.3 616.16C1076.25 616.981 1073.93 617.392 1071.36 617.392C1068.07 617.392 1065.18 616.739 1062.68 615.432C1060.17 614.125 1058.23 612.315 1056.85 610C1055.51 607.648 1054.84 604.997 1054.84 602.048C1054.84 599.136 1055.49 596.523 1056.8 594.208C1058.14 591.856 1059.99 590.027 1062.34 588.72C1064.69 587.413 1067.34 586.76 1070.29 586.76C1073.2 586.76 1075.8 587.413 1078.08 588.72C1080.39 589.989 1082.18 591.8 1083.45 594.152C1084.76 596.467 1085.41 599.155 1085.41 602.216ZM1070.29 592.36C1068.05 592.36 1066.15 593.032 1064.58 594.376C1063.05 595.683 1062.12 597.437 1061.78 599.64H1078.75C1078.45 597.475 1077.53 595.72 1076 594.376C1074.47 593.032 1072.57 592.36 1070.29 592.36ZM1109.1 586.76C1112.87 586.76 1115.9 587.861 1118.17 590.064C1120.45 592.267 1121.59 595.533 1121.59 599.864V617H1114.59V600.76C1114.59 598.147 1113.97 596.187 1112.74 594.88C1111.51 593.536 1109.76 592.864 1107.48 592.864C1104.9 592.864 1102.87 593.648 1101.37 595.216C1099.88 596.747 1099.13 598.968 1099.13 601.88V617H1092.13V587.096H1098.8V590.96C1099.96 589.579 1101.41 588.533 1103.17 587.824C1104.92 587.115 1106.9 586.76 1109.1 586.76ZM1144.46 617.392C1141.37 617.392 1138.58 616.739 1136.12 615.432C1133.66 614.125 1131.73 612.315 1130.35 610C1128.97 607.648 1128.28 604.997 1128.28 602.048C1128.28 599.099 1128.97 596.467 1130.35 594.152C1131.73 591.837 1133.64 590.027 1136.06 588.72C1138.53 587.413 1141.33 586.76 1144.46 586.76C1147.41 586.76 1149.99 587.357 1152.19 588.552C1154.43 589.747 1156.11 591.464 1157.23 593.704L1151.86 596.84C1151 595.459 1149.92 594.432 1148.61 593.76C1147.34 593.051 1145.94 592.696 1144.41 592.696C1141.8 592.696 1139.63 593.555 1137.91 595.272C1136.2 596.952 1135.34 599.211 1135.34 602.048C1135.34 604.885 1136.18 607.163 1137.86 608.88C1139.57 610.56 1141.76 611.4 1144.41 611.4C1145.94 611.4 1147.34 611.064 1148.61 610.392C1149.92 609.683 1151 608.637 1151.86 607.256L1157.23 610.392C1156.08 612.632 1154.38 614.368 1152.14 615.6C1149.93 616.795 1147.38 617.392 1144.46 617.392ZM1190.96 602.216C1190.96 602.701 1190.92 603.392 1190.85 604.288H1167.38C1167.79 606.491 1168.86 608.245 1170.57 609.552C1172.33 610.821 1174.49 611.456 1177.07 611.456C1180.36 611.456 1183.06 610.373 1185.19 608.208L1188.94 612.52C1187.6 614.125 1185.9 615.339 1183.85 616.16C1181.79 616.981 1179.48 617.392 1176.9 617.392C1173.62 617.392 1170.72 616.739 1168.22 615.432C1165.72 614.125 1163.78 612.315 1162.4 610C1161.05 607.648 1160.38 604.997 1160.38 602.048C1160.38 599.136 1161.04 596.523 1162.34 594.208C1163.69 591.856 1165.53 590.027 1167.89 588.72C1170.24 587.413 1172.89 586.76 1175.84 586.76C1178.75 586.76 1181.34 587.413 1183.62 588.72C1185.94 589.989 1187.73 591.8 1189 594.152C1190.3 596.467 1190.96 599.155 1190.96 602.216ZM1175.84 592.36C1173.6 592.36 1171.69 593.032 1170.13 594.376C1168.6 595.683 1167.66 597.437 1167.33 599.64H1184.29C1184 597.475 1183.08 595.72 1181.55 594.376C1180.02 593.032 1178.12 592.36 1175.84 592.36ZM1206.92 617.392C1204.5 617.392 1202.12 617.075 1199.81 616.44C1197.5 615.805 1195.65 615.003 1194.27 614.032L1196.95 608.712C1198.3 609.608 1199.9 610.336 1201.77 610.896C1203.67 611.419 1205.54 611.68 1207.37 611.68C1211.55 611.68 1213.64 610.579 1213.64 608.376C1213.64 607.331 1213.1 606.603 1212.02 606.192C1210.97 605.781 1209.27 605.389 1206.92 605.016C1204.46 604.643 1202.44 604.213 1200.87 603.728C1199.34 603.243 1198 602.403 1196.84 601.208C1195.72 599.976 1195.16 598.277 1195.16 596.112C1195.16 593.275 1196.34 591.016 1198.69 589.336C1201.08 587.619 1204.29 586.76 1208.32 586.76C1210.38 586.76 1212.43 587.003 1214.48 587.488C1216.54 587.936 1218.22 588.552 1219.52 589.336L1216.83 594.656C1214.3 593.163 1211.44 592.416 1208.27 592.416C1206.21 592.416 1204.64 592.733 1203.56 593.368C1202.52 593.965 1201.99 594.768 1201.99 595.776C1201.99 596.896 1202.55 597.699 1203.67 598.184C1204.83 598.632 1206.6 599.061 1208.99 599.472C1211.38 599.845 1213.34 600.275 1214.87 600.76C1216.4 601.245 1217.71 602.067 1218.79 603.224C1219.91 604.381 1220.47 606.024 1220.47 608.152C1220.47 610.952 1219.26 613.192 1216.83 614.872C1214.41 616.552 1211.1 617.392 1206.92 617.392Z" fill="#EFEFEF"/>
<path d="M861.533 799.8H881.729C886.657 799.8 891.035 800.768 894.863 802.704C898.691 804.596 901.661 807.302 903.773 810.822C905.885 814.298 906.941 818.324 906.941 822.9C906.941 827.476 905.885 831.524 903.773 835.044C901.661 838.52 898.691 841.226 894.863 843.162C891.035 845.054 886.657 846 881.729 846H861.533V799.8ZM881.333 838.74C884.721 838.74 887.691 838.102 890.243 836.826C892.839 835.506 894.819 833.658 896.183 831.282C897.591 828.862 898.295 826.068 898.295 822.9C898.295 819.732 897.591 816.96 896.183 814.584C894.819 812.164 892.839 810.316 890.243 809.04C887.691 807.72 884.721 807.06 881.333 807.06H870.113V838.74H881.333ZM948.4 828.576C948.4 829.148 948.356 829.962 948.268 831.018H920.614C921.098 833.614 922.352 835.682 924.376 837.222C926.444 838.718 928.996 839.466 932.032 839.466C935.904 839.466 939.094 838.19 941.602 835.638L946.024 840.72C944.44 842.612 942.438 844.042 940.018 845.01C937.598 845.978 934.87 846.462 931.834 846.462C927.962 846.462 924.552 845.692 921.604 844.152C918.656 842.612 916.368 840.478 914.74 837.75C913.156 834.978 912.364 831.854 912.364 828.378C912.364 824.946 913.134 821.866 914.674 819.138C916.258 816.366 918.436 814.21 921.208 812.67C923.98 811.13 927.104 810.36 930.58 810.36C934.012 810.36 937.07 811.13 939.754 812.67C942.482 814.166 944.594 816.3 946.09 819.072C947.63 821.8 948.4 824.968 948.4 828.576ZM930.58 816.96C927.94 816.96 925.696 817.752 923.848 819.336C922.044 820.876 920.944 822.944 920.548 825.54H940.546C940.194 822.988 939.116 820.92 937.312 819.336C935.508 817.752 933.264 816.96 930.58 816.96ZM933.748 796.896H943.45L931.966 805.938H924.838L933.748 796.896ZM970.647 803.232C967.171 803.232 965.433 805.124 965.433 808.908V811.02H975.135V817.62H965.697V846H957.447V817.62H951.639V811.02H957.447V808.776C957.447 804.992 958.547 802.022 960.747 799.866C962.947 797.666 966.049 796.566 970.053 796.566C973.221 796.566 975.707 797.204 977.511 798.48L975.201 804.684C973.793 803.716 972.275 803.232 970.647 803.232ZM985.959 810.756H994.209V846H985.959V810.756ZM990.117 804.948C988.621 804.948 987.367 804.486 986.355 803.562C985.343 802.594 984.837 801.406 984.837 799.998C984.837 798.59 985.343 797.424 986.355 796.5C987.367 795.532 988.621 795.048 990.117 795.048C991.613 795.048 992.867 795.51 993.879 796.434C994.891 797.314 995.397 798.436 995.397 799.8C995.397 801.252 994.891 802.484 993.879 803.496C992.911 804.464 991.657 804.948 990.117 804.948ZM1025.05 810.36C1029.49 810.36 1033.06 811.658 1035.74 814.254C1038.43 816.85 1039.77 820.7 1039.77 825.804V846H1031.52V826.86C1031.52 823.78 1030.79 821.47 1029.34 819.93C1027.89 818.346 1025.82 817.554 1023.14 817.554C1020.1 817.554 1017.7 818.478 1015.94 820.326C1014.18 822.13 1013.3 824.748 1013.3 828.18V846H1005.05V810.756H1012.91V815.31C1014.27 813.682 1015.99 812.45 1018.05 811.614C1020.12 810.778 1022.45 810.36 1025.05 810.36ZM1050.23 810.756H1058.48V846H1050.23V810.756ZM1054.39 804.948C1052.9 804.948 1051.64 804.486 1050.63 803.562C1049.62 802.594 1049.11 801.406 1049.11 799.998C1049.11 798.59 1049.62 797.424 1050.63 796.5C1051.64 795.532 1052.9 795.048 1054.39 795.048C1055.89 795.048 1057.14 795.51 1058.15 796.434C1059.17 797.314 1059.67 798.436 1059.67 799.8C1059.67 801.252 1059.17 802.484 1058.15 803.496C1057.19 804.464 1055.93 804.948 1054.39 804.948ZM1090.5 844.086C1089.53 844.878 1088.34 845.472 1086.93 845.868C1085.57 846.264 1084.12 846.462 1082.58 846.462C1078.71 846.462 1075.71 845.45 1073.6 843.426C1071.49 841.402 1070.43 838.454 1070.43 834.582V817.62H1064.63V811.02H1070.43V802.968H1078.68V811.02H1088.12V817.62H1078.68V834.384C1078.68 836.1 1079.1 837.42 1079.94 838.344C1080.77 839.224 1081.98 839.664 1083.57 839.664C1085.42 839.664 1086.96 839.18 1088.19 838.212L1090.5 844.086ZM1097.28 810.756H1105.53V846H1097.28V810.756ZM1101.44 804.948C1099.95 804.948 1098.69 804.486 1097.68 803.562C1096.67 802.594 1096.16 801.406 1096.16 799.998C1096.16 798.59 1096.67 797.424 1097.68 796.5C1098.69 795.532 1099.95 795.048 1101.44 795.048C1102.94 795.048 1104.19 795.51 1105.2 796.434C1106.22 797.314 1106.72 798.436 1106.72 799.8C1106.72 801.252 1106.22 802.484 1105.2 803.496C1104.24 804.464 1102.98 804.948 1101.44 804.948ZM1132.2 846.462C1128.64 846.462 1125.43 845.692 1122.57 844.152C1119.71 842.612 1117.46 840.478 1115.83 837.75C1114.25 834.978 1113.46 831.854 1113.46 828.378C1113.46 824.902 1114.25 821.8 1115.83 819.072C1117.46 816.344 1119.71 814.21 1122.57 812.67C1125.43 811.13 1128.64 810.36 1132.2 810.36C1135.81 810.36 1139.04 811.13 1141.9 812.67C1144.76 814.21 1146.99 816.344 1148.57 819.072C1150.2 821.8 1151.01 824.902 1151.01 828.378C1151.01 831.854 1150.2 834.978 1148.57 837.75C1146.99 840.478 1144.76 842.612 1141.9 844.152C1139.04 845.692 1135.81 846.462 1132.2 846.462ZM1132.2 839.4C1135.24 839.4 1137.75 838.388 1139.73 836.364C1141.71 834.34 1142.7 831.678 1142.7 828.378C1142.7 825.078 1141.71 822.416 1139.73 820.392C1137.75 818.368 1135.24 817.356 1132.2 817.356C1129.17 817.356 1126.66 818.368 1124.68 820.392C1122.74 822.416 1121.77 825.078 1121.77 828.378C1121.77 831.678 1122.74 834.34 1124.68 836.364C1126.66 838.388 1129.17 839.4 1132.2 839.4ZM1178.9 810.36C1183.34 810.36 1186.91 811.658 1189.59 814.254C1192.28 816.85 1193.62 820.7 1193.62 825.804V846H1185.37V826.86C1185.37 823.78 1184.64 821.47 1183.19 819.93C1181.74 818.346 1179.67 817.554 1176.99 817.554C1173.95 817.554 1171.55 818.478 1169.79 820.326C1168.03 822.13 1167.15 824.748 1167.15 828.18V846H1158.9V810.756H1166.76V815.31C1168.12 813.682 1169.84 812.45 1171.9 811.614C1173.97 810.778 1176.3 810.36 1178.9 810.36Z" fill="#EFEFEF"/>
</g>
<defs>
<linearGradient id="paint0_linear" x1="1808.36" y1="482" x2="1808.36" y2="954.866" gradientUnits="userSpaceOnUse">
<stop stop-color="#D5A19C"/>
<stop offset="1" stop-color="#915F50"/>
</linearGradient>
<linearGradient id="paint1_linear" x1="1720.14" y1="482" x2="1720.14" y2="1113.82" gradientUnits="userSpaceOnUse">
<stop stop-color="#E3B8AB"/>
<stop offset="0.567708" stop-color="#C8A689"/>
<stop offset="1" stop-color="#B19566"/>
</linearGradient>
<linearGradient id="paint2_linear" x1="746.302" y1="291" x2="746.302" y2="939.187" gradientUnits="userSpaceOnUse">
<stop stop-color="#CB9791"/>
<stop offset="0.46875" stop-color="#AE7B70"/>
<stop offset="1" stop-color="#926050"/>
</linearGradient>
<linearGradient id="paint3_linear" x1="622.302" y1="289" x2="622.302" y2="1155.92" gradientUnits="userSpaceOnUse">
<stop stop-color="#E2B8AD"/>
<stop offset="0.421875" stop-color="#C7A79E"/>
<stop offset="1" stop-color="#AA9273"/>
</linearGradient>
<linearGradient id="paint4_linear" x1="1166.25" y1="120.5" x2="1166.25" y2="939.5" gradientUnits="userSpaceOnUse">
<stop stop-color="#D5A09C"/>
<stop offset="0.40625" stop-color="#BB8880"/>
<stop offset="1" stop-color="#915F4F"/>
</linearGradient>
<linearGradient id="paint5_linear" x1="1009.5" y1="119" x2="1009.5" y2="1213" gradientUnits="userSpaceOnUse">
<stop stop-color="#E3B9AD"/>
<stop offset="0.479167" stop-color="#C9A68A"/>
<stop offset="1" stop-color="#B3976A"/>
</linearGradient>
<linearGradient id="paint6_linear" x1="1354.79" y1="488.449" x2="766.03" y2="481.287" gradientUnits="userSpaceOnUse">
<stop stop-color="#C26457" stop-opacity="0"/>
<stop offset="0.286458" stop-color="#C26457"/>
<stop offset="0.707384" stop-color="#C26457"/>
<stop offset="1" stop-color="#C26457" stop-opacity="0"/>
</linearGradient>
<linearGradient id="paint7_linear" x1="1184.97" y1="306.999" x2="895.992" y2="305.274" gradientUnits="userSpaceOnUse">
<stop stop-color="#C26457" stop-opacity="0"/>
<stop offset="0.28125" stop-color="#C26457"/>
<stop offset="0.707384" stop-color="#C26457"/>
<stop offset="1" stop-color="#C26457" stop-opacity="0"/>
</linearGradient>
<clipPath id="clip0">
<rect width="2208" height="936" fill="white"/>
</clipPath>
</defs>
</svg>
