<svg width="1920" height="947" viewBox="0 0 1920 947" fill="none" xmlns="http://www.w3.org/2000/svg">
<g clip-path="url(#clip0)">
<path d="M1584.46 486L1621.5 502.5L1683 586L1719 605L1799.5 697L1898.5 757L1947.5 808L1985 869.5L2039 916L2097 957.711L1250 958L1310 902L1343.18 826.5L1383.5 724H1439.5L1513.5 611.5L1542.3 545.5L1584.46 486Z" fill="url(#paint0_linear)"/>
<path d="M1585.14 486L1539.8 550L1513.5 613L1473.5 672.5L1461.5 693L1250 959H2090.5L1897.5 857L1778.5 725L1652.5 627L1630.45 550L1585.14 486Z" fill="url(#paint1_linear)"/>
<path d="M487.5 293.5L511.5 309.5L556.5 358L595.5 379L640.552 434.5L1191 941.604L-15 955L-70 941.604V879L41 801L93 751L155 664L240.5 594.5L300 494.5L365 401L448 317L469.5 288L487.5 293.5Z" fill="url(#paint2_linear)"/>
<path d="M487.302 293L947 942H28L42.508 921.5L97.7091 843.5L133.802 792.5L173.08 737L217.665 674L258.005 617L342 575.5L356 508.5L418 427.5L459.347 332.5L487.302 293Z" fill="url(#paint3_linear)"/>
<path d="M877.5 124.5L946.5 158L1042.5 274L1095.5 333L1215.5 439L1302 567L1433.5 663L1555.5 746.772L1659.75 844.136L1724.5 961.5L299 942L877.5 124.5Z" fill="url(#paint4_linear)"/>
<path d="M874.5 123L1033 307L1123 562L1415.5 784L1447.42 932L1602.5 955L295 942L429.5 802.5L598.5 529.5L675 439L753.5 325L824.616 193.5L874.5 123Z" fill="url(#paint5_linear)"/>
<path d="M640 461.5H1250M495 687.5H1404.5" stroke="url(#paint6_linear)" stroke-opacity="0.9" stroke-width="13"/>
<line x1="754" y1="304.5" x2="1074" y2="304.5" stroke="url(#paint7_linear)" stroke-opacity="0.5" stroke-width="13"/>
<path d="M981 38V27H912V64.5H979V50L960 43.5L981 38Z" fill="#625095"/>
<path d="M914 64L874.163 49L953.837 49L914 64Z" fill="#5A4A89"/>
<path d="M880 14H954V49H880V14Z" fill="#534381"/>
<rect x="873" width="11" height="128" rx="5.5" fill="#342D7E"/>
<path d="M1419.74 540.946L1424.47 531.018L1362.2 501.312L1346.05 535.159L1406.52 564.003L1412.77 550.916L1398.42 536.869L1419.74 540.946Z" fill="#625095"/>
<path d="M1348.07 535.569L1318.57 504.88L1390.49 539.181L1348.07 535.569Z" fill="#5A4A89"/>
<path d="M1338.91 475.802L1405.7 507.66L1390.63 539.251L1323.84 507.393L1338.91 475.802Z" fill="#534381"/>
<rect x="1338.62" y="460.153" width="11" height="128" rx="5.5" transform="rotate(25.5 1338.62 460.153)" fill="#342D7E"/>
<path d="M1264.14 328.719L1267.73 318.318L1202.49 295.854L1190.28 331.311L1253.63 353.124L1258.35 339.414L1242.5 327.082L1264.14 328.719Z" fill="#625095"/>
<path d="M1192.33 331.489L1159.55 304.337L1234.88 330.276L1192.33 331.489Z" fill="#5A4A89"/>
<path d="M1176.46 273.144L1246.43 297.236L1235.03 330.329L1165.07 306.237L1176.46 273.144Z" fill="#534381"/>
<rect x="1174.4" y="257.628" width="11" height="128" rx="5.5" transform="rotate(19 1174.4 257.628)" fill="#342D7E"/>
<path d="M1677.03 725.363L1675.03 714.548L1607.18 727.122L1614.02 763.994L1679.9 751.784L1677.25 737.527L1657.39 734.598L1677.03 725.363Z" fill="#625095"/>
<path d="M1615.89 763.138L1573.99 755.649L1652.33 741.129L1615.89 763.138Z" fill="#5A4A89"/>
<path d="M1573.35 720.171L1646.11 706.686L1652.49 741.1L1579.73 754.585L1573.35 720.171Z" fill="#534381"/>
<rect x="1563.92" y="707.681" width="11" height="128" rx="5.5" transform="rotate(-10.5 1563.92 707.681)" fill="#342D7E"/>
</g>
<defs>
<linearGradient id="paint0_linear" x1="1673.36" y1="486" x2="1673.36" y2="958.866" gradientUnits="userSpaceOnUse">
<stop stop-color="#B8A5DD"/>
<stop offset="1" stop-color="#674D8F"/>
</linearGradient>
<linearGradient id="paint1_linear" x1="1585.14" y1="486" x2="1585.14" y2="1117.82" gradientUnits="userSpaceOnUse">
<stop stop-color="#D8C3F7" stop-opacity="0.31"/>
<stop offset="1" stop-color="#704DA2"/>
</linearGradient>
<linearGradient id="paint2_linear" x1="611.302" y1="295" x2="611.302" y2="943.187" gradientUnits="userSpaceOnUse">
<stop stop-color="#B8A5DD"/>
<stop offset="1" stop-color="#674D8F"/>
</linearGradient>
<linearGradient id="paint3_linear" x1="487.302" y1="293" x2="487.302" y2="1159.92" gradientUnits="userSpaceOnUse">
<stop stop-color="#D8C3F7" stop-opacity="0.31"/>
<stop offset="1" stop-color="#704DA2"/>
</linearGradient>
<linearGradient id="paint4_linear" x1="1031.25" y1="124.5" x2="1031.25" y2="943.5" gradientUnits="userSpaceOnUse">
<stop stop-color="#B8A5DD"/>
<stop offset="1" stop-color="#674D8F"/>
</linearGradient>
<linearGradient id="paint5_linear" x1="874.5" y1="123" x2="874.5" y2="1217" gradientUnits="userSpaceOnUse">
<stop stop-color="#D8C3F7" stop-opacity="0.31"/>
<stop offset="1" stop-color="#704DA2"/>
</linearGradient>
<linearGradient id="paint6_linear" x1="1249.94" y1="470.949" x2="640.06" y2="463.264" gradientUnits="userSpaceOnUse">
<stop offset="0.0759997" stop-color="#8357CB" stop-opacity="0"/>
<stop offset="0.225419" stop-color="#8E6DC5" stop-opacity="0.54"/>
<stop offset="0.707384" stop-color="#8E6DC5"/>
<stop offset="0.811819" stop-color="#916FCA" stop-opacity="0.883518"/>
<stop offset="1" stop-color="#926FCB" stop-opacity="0.18"/>
</linearGradient>
<linearGradient id="paint7_linear" x1="1073.97" y1="313.999" x2="753.994" y2="311.884" gradientUnits="userSpaceOnUse">
<stop offset="0.0759997" stop-color="#8E6DC5" stop-opacity="0"/>
<stop offset="0.225419" stop-color="#8E6DC5" stop-opacity="0.54"/>
<stop offset="0.707384" stop-color="#8E6DC5"/>
<stop offset="0.811819" stop-color="#916FCA" stop-opacity="0.883518"/>
<stop offset="1" stop-color="#926FCB" stop-opacity="0.16"/>
</linearGradient>
<clipPath id="clip0">
<rect width="1920" height="947" fill="white"/>
</clipPath>
</defs>
</svg>
