<svg width="2208" height="936" viewBox="0 0 2208 936" fill="none" xmlns="http://www.w3.org/2000/svg">
<g clip-path="url(#clip0)">
<path d="M1715.46 479L1752.5 495.5L1814 579L1850 598L1930.5 690L2029.5 750L2078.5 801L2116 862.5L2170 909L2228 950.711L1381 951L1441 895L1474.18 819.5L1514.5 717H1570.5L1644.5 604.5L1673.3 538.5L1715.46 479Z" fill="url(#paint0_linear)"/>
<path d="M1716.14 479L1670.8 543L1644.5 606L1604.5 665.5L1592.5 686L1381 952H2221.5L2028.5 850L1909.5 718L1783.5 620L1761.45 543L1716.14 479Z" fill="url(#paint1_linear)"/>
<path d="M618.5 286.5L642.5 302.5L687.5 351L726.5 372L771.552 427.5L1322 934.604L116 948L-6.5 945.5L61 872L172 794L224 744L286 657L371.5 587.5L431 487.5L496 394L579 310L600.5 281L618.5 286.5Z" fill="url(#paint2_linear)"/>
<path d="M618.302 286L1087 949.5L154 942L173.508 914.5L228.709 836.5L264.802 785.5L304.08 730L348.665 667L389.005 610L473 568.5L487 501.5L549 420.5L590.347 325.5L618.302 286Z" fill="url(#paint3_linear)"/>
<path d="M1008.5 117.5L1077.5 151L1173.5 267L1226.5 326L1346.5 432L1433 560L1564.5 656L1686.5 739.772L1790.75 837.136L1855.5 954.5L430 935L1008.5 117.5Z" fill="url(#paint4_linear)"/>
<path d="M1005.5 116L1164 300L1254 555L1546.5 777L1578.42 925L1733.5 948L426 935L560.5 795.5L729.5 522.5L806 432L884.5 318L955.616 186.5L1005.5 116Z" fill="url(#paint5_linear)"/>
<path d="M765.978 479H1354.85M626 705H1504" stroke="url(#paint6_linear)" stroke-opacity="0.9" stroke-width="13"/>
<line x1="876" y1="297.5" x2="1185" y2="297.5" stroke="url(#paint7_linear)" stroke-opacity="0.5" stroke-width="13"/>
<path d="M1552.69 534.634L1557.42 524.705L1495.14 495L1479 528.847L1539.47 557.691L1545.72 544.604L1531.36 530.557L1552.69 534.634Z" fill="#519550"/>
<path d="M1479 529L1449.57 497.88L1521.49 532.18L1479 529Z" fill="#4A8954"/>
<path d="M1469.91 468.802L1536.7 500.66L1521.63 532.251L1454.84 500.393L1469.91 468.802Z" fill="#438145"/>
<rect x="1469.62" y="453.152" width="11" height="128" rx="5.5" transform="rotate(25.5 1469.62 453.152)" fill="#2D7E31"/>
<path d="M1397.14 321.719L1400.73 311.318L1335.49 288.854L1323.28 324.311L1386.63 346.124L1391.35 332.414L1375.5 320.082L1397.14 321.719Z" fill="#519550"/>
<path d="M1323.33 324.489L1290.55 297.337L1365.88 323.276L1323.33 324.489Z" fill="#4A8954"/>
<path d="M1307.46 266.144L1377.43 290.236L1366.03 323.329L1296.07 299.237L1307.46 266.144Z" fill="#438145"/>
<rect x="1305.4" y="250.628" width="11" height="128" rx="5.5" transform="rotate(19 1305.4 250.628)" fill="#2D7E31"/>
<path d="M1115.08 38.2082L1115.11 27.2083L1046.11 27L1046 64.4998L1113 64.7021L1113.04 50.2021L1094.06 43.6448L1115.08 38.2082Z" fill="#519550"/>
<path d="M1046 64.4998L1006.4 49.0184L1086.08 49.2589L1046 64.4998Z" fill="#4A8954"/>
<path d="M1012.34 14.0361L1086.34 14.2595L1086.24 49.2594L1012.24 49.036L1012.34 14.0361Z" fill="#438145"/>
<rect x="1005.39" y="0.0151367" width="11" height="128" rx="5.5" transform="rotate(0.172961 1005.39 0.0151367)" fill="#2D7E31"/>
<path d="M1810.03 717.363L1808.03 706.547L1740.18 719.122L1747.02 755.994L1812.9 743.784L1810.25 729.527L1790.39 726.598L1810.03 717.363Z" fill="#519550"/>
<path d="M1746.89 756.138L1704.99 748.649L1783.33 734.129L1746.89 756.138Z" fill="#4A8954"/>
<path d="M1704.35 713.171L1777.11 699.685L1783.49 734.099L1710.73 747.585L1704.35 713.171Z" fill="#438145"/>
<rect x="1694.92" y="700.681" width="11" height="128" rx="5.5" transform="rotate(-10.5 1694.92 700.681)" fill="#2D7E31"/>
<path d="M973.702 244.076V248H954.802V222.8H973.198V226.724H959.482V233.276H971.65V237.128H959.482V244.076H973.702ZM965.89 215.816H971.182L964.918 220.748H961.03L965.89 215.816ZM989.692 246.956C989.164 247.388 988.516 247.712 987.748 247.928C987.004 248.144 986.212 248.252 985.372 248.252C983.26 248.252 981.628 247.7 980.476 246.596C979.324 245.492 978.748 243.884 978.748 241.772V232.52H975.58V228.92H978.748V224.528H983.248V228.92H988.396V232.52H983.248V241.664C983.248 242.6 983.476 243.32 983.932 243.824C984.388 244.304 985.048 244.544 985.912 244.544C986.92 244.544 987.76 244.28 988.432 243.752L989.692 246.956ZM1012.01 228.776V248H1007.72V245.552C1007 246.416 1006.1 247.088 1005.02 247.568C1003.94 248.024 1002.78 248.252 1001.53 248.252C998.961 248.252 996.933 247.544 995.445 246.128C993.981 244.688 993.249 242.564 993.249 239.756V228.776H997.749V239.144C997.749 240.872 998.133 242.168 998.901 243.032C999.693 243.872 1000.81 244.292 1002.25 244.292C1003.86 244.292 1005.13 243.8 1006.07 242.816C1007.03 241.808 1007.51 240.368 1007.51 238.496V228.776H1012.01ZM1036.73 221.288V248H1032.41V245.516C1031.66 246.428 1030.74 247.112 1029.63 247.568C1028.55 248.024 1027.35 248.252 1026.03 248.252C1024.19 248.252 1022.52 247.844 1021.03 247.028C1019.57 246.212 1018.41 245.06 1017.57 243.572C1016.73 242.06 1016.31 240.332 1016.31 238.388C1016.31 236.444 1016.73 234.728 1017.57 233.24C1018.41 231.752 1019.57 230.6 1021.03 229.784C1022.52 228.968 1024.19 228.56 1026.03 228.56C1027.31 228.56 1028.47 228.776 1029.53 229.208C1030.58 229.64 1031.48 230.288 1032.23 231.152V221.288H1036.73ZM1026.57 244.4C1027.65 244.4 1028.63 244.16 1029.49 243.68C1030.35 243.176 1031.04 242.468 1031.54 241.556C1032.05 240.644 1032.3 239.588 1032.3 238.388C1032.3 237.188 1032.05 236.132 1031.54 235.22C1031.04 234.308 1030.35 233.612 1029.49 233.132C1028.63 232.628 1027.65 232.376 1026.57 232.376C1025.49 232.376 1024.52 232.628 1023.66 233.132C1022.79 233.612 1022.11 234.308 1021.61 235.22C1021.1 236.132 1020.85 237.188 1020.85 238.388C1020.85 239.588 1021.1 240.644 1021.61 241.556C1022.11 242.468 1022.79 243.176 1023.66 243.68C1024.52 244.16 1025.49 244.4 1026.57 244.4ZM1060.68 238.496C1060.68 238.808 1060.66 239.252 1060.61 239.828H1045.53C1045.79 241.244 1046.48 242.372 1047.58 243.212C1048.71 244.028 1050.1 244.436 1051.76 244.436C1053.87 244.436 1055.61 243.74 1056.98 242.348L1059.39 245.12C1058.52 246.152 1057.43 246.932 1056.11 247.46C1054.79 247.988 1053.3 248.252 1051.65 248.252C1049.54 248.252 1047.68 247.832 1046.07 246.992C1044.46 246.152 1043.21 244.988 1042.32 243.5C1041.46 241.988 1041.03 240.284 1041.03 238.388C1041.03 236.516 1041.45 234.836 1042.29 233.348C1043.15 231.836 1044.34 230.66 1045.85 229.82C1047.36 228.98 1049.07 228.56 1050.96 228.56C1052.84 228.56 1054.5 228.98 1055.97 229.82C1057.46 230.636 1058.61 231.8 1059.42 233.312C1060.26 234.8 1060.68 236.528 1060.68 238.496ZM1050.96 232.16C1049.52 232.16 1048.3 232.592 1047.29 233.456C1046.31 234.296 1045.71 235.424 1045.49 236.84H1056.4C1056.21 235.448 1055.62 234.32 1054.64 233.456C1053.65 232.592 1052.43 232.16 1050.96 232.16ZM1070.95 248.252C1069.39 248.252 1067.86 248.048 1066.37 247.64C1064.89 247.232 1063.7 246.716 1062.81 246.092L1064.54 242.672C1065.4 243.248 1066.43 243.716 1067.63 244.076C1068.86 244.412 1070.06 244.58 1071.23 244.58C1073.92 244.58 1075.27 243.872 1075.27 242.456C1075.27 241.784 1074.92 241.316 1074.22 241.052C1073.55 240.788 1072.46 240.536 1070.95 240.296C1069.36 240.056 1068.07 239.78 1067.06 239.468C1066.07 239.156 1065.21 238.616 1064.47 237.848C1063.75 237.056 1063.39 235.964 1063.39 234.572C1063.39 232.748 1064.14 231.296 1065.65 230.216C1067.19 229.112 1069.25 228.56 1071.85 228.56C1073.17 228.56 1074.49 228.716 1075.81 229.028C1077.13 229.316 1078.21 229.712 1079.05 230.216L1077.32 233.636C1075.69 232.676 1073.85 232.196 1071.81 232.196C1070.49 232.196 1069.48 232.4 1068.79 232.808C1068.11 233.192 1067.78 233.708 1067.78 234.356C1067.78 235.076 1068.14 235.592 1068.86 235.904C1069.6 236.192 1070.74 236.468 1072.28 236.732C1073.81 236.972 1075.07 237.248 1076.06 237.56C1077.04 237.872 1077.88 238.4 1078.58 239.144C1079.3 239.888 1079.66 240.944 1079.66 242.312C1079.66 244.112 1078.88 245.552 1077.32 246.632C1075.76 247.712 1073.63 248.252 1070.95 248.252Z" fill="#EFEFEF"/>
<path d="M957.978 401L957.93 378.728L946.89 397.16H944.106L933.066 379.016V401H927.114V367.4H932.25L945.594 389.672L958.698 367.4H963.834L963.882 401H957.978ZM972.381 375.368H978.381V401H972.381V375.368ZM975.405 371.144C974.317 371.144 973.405 370.808 972.669 370.136C971.933 369.432 971.565 368.568 971.565 367.544C971.565 366.52 971.933 365.672 972.669 365C973.405 364.296 974.317 363.944 975.405 363.944C976.493 363.944 977.405 364.28 978.141 364.952C978.877 365.592 979.245 366.408 979.245 367.4C979.245 368.456 978.877 369.352 978.141 370.088C977.437 370.792 976.525 371.144 975.405 371.144ZM994.176 401.336C992.096 401.336 990.064 401.064 988.08 400.52C986.096 399.976 984.512 399.288 983.328 398.456L985.632 393.896C986.784 394.664 988.16 395.288 989.76 395.768C991.392 396.216 992.992 396.44 994.56 396.44C998.144 396.44 999.936 395.496 999.936 393.608C999.936 392.712 999.472 392.088 998.544 391.736C997.648 391.384 996.192 391.048 994.176 390.728C992.064 390.408 990.336 390.04 988.992 389.624C987.68 389.208 986.528 388.488 985.536 387.464C984.576 386.408 984.096 384.952 984.096 383.096C984.096 380.664 985.104 378.728 987.12 377.288C989.168 375.816 991.92 375.08 995.376 375.08C997.136 375.08 998.896 375.288 1000.66 375.704C1002.42 376.088 1003.86 376.616 1004.98 377.288L1002.67 381.848C1000.5 380.568 998.048 379.928 995.328 379.928C993.568 379.928 992.224 380.2 991.296 380.744C990.4 381.256 989.952 381.944 989.952 382.808C989.952 383.768 990.432 384.456 991.392 384.872C992.384 385.256 993.904 385.624 995.952 385.976C998 386.296 999.68 386.664 1000.99 387.08C1002.3 387.496 1003.42 388.2 1004.35 389.192C1005.31 390.184 1005.79 391.592 1005.79 393.416C1005.79 395.816 1004.75 397.736 1002.67 399.176C1000.59 400.616 997.76 401.336 994.176 401.336ZM1018.88 401.336C1016.8 401.336 1014.77 401.064 1012.78 400.52C1010.8 399.976 1009.22 399.288 1008.03 398.456L1010.34 393.896C1011.49 394.664 1012.86 395.288 1014.46 395.768C1016.1 396.216 1017.7 396.44 1019.26 396.44C1022.85 396.44 1024.64 395.496 1024.64 393.608C1024.64 392.712 1024.18 392.088 1023.25 391.736C1022.35 391.384 1020.9 391.048 1018.88 390.728C1016.77 390.408 1015.04 390.04 1013.7 389.624C1012.38 389.208 1011.23 388.488 1010.24 387.464C1009.28 386.408 1008.8 384.952 1008.8 383.096C1008.8 380.664 1009.81 378.728 1011.82 377.288C1013.87 375.816 1016.62 375.08 1020.08 375.08C1021.84 375.08 1023.6 375.288 1025.36 375.704C1027.12 376.088 1028.56 376.616 1029.68 377.288L1027.38 381.848C1025.2 380.568 1022.75 379.928 1020.03 379.928C1018.27 379.928 1016.93 380.2 1016 380.744C1015.1 381.256 1014.66 381.944 1014.66 382.808C1014.66 383.768 1015.14 384.456 1016.1 384.872C1017.09 385.256 1018.61 385.624 1020.66 385.976C1022.7 386.296 1024.38 386.664 1025.7 387.08C1027.01 387.496 1028.13 388.2 1029.06 389.192C1030.02 390.184 1030.5 391.592 1030.5 393.416C1030.5 395.816 1029.46 397.736 1027.38 399.176C1025.3 400.616 1022.46 401.336 1018.88 401.336ZM1035.66 375.368H1041.66V401H1035.66V375.368ZM1038.69 371.144C1037.6 371.144 1036.69 370.808 1035.95 370.136C1035.21 369.432 1034.85 368.568 1034.85 367.544C1034.85 366.52 1035.21 365.672 1035.95 365C1036.69 364.296 1037.6 363.944 1038.69 363.944C1039.77 363.944 1040.69 364.28 1041.42 364.952C1042.16 365.592 1042.53 366.408 1042.53 367.4C1042.53 368.456 1042.16 369.352 1041.42 370.088C1040.72 370.792 1039.81 371.144 1038.69 371.144ZM1061.06 401.336C1058.47 401.336 1056.13 400.776 1054.05 399.656C1051.97 398.536 1050.34 396.984 1049.15 395C1048 392.984 1047.43 390.712 1047.43 388.184C1047.43 385.656 1048 383.4 1049.15 381.416C1050.34 379.432 1051.97 377.88 1054.05 376.76C1056.13 375.64 1058.47 375.08 1061.06 375.08C1063.68 375.08 1066.03 375.64 1068.11 376.76C1070.19 377.88 1071.81 379.432 1072.96 381.416C1074.15 383.4 1074.74 385.656 1074.74 388.184C1074.74 390.712 1074.15 392.984 1072.96 395C1071.81 396.984 1070.19 398.536 1068.11 399.656C1066.03 400.776 1063.68 401.336 1061.06 401.336ZM1061.06 396.2C1063.27 396.2 1065.09 395.464 1066.53 393.992C1067.97 392.52 1068.69 390.584 1068.69 388.184C1068.69 385.784 1067.97 383.848 1066.53 382.376C1065.09 380.904 1063.27 380.168 1061.06 380.168C1058.85 380.168 1057.03 380.904 1055.59 382.376C1054.18 383.848 1053.47 385.784 1053.47 388.184C1053.47 390.584 1054.18 392.52 1055.59 393.992C1057.03 395.464 1058.85 396.2 1061.06 396.2ZM1095.02 375.08C1098.25 375.08 1100.84 376.024 1102.8 377.912C1104.75 379.8 1105.72 382.6 1105.72 386.312V401H1099.72V387.08C1099.72 384.84 1099.2 383.16 1098.14 382.04C1097.08 380.888 1095.58 380.312 1093.63 380.312C1091.42 380.312 1089.68 380.984 1088.4 382.328C1087.12 383.64 1086.48 385.544 1086.48 388.04V401H1080.48V375.368H1086.19V378.68C1087.18 377.496 1088.43 376.6 1089.93 375.992C1091.44 375.384 1093.13 375.08 1095.02 375.08Z" fill="#EFEFEF"/>
<path d="M839.498 612.56C835.541 612.56 831.957 611.701 828.746 609.984C825.573 608.229 823.071 605.821 821.242 602.76C819.45 599.699 818.554 596.245 818.554 592.4C818.554 588.555 819.469 585.101 821.298 582.04C823.127 578.979 825.629 576.589 828.802 574.872C832.013 573.117 835.597 572.24 839.554 572.24C842.765 572.24 845.695 572.8 848.346 573.92C850.997 575.04 853.237 576.664 855.066 578.792L850.362 583.216C847.525 580.155 844.034 578.624 839.89 578.624C837.202 578.624 834.794 579.221 832.666 580.416C830.538 581.573 828.877 583.197 827.682 585.288C826.487 587.379 825.89 589.749 825.89 592.4C825.89 595.051 826.487 597.421 827.682 599.512C828.877 601.603 830.538 603.245 832.666 604.44C834.794 605.597 837.202 606.176 839.89 606.176C844.034 606.176 847.525 604.627 850.362 601.528L855.066 606.008C853.237 608.136 850.978 609.76 848.29 610.88C845.639 612 842.709 612.56 839.498 612.56ZM873.716 612.392C870.692 612.392 867.966 611.739 865.54 610.432C863.113 609.125 861.209 607.315 859.828 605C858.484 602.648 857.812 599.997 857.812 597.048C857.812 594.099 858.484 591.467 859.828 589.152C861.209 586.837 863.113 585.027 865.54 583.72C867.966 582.413 870.692 581.76 873.716 581.76C876.777 581.76 879.521 582.413 881.948 583.72C884.374 585.027 886.26 586.837 887.604 589.152C888.985 591.467 889.676 594.099 889.676 597.048C889.676 599.997 888.985 602.648 887.604 605C886.26 607.315 884.374 609.125 881.948 610.432C879.521 611.739 876.777 612.392 873.716 612.392ZM873.716 606.4C876.292 606.4 878.42 605.541 880.1 603.824C881.78 602.107 882.62 599.848 882.62 597.048C882.62 594.248 881.78 591.989 880.1 590.272C878.42 588.555 876.292 587.696 873.716 587.696C871.14 587.696 869.012 588.555 867.332 590.272C865.689 591.989 864.868 594.248 864.868 597.048C864.868 599.848 865.689 602.107 867.332 603.824C869.012 605.541 871.14 606.4 873.716 606.4ZM934.113 581.76C937.884 581.76 940.871 582.861 943.073 585.064C945.276 587.229 946.377 590.496 946.377 594.864V612H939.377V595.76C939.377 593.147 938.799 591.187 937.641 589.88C936.484 588.536 934.823 587.864 932.657 587.864C930.305 587.864 928.42 588.648 927.001 590.216C925.583 591.747 924.873 593.949 924.873 596.824V612H917.873V595.76C917.873 593.147 917.295 591.187 916.137 589.88C914.98 588.536 913.319 587.864 911.153 587.864C908.764 587.864 906.86 588.629 905.441 590.16C904.06 591.691 903.369 593.912 903.369 596.824V612H896.369V582.096H903.033V585.904C904.153 584.56 905.553 583.533 907.233 582.824C908.913 582.115 910.78 581.76 912.833 581.76C915.073 581.76 917.052 582.189 918.769 583.048C920.524 583.869 921.905 585.101 922.913 586.744C924.145 585.176 925.732 583.963 927.673 583.104C929.615 582.208 931.761 581.76 934.113 581.76ZM971.898 581.76C974.81 581.76 977.405 582.395 979.682 583.664C981.997 584.933 983.808 586.725 985.114 589.04C986.421 591.355 987.074 594.024 987.074 597.048C987.074 600.072 986.421 602.76 985.114 605.112C983.808 607.427 981.997 609.219 979.682 610.488C977.405 611.757 974.81 612.392 971.898 612.392C967.866 612.392 964.674 611.048 962.322 608.36V622.864H955.322V582.096H961.986V586.016C963.144 584.597 964.562 583.533 966.242 582.824C967.96 582.115 969.845 581.76 971.898 581.76ZM971.114 606.4C973.69 606.4 975.8 605.541 977.442 603.824C979.122 602.107 979.962 599.848 979.962 597.048C979.962 594.248 979.122 591.989 977.442 590.272C975.8 588.555 973.69 587.696 971.114 587.696C969.434 587.696 967.922 588.088 966.578 588.872C965.234 589.619 964.17 590.701 963.386 592.12C962.602 593.539 962.21 595.181 962.21 597.048C962.21 598.915 962.602 600.557 963.386 601.976C964.17 603.395 965.234 604.496 966.578 605.28C967.922 606.027 969.434 606.4 971.114 606.4ZM1021.83 597.216C1021.83 597.701 1021.79 598.392 1021.71 599.288H998.249C998.66 601.491 999.724 603.245 1001.44 604.552C1003.2 605.821 1005.36 606.456 1007.94 606.456C1011.22 606.456 1013.93 605.373 1016.06 603.208L1019.81 607.52C1018.47 609.125 1016.77 610.339 1014.71 611.16C1012.66 611.981 1010.35 612.392 1007.77 612.392C1004.48 612.392 1001.59 611.739 999.089 610.432C996.588 609.125 994.646 607.315 993.265 605C991.921 602.648 991.249 599.997 991.249 597.048C991.249 594.136 991.902 591.523 993.209 589.208C994.553 586.856 996.401 585.027 998.753 583.72C1001.11 582.413 1003.76 581.76 1006.71 581.76C1009.62 581.76 1012.21 582.413 1014.49 583.72C1016.8 584.989 1018.6 586.8 1019.87 589.152C1021.17 591.467 1021.83 594.155 1021.83 597.216ZM1006.71 587.36C1004.47 587.36 1002.56 588.032 1000.99 589.376C999.462 590.683 998.529 592.437 998.193 594.64H1015.16C1014.86 592.475 1013.95 590.72 1012.42 589.376C1010.89 588.032 1008.98 587.36 1006.71 587.36ZM1009.39 570.336H1017.63L1007.88 578.008H1001.83L1009.39 570.336ZM1046.53 610.376C1045.7 611.048 1044.7 611.552 1043.5 611.888C1042.34 612.224 1041.11 612.392 1039.81 612.392C1036.52 612.392 1033.98 611.533 1032.19 609.816C1030.4 608.099 1029.5 605.597 1029.5 602.312V587.92H1024.57V582.32H1029.5V575.488H1036.5V582.32H1044.51V587.92H1036.5V602.144C1036.5 603.6 1036.86 604.72 1037.57 605.504C1038.27 606.251 1039.3 606.624 1040.65 606.624C1042.21 606.624 1043.52 606.213 1044.57 605.392L1046.53 610.376ZM1079.41 597.216C1079.41 597.701 1079.37 598.392 1079.3 599.288H1055.84C1056.25 601.491 1057.31 603.245 1059.03 604.552C1060.78 605.821 1062.95 606.456 1065.52 606.456C1068.81 606.456 1071.52 605.373 1073.64 603.208L1077.4 607.52C1076.05 609.125 1074.35 610.339 1072.3 611.16C1070.25 611.981 1067.93 612.392 1065.36 612.392C1062.07 612.392 1059.18 611.739 1056.68 610.432C1054.17 609.125 1052.23 607.315 1050.85 605C1049.51 602.648 1048.84 599.997 1048.84 597.048C1048.84 594.136 1049.49 591.523 1050.8 589.208C1052.14 586.856 1053.99 585.027 1056.34 583.72C1058.69 582.413 1061.34 581.76 1064.29 581.76C1067.2 581.76 1069.8 582.413 1072.08 583.72C1074.39 584.989 1076.18 586.8 1077.45 589.152C1078.76 591.467 1079.41 594.155 1079.41 597.216ZM1064.29 587.36C1062.05 587.36 1060.15 588.032 1058.58 589.376C1057.05 590.683 1056.12 592.437 1055.78 594.64H1072.75C1072.45 592.475 1071.53 590.72 1070 589.376C1068.47 588.032 1066.57 587.36 1064.29 587.36ZM1103.1 581.76C1106.87 581.76 1109.9 582.861 1112.17 585.064C1114.45 587.267 1115.59 590.533 1115.59 594.864V612H1108.59V595.76C1108.59 593.147 1107.97 591.187 1106.74 589.88C1105.51 588.536 1103.76 587.864 1101.48 587.864C1098.9 587.864 1096.87 588.648 1095.37 590.216C1093.88 591.747 1093.13 593.968 1093.13 596.88V612H1086.13V582.096H1092.8V585.96C1093.96 584.579 1095.41 583.533 1097.17 582.824C1098.92 582.115 1100.9 581.76 1103.1 581.76ZM1138.46 612.392C1135.37 612.392 1132.58 611.739 1130.12 610.432C1127.66 609.125 1125.73 607.315 1124.35 605C1122.97 602.648 1122.28 599.997 1122.28 597.048C1122.28 594.099 1122.97 591.467 1124.35 589.152C1125.73 586.837 1127.64 585.027 1130.06 583.72C1132.53 582.413 1135.33 581.76 1138.46 581.76C1141.41 581.76 1143.99 582.357 1146.19 583.552C1148.43 584.747 1150.11 586.464 1151.23 588.704L1145.86 591.84C1145 590.459 1143.92 589.432 1142.61 588.76C1141.34 588.051 1139.94 587.696 1138.41 587.696C1135.8 587.696 1133.63 588.555 1131.91 590.272C1130.2 591.952 1129.34 594.211 1129.34 597.048C1129.34 599.885 1130.18 602.163 1131.86 603.88C1133.57 605.56 1135.76 606.4 1138.41 606.4C1139.94 606.4 1141.34 606.064 1142.61 605.392C1143.92 604.683 1145 603.637 1145.86 602.256L1151.23 605.392C1150.08 607.632 1148.38 609.368 1146.14 610.6C1143.93 611.795 1141.38 612.392 1138.46 612.392ZM1184.96 597.216C1184.96 597.701 1184.92 598.392 1184.85 599.288H1161.38C1161.79 601.491 1162.86 603.245 1164.57 604.552C1166.33 605.821 1168.49 606.456 1171.07 606.456C1174.36 606.456 1177.06 605.373 1179.19 603.208L1182.94 607.52C1181.6 609.125 1179.9 610.339 1177.85 611.16C1175.79 611.981 1173.48 612.392 1170.9 612.392C1167.62 612.392 1164.72 611.739 1162.22 610.432C1159.72 609.125 1157.78 607.315 1156.4 605C1155.05 602.648 1154.38 599.997 1154.38 597.048C1154.38 594.136 1155.04 591.523 1156.34 589.208C1157.69 586.856 1159.53 585.027 1161.89 583.72C1164.24 582.413 1166.89 581.76 1169.84 581.76C1172.75 581.76 1175.34 582.413 1177.62 583.72C1179.94 584.989 1181.73 586.8 1183 589.152C1184.3 591.467 1184.96 594.155 1184.96 597.216ZM1169.84 587.36C1167.6 587.36 1165.69 588.032 1164.13 589.376C1162.6 590.683 1161.66 592.437 1161.33 594.64H1178.29C1178 592.475 1177.08 590.72 1175.55 589.376C1174.02 588.032 1172.12 587.36 1169.84 587.36ZM1200.92 612.392C1198.5 612.392 1196.12 612.075 1193.81 611.44C1191.5 610.805 1189.65 610.003 1188.27 609.032L1190.95 603.712C1192.3 604.608 1193.9 605.336 1195.77 605.896C1197.67 606.419 1199.54 606.68 1201.37 606.68C1205.55 606.68 1207.64 605.579 1207.64 603.376C1207.64 602.331 1207.1 601.603 1206.02 601.192C1204.97 600.781 1203.27 600.389 1200.92 600.016C1198.46 599.643 1196.44 599.213 1194.87 598.728C1193.34 598.243 1192 597.403 1190.84 596.208C1189.72 594.976 1189.16 593.277 1189.16 591.112C1189.16 588.275 1190.34 586.016 1192.69 584.336C1195.08 582.619 1198.29 581.76 1202.32 581.76C1204.38 581.76 1206.43 582.003 1208.48 582.488C1210.54 582.936 1212.22 583.552 1213.52 584.336L1210.83 589.656C1208.3 588.163 1205.44 587.416 1202.27 587.416C1200.21 587.416 1198.64 587.733 1197.56 588.368C1196.52 588.965 1195.99 589.768 1195.99 590.776C1195.99 591.896 1196.55 592.699 1197.67 593.184C1198.83 593.632 1200.6 594.061 1202.99 594.472C1205.38 594.845 1207.34 595.275 1208.87 595.76C1210.4 596.245 1211.71 597.067 1212.79 598.224C1213.91 599.381 1214.47 601.024 1214.47 603.152C1214.47 605.952 1213.26 608.192 1210.83 609.872C1208.41 611.552 1205.1 612.392 1200.92 612.392Z" fill="#EFEFEF"/>
<path d="M855.533 794.8H875.729C880.657 794.8 885.035 795.768 888.863 797.704C892.691 799.596 895.661 802.302 897.773 805.822C899.885 809.298 900.941 813.324 900.941 817.9C900.941 822.476 899.885 826.524 897.773 830.044C895.661 833.52 892.691 836.226 888.863 838.162C885.035 840.054 880.657 841 875.729 841H855.533V794.8ZM875.333 833.74C878.721 833.74 881.691 833.102 884.243 831.826C886.839 830.506 888.819 828.658 890.183 826.282C891.591 823.862 892.295 821.068 892.295 817.9C892.295 814.732 891.591 811.96 890.183 809.584C888.819 807.164 886.839 805.316 884.243 804.04C881.691 802.72 878.721 802.06 875.333 802.06H864.113V833.74H875.333ZM942.4 823.576C942.4 824.148 942.356 824.962 942.268 826.018H914.614C915.098 828.614 916.352 830.682 918.376 832.222C920.444 833.718 922.996 834.466 926.032 834.466C929.904 834.466 933.094 833.19 935.602 830.638L940.024 835.72C938.44 837.612 936.438 839.042 934.018 840.01C931.598 840.978 928.87 841.462 925.834 841.462C921.962 841.462 918.552 840.692 915.604 839.152C912.656 837.612 910.368 835.478 908.74 832.75C907.156 829.978 906.364 826.854 906.364 823.378C906.364 819.946 907.134 816.866 908.674 814.138C910.258 811.366 912.436 809.21 915.208 807.67C917.98 806.13 921.104 805.36 924.58 805.36C928.012 805.36 931.07 806.13 933.754 807.67C936.482 809.166 938.594 811.3 940.09 814.072C941.63 816.8 942.4 819.968 942.4 823.576ZM924.58 811.96C921.94 811.96 919.696 812.752 917.848 814.336C916.044 815.876 914.944 817.944 914.548 820.54H934.546C934.194 817.988 933.116 815.92 931.312 814.336C929.508 812.752 927.264 811.96 924.58 811.96ZM927.748 791.896H937.45L925.966 800.938H918.838L927.748 791.896ZM964.647 798.232C961.171 798.232 959.433 800.124 959.433 803.908V806.02H969.135V812.62H959.697V841H951.447V812.62H945.639V806.02H951.447V803.776C951.447 799.992 952.547 797.022 954.747 794.866C956.947 792.666 960.049 791.566 964.053 791.566C967.221 791.566 969.707 792.204 971.511 793.48L969.201 799.684C967.793 798.716 966.275 798.232 964.647 798.232ZM979.959 805.756H988.209V841H979.959V805.756ZM984.117 799.948C982.621 799.948 981.367 799.486 980.355 798.562C979.343 797.594 978.837 796.406 978.837 794.998C978.837 793.59 979.343 792.424 980.355 791.5C981.367 790.532 982.621 790.048 984.117 790.048C985.613 790.048 986.867 790.51 987.879 791.434C988.891 792.314 989.397 793.436 989.397 794.8C989.397 796.252 988.891 797.484 987.879 798.496C986.911 799.464 985.657 799.948 984.117 799.948ZM1019.05 805.36C1023.49 805.36 1027.06 806.658 1029.74 809.254C1032.43 811.85 1033.77 815.7 1033.77 820.804V841H1025.52V821.86C1025.52 818.78 1024.79 816.47 1023.34 814.93C1021.89 813.346 1019.82 812.554 1017.14 812.554C1014.1 812.554 1011.7 813.478 1009.94 815.326C1008.18 817.13 1007.3 819.748 1007.3 823.18V841H999.052V805.756H1006.91V810.31C1008.27 808.682 1009.99 807.45 1012.05 806.614C1014.12 805.778 1016.45 805.36 1019.05 805.36ZM1044.23 805.756H1052.48V841H1044.23V805.756ZM1048.39 799.948C1046.9 799.948 1045.64 799.486 1044.63 798.562C1043.62 797.594 1043.11 796.406 1043.11 794.998C1043.11 793.59 1043.62 792.424 1044.63 791.5C1045.64 790.532 1046.9 790.048 1048.39 790.048C1049.89 790.048 1051.14 790.51 1052.15 791.434C1053.17 792.314 1053.67 793.436 1053.67 794.8C1053.67 796.252 1053.17 797.484 1052.15 798.496C1051.19 799.464 1049.93 799.948 1048.39 799.948ZM1084.5 839.086C1083.53 839.878 1082.34 840.472 1080.93 840.868C1079.57 841.264 1078.12 841.462 1076.58 841.462C1072.71 841.462 1069.71 840.45 1067.6 838.426C1065.49 836.402 1064.43 833.454 1064.43 829.582V812.62H1058.63V806.02H1064.43V797.968H1072.68V806.02H1082.12V812.62H1072.68V829.384C1072.68 831.1 1073.1 832.42 1073.94 833.344C1074.77 834.224 1075.98 834.664 1077.57 834.664C1079.42 834.664 1080.96 834.18 1082.19 833.212L1084.5 839.086ZM1091.28 805.756H1099.53V841H1091.28V805.756ZM1095.44 799.948C1093.95 799.948 1092.69 799.486 1091.68 798.562C1090.67 797.594 1090.16 796.406 1090.16 794.998C1090.16 793.59 1090.67 792.424 1091.68 791.5C1092.69 790.532 1093.95 790.048 1095.44 790.048C1096.94 790.048 1098.19 790.51 1099.2 791.434C1100.22 792.314 1100.72 793.436 1100.72 794.8C1100.72 796.252 1100.22 797.484 1099.2 798.496C1098.24 799.464 1096.98 799.948 1095.44 799.948ZM1126.2 841.462C1122.64 841.462 1119.43 840.692 1116.57 839.152C1113.71 837.612 1111.46 835.478 1109.83 832.75C1108.25 829.978 1107.46 826.854 1107.46 823.378C1107.46 819.902 1108.25 816.8 1109.83 814.072C1111.46 811.344 1113.71 809.21 1116.57 807.67C1119.43 806.13 1122.64 805.36 1126.2 805.36C1129.81 805.36 1133.04 806.13 1135.9 807.67C1138.76 809.21 1140.99 811.344 1142.57 814.072C1144.2 816.8 1145.01 819.902 1145.01 823.378C1145.01 826.854 1144.2 829.978 1142.57 832.75C1140.99 835.478 1138.76 837.612 1135.9 839.152C1133.04 840.692 1129.81 841.462 1126.2 841.462ZM1126.2 834.4C1129.24 834.4 1131.75 833.388 1133.73 831.364C1135.71 829.34 1136.7 826.678 1136.7 823.378C1136.7 820.078 1135.71 817.416 1133.73 815.392C1131.75 813.368 1129.24 812.356 1126.2 812.356C1123.17 812.356 1120.66 813.368 1118.68 815.392C1116.74 817.416 1115.77 820.078 1115.77 823.378C1115.77 826.678 1116.74 829.34 1118.68 831.364C1120.66 833.388 1123.17 834.4 1126.2 834.4ZM1172.9 805.36C1177.34 805.36 1180.91 806.658 1183.59 809.254C1186.28 811.85 1187.62 815.7 1187.62 820.804V841H1179.37V821.86C1179.37 818.78 1178.64 816.47 1177.19 814.93C1175.74 813.346 1173.67 812.554 1170.99 812.554C1167.95 812.554 1165.55 813.478 1163.79 815.326C1162.03 817.13 1161.15 819.748 1161.15 823.18V841H1152.9V805.756H1160.76V810.31C1162.12 808.682 1163.84 807.45 1165.9 806.614C1167.97 805.778 1170.3 805.36 1172.9 805.36Z" fill="#EFEFEF"/>
</g>
<defs>
<linearGradient id="paint0_linear" x1="1804.36" y1="479" x2="1804.36" y2="951.866" gradientUnits="userSpaceOnUse">
<stop stop-color="#A9DDA5"/>
<stop offset="1" stop-color="#4D8F4F"/>
</linearGradient>
<linearGradient id="paint1_linear" x1="1716.14" y1="479" x2="1716.14" y2="1110.82" gradientUnits="userSpaceOnUse">
<stop stop-color="#CAF7C3" stop-opacity="0.31"/>
<stop offset="1" stop-color="#4FA24D"/>
</linearGradient>
<linearGradient id="paint2_linear" x1="742.302" y1="288" x2="742.302" y2="936.187" gradientUnits="userSpaceOnUse">
<stop stop-color="#A9DDA5"/>
<stop offset="1" stop-color="#4E8F4D"/>
</linearGradient>
<linearGradient id="paint3_linear" x1="618.302" y1="286" x2="618.302" y2="1152.92" gradientUnits="userSpaceOnUse">
<stop stop-color="#CAF7C3" stop-opacity="0.31"/>
<stop offset="1" stop-color="#59A24D"/>
</linearGradient>
<linearGradient id="paint4_linear" x1="1162.25" y1="117.5" x2="1162.25" y2="936.5" gradientUnits="userSpaceOnUse">
<stop stop-color="#A5DDAA"/>
<stop offset="1" stop-color="#4D8F4F"/>
</linearGradient>
<linearGradient id="paint5_linear" x1="1005.5" y1="116" x2="1005.5" y2="1210" gradientUnits="userSpaceOnUse">
<stop stop-color="#CAF7C3" stop-opacity="0.31"/>
<stop offset="1" stop-color="#5EA24D"/>
</linearGradient>
<linearGradient id="paint6_linear" x1="1354.79" y1="488.449" x2="766.03" y2="481.287" gradientUnits="userSpaceOnUse">
<stop stop-color="#5FC257" stop-opacity="0"/>
<stop offset="0.286458" stop-color="#5FC257"/>
<stop offset="0.707384" stop-color="#5FC257"/>
<stop offset="1" stop-color="#5FC257" stop-opacity="0"/>
</linearGradient>
<linearGradient id="paint7_linear" x1="1184.97" y1="306.999" x2="875.993" y2="305.027" gradientUnits="userSpaceOnUse">
<stop stop-color="#5FC257" stop-opacity="0"/>
<stop offset="0.28125" stop-color="#5FC257"/>
<stop offset="0.707384" stop-color="#5FC257"/>
<stop offset="1" stop-color="#5FC257" stop-opacity="0"/>
</linearGradient>
<clipPath id="clip0">
<rect width="2208" height="936" fill="white"/>
</clipPath>
</defs>
</svg>
