<svg width="2208" height="936" viewBox="0 0 2208 936" fill="none" xmlns="http://www.w3.org/2000/svg">
<g clip-path="url(#clip0)">
<path d="M1720.46 483L1757.5 499.5L1819 583L1855 602L1935.5 694L2034.5 754L2083.5 805L2121 866.5L2175 913L2233 954.711L1386 955L1446 899L1479.18 823.5L1519.5 721H1575.5L1649.5 608.5L1678.3 542.5L1720.46 483Z" fill="url(#paint0_linear)"/>
<path d="M1721.14 483L1675.8 547L1649.5 610L1609.5 669.5L1597.5 690L1386 956H2144.5L2016 862L1953 743.5L1774 584L1721.14 483Z" fill="url(#paint1_linear)"/>
<path d="M633 281L657 297L702 345.5L741 366.5L786.052 422L1336.5 929.104L130.5 942.5L-3 939L75.5 866.5L186.5 788.5L238.5 738.5L300.5 651.5L386 582L445.5 482L510.5 388.5L593.5 304.5L615 275.5L633 281Z" fill="url(#paint2_linear)"/>
<path d="M623.5 290.5L647 306L1083 939H164L178.508 918.5L233.709 840.5L269.802 789.5L309.08 734L353.665 671L394.005 614L478 572.5L492 505.5L554 424.5L595.347 329.5L605.5 285L623.5 290.5Z" fill="url(#paint3_linear)"/>
<path d="M1013.5 121.5L1082.5 155L1178.5 271L1231.5 330L1351.5 436L1438 564L1569.5 660L1691.5 743.772L1795.75 841.136L1860.5 958.5L435 939L1013.5 121.5Z" fill="url(#paint4_linear)"/>
<path d="M1010.5 120L1169 304L1259 559L1551.5 781L1583.42 929L1738.5 952L431 939L565.5 799.5L734.5 526.5L811 436L889.5 322L960.616 190.5L1010.5 120Z" fill="url(#paint5_linear)"/>
<path d="M765.978 479H1354.85M626 705H1504" stroke="url(#paint6_linear)" stroke-opacity="0.9" stroke-width="13"/>
<line x1="896" y1="297.5" x2="1185" y2="297.5" stroke="url(#paint7_linear)" stroke-opacity="0.5" stroke-width="13"/>
<path d="M1116.08 38.1931L1116.11 27.1932L1047.11 26.9849L1047 64.4847L1114 64.6869L1114.04 50.187L1095.06 43.6297L1116.08 38.1931Z" fill="#6088A5"/>
<path d="M1047 64.4846L1007.4 49.0033L1087.08 49.2438L1047 64.4846Z" fill="#476E9C"/>
<path d="M1013.34 14.021L1087.34 14.2444L1087.24 49.2442L1013.24 49.0208L1013.34 14.021Z" fill="#435C81"/>
<rect x="1006.39" width="11" height="128" rx="5.5" transform="rotate(0.172961 1006.39 0)" fill="#2D447E"/>
<path d="M1552.69 534.634L1557.42 524.705L1495.14 495L1479 528.847L1539.47 557.691L1545.72 544.604L1531.36 530.557L1552.69 534.634Z" fill="#6088A5"/>
<path d="M1479 529L1449.57 497.88L1521.49 532.18L1479 529Z" fill="#476E9C"/>
<path d="M1469.91 468.802L1536.7 500.66L1521.63 532.251L1454.84 500.393L1469.91 468.802Z" fill="#435C81"/>
<rect x="1469.62" y="453.152" width="11" height="128" rx="5.5" transform="rotate(25.5 1469.62 453.152)" fill="#2D447E"/>
<path d="M1397.14 321.719L1400.73 311.318L1335.49 288.854L1323.28 324.311L1386.63 346.124L1391.35 332.414L1375.5 320.082L1397.14 321.719Z" fill="#6088A5"/>
<path d="M1323.33 324.489L1290.55 297.337L1365.88 323.276L1323.33 324.489Z" fill="#476E9C"/>
<path d="M1307.46 266.144L1377.43 290.236L1366.03 323.329L1296.07 299.237L1307.46 266.144Z" fill="#435C81"/>
<rect x="1305.4" y="250.628" width="11" height="128" rx="5.5" transform="rotate(19 1305.4 250.628)" fill="#2D447E"/>
<path d="M1810.03 717.363L1808.03 706.547L1740.18 719.122L1747.02 755.994L1812.9 743.784L1810.25 729.527L1790.39 726.598L1810.03 717.363Z" fill="#6088A5"/>
<path d="M1746.89 756.138L1704.99 748.649L1783.33 734.129L1746.89 756.138Z" fill="#476E9C"/>
<path d="M1704.35 713.171L1777.11 699.685L1783.49 734.099L1710.73 747.585L1704.35 713.171Z" fill="#435C81"/>
<rect x="1694.92" y="700.681" width="11" height="128" rx="5.5" transform="rotate(-10.5 1694.92 700.681)" fill="#2D447E"/>
</g>
<defs>
<linearGradient id="paint0_linear" x1="1809.36" y1="483" x2="1809.36" y2="955.866" gradientUnits="userSpaceOnUse">
<stop stop-color="#97ABD1"/>
<stop offset="1" stop-color="#506A92"/>
</linearGradient>
<linearGradient id="paint1_linear" x1="1721.14" y1="483" x2="1721.14" y2="1114.82" gradientUnits="userSpaceOnUse">
<stop stop-color="#ACB8E1"/>
<stop offset="0.567708" stop-color="#A5B0D4"/>
<stop offset="1" stop-color="#8C93BB"/>
</linearGradient>
<linearGradient id="paint2_linear" x1="747.302" y1="292" x2="747.302" y2="940.187" gradientUnits="userSpaceOnUse">
<stop stop-color="#91A5CB"/>
<stop offset="0.46875" stop-color="#7089AE"/>
<stop offset="1" stop-color="#506A92"/>
</linearGradient>
<linearGradient id="paint3_linear" x1="623.302" y1="290" x2="623.302" y2="1156.92" gradientUnits="userSpaceOnUse">
<stop stop-color="#ADB9E2"/>
<stop offset="0.421875" stop-color="#9EA7C7"/>
<stop offset="1" stop-color="#7375AA"/>
</linearGradient>
<linearGradient id="paint4_linear" x1="1167.25" y1="121.5" x2="1167.25" y2="940.5" gradientUnits="userSpaceOnUse">
<stop stop-color="#9CAFD5"/>
<stop offset="0.40625" stop-color="#8098BB"/>
<stop offset="1" stop-color="#4F6991"/>
</linearGradient>
<linearGradient id="paint5_linear" x1="1010.5" y1="120" x2="1010.5" y2="1214" gradientUnits="userSpaceOnUse">
<stop stop-color="#ADB9E3"/>
<stop offset="0.479167" stop-color="#8A9CC9"/>
<stop offset="1" stop-color="#6A71B3"/>
</linearGradient>
<linearGradient id="paint6_linear" x1="1354.79" y1="488.449" x2="766.03" y2="481.287" gradientUnits="userSpaceOnUse">
<stop stop-color="#5782C2" stop-opacity="0"/>
<stop offset="0.286458" stop-color="#5782C2"/>
<stop offset="0.707384" stop-color="#5782C2"/>
<stop offset="1" stop-color="#5782C2" stop-opacity="0"/>
</linearGradient>
<linearGradient id="paint7_linear" x1="1184.97" y1="306.999" x2="895.992" y2="305.274" gradientUnits="userSpaceOnUse">
<stop stop-color="#5782C2" stop-opacity="0"/>
<stop offset="0.28125" stop-color="#5782C2"/>
<stop offset="0.707384" stop-color="#5782C2"/>
<stop offset="1" stop-color="#5782C2" stop-opacity="0"/>
</linearGradient>
<clipPath id="clip0">
<rect width="2208" height="936" fill="white"/>
</clipPath>
</defs>
</svg>
