<svg width="1583" height="906" viewBox="0 0 1583 906" fill="none" xmlns="http://www.w3.org/2000/svg">
<g clip-path="url(#clip0)">
<path d="M1583 906V330L1562 299L0 875.5L20 906H1583Z" fill="#B14F1F"/>
<path d="M71.0031 310.053L56.1259 312.337H71.4575C71.4575 311.639 71.3284 310.856 71.0031 310.053L56.1259 312.337H71.4575H56.6177L69.6321 316.773C70.2733 315.997 71.3903 314.72 71.4575 312.337H56.6177L69.6321 316.773L60.3431 313.607L67.5945 318.458C67.682 318.36 68.2111 318.248 69.6321 316.773L60.3431 313.607L67.5945 318.458L67.6062 318.452C67.8612 318.307 69.3782 317.596 71.5578 316.727C80.2046 313.212 99.1197 306.63 124.654 298.218C214.31 268.658 387.828 215.342 538.699 169.491C614.158 146.558 683.983 125.482 734.946 110.132C760.433 102.464 781.205 96.2243 795.597 91.9064C809.988 87.5819 817.979 85.1926 818.011 85.186L811.119 76.4316L803.246 84.8569L1539.63 347.157C1547.17 349.842 1556.81 348.243 1561.17 343.596C1565.52 338.942 1562.93 332.992 1555.39 330.306L819.003 68.013C814.491 66.4004 808.943 66.2819 804.249 67.6839C804.227 67.6905 615.342 124.238 426.409 182.023C331.939 210.919 237.464 240.111 166.494 262.734C131 274.048 101.408 283.705 80.4713 290.919C69.9821 294.532 61.7012 297.514 55.6628 299.903C52.6213 301.108 50.1825 302.135 47.9496 303.247C46.8112 303.82 45.7358 304.379 44.3777 305.32C43.6982 305.807 42.9236 306.387 42.036 307.367C41.206 308.348 39.9973 309.803 39.9312 312.337C39.9312 313.081 40.0687 313.904 40.4101 314.753C42.5108 319.966 51.0658 323.138 59.5099 321.842C67.9604 320.545 73.1037 315.266 71.0031 310.053" fill="#B24D33"/>
<path d="M1562.17 875.482H1452.05C1453.79 873.435 1455.4 871.342 1456.88 869.196C1465.46 857.25 1470.46 844.131 1470.3 830.875C1470.08 817.572 1464.08 804.632 1455.3 792.797C1446.46 780.857 1433.4 770.648 1419.95 760.9C1391.62 742.147 1358.04 727.173 1322.75 714.634C1251.92 689.713 1175.17 672.718 1097.5 659.389L1051.38 647.811C1035.75 644.02 1020.51 639.656 1004.35 636.72C972.331 630.428 940.774 623.247 908.245 618.205L884.007 614.084C875.909 612.728 867.62 611.774 859.437 610.609L834.825 607.245L822.524 605.593L810.074 604.487C783.841 602.19 757.319 599.439 730.552 599.439C723.66 599.439 716.747 599.617 709.812 600.038C671.555 600.999 633.469 605.784 597.964 614.624C589.579 615.104 581.193 615.308 572.797 615.308C551.797 615.308 530.764 614.012 509.849 612.379C503.223 612.083 496.617 611.952 490.021 611.952C456.527 611.952 423.309 615.308 390.12 616.862C379.185 617.388 368.217 617.744 357.269 617.744C348.317 617.744 339.382 617.507 330.493 616.928C310.832 615.671 291.428 612.636 273.705 607.305C255.739 598.07 235.748 590.316 214.378 584.346C192.895 578.514 170.07 574.144 146.45 572.735C140.791 572.307 135.089 572.136 129.381 572.136C123.212 572.136 117.033 572.333 110.873 572.63C99.0588 573.538 87.2648 574.953 75.9925 577.5C53.3338 582.391 33.1021 591.205 16.8487 602.059L16.7527 602.118L16.5905 602.249C11.0771 606.679 5.5508 611.096 0 615.506V626.11C8.1475 619.389 16.2075 612.636 24.2174 605.889C39.1319 595.536 57.6641 587.064 78.7844 582.167C89.3238 579.613 100.467 578.132 111.702 577.106C118.728 576.684 125.813 576.375 132.902 576.375C137.219 576.375 141.541 576.493 145.854 576.763C168.695 577.81 191.099 581.759 212.352 587.196C233.548 592.778 253.551 600.169 271.617 609.075L271.792 609.161L271.967 609.213C290.254 614.598 310.165 617.625 330.185 618.797C338.42 619.291 346.667 619.501 354.914 619.501C366.75 619.501 378.577 619.073 390.332 618.455C424.41 616.691 458.344 613.064 492.391 613.064C498.151 613.064 503.914 613.163 509.677 613.4C531.427 615.216 553.461 616.684 575.528 616.684C583.135 616.684 590.752 616.513 598.348 616.118L598.529 616.105L598.7 616.065C634.13 607.456 671.982 602.914 709.983 602.17H710.026L710.111 602.157C716.043 601.808 721.985 601.65 727.927 601.65C755.089 601.65 782.272 604.922 809.253 607.653L821.596 608.917L833.748 610.734L858.018 614.394C866.084 615.664 874.224 616.71 882.236 618.172L906.229 622.595C938.469 628.038 969.493 635.654 1000.98 642.355C1016.85 645.488 1031.86 650.062 1047.21 654.051L1093.03 666.353L1093.45 666.465L1093.87 666.544C1170.47 680.939 1246.17 698.119 1314.63 723.164C1348.59 735.762 1380.98 750.164 1407.52 767.864C1420.02 777.006 1432.12 786.498 1439.99 797.266C1447.83 807.956 1453.07 819.356 1453.23 831.007C1453.3 842.617 1448.89 854.123 1441.18 864.845C1438.65 868.525 1435.62 872.059 1432.23 875.482H1250.15C1253.08 872.902 1255.82 870.23 1258.36 867.478C1268.31 856.703 1274.29 844.408 1274.27 831.954C1274.43 815.598 1263.86 799.807 1248.33 786.8C1232.77 773.689 1212.88 762.762 1191.74 753.271C1170.78 743.602 1149.02 734.663 1128.41 724.843C1108.01 714.871 1086.24 705.642 1063.27 697.842C1011.39 676.134 949.799 663.24 886.994 660.456C873.85 659.791 860.718 659.495 847.595 659.495C797.987 659.495 748.688 663.734 700.2 668.038C644.201 673.074 588.586 678.932 532.786 678.932C527.413 678.932 522.03 678.879 516.654 678.767C508.903 678.622 501.193 678.445 494.404 678.109C487.507 677.385 480.581 676.352 473.634 674.778C459.723 671.731 445.9 667.492 431.323 663.681C416.774 659.889 401.18 656.375 384.206 655.361C381.344 655.17 378.455 655.071 375.555 655.071C361.87 655.071 347.992 657.197 335.836 660.936L284.395 664.431C255.002 646.903 216.291 634.772 174.909 632.705C170.679 632.488 166.428 632.383 162.178 632.383C145.025 632.383 127.822 634.16 111.649 637.806C91.4532 642.348 73.1163 649.819 58.0812 659.146L57.823 659.304L57.6097 659.462C38.5697 673.607 19.4369 687.693 0 701.607V714.949C23.5752 698.81 46.5956 682.374 69.1743 665.728C82.8022 657.441 99.1334 650.931 117.045 646.995C131.135 643.895 146.087 642.381 161.073 642.381C165.228 642.381 169.392 642.499 173.533 642.73C211.891 644.823 248.1 656.644 275.113 673.719L278.005 675.542L282.31 675.266L339.211 671.645L340.975 671.533L342.483 671.053C352.872 667.736 364.12 665.886 375.68 665.886C377.985 665.886 380.302 665.965 382.628 666.11C396.63 666.913 410.637 669.927 424.58 673.548C438.574 677.161 452.593 681.459 467.937 684.803C475.572 686.514 483.736 687.765 492.146 688.594C500.818 689.049 508.607 689.167 516.362 689.299C521.196 689.384 526.022 689.424 530.848 689.424C588.96 689.424 646.313 683.467 702.654 677.918C754.62 672.659 806.735 667.768 858.819 667.768C867.919 667.768 877.03 667.92 886.119 668.242C947.1 669.829 1007.64 681.117 1059.42 701.555L1059.59 701.621L1059.68 701.654C1082.75 708.986 1104.52 717.661 1125.43 727.317C1146.64 736.809 1168.79 745.392 1189.73 754.956C1210.92 764.243 1230.72 774.9 1246.3 787.722C1261.83 800.445 1272.47 815.861 1272.61 831.954C1272.43 844.204 1266.38 856.243 1256.41 866.794C1253.59 869.795 1250.51 872.691 1247.2 875.482H966.485C968.17 874.561 969.856 873.633 971.542 872.705C1000.14 856.907 1027.81 840.518 1054.85 823.805L1065.01 817.546C1068.17 815.598 1072.27 813.129 1075.49 810.207C1082.07 804.461 1085.36 797.016 1084.47 790.19C1082.86 776.355 1071.85 765.356 1061.28 755.265L1061.01 755.009L1060.67 754.765C1043.77 742.851 1024.09 732.294 1002 724.178C980.023 715.904 955.784 710.21 931.055 706.478C904.32 702.463 877.062 700.712 849.878 700.712C826.589 700.712 803.364 701.996 780.555 704.227L780.053 704.273L779.787 704.326C756.455 708.769 731.779 711.119 707.262 714.357C682.821 717.549 658.23 721.815 635.986 729.272C607.779 735.328 579.454 741.14 551.143 747.018C540.262 747.992 529.273 748.466 518.275 748.466C501.668 748.466 485.045 747.38 468.78 745.306C453.952 743.187 440.058 739.027 427.06 734.136C413.928 729.259 402.043 723.454 389.757 717.628C376.701 712.106 360.578 710.401 345.208 710.256C344.054 710.243 342.899 710.237 341.749 710.237C327.597 710.237 313.557 711.263 299.668 712.422C277.351 708.545 254.08 706.34 230.718 706.34C220.159 706.34 209.573 706.788 199.059 707.742C165.136 710.737 132.452 718.879 103.884 730.589C75.33 742.371 50.3626 757.128 28.7472 773.36C18.4703 780.982 8.93057 788.94 0 797.141V813.893C12.2986 801.795 25.5926 790.124 39.995 779.034C60.8187 763.263 84.1016 748.644 110.96 736.993C137.582 725.185 168.137 716.713 200.488 713.074C213.199 711.612 226.114 710.921 239.078 710.921C259.098 710.921 279.222 712.567 298.826 715.515L299.392 715.601L299.875 715.548C314.929 713.962 330.014 712.468 345.179 712.376C345.421 712.376 345.658 712.369 345.9 712.369C360.707 712.369 375.951 713.87 388.391 718.899C400.614 724.388 412.845 730.325 426.056 735.163C439.216 740.041 453.302 744.207 468.421 746.3C485.498 748.598 502.968 749.749 520.45 749.749C530.852 749.749 541.262 749.341 551.589 748.525L551.689 748.519L551.793 748.499C580.425 743.003 609.017 737.447 637.747 732.129L637.896 732.103L638.131 732.03C660.204 725.257 684.357 721.637 708.735 719.03C732.973 716.384 757.746 714.726 782.272 710.75C800.345 709.466 818.492 708.821 836.586 708.821C842.848 708.821 849.1 708.901 855.341 709.052C879.675 709.756 903.946 711.665 927.246 715.627C950.621 719.445 972.854 725.362 993.359 732.985C1013.75 740.541 1031.82 750.302 1047.45 761.354C1057.37 770.727 1066.42 780.85 1067.28 790.737C1067.85 795.686 1065.66 800.215 1061.26 804.118C1057.18 807.679 1048.98 812.096 1042.58 816.17C1015.4 832.665 988.099 849.048 960.105 864.938C953.843 868.479 947.537 872 941.19 875.482H831.401C842.869 862.239 851.756 848.14 857.08 833.494C863.545 814.551 864.185 794.818 855.661 776.098C845.355 767.778 829.384 763.546 813.424 761.485C803.844 760.248 794.104 759.741 784.353 759.741C777.717 759.741 771.07 759.978 764.488 760.373L763.933 760.406L763.261 760.603C728.429 770.727 692.455 779.238 655.712 785.78C619.045 792.408 581.343 796.924 543.475 797.576C539.378 797.648 535.278 797.681 531.177 797.681C497.513 797.681 463.845 795.206 432.197 788.393C396.547 781.107 363.875 769.088 334.948 754.238L331.594 752.521L327.539 753.08C288.874 758.431 250.584 765.599 214.512 776.526C196.65 782.14 179.072 788.578 164.145 797.457C156.697 801.86 149.784 806.817 144.645 812.636C139.524 818.421 136.281 825.142 136.44 831.954C136.519 838.773 140.128 845.369 145.458 850.99C150.821 856.637 157.885 861.383 165.449 865.583C172.146 869.301 179.322 872.553 186.778 875.482H0V587.196V574.873V562.5V299.009H1562.17V375.823C1555.22 371.393 1548.5 366.871 1542.19 362.145C1525.28 349.823 1511.43 335.777 1506.74 320.565C1504.91 313.338 1505.59 306.045 1508.41 299.009H1494.32L1493.14 302.115C1492.62 304.307 1492.59 306.552 1492.34 308.763C1491.43 313.213 1493.13 317.61 1493.71 322.007C1499.58 339.416 1515.28 354.266 1533.1 366.877C1542.27 373.506 1552.15 379.68 1562.17 385.669V487.943L1526.29 456.132L1525.94 455.822L1525.27 455.625C1478.72 442.164 1432 428.743 1389.02 411.577C1346.55 394.457 1306.65 372.768 1286.46 343.984C1284.01 340.397 1281.43 336.823 1279.99 333.137L1277.37 327.654L1276.41 321.987C1274.87 314.444 1276.84 306.775 1279.71 299.37C1279.76 299.252 1279.82 299.127 1279.87 299.009H1270.79C1268.04 306.67 1266.32 314.615 1268.05 322.5L1269.24 328.668L1272.14 334.592C1273.83 338.627 1276.57 342.293 1279.2 345.999C1289.9 360.815 1305.89 373.986 1324.38 385.274C1342.9 396.602 1363.83 406.219 1385.63 414.815C1429.06 431.968 1475.81 445.284 1522.24 458.56L1562.17 493.67V565.797C1538.24 549.599 1516.23 532.268 1493.61 515.292L1493.22 514.996L1492.69 514.812C1402.98 482.934 1306.13 460.199 1211.39 435.622C1163.96 423.346 1117.02 410.458 1071.42 395.997C1059.95 392.489 1048.73 388.579 1037.42 384.807C1031.53 382.944 1026.64 380.937 1021.51 379.002C1018.89 378.087 1016.96 376.632 1014.64 375.48C1012.43 374.249 1010.04 373.137 1008.31 371.603C1000.09 366.199 994.767 359.354 990.233 352.462C986.755 345.301 983.757 337.916 983.768 330.333C982.893 319.67 985.784 308.915 991.929 299.009H977.249C971.68 309.191 969.227 319.979 970.219 330.682C970.4 339.041 973.761 347.243 977.868 355.207C983.063 362.948 989.262 370.623 998.842 376.836C1000.9 378.554 1003.65 379.871 1006.26 381.286C1008.95 382.615 1011.3 384.248 1014.29 385.294C1020.14 387.499 1026.09 389.79 1031.7 391.514C1043.12 395.214 1054.38 399.051 1066.04 402.52C1112.31 416.797 1159.77 429.434 1207.51 441.407C1302.73 465.32 1399.4 487.226 1488.91 518.182C1512.94 536.066 1536.3 554.338 1562.17 571.353V623.003C1549.57 615.842 1537.96 607.969 1527.24 599.742L1527.15 599.682L1527.1 599.643C1505.72 585.346 1481.33 572.097 1452.08 563.921C1451.44 563.704 1450.79 563.48 1450.16 563.257C1448.6 562.059 1447.1 560.861 1445.65 559.65L1444.52 558.702L1442.7 558.392L1428.82 556.062C1347.22 529.181 1260.92 507.907 1172.59 491.129C1124.19 481.881 1075.23 473.844 1026.1 466.334C1001.53 462.576 976.897 458.962 952.264 455.441L933.807 452.768L916.098 449.444C910.337 448.108 904.821 446.37 899.167 444.863C893.502 443.342 888.541 440.993 883.196 439.11C841.845 422.312 814.363 393.897 807.365 363.771C802.201 341.654 808.57 319.163 823.783 299.009H813.286C799 319.512 793.154 342.372 798.606 364.547C806.223 396.115 835.231 425.761 878.801 443.25C884.423 445.225 889.661 447.647 895.614 449.234C901.556 450.807 907.371 452.604 913.43 453.986L932.058 457.402L950.546 460.022C975.211 463.458 999.824 466.979 1024.38 470.652C1073.49 477.984 1122.39 485.837 1170.71 494.894C1251.36 510.02 1330.54 528.588 1405.67 552.179L1362.82 544.978L1282.26 533.17L1281.88 533.11L1281.31 533.09C1257.64 532.031 1234.09 530.392 1211.08 527.449C1187.66 524.428 1164.63 521.479 1142.11 516.911C1096.84 508.355 1053.07 496.638 1009.64 484.527C922.893 460.14 837.247 432.633 743.962 415.849C720.577 411.906 696.882 408.431 672.675 406.403C655.051 405.041 637.245 404.1 619.376 404.1C612.719 404.1 606.051 404.231 599.394 404.521C590.133 404.962 580.863 405.581 571.656 406.43C630.236 389.546 685.371 368.056 734.392 342.089C758.78 328.753 781.462 314.345 802.329 299.009H795.245C774.74 313.068 752.667 326.245 729.239 338.357C671.63 367.845 606.051 391.12 536.578 408.082C531.982 409.181 527.369 410.254 522.743 411.314C554.923 401.407 585.685 389.717 614.34 376.198C646.324 361.006 675.556 343.616 701.405 324.527C712.639 316.524 722.806 307.96 731.981 299.009H711.423C704.264 305.485 696.519 311.725 688.134 317.656C662.988 336.132 634.621 352.91 603.597 367.568C541.796 397.149 469.458 418.021 393.596 430.494C317.804 443.04 238.912 448.049 160.16 448.154C129.351 445.067 98.3291 443.895 67.3788 443.895C52.188 443.895 37.0153 444.178 21.8959 444.652C14.5859 444.889 7.28869 445.179 0 445.501V452.347V460.443V470.955C20.6168 467.124 41.7286 464.504 63.1487 463.471C71.8542 463.082 80.5885 462.852 89.3239 462.852C103.818 462.852 118.299 463.477 132.593 464.998C155.593 466.953 178.222 470.856 200.176 475.931C211.27 478.465 221.762 481.23 232.961 484.264C244.766 487.305 257.081 489.437 269.68 490.491C276.897 491.129 284.144 491.432 291.374 491.432C309.407 491.432 327.322 489.563 344.35 486.443C368.245 482.013 390.682 475.2 411.232 466.762C421.442 462.655 431.482 457.613 440.466 453.104C450.001 449.049 458.886 444.461 469.141 440.993C488.707 433.153 510.261 427.539 532.173 422.925C554.222 418.409 577.321 416.178 600.482 415.026C606.904 414.743 613.348 414.618 619.792 414.618C636.658 414.618 653.568 415.493 670.371 416.777C693.628 418.699 716.587 422.043 739.353 425.86C830.355 442.066 915.49 469.5 1003.14 493.42C1047.02 505.373 1091.44 517.01 1137.86 525.528C1149.4 527.759 1161.15 529.582 1172.93 531.372C1184.68 533.064 1196.66 534.335 1208.3 535.908C1232.04 538.817 1256.02 540.357 1279.89 541.305L1359.85 552.37L1437.92 564.751C1443.99 569.556 1450.46 573.893 1456.04 578.442C1462 583.24 1466.91 588.361 1470.53 593.897C1478.68 610.286 1489.86 626.024 1503.46 640.9C1517.01 655.855 1533.41 669.862 1552.63 682.262C1555.74 684.283 1558.92 686.264 1562.17 688.199V727.521C1548.67 721.861 1535.98 715.502 1524.32 708.433C1492.64 689.417 1469.1 665.636 1452.52 640.143L1452.25 639.728L1451.95 639.439C1441.74 629.375 1428.49 620.159 1412.41 613.38C1396.41 606.495 1378.52 602.026 1361.18 597.991L1360.88 597.918L1360.74 597.892L1288.59 585.735L1215.85 575.111L1215.64 575.078L1215.4 575.058C1190 573.13 1164.86 569.707 1140.09 565.402L1139.68 565.33L1139.32 565.31C1091.18 562.704 1044.52 553.127 1000.17 540.963C955.678 528.779 913.014 514.055 869.658 500.147C826.333 486.271 782.208 472.752 734.979 464.392C706.718 459.278 677.156 456.375 647.647 456.375C628.124 456.375 608.622 457.646 589.547 460.384L589.387 460.404L589.312 460.43L513.312 485.988C487.116 495.822 459.373 504.03 430.556 510.435C401.772 516.879 371.796 521.341 341.37 523.184C332.615 523.685 323.818 523.941 315.02 523.941C293.266 523.941 271.538 522.355 250.555 518.86C221.025 514.061 193.362 505.452 168.783 494.335L168.533 494.216L168.22 494.157C151.092 490.945 133.327 488.924 115.394 488.325C111.448 488.207 107.498 488.114 103.543 488.114C98.5126 488.114 93.4909 488.259 88.4949 488.641C79.576 489.233 70.5292 489.378 61.8067 490.787C40.4111 493.295 19.7452 497.626 0 503.201V507.413C20.0204 501.404 41.0159 496.704 62.8191 493.946C71.325 492.478 80.1425 492.274 88.865 491.616C94.5908 491.116 100.367 490.958 106.143 490.958C109.156 490.958 112.173 490.997 115.178 491.063C132.652 491.491 150.042 493.295 166.891 496.283C191.945 507.295 219.888 515.977 249.764 520.703C270.587 524.106 292.086 525.639 313.582 525.639C322.946 525.639 332.314 525.35 341.62 524.79C372.296 522.835 402.418 518.234 431.29 511.679C460.178 505.156 487.986 496.803 514.158 486.864L590.155 461.667C608.547 459.113 627.27 457.929 646.025 457.929C675.812 457.929 705.63 460.924 734.136 466.189C780.885 474.7 824.818 488.154 867.737 502.385C910.699 516.661 953.042 531.787 997.594 544.478C1041.87 557.109 1088.87 567.278 1138.09 570.451C1162.85 575.012 1188.13 578.725 1213.89 580.956L1285.82 592.218L1357.04 604.988C1374.11 609.154 1390.67 613.544 1404.93 619.909C1419.14 626.162 1430.83 634.298 1440.08 643.526C1456.8 669.888 1480.94 694.828 1513.87 714.976C1528.51 724.026 1544.77 732.017 1562.17 738.928V780.923C1555.23 777.019 1548.44 773.024 1541.77 768.956C1486.36 735.071 1438.14 696.901 1381.11 663.47L1380.57 663.154L1379.93 663.003L1332.87 651.609C1317.15 647.89 1301.58 643.842 1285.7 640.387L1189.68 621.831C1149.43 612.57 1109.2 603.171 1068.38 595.062L1037.87 588.736L1008.01 581.641L947.719 567.568C867.119 549.217 784.289 532.669 697.874 526.015C672.985 524.033 647.7 522.954 622.363 522.954C560.379 522.954 498.13 529.411 440.833 544.932C420.884 550.132 401.022 556.911 382.977 563.224C374.438 566.199 364.808 567.864 355.235 569.154C348.801 569.707 342.291 570.135 335.732 570.135C332.348 570.135 328.951 570.016 325.551 569.753C285.244 567.265 247.375 554.114 212.686 539.6L211.924 539.278L211.144 539.074C178.872 530.754 144.492 525.297 109.223 523.941C104.384 523.75 99.5133 523.658 94.625 523.658C64.0865 523.658 32.8855 527.463 5.70975 537.178C3.77982 537.863 1.87552 538.58 0 539.33V551.389C4.35487 549.329 8.93909 547.446 13.7154 545.768C37.5647 537.316 65.5235 533.821 93.5624 533.821C98.4507 533.821 103.346 533.926 108.219 534.137C140.891 535.486 173.284 540.66 203.717 548.565C221.442 556.049 239.849 563.112 259.602 568.871C279.668 574.539 301.021 579.389 323.913 580.574C327.747 580.864 331.618 580.989 335.503 580.989C343.116 580.989 350.784 580.508 358.353 579.817C369.688 578.31 380.94 576.302 391.17 572.768C410.411 566.021 428.177 559.933 447.755 554.772C502.889 539.765 562.971 533.466 623.312 533.466C647.519 533.466 671.779 534.479 695.773 536.355C780.064 542.76 861.838 559.031 942.449 576.533L1002.84 590.151L1033.18 597.109L1063.81 603.217C1104.82 611.096 1145.05 620.12 1185.53 628.808L1185.81 628.868L1186.07 628.914L1282.46 646.291C1298.34 649.536 1313.89 653.367 1329.63 656.875L1376.16 667.505C1433.28 699.876 1482.53 737.428 1538.95 770.74C1546.55 775.229 1554.27 779.652 1562.17 783.97V875.482ZM0 419.693V425.182C2.29692 425.005 4.59278 424.827 6.88436 424.642C9.73924 424.458 12.5856 424.267 15.4405 424.083C82.8897 419.561 150.029 415.908 217.899 413.479C286.09 409.339 353.397 400.96 418.046 387.012C482.527 372.986 543.796 353.153 598.348 327.792C617.391 318.867 635.474 309.25 652.555 299.009H642.825C627.014 307.737 610.489 315.944 593.281 323.573C538.658 347.94 477.639 366.43 413.949 379.673C350.31 393.041 283.59 400.966 216.803 404.659C206.002 404.942 195.191 405.291 184.381 405.692C184.728 405.646 185.069 405.607 185.41 405.561C199.534 403.724 213.557 402.118 227.88 400.479C242.154 398.768 256.351 396.833 270.467 394.674C298.713 390.369 326.531 384.978 353.847 378.738C408.419 366.186 460.961 349.829 508.794 328.97C529.623 319.913 549.463 309.915 567.932 299.009H541.975C528.152 306.539 513.666 313.627 498.735 320.289C452.651 340.805 401.606 357.103 348.334 369.727C321.688 376.053 294.399 381.338 266.808 385.966C253.01 388.269 239.107 390.356 225.126 392.225C211.148 394.009 196.879 395.839 182.844 397.853C149.73 402.428 116.633 406.851 83.4231 410.84C60.2021 412.281 37.0153 413.861 13.8989 415.493C9.26874 415.822 4.63011 416.152 0 416.487V419.693ZM0 362.829V367.516C8.38968 366.739 16.7783 365.989 25.1669 365.265C62.1982 362.217 99.1634 359.189 136.173 359.025H136.545L137.048 358.992C177.096 355.892 216.974 351.357 256.327 345.373C295.575 339.199 334.436 331.735 371.651 321.756C396.738 315.102 421.146 307.5 444.691 299.009H424.513C405.777 304.873 386.598 310.185 367.058 314.918C330.097 324.152 291.87 331.373 253.072 337.073C229.973 340.456 206.622 343.142 183.152 345.531C195.187 343.418 207.114 341.121 218.871 338.594C250.234 332.591 281.514 324.745 310.49 314.536C323.875 309.935 336.803 304.742 349.105 299.009H319.074C313.515 301.299 307.852 303.497 302.092 305.604C274.442 315.674 244.975 323.442 214.02 329.695C183.402 336.599 152.355 342.234 120.724 346.782C103.872 349.25 86.8818 351.409 69.7749 353.16C59.9567 353.91 50.1759 354.773 40.4367 355.734C35.2102 356.109 29.9805 356.445 24.738 356.734C16.5116 357.175 8.25952 357.564 0 357.866V362.829ZM0 317.36V322.191C38.6486 320.605 76.6635 315.424 113.782 309.481L173.792 299.009H119.974C116.59 299.621 113.21 300.226 109.852 300.825C73.5707 307.361 37.2436 314.253 0 317.36ZM818.695 875.482H725.922C726.732 871.816 727.095 868.13 727.042 864.477L727.031 863.812L726.924 863.575C725.794 861.206 724.993 858.823 723.34 856.506C721.035 854.255 719.403 851.76 715.765 850.062C709.428 845.988 700.883 844.77 693.521 843.907C690.502 843.73 687.547 843.651 684.656 843.651C673.198 843.651 662.636 844.901 652.288 846.244C627.206 849.542 603.106 854.459 578.259 854.459C577.641 854.459 577.022 854.459 576.414 854.452L576.019 854.446C565.639 855.091 555.19 855.492 544.717 855.492C543.442 855.492 542.158 855.486 540.879 855.472C540.725 855.472 540.571 855.472 540.42 855.472C528.801 855.472 517.278 854.854 505.652 854.13C490.708 853.866 476.051 852.116 461.824 849.43C447.592 846.751 433.823 843.216 419.708 840.031C405.611 836.812 391.132 833.778 375.726 832.145C369.546 831.52 363.211 831.184 356.836 831.184C347.35 831.184 337.782 831.921 328.551 833.514L321.459 834.739L323.475 839.149C327.576 848.153 333.56 856.921 341.612 864.878C345.25 868.61 349.363 872.138 353.793 875.482H204.026C192.607 871.276 181.805 866.537 172.512 860.909C158.977 852.984 148.638 842.696 149.067 831.954C149.229 821.199 160.09 811.378 173.821 803.862C187.536 796.16 204.231 790.256 221.287 785.063C254.61 775.348 290.536 768.805 326.947 764C356.106 779.31 390.412 790.98 426.826 798.425C457.878 804.849 490.587 807.785 523.101 807.785C530.156 807.785 537.203 807.646 544.221 807.376C583.69 806.02 622.299 800.689 659.457 793.291C696.434 785.833 731.971 776.111 766.206 765.06C775.647 764.204 785.217 763.618 794.765 763.618C800.729 763.618 806.682 763.848 812.592 764.382C820.369 765.079 828.072 766.258 835.263 768.226C842.368 770.154 849.153 773.07 854.167 776.546C859.555 795.022 857.624 814.367 849.345 832.33C842.731 847.58 832.094 862.081 818.695 875.482ZM708.009 875.482H369.854C363.899 870.69 358.594 865.635 353.83 860.449C348.309 854.255 343.649 847.804 339.97 841.11C347.884 840.044 356.014 839.53 364.253 839.53C367.579 839.53 370.921 839.609 374.272 839.78C388.583 840.327 403.027 842.268 417.438 844.526C431.84 846.823 446.342 849.305 461.002 851.345C475.627 853.379 490.566 855.005 505.54 855.15C517.158 856.137 528.998 856.67 540.766 857.236C552.451 857.684 564.166 858.059 575.934 858.125C581.471 858.553 587.008 858.724 592.534 858.724C600.343 858.724 608.131 858.382 615.834 857.954C628.999 857.19 642.025 856.032 654.731 854.972C663.564 854.334 672.462 853.656 680.773 853.656C684.368 853.656 687.846 853.781 691.164 854.09C701.939 855.229 707.572 858.507 709.439 864.911C709.396 868.472 708.916 872.013 708.009 875.482ZM1562.17 681.321C1560.92 680.518 1559.69 679.715 1558.47 678.899C1539.99 666.682 1524.32 652.853 1511.43 638.149C1498.45 623.477 1487.88 607.982 1480.34 591.961L1480.29 591.836L1480.19 591.692C1476.37 585.524 1470.94 579.692 1464.64 574.473C1462.5 572.695 1460.31 570.977 1458.11 569.299C1482.82 577.342 1504.05 589.158 1522.98 601.927C1534.87 611.122 1547.87 619.909 1562.17 627.801V681.321ZM291.596 480.611C285.073 480.611 278.572 480.334 272.137 479.755C261.027 478.834 250.122 476.918 239.857 474.266C229.164 471.35 217.649 468.302 206.273 465.755C197.167 463.675 187.932 461.779 178.572 460.127C226.472 458.409 274.376 455.829 321.975 451.261C367.766 446.969 413.212 440.887 457.681 432.765C447.884 436.3 438.954 440.782 429.593 444.791C420.025 449.576 411.448 453.867 401.61 457.836C382.34 465.735 361.332 472.067 339.37 476.115C323.776 478.952 307.627 480.611 291.596 480.611ZM114.611 452.86C106.573 452.446 98.5083 452.268 90.4408 452.268C86.0518 452.268 81.6639 452.321 77.2845 452.419C63.5072 451.866 49.7257 451.544 35.9442 451.445C42.4157 451.353 48.8796 451.307 55.3511 451.307C75.2467 451.307 95.12 451.755 114.845 452.854C114.766 452.854 114.686 452.854 114.611 452.86Z" fill="url(#paint0_linear)"/>
<path d="M1562.17 688.199C1558.92 686.264 1555.74 684.283 1552.63 682.262C1533.41 669.862 1517.01 655.855 1503.46 640.9C1489.86 626.024 1478.68 610.286 1470.53 593.897C1466.91 588.361 1462 583.24 1456.04 578.442C1450.46 573.893 1443.99 569.556 1437.92 564.751L1359.85 552.37L1279.89 541.305C1256.02 540.357 1232.04 538.817 1208.3 535.908C1196.66 534.335 1184.68 533.064 1172.93 531.372C1161.15 529.582 1149.4 527.759 1137.86 525.528C1091.44 517.01 1047.02 505.373 1003.14 493.42C915.489 469.5 830.355 442.066 739.353 425.86C716.587 422.043 693.628 418.699 670.371 416.777C653.568 415.493 636.658 414.618 619.792 414.618C613.348 414.618 606.904 414.743 600.482 415.026C577.321 416.178 554.222 418.409 532.173 422.925C510.261 427.539 488.707 433.153 469.141 440.993C458.886 444.461 450.001 449.049 440.466 453.104C431.482 457.613 421.442 462.655 411.232 466.762C390.682 475.2 368.245 482.013 344.35 486.443C327.322 489.563 309.407 491.432 291.374 491.432C284.144 491.432 276.897 491.129 269.68 490.491C257.081 489.437 244.766 487.305 232.961 484.264C221.762 481.23 211.27 478.465 200.176 475.931C178.222 470.856 155.593 466.953 132.593 464.998C118.299 463.477 103.818 462.852 89.3238 462.852C80.5885 462.852 71.8542 463.082 63.1487 463.471C41.7286 464.504 20.6168 467.124 0 470.955V460.443C7.56821 460.318 15.1364 460.252 22.7046 460.252C46.9039 460.252 71.0829 460.924 95.1829 462.418L95.6534 462.444L96.1666 462.431C123.601 461.812 151.084 461.114 178.572 460.127C187.932 461.779 197.167 463.675 206.273 465.755C217.649 468.302 229.164 471.35 239.857 474.266C250.122 476.918 261.027 478.834 272.137 479.755C278.572 480.334 285.073 480.611 291.596 480.611C307.627 480.611 323.776 478.952 339.37 476.115C361.332 472.067 382.34 465.735 401.61 457.836C411.448 453.867 420.025 449.576 429.593 444.791C438.954 440.782 447.884 436.3 457.681 432.765C485.891 427.611 513.712 421.634 540.971 414.776C551.293 412.13 561.531 409.352 571.656 406.43C580.863 405.581 590.133 404.962 599.394 404.521C606.051 404.231 612.719 404.1 619.376 404.1C637.245 404.1 655.051 405.041 672.675 406.403C696.882 408.431 720.577 411.906 743.962 415.849C837.247 432.633 922.893 460.14 1009.64 484.527C1053.07 496.638 1096.84 508.355 1142.11 516.911C1164.63 521.479 1187.66 524.428 1211.08 527.449C1234.09 530.392 1257.64 532.031 1281.31 533.09L1281.88 533.11L1282.26 533.17L1362.82 544.978L1405.67 552.179C1420.49 556.832 1435.15 561.677 1449.64 566.732L1449.73 566.758L1449.85 566.791C1452.65 567.581 1455.4 568.417 1458.11 569.299C1460.31 570.977 1462.5 572.696 1464.64 574.473C1470.94 579.692 1476.37 585.524 1480.19 591.692L1480.29 591.836L1480.34 591.961C1487.88 607.982 1498.45 623.477 1511.43 638.149C1524.32 652.853 1539.99 666.682 1558.47 678.899C1559.69 679.715 1560.92 680.518 1562.17 681.321V688.199V688.199ZM1450.16 563.257C1443.08 560.815 1435.97 558.419 1428.82 556.062L1442.7 558.392L1444.52 558.702L1445.65 559.65C1447.1 560.861 1448.6 562.059 1450.16 563.257ZM96.0503 453.328C89.7943 452.972 83.5436 452.676 77.2845 452.419C81.6639 452.32 86.0518 452.268 90.4408 452.268C98.5083 452.268 106.573 452.446 114.611 452.86C108.423 453.012 102.238 453.17 96.0503 453.328" fill="url(#paint1_linear)"/>
<path d="M1562.17 738.928C1544.77 732.017 1528.51 724.026 1513.87 714.976C1480.94 694.828 1456.8 669.888 1440.08 643.526C1430.83 634.298 1419.14 626.162 1404.93 619.909C1390.67 613.544 1374.11 609.154 1357.04 604.988L1285.82 592.218L1213.89 580.956C1188.13 578.725 1162.85 575.012 1138.09 570.451C1088.87 567.278 1041.87 557.109 997.594 544.478C953.042 531.787 910.699 516.661 867.737 502.385C824.818 488.154 780.885 474.7 734.136 466.189C705.63 460.923 675.812 457.929 646.025 457.929C627.27 457.929 608.547 459.113 590.155 461.667L514.158 486.864C487.986 496.803 460.178 505.156 431.29 511.679C402.418 518.234 372.296 522.835 341.62 524.79C332.314 525.35 322.946 525.639 313.582 525.639C292.086 525.639 270.587 524.106 249.764 520.703C219.888 515.977 191.945 507.295 166.891 496.283C150.042 493.295 132.652 491.491 115.178 491.063C112.174 490.997 109.156 490.958 106.143 490.958C100.367 490.958 94.5908 491.116 88.865 491.616C80.1425 492.274 71.325 492.478 62.8191 493.946C41.0159 496.704 20.0204 501.404 0 507.413V503.201C19.7452 497.626 40.4111 493.295 61.8067 490.787C70.5292 489.378 79.576 489.233 88.4949 488.641C93.4909 488.259 98.5126 488.114 103.543 488.114C107.498 488.114 111.448 488.207 115.394 488.325C133.327 488.924 151.092 490.945 168.22 494.157L168.533 494.216L168.783 494.335C193.362 505.452 221.025 514.061 250.555 518.86C271.538 522.355 293.266 523.941 315.02 523.941C323.818 523.941 332.615 523.684 341.37 523.184C371.796 521.341 401.772 516.879 430.556 510.435C459.373 504.03 487.116 495.822 513.312 485.988L589.312 460.43L589.387 460.403L589.547 460.384C608.622 457.645 628.124 456.375 647.647 456.375C677.156 456.375 706.718 459.278 734.979 464.392C782.208 472.752 826.333 486.271 869.658 500.147C913.014 514.055 955.678 528.779 1000.16 540.963C1044.52 553.127 1091.18 562.704 1139.32 565.31L1139.68 565.33L1140.09 565.402C1164.86 569.707 1190 573.13 1215.4 575.058L1215.64 575.078L1215.85 575.111L1288.59 585.735L1360.74 597.892L1360.88 597.918L1361.18 597.991C1378.52 602.026 1396.41 606.495 1412.41 613.38C1428.49 620.159 1441.74 629.375 1451.95 639.439L1452.25 639.728L1452.52 640.143C1469.1 665.636 1492.64 689.417 1524.32 708.433C1535.98 715.502 1548.67 721.861 1562.17 727.521V738.928" fill="url(#paint2_linear)"/>
<path d="M1562.17 783.97C1554.27 779.652 1546.55 775.229 1538.95 770.74C1482.53 737.427 1433.28 699.876 1376.16 667.505L1329.63 656.875C1313.89 653.366 1298.34 649.536 1282.46 646.291L1186.07 628.914L1185.81 628.868L1185.53 628.808C1145.05 620.12 1104.82 611.096 1063.81 603.217L1033.18 597.109L1002.84 590.151L942.449 576.533C861.838 559.031 780.064 542.759 695.773 536.355C671.779 534.479 647.519 533.465 623.312 533.465C562.971 533.465 502.889 539.765 447.755 554.772C428.177 559.932 410.411 566.021 391.17 572.768C380.94 576.302 369.688 578.31 358.353 579.817C350.784 580.508 343.116 580.989 335.503 580.989C331.618 580.989 327.747 580.864 323.913 580.574C301.021 579.389 279.668 574.538 259.602 568.871C239.849 563.112 221.442 556.049 203.717 548.565C173.284 540.66 140.891 535.486 108.219 534.137C103.346 533.926 98.4507 533.821 93.5624 533.821C65.5235 533.821 37.5647 537.316 13.7154 545.768C8.93909 547.446 4.35487 549.329 0 551.389V539.33C1.87552 538.58 3.77982 537.862 5.70975 537.178C32.8855 527.462 64.0865 523.658 94.625 523.658C99.5133 523.658 104.384 523.75 109.223 523.941C144.492 525.297 178.872 530.754 211.144 539.074L211.924 539.277L212.686 539.6C247.375 554.114 285.244 567.265 325.551 569.753C328.951 570.016 332.348 570.135 335.732 570.135C342.291 570.135 348.801 569.707 355.235 569.154C364.808 567.864 374.438 566.199 382.977 563.223C401.022 556.911 420.884 550.132 440.833 544.932C498.13 529.411 560.379 522.954 622.363 522.954C647.7 522.954 672.985 524.033 697.874 526.014C784.289 532.669 867.119 549.217 947.719 567.568L1008.01 581.64L1037.87 588.736L1068.38 595.061C1109.2 603.171 1149.43 612.57 1189.68 621.831L1285.7 640.386C1301.58 643.842 1317.15 647.89 1332.87 651.609L1379.93 663.003L1380.57 663.154L1381.11 663.47C1438.14 696.901 1486.36 735.071 1541.77 768.956C1548.44 773.024 1555.23 777.019 1562.17 780.922V783.97" fill="url(#paint3_linear)"/>
<path d="M1452.05 875.482H1432.23C1435.62 872.059 1438.65 868.525 1441.18 864.845C1448.89 854.123 1453.3 842.617 1453.23 831.007C1453.07 819.356 1447.84 807.956 1439.99 797.266C1432.12 786.498 1420.02 777.006 1407.52 767.864C1380.98 750.164 1348.59 735.762 1314.63 723.164C1246.17 698.119 1170.47 680.939 1093.87 666.544L1093.45 666.465L1093.03 666.353L1047.21 654.051C1031.86 650.062 1016.85 645.488 1000.98 642.355C969.493 635.654 938.47 628.038 906.229 622.595L882.236 618.172C874.224 616.711 866.084 615.664 858.019 614.394L833.748 610.734L821.596 608.917L809.253 607.653C782.273 604.922 755.089 601.65 727.927 601.65C721.985 601.65 716.043 601.808 710.111 602.157L710.026 602.17H709.983C671.982 602.914 634.13 607.456 598.7 616.065L598.53 616.105L598.348 616.118C590.752 616.513 583.135 616.684 575.528 616.684C553.461 616.684 531.427 615.216 509.677 613.4C503.914 613.163 498.151 613.064 492.391 613.064C458.344 613.064 424.41 616.691 390.332 618.455C378.577 619.073 366.75 619.501 354.914 619.501C346.667 619.501 338.42 619.291 330.185 618.797C310.165 617.625 290.254 614.598 271.967 609.213L271.792 609.161L271.617 609.075C253.551 600.169 233.548 592.778 212.353 587.196C191.099 581.759 168.695 577.81 145.854 576.763C141.541 576.493 137.219 576.375 132.902 576.375C125.813 576.375 118.728 576.684 111.702 577.106C100.467 578.132 89.3238 579.613 78.7845 582.167C57.6641 587.064 39.1319 595.536 24.2174 605.889C16.2075 612.636 8.14751 619.389 0 626.11V615.506C5.5508 611.096 11.0771 606.679 16.5905 602.25L16.7527 602.118L16.8487 602.059C33.1021 591.205 53.3338 582.391 75.9925 577.5C87.2648 574.953 99.0588 573.538 110.873 572.63C117.033 572.334 123.212 572.136 129.381 572.136C135.089 572.136 140.791 572.307 146.45 572.735C170.07 574.144 192.895 578.514 214.379 584.346C235.749 590.316 255.739 598.07 273.705 607.305C291.428 612.636 310.832 615.671 330.493 616.928C339.382 617.507 348.317 617.744 357.269 617.744C368.217 617.744 379.185 617.388 390.12 616.862C423.309 615.309 456.527 611.952 490.021 611.952C496.617 611.952 503.223 612.083 509.849 612.379C530.765 614.012 551.797 615.308 572.797 615.308C581.193 615.308 589.579 615.105 597.964 614.624C633.469 605.784 671.555 600.999 709.812 600.038C716.747 599.617 723.66 599.439 730.552 599.439C757.319 599.439 783.841 602.19 810.075 604.487L822.525 605.593L834.825 607.245L859.437 610.609C867.62 611.774 875.91 612.728 884.007 614.084L908.246 618.205C940.774 623.247 972.331 630.428 1004.35 636.72C1020.51 639.656 1035.76 644.02 1051.38 647.811L1097.5 659.389C1175.17 672.718 1251.92 689.713 1322.75 714.634C1358.04 727.173 1391.62 742.147 1419.95 760.9C1433.4 770.648 1446.46 780.857 1455.3 792.797C1464.08 804.632 1470.08 817.572 1470.3 830.875C1470.46 844.131 1465.46 857.25 1456.88 869.196C1455.4 871.342 1453.79 873.435 1452.05 875.482" fill="url(#paint4_linear)"/>
<path d="M1250.15 875.482H1247.2C1250.51 872.691 1253.59 869.795 1256.41 866.794C1266.38 856.243 1272.44 844.204 1272.61 831.954C1272.47 815.861 1261.83 800.446 1246.3 787.722C1230.72 774.9 1210.92 764.244 1189.73 754.956C1168.79 745.392 1146.64 736.809 1125.43 727.318C1104.52 717.661 1082.75 708.986 1059.68 701.654L1059.59 701.621L1059.42 701.555C1007.64 681.117 947.1 669.829 886.119 668.243C877.03 667.92 867.919 667.769 858.819 667.769C806.735 667.769 754.62 672.659 702.654 677.918C646.314 683.467 588.96 689.424 530.848 689.424C526.022 689.424 521.196 689.384 516.362 689.299C508.607 689.167 500.818 689.049 492.146 688.595C483.736 687.765 475.572 686.515 467.937 684.803C452.594 681.459 438.574 677.161 424.58 673.548C410.637 669.927 396.63 666.913 382.628 666.11C380.302 665.965 377.985 665.886 375.68 665.886C364.12 665.886 352.872 667.736 342.483 671.053L340.975 671.534L339.211 671.645L282.31 675.266L278.005 675.542L275.113 673.719C248.1 656.645 211.891 644.823 173.533 642.73C169.392 642.5 165.228 642.381 161.074 642.381C146.088 642.381 131.135 643.895 117.045 646.995C99.1335 650.931 82.8022 657.441 69.1743 665.728C46.5956 682.374 23.5752 698.81 0 714.95V701.608C19.4369 687.693 38.5697 673.607 57.6097 659.462L57.8231 659.304L58.0812 659.146C73.1163 649.819 91.4533 642.348 111.649 637.807C127.822 634.16 145.025 632.383 162.178 632.383C166.428 632.383 170.679 632.488 174.909 632.705C216.291 634.772 255.002 646.903 284.395 664.431L335.836 660.936C347.992 657.198 361.87 655.072 375.556 655.072C378.455 655.072 381.344 655.17 384.207 655.361C401.18 656.375 416.774 659.89 431.323 663.681C445.9 667.492 459.723 671.731 473.634 674.779C480.581 676.352 487.507 677.385 494.404 678.109C501.193 678.445 508.903 678.623 516.655 678.767C522.03 678.879 527.414 678.932 532.786 678.932C588.587 678.932 644.201 673.074 700.2 668.038C748.688 663.734 797.987 659.495 847.596 659.495C860.718 659.495 873.851 659.791 886.994 660.456C949.799 663.24 1011.39 676.135 1063.27 697.843C1086.24 705.642 1108.01 714.871 1128.41 724.843C1149.02 734.663 1170.78 743.602 1191.74 753.271C1212.88 762.763 1232.77 773.689 1248.34 786.801C1263.86 799.807 1274.43 815.598 1274.27 831.954C1274.29 844.408 1268.31 856.703 1258.36 867.478C1255.82 870.23 1253.08 872.902 1250.15 875.482" fill="url(#paint5_linear)"/>
<path d="M966.485 875.482H941.19C947.538 872 953.843 868.479 960.105 864.938C988.099 849.048 1015.4 832.665 1042.58 816.17C1048.98 812.096 1057.18 807.679 1061.26 804.118C1065.66 800.215 1067.85 795.686 1067.28 790.737C1066.42 780.85 1057.37 770.727 1047.45 761.354C1031.82 750.302 1013.75 740.541 993.359 732.985C972.854 725.363 950.621 719.445 927.246 715.628C903.946 711.665 879.676 709.756 855.341 709.052C849.1 708.901 842.848 708.822 836.586 708.822C818.492 708.822 800.345 709.467 782.273 710.75C757.746 714.726 732.973 716.385 708.735 719.031C684.357 721.637 660.204 725.257 638.131 732.03L637.896 732.103L637.747 732.129C609.017 737.447 580.425 743.003 551.793 748.499L551.689 748.519L551.589 748.525C541.262 749.341 530.852 749.749 520.45 749.749C502.968 749.749 485.498 748.598 468.421 746.3C453.302 744.207 439.216 740.041 426.056 735.163C412.845 730.326 400.614 724.388 388.391 718.899C375.951 713.87 360.707 712.369 345.9 712.369C345.658 712.369 345.421 712.376 345.179 712.376C330.014 712.468 314.929 713.962 299.876 715.549L299.392 715.601L298.826 715.516C279.223 712.567 259.099 710.921 239.078 710.921C226.114 710.921 213.199 711.612 200.488 713.074C168.137 716.714 137.582 725.185 110.961 736.993C84.1016 748.644 60.8188 763.263 39.995 779.034C25.5926 790.125 12.2986 801.795 0 813.893V797.141C8.93057 788.94 18.4703 780.982 28.7472 773.36C50.3626 757.128 75.33 742.371 103.884 730.589C132.452 718.879 165.136 710.737 199.059 707.742C209.573 706.788 220.159 706.34 230.718 706.34C254.08 706.34 277.351 708.545 299.668 712.422C313.557 711.264 327.598 710.237 341.749 710.237C342.899 710.237 344.054 710.243 345.208 710.256C360.578 710.401 376.701 712.106 389.757 717.629C402.043 723.454 413.928 729.259 427.06 734.137C440.058 739.027 453.952 743.187 468.78 745.307C485.045 747.38 501.668 748.466 518.275 748.466C529.273 748.466 540.262 747.992 551.143 747.018C579.454 741.14 607.779 735.328 635.987 729.272C658.23 721.815 682.821 717.549 707.263 714.357C731.779 711.119 756.455 708.769 779.787 704.326L780.054 704.273L780.555 704.227C803.364 701.996 826.589 700.712 849.879 700.712C877.062 700.712 904.32 702.463 931.055 706.478C955.784 710.21 980.023 715.904 1002 724.178C1024.09 732.294 1043.77 742.851 1060.67 754.765L1061.01 755.009L1061.28 755.265C1071.85 765.356 1082.86 776.355 1084.47 790.19C1085.36 797.016 1082.07 804.461 1075.5 810.207C1072.27 813.129 1068.17 815.598 1065.01 817.546L1054.85 823.806C1027.81 840.518 1000.14 856.907 971.542 872.705C969.856 873.633 968.171 874.561 966.485 875.482" fill="url(#paint6_linear)"/>
<path d="M831.4 875.482H818.694C832.093 862.081 842.73 847.581 849.344 832.33C857.623 814.367 859.554 795.022 854.166 776.546C849.152 773.071 842.367 770.155 835.262 768.226C828.071 766.258 820.369 765.08 812.591 764.382C806.681 763.849 800.728 763.618 794.764 763.618C785.216 763.618 775.646 764.204 766.205 765.06C731.97 776.111 696.433 785.833 659.456 793.291C622.298 800.689 583.689 806.021 544.22 807.377C537.202 807.647 530.156 807.785 523.1 807.785C490.586 807.785 457.877 804.849 426.825 798.425C390.411 790.981 356.105 779.31 326.946 764C290.535 768.805 254.609 775.348 221.286 785.063C204.23 790.257 187.535 796.161 173.82 803.862C160.089 811.379 149.229 821.199 149.066 831.955C148.638 842.697 158.976 852.985 172.511 860.91C181.805 866.537 192.606 871.276 204.025 875.482H186.777C179.321 872.553 172.145 869.302 165.448 865.583C157.884 861.383 150.82 856.638 145.457 850.99C140.127 845.369 136.518 838.774 136.439 831.955C136.28 825.142 139.523 818.422 144.644 812.636C149.783 806.817 156.696 801.861 164.144 797.457C179.071 788.578 196.649 782.141 214.511 776.526C250.583 765.6 288.873 758.432 327.538 753.08L331.593 752.521L334.947 754.239C363.874 769.088 396.546 781.107 432.197 788.394C463.845 795.206 497.512 797.681 531.176 797.681C535.277 797.681 539.377 797.648 543.474 797.576C581.342 796.924 619.044 792.409 655.712 785.781C692.454 779.238 728.428 770.727 763.26 760.604L763.933 760.406L764.487 760.374C771.07 759.979 777.716 759.742 784.352 759.742C794.103 759.742 803.843 760.248 813.423 761.486C829.383 763.546 845.354 767.778 855.66 776.098C864.184 794.818 863.544 814.551 857.079 833.495C851.755 848.14 842.868 862.239 831.4 875.482" fill="url(#paint7_linear)"/>
<path d="M725.923 875.482H708.01C708.917 872.014 709.397 868.473 709.44 864.912C707.573 858.507 701.94 855.229 691.165 854.09C687.847 853.781 684.369 853.656 680.774 853.656C672.463 853.656 663.565 854.334 654.732 854.972C642.026 856.032 629 857.191 615.835 857.954C608.132 858.382 600.344 858.724 592.535 858.724C587.009 858.724 581.472 858.553 575.935 858.125C564.167 858.059 552.452 857.684 540.767 857.237C528.999 856.671 517.159 856.137 505.541 855.15C490.567 855.005 475.628 853.38 461.003 851.346C446.343 849.305 431.841 846.824 417.439 844.526C403.028 842.269 388.584 840.327 374.273 839.781C370.922 839.61 367.58 839.531 364.254 839.531C356.015 839.531 347.884 840.044 339.971 841.11C343.65 847.804 348.31 854.255 353.831 860.449C358.595 865.636 363.9 870.691 369.855 875.482H353.794C349.364 872.139 345.25 868.611 341.612 864.879C333.561 856.921 327.577 848.153 323.476 839.149L321.46 834.739L328.552 833.514C337.782 831.922 347.351 831.184 356.836 831.184C363.212 831.184 369.547 831.52 375.727 832.145C391.133 833.778 405.612 836.812 419.709 840.031C433.824 843.217 447.593 846.751 461.825 849.43C476.052 852.116 490.708 853.867 505.653 854.13C517.279 854.854 528.802 855.473 540.421 855.473C540.572 855.473 540.725 855.473 540.88 855.473C542.159 855.486 543.443 855.492 544.718 855.492C555.191 855.492 565.64 855.091 576.02 854.446L576.415 854.452C577.023 854.459 577.642 854.459 578.26 854.459C603.107 854.459 627.207 849.542 652.289 846.244C662.637 844.902 673.199 843.651 684.657 843.651C687.548 843.651 690.503 843.73 693.522 843.908C700.884 844.77 709.429 845.988 715.766 850.062C719.404 851.76 721.036 854.255 723.341 856.506C724.994 858.823 725.795 861.206 726.925 863.575L727.032 863.812L727.043 864.477C727.096 868.13 726.733 871.816 725.923 875.482V875.482Z" fill="url(#paint8_linear)"/>
<path d="M1562.17 627.802C1547.87 619.91 1534.87 611.123 1522.98 601.927C1504.05 589.158 1482.82 577.343 1458.11 569.299C1455.4 568.417 1452.65 567.581 1449.85 566.792L1449.73 566.759L1449.64 566.732C1435.15 561.677 1420.49 556.833 1405.67 552.179C1330.54 528.589 1251.36 510.02 1170.71 494.894C1122.39 485.837 1073.49 477.985 1024.38 470.652C999.824 466.979 975.212 463.458 950.546 460.022L932.058 457.402L913.431 453.986C907.371 452.604 901.557 450.807 895.614 449.234C889.661 447.648 884.423 445.225 878.801 443.251C835.231 425.762 806.223 396.116 798.606 364.548C793.155 342.372 799.001 319.512 813.286 299.009H823.784C808.57 319.164 802.201 341.655 807.365 363.771C814.363 393.898 841.845 422.313 883.196 439.111C888.541 440.993 893.502 443.343 899.167 444.863C904.821 446.371 910.337 448.108 916.098 449.445L933.808 452.769L952.264 455.441C976.897 458.962 1001.53 462.576 1026.1 466.334C1075.23 473.845 1124.19 481.882 1172.59 491.129C1260.92 507.907 1347.22 529.181 1428.82 556.063C1435.97 558.419 1443.08 560.815 1450.16 563.257C1450.79 563.481 1451.44 563.705 1452.08 563.922C1481.33 572.097 1505.72 585.347 1527.1 599.643L1527.16 599.683L1527.24 599.742C1537.96 607.97 1549.57 615.842 1562.17 623.003V627.802" fill="url(#paint9_linear)"/>
<path d="M1562.17 571.353C1536.3 554.338 1512.94 536.065 1488.91 518.182C1399.4 487.226 1302.73 465.32 1207.51 441.407C1159.76 429.434 1112.31 416.796 1066.04 402.52C1054.38 399.051 1043.12 395.213 1031.7 391.514C1026.09 389.79 1020.14 387.499 1014.29 385.294C1011.3 384.247 1008.94 382.615 1006.26 381.286C1003.65 379.87 1000.9 378.554 998.842 376.836C989.261 370.622 983.063 362.948 977.867 355.207C973.76 347.242 970.4 339.041 970.218 330.682C969.226 319.979 971.68 309.191 977.249 299.008H991.928C985.783 308.915 982.892 319.67 983.767 330.333C983.756 337.915 986.754 345.301 990.232 352.462C994.766 359.354 1000.09 366.199 1008.3 371.603C1010.04 373.137 1012.43 374.249 1014.64 375.48C1016.96 376.632 1018.89 378.086 1021.51 379.001C1026.64 380.937 1031.53 382.944 1037.42 384.807C1048.73 388.579 1059.95 392.488 1071.42 395.997C1117.02 410.458 1163.96 423.346 1211.39 435.621C1306.13 460.199 1402.98 482.934 1492.68 514.812L1493.22 514.996L1493.61 515.292C1516.23 532.267 1538.24 549.598 1562.17 565.797V571.353" fill="url(#paint10_linear)"/>
<path d="M1562.17 493.669L1522.24 458.56C1475.81 445.284 1429.06 431.968 1385.63 414.815C1363.84 406.219 1342.9 396.602 1324.38 385.274C1305.89 373.986 1289.9 360.815 1279.2 345.998C1276.58 342.292 1273.84 338.626 1272.14 334.591L1269.25 328.667L1268.05 322.5C1266.33 314.614 1268.04 306.67 1270.8 299.008H1279.87C1279.82 299.127 1279.77 299.252 1279.71 299.37C1276.84 306.775 1274.87 314.443 1276.42 321.986L1277.38 327.654L1279.99 333.137C1281.43 336.823 1284.01 340.397 1286.47 343.984C1306.65 372.768 1346.55 394.456 1389.02 411.576C1432.01 428.743 1478.72 442.164 1525.27 455.624L1525.94 455.822L1526.29 456.131L1562.17 487.943V493.669" fill="url(#paint11_linear)"/>
<path d="M1562.17 385.669C1552.15 379.679 1542.27 373.505 1533.1 366.877C1515.28 354.265 1499.58 339.416 1493.71 322.006C1493.13 317.609 1491.43 313.212 1492.34 308.763C1492.59 306.551 1492.62 304.307 1493.14 302.115L1494.32 299.008H1508.41C1505.59 306.044 1504.91 313.337 1506.74 320.565C1511.43 335.776 1525.28 349.822 1542.19 362.144C1548.5 366.87 1555.22 371.392 1562.17 375.822V385.669" fill="url(#paint12_linear)"/>
<path d="M95.6535 462.444L95.1829 462.418C71.0829 460.923 46.9039 460.252 22.7046 460.252C15.1364 460.252 7.56821 460.318 0 460.443V452.347C7.46793 452.077 14.9359 451.86 22.4038 451.689C26.9176 451.583 31.4303 451.504 35.9442 451.445C49.7257 451.544 63.5072 451.866 77.2845 452.419C83.5437 452.676 89.7943 452.972 96.0503 453.328C102.238 453.17 108.423 453.012 114.611 452.86C114.686 452.854 114.766 452.854 114.845 452.854C129.48 453.663 144.029 454.828 158.452 456.428L158.969 456.487L159.585 456.494C165.411 456.553 171.237 456.586 177.072 456.586C251.176 456.579 325.602 451.629 397.701 440.012C440.716 433.14 482.824 423.596 522.743 411.314C527.369 410.254 531.982 409.181 536.578 408.082C606.051 391.119 671.63 367.845 729.24 338.357C752.668 326.245 774.741 313.068 795.246 299.008H802.329C781.462 314.345 758.781 328.753 734.393 342.089C685.371 368.055 630.236 389.546 571.656 406.43C561.531 409.352 551.293 412.13 540.971 414.776C513.712 421.634 485.891 427.611 457.681 432.765C413.212 440.887 367.767 446.969 321.975 451.261C274.376 455.829 226.472 458.409 178.572 460.127C151.084 461.114 123.601 461.812 96.1666 462.431L95.6535 462.444V462.444Z" fill="url(#paint13_linear)"/>
<path d="M177.072 456.586C171.237 456.586 165.411 456.553 159.585 456.494L158.969 456.488L158.452 456.428C144.029 454.829 129.48 453.664 114.845 452.854C95.12 451.755 75.2468 451.307 55.3511 451.307C48.8797 451.307 42.4157 451.353 35.9442 451.446C31.4303 451.505 26.9176 451.584 22.4038 451.689C14.9358 451.86 7.46792 452.078 0 452.347V445.502C7.28869 445.179 14.5859 444.89 21.8959 444.653C37.0153 444.179 52.188 443.896 67.3788 443.896C98.3291 443.896 129.351 445.067 160.16 448.154C238.912 448.049 317.804 443.04 393.596 430.495C469.458 418.021 541.796 397.149 603.597 367.569C634.621 352.91 662.988 336.132 688.134 317.656C696.519 311.726 704.265 305.486 711.423 299.009H731.981C722.806 307.961 712.639 316.524 701.405 324.528C675.556 343.616 646.324 361.006 614.34 376.198C585.685 389.718 554.923 401.408 522.743 411.314C482.824 423.596 440.716 433.141 397.701 440.012C325.601 451.63 251.176 456.58 177.072 456.586" fill="url(#paint14_linear)"/>
<path d="M6.88436 424.642C9.49387 424.432 12.0938 424.221 14.6947 424.004C71.6665 419.291 128.222 412.669 184.381 405.692C195.191 405.291 206.002 404.942 216.803 404.659C283.59 400.966 350.31 393.041 413.949 379.673C477.639 366.429 538.658 347.94 593.281 323.573C610.489 315.944 627.014 307.736 642.825 299.008H652.555C635.475 309.25 617.391 318.867 598.348 327.792C543.796 353.153 482.527 372.985 418.046 387.012C353.397 400.96 286.09 409.339 217.899 413.479C150.03 415.908 82.8897 419.561 15.4405 424.083C12.5856 424.267 9.73924 424.458 6.88436 424.642V424.642ZM0 419.693V416.487C4.63011 416.151 9.26875 415.822 13.8989 415.493C37.0153 413.861 60.2022 412.281 83.4231 410.84C60.1478 413.63 36.8233 416.204 13.3942 418.455C8.93056 418.876 4.46795 419.291 0 419.693Z" fill="url(#paint15_linear)"/>
<path d="M0 425.183V419.693C4.46795 419.292 8.93056 418.877 13.3942 418.456C36.8233 416.205 60.1478 413.631 83.4231 410.84C116.633 406.851 149.73 402.428 182.844 397.853C196.879 395.839 211.148 394.009 225.126 392.226C239.107 390.356 253.01 388.27 266.808 385.966C294.399 381.339 321.688 376.053 348.334 369.728C401.606 357.103 452.651 340.806 498.735 320.289C513.666 313.628 528.152 306.539 541.975 299.009H567.933C549.463 309.916 529.623 319.914 508.794 328.971C460.961 349.83 408.419 366.187 353.847 378.739C326.531 384.979 298.713 390.369 270.467 394.674C256.351 396.833 242.154 398.768 227.881 400.48C213.557 402.119 199.534 403.725 185.41 405.561C185.069 405.607 184.728 405.647 184.381 405.693C128.222 412.67 71.6665 419.292 14.6947 424.004C12.0938 424.222 9.49387 424.432 6.88436 424.643C4.59278 424.827 2.29692 425.005 0 425.183" fill="url(#paint16_linear)"/>
<path d="M0 367.515V362.829C8.47289 362.724 16.9532 362.519 25.4176 362.217C58.3181 361.157 91.1236 358.57 123.434 354.463C143.449 351.909 163.448 348.98 183.152 345.531C206.623 343.142 229.973 340.456 253.072 337.073C291.87 331.373 330.097 324.152 367.058 314.917C386.598 310.185 405.777 304.873 424.513 299.008H444.691C421.146 307.499 396.738 315.101 371.651 321.756C334.436 331.735 295.575 339.199 256.327 345.373C216.974 351.356 177.096 355.891 137.048 358.991L136.545 359.024H136.173C99.1634 359.189 62.1982 362.217 25.1669 365.264C16.7783 365.988 8.38968 366.739 0 367.515V367.515ZM40.4367 355.733C50.1759 354.772 59.9568 353.91 69.7749 353.16C60.0314 354.16 50.2506 355.022 40.4367 355.733Z" fill="url(#paint17_linear)"/>
<path d="M0 362.828V357.865C8.25953 357.563 16.5116 357.174 24.738 356.733C29.9805 356.444 35.2102 356.108 40.4367 355.733C50.2506 355.022 60.0314 354.16 69.775 353.159C86.8818 351.408 103.872 349.249 120.724 346.781C152.355 342.233 183.402 336.598 214.02 329.694C244.975 323.441 274.442 315.673 302.093 305.603C307.852 303.496 313.515 301.298 319.075 299.008H349.105C336.803 304.741 323.875 309.934 310.49 314.535C281.514 324.744 250.234 332.59 218.871 338.593C207.114 341.12 195.187 343.417 183.152 345.53C163.448 348.979 143.449 351.909 123.434 354.462C91.1236 358.57 58.3181 361.156 25.4176 362.216C16.9532 362.519 8.4729 362.723 0 362.828" fill="url(#paint18_linear)"/>
<path d="M0 322.191V317.359C37.2436 314.253 73.5707 307.361 109.852 300.825C113.21 300.226 116.59 299.62 119.974 299.008H173.792L113.782 309.48C76.6635 315.424 38.6486 320.604 0 322.191" fill="url(#paint19_linear)"/>
<path d="M790.333 31L731 131C731 131 829 47.6151 829 44.7363C829 41.8574 790.333 31 790.333 31Z" fill="#5F352C"/>
<path d="M847.287 20.0422C856.431 35.9314 849.687 53.5812 832.234 59.4645C814.781 65.3423 793.219 57.2282 784.082 41.339C774.937 25.4497 781.674 7.79435 799.135 1.91653C816.581 -3.96675 838.149 4.14745 847.287 20.0422Z" fill="#82473E"/>
<path d="M500.096 389.864C494.96 389.864 490.304 388.76 486.128 386.552C482 384.296 478.736 381.2 476.336 377.264C473.984 373.28 472.808 368.792 472.808 363.8C472.808 358.808 473.984 354.344 476.336 350.408C478.736 346.424 482 343.328 486.128 341.12C490.304 338.864 494.984 337.736 500.168 337.736C504.536 337.736 508.472 338.504 511.976 340.04C515.528 341.576 518.504 343.784 520.904 346.664L513.416 353.576C510.008 349.64 505.784 347.672 500.744 347.672C497.624 347.672 494.84 348.368 492.392 349.76C489.944 351.104 488.024 353 486.632 355.448C485.288 357.896 484.616 360.68 484.616 363.8C484.616 366.92 485.288 369.704 486.632 372.152C488.024 374.6 489.944 376.52 492.392 377.912C494.84 379.256 497.624 379.928 500.744 379.928C505.784 379.928 510.008 377.936 513.416 373.952L520.904 380.864C518.504 383.792 515.528 386.024 511.976 387.56C508.424 389.096 504.464 389.864 500.096 389.864ZM545.085 389.576C541.005 389.576 537.333 388.736 534.069 387.056C530.853 385.328 528.333 382.952 526.509 379.928C524.685 376.904 523.773 373.472 523.773 369.632C523.773 365.792 524.685 362.36 526.509 359.336C528.333 356.312 530.853 353.96 534.069 352.28C537.333 350.552 541.005 349.688 545.085 349.688C549.165 349.688 552.813 350.552 556.029 352.28C559.245 353.96 561.765 356.312 563.589 359.336C565.413 362.36 566.325 365.792 566.325 369.632C566.325 373.472 565.413 376.904 563.589 379.928C561.765 382.952 559.245 385.328 556.029 387.056C552.813 388.736 549.165 389.576 545.085 389.576ZM545.085 380.36C547.965 380.36 550.317 379.4 552.141 377.48C554.013 375.512 554.949 372.896 554.949 369.632C554.949 366.368 554.013 363.776 552.141 361.856C550.317 359.888 547.965 358.904 545.085 358.904C542.205 358.904 539.829 359.888 537.957 361.856C536.085 363.776 535.149 366.368 535.149 369.632C535.149 372.896 536.085 375.512 537.957 377.48C539.829 379.4 542.205 380.36 545.085 380.36ZM597.376 349.688C602.176 349.688 606.04 351.128 608.968 354.008C611.944 356.888 613.432 361.16 613.432 366.824V389H602.2V368.552C602.2 365.48 601.528 363.2 600.184 361.712C598.84 360.176 596.896 359.408 594.352 359.408C591.52 359.408 589.264 360.296 587.584 362.072C585.904 363.8 585.064 366.392 585.064 369.848V389H573.832V350.264H584.56V354.8C586.048 353.168 587.896 351.92 590.104 351.056C592.312 350.144 594.736 349.688 597.376 349.688ZM648.598 387.128C647.494 387.944 646.126 388.568 644.494 389C642.91 389.384 641.23 389.576 639.454 389.576C634.846 389.576 631.27 388.4 628.726 386.048C626.23 383.696 624.982 380.24 624.982 375.68V359.768H619.006V351.128H624.982V341.696H636.214V351.128H645.862V359.768H636.214V375.536C636.214 377.168 636.622 378.44 637.438 379.352C638.302 380.216 639.502 380.648 641.038 380.648C642.814 380.648 644.326 380.168 645.574 379.208L648.598 387.128ZM670.527 349.688C676.527 349.688 681.135 351.128 684.351 354.008C687.567 356.84 689.175 361.136 689.175 366.896V389H678.663V384.176C676.551 387.776 672.615 389.576 666.855 389.576C663.879 389.576 661.287 389.072 659.079 388.064C656.919 387.056 655.263 385.664 654.111 383.888C652.959 382.112 652.383 380.096 652.383 377.84C652.383 374.24 653.727 371.408 656.415 369.344C659.151 367.28 663.351 366.248 669.015 366.248H677.943C677.943 363.8 677.199 361.928 675.711 360.632C674.223 359.288 671.991 358.616 669.015 358.616C666.951 358.616 664.911 358.952 662.895 359.624C660.927 360.248 659.247 361.112 657.855 362.216L653.823 354.368C655.935 352.88 658.455 351.728 661.383 350.912C664.359 350.096 667.407 349.688 670.527 349.688ZM669.663 382.016C671.583 382.016 673.287 381.584 674.775 380.72C676.263 379.808 677.319 378.488 677.943 376.76V372.8H670.239C665.631 372.8 663.327 374.312 663.327 377.336C663.327 378.776 663.879 379.928 664.983 380.792C666.135 381.608 667.695 382.016 669.663 382.016ZM718.482 389.576C714.354 389.576 710.634 388.736 707.322 387.056C704.058 385.328 701.49 382.952 699.618 379.928C697.794 376.904 696.882 373.472 696.882 369.632C696.882 365.792 697.794 362.36 699.618 359.336C701.49 356.312 704.058 353.96 707.322 352.28C710.634 350.552 714.354 349.688 718.482 349.688C722.562 349.688 726.114 350.552 729.138 352.28C732.21 353.96 734.442 356.384 735.834 359.552L727.122 364.232C725.106 360.68 722.202 358.904 718.41 358.904C715.482 358.904 713.058 359.864 711.138 361.784C709.218 363.704 708.258 366.32 708.258 369.632C708.258 372.944 709.218 375.56 711.138 377.48C713.058 379.4 715.482 380.36 718.41 380.36C722.25 380.36 725.154 378.584 727.122 375.032L735.834 379.784C734.442 382.856 732.21 385.256 729.138 386.984C726.114 388.712 722.562 389.576 718.482 389.576ZM767.848 387.128C766.744 387.944 765.376 388.568 763.744 389C762.16 389.384 760.48 389.576 758.704 389.576C754.096 389.576 750.52 388.4 747.976 386.048C745.48 383.696 744.232 380.24 744.232 375.68V359.768H738.256V351.128H744.232V341.696H755.464V351.128H765.112V359.768H755.464V375.536C755.464 377.168 755.872 378.44 756.688 379.352C757.552 380.216 758.752 380.648 760.288 380.648C762.064 380.648 763.576 380.168 764.824 379.208L767.848 387.128ZM810.901 369.776C810.901 369.92 810.829 370.928 810.685 372.8H781.381C781.909 375.2 783.157 377.096 785.125 378.488C787.093 379.88 789.541 380.576 792.469 380.576C794.485 380.576 796.261 380.288 797.797 379.712C799.381 379.088 800.845 378.128 802.189 376.832L808.165 383.312C804.517 387.488 799.189 389.576 792.181 389.576C787.813 389.576 783.949 388.736 780.589 387.056C777.229 385.328 774.637 382.952 772.813 379.928C770.989 376.904 770.077 373.472 770.077 369.632C770.077 365.84 770.965 362.432 772.741 359.408C774.565 356.336 777.037 353.96 780.157 352.28C783.325 350.552 786.853 349.688 790.741 349.688C794.533 349.688 797.965 350.504 801.037 352.136C804.109 353.768 806.509 356.12 808.237 359.192C810.013 362.216 810.901 365.744 810.901 369.776ZM790.813 358.184C788.269 358.184 786.133 358.904 784.405 360.344C782.677 361.784 781.621 363.752 781.237 366.248H800.317C799.933 363.8 798.877 361.856 797.149 360.416C795.421 358.928 793.309 358.184 790.813 358.184ZM849.924 380.36V389H815.364V382.232L835.092 358.904H815.868V350.264H849.276V357.032L829.548 380.36H849.924ZM854.838 364.232H875.214V373.232H854.838V364.232ZM907.595 349.688C912.395 349.688 916.259 351.128 919.187 354.008C922.163 356.888 923.651 361.16 923.651 366.824V389H912.419V368.552C912.419 365.48 911.747 363.2 910.403 361.712C909.059 360.176 907.115 359.408 904.571 359.408C901.739 359.408 899.483 360.296 897.803 362.072C896.123 363.8 895.283 366.392 895.283 369.848V389H884.051V350.264H894.779V354.8C896.267 353.168 898.115 351.92 900.323 351.056C902.531 350.144 904.955 349.688 907.595 349.688ZM952.686 389.576C948.606 389.576 944.934 388.736 941.67 387.056C938.454 385.328 935.934 382.952 934.11 379.928C932.286 376.904 931.374 373.472 931.374 369.632C931.374 365.792 932.286 362.36 934.11 359.336C935.934 356.312 938.454 353.96 941.67 352.28C944.934 350.552 948.606 349.688 952.686 349.688C956.766 349.688 960.414 350.552 963.63 352.28C966.846 353.96 969.366 356.312 971.19 359.336C973.014 362.36 973.926 365.792 973.926 369.632C973.926 373.472 973.014 376.904 971.19 379.928C969.366 382.952 966.846 385.328 963.63 387.056C960.414 388.736 956.766 389.576 952.686 389.576ZM952.686 380.36C955.566 380.36 957.918 379.4 959.742 377.48C961.614 375.512 962.55 372.896 962.55 369.632C962.55 366.368 961.614 363.776 959.742 361.856C957.918 359.888 955.566 358.904 952.686 358.904C949.806 358.904 947.43 359.888 945.558 361.856C943.686 363.776 942.75 366.368 942.75 369.632C942.75 372.896 943.686 375.512 945.558 377.48C947.43 379.4 949.806 380.36 952.686 380.36ZM1020.46 350.264V389H1009.8V384.392C1008.31 386.072 1006.54 387.368 1004.47 388.28C1002.41 389.144 1000.18 389.576 997.778 389.576C992.69 389.576 988.658 388.112 985.682 385.184C982.706 382.256 981.218 377.912 981.218 372.152V350.264H992.45V370.496C992.45 376.736 995.066 379.856 1000.3 379.856C1002.99 379.856 1005.15 378.992 1006.78 377.264C1008.41 375.488 1009.23 372.872 1009.23 369.416V350.264H1020.46ZM1043.9 389.576C1040.68 389.576 1037.54 389.192 1034.46 388.424C1031.39 387.608 1028.94 386.6 1027.12 385.4L1030.86 377.336C1032.59 378.44 1034.68 379.352 1037.13 380.072C1039.58 380.744 1041.98 381.08 1044.33 381.08C1049.08 381.08 1051.46 379.904 1051.46 377.552C1051.46 376.448 1050.81 375.656 1049.51 375.176C1048.22 374.696 1046.22 374.288 1043.54 373.952C1040.37 373.472 1037.75 372.92 1035.69 372.296C1033.62 371.672 1031.82 370.568 1030.29 368.984C1028.8 367.4 1028.06 365.144 1028.06 362.216C1028.06 359.768 1028.75 357.608 1030.14 355.736C1031.58 353.816 1033.65 352.328 1036.34 351.272C1039.07 350.216 1042.29 349.688 1045.98 349.688C1048.72 349.688 1051.43 350 1054.12 350.624C1056.86 351.2 1059.11 352.016 1060.89 353.072L1057.14 361.064C1053.74 359.144 1050.02 358.184 1045.98 358.184C1043.58 358.184 1041.78 358.52 1040.58 359.192C1039.38 359.864 1038.78 360.728 1038.78 361.784C1038.78 362.984 1039.43 363.824 1040.73 364.304C1042.02 364.784 1044.09 365.24 1046.92 365.672C1050.09 366.2 1052.68 366.776 1054.7 367.4C1056.71 367.976 1058.46 369.056 1059.95 370.64C1061.44 372.224 1062.18 374.432 1062.18 377.264C1062.18 379.664 1061.46 381.8 1060.02 383.672C1058.58 385.544 1056.47 387.008 1053.69 388.064C1050.95 389.072 1047.69 389.576 1043.9 389.576Z" fill="#613A1F"/>
</g>
<defs>
<linearGradient id="paint0_linear" x1="807.589" y1="185.025" x2="787.263" y2="995.454" gradientUnits="userSpaceOnUse">
<stop stop-color="#F8B066"/>
<stop offset="1" stop-color="#C7682E"/>
</linearGradient>
<linearGradient id="paint1_linear" x1="807.589" y1="185.025" x2="787.263" y2="995.454" gradientUnits="userSpaceOnUse">
<stop stop-color="#E29B59"/>
<stop offset="1" stop-color="#B45C27"/>
</linearGradient>
<linearGradient id="paint2_linear" x1="807.589" y1="185.025" x2="787.263" y2="995.454" gradientUnits="userSpaceOnUse">
<stop stop-color="#E29B59"/>
<stop offset="1" stop-color="#B45C27"/>
</linearGradient>
<linearGradient id="paint3_linear" x1="807.589" y1="185.025" x2="787.263" y2="995.454" gradientUnits="userSpaceOnUse">
<stop stop-color="#E29B59"/>
<stop offset="1" stop-color="#B45C27"/>
</linearGradient>
<linearGradient id="paint4_linear" x1="807.589" y1="185.025" x2="787.263" y2="995.454" gradientUnits="userSpaceOnUse">
<stop stop-color="#E29B59"/>
<stop offset="1" stop-color="#B45C27"/>
</linearGradient>
<linearGradient id="paint5_linear" x1="807.589" y1="185.026" x2="787.263" y2="995.454" gradientUnits="userSpaceOnUse">
<stop stop-color="#E29B59"/>
<stop offset="1" stop-color="#B45C27"/>
</linearGradient>
<linearGradient id="paint6_linear" x1="807.589" y1="185.025" x2="787.263" y2="995.454" gradientUnits="userSpaceOnUse">
<stop stop-color="#E29B59"/>
<stop offset="1" stop-color="#B45C27"/>
</linearGradient>
<linearGradient id="paint7_linear" x1="807.588" y1="185.027" x2="787.262" y2="995.454" gradientUnits="userSpaceOnUse">
<stop stop-color="#E29B59"/>
<stop offset="1" stop-color="#B45C27"/>
</linearGradient>
<linearGradient id="paint8_linear" x1="807.59" y1="185.027" x2="787.264" y2="995.454" gradientUnits="userSpaceOnUse">
<stop stop-color="#E29B59"/>
<stop offset="1" stop-color="#B45C27"/>
</linearGradient>
<linearGradient id="paint9_linear" x1="807.589" y1="185.025" x2="787.263" y2="995.454" gradientUnits="userSpaceOnUse">
<stop stop-color="#E29B59"/>
<stop offset="1" stop-color="#B45C27"/>
</linearGradient>
<linearGradient id="paint10_linear" x1="807.588" y1="185.025" x2="787.262" y2="995.454" gradientUnits="userSpaceOnUse">
<stop stop-color="#E29B59"/>
<stop offset="1" stop-color="#B45C27"/>
</linearGradient>
<linearGradient id="paint11_linear" x1="807.592" y1="185.025" x2="787.266" y2="995.454" gradientUnits="userSpaceOnUse">
<stop stop-color="#E29B59"/>
<stop offset="1" stop-color="#B45C27"/>
</linearGradient>
<linearGradient id="paint12_linear" x1="807.588" y1="185.024" x2="787.262" y2="995.454" gradientUnits="userSpaceOnUse">
<stop stop-color="#E29B59"/>
<stop offset="1" stop-color="#B45C27"/>
</linearGradient>
<linearGradient id="paint13_linear" x1="807.589" y1="185.025" x2="787.263" y2="995.454" gradientUnits="userSpaceOnUse">
<stop stop-color="#E29B59"/>
<stop offset="1" stop-color="#B45C27"/>
</linearGradient>
<linearGradient id="paint14_linear" x1="807.589" y1="185.025" x2="787.263" y2="995.455" gradientUnits="userSpaceOnUse">
<stop stop-color="#E29B59"/>
<stop offset="1" stop-color="#B45C27"/>
</linearGradient>
<linearGradient id="paint15_linear" x1="807.589" y1="185.025" x2="787.263" y2="995.454" gradientUnits="userSpaceOnUse">
<stop stop-color="#E29B59"/>
<stop offset="1" stop-color="#B45C27"/>
</linearGradient>
<linearGradient id="paint16_linear" x1="807.589" y1="185.025" x2="787.263" y2="995.455" gradientUnits="userSpaceOnUse">
<stop stop-color="#E29B59"/>
<stop offset="1" stop-color="#B45C27"/>
</linearGradient>
<linearGradient id="paint17_linear" x1="807.589" y1="185.025" x2="787.263" y2="995.453" gradientUnits="userSpaceOnUse">
<stop stop-color="#E29B59"/>
<stop offset="1" stop-color="#B45C27"/>
</linearGradient>
<linearGradient id="paint18_linear" x1="807.589" y1="185.024" x2="787.263" y2="995.453" gradientUnits="userSpaceOnUse">
<stop stop-color="#E29B59"/>
<stop offset="1" stop-color="#B45C27"/>
</linearGradient>
<linearGradient id="paint19_linear" x1="807.588" y1="185.025" x2="787.263" y2="995.452" gradientUnits="userSpaceOnUse">
<stop stop-color="#E29B59"/>
<stop offset="1" stop-color="#B45C27"/>
</linearGradient>
<clipPath id="clip0">
<rect width="1583" height="906" fill="white"/>
</clipPath>
</defs>
</svg>
