<svg id="eIbwBa6PJ0q1" xmlns="http://www.w3.org/2000/svg" xmlns:xlink="http://www.w3.org/1999/xlink" viewBox="0 0 900 750" shape-rendering="geometricPrecision" text-rendering="geometricPrecision"><style><![CDATA[#eIbwBa6PJ0q2_to {animation: eIbwBa6PJ0q2_to__to 4000ms linear infinite normal forwards}@keyframes eIbwBa6PJ0q2_to__to { 0% {transform: translate(379.579622px,339.030000px);animation-timing-function: cubic-bezier(0,0,0.580000,1)} 25% {transform: translate(379.580000px,373.460000px);animation-timing-function: cubic-bezier(0.420000,0,0.580000,1)} 75% {transform: translate(379.579622px,304.600000px);animation-timing-function: cubic-bezier(0.420000,0,1,1)} 100% {transform: translate(379.579622px,339.030000px)}} #eIbwBa6PJ0q49_to {animation: eIbwBa6PJ0q49_to__to 4000ms linear infinite normal forwards}@keyframes eIbwBa6PJ0q49_to__to { 0% {transform: translate(651.042969px,488.760000px);animation-timing-function: cubic-bezier(0.420000,0,0.580000,1)} 50% {transform: translate(651.042969px,410.508266px);animation-timing-function: cubic-bezier(0.420000,0,0.580000,1)} 100% {transform: translate(651.042969px,488.756000px)}} #eIbwBa6PJ0q89_to {animation: eIbwBa6PJ0q89_to__to 4000ms linear infinite normal forwards}@keyframes eIbwBa6PJ0q89_to__to { 0% {transform: translate(86.863281px,461.279289px);animation-timing-function: cubic-bezier(0.420000,0,0.580000,1)} 50% {transform: translate(86.863281px,566.904297px);animation-timing-function: cubic-bezier(0.420000,0,0.580000,1)} 100% {transform: translate(86.863281px,461.279289px)}}]]></style><g id="eIbwBa6PJ0q2_to" transform="translate(379.579622,339.030000)"><g id="eIbwBa6PJ0q2" transform="translate(-349.431641,-304.601563)"><path id="eIbwBa6PJ0q3" d="M402.935000,0.066878L402.928000,0.000193L402.747000,0.057352L402.556000,0.047825L402.563000,0.114394L206.635000,60.831600L1.636720,49.213500L67.536400,597.530000L272.347000,609.139000L272.354000,609.205000L272.537000,609.151000L272.728000,609.162000L272.719000,609.096000L468.647000,548.376000L697.225000,561.405000L631.314000,13.012500L402.935000,0.066878" fill="rgb(255,255,255)" stroke="none" stroke-width="1"/><path id="eIbwBa6PJ0q4" d="M209.398000,82.283200L270.128000,587.568000L269.946000,587.632000L269.755000,587.613000L185.213000,582.838000L88.614900,577.361000L27.885300,72.073700L209.028000,82.328400L209.219000,82.347400L209.398000,82.283200Z" fill="rgb(172,228,238)" stroke="none" stroke-width="1"/><path id="eIbwBa6PJ0q5" d="M405.528000,21.585200L466.258000,526.870000L466.067000,526.851000L465.885000,526.915000L270.127000,587.568000L269.946000,587.632000L269.755000,587.613000L209.028000,82.328400L209.219000,82.347500L209.398000,82.283200L405.158000,21.630400L405.340000,21.563700L405.528000,21.585200" fill="rgb(143,207,212)" stroke="none" stroke-width="1"/><path id="eIbwBa6PJ0q6" d="M610.315000,33.117600L671.045000,538.403000L670.863000,538.467000L670.673000,538.448000L466.258000,526.870000L466.067000,526.851000L465.886000,526.915000L405.159000,21.630400L405.340000,21.563700L405.528000,21.585200L609.945000,33.160400L610.136000,33.181800L610.315000,33.117600" fill="rgb(82,104,48)" stroke="none" stroke-width="1"/><path id="eIbwBa6PJ0q7" d="M671.045000,538.403000L670.864000,538.467000L670.673000,538.448000L609.946000,33.160400L610.137000,33.181800L610.316000,33.117600L671.045000,538.403000" fill="rgb(172,228,238)" stroke="none" stroke-width="1"/><path id="eIbwBa6PJ0q8" d="M509.089000,27.450000L502.918000,179.763000C502.216000,197.098000,515.083000,212.140000,533.580000,215.602000C564.125000,221.319000,586.883000,244.170000,590.292000,272.545000L596.430000,323.614000C598.444000,340.374000,590.169000,357.015000,574.899000,366.915000C529.833000,396.128000,512.156000,449.465000,532.320000,495.371000L548.196000,531.510000L465.886000,526.915000L269.946000,587.632000L88.614900,577.361000L27.885300,72.073600L209.028000,82.328300L405.159000,21.630300L509.089000,27.450000" fill="rgb(99,127,55)" stroke="none" stroke-width="1"/><path id="eIbwBa6PJ0q9" d="M375.931000,347.645000L356.624000,350.013000L363.733000,327.647000L370.839000,305.277000L383.040000,325.278000L395.241000,345.278000L375.931000,347.645000" fill="rgb(112,143,61)" stroke="none" stroke-width="1"/><path id="eIbwBa6PJ0q10" d="M60.175300,340.736000L147.893000,329.979000C173.240000,326.869000,196.033000,343.065000,198.810000,366.152000C200.603000,381.077000,215.343000,391.546000,231.729000,389.538000L278.776000,383.765000C315.891000,379.214000,349.272000,402.931000,353.335000,436.733000C357.398000,470.538000,330.605000,501.631000,293.488000,506.182000L83.159400,531.976000L60.175300,340.736000Z" fill="rgb(82,104,48)" stroke="none" stroke-width="1"/><path id="eIbwBa6PJ0q11" d="M269.946000,587.632000L260.614000,510.215000L260.797000,510.191000L270.125000,587.578000L269.946000,587.632000L269.946000,587.632000ZM245.855000,387.805000L209.028000,82.328400L209.219000,82.268900L246.043000,387.782000L245.855000,387.805000" fill="rgb(95,126,49)" stroke="none" stroke-width="1"/><path id="eIbwBa6PJ0q12" d="M260.613000,510.215000L245.854000,387.805000L246.043000,387.781000L260.797000,510.191000L260.613000,510.215000" fill="rgb(82,107,41)" stroke="none" stroke-width="1"/><path id="eIbwBa6PJ0q13" d="M306.419000,213.054000L298.915000,226.820000C294.699000,234.555000,295.987000,243.737000,302.170000,250.023000L311.994000,260.011000C316.931000,265.034000,324.299000,267.480000,331.738000,266.569000L342.862000,265.205000C355.468000,263.659000,364.567000,253.099000,363.187000,241.619000L360.339000,217.929000C358.959000,206.449000,347.625000,198.395000,335.019000,199.941000L324.422000,201.240000C316.694000,202.190000,309.917000,206.634000,306.419000,213.054000" fill="rgb(82,104,48)" stroke="none" stroke-width="1"/><path id="eIbwBa6PJ0q14" d="M589.046000,130.397000C582.363000,131.216000,576.743000,133.602000,573.938000,136.459000C570.532000,134.363000,564.514000,133.404000,557.832000,134.225000C547.887000,135.444000,540.275000,140.126000,540.821000,144.680000L572.035000,140.852000L576.824000,140.266000L608.037000,136.438000C607.491000,131.882000,598.988000,129.176000,589.046000,130.397000Z" fill="rgb(214,195,214)" stroke="none" stroke-width="1"/><path id="eIbwBa6PJ0q15" d="M154.545000,79.244800L162.514000,145.544000C164.247000,159.974000,155.351000,173.967000,140.653000,179.929000L135.598000,181.978000C118.418000,188.947000,109.573000,206.608000,115.207000,222.697000C121.466000,240.565000,109.849000,259.938000,89.799600,265.065000L52.235500,274.668000L27.885300,72.073600L154.545000,79.244800" fill="rgb(82,104,48)" stroke="none" stroke-width="1"/><path id="eIbwBa6PJ0q16" d="M295.079000,55.737300L405.529000,21.585000L468.974000,24.109400L467.816000,59.537000C467.078000,82.107000,448.256000,101.139000,423.701000,104.151000C418.076000,104.841000,412.600000,106.404000,407.508000,108.769000L390.424000,116.711000C367.661000,127.292000,340.251000,120.699000,326.844000,101.420000L295.079000,55.737300" fill="rgb(82,104,48)" stroke="none" stroke-width="1"/><path id="eIbwBa6PJ0q17" d="M272.729000,609.163000L272.719000,609.094000L453.325000,553.126000L453.332000,553.128000L272.729000,609.163000" fill="rgb(197,200,212)" stroke="none" stroke-width="1"/><path id="eIbwBa6PJ0q18" d="M272.718000,609.094000L270.125000,587.578000L424.084000,539.871000C425.408000,541.860000,427.344000,543.461000,429.739000,544.353000L453.324000,553.126000L272.718000,609.096000" fill="rgb(216,214,212)" stroke="none" stroke-width="1"/><path id="eIbwBa6PJ0q19" d="M455.744000,442.524000L415.283000,105.867000C415.389000,105.836000,415.497000,105.805000,415.603000,105.776000L455.845000,441.568000L455.744000,442.524000" fill="rgb(88,109,53)" stroke="none" stroke-width="1"/><path id="eIbwBa6PJ0q20" d="M209.219000,82.268600L206.635000,60.831200L402.935000,0.066545L405.514000,21.582400L405.340000,21.563300L405.159000,21.630000L209.219000,82.268600" fill="rgb(216,214,212)" stroke="none" stroke-width="1"/><path id="eIbwBa6PJ0q21" d="M405.347000,21.639900L405.159000,21.630500L405.340000,21.564400L405.514000,21.583300L405.514000,21.590400L405.347000,21.639900Z" fill="rgb(75,91,47)" stroke="none" stroke-width="1"/><path id="eIbwBa6PJ0q22" d="M209.220000,82.268600L405.159000,21.630000L405.348000,21.639500L405.166000,21.696600L405.159000,21.630000L209.220000,82.268600" fill="rgb(88,109,53)" stroke="none" stroke-width="1"/><path id="eIbwBa6PJ0q23" d="M270.126000,587.577000L260.799000,510.191000L293.489000,506.182000C330.606000,501.630000,357.399000,470.538000,353.336000,436.733000C349.609000,405.726000,321.215000,383.206000,287.895000,383.206000C284.892000,383.206000,281.847000,383.389000,278.777000,383.765000L246.044000,387.781000L209.220000,82.268700L405.159000,21.630100L405.166000,21.696700L295.079000,55.737200L326.844000,101.420000C335.941000,114.501000,351.479000,121.741000,367.642000,121.741000C375.302000,121.741000,383.103000,120.114000,390.424000,116.711000L407.508000,108.769000C410.014000,107.603000,412.617000,106.635000,415.283000,105.866000L455.744000,442.524000L454.303000,455.919000C452.955000,455.924000,451.608000,456.138000,450.308000,456.562000L446.509000,457.804000C440.969000,459.612000,436.585000,463.938000,434.666000,469.491000L432.152000,476.750000C430.011000,482.943000,431.319000,489.527000,435.075000,494.335000L422.766000,529.323000C421.478000,532.985000,422.088000,536.870000,424.085000,539.870000L270.126000,587.577000L270.126000,587.577000ZM370.839000,305.277000L363.732000,327.647000L356.624000,350.012000L375.931000,347.645000L395.241000,345.278000L383.040000,325.277000L370.839000,305.277000L370.839000,305.277000ZM338.117000,199.751000C337.097000,199.751000,336.063000,199.813000,335.020000,199.941000L324.423000,201.240000C316.695000,202.190000,309.918000,206.634000,306.420000,213.053000L298.916000,226.820000C294.700000,234.555000,295.988000,243.737000,302.171000,250.023000L311.996000,260.011000C316.252000,264.341000,322.315000,266.756000,328.672000,266.756000C329.690000,266.756000,330.714000,266.695000,331.739000,266.568000L342.863000,265.205000C355.470000,263.659000,364.568000,253.099000,363.188000,241.619000L360.341000,217.929000C359.076000,207.398000,349.433000,199.751000,338.117000,199.751000Z" transform="matrix(1 0 0 1 -0.19200000000006 -0.06569999999999)" fill="rgb(85,108,49)" stroke="none" stroke-width="1"/><path id="eIbwBa6PJ0q24" d="M356.624000,350.013000L363.733000,327.647000L370.839000,305.277000L383.040000,325.278000L395.241000,345.278000L375.931000,347.645000L356.624000,350.013000" fill="rgb(92,118,52)" stroke="none" stroke-width="1"/><path id="eIbwBa6PJ0q25" d="M260.798000,510.191000L246.044000,387.781000L278.777000,383.765000C281.846000,383.389000,284.892000,383.206000,287.895000,383.206000C321.215000,383.206000,349.609000,405.726000,353.335000,436.733000C357.398000,470.538000,330.606000,501.631000,293.489000,506.182000L260.798000,510.191000" fill="rgb(75,93,42)" stroke="none" stroke-width="1"/><path id="eIbwBa6PJ0q26" d="M328.671000,266.757000C322.314000,266.757000,316.251000,264.342000,311.994000,260.011000L302.170000,250.023000C295.987000,243.737000,294.699000,234.555000,298.915000,226.820000L306.419000,213.054000C309.917000,206.634000,316.694000,202.190000,324.422000,201.240000L335.019000,199.941000C336.062000,199.813000,337.096000,199.751000,338.116000,199.751000C349.431000,199.751000,359.074000,207.398000,360.339000,217.929000L363.187000,241.619000C364.567000,253.099000,355.468000,263.659000,342.862000,265.205000L331.738000,266.569000C330.713000,266.695000,329.688000,266.757000,328.671000,266.757000Z" fill="rgb(75,91,47)" stroke="none" stroke-width="1"/><path id="eIbwBa6PJ0q27" d="M367.642000,121.741000C351.479000,121.741000,335.941000,114.501000,326.844000,101.420000L295.079000,55.737600L405.166000,21.697000L405.348000,21.640000L405.515000,21.590000L415.603000,105.776000C415.497000,105.805000,415.389000,105.836000,415.283000,105.867000C412.617000,106.635000,410.014000,107.604000,407.508000,108.770000L390.424000,116.712000C383.103000,120.114000,375.302000,121.741000,367.642000,121.741000" fill="rgb(75,91,47)" stroke="none" stroke-width="1"/><path id="eIbwBa6PJ0q28" d="M141.727000,495.939000L122.417000,498.307000L129.526000,475.939000L136.635000,453.569000L148.836000,473.569000L161.034000,493.569000L141.727000,495.939000" fill="rgb(63,77,37)" stroke="none" stroke-width="1"/><path id="eIbwBa6PJ0q29" d="M468.595000,231.008000L449.285000,233.375000L456.394000,211.010000L463.502000,188.640000L475.703000,208.640000L487.902000,228.640000L468.595000,231.008000" fill="rgb(112,143,61)" stroke="none" stroke-width="1"/><path id="eIbwBa6PJ0q30" d="M546.300000,348.249000L526.993000,350.617000L534.101000,328.247000L541.207000,305.881000L553.409000,325.879000L565.610000,345.879000L546.300000,348.249000" fill="rgb(112,143,61)" stroke="none" stroke-width="1"/><path id="eIbwBa6PJ0q31" d="M164.738000,246.352000L145.431000,248.719000L152.539000,226.352000L159.648000,203.981000L171.849000,223.982000L184.048000,243.982000L164.738000,246.352000" fill="rgb(112,143,61)" stroke="none" stroke-width="1"/><path id="eIbwBa6PJ0q32" d="M76.022700,193.310000L56.715300,195.680000L63.821600,173.310000L70.932600,150.942000L83.131300,170.942000L95.332400,190.943000L76.022700,193.310000" fill="rgb(63,77,37)" stroke="none" stroke-width="1"/><path id="eIbwBa6PJ0q33" d="M217.603000,343.770000C217.664000,344.286000,217.782000,344.783000,217.935000,345.264000C218.488000,345.283000,219.047000,345.269000,219.614000,345.197000C224.975000,344.541000,228.850000,340.048000,228.263000,335.164000C228.200000,334.645000,228.082000,334.148000,227.926000,333.667000C227.378000,333.648000,226.817000,333.662000,226.247000,333.734000C220.886000,334.390000,217.014000,338.885000,217.603000,343.770000Z" fill="rgb(63,77,37)" stroke="none" stroke-width="1"/><path id="eIbwBa6PJ0q34" d="M233.452000,341.825000C233.514000,342.342000,233.634000,342.839000,233.789000,343.320000C234.338000,343.339000,234.898000,343.324000,235.466000,343.255000C240.829000,342.596000,244.702000,338.104000,244.113000,333.217000C244.052000,332.701000,243.932000,332.206000,243.781000,331.723000C243.227000,331.704000,242.669000,331.718000,242.101000,331.787000C236.738000,332.446000,232.866000,336.938000,233.452000,341.825000Z" fill="rgb(63,77,37)" stroke="none" stroke-width="1"/><path id="eIbwBa6PJ0q35" d="M249.306000,339.881000C249.368000,340.398000,249.488000,340.893000,249.638000,341.376000C250.192000,341.395000,250.750000,341.380000,251.318000,341.311000C256.681000,340.652000,260.553000,336.160000,259.967000,331.273000C259.906000,330.757000,259.786000,330.260000,259.632000,329.779000C259.081000,329.760000,258.523000,329.774000,257.953000,329.843000C252.590000,330.502000,248.720000,334.994000,249.306000,339.881000Z" fill="rgb(63,77,37)" stroke="none" stroke-width="1"/><path id="eIbwBa6PJ0q36" d="M265.157000,337.935000C265.219000,338.454000,265.339000,338.951000,265.492000,339.432000C266.043000,339.451000,266.601000,339.437000,267.171000,339.365000C272.535000,338.708000,276.405000,334.216000,275.818000,329.329000C275.757000,328.813000,275.637000,328.316000,275.484000,327.835000C274.932000,327.816000,274.372000,327.830000,273.806000,327.899000C268.443000,328.558000,264.571000,333.051000,265.157000,337.935000" fill="rgb(63,77,37)" stroke="none" stroke-width="1"/><path id="eIbwBa6PJ0q37" d="M460.440000,266.081000C460.504000,266.597000,460.621000,267.094000,460.775000,267.575000C461.326000,267.594000,461.884000,267.580000,462.454000,267.511000C467.817000,266.851000,471.690000,262.359000,471.103000,257.472000C471.039000,256.956000,470.919000,256.461000,470.766000,255.978000C470.217000,255.959000,469.655000,255.973000,469.089000,256.042000C463.726000,256.701000,459.854000,261.194000,460.440000,266.081000Z" fill="rgb(63,77,37)" stroke="none" stroke-width="1"/><path id="eIbwBa6PJ0q38" d="M476.295000,264.137000C476.356000,264.653000,476.474000,265.148000,476.627000,265.631000C477.181000,265.650000,477.739000,265.636000,478.307000,265.567000C483.670000,264.908000,487.542000,260.416000,486.953000,255.529000C486.892000,255.012000,486.774000,254.515000,486.619000,254.035000C486.070000,254.016000,485.509000,254.030000,484.942000,254.099000C479.578000,254.758000,475.706000,259.250000,476.295000,264.137000Z" fill="rgb(63,77,37)" stroke="none" stroke-width="1"/><path id="eIbwBa6PJ0q39" d="M492.144000,262.191000C492.207000,262.709000,492.325000,263.207000,492.481000,263.687000C493.029000,263.706000,493.590000,263.692000,494.158000,263.621000C499.521000,262.964000,503.393000,258.469000,502.807000,253.585000C502.743000,253.068000,502.623000,252.571000,502.472000,252.090000C501.921000,252.071000,501.360000,252.086000,500.793000,252.155000C495.430000,252.814000,491.557000,257.306000,492.144000,262.191000" fill="rgb(63,77,37)" stroke="none" stroke-width="1"/><path id="eIbwBa6PJ0q40" d="M507.999000,260.247000C508.060000,260.765000,508.181000,261.263000,508.331000,261.743000C508.885000,261.762000,509.443000,261.748000,510.011000,261.677000C515.374000,261.020000,519.246000,256.526000,518.660000,251.641000C518.598000,251.125000,518.478000,250.627000,518.325000,250.147000C517.774000,250.128000,517.216000,250.142000,516.648000,250.211000C511.283000,250.868000,507.413000,255.362000,507.999000,260.247000" fill="rgb(63,77,37)" stroke="none" stroke-width="1"/><path id="eIbwBa6PJ0q41" d="M179.756000,141.247000C179.820000,141.763000,179.937000,142.260000,180.093000,142.741000C180.642000,142.760000,181.200000,142.746000,181.770000,142.677000C187.133000,142.018000,191.005000,137.525000,190.419000,132.641000C190.355000,132.122000,190.235000,131.627000,190.085000,131.147000C189.533000,131.125000,188.973000,131.142000,188.405000,131.211000C183.042000,131.867000,179.170000,136.362000,179.756000,141.247000" fill="rgb(63,77,37)" stroke="none" stroke-width="1"/><path id="eIbwBa6PJ0q42" d="M195.610000,139.303000C195.671000,139.819000,195.791000,140.316000,195.942000,140.797000C196.496000,140.816000,197.054000,140.802000,197.622000,140.733000C202.987000,140.076000,206.857000,135.582000,206.271000,130.697000C206.209000,130.178000,206.089000,129.681000,205.936000,129.200000C205.385000,129.181000,204.827000,129.196000,204.259000,129.267000C198.893000,129.924000,195.024000,134.418000,195.610000,139.303000" fill="rgb(63,77,37)" stroke="none" stroke-width="1"/><path id="eIbwBa6PJ0q43" d="M211.461000,137.359000C211.525000,137.875000,211.643000,138.373000,211.796000,138.853000C212.347000,138.872000,212.905000,138.858000,213.475000,138.789000C218.836000,138.130000,222.711000,133.638000,222.122000,128.753000C222.058000,128.234000,221.941000,127.739000,221.788000,127.256000C221.236000,127.240000,220.676000,127.252000,220.108000,127.323000C214.747000,127.980000,210.873000,132.474000,211.461000,137.359000" fill="rgb(63,77,37)" stroke="none" stroke-width="1"/><path id="eIbwBa6PJ0q44" d="M227.313000,135.415000C227.374000,135.931000,227.495000,136.429000,227.648000,136.909000C228.199000,136.928000,228.759000,136.914000,229.325000,136.845000C234.688000,136.186000,238.560000,131.694000,237.974000,126.807000C237.913000,126.290000,237.792000,125.796000,237.639000,125.313000C237.088000,125.294000,236.530000,125.310000,235.962000,125.377000C230.597000,126.036000,226.727000,130.528000,227.313000,135.415000" fill="rgb(63,77,37)" stroke="none" stroke-width="1"/><path id="eIbwBa6PJ0q45" d="M455.087000,166.807000C451.961000,164.906000,448.631000,162.786000,445.121000,160.509000L443.849000,162.513000C447.368000,164.797000,450.718000,166.929000,453.872000,168.846000L455.087000,166.807000ZM435.245000,154.028000C432.051000,151.920000,428.751000,149.741000,425.366000,147.526000L424.088000,149.524000C427.465000,151.732000,430.763000,153.912000,433.957000,156.020000L435.245000,154.028000ZM415.420000,141.109000C412.124000,139.017000,408.768000,136.926000,405.364000,134.868000L404.154000,136.907000C407.541000,138.958000,410.883000,141.040000,414.166000,143.124000L415.420000,141.109000ZM395.137000,128.874000C391.689000,126.926000,388.210000,125.037000,384.710000,123.235000L383.640000,125.355000C387.107000,127.140000,390.563000,129.015000,393.988000,130.951000L395.140000,128.874000L395.137000,128.874000ZM374.030000,118.068000C370.372000,116.416000,366.710000,114.894000,363.054000,113.530000L362.239000,115.762000C365.838000,117.104000,369.454000,118.608000,373.069000,120.240000L374.030000,118.068000ZM351.746000,109.850000C347.829000,108.774000,343.940000,107.927000,340.098000,107.351000L339.752000,109.704000C343.490000,110.266000,347.289000,111.092000,351.129000,112.146000L351.748000,109.850000L351.746000,109.850000ZM328.178000,106.488000C324.114000,106.535000,320.129000,106.964000,316.254000,107.827000L316.763000,110.152000C320.464000,109.324000,324.286000,108.912000,328.206000,108.867000L328.178000,106.488000ZM304.899000,111.839000C302.127000,113.221000,299.439000,114.894000,296.853000,116.876000C296.170000,117.399000,295.498000,117.927000,294.841000,118.460000L296.318000,120.316000C296.956000,119.795000,297.609000,119.281000,298.276000,118.772000C300.746000,116.878000,303.304000,115.289000,305.942000,113.973000L304.899000,111.839000ZM286.093000,126.659000C283.305000,129.693000,280.843000,132.855000,278.690000,136.138000L280.655000,137.452000C282.734000,134.280000,285.116000,131.218000,287.820000,128.280000L286.093000,126.659000ZM272.960000,146.743000C271.351000,150.435000,270.058000,154.245000,269.061000,158.154000L271.341000,158.749000C272.309000,154.956000,273.560000,151.271000,275.115000,147.702000L272.960000,146.743000ZM266.939000,170.017000C266.560000,173.543000,266.376000,177.136000,266.376000,180.786000C266.376000,181.202000,266.379000,181.618000,266.383000,182.035000L268.739000,182.006000C268.734000,181.599000,268.732000,181.193000,268.732000,180.786000C268.732000,177.217000,268.911000,173.710000,269.283000,170.274000L266.939000,170.017000ZM267.120000,194.012000C267.544000,197.912000,268.143000,201.864000,268.899000,205.863000L271.212000,205.416000C270.468000,201.476000,269.879000,197.583000,269.462000,193.750000L267.120000,194.012000ZM271.509000,217.543000C272.481000,221.345000,273.577000,225.181000,274.780000,229.042000L277.027000,228.326000C275.836000,224.503000,274.750000,220.708000,273.789000,216.949000L271.509000,217.543000ZM278.587000,240.363000C279.915000,244.065000,281.333000,247.786000,282.822000,251.517000L285.007000,250.627000C283.526000,246.920000,282.120000,243.225000,280.801000,239.552000L278.587000,240.363000ZM287.408000,262.526000C288.976000,266.147000,290.602000,269.773000,292.276000,273.402000L294.413000,272.395000C292.745000,268.784000,291.124000,265.174000,289.565000,261.572000L287.408000,262.526000ZM297.376000,284.163000C299.105000,287.723000,300.866000,291.275000,302.657000,294.820000L304.755000,293.738000C302.970000,290.204000,301.213000,286.662000,299.491000,283.117000L297.378000,284.166000L297.376000,284.163000ZM308.088000,305.413000C309.925000,308.944000,311.781000,312.460000,313.642000,315.960000L315.715000,314.832000C313.859000,311.340000,312.008000,307.828000,310.175000,304.304000L308.088000,305.413000ZM319.258000,326.439000C321.151000,329.950000,323.043000,333.436000,324.918000,336.893000L326.983000,335.749000C325.108000,332.292000,323.219000,328.808000,321.326000,325.301000L319.258000,326.439000ZM330.587000,347.336000C332.497000,350.862000,334.379000,354.348000,336.226000,357.791000L338.296000,356.658000C336.450000,353.210000,334.563000,349.720000,332.653000,346.194000L330.587000,347.336000ZM341.792000,368.281000C343.667000,371.857000,345.483000,375.376000,347.230000,378.831000L349.327000,377.748000C347.574000,374.281000,345.751000,370.751000,343.874000,367.167000L341.792000,368.281000ZM352.466000,389.473000C354.224000,393.156000,355.875000,396.751000,357.399000,400.247000L359.556000,399.288000C358.018000,395.762000,356.355000,392.143000,354.589000,388.441000L352.466000,389.473000ZM361.867000,411.201000C363.330000,415.091000,364.585000,418.824000,365.600000,422.386000L367.864000,421.727000C366.827000,418.091000,365.551000,414.296000,364.069000,410.356000L361.867000,411.201000ZM368.088000,433.825000C368.413000,436.202000,368.582000,438.463000,368.582000,440.604000C368.582000,442.260000,368.481000,443.845000,368.276000,445.351000L370.608000,445.677000C370.832000,444.049000,370.938000,442.358000,370.938000,440.604000C370.938000,438.339000,370.759000,435.969000,370.422000,433.499000L368.088000,433.825000ZM364.281000,455.784000C361.975000,458.960000,359.413000,461.863000,356.626000,464.504000L358.237000,466.241000C361.127000,463.500000,363.787000,460.488000,366.180000,457.190000L364.281000,455.784000ZM347.537000,471.709000C344.338000,473.828000,340.942000,475.701000,337.382000,477.338000L338.360000,479.505000C342.020000,477.821000,345.523000,475.889000,348.830000,473.698000L347.537000,471.709000ZM326.515000,481.471000C322.857000,482.599000,319.076000,483.524000,315.206000,484.255000L315.637000,486.593000C319.590000,485.846000,323.453000,484.902000,327.202000,483.748000L326.515000,481.471000ZM303.655000,485.841000C299.818000,486.184000,295.922000,486.360000,291.994000,486.377000L292.003000,488.756000C295.995000,488.739000,299.957000,488.561000,303.865000,488.211000L303.655000,485.841000ZM280.315000,485.968000C276.443000,485.684000,272.561000,485.259000,268.692000,484.699000L268.357000,487.055000C272.281000,487.621000,276.217000,488.054000,280.146000,488.340000L280.315000,485.968000ZM257.174000,482.627000C253.346000,481.804000,249.554000,480.854000,245.816000,479.786000L245.175000,482.075000C248.960000,483.158000,252.804000,484.121000,256.684000,484.954000L257.174000,482.627000ZM234.672000,476.186000C230.958000,474.844000,227.331000,473.384000,223.809000,471.818000L222.860000,473.995000C226.433000,475.584000,230.112000,477.067000,233.879000,478.428000L234.672000,476.186000ZM213.311000,466.638000C209.809000,464.730000,206.462000,462.710000,203.301000,460.588000L201.998000,462.570000C205.223000,464.735000,208.631000,466.793000,212.195000,468.734000L213.311000,466.638000" fill="rgb(255,255,255)" stroke="none" stroke-width="1"/><path id="eIbwBa6PJ0q46" d="M186.432000,475.582000C183.495000,473.496000,183.026000,469.589000,185.384000,466.850000L204.482000,444.690000C206.839000,441.953000,211.131000,441.428000,214.071000,443.514000C217.008000,445.601000,217.476000,449.508000,215.119000,452.246000L196.019000,474.407000C193.661000,477.145000,189.369000,477.669000,186.432000,475.582000Z" fill="rgb(232,133,40)" stroke="none" stroke-width="1"/><path id="eIbwBa6PJ0q47" d="M217.467000,471.780000C219.825000,469.041000,219.354000,465.132000,216.417000,463.046000L192.622000,446.143000C189.685000,444.056000,185.394000,444.582000,183.036000,447.318000C180.678000,450.055000,181.149000,453.964000,184.086000,456.050000L207.881000,472.955000C210.818000,475.042000,215.110000,474.514000,217.467000,471.780000Z" fill="rgb(232,133,40)" stroke="none" stroke-width="1"/><path id="eIbwBa6PJ0q48" d="M465.434000,166.481000C466.099000,171.994000,461.729000,177.062000,455.681000,177.804000C449.627000,178.547000,444.186000,174.680000,443.524000,169.170000C442.862000,163.657000,447.229000,158.589000,453.280000,157.847000C459.331000,157.104000,464.773000,160.971000,465.434000,166.481000" fill="rgb(249,188,70)" stroke="none" stroke-width="1"/></g></g><g id="eIbwBa6PJ0q49_to" transform="translate(651.042969,488.760000)"><g id="eIbwBa6PJ0q49" transform="translate(-671.042969,-380.085938)"><path id="eIbwBa6PJ0q50" d="M601.637000,468.394000C594.955000,469.215000,589.335000,471.599000,586.525000,474.459000C583.124000,472.360000,577.103000,471.401000,570.421000,472.220000C560.479000,473.440000,552.861000,478.123000,553.410000,482.679000L584.627000,478.849000L589.413000,478.261000L620.629000,474.435000C620.082000,469.879000,611.577000,467.173000,601.637000,468.394000" fill="rgb(214,195,214)" stroke="none" stroke-width="1"/><path id="eIbwBa6PJ0q51" d="M697.114000,162.567000L748.302000,142.284000C759.540000,137.832000,772.318000,140.549000,780.826000,149.203000L801.485000,170.221000L694.566000,221.826000L697.114000,162.567000" fill="rgb(213,99,57)" stroke="none" stroke-width="1"/><path id="eIbwBa6PJ0q52" d="M715.275000,155.301000L581.728000,215.861000L547.365000,306.310000C536.680000,334.438000,516.615000,357.917000,490.625000,372.697000C472.324000,383.106000,460.120000,401.798000,457.854000,422.890000L448.956000,505.663000C447.250000,521.535000,455.242000,536.865000,469.165000,544.424000L608.365000,620L822.477000,225.440000L715.275000,155.301000" fill="rgb(248,153,68)" stroke="none" stroke-width="1"/><path id="eIbwBa6PJ0q53" d="M553.279000,501.302000L445.905000,463.557000L422.765000,529.323000C420.622000,535.416000,423.731000,542.119000,429.740000,544.353000L566.615000,595.262000L585.661000,505.901000L553.279000,501.302000" fill="rgb(178,77,41)" stroke="none" stroke-width="1"/><path id="eIbwBa6PJ0q54" d="M920,272.897000L860.676000,488.088000C857.772000,498.628000,846.629000,504.469000,836.425000,500.802000C827.642000,497.647000,822.504000,488.430000,824.393000,479.206000L862.980000,290.747000L920,272.897000Z" fill="rgb(154,67,37)" stroke="none" stroke-width="1"/><path id="eIbwBa6PJ0q55" d="M838.334000,469.588000L815.460000,550.273000C811.708000,563.506000,799.978000,572.826000,786.366000,573.387000L734.222000,575.543000L734.703000,587.430000L786.847000,585.274000C805.537000,584.501000,821.632000,571.712000,826.783000,553.549000L849.654000,472.862000L838.334000,469.588000Z" fill="rgb(114,47,24)" stroke="none" stroke-width="1"/><path id="eIbwBa6PJ0q56" d="M822.477000,225.438000L756.891000,572.524000C752.401000,596.281000,732.399000,613.848000,708.487000,615.033000L610.964000,619.872000C590.255000,620.898000,574.127000,601.954000,578.235000,581.425000L599.245000,476.432000C603.080000,457.264000,616.209000,441.337000,634.176000,434.057000L666.184000,421.087000C675.862000,417.164000,682.874000,408.494000,684.747000,398.129000L712.246000,245.857000L822.477000,225.438000" fill="rgb(246,140,61)" stroke="none" stroke-width="1"/><path id="eIbwBa6PJ0q57" d="M770.563000,234.634000L742.520000,396.423000L744.840000,396.832000L772.883000,235.045000" fill="rgb(114,47,24)" stroke="none" stroke-width="1"/><path id="eIbwBa6PJ0q58" d="M822.477000,225.438000L770.922000,238.586000C755.122000,242.616000,741.960000,253.623000,735.086000,268.548000L714.853000,312.505000C709.052000,325.104000,693.744000,329.877000,681.925000,322.774000L574.527000,258.239000C563.231000,251.450000,559.757000,236.551000,566.872000,225.385000L593.896000,182.963000C601.699000,170.714000,614.016000,162.118000,628.118000,159.077000L682.130000,147.430000C692.303000,145.239000,702.919000,147.216000,711.648000,152.926000L822.477000,225.438000" fill="rgb(197,87,43)" stroke="none" stroke-width="1"/><path id="eIbwBa6PJ0q59" d="M648.322000,604.223000L719.691000,599.933000C731.786000,599.205000,741.349000,589.300000,741.764000,577.066000L744.522000,495.435000L649.564000,494.678000L648.322000,604.223000" fill="rgb(178,77,41)" stroke="none" stroke-width="1"/><path id="eIbwBa6PJ0q60" d="M631.519000,468.913000L622.793000,587.987000C622.166000,596.542000,628.787000,603.873000,637.278000,604.025000L648.323000,604.223000C658.856000,604.413000,667.715000,596.274000,668.525000,585.662000L674.659000,505.342000C675.271000,497.300000,671.069000,489.665000,663.984000,485.948000L631.519000,468.913000" fill="rgb(154,67,37)" stroke="none" stroke-width="1"/><path id="eIbwBa6PJ0q61" d="M631.519000,468.913000L655.921000,486.194000C660.916000,489.729000,664.150000,495.275000,664.793000,501.400000L666.091000,513.748000C667.231000,524.607000,676.504000,532.714000,687.306000,532.292000L730.698000,530.610000C742.124000,530.168000,750.994000,520.384000,750.424000,508.849000L749.796000,496.001000C749.508000,490.165000,746.861000,484.702000,742.472000,480.893000L727.155000,467.592000C723.036000,464.016000,717.679000,462.244000,712.264000,462.663000L631.519000,468.913000" fill="rgb(197,87,43)" stroke="none" stroke-width="1"/><path id="eIbwBa6PJ0q62" d="M689.365000,391.866000L789.058000,402.802000L789.312000,400.436000L689.620000,389.501000" fill="rgb(114,47,24)" stroke="none" stroke-width="1"/><path id="eIbwBa6PJ0q63" d="M626.099000,268.103000L596.028000,340.034000L599.547000,358.361000L618.800000,348.511000L650.454000,278.779000C651.533000,276.404000,650.466000,273.599000,648.089000,272.564000L632.167000,265.638000C629.819000,264.617000,627.096000,265.724000,626.099000,268.103000" fill="rgb(114,47,24)" stroke="none" stroke-width="1"/><path id="eIbwBa6PJ0q64" d="M616.206000,291.865000C615.269000,291.430000,614.279000,291.223000,613.309000,291.223000C610.685000,291.223000,608.172000,292.736000,607.001000,295.301000L599.956000,310.728000C599.523000,311.677000,599.315000,312.679000,599.315000,313.662000C599.313000,316.384000,600.896000,318.980000,603.543000,320.119000L627.413000,330.381000C628.299000,330.759000,629.222000,330.943000,630.129000,330.943000C632.838000,330.943000,635.412000,329.329000,636.531000,326.648000L642.292000,312.817000C642.662000,311.932000,642.836000,311.009000,642.836000,310.100000C642.839000,307.545000,641.449000,305.099000,639.072000,303.862000L638.839000,303.740000L637.761000,305.855000L637.994000,305.977000C639.565000,306.793000,640.481000,308.411000,640.481000,310.100000C640.481000,310.700000,640.365000,311.306000,640.121000,311.894000L634.359000,325.725000C633.622000,327.497000,631.919000,328.561000,630.129000,328.563000C629.531000,328.561000,628.925000,328.444000,628.336000,328.190000L604.464000,317.930000C602.712000,317.178000,601.673000,315.463000,601.671000,313.662000C601.671000,313.015000,601.805000,312.358000,602.095000,311.725000L609.140000,296.298000C609.912000,294.601000,611.573000,293.604000,613.309000,293.602000C613.950000,293.602000,614.597000,293.738000,615.221000,294.028000L616.206000,291.865000" fill="rgb(88,38,22)" stroke="none" stroke-width="1"/><path id="eIbwBa6PJ0q65" d="M635.009000,289.486000C634.787000,291.570000,632.931000,293.079000,630.865000,292.853000C628.802000,292.624000,627.309000,290.752000,627.535000,288.665000C627.756000,286.578000,629.612000,285.072000,631.676000,285.298000C633.741000,285.524000,635.235000,287.399000,635.009000,289.486000" fill="rgb(88,38,22)" stroke="none" stroke-width="1"/><path id="eIbwBa6PJ0q66" d="M625.312000,307.656000C625.090000,309.741000,623.232000,311.249000,621.169000,311.023000C619.105000,310.795000,617.612000,308.920000,617.836000,306.835000C618.059000,304.749000,619.916000,303.243000,621.981000,303.469000C624.045000,303.695000,625.538000,305.570000,625.312000,307.656000" fill="rgb(88,38,22)" stroke="none" stroke-width="1"/><path id="eIbwBa6PJ0q67" d="M704.129000,519.765000L702.732000,563.223000L708.190000,572.041000L716.248000,563.033000L718.902000,520.394000C718.992000,518.942000,717.882000,517.698000,716.443000,517.643000L706.796000,517.258000C705.373000,517.201000,704.176000,518.326000,704.129000,519.765000" fill="rgb(114,47,24)" stroke="none" stroke-width="1"/><path id="eIbwBa6PJ0q68" d="M703.721000,533.587000L703.439000,533.577000C701.142000,533.580000,699.218000,535.378000,699.065000,537.722000L698.455000,547.165000L698.445000,547.456000C698.445000,549.828000,700.304000,551.798000,702.680000,551.884000L717.119000,552.395000L717.274000,552.397000C719.637000,552.397000,721.583000,550.504000,721.658000,548.105000L721.917000,539.752000L721.919000,539.611000C721.917000,537.356000,720.238000,535.452000,718.005000,535.207000L717.863000,535.190000L717.602000,537.555000L717.748000,537.572000C718.784000,537.684000,719.564000,538.569000,719.564000,539.611000L719.562000,539.680000L719.305000,548.031000C719.272000,549.140000,718.365000,550.021000,717.274000,550.018000L717.199000,550.018000L702.763000,549.507000C701.660000,549.469000,700.801000,548.550000,700.801000,547.456000L700.805000,547.322000L701.416000,537.877000C701.482000,536.792000,702.381000,535.957000,703.439000,535.957000L703.571000,535.961000L703.721000,533.587000" fill="rgb(88,38,22)" stroke="none" stroke-width="1"/><path id="eIbwBa6PJ0q69" d="M712.992000,529.078000C713.289000,530.206000,712.622000,531.367000,711.503000,531.666000C710.385000,531.964000,709.240000,531.291000,708.943000,530.163000C708.646000,529.033000,709.313000,527.874000,710.432000,527.574000C711.551000,527.277000,712.698000,527.948000,712.992000,529.078000Z" fill="rgb(88,38,22)" stroke="none" stroke-width="1"/><path id="eIbwBa6PJ0q70" d="M711.548000,540.482000C711.845000,541.609000,711.179000,542.770000,710.062000,543.068000C708.941000,543.368000,707.796000,542.694000,707.499000,541.564000C707.202000,540.434000,707.869000,539.278000,708.988000,538.978000C710.104000,538.678000,711.254000,539.351000,711.548000,540.482000" fill="rgb(88,38,22)" stroke="none" stroke-width="1"/><path id="eIbwBa6PJ0q71" d="M450.418000,500.976000L436.813000,542.233000L439.552000,552.254000L449.820000,545.942000L464.400000,505.837000C464.897000,504.471000,464.183000,502.960000,462.819000,502.491000L453.680000,499.343000C452.333000,498.877000,450.870000,499.612000,450.418000,500.976000" fill="rgb(114,47,24)" stroke="none" stroke-width="1"/><path id="eIbwBa6PJ0q72" d="M446.127000,514.110000C445.630000,513.924000,445.114000,513.836000,444.610000,513.836000C442.824000,513.834000,441.150000,514.945000,440.493000,516.734000L437.244000,525.607000C437.061000,526.111000,436.971000,526.632000,436.971000,527.146000C436.971000,528.995000,438.125000,530.722000,439.965000,531.345000L453.657000,535.997000C454.119000,536.154000,454.592000,536.230000,455.056000,536.228000C456.896000,536.230000,458.608000,535.050000,459.221000,533.192000L461.826000,525.259000C461.976000,524.800000,462.049000,524.327000,462.049000,523.863000C462.052000,522.121000,461.027000,520.484000,459.357000,519.775000L459.343000,519.770000L459.218000,519.718000L458.318000,521.916000L458.453000,521.971000L458.448000,521.971000C459.223000,522.297000,459.694000,523.056000,459.694000,523.863000C459.694000,524.077000,459.661000,524.293000,459.590000,524.510000L456.985000,532.442000C456.705000,533.304000,455.906000,533.848000,455.056000,533.848000C454.842000,533.848000,454.625000,533.815000,454.408000,533.741000L440.714000,529.090000C439.861000,528.804000,439.329000,528,439.327000,527.146000C439.327000,526.908000,439.367000,526.670000,439.454000,526.432000L442.702000,517.557000C443.003000,516.727000,443.783000,516.218000,444.610000,516.216000C444.843000,516.216000,445.079000,516.256000,445.312000,516.344000L446.127000,514.110000Z" fill="rgb(88,38,22)" stroke="none" stroke-width="1"/><path id="eIbwBa6PJ0q73" d="M456.285000,512.459000C456.250000,513.627000,455.284000,514.543000,454.130000,514.510000C452.971000,514.474000,452.065000,513.498000,452.098000,512.333000C452.133000,511.162000,453.099000,510.246000,454.255000,510.279000C455.409000,510.315000,456.318000,511.290000,456.285000,512.459000" fill="rgb(88,38,22)" stroke="none" stroke-width="1"/><path id="eIbwBa6PJ0q74" d="M451.681000,522.973000C451.648000,524.138000,450.682000,525.057000,449.523000,525.024000C448.369000,524.988000,447.460000,524.012000,447.495000,522.846000C447.530000,521.676000,448.496000,520.760000,449.650000,520.793000C450.807000,520.829000,451.716000,521.804000,451.681000,522.973000" fill="rgb(88,38,22)" stroke="none" stroke-width="1"/><path id="eIbwBa6PJ0q75" d="M514.459000,525.587000L500.852000,566.842000L503.596000,576.864000L513.861000,570.549000L528.439000,530.446000C528.936000,529.080000,528.224000,527.569000,526.858000,527.101000L517.724000,523.951000C516.374000,523.489000,514.909000,524.222000,514.459000,525.587000" fill="rgb(114,47,24)" stroke="none" stroke-width="1"/><path id="eIbwBa6PJ0q76" d="M510.167000,538.719000C509.668000,538.533000,509.154000,538.445000,508.650000,538.445000C506.865000,538.443000,505.190000,539.551000,504.535000,541.343000L501.287000,550.215000C501.101000,550.720000,501.014000,551.241000,501.014000,551.752000C501.012000,553.603000,502.166000,555.328000,504.003000,555.956000L517.700000,560.606000C518.159000,560.763000,518.633000,560.836000,519.097000,560.836000C520.936000,560.839000,522.649000,559.659000,523.261000,557.798000L525.866000,549.868000C526.019000,549.409000,526.090000,548.938000,526.090000,548.474000C526.090000,546.732000,525.070000,545.093000,523.400000,544.384000L523.393000,544.381000L523.252000,544.324000L522.364000,546.527000L522.500000,546.582000L522.943000,545.481000L522.488000,546.577000C523.261000,546.903000,523.734000,547.667000,523.734000,548.474000C523.734000,548.688000,523.701000,548.904000,523.631000,549.121000L521.026000,557.049000C520.745000,557.912000,519.947000,558.457000,519.097000,558.457000C518.882000,558.457000,518.666000,558.424000,518.449000,558.350000L504.755000,553.701000C503.902000,553.413000,503.370000,552.609000,503.370000,551.752000C503.370000,551.517000,503.410000,551.279000,503.497000,551.041000L506.745000,542.166000C507.046000,541.336000,507.826000,540.824000,508.650000,540.824000C508.884000,540.824000,509.117000,540.865000,509.352000,540.950000L510.167000,538.719000" fill="rgb(88,38,22)" stroke="none" stroke-width="1"/><path id="eIbwBa6PJ0q77" d="M520.327000,537.067000C520.292000,538.233000,519.326000,539.154000,518.169000,539.116000C517.015000,539.083000,516.104000,538.107000,516.141000,536.939000C516.174000,535.771000,517.140000,534.852000,518.296000,534.888000C519.453000,534.924000,520.362000,535.899000,520.327000,537.067000Z" fill="rgb(88,38,22)" stroke="none" stroke-width="1"/><path id="eIbwBa6PJ0q78" d="M515.722000,547.582000C515.687000,548.748000,514.724000,549.666000,513.567000,549.630000C512.411000,549.597000,511.501000,548.622000,511.537000,547.453000C511.570000,546.285000,512.535000,545.367000,513.694000,545.402000C514.848000,545.438000,515.760000,546.414000,515.722000,547.582000Z" fill="rgb(88,38,22)" stroke="none" stroke-width="1"/><path id="eIbwBa6PJ0q79" d="M817.822000,250.066000L871.377000,237.479000C883.133000,234.715000,895.390000,239.273000,902.567000,249.078000L919.999000,272.897000L806.812000,308.327000L817.822000,250.066000Z" fill="rgb(213,99,57)" stroke="none" stroke-width="1"/><path id="eIbwBa6PJ0q80" d="M687.151000,179.722000L714.597000,160.414000C716.514000,159.065000,718.747000,158.387000,720.989000,158.387000C722.963000,158.387000,724.934000,158.913000,726.701000,159.971000L754.448000,176.622000C758.014000,178.763000,759.915000,182.513000,759.922000,186.350000C759.917000,188.884000,759.090000,191.418000,757.335000,193.555000L740.855000,213.584000L744.477000,216.627000L760.958000,196.598000C763.436000,193.588000,764.635000,189.938000,764.630000,186.350000C764.637000,180.928000,761.905000,175.560000,756.853000,172.529000L729.108000,155.881000C726.600000,154.375000,723.790000,153.628000,720.989000,153.628000C717.807000,153.628000,714.625000,154.594000,711.904000,156.509000L684.459000,175.817000L687.151000,179.722000" fill="rgb(88,38,22)" stroke="none" stroke-width="1"/><path id="eIbwBa6PJ0q81" d="M585.661000,505.901000L553.279000,501.302000L541.763000,557.391000C538.593000,572.823000,547.171000,588.253000,561.866000,593.549000L566.615000,595.262000L585.661000,505.901000Z" fill="rgb(154,67,37)" stroke="none" stroke-width="1"/><path id="eIbwBa6PJ0q82" d="M585.661000,505.901000L567.946000,510.931000C562.083000,512.594000,557.396000,517.050000,555.401000,522.861000C552.014000,532.713000,541.247000,537.798000,531.595000,534.100000L442.956000,500.162000C433.668000,496.605000,428.877000,486.222000,432.151000,476.750000L434.665000,469.491000C436.584000,463.938000,440.968000,459.612000,446.508000,457.804000L450.307000,456.562000C453.164000,455.629000,456.254000,455.715000,459.057000,456.802000L585.661000,505.901000Z" fill="rgb(197,87,43)" stroke="none" stroke-width="1"/><path id="eIbwBa6PJ0q83" d="M567.274000,412.971000L492.017000,380.458000L533.653000,351.133000L616.983000,387.632000L567.274000,412.971000Z" fill="rgb(248,164,82)" stroke="none" stroke-width="1"/><path id="eIbwBa6PJ0q84" d="M615.706000,433.896000L585.743000,420.951000L625.003000,391.145000L661.168000,406.984000L615.706000,433.896000" fill="rgb(248,164,82)" stroke="none" stroke-width="1"/><path id="eIbwBa6PJ0q85" d="M531.583000,501.921000L442.444000,465.230000L457.740000,459.791000L542.768000,493.179000L531.583000,501.921000" fill="rgb(200,95,53)" stroke="none" stroke-width="1"/><path id="eIbwBa6PJ0q86" d="M556.485000,510.548000L540.042000,502.846000L552.540000,496.743000L569.301000,506.056000L556.485000,510.548000Z" fill="rgb(200,95,53)" stroke="none" stroke-width="1"/><path id="eIbwBa6PJ0q87" d="M631.998000,208.647000L663.213000,196.794000C668.554000,194.769000,674.540000,197.412000,676.614000,202.715000L688.309000,232.639000C690.356000,237.885000,687.818000,243.802000,682.592000,245.953000L651.672000,258.683000C646.277000,260.904000,640.104000,258.275000,637.995000,252.858000L626.001000,222.049000C623.923000,216.704000,626.607000,210.688000,631.998000,208.647000" fill="rgb(246,140,61)" stroke="none" stroke-width="1"/><path id="eIbwBa6PJ0q88" d="M646.446000,228.625000L650.703000,222.377000L644.144000,225.392000L643.067000,224.640000L643.470000,217.521000L639.290000,223.625000L637.047000,222.058000L644.166000,211.662000L646.143000,213.043000L645.585000,222.205000L653.816000,218.405000L655.778000,219.776000L648.689000,230.192000L646.446000,228.625000ZM660.538000,238.472000L664.795000,232.224000L658.236000,235.239000L657.159000,234.486000L657.562000,227.368000L653.382000,233.472000L651.139000,231.905000L658.258000,221.509000L660.235000,222.890000L659.677000,232.052000L667.908000,228.252000L669.870000,229.623000L662.781000,240.039000L660.538000,238.472000ZM672.350000,231.356000L674.740000,233.026000L667.621000,243.422000L665.231000,241.752000L672.350000,231.356000Z" fill="rgb(151,65,30)" stroke="none" stroke-width="1"/></g></g><g id="eIbwBa6PJ0q89_to" transform="translate(86.863281,461.279289)"><g id="eIbwBa6PJ0q89" transform="translate(-86.863281,-431.927734)"><path id="eIbwBa6PJ0q90" d="M143.734000,347.024000L147.213000,318.087000L68.344800,308.408000L64.863500,337.345000C64.074400,343.907000,59.658000,349.441000,53.477400,351.616000C35.785900,357.838000,23.139700,373.689000,20.878500,392.476000L0.271010,563.815000C-2.166840,584.073000,12.114000,602.488000,32.168000,604.948000L112.038000,614.751000C132.089000,617.214000,150.322000,602.788000,152.758000,582.531000L173.368000,411.191000C175.627000,392.404000,167.107000,373.955000,151.404000,363.636000C145.920000,360.029000,142.943000,353.586000,143.734000,347.024000" fill="rgb(148,136,151)" stroke="none" stroke-width="1"/><path id="eIbwBa6PJ0q91" d="M147.213000,318.088000L68.344300,308.409000C65.131500,308.014000,62.844400,305.063000,63.235400,301.820000C63.624100,298.573000,66.544800,296.262000,69.757500,296.657000L148.626000,306.336000C151.839000,306.731000,154.126000,309.682000,153.737000,312.927000C153.346000,316.172000,150.426000,318.483000,147.213000,318.088000Z" fill="rgb(106,95,111)" stroke="none" stroke-width="1"/><path id="eIbwBa6PJ0q92" d="M114.468000,257.627000C121.577000,258.500000,126.641000,265.027000,125.776000,272.207000C124.914000,279.388000,118.451000,284.503000,111.342000,283.630000C104.234000,282.757000,99.169600,276.228000,100.034000,269.050000C100.898000,261.869000,107.362000,256.754000,114.468000,257.627000ZM139.141000,300.009000L130.706000,298.974000C129.733000,298.855000,128.966000,298.084000,128.841000,297.102000C128.125000,291.425000,129.425000,285.762000,132.049000,280.687000C133.212000,278.431000,134.004000,275.933000,134.326000,273.257000C135.799000,261.029000,126.940000,249.937000,114.678000,248.905000C103.704000,247.981000,93.537800,255.909000,91.648800,266.868000C91.109400,270.009000,91.260100,273.088000,91.985600,275.964000C93.332900,281.322000,93.274000,286.942000,91.302500,292.098000L91.156500,292.476000C90.805600,293.400000,89.877500,293.963000,88.902400,293.842000L80.656100,292.831000C77.874300,292.491000,75.347000,294.492000,75.007800,297.302000L143.564000,305.715000C143.904000,302.905000,141.923000,300.352000,139.141000,300.009000" fill="rgb(45,40,38)" stroke="none" stroke-width="1"/><path id="eIbwBa6PJ0q93" d="M136.107000,548.443000C135.726000,548.443000,135.342000,548.419000,134.953000,548.372000C129.764000,547.736000,126.066000,542.968000,126.698000,537.724000L142.272000,408.260000C142.853000,403.409000,146.938000,399.849000,151.656000,399.849000C152.037000,399.849000,152.421000,399.873000,152.810000,399.921000C158.001000,400.558000,161.697000,405.324000,161.068000,410.568000L145.494000,540.032000C144.910000,544.884000,140.825000,548.443000,136.107000,548.443000" fill="rgb(171,160,171)" stroke="none" stroke-width="1"/><path id="eIbwBa6PJ0q94" d="M130.486000,595.163000C130.105000,595.163000,129.721000,595.139000,129.332000,595.091000C124.143000,594.454000,120.445000,589.688000,121.077000,584.444000L123.130000,567.380000C123.712000,562.531000,127.797000,558.971000,132.517000,558.971000C132.898000,558.971000,133.282000,558.993000,133.669000,559.040000C138.860000,559.678000,142.556000,564.444000,141.927000,569.688000L139.873000,586.752000C139.289000,591.603000,135.207000,595.163000,130.486000,595.163000" fill="rgb(171,160,171)" stroke="none" stroke-width="1"/><path id="eIbwBa6PJ0q95" d="M106.100000,605.510000C96.654500,605.510000,85.188300,604.784000,72.895400,603.276000C41.443600,599.414000,16.476300,591.891000,17.128700,586.469000C17.526800,583.164000,27.339400,581.403000,42.053600,581.403000C51.498800,581.403000,62.960300,582.129000,75.255600,583.637000C106.707000,587.496000,131.672000,595.022000,131.020000,600.447000C130.624000,603.749000,120.814000,605.510000,106.100000,605.510000" fill="rgb(140,128,144)" stroke="none" stroke-width="1"/></g></g></svg>