<svg width="197" height="336" viewBox="0 0 197 336" fill="none" xmlns="http://www.w3.org/2000/svg">
<g clip-path="url(#clip0)">
<path d="M108.387 153.877L9.3919 54.8822C-3.10488 42.3855 -3.10488 22.1242 9.3919 9.62742C21.8887 -2.86936 42.15 -2.86936 54.6467 9.62742L184.754 139.735C200.375 155.356 200.375 180.683 184.754 196.304L54.6467 326.411C42.15 338.908 21.8887 338.908 9.3919 326.411C-3.10488 313.914 -3.10488 293.653 9.3919 281.156L108.387 182.161C116.197 174.351 116.197 161.688 108.387 153.877Z" fill="#299E58"/>
<path d="M108.387 153.877L9.3919 54.8822C-3.10488 42.3855 -3.10488 22.1242 9.3919 9.62742C21.8887 -2.86936 42.15 -2.86936 54.6467 9.62742L184.754 139.735C200.375 155.356 200.375 180.683 184.754 196.304L54.6467 326.411C42.15 338.908 21.8887 338.908 9.3919 326.411C-3.10488 313.914 -3.10488 293.653 9.3919 281.156L108.387 182.161C116.197 174.351 116.197 161.688 108.387 153.877Z" stroke="black"/>
</g>
<defs>
<clipPath id="clip0">
<rect width="197" height="336" fill="white"/>
</clipPath>
</defs>
</svg>
